<?xml version="1.0" encoding="UTF-8"?>
<svg xmlns="http://www.w3.org/2000/svg" viewBox="0 0 64 64"><g id="ks8l7kkqt7" class="Group.cls" transform="translate(19.5 4.5)"><g class="Prim.cls"><g id="ks8l7kkqt8" transform="translate(3.21 9.729)"><path d="M 18.1479 0 L 0 35.3898" fill="none" stroke="#000000" stroke-width="0.4072"/></g><g id="ks8l7kkqt9" transform="translate(2 2)"><path fill="none" d="M 16.7767 2.0869 L 20.9709 2.0869 L 20.9709 45.9131 L 16.7767 45.9131 L 16.7767 48 L 4.1942 48 L 4.1942 45.9131 L 0 45.9131 L 0 2.0869 L 4.1942 2.0869 L 4.1942 0 L 16.7767 0 Z" stroke="#000000" stroke-width="0.4072"/></g><g id="ks8l7kkqta" transform="translate(0 26) rotate(90 2 0)"><path d="M 4 0 L 1e-13 1e-13" fill="none" stroke="#ff0000"/></g><g id="ks8l7kkqtb" transform="translate(1 25) rotate(90 0 1)"><path d="M 0 2 L 1e-13 1e-13" fill="none" stroke="#ff0000"/></g><g id="ks8l7kkqtc" transform="translate(21 26) rotate(270 2 0)"><path d="M 4 0 L 1e-13 1e-13" fill="none" stroke="#ff0000"/></g><g id="ks8l7kkqtd" transform="translate(24 25) rotate(270 0 1)"><path d="M 0 2 L 1e-13 1e-13" fill="none" stroke="#ff0000"/></g><g id="ks8l7kkqte" transform="translate(11 50)"><path d="M 4 0 L 1e-13 1e-13" fill="none" stroke="#ff0000"/></g><g id="ks8l7kkqtf" transform="translate(13 50)"><path d="M 0 2 L 1e-13 1e-13" fill="none" stroke="#ff0000"/></g><g id="ks8l7kkqtg" transform="translate(11 2) rotate(180 2 0)"><path d="M 4 0 L 1e-13 1e-13" fill="none" stroke="#ff0000"/></g><g id="ks8l7kkqth" transform="translate(13 0) rotate(180 0 1)"><path d="M 0 2 L 1e-13 1e-13" fill="none" stroke="#ff0000"/></g></g></g></svg>