<?xml version="1.0" encoding="UTF-8"?>
<svg xmlns="http://www.w3.org/2000/svg" viewBox="0 0 64 64"><g id="ks8l7ygu1n6" class="Group.cls" transform="translate(10.5 10.5)"><g class="Prim.cls"><g id="ks8l7ygv1n7" transform="translate(2 2)"><ellipse fill="white" cx="19.95191764831543" cy="19.9999942779541" rx="19.95191764831543" ry="19.9999942779541" stroke="#000000" stroke-width="0.5"/></g><g id="ks8l7ygv1n8" transform="translate(9.981 10)"><path d="M 31.923076923076902 0 L 7.980769230769221e-14 7.999999999999997e-14 L 15.961538461538451 12 L 0 24 L 31.923076923076902 24" fill="none" stroke="#000000" stroke-width="0.5"/></g><g id="ks8l7ygv1n9" transform="translate(40.304 10) rotate(270 1.6 0)"><path d="M 3.199999999999919 0 L 0 7.980769230769223e-14" fill="none" stroke="#ff0000"/></g><g id="ks8l7ygv1na" transform="translate(42.702 9.202) rotate(270 0 0.798)"><path d="M 0 1.5961538461537652 L 7.999999999999999e-14 0" fill="none" stroke="#ff0000"/></g><g id="ks8l7ygv1nb" transform="translate(40.304 34) rotate(270 1.6 0)"><path d="M 3.199999999999919 0 L 0 7.980769230769223e-14" fill="none" stroke="#ff0000"/></g><g id="ks8l7ygv1nc" transform="translate(42.702 33.202) rotate(270 0 0.798)"><path d="M 0 1.5961538461537652 L 7.999999999999999e-14 0" fill="none" stroke="#ff0000"/></g><g id="ks8l7ygv1nd" transform="translate(0 22) rotate(90 2 0)"><path d="M 4 0 L 1e-13 1e-13" fill="none" stroke="#ff0000"/></g><g id="ks8l7ygv1ne" transform="translate(1 21) rotate(90 0 1)"><path d="M 0 2 L 1e-13 1e-13" fill="none" stroke="#ff0000"/></g><g id="ks8l7ygv1nf" transform="translate(20 42)"><path d="M 4 0 L 1e-13 1e-13" fill="none" stroke="#ff0000"/></g><g id="ks8l7ygv1ng" transform="translate(22 42)"><path d="M 0 2 L 1e-13 1e-13" fill="none" stroke="#ff0000"/></g><g id="ks8l7ygv1nh" transform="translate(20 2) rotate(180 2 0)"><path d="M 4 0 L 1e-13 1e-13" fill="none" stroke="#ff0000"/></g><g id="ks8l7ygv1ni" transform="translate(22 0) rotate(180 0 1)"><path d="M 0 2 L 1e-13 1e-13" fill="none" stroke="#ff0000"/></g></g></g></svg>