<?xml version="1.0" encoding="UTF-8"?>
<svg xmlns="http://www.w3.org/2000/svg" viewBox="0 0 64 64"><g id="ks8lhvbm4il" class="Group.cls" transform="translate(18.5 21.5)"><g class="Prim.cls"><g id="ks8lhvbn4im" transform="translate(2 2.044)"><rect fill="white" height="11.95646099395752" stroke="#000000" stroke-width="0.6002" width="24" x="0" y="0"/></g><g id="ks8lhvbn4in" transform="translate(2 13.986)"><ellipse fill="white" cx="3" cy="3.2354" rx="3" ry="3.2354" stroke="#000000" stroke-width="0.6002"/></g><g id="ks8lhvbn4io" transform="translate(20 13.986)"><ellipse fill="white" cx="3" cy="3.2354" rx="3" ry="3.2354" stroke="#000000" stroke-width="0.6002"/></g><g id="ks8lhvbn4ip" transform="translate(-0.043 8.044) rotate(90 2.043 0)"><path d="M 4.087 0 L 1e-13 1e-13" fill="none" stroke="#ff0000"/></g><g id="ks8lhvbn4iq" transform="translate(1 7.044) rotate(90 0 1)"><path d="M 0 2 L 1e-13 1e-13" fill="none" stroke="#ff0000"/></g><g id="ks8lhvbn4ir" transform="translate(23.957 7.997) rotate(270 2.043 0)"><path d="M 4.087 0 L 1e-13 1e-13" fill="none" stroke="#ff0000"/></g><g id="ks8lhvbn4is" transform="translate(27 6.997) rotate(270 0 1)"><path d="M 0 2 L 1e-13 1e-13" fill="none" stroke="#ff0000"/></g><g id="ks8lhvbn4it" transform="translate(12 19.957)"><path d="M 4 0 L 1e-13 1e-13" fill="none" stroke="#ff0000"/></g><g id="ks8lhvbn4iu" transform="translate(14 19.957)"><path d="M 0 2.0435 L 1e-13 1e-13" fill="none" stroke="#ff0000"/></g><g id="ks8lhvbn4iv" transform="translate(12 2.044) rotate(180 2 0)"><path d="M 3.999999999999886 0 L 0 1.0217391304347784e-13" fill="none" stroke="#ff0000"/></g><g id="ks8lhvbn4iw" transform="translate(14 0) rotate(180 0 1.022)"><path d="M 0 2.043478260869455 L 9.999999999999965e-14 0" fill="none" stroke="#ff0000"/></g></g></g></svg>