<?xml version="1.0" encoding="UTF-8"?>
<svg xmlns="http://www.w3.org/2000/svg" viewBox="0 0 64 64"><g id="ks8lf8qh2um" class="Group.cls" transform="translate(5.5 15.5)"><g class="Prim.cls"><g id="ks8lf8qh2un" transform="translate(2 15)"><path d="M 0 10 L 0 20 L 50 20 L 50 10 L 40 0" fill="none" stroke="#000000" stroke-width="0.5"/></g><g id="ks8lf8qh2uo" transform="translate(7 0)"><ellipse fill="white" cx="15" cy="15" rx="15" ry="15" stroke="#000000" stroke-width="0.5"/></g><g id="ks8lf8qh2up" transform="translate(0 30) rotate(90 2 0)"><path d="M 4 0 L 1e-13 1e-13" fill="none" stroke="#ff0000"/></g><g id="ks8lf8qh2uq" transform="translate(1 29) rotate(90 0 1)"><path d="M 0 2 L 1e-13 1e-13" fill="none" stroke="#ff0000"/></g><g id="ks8lf8qh2ur" transform="translate(50 30) rotate(270 2 0)"><path d="M 4 0 L 1e-13 1e-13" fill="none" stroke="#ff0000"/></g><g id="ks8lf8qh2us" transform="translate(53 29) rotate(270 0 1)"><path d="M 0 2 L 1e-13 1e-13" fill="none" stroke="#ff0000"/></g></g></g></svg>