<?xml version="1.0" encoding="UTF-8"?>
<svg xmlns="http://www.w3.org/2000/svg" viewBox="0 0 64 64"><g id="ks8l82bm1t9" class="Group.cls" transform="translate(8.5 20.5)"><g class="Prim.cls"><g id="ks8l82bm1ta" transform="translate(2 2)"><rect fill="white" height="20" stroke="#000000" stroke-opacity="1" stroke-width="0.5" width="44" x="0" y="0"/></g><g id="ks8l82bm1tb" transform="translate(2 12)"><path fill="none" d="M 1e-13 1e-13 L 44 0" stroke="#000000" stroke-opacity="1" stroke-width="0.5"/></g><g id="ks8l82bm1tc" transform="translate(47 11) rotate(270 0 1)"><path d="M 0 2 L 1e-13 1e-13" fill="none" stroke="#ff0000" stroke-width="1"/></g><g id="ks8l82bm1td" transform="translate(44 12) rotate(270 2 0)"><path d="M 4 0 L 1e-13 1e-13" fill="none" stroke="#ff0000" stroke-width="1"/></g><g id="ks8l82bm1te" transform="translate(1 11) rotate(90 0 1)"><path d="M 0 2 L 1e-13 1e-13" fill="none" stroke="#ff0000" stroke-width="1"/></g><g id="ks8l82bm1tf" transform="translate(0 12) rotate(90 2 0)"><path d="M 4 0 L 1e-13 1e-13" fill="none" stroke="#ff0000" stroke-width="1"/></g><g id="ks8l82bm1tg" transform="translate(22 22)"><path d="M 4 0 L 1e-13 1e-13" fill="none" stroke="#ff0000"/></g><g id="ks8l82bm1th" transform="translate(24 22)"><path d="M 0 2 L 1e-13 1e-13" fill="none" stroke="#ff0000"/></g><g id="ks8l82bm1ti" transform="translate(22 2) rotate(180 2 0)"><path d="M 4 0 L 1e-13 1e-13" fill="none" stroke="#ff0000"/></g><g id="ks8l82bm1tj" transform="translate(24 0) rotate(180 0 1)"><path d="M 0 2 L 1e-13 1e-13" fill="none" stroke="#ff0000"/></g></g></g></svg>