<?xml version="1.0" encoding="UTF-8"?>
<svg xmlns="http://www.w3.org/2000/svg" viewBox="0 0 64 64"><g id="ks8l8atc2at" class="Group.cls" transform="translate(15.5 6.5)"><g class="Prim.cls"><g id="ks8l8atd2au" transform="translate(2 6)"><path fill="none" d="M 0 0 L 30 0 L 30 30 L 15 45 L 0 30 Z" stroke="#000000" stroke-width="0.5"/></g><g id="ks8l8atd2av" transform="translate(2 11)"><path d="M 5 30 L 5 0 L 1e-13 1e-13" fill="none" stroke="#000000" stroke-width="0.5"/></g><g id="ks8l8atd2aw" transform="translate(27 11)"><path d="M 5 0 L 1e-13 1e-13 L 0 30" fill="none" stroke="#000000" stroke-width="0.5"/></g><g id="ks8l8atd2ax" transform="translate(12 11)"><path d="M 1e-13 1e-13 L 0 35" fill="none" stroke="#000000" stroke-width="0.5"/></g><g id="ks8l8atd2ay" transform="translate(22 11)"><path d="M 1e-13 1e-13 L 0 35" fill="none" stroke="#000000" stroke-width="0.5"/></g><g id="ks8l8atd2az" transform="translate(12 16)"><path d="M 1e-13 1e-13 L 10 0" fill="none" stroke="#000000" stroke-width="0.5"/></g><g id="ks8l8atd2b0" transform="translate(12 41)"><path d="M 1e-13 1e-13 L 10 0" fill="none" stroke="#000000" stroke-width="0.5"/></g><g id="ks8l8atd2b1" transform="translate(17 1)"><path d="M 1e-13 1e-13 L 0 15" fill="none" stroke="#000000" stroke-width="0.5"/></g><g id="ks8l8atd2b2" transform="translate(33 25) rotate(270 0 1)"><path d="M 0 2 L 1e-13 1e-13" fill="none" stroke="#ff0000"/></g><g id="ks8l8atd2b3" transform="translate(30 26) rotate(270 2 0)"><path d="M 4 0 L 1e-13 1e-13" fill="none" stroke="#ff0000"/></g><g id="ks8l8atd2b4" transform="translate(1 25) rotate(90 0 1)"><path d="M 0 2 L 1e-13 1e-13" fill="none" stroke="#ff0000"/></g><g id="ks8l8atd2b5" transform="translate(0 26) rotate(90 2 0)"><path d="M 4 0 L 1e-13 1e-13" fill="none" stroke="#ff0000"/></g><g id="ks8l8atd2b6" transform="translate(15 51)"><path d="M 4 0 L 1e-13 1e-13" fill="none" stroke="#ff0000"/></g><g id="ks8l8atd2b7" transform="translate(17 51)"><path d="M 0 2 L 1e-13 1e-13" fill="none" stroke="#ff0000"/></g><g id="ks8l8atd2b8" transform="translate(15 2) rotate(180 2 0)"><path d="M 4 0 L 1e-13 1e-13" fill="none" stroke="#ff0000"/></g><g id="ks8l8atd2b9" transform="translate(17 0) rotate(180 0 1)"><path d="M 0 2 L 1e-13 1e-13" fill="none" stroke="#ff0000"/></g></g></g></svg>