<?xml version="1.0" encoding="UTF-8"?>
<svg xmlns="http://www.w3.org/2000/svg" viewBox="0 0 64 64"><g id="ks8l88i425k" class="Group.cls" transform="translate(8.5 20.5)"><g class="Prim.cls"><g id="ks8l88i425l" transform="translate(2 2)"><rect fill="#ffffff" fill-opacity="1" height="20" stroke="#000000" stroke-opacity="1" stroke-width="0.5" width="44" x="0" y="0"/></g><g id="ks8l88i425m" transform="translate(9 2)"><path d="M 1e-13 1e-13 L 0 20" fill="#ffffff" fill-opacity="1" stroke="#000000" stroke-opacity="1" stroke-width="0.5"/></g><g id="ks8l88i425n" transform="translate(39 2)"><path d="M 1e-13 1e-13 L 0 20" fill="#ffffff" fill-opacity="1" stroke="#000000" stroke-opacity="1" stroke-width="0.5"/></g><g id="ks8l88i425o" transform="translate(9.333 7)"><path d="M 1e-13 1e-13 L 29.333333333333343 0" fill="#ffffff" fill-opacity="1" stroke="#000000" stroke-opacity="1" stroke-width="0.5"/></g><g id="ks8l88i425p" transform="translate(9.333 17)"><path d="M 1e-13 1e-13 L 29.333333333333343 0" fill="#ffffff" fill-opacity="1" stroke="#000000" stroke-opacity="1" stroke-width="0.5"/></g><g id="ks8l88i425q" transform="translate(9.333 12)"><path d="M 1e-13 1e-13 L 29.333333333333343 0" fill="#ffffff" fill-opacity="1" stroke="#000000" stroke-opacity="1" stroke-width="0.5"/></g><g id="ks8l88i425r" transform="translate(47 11) rotate(270 0 1)"><path d="M 0 2 L 1e-13 1e-13" fill="none" stroke="#ff0000"/></g><g id="ks8l88i425s" transform="translate(44 12) rotate(270 2 0)"><path d="M 4 0 L 1e-13 1e-13" fill="none" stroke="#ff0000"/></g><g id="ks8l88i425t" transform="translate(1 11) rotate(90 0 1)"><path d="M 0 2 L 1e-13 1e-13" fill="none" stroke="#ff0000"/></g><g id="ks8l88i425u" transform="translate(0 12) rotate(90 2 0)"><path d="M 4 0 L 1e-13 1e-13" fill="none" stroke="#ff0000"/></g><g id="ks8l88i425v" transform="translate(22 22)"><path d="M 4 0 L 1e-13 1e-13" fill="none" stroke="#ff0000"/></g><g id="ks8l88i425w" transform="translate(24 22)"><path d="M 0 2 L 1e-13 1e-13" fill="none" stroke="#ff0000"/></g><g id="ks8l88i425x" transform="translate(22 2) rotate(180 2 0)"><path d="M 4 0 L 1e-13 1e-13" fill="none" stroke="#ff0000"/></g><g id="ks8l88i425y" transform="translate(24 0) rotate(180 0 1)"><path d="M 0 2 L 1e-13 1e-13" fill="none" stroke="#ff0000"/></g></g></g></svg>