<?xml version="1.0" encoding="UTF-8"?>
<svg xmlns="http://www.w3.org/2000/svg" viewBox="0 0 64 64"><g id="ks8l7um41fi" class="Group.cls" transform="translate(24.5 13.5)"><g class="Prim.cls"><g id="ks8l7um51fj" transform="translate(2 5.038)"><path fill="none" d="M 6 0 L 12 5.9924 L 12 29.9621 L 0 29.9621 L 0 5.9924 Z" stroke="#000000" stroke-width="0.3306"/></g><g id="ks8l7um51fk" transform="translate(4 2.042)"><path d="M 0 2.9962 L 1.19999400003e-13 1e-13 L 7.999999999999999 0 L 7.999999999999999 2.9962" fill="none" stroke="#000000" stroke-width="0.3306"/></g><g id="ks8l7um51fl" transform="translate(0 19) rotate(90 2 0)"><path d="M 4 0 L 1e-13 1e-13" fill="none" stroke="#ff0000"/></g><g id="ks8l7um51fm" transform="translate(1 18) rotate(90 0 1)"><path d="M 0 2 L 1e-13 1e-13" fill="none" stroke="#ff0000"/></g><g id="ks8l7um51fn" transform="translate(12 19) rotate(270 2 0)"><path d="M 4 0 L 1e-13 1e-13" fill="none" stroke="#ff0000"/></g><g id="ks8l7um51fo" transform="translate(15 18) rotate(270 0 1)"><path d="M 0 2 L 1e-13 1e-13" fill="none" stroke="#ff0000"/></g><g id="ks8l7um51fp" transform="translate(6 35)"><path d="M 4 0 L 1e-13 1e-13" fill="none" stroke="#ff0000"/></g><g id="ks8l7um51fq" transform="translate(8 35)"><path d="M 0 2 L 1e-13 1e-13" fill="none" stroke="#ff0000"/></g><g id="ks8l7um51fr" transform="translate(6 2) rotate(180 2 0)"><path d="M 4 0 L 1e-13 1e-13" fill="none" stroke="#ff0000"/></g><g id="ks8l7um51fs" transform="translate(8 0) rotate(180 0 1)"><path d="M 0 2 L 1e-13 1e-13" fill="none" stroke="#ff0000"/></g></g></g></svg>