<?xml version="1.0" encoding="UTF-8"?>
<svg xmlns="http://www.w3.org/2000/svg" viewBox="0 0 64 64"><g id="ks8lfjm53bz" class="Group.cls" transform="translate(11.5 10.5)"><g class="Prim.cls"><g id="ks8lfjm63c0" transform="translate(2 2)"><rect fill="white" height="38" stroke-linecap="butt" stroke="#000000" stroke-width="0.5" width="38" x="0" y="0"/></g><g id="ks8lfjm63c1" transform="translate(5.8 6)"><path d="M 9.5 0 L 0 28.9999 L 30.4 28.9999 L 20.9 0" fill="none" stroke-linecap="butt" stroke="#000000" stroke-width="0.5"/></g><g id="ks8lfjm63c2" transform="translate(21 40.025)"><path d="M 1e-13 1e-13 L 0 9.975" fill="none" stroke-linecap="butt" stroke="#000000" stroke-width="0.5"/></g><g id="ks8lfjm63c3" transform="translate(19 50)"><path d="M 4 0 L 1e-13 1e-13" fill="none" stroke="#ff0000"/></g><g id="ks8lfjm63c4" transform="translate(21 50)"><path d="M 0 2 L 1e-13 1e-13" fill="none" stroke="#ff0000"/></g><g id="ks8lfjm63c5" transform="translate(19 2) rotate(180 2 0)"><path d="M 4 0 L 1e-13 1e-13" fill="none" stroke="#ff0000"/></g><g id="ks8lfjm63c6" transform="translate(21 0) rotate(180 0 1)"><path d="M 0 2 L 1e-13 1e-13" fill="none" stroke="#ff0000"/></g><g id="ks8lfjm63c7" transform="translate(0 22) rotate(90 2 0)"><path d="M 4 0 L 1e-13 1e-13" fill="none" stroke="#ff0000"/></g><g id="ks8lfjm63c8" transform="translate(38 22) rotate(270 2 0)"><path d="M 4 0 L 1e-13 1e-13" fill="none" stroke="#ff0000"/></g><g id="ks8lfjm63c9" transform="translate(41 21) rotate(270 0 1)"><path d="M 0 2 L 1e-13 1e-13" fill="none" stroke="#ff0000"/></g><g id="ks8lfjm63ca" transform="translate(1 21) rotate(90 0 1)"><path d="M 0 2 L 1e-13 1e-13" fill="none" stroke="#ff0000"/></g></g></g></svg>