<?xml version="1.0" encoding="UTF-8"?>
<svg xmlns="http://www.w3.org/2000/svg" viewBox="0 0 64 64"><g id="ks8lhqoq48e" class="Group.cls" transform="translate(17.5 5.5)"><g class="Prim.cls"><g id="ks8lhqor48f" transform="translate(10 2) rotate(90 5 5)"><ellipse fill="white" cx="5" cy="5" rx="5" ry="5" stroke="#000000" stroke-width="0.5"/></g><g id="ks8lhqor48g" transform="translate(10 42) rotate(90 5 5)"><ellipse fill="white" cx="5" cy="5" rx="5" ry="5" stroke="#000000" stroke-width="0.5"/></g><g id="ks8lhqor48h" transform="translate(0 27) rotate(90 20 0)"><path d="M 1e-13 1e-13 L 40 0" fill="none" stroke="#000000" stroke-width="0.5"/></g><g id="ks8lhqor48i" transform="translate(-10 27) rotate(90 20 0)"><path d="M 40 0 L 1e-13 1e-13" fill="none" stroke="#000000" stroke-width="0.5"/></g><g id="ks8lhqor48j" transform="translate(18.5 3.5)"><path d="M 1e-13 1e-13 L 11.5 8.5 L 1.5 8.5" fill="none" stroke="#000000" stroke-width="0.5"/></g><g id="ks8lhqor48k" transform="translate(0 42)"><path d="M 10 0 L 1e-13 1e-13 L 11.5 8.5" fill="none" stroke="#000000" stroke-width="0.5"/></g><g id="ks8lhqor48l" transform="translate(13 52)"><path d="M 4 0 L 1e-13 1e-13" fill="none" stroke="#ff0000"/></g><g id="ks8lhqor48m" transform="translate(15 52)"><path d="M 0 2 L 1e-13 1e-13" fill="none" stroke="#ff0000"/></g><g id="ks8lhqor48n" transform="translate(13 2) rotate(180 2 0)"><path d="M 4 0 L 1e-13 1e-13" fill="none" stroke="#ff0000"/></g><g id="ks8lhqor48o" transform="translate(15 0) rotate(180 0 1)"><path d="M 0 2 L 1e-13 1e-13" fill="none" stroke="#ff0000"/></g></g></g></svg>