<?xml version="1.0" encoding="UTF-8"?>
<svg xmlns="http://www.w3.org/2000/svg" viewBox="0 0 64 64"><g id="ks8li4li540" class="Group.cls" transform="translate(5.5 20.5)"><g class="Prim.cls"><g id="ks8li4li541" transform="translate(22 12)"><path fill="none" d="M 0 10 L 5 0 L 10 10 Z" stroke="#000000" stroke-width="0.5"/></g><g id="ks8li4li542" transform="translate(2 7)"><rect fill="none" height="10" stroke="#000000" stroke-width="0.5" width="10" x="0" y="0"/></g><g id="ks8li4li543" transform="translate(12 2)"><path d="M 0 10 L 40 10 L 40 0" fill="none" stroke="#000000" stroke-width="0.5"/></g><g id="ks8li4li544" transform="translate(0 12) rotate(90 2 0)"><path d="M 4 0 L 1e-13 1e-13" fill="none" stroke="#ff0000"/></g><g id="ks8li4li545" transform="translate(1 11) rotate(90 0 1)"><path d="M 0 2 L 1e-13 1e-13" fill="none" stroke="#ff0000"/></g><g id="ks8li4li546" transform="translate(25 22)"><path d="M 4 0 L 1e-13 1e-13" fill="none" stroke="#ff0000"/></g><g id="ks8li4lj547" transform="translate(27 22)"><path d="M 0 2 L 1e-13 1e-13" fill="none" stroke="#ff0000"/></g><g id="ks8li4lj548" transform="translate(50 2) rotate(180 2 0)"><path d="M 4 0 L 1e-13 1e-13" fill="none" stroke="#ff0000"/></g><g id="ks8li4lj549" transform="translate(52 0) rotate(180 0 1)"><path d="M 0 2 L 1e-13 1e-13" fill="none" stroke="#ff0000"/></g></g></g></svg>