<?xml version="1.0" encoding="UTF-8"?>
<svg xmlns:xlink="http://www.w3.org/1999/xlink" xmlns="http://www.w3.org/2000/svg" viewBox="0 0 64 64"><g id="ks8lhrdi49t" class="Group.cls" transform="translate(5.5 20.5)"><g class="Prim.cls"><g id="ks8lhrdj49u" transform="translate(2 2)"><rect fill="white" height="20" stroke="#000000" stroke-width="0.5" width="50" x="0" y="0"/></g><g id="ks8lhrdj49v" transform="translate(12 12)"><path d="M 1e-13 1e-13 L 26.0625 0" fill="none" stroke="#000000" stroke-width="0.5"/><use class="EndArrow.cls" fill="#000000" stroke-width="0.5714285714285714" transform="scale(0.875) rotate(90 34.286 0)" x="34.285714285714285" xlink:href="#icon_Qtf2fNak665u49JRwF1Vrg_thick.end" y="0"/></g><g id="ks8lhrdj49w" transform="translate(25 22)"><path d="M 4 0 L 1e-13 1e-13" fill="none" stroke="#ff0000"/></g><g id="ks8lhrdj49x" transform="translate(27 22)"><path d="M 0 2 L 1e-13 1e-13" fill="none" stroke="#ff0000"/></g><g id="ks8lhrdj49y" transform="translate(25 2) rotate(180 2 0)"><path d="M 4 0 L 1e-13 1e-13" fill="none" stroke="#ff0000"/></g><g id="ks8lhrdj49z" transform="translate(27 0) rotate(180 0 1)"><path d="M 0 2 L 1e-13 1e-13" fill="none" stroke="#ff0000"/></g><g id="ks8lhrdj4a0" transform="translate(50 12) rotate(270 2 0)"><path d="M 4 0 L 1e-13 1e-13" fill="none" stroke="#ff0000"/></g><g id="ks8lhrdj4a1" transform="translate(53 11) rotate(270 0 1)"><path d="M 0 2 L 1e-13 1e-13" fill="none" stroke="#ff0000"/></g><g id="ks8lhrdj4a2" transform="translate(0 12) rotate(90 2 0)"><path d="M 4 0 L 1e-13 1e-13" fill="none" stroke="#ff0000"/></g><g id="ks8lhrdj4a3" transform="translate(1 11) rotate(90 0 1)"><path d="M 0 2 L 1e-13 1e-13" fill="none" stroke="#ff0000"/></g></g></g></svg>