<?xml version="1.0" encoding="UTF-8"?>
<svg xmlns="http://www.w3.org/2000/svg" viewBox="0 0 64 64"><g id="ks8l8bl62cf" class="Group.cls" transform="translate(8.5 20.5)"><g class="Prim.cls"><g id="ks8l8bl62cg" transform="translate(2 2)"><rect fill="white" height="20" stroke="#000000" stroke-width="0.5" width="44" x="0" y="0"/></g><g id="ks8l8bl62ch" transform="translate(2 2)"><path d="M 0 10 L 6.769180000000001 10 L 10.153880000000012 0 L 13.53847000000002 20 L 16.923060000000017 0 L 20.30765000000001 20 L 23.69235000000001 0 L 27.07694000000004 20 L 30.46153000000001 0" fill="none" stroke="#000000" stroke-width="0.5"/></g><g id="ks8l8bl62ci" transform="translate(32.462 2)"><path d="M 1e-13 1e-13 L 3.3845900000000024 20 L 6.769180000000005 10 L 13.53847000000001 10" fill="none" stroke="#000000" stroke-width="0.5"/></g><g id="ks8l8bl62cj" transform="translate(47 11) rotate(270 0 1)"><path d="M 0 2 L 1e-13 1e-13" fill="none" stroke="#ff0000"/></g><g id="ks8l8bl62ck" transform="translate(44 12) rotate(270 2 0)"><path d="M 4 0 L 1e-13 1e-13" fill="none" stroke="#ff0000"/></g><g id="ks8l8bl62cl" transform="translate(1 11) rotate(90 0 1)"><path d="M 0 2 L 1e-13 1e-13" fill="none" stroke="#ff0000"/></g><g id="ks8l8bl62cm" transform="translate(0 12) rotate(90 2 0)"><path d="M 4 0 L 1e-13 1e-13" fill="none" stroke="#ff0000"/></g><g id="ks8l8bl62cn" transform="translate(22 22)"><path d="M 4 0 L 1e-13 1e-13" fill="none" stroke="#ff0000"/></g><g id="ks8l8bl62co" transform="translate(24 22)"><path d="M 0 2 L 1e-13 1e-13" fill="none" stroke="#ff0000"/></g><g id="ks8l8bl62cp" transform="translate(22 2) rotate(180 2 0)"><path d="M 4 0 L 1e-13 1e-13" fill="none" stroke="#ff0000"/></g><g id="ks8l8bl62cq" transform="translate(24 0) rotate(180 0 1)"><path d="M 0 2 L 1e-13 1e-13" fill="none" stroke="#ff0000"/></g></g></g></svg>