<?xml version="1.0" encoding="UTF-8"?>
<svg xmlns="http://www.w3.org/2000/svg" viewBox="0 0 64 64"><g id="ks8lfl623g2" class="Group.cls" transform="translate(2.5 10.5)"><g class="Prim.cls"><g id="ks8lfl623g3" transform="translate(10 2) rotate(90 20 20)"><rect fill="white" height="40" stroke-linecap="butt" stroke="#000000" stroke-width="0.5" width="40" x="0" y="0"/></g><g id="ks8lfl623g4" transform="translate(40 2) rotate(90 0 5)"><path d="M 1e-13 1e-13 L 0 10" fill="none" stroke-linecap="butt" stroke="#000000" stroke-width="0.5"/></g><g id="ks8lfl623g5" transform="translate(4.5 17.5) rotate(90 15.5 5)"><path d="M 1e-13 1e-13 L 0 10 L 31 10 L 31 0" fill="none" stroke-linecap="butt" stroke="#000000" stroke-width="0.5"/></g><g id="ks8lfl623g6" transform="translate(40 33) rotate(90 0 5)"><path d="M 0 10 L 1e-13 1e-13" fill="none" stroke-linecap="butt" stroke="#000000" stroke-width="0.5"/></g><g id="ks8lfl623g7" transform="translate(10 12) rotate(90 0 10)"><path d="M 1e-13 1e-13 L 0 20" fill="none" stroke-linecap="butt" stroke="#000000" stroke-width="0.5"/></g><g id="ks8lfl623g8" transform="translate(20 12)"><path d="M 1e-13 1e-13 L 0 20" fill="none" stroke-linecap="butt" stroke="#000000" stroke-width="0.5"/></g><g id="ks8lfl623g9" transform="translate(0 22) rotate(90 2 0)"><path d="M 4 0 L 1e-13 1e-13" fill="none" stroke="#ff0000"/></g><g id="ks8lfl623ga" transform="translate(1 21) rotate(90 0 1)"><path d="M 0 2 L 1e-13 1e-13" fill="none" stroke="#ff0000"/></g><g id="ks8lfl623gb" transform="translate(48 22) rotate(270 2 0)"><path d="M 4 0 L 1e-13 1e-13" fill="none" stroke="#ff0000"/></g><g id="ks8lfl623gc" transform="translate(51 21) rotate(270 0 1)"><path d="M 0 2 L 1e-13 1e-13" fill="none" stroke="#ff0000"/></g><g id="ks8lfl623gd" transform="translate(28 2) rotate(180 2 0)"><path d="M 4 0 L 1e-13 1e-13" fill="none" stroke="#ff0000"/></g><g id="ks8lfl623ge" transform="translate(28 42)"><path d="M 4 0 L 1e-13 1e-13" fill="none" stroke="#ff0000"/></g><g id="ks8lfl623gf" transform="translate(30 42)"><path d="M 0 2 L 1e-13 1e-13" fill="none" stroke="#ff0000"/></g><g id="ks8lfl623gg" transform="translate(30 0) rotate(180 0 1)"><path d="M 0 2 L 1e-13 1e-13" fill="none" stroke="#ff0000"/></g></g></g></svg>