<?xml version="1.0" encoding="UTF-8"?>
<svg xmlns="http://www.w3.org/2000/svg" viewBox="0 0 64 64"><g id="ks8li3xl52h" class="Group.cls" transform="translate(0.5 19.5)"><g class="Prim.cls"><g id="ks8li3xl52i" transform="translate(19 15.1)"><path fill="none" d="M 0 7.9 L 4.143000000000001 0 L 8 7.9 Z" stroke="#000000" stroke-width="0.5"/></g><g id="ks8li3xl52j" transform="translate(2 11)"><rect fill="none" height="8" stroke="#000000" stroke-width="0.5" width="8" x="0" y="0"/></g><g id="ks8li3xl52k" transform="translate(10 11)"><path d="M 0 4 L 26.9999 4 L 26.9999 0" fill="none" stroke="#000000" stroke-width="0.5"/></g><g id="ks8li3xl52l" transform="translate(19 2)"><ellipse fill="white" cx="4.5" cy="4.5" rx="4.5" ry="4.5" stroke="#000000" stroke-width="0.5"/></g><g id="ks8li3xl52m" transform="translate(49.714 2)"><ellipse fill="white" cx="4.428599834442139" cy="4.5" rx="4.428599834442139" ry="4.5" stroke="#000000" stroke-width="0.5"/></g><g id="ks8li3xl52n" transform="translate(23 2)"><path d="M 1e-13 1e-13 L 39.0001 0" fill="none" stroke="#000000" stroke-width="0.5"/></g><g id="ks8li3xl52o" transform="translate(23 11)"><path d="M 1e-13 1e-13 L 39 0" fill="none" stroke="#000000" stroke-width="0.5"/></g><g id="ks8li3xl52p" transform="translate(0 15) rotate(90 2 0)"><path d="M 4 0 L 1e-13 1e-13" fill="none" stroke="#ff0000"/></g><g id="ks8li3xl52q" transform="translate(1 14) rotate(90 0 1)"><path d="M 0 2 L 1e-13 1e-13" fill="none" stroke="#ff0000"/></g><g id="ks8li3xl52r" transform="translate(60 11) rotate(270 2 0)"><path d="M 4 0 L 1e-13 1e-13" fill="none" stroke="#ff0000"/></g><g id="ks8li3xl52s" transform="translate(63 10) rotate(270 0 1)"><path d="M 0 2 L 1e-13 1e-13" fill="none" stroke="#ff0000"/></g><g id="ks8li3xl52t" transform="translate(21 23)"><path d="M 4 0 L 1e-13 1e-13" fill="none" stroke="#ff0000"/></g><g id="ks8li3xl52u" transform="translate(23 23)"><path d="M 0 2 L 1e-13 1e-13" fill="none" stroke="#ff0000"/></g><g id="ks8li3xl52v" transform="translate(60 2) rotate(270 2 0)"><path d="M 4 0 L 1e-13 1e-13" fill="none" stroke="#ff0000"/></g><g id="ks8li3xl52w" transform="translate(63 1) rotate(270 0 1)"><path d="M 0 2 L 1e-13 1e-13" fill="none" stroke="#ff0000"/></g><g id="ks8li3xl52x" transform="translate(17.25 6) rotate(90 1.75 0)"><path d="M 3.5 0 L 1e-13 1e-13" fill="none" stroke="#ff0000"/></g><g id="ks8li3xl52y" transform="translate(18 5) rotate(90 0 1)"><path d="M 0 2 L 1e-13 1e-13" fill="none" stroke="#ff0000"/></g></g></g></svg>