<?xml version="1.0" encoding="UTF-8"?>
<svg xmlns="http://www.w3.org/2000/svg" viewBox="0 0 64 64"><g id="ks8lhxd64na" class="Group.cls" transform="translate(7.5 15.5)"><g class="Prim.cls"><g id="ks8lhxd74nb" transform="translate(0 2)"><path fill="none" d="M 40 0 L 10 0 L 0 30 L 50 30 Z" stroke="#000000" stroke-width="0.5"/></g><g id="ks8lhxd74nc" transform="translate(3.324 22)"><path d="M 1e-13 1e-13 L 43.1618 0" fill="none" stroke="#000000" stroke-width="0.5"/></g><g id="ks8lhxd74nd" transform="translate(20 9)"><ellipse fill="white" cx="5" cy="5" rx="5" ry="5" stroke="#000000" stroke-width="0.5"/></g><g id="ks8lhxd74ne" transform="translate(10 22)"><path d="M 0 10 L 1e-13 1e-13" fill="none" stroke="#000000" stroke-width="0.5"/></g><g id="ks8lhxd74nf" transform="translate(40 22)"><path d="M 0 10 L 1e-13 1e-13" fill="none" stroke="#000000" stroke-width="0.5"/></g><g id="ks8lhxd74ng" transform="translate(3.125 16.375) rotate(90 2 0.625)"><path d="M 3.9999999999995004 1.2499999999995 L 1e-13 1e-13" fill="none" stroke="#ff0000"/></g><g id="ks8lhxd74nh" transform="translate(4 16) rotate(90 0 1)"><path d="M 0 2 L 1e-13 1e-13" fill="none" stroke="#ff0000"/></g><g id="ks8lhxd74ni" transform="translate(43.125 16.375) rotate(270 2 0.625)"><path d="M 3.9999999999999 0 L 0 1.2500000000001" fill="none" stroke="#ff0000"/></g><g id="ks8lhxd74nj" transform="translate(46.25 16) rotate(270 0 1)"><path d="M 0 2 L 1e-13 1e-13" fill="none" stroke="#ff0000"/></g><g id="ks8lhxd74nk" transform="translate(23 2) rotate(180 2 0)"><path d="M 4 0 L 1e-13 1e-13" fill="none" stroke="#ff0000"/></g><g id="ks8lhxd74nl" transform="translate(25 0) rotate(180 0 1)"><path d="M 0 2 L 1e-13 1e-13" fill="none" stroke="#ff0000"/></g><g id="ks8lhxd74nm" transform="translate(23 32)"><path d="M 4 0 L 1e-13 1e-13" fill="none" stroke="#ff0000"/></g><g id="ks8lhxd74nn" transform="translate(25 32)"><path d="M 0 2 L 1e-13 1e-13" fill="none" stroke="#ff0000"/></g></g></g></svg>