<?xml version="1.0" encoding="UTF-8"?>
<svg xmlns="http://www.w3.org/2000/svg" viewBox="0 0 64 64"><g id="ks8li3a650n" class="Group.cls" transform="translate(10.5 27.5)"><g class="Prim.cls"><g id="ks8li3a750o" transform="translate(2 0)"><path d="M 1e-13 1e-13 L 0 10" fill="none" stroke="#000000" stroke-width="0.5"/></g><g id="ks8li3a750p" transform="translate(2 5)"><path d="M 1e-13 1e-13 L 40 0" fill="none" stroke="#000000" stroke-width="0.5"/></g><g id="ks8li3a750q" transform="translate(42 0)"><path d="M 1e-13 1e-13 L 0 10" fill="none" stroke="#000000" stroke-width="0.5"/></g><g id="ks8li3a750r" transform="translate(22 5)"><path d="M 1e-13 1e-13 L 0 15" fill="none" stroke="#000000" stroke-width="0.5"/></g><g id="ks8li3a750s" transform="translate(2 5)"><path d="M 20 0 L 0 15" fill="none" stroke="#000000" stroke-width="0.5"/></g><g id="ks8li3a750t" transform="translate(22 5)"><path d="M 1e-13 1e-13 L 20 15" fill="none" stroke="#000000" stroke-width="0.5"/></g><g id="ks8li3a750u" transform="translate(0 5) rotate(90 2 0)"><path d="M 4 0 L 1e-13 1e-13" fill="none" stroke="#ff0000" stroke-width="1"/></g><g id="ks8li3a750v" transform="translate(1 4) rotate(90 0 1)"><path d="M 0 2 L 1e-13 1e-13" fill="none" stroke="#ff0000" stroke-width="1"/></g><g id="ks8li3a750w" transform="translate(40 5) rotate(270 2 0)"><path d="M 4 0 L 1e-13 1e-13" fill="none" stroke="#ff0000" stroke-width="1"/></g><g id="ks8li3a750x" transform="translate(43 4) rotate(270 0 1)"><path d="M 0 2 L 1e-13 1e-13" fill="none" stroke="#ff0000" stroke-width="1"/></g></g></g></svg>