<?xml version="1.0" encoding="UTF-8"?>
<svg xmlns:xlink="http://www.w3.org/1999/xlink" xmlns="http://www.w3.org/2000/svg" viewBox="0 0 64 64"><g id="ks8l800f1q9" class="Group.cls" transform="translate(10.5 10.5)"><g class="Prim.cls"><g id="ks8l800g1qa" transform="translate(2 2)"><path fill="none" d="M 0 32.00000000000005 L 0 40 L 40 40 L 40 32.00000000000005 M 8.000000000000005 0 L 32.00000000000002 0 L 40 32.00000000000005 L 0 32.00000000000005 Z" stroke="#000000" stroke-width="0.5"/><g class="ConnPts.cls"><use id="ki483fyxes8" x="20" y="0" xlink:href="#connection.sym"/><use id="ki483fyxes9" x="36.79999999999998" y="19.999999999999996" xlink:href="#connection.sym"/><use id="ki483fyxesa" x="20" y="39.99999999999999" xlink:href="#connection.sym"/><use id="ki483fyxesb" x="3.1999999999999993" y="19.999999999999996" xlink:href="#connection.sym"/></g></g><g id="ks8l800g1qb" transform="translate(20 42)"><path d="M 4 0 L 1e-13 1e-13" fill="none" stroke="#ff0000" stroke-width="1"/></g><g id="ks8l800g1qc" transform="translate(22 42)"><path d="M 0 2 L 1e-13 1e-13" fill="none" stroke="#ff0000" stroke-width="1"/></g><g id="ks8l800g1qd" transform="translate(20 2) rotate(180 2 0)"><path d="M 4 0 L 1e-13 1e-13" fill="none" stroke="#ff0000" stroke-width="1"/></g><g id="ks8l800g1qe" transform="translate(22 0) rotate(180 0 1)"><path d="M 0 2 L 1e-13 1e-13" fill="none" stroke="#ff0000" stroke-width="1"/></g><g id="ks8l800g1qf" transform="translate(0 38) rotate(90 2 0)"><path d="M 4 0 L 1e-13 1e-13" fill="none" stroke="#ff0000"/></g><g id="ks8l800g1qg" transform="translate(1 37) rotate(90 0 1)"><path d="M 0 2 L 1e-13 1e-13" fill="none" stroke="#ff0000"/></g><g id="ks8l800g1qh" transform="translate(40 38) rotate(270 2 0)"><path d="M 4 0 L 1e-13 1e-13" fill="none" stroke="#ff0000"/></g><g id="ks8l800g1qi" transform="translate(43 37) rotate(270 0 1)"><path d="M 0 2 L 1e-13 1e-13" fill="none" stroke="#ff0000"/></g></g></g></svg>