<?xml version="1.0" encoding="UTF-8"?>
<svg xmlns="http://www.w3.org/2000/svg" viewBox="0 0 64 64"><g id="ks8lhq0m471" class="Group.cls" transform="translate(7.5 14.5)"><g class="Prim.cls"><g id="ks8lhq0m472" transform="translate(0 2)"><path fill="none" d="M 40 0 L 10 0 L 0 0 L 10 30 L 40 30 L 50 0 Z" stroke="#000000" stroke-width="0.5"/></g><g id="ks8lhq0m473" transform="translate(15 7)"><path d="M 0 20 L 20 0" fill="none" stroke="#000000" stroke-width="0.5"/></g><g id="ks8lhq0m474" transform="translate(15 7)"><path d="M 20 20 L 1e-13 1e-13" fill="none" stroke="#000000" stroke-width="0.5"/></g><g id="ks8lhq0m475" transform="translate(3.5 2)"><path d="M 0 10 L 6.5 0" fill="none" stroke="#000000" stroke-width="0.5"/></g><g id="ks8lhq0m476" transform="translate(40 2)"><path d="M 1e-13 1e-13 L 6.5 9.5" fill="none" stroke="#000000" stroke-width="0.5"/></g><g id="ks8lhq0m477" transform="translate(3.375 17.375) rotate(90 2 0.625)"><path d="M 4 0 L 0 1.25" fill="none" stroke="#ff0000"/></g><g id="ks8lhq0m478" transform="translate(3.875 17) rotate(90 0 1)"><path d="M 0 2 L 1e-13 1e-13" fill="none" stroke="#ff0000"/></g><g id="ks8lhq0m479" transform="translate(42.688 17.313) rotate(270 2 0.687)"><path d="M 3.9999999999999 1.3749999999999 L 1e-13 1e-13" fill="none" stroke="#ff0000"/></g><g id="ks8lhq0m47a" transform="translate(46.25 17) rotate(270 0 1)"><path d="M 0 2 L 1e-13 1e-13" fill="none" stroke="#ff0000"/></g><g id="ks8lhq0m47b" transform="translate(23 32)"><path d="M 4 0 L 1e-13 1e-13" fill="none" stroke="#ff0000"/></g><g id="ks8lhq0m47c" transform="translate(25 32)"><path d="M 0 2 L 1e-13 1e-13" fill="none" stroke="#ff0000"/></g><g id="ks8lhq0m47d" transform="translate(23 2) rotate(180 2 0)"><path d="M 4 0 L 1e-13 1e-13" fill="none" stroke="#ff0000"/></g><g id="ks8lhq0m47e" transform="translate(25 0) rotate(180 0 1)"><path d="M 0 2 L 1e-13 1e-13" fill="none" stroke="#ff0000"/></g></g></g></svg>