<?xml version="1.0" encoding="UTF-8"?>
<svg xmlns="http://www.w3.org/2000/svg" viewBox="0 0 64 64"><g id="ks8lhlzl3x5" class="Group.cls" transform="translate(11.5 3.5)"><g class="Prim.cls"><g id="ks8lhlzm3x6" transform="translate(2 2)"><path fill="none" d="M 38 10.999999999999998 L 30.40000000000001 0 L 7.600000000000002 0 L 0 10.999999999999998 L 0 55 L 38 55 Z" stroke-linecap="butt" stroke="#000000" stroke-width="0.5"/></g><g id="ks8lhlzm3x7" transform="translate(2 15)"><path fill="none" d="M 1e-13 1e-13 L 38 0" stroke="#000000" stroke-width="0.5"/></g><g id="ks8lhlzm3x8" transform="translate(2 29)"><path fill="none" d="M 1e-13 1e-13 L 38 0" stroke="#000000" stroke-width="0.5"/></g><g id="ks8lhlzm3x9" transform="translate(10.55 18.042)"><ellipse fill="white" cx="1.1875" cy="1.1458333730697632" rx="1.1875" ry="1.1458333730697632" stroke="#000000" stroke-width="0.5"/></g><g id="ks8lhlzm3xa" transform="translate(20.05 18.042)"><ellipse fill="white" cx="1.1875" cy="1.1458333730697632" rx="1.1875" ry="1.1458333730697632" stroke="#000000" stroke-width="0.5"/></g><g id="ks8lhlzm3xb" transform="translate(29.55 18.042)"><ellipse fill="white" cx="1.1875" cy="1.1458333730697632" rx="1.1875" ry="1.1458333730697632" stroke="#000000" stroke-width="0.5"/></g><g id="ks8lhlzm3xc" transform="translate(5.8 24.458)"><ellipse fill="white" cx="1.1875" cy="1.1458333730697632" rx="1.1875" ry="1.1458333730697632" stroke="#000000" stroke-width="0.5"/></g><g id="ks8lhlzm3xd" transform="translate(15.3 24.458)"><ellipse fill="white" cx="1.1875" cy="1.1458333730697632" rx="1.1875" ry="1.1458333730697632" stroke="#000000" stroke-width="0.5"/></g><g id="ks8lhlzm3xe" transform="translate(24.8 24.458)"><ellipse fill="white" cx="1.1875" cy="1.1458333730697632" rx="1.1875" ry="1.1458333730697632" stroke="#000000" stroke-width="0.5"/></g><g id="ks8lhlzm3xf" transform="translate(34.3 24.458)"><ellipse fill="white" cx="1.1875" cy="1.1458333730697632" rx="1.1875" ry="1.1458333730697632" stroke="#000000" stroke-width="0.5"/></g><g id="ks8lhlzm3xg" transform="translate(0 29) rotate(90 2 0)"><path d="M 4 0 L 1e-13 1e-13" fill="none" stroke="#ff0000"/></g><g id="ks8lhlzm3xh" transform="translate(1 28) rotate(90 0 1)"><path d="M 0 2 L 1e-13 1e-13" fill="none" stroke="#ff0000"/></g><g id="ks8lhlzm3xi" transform="translate(38 29) rotate(270 2 0)"><path d="M 4 0 L 1e-13 1e-13" fill="none" stroke="#ff0000"/></g><g id="ks8lhlzm3xj" transform="translate(41 28) rotate(270 0 1)"><path d="M 0 2 L 1e-13 1e-13" fill="none" stroke="#ff0000"/></g><g id="ks8lhlzm3xk" transform="translate(19 57)"><path d="M 4 0 L 1e-13 1e-13" fill="none" stroke="#ff0000"/></g><g id="ks8lhlzm3xl" transform="translate(21 57)"><path d="M 0 2 L 1e-13 1e-13" fill="none" stroke="#ff0000"/></g><g id="ks8lhlzm3xm" transform="translate(19 2) rotate(180 2 0)"><path d="M 4 0 L 1e-13 1e-13" fill="none" stroke="#ff0000"/></g><g id="ks8lhlzm3xn" transform="translate(21 0) rotate(180 0 1)"><path d="M 0 2 L 1e-13 1e-13" fill="none" stroke="#ff0000"/></g></g></g></svg>