<?xml version="1.0" encoding="UTF-8"?>
<svg xmlns="http://www.w3.org/2000/svg" viewBox="0 0 64 64"><g id="ks8lhjdp3q6" class="Group.cls" transform="translate(11.5 22.5)"><g class="Prim.cls"><g id="ks8lhjdq3q7" transform="translate(2 0)"><path fill="none" d="M 0 5 L 0 15 L 19 20 L 38 15 L 38 5 L 19 0 Z" stroke="#000000" stroke-width="0.5"/></g><g id="ks8lhjdq3q8" transform="translate(21 5)"><path d="M 0 9.9999999999999 L 9.500000000000001e-14 0" fill="none" stroke="#000000" stroke-width="0.5"/></g><g id="ks8lhjdq3q9" transform="translate(0 10) rotate(90 2 0)"><path d="M 4 0 L 1e-13 1e-13" fill="none" stroke="#ff0000"/></g><g id="ks8lhjdq3qa" transform="translate(1 9) rotate(90 0 1)"><path d="M 0 2 L 1e-13 1e-13" fill="none" stroke="#ff0000"/></g><g id="ks8lhjdq3qb" transform="translate(38 10) rotate(270 2 0)"><path d="M 4 0 L 1e-13 1e-13" fill="none" stroke="#ff0000"/></g><g id="ks8lhjdq3qc" transform="translate(41 9) rotate(270 0 1)"><path d="M 0 2 L 1e-13 1e-13" fill="none" stroke="#ff0000"/></g></g></g></svg>