<?xml version="1.0" encoding="UTF-8"?>
<svg xmlns="http://www.w3.org/2000/svg" viewBox="0 0 64 64"><g id="ks8lfhcx38y" class="Group.cls" transform="translate(11.5 3.5)"><g class="Prim.cls"><g id="ks8lfhcz38z" transform="translate(2 38.667)"><path d="M 1e-13 1e-13 L 19 18.33333333333333 L 38 0" fill="none" stroke-linecap="butt" stroke="#000000" stroke-width="0.5"/></g><g id="ks8lfhcz390" transform="translate(2 29.5)"><path d="M 1e-13 1e-13 L 19 18.33333333333333 L 38 0" fill="none" stroke-linecap="butt" stroke="#000000" stroke-width="0.5"/></g><g id="ks8lfhcz391" transform="translate(2 2)"><rect fill="white" height="55" stroke-dasharray="none" stroke-linecap="butt" stroke="#000000" stroke-width="0.5" width="38" x="0" y="0"/></g><g id="ks8lfhcz392" transform="translate(2 38.333)"><path d="M 1e-13 1e-13 L 19 18.66669999999999 L 38 0" fill="none" stroke-dasharray="none" stroke-linecap="butt" stroke="#000000" stroke-width="0.5"/></g><g id="ks8lfhcz393" transform="translate(21 10.5)"><path d="M 1e-13 1e-13 L 0 28" fill="none" stroke="#000000" stroke-width="0.5"/></g><g id="ks8lfhcz394" transform="translate(7 10.5)"><path d="M 1e-13 1e-13 L 0 28" fill="none" stroke="#000000" stroke-width="0.5"/></g><g id="ks8lfhcz395" transform="translate(36 10.5)"><path d="M 1e-13 1e-13 L 0 28" fill="none" stroke="#000000" stroke-width="0.5"/></g><g id="ks8lfhcz396" transform="translate(0 29) rotate(90 2 0)"><path d="M 4 0 L 1e-13 1e-13" fill="none" stroke="#ff0000"/></g><g id="ks8lfhcz397" transform="translate(1 28) rotate(90 0 1)"><path d="M 0 2 L 1e-13 1e-13" fill="none" stroke="#ff0000"/></g><g id="ks8lfhcz398" transform="translate(38 29) rotate(270 2 0)"><path d="M 4 0 L 1e-13 1e-13" fill="none" stroke="#ff0000"/></g><g id="ks8lfhcz399" transform="translate(41 28) rotate(270 0 1)"><path d="M 0 2 L 1e-13 1e-13" fill="none" stroke="#ff0000"/></g><g id="ks8lfhcz39a" transform="translate(19 57)"><path d="M 4 0 L 1e-13 1e-13" fill="none" stroke="#ff0000"/></g><g id="ks8lfhcz39b" transform="translate(21 57)"><path d="M 0 2 L 1e-13 1e-13" fill="none" stroke="#ff0000"/></g><g id="ks8lfhcz39c" transform="translate(19 2) rotate(180 2 0)"><path d="M 4 0 L 1e-13 1e-13" fill="none" stroke="#ff0000"/></g><g id="ks8lfhcz39d" transform="translate(21 0) rotate(180 0 1)"><path d="M 0 2 L 1e-13 1e-13" fill="none" stroke="#ff0000"/></g></g></g></svg>