<?xml version="1.0" encoding="UTF-8"?>
<svg xmlns="http://www.w3.org/2000/svg" viewBox="0 0 64 64"><g id="ks8l84my1yg" class="Group.cls" transform="translate(8.5 22.5)"><g class="Prim.cls"><g id="ks8l84my1yh" transform="translate(2 0)"><rect fill="white" height="20" stroke="#000000" stroke-width="0.5" width="8" x="0" y="0"/></g><g id="ks8l84my1yi" transform="translate(10 5)"><rect fill="none" height="10" stroke="#000000" stroke-width="0.5" width="36" x="0" y="0"/></g><g id="ks8l84my1yj" transform="translate(2 10)"><path fill="none" d="M 1e-13 1e-13 L 8 0" stroke="#000000" stroke-width="0.5"/></g><g id="ks8l84my1yk" transform="translate(47 9) rotate(270 0 1)"><path d="M 0 2 L 1e-13 1e-13" fill="none" stroke="#ff0000"/></g><g id="ks8l84my1yl" transform="translate(44 10) rotate(270 2 0)"><path d="M 4 0 L 1e-13 1e-13" fill="none" stroke="#ff0000"/></g><g id="ks8l84my1ym" transform="translate(1 9) rotate(90 0 1)"><path d="M 0 2 L 1e-13 1e-13" fill="none" stroke="#ff0000"/></g><g id="ks8l84my1yn" transform="translate(0 10) rotate(90 2 0)"><path d="M 4 0 L 1e-13 1e-13" fill="none" stroke="#ff0000"/></g></g></g></svg>