<?xml version="1.0" encoding="UTF-8"?>
<svg xmlns="http://www.w3.org/2000/svg" viewBox="0 0 64 64"><g id="ks8l7m4vw9" class="Group.cls" transform="translate(10.5 8.5)"><g class="Prim.cls"><g id="ks8l7m4vwa" transform="translate(10 22.93)"><path d="M 0 25.070063694267365 L 9.999999999999978e-14 0" fill="none" stroke="#000000" stroke-width="0.41"/></g><g id="ks8l7m4vwb" transform="translate(34 22.93)"><path d="M 0 25.070063694267365 L 9.999999999999978e-14 0" fill="none" stroke="#000000" stroke-width="0.41"/></g><g id="ks8l7m4vwc" transform="translate(2 2.038)"><ellipse fill="white" cx="20" cy="20.980909909057615" rx="20" ry="20.980909909057615" stroke="#000000" stroke-width="0.41"/></g><g id="ks8l7m4vwd" transform="translate(2 23.766)"><path d="M 0 24.23439490445845 L 9.999999999999978e-14 0" fill="none" stroke="#000000" stroke-width="0.41"/></g><g id="ks8l7m4vwe" transform="translate(42 23.348)"><path d="M 0 24.652229299362908 L 9.999999999999978e-14 0" fill="none" stroke="#000000" stroke-width="0.41"/></g><g id="ks8l7m4vwf" transform="translate(-0.038 22.93) rotate(90 2.038 0)"><path d="M 4.076433121018998 0 L 0 9.999999999999978e-14" fill="none" stroke="#ff0000"/></g><g id="ks8l7m4vwg" transform="translate(1 21.93) rotate(90 0 1)"><path d="M 0 1.9999999999998956 L 1.0191082802547749e-13 0" fill="none" stroke="#ff0000"/></g><g id="ks8l7m4vwh" transform="translate(39.962 22.93) rotate(270 2.038 0)"><path d="M 4.076433121018998 0 L 0 9.999999999999978e-14" fill="none" stroke="#ff0000"/></g><g id="ks8l7m4vwi" transform="translate(43 21.93) rotate(270 0 1)"><path d="M 0 1.9999999999998956 L 1.0191082802547749e-13 0" fill="none" stroke="#ff0000"/></g><g id="ks8l7m4vwj" transform="translate(20 43.822)"><path d="M 4 0 L 1e-13 1e-13" fill="none" stroke="#ff0000"/></g><g id="ks8l7m4vwk" transform="translate(22 43.822)"><path d="M 0 2.0382 L 1e-13 1e-13" fill="none" stroke="#ff0000"/></g><g id="ks8l7m4vwl" transform="translate(20 2.038) rotate(180 2 0)"><path d="M 3.999999999999891 0 L 0 1.0191082802547749e-13" fill="none" stroke="#ff0000"/></g><g id="ks8l7m4vwm" transform="translate(22 0) rotate(180 0 1.019)"><path d="M 0 2.0382165605094484 L 9.999999999999978e-14 0" fill="none" stroke="#ff0000"/></g></g></g></svg>