<?xml version="1.0" encoding="UTF-8"?>
<svg xmlns="http://www.w3.org/2000/svg" viewBox="0 0 64 64"><g id="ks8l8d4q2dy" class="Group.cls" transform="translate(3.5 11.5)"><g class="Prim.cls"><g id="ks8l8d4r2dz" transform="translate(1.5 2)"><rect fill="none" height="33" stroke="none" stroke-width="0.5" width="55" x="0" y="0"/></g><g id="ks8l8d4r2e0" transform="translate(1.5 2)"><path d="M 1e-13 1e-13 L 55 0 L 31.428571428571427 16.5 L 55 33 L 0 33" fill="none" stroke="#000000" stroke-width="0.5"/></g><g id="ks8l8d4r2e1" transform="translate(1 1) rotate(90 0 1)"><path d="M 0 2 L 1e-13 1e-13" fill="none" stroke="#ff0000"/></g><g id="ks8l8d4r2e2" transform="translate(0 2) rotate(90 2 0)"><path d="M 4 0 L 1e-13 1e-13" fill="none" stroke="#ff0000"/></g><g id="ks8l8d4r2e3" transform="translate(1 34) rotate(90 0 1)"><path d="M 0 2 L 1e-13 1e-13" fill="none" stroke="#ff0000"/></g><g id="ks8l8d4r2e4" transform="translate(0 35) rotate(90 2 0)"><path d="M 4 0 L 1e-13 1e-13" fill="none" stroke="#ff0000"/></g><g id="ks8l8d4r2e5" transform="translate(55 2) rotate(270 2 0)"><path d="M 4 0 L 1e-13 1e-13" fill="none" stroke="#ff0000"/></g><g id="ks8l8d4r2e6" transform="translate(58 1) rotate(270 0 1)"><path d="M 0 2 L 1e-13 1e-13" fill="none" stroke="#ff0000"/></g><g id="ks8l8d4r2e7" transform="translate(31 18.5) rotate(90 2 0)"><path d="M 4 0 L 1e-13 1e-13" fill="none" stroke="#ff0000"/></g><g id="ks8l8d4r2e8" transform="translate(32 17.5) rotate(90 0 1)"><path d="M 0 2 L 1e-13 1e-13" fill="none" stroke="#ff0000"/></g><g id="ks8l8d4r2e9" transform="translate(55 35) rotate(270 2 0)"><path d="M 4 0 L 1e-13 1e-13" fill="none" stroke="#ff0000"/></g><g id="ks8l8d4r2ea" transform="translate(58 34) rotate(270 0 1)"><path d="M 0 2 L 1e-13 1e-13" fill="none" stroke="#ff0000"/></g></g></g></svg>