<?xml version="1.0" encoding="UTF-8"?>
<svg xmlns="http://www.w3.org/2000/svg" viewBox="0 0 64 64"><g id="ks8li0nf4vg" class="Group.cls" transform="translate(5.5 15.5)"><g class="Prim.cls"><g id="ks8li0ng4vh" transform="translate(2 2)"><path fill="none" d="M 0 30 L 0 0 L 40 0 L 45 10 L 50 10 L 50 20 L 45 20 L 40 30 Z" stroke="#000000" stroke-width="0.5"/></g><g id="ks8li0ng4vi" transform="translate(2 17)"><path d="M 1e-13 1e-13 L 10 0" fill="none" stroke="#000000" stroke-width="0.5"/></g><g id="ks8li0ng4vj" transform="translate(12 7)"><path d="M 1e-13 1e-13 L 0 20" fill="none" stroke="#000000" stroke-width="0.5"/></g><g id="ks8li0ng4vk" transform="translate(25 2) rotate(180 2 0)"><path d="M 4 0 L 1e-13 1e-13" fill="none" stroke="#ff0000"/></g><g id="ks8li0ng4vl" transform="translate(27 0) rotate(180 0 1)"><path d="M 0 2 L 1e-13 1e-13" fill="none" stroke="#ff0000"/></g><g id="ks8li0ng4vm" transform="translate(25 32)"><path d="M 4 0 L 1e-13 1e-13" fill="none" stroke="#ff0000"/></g><g id="ks8li0ng4vn" transform="translate(27 32)"><path d="M 0 2 L 1e-13 1e-13" fill="none" stroke="#ff0000"/></g><g id="ks8li0ng4vo" transform="translate(50 17) rotate(270 2 0)"><path d="M 4 0 L 1e-13 1e-13" fill="none" stroke="#ff0000"/></g><g id="ks8li0ng4vp" transform="translate(53 16) rotate(270 0 1)"><path d="M 0 2 L 1e-13 1e-13" fill="none" stroke="#ff0000"/></g><g id="ks8li0ng4vq" transform="translate(0 17) rotate(90 2 0)"><path d="M 4 0 L 1e-13 1e-13" fill="none" stroke="#ff0000"/></g><g id="ks8li0ng4vr" transform="translate(1 16) rotate(90 0 1)"><path d="M 0 2 L 1e-13 1e-13" fill="none" stroke="#ff0000"/></g></g></g></svg>