<?xml version="1.0" encoding="UTF-8"?>
<svg xmlns="http://www.w3.org/2000/svg" viewBox="0 0 64 64"><g id="ks8li1ax4wn" class="Group.cls" transform="translate(15.5 17.5)"><g class="Prim.cls"><g id="ks8li1ax4wo" transform="translate(2 0)"><ellipse fill="white" cx="15" cy="15" rx="15" ry="15" stroke="#000000" stroke-width="0.5"/></g><g id="ks8li1ax4wp" transform="translate(2 5)"><path d="M 1e-13 1e-13 L 25 0 L 5 20 L 30 20" fill="none" stroke="#000000" stroke-width="0.5"/></g><g id="ks8li1ax4wq" transform="translate(0 5) rotate(90 2 0)"><path d="M 4 0 L 1e-13 1e-13" fill="none" stroke="#ff0000"/></g><g id="ks8li1ax4wr" transform="translate(1 4) rotate(90 0 1)"><path d="M 0 2 L 1e-13 1e-13" fill="none" stroke="#ff0000"/></g><g id="ks8li1ax4ws" transform="translate(30 25) rotate(270 2 0)"><path d="M 4 0 L 1e-13 1e-13" fill="none" stroke="#ff0000"/></g><g id="ks8li1ax4wt" transform="translate(33 24) rotate(270 0 1)"><path d="M 0 2 L 1e-13 1e-13" fill="none" stroke="#ff0000"/></g></g></g></svg>