<?xml version="1.0" encoding="UTF-8"?>
<svg xmlns="http://www.w3.org/2000/svg" viewBox="0 0 64 64"><g id="ks8l86z123n" class="Group.cls" transform="translate(8.5 20.5)"><g class="Prim.cls"><g id="ks8l86z523o" transform="translate(8.5 2)"><rect fill="white" height="20" stroke="#000000" stroke-width="0.5" width="37.500030154418944" x="0" y="0"/></g><g id="ks8l86z523p" transform="translate(9 7)"><rect fill="none" height="10" stroke="#000000" stroke-width="0.5" width="32.999949227905276" x="0" y="0"/></g><g id="ks8l86z523q" transform="translate(39 7)"><path d="M 1e-13 1e-13 L 0 10" fill="none" stroke="#000000" stroke-width="0.5"/></g><g id="ks8l86z523r" transform="translate(2 2)"><rect fill="white" height="20" stroke="#000000" stroke-width="0.5" width="7" x="0" y="0"/></g><g id="ks8l86z523s" transform="translate(2 12)"><path fill="none" d="M 1e-13 1e-13 L 36.66666666666668 0" stroke="#000000" stroke-width="0.5"/></g><g id="ks8l86z523t" transform="translate(47 11) rotate(270 0 1)"><path d="M 0 2 L 1e-13 1e-13" fill="none" stroke="#ff0000"/></g><g id="ks8l86z523u" transform="translate(44 12) rotate(270 2 0)"><path d="M 4 0 L 1e-13 1e-13" fill="none" stroke="#ff0000"/></g><g id="ks8l86z523v" transform="translate(1 11) rotate(90 0 1)"><path d="M 0 2 L 1e-13 1e-13" fill="none" stroke="#ff0000"/></g><g id="ks8l86z523w" transform="translate(0 12) rotate(90 2 0)"><path d="M 4 0 L 1e-13 1e-13" fill="none" stroke="#ff0000"/></g><g id="ks8l86z523x" transform="translate(22 22)"><path d="M 4 0 L 1e-13 1e-13" fill="none" stroke="#ff0000"/></g><g id="ks8l86z523y" transform="translate(24 22)"><path d="M 0 2 L 1e-13 1e-13" fill="none" stroke="#ff0000"/></g><g id="ks8l86z523z" transform="translate(22 2) rotate(180 2 0)"><path d="M 4 0 L 1e-13 1e-13" fill="none" stroke="#ff0000"/></g><g id="ks8l86z5240" transform="translate(24 0) rotate(180 0 1)"><path d="M 0 2 L 1e-13 1e-13" fill="none" stroke="#ff0000"/></g></g></g></svg>