<?xml version="1.0" encoding="UTF-8"?>
<svg xmlns="http://www.w3.org/2000/svg" viewBox="0 0 64 64"><g id="ks8lhf3t3i4" class="Group.cls" transform="translate(2.5 10.5)"><g class="Prim.cls"><g id="ks8lhf3u3i5" transform="translate(10 2)"><rect fill="white" height="40" stroke-linecap="butt" stroke="#000000" stroke-width="0.5" width="40" x="0" y="0"/></g><g id="ks8lhf3u3i6" transform="translate(0 22)"><path d="M 20 0 L 1e-13 1e-13" fill="none" stroke-linecap="butt" stroke="#000000" stroke-width="0.5"/></g><g id="ks8lhf3u3i7" transform="translate(20 12)"><path d="M 20 10 L 15 20 L 5 0 L 0 10" fill="none" stroke-linecap="butt" stroke="#000000" stroke-width="0.5"/></g><g id="ks8lhf3u3i8" transform="translate(15 7)"><path d="M 1e-13 1e-13 L 0 30" fill="none" stroke="#000000" stroke-width="0.5"/></g><g id="ks8lhf3u3i9" transform="translate(15 7)"><path d="M 1e-13 1e-13 L 30 0" fill="none" stroke-dasharray="10 1.5" stroke="#000000" stroke-width="0.5"/></g><g id="ks8lhf3u3ia" transform="translate(15 37)"><path d="M 1e-13 1e-13 L 30 0" fill="none" stroke-dasharray="10 1.5" stroke="#000000" stroke-width="0.5"/></g><g id="ks8lhf3u3ib" transform="translate(0 22) rotate(90 2 0)"><path d="M 4 0 L 1e-13 1e-13" fill="none" stroke="#ff0000"/></g><g id="ks8lhf3u3ic" transform="translate(1 21) rotate(90 0 1)"><path d="M 0 2 L 1e-13 1e-13" fill="none" stroke="#ff0000"/></g><g id="ks8lhf3u3id" transform="translate(48 22) rotate(270 2 0)"><path d="M 4 0 L 1e-13 1e-13" fill="none" stroke="#ff0000"/></g><g id="ks8lhf3u3ie" transform="translate(51 21) rotate(270 0 1)"><path d="M 0 2 L 1e-13 1e-13" fill="none" stroke="#ff0000"/></g><g id="ks8lhf3u3if" transform="translate(28 2) rotate(180 2 0)"><path d="M 4 0 L 1e-13 1e-13" fill="none" stroke="#ff0000"/></g><g id="ks8lhf3u3ig" transform="translate(28 42)"><path d="M 4 0 L 1e-13 1e-13" fill="none" stroke="#ff0000"/></g><g id="ks8lhf3u3ih" transform="translate(30 42)"><path d="M 0 2 L 1e-13 1e-13" fill="none" stroke="#ff0000"/></g><g id="ks8lhf3u3ii" transform="translate(30 0) rotate(180 0 1)"><path d="M 0 2 L 1e-13 1e-13" fill="none" stroke="#ff0000"/></g></g></g></svg>