<?xml version="1.0" encoding="UTF-8"?>
<svg xmlns="http://www.w3.org/2000/svg" viewBox="0 0 64 64"><g id="ks8lfbiy306" class="Group.cls" transform="translate(11.5 3.5)"><g class="Prim.cls"><g id="ks8lfbiy307" transform="translate(2 2)"><rect fill="white" height="55" stroke-linecap="butt" stroke="#000000" stroke-width="0.5" width="38" x="0" y="0"/></g><g id="ks8lfbiy308" transform="translate(2 38.667)"><path d="M 1e-13 1e-13 L 19 18.333333333333336 L 38 0" fill="none" stroke-linecap="butt" stroke="#000000" stroke-width="0.5"/></g><g id="ks8lfbiy309" transform="translate(2 11)"><path d="M 1e-13 1e-13 L 14 0" fill="none" stroke="#000000" stroke-width="0.5"/></g><g id="ks8lfbiy30a" transform="translate(26 11)"><path d="M 14 0 L 0 1e-13" fill="none" stroke="#000000" stroke-width="0.5"/></g><g id="ks8lfbiy30b" transform="translate(16 11)"><path d="M 1e-13 1e-13 L 0 32" fill="none" stroke-dasharray="2.5 3" stroke="#000000" stroke-width="0.5"/></g><g id="ks8lfbiy30c" transform="translate(26 11)"><path d="M 1e-13 1e-13 L 0 32" fill="none" stroke-dasharray="2.5 3" stroke="#000000" stroke-width="0.5"/></g><g id="ks8lfbiy30d" transform="translate(16 43)"><path d="M 1e-13 1e-13 L 10 0" fill="none" stroke="#000000" stroke-width="0.5"/></g><g id="ks8lfbiy30e" transform="translate(0 29) rotate(90 2 0)"><path d="M 4 0 L 1e-13 1e-13" fill="none" stroke="#ff0000"/></g><g id="ks8lfbiy30f" transform="translate(1 28) rotate(90 0 1)"><path d="M 0 2 L 1e-13 1e-13" fill="none" stroke="#ff0000"/></g><g id="ks8lfbiy30g" transform="translate(38 29) rotate(270 2 0)"><path d="M 4 0 L 1e-13 1e-13" fill="none" stroke="#ff0000"/></g><g id="ks8lfbiy30h" transform="translate(41 28) rotate(270 0 1)"><path d="M 0 2 L 1e-13 1e-13" fill="none" stroke="#ff0000"/></g><g id="ks8lfbiy30i" transform="translate(19 57)"><path d="M 4 0 L 1e-13 1e-13" fill="none" stroke="#ff0000"/></g><g id="ks8lfbiy30j" transform="translate(21 57)"><path d="M 0 2 L 1e-13 1e-13" fill="none" stroke="#ff0000"/></g><g id="ks8lfbiy30k" transform="translate(19 2) rotate(180 2 0)"><path d="M 4 0 L 1e-13 1e-13" fill="none" stroke="#ff0000"/></g><g id="ks8lfbiy30l" transform="translate(21 0) rotate(180 0 1)"><path d="M 0 2 L 1e-13 1e-13" fill="none" stroke="#ff0000"/></g></g></g></svg>