<?xml version="1.0" encoding="UTF-8"?>
<svg xmlns="http://www.w3.org/2000/svg" viewBox="0 0 64 64"><g id="ks8li8ht59z" class="Group.cls" transform="translate(25 -0.5)"><g class="Prim.cls"><g id="ks8li8hu5a0" transform="translate(0 64)"><path d="M 1e-13 1e-13 L 15 0" fill="none" stroke="#000000" stroke-opacity="1" stroke-width="0.5"/></g><g id="ks8li8hu5a1" transform="translate(3.5 24)"><rect fill="white" height="39.99945408935552" stroke="#000000" stroke-opacity="1" stroke-width="0.5" width="8" x="0" y="0"/></g><g id="ks8li8hu5a2" transform="translate(7.5 2)"><path d="M 0 21.6666999999999 L 9.67741935483871e-14 0" fill="none" stroke="#000000" stroke-opacity="1" stroke-width="0.5"/></g><g id="ks8li8hu5a3" transform="translate(1.5 33) rotate(90 2 0)"><path d="M 4 0 L 1e-13 1e-13" fill="none" stroke="#ff0000"/></g><g id="ks8li8hu5a4" transform="translate(2.5 32) rotate(90 0 1)"><path d="M 0 2 L 1e-13 1e-13" fill="none" stroke="#ff0000"/></g><g id="ks8li8hu5a5" transform="translate(9.5 33) rotate(270 2 0)"><path d="M 4 0 L 1e-13 1e-13" fill="none" stroke="#ff0000"/></g><g id="ks8li8hu5a6" transform="translate(12.5 32) rotate(270 0 1)"><path d="M 0 2 L 1e-13 1e-13" fill="none" stroke="#ff0000"/></g><g id="ks8li8hu5a7" transform="translate(5.5 64)"><path d="M 4 0 L 1e-13 1e-13" fill="none" stroke="#ff0000"/></g><g id="ks8li8hu5a8" transform="translate(7.5 64)"><path d="M 0 2 L 1e-13 1e-13" fill="none" stroke="#ff0000"/></g><g id="ks8li8hu5a9" transform="translate(5.5 2) rotate(180 2 0)"><path d="M 4 0 L 1e-13 1e-13" fill="none" stroke="#ff0000"/></g><g id="ks8li8hu5aa" transform="translate(7.5 0) rotate(180 0 1)"><path d="M 0 2 L 1e-13 1e-13" fill="none" stroke="#ff0000"/></g></g></g></svg>