<?xml version="1.0" encoding="UTF-8"?>
<svg xmlns="http://www.w3.org/2000/svg" viewBox="0 0 64 64"><g id="ks8l7riw18d" class="Group.cls" transform="translate(18.5 9.5)"><g class="Prim.cls"><g id="ks8l7riw18e" transform="translate(2 8.3)"><rect fill="white" height="31.499999999999996" stroke="#000000" stroke-width="0.3408" width="24.000000000000007" x="0" y="0"/></g><g id="ks8l7riw18f" transform="translate(4 2)"><path fill="none" d="M 0 5.929362650602409 L 0 37.55293373493976 C 0 43.482321686746985 20.000000000000004 43.482321686746985 20.000000000000004 37.55293373493976 C 20.000000000000004 37.55293373493976 20.000000000000004 5.929362650602409 20.000000000000004 5.929362650602409 C 20.000000000000004 -1.9764542168674697 0 -1.9764542168674697 0 5.929362650602409 Z" stroke="#000000" stroke-width="0.3408"/></g><g id="ks8l7riw18g" transform="translate(0 23) rotate(90 2 0)"><path d="M 4 0 L 1e-13 1e-13" fill="none" stroke="#ff0000"/></g><g id="ks8l7riw18h" transform="translate(1 22) rotate(90 0 1)"><path d="M 0 2 L 1e-13 1e-13" fill="none" stroke="#ff0000"/></g><g id="ks8l7riw18i" transform="translate(24 23) rotate(270 2 0)"><path d="M 4 0 L 1e-13 1e-13" fill="none" stroke="#ff0000"/></g><g id="ks8l7riw18j" transform="translate(27 22) rotate(270 0 1)"><path d="M 0 2 L 1e-13 1e-13" fill="none" stroke="#ff0000"/></g><g id="ks8l7riw18k" transform="translate(12 44)"><path d="M 4 0 L 1e-13 1e-13" fill="none" stroke="#ff0000"/></g><g id="ks8l7riw18l" transform="translate(14 44)"><path d="M 0 2 L 1e-13 1e-13" fill="none" stroke="#ff0000"/></g><g id="ks8l7riw18m" transform="translate(12 2) rotate(180 2 0)"><path d="M 4 0 L 1e-13 1e-13" fill="none" stroke="#ff0000"/></g><g id="ks8l7riw18n" transform="translate(14 0) rotate(180 0 1)"><path d="M 0 2 L 1e-13 1e-13" fill="none" stroke="#ff0000"/></g></g></g></svg>