<?xml version="1.0" encoding="UTF-8"?>
<svg xmlns="http://www.w3.org/2000/svg" viewBox="0 0 64 64"><g id="ks8l8r0s2je" class="Group.cls" transform="translate(8.5 20.5)"><g class="Prim.cls"><g id="ks8l8r0s2jf" transform="translate(2 2)"><rect fill="white" height="20" stroke="#000000" stroke-width="0.5" width="44.00000000000001" x="0" y="0"/></g><g id="ks8l8r0s2jg" transform="translate(2 12)"><path d="M 1e-13 1e-13 L 44.00000000000001 0" fill="none" stroke="#000000" stroke-width="0.5"/></g><g id="ks8l8r0s2jh" transform="translate(6.4 4.5)"><path d="M 0 5 L 4.400000000000001 0 L 8.800000000000002 15 L 13.200000000000005 10" fill="none" stroke="#000000" stroke-width="0.5"/></g><g id="ks8l8r0s2ji" transform="translate(28.4 4.5)"><path d="M 0 5 L 4.400000000000001 0 L 8.800000000000002 15 L 13.200000000000005 10" fill="none" stroke="#000000" stroke-width="0.5"/></g><g id="ks8l8r0s2jj" transform="translate(0 12) rotate(90 2 0)"><path d="M 4 0 L 1e-13 1e-13" fill="none" stroke="#ff0000" stroke-width="1"/></g><g id="ks8l8r0s2jk" transform="translate(1 11) rotate(90 0 1)"><path d="M 0 2 L 1e-13 1e-13" fill="none" stroke="#ff0000" stroke-width="1"/></g><g id="ks8l8r0s2jl" transform="translate(44 12) rotate(270 2 0)"><path d="M 4 0 L 1e-13 1e-13" fill="none" stroke="#ff0000" stroke-width="1"/></g><g id="ks8l8r0s2jm" transform="translate(47 11) rotate(270 0 1)"><path d="M 0 2 L 1e-13 1e-13" fill="none" stroke="#ff0000" stroke-width="1"/></g><g id="ks8l8r0s2jn" transform="translate(22 22)"><path d="M 4 0 L 1e-13 1e-13" fill="none" stroke="#ff0000" stroke-width="1"/></g><g id="ks8l8r0s2jo" transform="translate(24 22)"><path d="M 0 2 L 1e-13 1e-13" fill="none" stroke="#ff0000" stroke-width="1"/></g><g id="ks8l8r0s2jp" transform="translate(22 2) rotate(180 2 0)"><path d="M 4 0 L 1e-13 1e-13" fill="none" stroke="#ff0000" stroke-width="1"/></g><g id="ks8l8r0s2jq" transform="translate(24 0) rotate(180 0 1)"><path d="M 0 2 L 1e-13 1e-13" fill="none" stroke="#ff0000" stroke-width="1"/></g></g></g></svg>