<?xml version="1.0" encoding="UTF-8"?>
<svg xmlns="http://www.w3.org/2000/svg" viewBox="0 0 64 64"><g id="ks8lfe7l329" class="Group.cls" transform="translate(5.5 15.5)"><g class="Prim.cls"><g id="ks8lfe7m32a" transform="translate(2 2)"><rect fill="white" height="30" stroke-linecap="butt" stroke="#000000" stroke-width="0.5" width="50" x="0" y="0"/></g><g id="ks8lfe7m32b" transform="translate(7 2)"><path d="M 0 24.999999999999904 L 1.0000000000000003e-13 0" fill="none" stroke-dasharray="2.5 3" stroke="#000000" stroke-width="0.5"/></g><g id="ks8lfe7m32c" transform="translate(2 27)"><path d="M 1e-13 1e-13 L 49.99999999999999 0" fill="none" stroke="#000000" stroke-width="0.5"/></g><g id="ks8lfe7m32d" transform="translate(47 2)"><path d="M 1e-13 1e-13 L 0 24.999999999999996" fill="none" stroke-dasharray="2.5 3" stroke="#000000" stroke-width="0.5"/></g><g id="ks8lfe7m32e" transform="translate(17 2)"><path d="M 1e-13 1e-13 L 0 24.999999999999996" fill="none" stroke-dasharray="2.5 3" stroke="#000000" stroke-width="0.5"/></g><g id="ks8lfe7m32f" transform="translate(37 2)"><path d="M 1e-13 1e-13 L 0 24.999999999999996" fill="none" stroke-dasharray="2.5 3" stroke="#000000" stroke-width="0.5"/></g><g id="ks8lfe7m32g" transform="translate(27 2)"><path d="M 1e-13 1e-13 L 0 24.999999999999996" fill="none" stroke-dasharray="2.5 3" stroke="#000000" stroke-width="0.5"/></g><g id="ks8lfe7m32h" transform="translate(0 17) rotate(90 2 0)"><path d="M 4 0 L 1e-13 1e-13" fill="none" stroke="#ff0000"/></g><g id="ks8lfe7m32i" transform="translate(1 16) rotate(90 0 1)"><path d="M 0 2 L 1e-13 1e-13" fill="none" stroke="#ff0000"/></g><g id="ks8lfe7m32j" transform="translate(50 17) rotate(270 2 0)"><path d="M 4 0 L 1e-13 1e-13" fill="none" stroke="#ff0000"/></g><g id="ks8lfe7m32k" transform="translate(53 16) rotate(270 0 1)"><path d="M 0 2 L 1e-13 1e-13" fill="none" stroke="#ff0000"/></g><g id="ks8lfe7m32l" transform="translate(25 32)"><path d="M 4 0 L 1e-13 1e-13" fill="none" stroke="#ff0000"/></g><g id="ks8lfe7m32m" transform="translate(27 32)"><path d="M 0 2 L 1e-13 1e-13" fill="none" stroke="#ff0000"/></g><g id="ks8lfe7m32n" transform="translate(25 2) rotate(180 2 0)"><path d="M 4 0 L 1e-13 1e-13" fill="none" stroke="#ff0000"/></g><g id="ks8lfe7m32o" transform="translate(27 0) rotate(180 0 1)"><path d="M 0 2 L 1e-13 1e-13" fill="none" stroke="#ff0000"/></g></g></g></svg>