<?xml version="1.0" encoding="UTF-8"?>
<svg xmlns="http://www.w3.org/2000/svg" viewBox="0 0 64 64"><g id="ks8l7wx91jp" class="Group.cls" transform="translate(10.5 10.5)"><g class="Prim.cls"><g id="ks8l7wxa1jq" transform="translate(2 2)"><ellipse fill="white" cx="20" cy="20" rx="20" ry="20" stroke-linecap="square" stroke="#000000" stroke-width="0.5"/></g><g id="ks8l7wxa1jr" transform="translate(10 6)"><path d="M 30 7 L 1e-13 1e-13" fill="none" stroke-linecap="butt" stroke="#000000" stroke-width="0.5"/></g><g id="ks8l7wxa1js" transform="translate(10 31) rotate(180 15 3.5)"><path d="M 0 7 L 30 0" fill="none" stroke-linecap="butt" stroke="#000000" stroke-width="0.5"/></g><g id="ks8l7wxa1jt" transform="translate(0 22) rotate(90 2 0)"><path d="M 4 0 L 1e-13 1e-13" fill="none" stroke="#ff0000" stroke-width="1"/></g><g id="ks8l7wxa1ju" transform="translate(1 21) rotate(90 0 1)"><path d="M 0 2 L 1e-13 1e-13" fill="none" stroke="#ff0000" stroke-width="1"/></g><g id="ks8l7wxa1jv" transform="translate(40 22) rotate(270 2 0)"><path d="M 4 0 L 1e-13 1e-13" fill="none" stroke="#ff0000" stroke-width="1"/></g><g id="ks8l7wxa1jw" transform="translate(43 21) rotate(270 0 1)"><path d="M 0 2 L 1e-13 1e-13" fill="none" stroke="#ff0000" stroke-width="1"/></g><g id="ks8l7wxa1jx" transform="translate(20 42)"><path d="M 4 0 L 1e-13 1e-13" fill="none" stroke="#ff0000" stroke-width="1"/></g><g id="ks8l7wxa1jy" transform="translate(22 42)"><path d="M 0 2 L 1e-13 1e-13" fill="none" stroke="#ff0000" stroke-width="1"/></g><g id="ks8l7wxa1jz" transform="translate(20 2) rotate(180 2 0)"><path d="M 4 0 L 1e-13 1e-13" fill="none" stroke="#ff0000" stroke-width="1"/></g><g id="ks8l7wxa1k0" transform="translate(22 0) rotate(180 0 1)"><path d="M 0 2 L 1e-13 1e-13" fill="none" stroke="#ff0000" stroke-width="1"/></g></g></g></svg>