<?xml version="1.0" encoding="UTF-8"?>
<svg xmlns="http://www.w3.org/2000/svg" viewBox="0 0 64 64"><g id="ks8li5vy575" class="Group.cls" transform="translate(2.5 14.5)"><g class="Prim.cls"><g id="ks8li5vy576" transform="translate(0 26)"><path d="M 1e-13 1e-13 L 60 0" fill="none" stroke="#000000" stroke-width="0.5"/></g><g id="ks8li5vy577" transform="translate(3 2)"><path fill="none" d="M 0 24 L 15 0 L 39 0 L 54 24 Z" stroke="#000000" stroke-width="0.5"/></g><g id="ks8li5vy578" transform="translate(8.353 14.138) rotate(125 2 0)"><path d="M 4 0 L 1e-13 1e-13" fill="none" stroke="#ff0000"/></g><g id="ks8li5vy579" transform="translate(9.534 12.565) rotate(125 0 1)"><path d="M 0 2 L 1e-13 1e-13" fill="none" stroke="#ff0000"/></g><g id="ks8li5vy57a" transform="translate(47.634 14) rotate(240 2 0)"><path d="M 4 0 L 1e-13 1e-13" fill="none" stroke="#ff0000"/></g><g id="ks8li5vy57b" transform="translate(50.5 12.5) rotate(240 0 1)"><path d="M 0 2 L 1e-13 1e-13" fill="none" stroke="#ff0000"/></g><g id="ks8li5vy57c" transform="translate(28 26)"><path d="M 4 0 L 1e-13 1e-13" fill="none" stroke="#ff0000"/></g><g id="ks8li5vy57d" transform="translate(30 26)"><path d="M 0 2 L 1e-13 1e-13" fill="none" stroke="#ff0000"/></g><g id="ks8li5vy57e" transform="translate(28 2) rotate(180 2 0)"><path d="M 4 0 L 1e-13 1e-13" fill="none" stroke="#ff0000"/></g><g id="ks8li5vy57f" transform="translate(30 0) rotate(180 0 1)"><path d="M 0 2 L 1e-13 1e-13" fill="none" stroke="#ff0000"/></g></g></g></svg>