<?xml version="1.0" encoding="UTF-8"?>
<svg xmlns="http://www.w3.org/2000/svg" viewBox="0 0 64 64"><g id="ks8l7qre16m" class="Group.cls" transform="translate(14.5 8.5)"><g class="Prim.cls"><g id="ks8l7qre16n" transform="translate(2.5 12.646)"><path fill="none" d="M 8.8572 4.3542 L 4.4285 0 L 0 4.3542 L 4.4285 8.7083 Z" stroke="#000000" stroke-width="0.3665"/></g><g id="ks8l7qre16o" transform="translate(2.5 34.635)"><path fill="none" d="M 8.857183574380162 4.3541666666666625 L 4.42854214876033 0 L 0 4.3541666666666625 L 4.42854214876033 8.708333333333325 Z" stroke="#000000" stroke-width="0.3665"/></g><g id="ks8l7qre16p" transform="translate(24.643 4.656)"><path fill="none" d="M 8.8572 4.3542 L 4.4285 0 L 0 4.3542 L 4.4285 8.7083 Z" stroke="#000000" stroke-width="0.3665"/></g><g id="ks8l7qre16q" transform="translate(24.643 26.646)"><path fill="none" d="M 8.8572 4.3542 L 4.4285 0 L 0 4.3542 L 4.4285 8.7083 Z" stroke="#000000" stroke-width="0.3665"/></g><g id="ks8l7qre16r" transform="translate(7 1.979)"><rect fill="white" height="44.020833969116204" stroke="#000000" stroke-width="0.3665" width="22.071304321289062" x="0" y="0"/></g><g id="ks8l7qre16s" transform="translate(0 17) rotate(90 2 0)"><path d="M 4 0 L 1e-13 1e-13" fill="none" stroke="#ff0000"/></g><g id="ks8l7qre16t" transform="translate(1 16) rotate(90 0 1)"><path d="M 0 2 L 1e-13 1e-13" fill="none" stroke="#ff0000"/></g><g id="ks8l7qre16u" transform="translate(32 9) rotate(270 2 0)"><path d="M 4 0 L 1e-13 1e-13" fill="none" stroke="#ff0000"/></g><g id="ks8l7qre16v" transform="translate(35 8) rotate(270 0 1)"><path d="M 0 2 L 1e-13 1e-13" fill="none" stroke="#ff0000"/></g><g id="ks8l7qre16w" transform="translate(16 46.021)"><path d="M 4 0 L 1e-13 1e-13" fill="none" stroke="#ff0000"/></g><g id="ks8l7qre16x" transform="translate(18 46.021)"><path d="M 0 1.9792 L 1e-13 1e-13" fill="none" stroke="#ff0000"/></g><g id="ks8l7qre16y" transform="translate(16 1.979) rotate(180 2 0)"><path d="M 4 0 L 1e-13 1e-13" fill="none" stroke="#ff0000"/></g><g id="ks8l7qre16z" transform="translate(18 0) rotate(180 0 0.99)"><path d="M 0 1.979166666666566 L 1e-13 1e-13" fill="none" stroke="#ff0000"/></g><g id="ks8l7qre170" transform="translate(0 39) rotate(90 2 0)"><path d="M 4 0 L 1e-13 1e-13" fill="none" stroke="#ff0000"/></g><g id="ks8l7qre171" transform="translate(1 38) rotate(90 0 1)"><path d="M 0 2 L 1e-13 1e-13" fill="none" stroke="#ff0000"/></g><g id="ks8l7qre172" transform="translate(32 31) rotate(270 2 0)"><path d="M 4 0 L 1e-13 1e-13" fill="none" stroke="#ff0000"/></g><g id="ks8l7qre173" transform="translate(35 30) rotate(270 0 1)"><path d="M 0 2 L 1e-13 1e-13" fill="none" stroke="#ff0000"/></g></g></g></svg>