<?xml version="1.0" encoding="UTF-8"?>
<svg xmlns="http://www.w3.org/2000/svg" viewBox="0 0 64 64"><g id="ks8l7jt7rr" class="Group.cls" transform="translate(19.5 8.5)"><g class="Prim.cls"><g id="ks8l7jt7rs" transform="translate(2 6.848)"><path d="M 1e-13 1e-13 L 22.1186 25.7288" fill="none" stroke="#000000" stroke-width="0.3694"/></g><g id="ks8l7jt7rt" transform="translate(2 2)"><rect fill="white" height="44" stroke="#000000" stroke-width="0.3694" width="22.1186" x="0" y="0"/></g><g id="ks8l7jt7ru" transform="translate(0 24) rotate(90 2 0)"><path d="M 4 0 L 1e-13 1e-13" fill="none" stroke="#ff0000"/></g><g id="ks8l7jt8rv" transform="translate(1 23) rotate(90 0 1)"><path d="M 0 2 L 1e-13 1e-13" fill="none" stroke="#ff0000"/></g><g id="ks8l7jt8rw" transform="translate(22 24) rotate(270 2 0)"><path d="M 4 0 L 1e-13 1e-13" fill="none" stroke="#ff0000"/></g><g id="ks8l7jt8rx" transform="translate(25 23) rotate(270 0 1)"><path d="M 0 2 L 1e-13 1e-13" fill="none" stroke="#ff0000"/></g><g id="ks8l7jt8ry" transform="translate(11 46)"><path d="M 4 0 L 1e-13 1e-13" fill="none" stroke="#ff0000"/></g><g id="ks8l7jt8rz" transform="translate(13 46)"><path d="M 0 2 L 1e-13 1e-13" fill="none" stroke="#ff0000"/></g><g id="ks8l7jt8s0" transform="translate(11 2) rotate(180 2 0)"><path d="M 4 0 L 1e-13 1e-13" fill="none" stroke="#ff0000"/></g><g id="ks8l7jt8s1" transform="translate(13 0) rotate(180 0 1)"><path d="M 0 2 L 1e-13 1e-13" fill="none" stroke="#ff0000"/></g></g></g></svg>