<?xml version="1.0" encoding="UTF-8"?>
<svg xmlns="http://www.w3.org/2000/svg" viewBox="0 0 64 64"><g id="ks8lhzci4sf" class="Group.cls" transform="translate(5.5 15.5)"><g class="Prim.cls"><g id="ks8lhzcj4sg" transform="translate(2 2)"><path fill="none" d="M 0 30 L 0 0 L 40 0 L 45 10 L 50 10 L 50 20 L 45 20 L 40 30 Z" stroke="#000000" stroke-width="0.5"/></g><g id="ks8lhzcj4sh" transform="translate(2 17)"><path d="M 50 0 L 1e-13 1e-13" fill="none" stroke="#000000" stroke-width="0.5"/></g><g id="ks8lhzcj4si" transform="translate(7 7)"><path d="M 0 10 L 5 0 L 10 10 L 15 20 L 25 0 L 35 20 L 40 10" fill="none" stroke="#000000" stroke-width="0.5"/></g><g id="ks8lhzcj4sj" transform="translate(25 2) rotate(180 2 0)"><path d="M 4 0 L 1e-13 1e-13" fill="none" stroke="#ff0000"/></g><g id="ks8lhzcj4sk" transform="translate(27 0) rotate(180 0 1)"><path d="M 0 2 L 1e-13 1e-13" fill="none" stroke="#ff0000"/></g><g id="ks8lhzcj4sl" transform="translate(25 32)"><path d="M 4 0 L 1e-13 1e-13" fill="none" stroke="#ff0000"/></g><g id="ks8lhzcj4sm" transform="translate(27 32)"><path d="M 0 2 L 1e-13 1e-13" fill="none" stroke="#ff0000"/></g><g id="ks8lhzcj4sn" transform="translate(50 17) rotate(270 2 0)"><path d="M 4 0 L 1e-13 1e-13" fill="none" stroke="#ff0000"/></g><g id="ks8lhzcj4so" transform="translate(53 16) rotate(270 0 1)"><path d="M 0 2 L 1e-13 1e-13" fill="none" stroke="#ff0000"/></g><g id="ks8lhzcj4sp" transform="translate(0 17) rotate(90 2 0)"><path d="M 4 0 L 1e-13 1e-13" fill="none" stroke="#ff0000"/></g><g id="ks8lhzcj4sq" transform="translate(1 16) rotate(90 0 1)"><path d="M 0 2 L 1e-13 1e-13" fill="none" stroke="#ff0000"/></g></g></g></svg>