<?xml version="1.0" encoding="UTF-8"?>
<svg xmlns="http://www.w3.org/2000/svg" viewBox="0 0 64 64"><g id="ks8li6jb58j" class="Group.cls" transform="translate(14 -0.5)"><g class="Prim.cls"><g id="ks8li6jc58k" transform="translate(0 64)"><path d="M 1e-13 1e-13 L 37 0" fill="none" stroke="#000000" stroke-width="0.5"/></g><g id="ks8li6jc58l" transform="translate(6.167 2)"><path fill="none" d="M 6.1667 0 L 18.5 0 L 24.6667 62 L 0 62 Z" stroke="#000000" stroke-width="0.5"/></g><g id="ks8li6jc58m" transform="translate(6.996 33.087) rotate(95 2 0)"><path d="M 4 0 L 1e-13 1e-13" fill="none" stroke="#ff0000"/></g><g id="ks8li6jc58n" transform="translate(8 32) rotate(95 0 1)"><path d="M 0 2 L 1e-13 1e-13" fill="none" stroke="#ff0000"/></g><g id="ks8li6jc58o" transform="translate(26.004 33.087) rotate(265 2 0)"><path d="M 4 0 L 1e-13 1e-13" fill="none" stroke="#ff0000"/></g><g id="ks8li6jc58p" transform="translate(29 32) rotate(265 0 1)"><path d="M 0 2 L 1e-13 1e-13" fill="none" stroke="#ff0000"/></g><g id="ks8li6jc58q" transform="translate(16.5 64)"><path d="M 4 0 L 1e-13 1e-13" fill="none" stroke="#ff0000"/></g><g id="ks8li6jc58r" transform="translate(18.5 64)"><path d="M 0 2 L 1e-13 1e-13" fill="none" stroke="#ff0000"/></g><g id="ks8li6jc58s" transform="translate(16.5 2) rotate(180 2 0)"><path d="M 4 0 L 1e-13 1e-13" fill="none" stroke="#ff0000"/></g><g id="ks8li6jc58t" transform="translate(18.5 0) rotate(180 0 1)"><path d="M 0 2 L 1e-13 1e-13" fill="none" stroke="#ff0000"/></g></g></g></svg>