<?xml version="1.0" encoding="UTF-8"?>
<svg xmlns="http://www.w3.org/2000/svg" viewBox="0 0 64 64"><g id="ks8l81ka1rs" class="Group.cls" transform="translate(10.5 10.5)"><g class="Prim.cls"><g id="ks8l81kb1rt" transform="translate(2 2)"><ellipse fill="white" cx="20" cy="20" rx="20" ry="20" stroke="#000000" stroke-width="0.5"/></g><g id="ks8l81kb1ru" transform="translate(7 7)"><ellipse fill="white" cx="15" cy="15" rx="15" ry="15" stroke="#000000" stroke-width="0.5"/></g><g id="ks8l81kb1rv" transform="translate(12 11.937)"><ellipse fill="white" cx="10" cy="10.0628" rx="10" ry="10.0628" stroke="#000000" stroke-width="0.5"/></g><g id="ks8l81kb1rw" transform="translate(8 8)"><path d="M 1e-13 1e-13 L 28 28" fill="none" stroke="#000000" stroke-width="0.5"/></g><g id="ks8l81kb1rx" transform="translate(8 7.875)"><path d="M 28.125 0 L 0 28.125" fill="none" stroke="#000000" stroke-width="0.5"/></g><g id="ks8l81kb1ry" transform="translate(0 22) rotate(90 2 0)"><path d="M 4 0 L 1e-13 1e-13" fill="none" stroke="#ff0000" stroke-width="1"/></g><g id="ks8l81kb1rz" transform="translate(1 21) rotate(90 0 1)"><path d="M 0 2 L 1e-13 1e-13" fill="none" stroke="#ff0000" stroke-width="1"/></g><g id="ks8l81kb1s0" transform="translate(40 22) rotate(270 2 0)"><path d="M 4 0 L 1e-13 1e-13" fill="none" stroke="#ff0000" stroke-width="1"/></g><g id="ks8l81kb1s1" transform="translate(43 21) rotate(270 0 1)"><path d="M 0 2 L 1e-13 1e-13" fill="none" stroke="#ff0000" stroke-width="1"/></g><g id="ks8l81kb1s2" transform="translate(20 42)"><path d="M 4 0 L 1e-13 1e-13" fill="none" stroke="#ff0000" stroke-width="1"/></g><g id="ks8l81kb1s3" transform="translate(22 42)"><path d="M 0 2 L 1e-13 1e-13" fill="none" stroke="#ff0000" stroke-width="1"/></g><g id="ks8l81kb1s4" transform="translate(20 2) rotate(180 2 0)"><path d="M 4 0 L 1e-13 1e-13" fill="none" stroke="#ff0000" stroke-width="1"/></g><g id="ks8l81kb1s5" transform="translate(22 0) rotate(180 0 1)"><path d="M 0 2 L 1e-13 1e-13" fill="none" stroke="#ff0000" stroke-width="1"/></g></g></g></svg>