<?xml version="1.0" encoding="UTF-8"?>
<svg xmlns="http://www.w3.org/2000/svg" viewBox="0 0 64 64"><g id="ks8l7no8zy" class="Group.cls" transform="translate(19.5 8.5)"><g class="Prim.cls"><g id="ks8l7noazz" transform="translate(2 2)"><rect fill="white" height="44" stroke="#000000" stroke-width="0.3657" width="22" x="0" y="0"/></g><g id="ks8l7noa100" transform="translate(2 6)"><path d="M 1e-13 1e-13 L 22 0" fill="none" stroke="#000000" stroke-width="0.3657"/></g><g id="ks8l7noa101" transform="translate(2 42)"><path d="M 1e-13 1e-13 L 22 0" fill="none" stroke="#000000" stroke-width="0.3657"/></g><g id="ks8l7noa102" transform="translate(2 6)"><path d="M 1e-13 1e-13 L 22 36" fill="none" stroke="#000000" stroke-width="0.3657"/></g><g id="ks8l7noa103" transform="translate(2 6)"><path d="M 0 36 L 22 0" fill="none" stroke="#000000" stroke-width="0.3657"/></g><g id="ks8l7noa104" transform="translate(0 24) rotate(90 2 0)"><path d="M 4 0 L 1e-13 1e-13" fill="none" stroke="#ff0000"/></g><g id="ks8l7noa105" transform="translate(1 23) rotate(90 0 1)"><path d="M 0 2 L 1e-13 1e-13" fill="none" stroke="#ff0000"/></g><g id="ks8l7noa106" transform="translate(22 24) rotate(270 2 0)"><path d="M 4 0 L 1e-13 1e-13" fill="none" stroke="#ff0000"/></g><g id="ks8l7noa107" transform="translate(25 23) rotate(270 0 1)"><path d="M 0 2 L 1e-13 1e-13" fill="none" stroke="#ff0000"/></g><g id="ks8l7noa108" transform="translate(11 46)"><path d="M 4 0 L 1e-13 1e-13" fill="none" stroke="#ff0000"/></g><g id="ks8l7noa109" transform="translate(13 46)"><path d="M 0 2 L 1e-13 1e-13" fill="none" stroke="#ff0000"/></g><g id="ks8l7noa10a" transform="translate(11 2) rotate(180 2 0)"><path d="M 4 0 L 1e-13 1e-13" fill="none" stroke="#ff0000"/></g><g id="ks8l7noa10b" transform="translate(13 0) rotate(180 0 1)"><path d="M 0 2 L 1e-13 1e-13" fill="none" stroke="#ff0000"/></g></g></g></svg>