<?xml version="1.0" encoding="UTF-8"?>
<svg xmlns:xlink="http://www.w3.org/1999/xlink" xmlns="http://www.w3.org/2000/svg" viewBox="0 0 64 64"><g id="ks8l833h1v6" class="Group.cls" transform="translate(8.5 20.5)"><g class="Prim.cls"><g id="ks8l833i1v7" transform="translate(2 2)"><rect fill="white" height="20" stroke="#000000" stroke-width="0.5" width="44" x="0" y="0"/><g class="ConnPts.cls"><use id="ki4a85b1k3q" x="0" y="10" xlink:href="#connection.sym"/><use id="ki4a85b1k3r" x="44" y="10" xlink:href="#connection.sym"/></g></g><g id="ks8l833i1v8" transform="translate(13 2)"><path d="M 1e-13 1e-13 L 0 20" fill="none" stroke="#000000" stroke-width="0.5"/></g><g id="ks8l833i1v9" transform="translate(35 2)"><path d="M 1e-13 1e-13 L 0 20" fill="none" stroke="#000000" stroke-width="0.5"/></g><g id="ks8l833i1va" transform="translate(9.333 2)"><path d="M 1e-13 1e-13 L 29.333333333333314 20" fill="none" stroke="#000000" stroke-width="0.5"/></g><g id="ks8l833i1vb" transform="translate(9.333 2)"><path d="M 29.333333333333314 0 L 0 20" fill="none" stroke="#000000" stroke-width="0.5"/></g><g id="ks8l833i1vc" transform="translate(24 2)"><path d="M 1e-13 1e-13 L 0 20" fill="none" stroke="#000000" stroke-width="0.5"/></g><g id="ks8l833i1vd" transform="translate(47 11) rotate(270 0 1)"><path d="M 0 2 L 1e-13 1e-13" fill="none" stroke="#ff0000"/></g><g id="ks8l833i1ve" transform="translate(44 12) rotate(270 2 0)"><path d="M 4 0 L 1e-13 1e-13" fill="none" stroke="#ff0000"/></g><g id="ks8l833i1vf" transform="translate(1 11) rotate(90 0 1)"><path d="M 0 2 L 1e-13 1e-13" fill="none" stroke="#ff0000"/></g><g id="ks8l833i1vg" transform="translate(0 12) rotate(90 2 0)"><path d="M 4 0 L 1e-13 1e-13" fill="none" stroke="#ff0000"/></g><g id="ks8l833i1vh" transform="translate(22 22)"><path d="M 4 0 L 1e-13 1e-13" fill="none" stroke="#ff0000"/></g><g id="ks8l833i1vi" transform="translate(24 22)"><path d="M 0 2 L 1e-13 1e-13" fill="none" stroke="#ff0000"/></g><g id="ks8l833i1vj" transform="translate(22 2) rotate(180 2 0)"><path d="M 4 0 L 1e-13 1e-13" fill="none" stroke="#ff0000"/></g><g id="ks8l833i1vk" transform="translate(24 0) rotate(180 0 1)"><path d="M 0 2 L 1e-13 1e-13" fill="none" stroke="#ff0000"/></g></g></g></svg>