<?xml version="1.0" encoding="UTF-8"?>
<svg xmlns="http://www.w3.org/2000/svg" viewBox="0 0 64 64"><g id="ks8lfezh342" class="Group.cls" transform="translate(11.5 3.5)"><g class="Prim.cls"><g id="ks8lfezi343" transform="translate(2 2)"><rect fill="white" height="55" stroke-linecap="butt" stroke="#000000" stroke-width="0.5" width="38" x="0" y="0"/></g><g id="ks8lfezi344" transform="translate(2 11)"><path d="M 1e-13 1e-13 L 38 0" fill="none" stroke-dasharray="2.5 3" stroke-linecap="butt" stroke="#000000" stroke-width="0.5"/></g><g id="ks8lfezi345" transform="translate(2 48)"><path d="M 1e-13 1e-13 L 38 0" fill="none" stroke-dasharray="2.5 3" stroke-linecap="butt" stroke="#000000" stroke-width="0.5"/></g><g id="ks8lfezi346" transform="translate(2 11.167)"><path d="M 1e-13 1e-13 L 38 36.66666666666665" fill="none" stroke="#000000" stroke-width="0.5"/></g><g id="ks8lfezi347" transform="translate(2 11.167)"><path d="M 38 0 L 0 36.66666666666665" fill="none" stroke="#000000" stroke-width="0.5"/></g><g id="ks8lfezi348" transform="translate(0 29) rotate(90 2 0)"><path d="M 4 0 L 1e-13 1e-13" fill="none" stroke="#ff0000"/></g><g id="ks8lfezi349" transform="translate(1 28) rotate(90 0 1)"><path d="M 0 2 L 1e-13 1e-13" fill="none" stroke="#ff0000"/></g><g id="ks8lfezi34a" transform="translate(38 29) rotate(270 2 0)"><path d="M 4 0 L 1e-13 1e-13" fill="none" stroke="#ff0000"/></g><g id="ks8lfezi34b" transform="translate(41 28) rotate(270 0 1)"><path d="M 0 2 L 1e-13 1e-13" fill="none" stroke="#ff0000"/></g><g id="ks8lfezi34c" transform="translate(19 57)"><path d="M 4 0 L 1e-13 1e-13" fill="none" stroke="#ff0000"/></g><g id="ks8lfezi34d" transform="translate(21 57)"><path d="M 0 2 L 1e-13 1e-13" fill="none" stroke="#ff0000"/></g><g id="ks8lfezi34e" transform="translate(19 2) rotate(180 2 0)"><path d="M 4 0 L 1e-13 1e-13" fill="none" stroke="#ff0000"/></g><g id="ks8lfezi34f" transform="translate(21 0) rotate(180 0 1)"><path d="M 0 2 L 1e-13 1e-13" fill="none" stroke="#ff0000"/></g></g></g></svg>