<?xml version="1.0" encoding="UTF-8"?>
<svg xmlns="http://www.w3.org/2000/svg" viewBox="0 0 64 64"><g id="ks8l9n542rf" class="Group.cls" transform="translate(2.5 2.5)"><g class="Prim.cls"><g id="ks8l9n572rg" transform="translate(11 2)"><rect fill="white" height="55" stroke-linecap="butt" stroke="#000000" stroke-width="0.5" width="38.00000762939453" x="0" y="0"/></g><g id="ks8l9n572rh" transform="translate(11 38.667)"><path d="M 1e-13 1e-13 L 19.00000000000001 18.33333333333334 L 38.00000000000002 0" fill="none" stroke-linecap="butt" stroke="#000000" stroke-width="0.5"/></g><g id="ks8l9n572ri" transform="translate(6.5 30)"><path d="M 1e-13 1e-13 L 47 0" fill="none" stroke-dasharray="1.5 2" stroke-linecap="butt" stroke="#000000" stroke-width="0.5"/></g><g id="ks8l9n572rj" transform="translate(6 20)"><path d="M 1e-13 1e-13 L 47.5 0" fill="none" stroke-dasharray="1.5 2" stroke-linecap="butt" stroke="#000000" stroke-width="0.5"/></g><g id="ks8l9n572rk" transform="translate(49 20)"><ellipse fill="white" cx="4.5" cy="5" rx="4.5" ry="5" stroke-linecap="butt" stroke="#000000" stroke-width="0.5"/></g><g id="ks8l9n572rl" transform="translate(2 20)"><ellipse fill="white" cx="4.5" cy="5" rx="4.5" ry="5" stroke-linecap="butt" stroke="#000000" stroke-width="0.5"/></g><g id="ks8l9n572rm" transform="translate(0 25) rotate(90 2 0)"><path d="M 4 0 L 1e-13 1e-13" fill="none" stroke="#ff0000"/></g><g id="ks8l9n572rn" transform="translate(1 24) rotate(90 0 1)"><path d="M 0 2 L 1e-13 1e-13" fill="none" stroke="#ff0000"/></g><g id="ks8l9n572ro" transform="translate(56 25) rotate(270 2 0)"><path d="M 4 0 L 1e-13 1e-13" fill="none" stroke="#ff0000"/></g><g id="ks8l9n572rp" transform="translate(59 24) rotate(270 0 1)"><path d="M 0 2 L 1e-13 1e-13" fill="none" stroke="#ff0000"/></g><g id="ks8l9n572rq" transform="translate(28 57)"><path d="M 4 0 L 1e-13 1e-13" fill="none" stroke="#ff0000"/></g><g id="ks8l9n572rr" transform="translate(30 57)"><path d="M 0 2 L 1e-13 1e-13" fill="none" stroke="#ff0000"/></g><g id="ks8l9n572rs" transform="translate(28 2) rotate(180 2 0)"><path d="M 4 0 L 1e-13 1e-13" fill="none" stroke="#ff0000"/></g><g id="ks8l9n572rt" transform="translate(30 0) rotate(180 0 1)"><path d="M 0 2 L 1e-13 1e-13" fill="none" stroke="#ff0000"/></g></g></g></svg>