<?xml version="1.0" encoding="UTF-8"?>
<svg xmlns="http://www.w3.org/2000/svg" viewBox="0 0 64 64"><g id="ks8l7xpl1lc" class="Group.cls" transform="translate(10.5 10.5)"><g class="Prim.cls"><g id="ks8l7xpl1ld" transform="translate(2 2)"><path fill="none" d="M 31.4322 36.4322 C 28.1962 38.6829 24.2576 40 20 40 C 15.7424 40 11.8038 38.6829 8.5678 36.4322 C 3.3819 32.8259 0 26.8224 0 20 C 0 8.92 8.92 0 20 0 C 31.08 0 40 8.92 40 20 C 40 25.5458 37.7653 30.5504 34.1438 34.1663 C 33.3099 34.9987 32.4027 35.7576 31.4322 36.4322 Z" stroke="#000000" stroke-width="0.5"/></g><g id="ks8l7xpm1le" transform="translate(4.727 3.818)"><path fill="none" d="M 0 28.1818 L 9.0909 0" stroke-linecap="square" stroke="#000000" stroke-width="0.5"/></g><g id="ks8l7xpm1lf" transform="translate(30.182 3.818)"><path fill="none" d="M 1e-13 1e-13 L 9.0909 28.1818" stroke-linecap="square" stroke="#000000" stroke-width="0.5"/></g><g id="ks8l7xpm1lg" transform="translate(9.75 22)"><path fill="none" d="M 0.5 7.0625 Q 4.632 8.4641 12.1432 0 Q -0.5933 2.5037 0.029 6.61 L 0.5 7.0625 Z" stroke="#000000" stroke-width="0.5"/></g><g id="ks8l7xpm1lh" transform="translate(15.684 11.342) rotate(120 6.072 3.631)"><path fill="none" d="M 0.5 7.0625 Q 4.632 8.4641 12.1432 0 Q -0.5933 2.5037 0.029 6.61 L 0.5 7.0625 Z" stroke="#000000" stroke-width="0.5"/></g><g id="ks8l7xpm1li" transform="translate(22 22)"><path fill="none" d="M 11.6432 7.0625 Q 7.5112 8.4641 0 0 Q 12.7365 2.5037 12.1142 6.61 L 11.6432 7.0625 Z" stroke="#000000" stroke-width="0.5"/></g><g id="ks8l7xpm1lj" transform="translate(0 22) rotate(90 2 0)"><path d="M 4 0 L 1e-13 1e-13" fill="none" stroke="#ff0000"/></g><g id="ks8l7xpm1lk" transform="translate(1 21) rotate(90 0 1)"><path d="M 0 2 L 1e-13 1e-13" fill="none" stroke="#ff0000"/></g><g id="ks8l7xpm1ll" transform="translate(40 22) rotate(270 2 0)"><path d="M 4 0 L 1e-13 1e-13" fill="none" stroke="#ff0000"/></g><g id="ks8l7xpm1lm" transform="translate(43 21) rotate(270 0 1)"><path d="M 0 2 L 1e-13 1e-13" fill="none" stroke="#ff0000"/></g><g id="ks8l7xpm1ln" transform="translate(20 42)"><path d="M 4 0 L 1e-13 1e-13" fill="none" stroke="#ff0000"/></g><g id="ks8l7xpm1lo" transform="translate(22 42)"><path d="M 0 2 L 1e-13 1e-13" fill="none" stroke="#ff0000"/></g><g id="ks8l7xpm1lp" transform="translate(20 2) rotate(180 2 0)"><path d="M 4 0 L 1e-13 1e-13" fill="none" stroke="#ff0000"/></g><g id="ks8l7xpm1lq" transform="translate(22 0) rotate(180 0 1)"><path d="M 0 2 L 1e-13 1e-13" fill="none" stroke="#ff0000"/></g></g></g></svg>