<?xml version="1.0" encoding="UTF-8"?>
<svg xmlns="http://www.w3.org/2000/svg" viewBox="0 0 64 64"><g id="ks8l7mwcy2" class="Group.cls" transform="translate(19.5 8.5)"><g class="Prim.cls"><g id="ks8l7mwdy3" transform="translate(2 2)"><rect fill="white" height="44" stroke="#000000" stroke-width="0.3665" width="22" x="0" y="0"/></g><g id="ks8l7mwdy4" transform="translate(2 6.9)"><path d="M 1e-13 1e-13 L 22 0" fill="none" stroke="#000000" stroke-width="0.3665"/></g><g id="ks8l7mwdy5" transform="translate(2 41.1)"><path d="M 1e-13 1e-13 L 22 0" fill="none" stroke="#000000" stroke-width="0.3665"/></g><g id="ks8l7mwdy6" transform="translate(2 24)"><path d="M 1e-13 1e-13 L 22 0" fill="none" stroke="#000000" stroke-width="0.3665"/></g><g id="ks8l7mwdy7" transform="translate(0 24) rotate(90 2 0)"><path d="M 4 0 L 1e-13 1e-13" fill="none" stroke="#ff0000"/></g><g id="ks8l7mwdy8" transform="translate(1 23) rotate(90 0 1)"><path d="M 0 2 L 1e-13 1e-13" fill="none" stroke="#ff0000"/></g><g id="ks8l7mwdy9" transform="translate(22 24) rotate(270 2 0)"><path d="M 4 0 L 1e-13 1e-13" fill="none" stroke="#ff0000"/></g><g id="ks8l7mwdya" transform="translate(25 23) rotate(270 0 1)"><path d="M 0 2 L 1e-13 1e-13" fill="none" stroke="#ff0000"/></g><g id="ks8l7mwdyb" transform="translate(11 46)"><path d="M 4 0 L 1e-13 1e-13" fill="none" stroke="#ff0000"/></g><g id="ks8l7mwdyc" transform="translate(13 46)"><path d="M 0 2 L 1e-13 1e-13" fill="none" stroke="#ff0000"/></g><g id="ks8l7mwdyd" transform="translate(11 2) rotate(180 2 0)"><path d="M 4 0 L 1e-13 1e-13" fill="none" stroke="#ff0000"/></g><g id="ks8l7mwdye" transform="translate(13 0) rotate(180 0 1)"><path d="M 0 2 L 1e-13 1e-13" fill="none" stroke="#ff0000"/></g></g></g></svg>