<?xml version="1.0" encoding="UTF-8"?>
<svg xmlns="http://www.w3.org/2000/svg" viewBox="0 0 64 64"><g id="ks8l7vdu1h0" class="Group.cls" transform="translate(18.5 10.5)"><g class="Prim.cls"><g id="ks8l7vdu1h1" transform="translate(2 2)"><rect fill="white" height="40.00006404923804" rx="3" stroke="#000000" stroke-width="0.3533" width="24" x="0" y="0"/></g><g id="ks8l7vdu1h2" transform="translate(7.647 15.217)"><rect fill="white" height="13.912997775607638" rx="3" stroke="#000000" stroke-width="0.3533" width="12.705900192260742" x="0" y="0"/></g><g id="ks8l7vdu1h3" transform="translate(0 22) rotate(90 2 0)"><path d="M 4 0 L 1e-13 1e-13" fill="none" stroke="#ff0000"/></g><g id="ks8l7vdu1h4" transform="translate(1 21) rotate(90 0 1)"><path d="M 0 2 L 1e-13 1e-13" fill="none" stroke="#ff0000"/></g><g id="ks8l7vdv1h5" transform="translate(24 22) rotate(270 2 0)"><path d="M 4 0 L 1e-13 1e-13" fill="none" stroke="#ff0000"/></g><g id="ks8l7vdv1h6" transform="translate(27 21) rotate(270 0 1)"><path d="M 0 2 L 1e-13 1e-13" fill="none" stroke="#ff0000"/></g><g id="ks8l7vdv1h7" transform="translate(12 42)"><path d="M 4 0 L 1e-13 1e-13" fill="none" stroke="#ff0000"/></g><g id="ks8l7vdv1h8" transform="translate(14 42)"><path d="M 0 2 L 1e-13 1e-13" fill="none" stroke="#ff0000"/></g><g id="ks8l7vdv1h9" transform="translate(12 2) rotate(180 2 0)"><path d="M 4 0 L 1e-13 1e-13" fill="none" stroke="#ff0000"/></g><g id="ks8l7vdv1ha" transform="translate(14 0) rotate(180 0 1)"><path d="M 0 2 L 1e-13 1e-13" fill="none" stroke="#ff0000"/></g></g></g></svg>