<?xml version="1.0" encoding="UTF-8"?>
<svg xmlns="http://www.w3.org/2000/svg" viewBox="0 0 64 64"><g id="ks8lhvzn4k4" class="Group.cls" transform="translate(13.5 18.5)"><g class="Prim.cls"><g id="ks8lhvzo4k5" transform="translate(2 2)"><rect fill="white" height="18" stroke="#000000" stroke-width="0.5625" width="34" x="0" y="0"/></g><g id="ks8lhvzo4k6" transform="translate(30.333 20.125)"><ellipse fill="white" cx="2.8333" cy="2.9375" rx="2.8333" ry="2.9375" stroke="#000000" stroke-width="0.5625"/></g><g id="ks8lhvzo4k7" transform="translate(2 20.125)"><ellipse fill="white" cx="2.8333" cy="2.9375" rx="2.8333" ry="2.9375" stroke="#000000" stroke-width="0.5625"/></g><g id="ks8lhvzo4k8" transform="translate(0 11) rotate(90 2 0)"><path d="M 4 0 L 1e-13 1e-13" fill="none" stroke="#ff0000"/></g><g id="ks8lhvzo4k9" transform="translate(1 10) rotate(90 0 1)"><path d="M 0 2 L 1e-13 1e-13" fill="none" stroke="#ff0000"/></g><g id="ks8lhvzo4ka" transform="translate(34 11) rotate(270 2 0)"><path d="M 4 0 L 1e-13 1e-13" fill="none" stroke="#ff0000"/></g><g id="ks8lhvzo4kb" transform="translate(37 10) rotate(270 0 1)"><path d="M 0 2 L 1e-13 1e-13" fill="none" stroke="#ff0000"/></g><g id="ks8lhvzo4kc" transform="translate(17 26)"><path d="M 4 0 L 1e-13 1e-13" fill="none" stroke="#ff0000"/></g><g id="ks8lhvzo4kd" transform="translate(19 26)"><path d="M 0 2 L 1e-13 1e-13" fill="none" stroke="#ff0000"/></g><g id="ks8lhvzo4ke" transform="translate(17 2) rotate(180 2 0)"><path d="M 4 0 L 1e-13 1e-13" fill="none" stroke="#ff0000"/></g><g id="ks8lhvzo4kf" transform="translate(19 0) rotate(180 0 1)"><path d="M 0 2 L 1e-13 1e-13" fill="none" stroke="#ff0000"/></g></g></g></svg>