<?xml version="1.0" encoding="UTF-8"?>
<svg xmlns="http://www.w3.org/2000/svg" viewBox="0 0 64 64"><g id="ks8lhtcq4dt" class="Group.cls" transform="translate(5.5 20.5)"><g class="Prim.cls"><g id="ks8lhtcr4du" transform="translate(2 2)"><rect fill="white" height="20" stroke="#000000" stroke-width="0.5" width="50" x="0" y="0"/></g><g id="ks8lhtcr4dv" transform="translate(2 12)"><path d="M 1e-13 1e-13 L 50 0" fill="none" stroke="#000000" stroke-width="0.5"/></g><g id="ks8lhtcr4dw" transform="translate(7 7)"><path d="M 40 5 L 35 0 L 25 10 L 15 0 L 5 10 L 0 5" fill="none" stroke="#000000" stroke-width="0.5"/></g><g id="ks8lhtcr4dx" transform="translate(50 12) rotate(270 2 0)"><path d="M 4 0 L 1e-13 1e-13" fill="none" stroke="#ff0000" stroke-width="1"/></g><g id="ks8lhtcr4dy" transform="translate(53 11) rotate(270 0 1)"><path d="M 0 2 L 1e-13 1e-13" fill="none" stroke="#ff0000" stroke-width="1"/></g><g id="ks8lhtcr4dz" transform="translate(0 12) rotate(90 2 0)"><path d="M 4 0 L 1e-13 1e-13" fill="none" stroke="#ff0000" stroke-width="1"/></g><g id="ks8lhtcr4e0" transform="translate(1 11) rotate(90 0 1)"><path d="M 0 2 L 1e-13 1e-13" fill="none" stroke="#ff0000" stroke-width="1"/></g><g id="ks8lhtcr4e1" transform="translate(25.5 22)"><path d="M 4 0 L 1e-13 1e-13" fill="none" stroke="#ff0000"/></g><g id="ks8lhtcr4e2" transform="translate(27.5 22)"><path d="M 0 2 L 1e-13 1e-13" fill="none" stroke="#ff0000"/></g><g id="ks8lhtcr4e3" transform="translate(25.5 2) rotate(180 2 0)"><path d="M 4 0 L 1e-13 1e-13" fill="none" stroke="#ff0000"/></g><g id="ks8lhtcr4e4" transform="translate(27.5 0) rotate(180 0 1)"><path d="M 0 2 L 1e-13 1e-13" fill="none" stroke="#ff0000"/></g></g></g></svg>