<?xml version="1.0" encoding="UTF-8"?>
<svg xmlns="http://www.w3.org/2000/svg" viewBox="0 0 64 64"><g id="ks8lhwnq4ll" class="Group.cls" transform="translate(5.5 25.5)"><g class="Prim.cls"><g id="ks8lhwnq4lm" transform="translate(2 7)"><ellipse fill="white" cx="5" cy="5" rx="5" ry="5" stroke="#000000" stroke-width="0.5"/></g><g id="ks8lhwnq4ln" transform="translate(42 7)"><ellipse fill="white" cx="5" cy="5" rx="5" ry="5" stroke="#000000" stroke-width="0.5"/></g><g id="ks8lhwnq4lo" transform="translate(2 2)"><rect fill="none" height="5" stroke="#000000" stroke-width="0.5" width="50" x="0" y="0"/></g><g id="ks8lhwnq4lp" transform="translate(0 7) rotate(90 2 0)"><path d="M 4 0 L 1e-13 1e-13" fill="none" stroke="#ff0000"/></g><g id="ks8lhwnq4lq" transform="translate(1 6) rotate(90 0 1)"><path d="M 0 2 L 1e-13 1e-13" fill="none" stroke="#ff0000"/></g><g id="ks8lhwnq4lr" transform="translate(50 7) rotate(270 2 0)"><path d="M 4 0 L 1e-13 1e-13" fill="none" stroke="#ff0000"/></g><g id="ks8lhwnq4ls" transform="translate(53 6) rotate(270 0 1)"><path d="M 0 2 L 1e-13 1e-13" fill="none" stroke="#ff0000"/></g><g id="ks8lhwnq4lt" transform="translate(25 17)"><path d="M 4 0 L 1e-13 1e-13" fill="none" stroke="#ff0000"/></g><g id="ks8lhwnq4lu" transform="translate(27 17)"><path d="M 0 2 L 1e-13 1e-13" fill="none" stroke="#ff0000"/></g><g id="ks8lhwnq4lv" transform="translate(25 2) rotate(180 2 0)"><path d="M 4 0 L 1e-13 1e-13" fill="none" stroke="#ff0000"/></g><g id="ks8lhwnq4lw" transform="translate(27 0) rotate(180 0 1)"><path d="M 0 2 L 1e-13 1e-13" fill="none" stroke="#ff0000"/></g></g></g></svg>