<?xml version="1.0" encoding="UTF-8"?>
<svg xmlns="http://www.w3.org/2000/svg" viewBox="0 0 64 64"><g id="ks8l7lcqul" class="Group.cls" transform="translate(18.5 11.5)"><g class="Prim.cls"><g id="ks8l7lcqum" transform="translate(4.333 3.508)"><path d="M 1e-13 1e-13 L 17 31.095078685897434" fill="none" stroke="#000000" stroke-width="0.3529"/></g><g id="ks8l7lcqun" transform="translate(2 2)"><rect fill="white" height="37.00001605963096" stroke="#000000" stroke-width="0.3529" width="24" x="0" y="0"/></g><g id="ks8l7lcquo" transform="translate(0 21) rotate(90 2 0)"><path d="M 4 0 L 1e-13 1e-13" fill="none" stroke="#ff0000"/></g><g id="ks8l7lcqup" transform="translate(1 20) rotate(90 0 1)"><path d="M 0 2 L 1e-13 1e-13" fill="none" stroke="#ff0000"/></g><g id="ks8l7lcquq" transform="translate(24 21) rotate(270 2 0)"><path d="M 4 0 L 1e-13 1e-13" fill="none" stroke="#ff0000"/></g><g id="ks8l7lcqur" transform="translate(27 20) rotate(270 0 1)"><path d="M 0 2 L 1e-13 1e-13" fill="none" stroke="#ff0000"/></g><g id="ks8l7lcqus" transform="translate(12 39)"><path d="M 4 0 L 1e-13 1e-13" fill="none" stroke="#ff0000"/></g><g id="ks8l7lcqut" transform="translate(14 39)"><path d="M 0 2 L 1e-13 1e-13" fill="none" stroke="#ff0000"/></g><g id="ks8l7lcquu" transform="translate(12 2) rotate(180 2 0)"><path d="M 4 0 L 1e-13 1e-13" fill="none" stroke="#ff0000"/></g><g id="ks8l7lcquv" transform="translate(14 0) rotate(180 0 1)"><path d="M 0 2 L 1e-13 1e-13" fill="none" stroke="#ff0000"/></g></g></g></svg>