<?xml version="1.0" encoding="UTF-8"?>
<svg xmlns="http://www.w3.org/2000/svg" viewBox="0 0 64 64"><g id="ks8l8ija2h0" class="Group.cls" transform="translate(10.5 10.5)"><g class="Prim.cls"><g id="ks8l8ijc2h1" transform="translate(2 2)"><ellipse fill="white" cx="20" cy="20" rx="20" ry="20" stroke="#000000" stroke-width="0.5"/></g><g id="ks8l8ijc2h2" transform="translate(17.513 15.034)"><path d="M 3.5982000000000007 12.999999999999998 L 0 12.999999999999998 L 0 0 L 3.669600000000001 0 Q 5.366100000000001 0 6.669600000000003 0.7499999999999998 Q 7.973200000000004 1.4999999999999996 8.683 2.8839 Q 9.3929 4.267899999999999 9.401800000000003 6.062499999999999 L 9.401800000000003 6.8929 Q 9.401800000000003 8.732099999999999 8.692 10.116099999999998 Q 7.982100000000002 11.499999999999998 6.6652000000000005 12.2411 Q 5.348200000000001 12.982099999999999 3.5982000000000007 12.999999999999998 Z M 3.714300000000001 1.4106999999999998 L 1.7143000000000006 1.4106999999999998 L 1.7143000000000006 11.5982 L 3.5179000000000005 11.5982 Q 5.500000000000002 11.5982 6.602700000000002 10.3661 Q 7.705400000000003 9.133899999999997 7.705400000000003 6.857099999999998 L 7.705400000000003 6.098199999999999 Q 7.705400000000003 3.8838999999999992 6.6652000000000005 2.6562999999999994 Q 5.625000000000002 1.4285999999999999 3.714300000000001 1.4106999999999998 Z" fill="#000000" stroke="none" stroke-width="0.5"/></g><g id="ks8l8ijc2h3" transform="translate(0 22) rotate(90 2 0)"><path d="M 4 0 L 1e-13 1e-13" fill="none" stroke="#ff0000" stroke-width="1"/></g><g id="ks8l8ijc2h4" transform="translate(1 21) rotate(90 0 1)"><path d="M 0 2 L 1e-13 1e-13" fill="none" stroke="#ff0000" stroke-width="1"/></g><g id="ks8l8ijc2h5" transform="translate(40 22) rotate(270 2 0)"><path d="M 4 0 L 1e-13 1e-13" fill="none" stroke="#ff0000" stroke-width="1"/></g><g id="ks8l8ijc2h6" transform="translate(43 21) rotate(270 0 1)"><path d="M 0 2 L 1e-13 1e-13" fill="none" stroke="#ff0000" stroke-width="1"/></g><g id="ks8l8ijc2h7" transform="translate(20 42)"><path d="M 4 0 L 1e-13 1e-13" fill="none" stroke="#ff0000" stroke-width="1"/></g><g id="ks8l8ijc2h8" transform="translate(22 42)"><path d="M 0 2 L 1e-13 1e-13" fill="none" stroke="#ff0000" stroke-width="1"/></g><g id="ks8l8ijc2h9" transform="translate(20 2) rotate(180 2 0)"><path d="M 4 0 L 1e-13 1e-13" fill="none" stroke="#ff0000" stroke-width="1"/></g><g id="ks8l8ijc2ha" transform="translate(22 0) rotate(180 0 1)"><path d="M 0 2 L 1e-13 1e-13" fill="none" stroke="#ff0000" stroke-width="1"/></g></g></g></svg>