<?xml version="1.0" encoding="UTF-8"?>
<svg xmlns="http://www.w3.org/2000/svg" viewBox="0 0 64 64"><g id="ks8l7pzs145" class="Group.cls" transform="translate(10.5 8.5)"><g class="Prim.cls"><g id="ks8l7pzs146" transform="translate(11.052 1.889)"><rect fill="white" height="44.11109924316406" stroke="#000000" stroke-width="0.3673" width="21.947903825378418" x="0" y="0"/></g><g id="ks8l7pzs147" transform="translate(2.425 12.589)"><path fill="none" d="M 8.5749 4.4111 L 4.2875 0 L 0 4.4111 L 4.2875 8.8222 Z" stroke="#000000" stroke-width="0.3673"/></g><g id="ks8l7pzs148" transform="translate(2.415 35.597)"><path fill="none" d="M 8.5749 4.4111 L 4.2875 0 L 0 4.4111 L 4.2875 8.8222 Z" stroke="#000000" stroke-width="0.3673"/></g><g id="ks8l7pzs149" transform="translate(33 4.589)"><path fill="none" d="M 8.7878 4.4111 L 4.3939 0 L 0 4.4111 L 4.3939 8.8222 Z" stroke="#000000" stroke-width="0.3673"/></g><g id="ks8l7pzs14a" transform="translate(32.985 26.65)"><path fill="none" d="M 8.7878 4.4111 L 4.3939 0 L 0 4.4111 L 4.3939 8.8222 Z" stroke="#000000" stroke-width="0.3673"/></g><g id="ks8l7pzs14b" transform="translate(-0.023 17) rotate(90 2 0)"><path d="M 4 0 L 1e-13 1e-13" fill="none" stroke="#ff0000"/></g><g id="ks8l7pzs14c" transform="translate(0.989 16.011) rotate(90 0 0.989)"><path d="M 0 1.9773 L 1e-13 1e-13" fill="none" stroke="#ff0000"/></g><g id="ks8l7pzs14d" transform="translate(40.023 9) rotate(270 2 0)"><path d="M 4 0 L 1e-13 1e-13" fill="none" stroke="#ff0000"/></g><g id="ks8l7pzs14e" transform="translate(43.011 8.011) rotate(270 0 0.989)"><path d="M 0 1.9773 L 1e-13 1e-13" fill="none" stroke="#ff0000"/></g><g id="ks8l7pzs14f" transform="translate(20.023 46)"><path d="M 3.9545 0 L 1e-13 1e-13" fill="none" stroke="#ff0000"/></g><g id="ks8l7pzs14g" transform="translate(22 46)"><path d="M 0 2 L 1e-13 1e-13" fill="none" stroke="#ff0000"/></g><g id="ks8l7pzs14h" transform="translate(20.023 2) rotate(180 1.977 0)"><path d="M 3.9545 0 L 1e-13 1e-13" fill="none" stroke="#ff0000"/></g><g id="ks8l7pzs14i" transform="translate(22 0) rotate(180 0 1)"><path d="M 0 2 L 1e-13 1e-13" fill="none" stroke="#ff0000"/></g><g id="ks8l7pzs14j" transform="translate(-0.023 40) rotate(90 2 0)"><path d="M 4 0 L 1e-13 1e-13" fill="none" stroke="#ff0000"/></g><g id="ks8l7pzs14k" transform="translate(0.989 39.011) rotate(90 0 0.989)"><path d="M 0 1.9773 L 1e-13 1e-13" fill="none" stroke="#ff0000"/></g><g id="ks8l7pzs14l" transform="translate(40.023 31) rotate(270 2 0)"><path d="M 4 0 L 1e-13 1e-13" fill="none" stroke="#ff0000"/></g><g id="ks8l7pzs14m" transform="translate(43.011 30.011) rotate(270 0 0.989)"><path d="M 0 1.9773 L 1e-13 1e-13" fill="none" stroke="#ff0000"/></g></g></g></svg>