<?xml version="1.0" encoding="UTF-8"?>
<svg xmlns="http://www.w3.org/2000/svg" viewBox="0 0 64 64"><g id="ks8l866q21r" class="Group.cls" transform="translate(8.5 22.5)"><g class="Prim.cls"><g id="ks8l866q21s" transform="translate(9.333 5)"><rect fill="none" height="10" stroke="#000000" stroke-width="0.5" width="36.66668942553849" x="0" y="0"/></g><g id="ks8l866q21t" transform="translate(42 5)"><path d="M 1e-13 1e-13 L 0 10" fill="none" stroke="#000000" stroke-width="0.5"/></g><g id="ks8l866q21u" transform="translate(2 0)"><rect fill="white" height="20" stroke="#000000" stroke-width="0.5" width="8" x="0" y="0"/></g><g id="ks8l866q21v" transform="translate(2 10)"><path fill="none" d="M 1e-13 1e-13 L 39.95833333333334 0" stroke="#000000" stroke-width="0.5"/></g><g id="ks8l866q21w" transform="translate(47 9) rotate(270 0 1)"><path d="M 0 2 L 1e-13 1e-13" fill="none" stroke="#ff0000"/></g><g id="ks8l866q21x" transform="translate(44 10) rotate(270 2 0)"><path d="M 4 0 L 1e-13 1e-13" fill="none" stroke="#ff0000"/></g><g id="ks8l866q21y" transform="translate(1 9) rotate(90 0 1)"><path d="M 0 2 L 1e-13 1e-13" fill="none" stroke="#ff0000"/></g><g id="ks8l866q21z" transform="translate(0 10) rotate(90 2 0)"><path d="M 4 0 L 1e-13 1e-13" fill="none" stroke="#ff0000"/></g><g id="ks8l866q220" transform="translate(22 15)"><path d="M 4 0 L 1e-13 1e-13" fill="none" stroke="#ff0000"/></g><g id="ks8l866q221" transform="translate(24 15)"><path d="M 0 2 L 1e-13 1e-13" fill="none" stroke="#ff0000"/></g><g id="ks8l866q222" transform="translate(22 5) rotate(180 2 0)"><path d="M 4 0 L 1e-13 1e-13" fill="none" stroke="#ff0000"/></g><g id="ks8l866q223" transform="translate(24 3) rotate(180 0 1)"><path d="M 0 2 L 1e-13 1e-13" fill="none" stroke="#ff0000"/></g></g></g></svg>