<?xml version="1.0" encoding="UTF-8"?>
<svg xmlns="http://www.w3.org/2000/svg" viewBox="0 0 64 64"><g id="ks8li59655l" class="Group.cls" transform="translate(-0.5 21.5)"><g class="Prim.cls"><g id="ks8li59655m" transform="translate(19.714 11)"><path fill="none" d="M 0 8 L 4.4286 0 L 8.8571 8 Z" stroke="#000000" stroke-width="0.5"/></g><g id="ks8li59755n" transform="translate(2 7)"><rect fill="none" height="8" stroke="#000000" stroke-width="0.5" width="9" x="0" y="0"/></g><g id="ks8li59755o" transform="translate(10.857 2)"><path d="M 0 9 L 35.1429 9 L 35.1429 0" fill="none" stroke="#000000" stroke-width="0.5"/></g><g id="ks8li59755p" transform="translate(29.5 2)"><path d="M 1e-13 1e-13 L 33.5 0" fill="none" stroke="#000000" stroke-width="0.5"/></g><g id="ks8li59755q" transform="translate(0 11) rotate(90 2 0)"><path d="M 4 0 L 1e-13 1e-13" fill="none" stroke="#ff0000"/></g><g id="ks8li59755r" transform="translate(1 10) rotate(90 0 1)"><path d="M 0 2 L 1e-13 1e-13" fill="none" stroke="#ff0000"/></g><g id="ks8li59755s" transform="translate(61 2) rotate(270 2 0)"><path d="M 4 0 L 1e-13 1e-13" fill="none" stroke="#ff0000"/></g><g id="ks8li59755t" transform="translate(64 1) rotate(270 0 1)"><path d="M 0 2 L 1e-13 1e-13" fill="none" stroke="#ff0000"/></g><g id="ks8li59755u" transform="translate(22 19)"><path d="M 4 0 L 1e-13 1e-13" fill="none" stroke="#ff0000"/></g><g id="ks8li59755v" transform="translate(24 19)"><path d="M 0 2 L 1e-13 1e-13" fill="none" stroke="#ff0000"/></g><g id="ks8li59755w" transform="translate(44 2) rotate(180 2 0)"><path d="M 4 0 L 1e-13 1e-13" fill="none" stroke="#ff0000"/></g><g id="ks8li59755x" transform="translate(46 0) rotate(180 0 1)"><path d="M 0 2 L 1e-13 1e-13" fill="none" stroke="#ff0000"/></g><g id="ks8li59755y" transform="translate(27 2) rotate(90 2 0)"><path d="M 4 0 L 1e-13 1e-13" fill="none" stroke="#ff0000"/></g><g id="ks8li59755z" transform="translate(28 1) rotate(90 0 1)"><path d="M 0 2 L 1e-13 1e-13" fill="none" stroke="#ff0000"/></g></g></g></svg>