<?xml version="1.0" encoding="UTF-8"?>
<svg xmlns="http://www.w3.org/2000/svg" viewBox="0 0 64 64"><g id="ks8l7tu71dv" class="Group.cls" transform="translate(20.5 14.5)"><g class="Prim.cls"><g id="ks8l7tu71dw" transform="translate(3 2)"><rect fill="white" height="33" stroke="#000000" stroke-width="0.3596" width="17" x="0" y="0"/></g><g id="ks8l7tu71dx" transform="translate(0.5 6)"><path d="M 1e-13 1e-13 L 23 0" fill="none" stroke="#000000" stroke-width="0.3596"/></g><g id="ks8l7tu71dy" transform="translate(0 31)"><path d="M 1e-13 1e-13 L 23 0" fill="none" stroke="#000000" stroke-width="0.3596"/></g><g id="ks8l7tu71dz" transform="translate(1 18) rotate(90 2 0)"><path d="M 4 0 L 1e-13 1e-13" fill="none" stroke="#ff0000"/></g><g id="ks8l7tu71e0" transform="translate(2 17) rotate(90 0 1)"><path d="M 0 2 L 1e-13 1e-13" fill="none" stroke="#ff0000"/></g><g id="ks8l7tu71e1" transform="translate(18 18) rotate(270 2 0)"><path d="M 4 0 L 1e-13 1e-13" fill="none" stroke="#ff0000"/></g><g id="ks8l7tu71e2" transform="translate(21 17) rotate(270 0 1)"><path d="M 0 2 L 1e-13 1e-13" fill="none" stroke="#ff0000"/></g><g id="ks8l7tu71e3" transform="translate(10 35)"><path d="M 4 0 L 1e-13 1e-13" fill="none" stroke="#ff0000"/></g><g id="ks8l7tu71e4" transform="translate(12 35)"><path d="M 0 2 L 1e-13 1e-13" fill="none" stroke="#ff0000"/></g><g id="ks8l7tu71e5" transform="translate(10 2) rotate(180 2 0)"><path d="M 4 0 L 1e-13 1e-13" fill="none" stroke="#ff0000"/></g><g id="ks8l7tu71e6" transform="translate(12 0) rotate(180 0 1)"><path d="M 0 2 L 1e-13 1e-13" fill="none" stroke="#ff0000"/></g></g></g></svg>