<?xml version="1.0" encoding="UTF-8"?>
<svg xmlns="http://www.w3.org/2000/svg" viewBox="0 0 64 64"><g id="ks8lhncw40p" class="Group.cls" transform="translate(11.5 3.5)"><g class="Prim.cls"><g id="ks8lhncw40q" transform="translate(2 2)"><path fill="none" d="M 0 11 L 7.600000000000001 0 L 30.400000000000006 0 L 38 11 L 38 55 L 0 55 Z" stroke-linecap="butt" stroke="#000000" stroke-width="0.5"/></g><g id="ks8lhncw40r" transform="translate(6.75 16)"><ellipse fill="white" cx="2.375" cy="2.5" rx="2.375" ry="2.5" stroke-linecap="butt" stroke="#000000" stroke-width="0.5"/></g><g id="ks8lhncw40s" transform="translate(30.5 16)"><ellipse fill="white" cx="2.375" cy="2.5" rx="2.375" ry="2.5" stroke-linecap="butt" stroke="#000000" stroke-width="0.5"/></g><g id="ks8lhncw40t" transform="translate(9 16)"><path d="M 1e-13 1e-13 L 24 0" fill="none" stroke-linecap="butt" stroke="#000000" stroke-width="0.5"/></g><g id="ks8lhncw40u" transform="translate(9 21)"><path d="M 23.9999999999999 0 L 0 1e-13" fill="none" stroke-linecap="butt" stroke="#000000" stroke-width="0.5"/></g><g id="ks8lhncw40v" transform="translate(0 29) rotate(90 2 0)"><path d="M 4 0 L 1e-13 1e-13" fill="none" stroke="#ff0000"/></g><g id="ks8lhncw40w" transform="translate(1 28) rotate(90 0 1)"><path d="M 0 2 L 1e-13 1e-13" fill="none" stroke="#ff0000"/></g><g id="ks8lhncw40x" transform="translate(38 29) rotate(270 2 0)"><path d="M 4 0 L 1e-13 1e-13" fill="none" stroke="#ff0000"/></g><g id="ks8lhncw40y" transform="translate(41 28) rotate(270 0 1)"><path d="M 0 2 L 1e-13 1e-13" fill="none" stroke="#ff0000"/></g><g id="ks8lhncw40z" transform="translate(19 57)"><path d="M 4 0 L 1e-13 1e-13" fill="none" stroke="#ff0000"/></g><g id="ks8lhncw410" transform="translate(21 57)"><path d="M 0 2 L 1e-13 1e-13" fill="none" stroke="#ff0000"/></g><g id="ks8lhncw411" transform="translate(19 2) rotate(180 2 0)"><path d="M 4 0 L 1e-13 1e-13" fill="none" stroke="#ff0000"/></g><g id="ks8lhncw412" transform="translate(21 0) rotate(180 0 1)"><path d="M 0 2 L 1e-13 1e-13" fill="none" stroke="#ff0000"/></g></g></g></svg>