<?xml version="1.0" encoding="UTF-8"?>
<svg xmlns:xlink="http://www.w3.org/1999/xlink" xmlns="http://www.w3.org/2000/svg" viewBox="0 0 64 64"><g id="ks8li1yi4xs" class="Group.cls" transform="translate(20.5 15.5)"><g class="Prim.cls"><g id="ks8li1yj4xt" transform="translate(2 2)"><path d="M 1e-13 1e-13 L 20 0" fill="none" stroke="#000000" stroke-width="0.5"/></g><g id="ks8li1yj4xu" transform="translate(12 2)"><path d="M 1e-13 1e-13 L 0 30" fill="none" stroke="#000000" stroke-width="0.5"/></g><g id="ks8li1yj4xv" transform="translate(3.573 12)"><path d="M 13.4275 0 C 27.910452345626982 9.655301563751323 -8.88026186658433 9.988118298804771 2.0678999423980713 0.9983999729156494" fill="none" stroke="#000000" stroke-width="0.5"/><use class="EndArrow.cls" fill="#000000" stroke-width="1.3333333333333333" transform="scale(0.375) rotate(53.355 9.14 0)" x="9.140013376871744" xlink:href="#icon_cPRVgtP8F_xzFFi0zayF-M_thick.end" y="2.6674956731323474e-13"/></g><g id="ks8li1yj4xw" transform="translate(0 2) rotate(90 2 0)"><path d="M 4 0 L 1e-13 1e-13" fill="none" stroke="#ff0000"/></g><g id="ks8li1yj4xx" transform="translate(1 1) rotate(90 0 1)"><path d="M 0 2 L 1e-13 1e-13" fill="none" stroke="#ff0000"/></g><g id="ks8li1yj4xy" transform="translate(20 2) rotate(270 2 0)"><path d="M 4 0 L 1e-13 1e-13" fill="none" stroke="#ff0000"/></g><g id="ks8li1yj4xz" transform="translate(23 1) rotate(270 0 1)"><path d="M 0 2 L 1e-13 1e-13" fill="none" stroke="#ff0000"/></g></g></g></svg>