<?xml version="1.0" encoding="UTF-8"?>
<svg xmlns="http://www.w3.org/2000/svg" viewBox="0 0 64 64"><g id="ks8lho0s428" class="Group.cls" transform="translate(11.5 3.5)"><g class="Prim.cls"><g id="ks8lho0t429" transform="translate(2 2)"><path fill="none" d="M 0 10.999999999999995 L 7.600000000000002 0 L 30.40000000000001 0 L 38 10.999999999999995 L 38 55 L 0 55 Z" stroke-linecap="butt" stroke="#000000" stroke-width="0.5"/></g><g id="ks8lho0t42a" transform="translate(13.875 15.75)"><ellipse fill="white" cx="7.125" cy="6.875" rx="7.125" ry="6.875" stroke="#000000" stroke-width="0.5"/></g><g id="ks8lho0t42b" transform="translate(16.25 13.917)"><path fill="none" d="M 4.749999999999907 1.833333333333241 C 2.8499999999999073 -9.166662567235527e-14 2.3749999999999076 -9.166662567235527e-14 0 4.099431137616925e-20" stroke="#000000" stroke-width="0.5"/></g><g id="ks8lho0t42c" transform="translate(0 29) rotate(90 2 0)"><path d="M 4 0 L 1e-13 1e-13" fill="none" stroke="#ff0000"/></g><g id="ks8lho0t42d" transform="translate(1 28) rotate(90 0 1)"><path d="M 0 2 L 1e-13 1e-13" fill="none" stroke="#ff0000"/></g><g id="ks8lho0u42e" transform="translate(38 29) rotate(270 2 0)"><path d="M 4 0 L 1e-13 1e-13" fill="none" stroke="#ff0000"/></g><g id="ks8lho0u42f" transform="translate(41 28) rotate(270 0 1)"><path d="M 0 2 L 1e-13 1e-13" fill="none" stroke="#ff0000"/></g><g id="ks8lho0u42g" transform="translate(19 57)"><path d="M 4 0 L 1e-13 1e-13" fill="none" stroke="#ff0000"/></g><g id="ks8lho0u42h" transform="translate(21 57)"><path d="M 0 2 L 1e-13 1e-13" fill="none" stroke="#ff0000"/></g><g id="ks8lho0u42i" transform="translate(19 2) rotate(180 2 0)"><path d="M 4 0 L 1e-13 1e-13" fill="none" stroke="#ff0000"/></g><g id="ks8lho0u42j" transform="translate(21 0) rotate(180 0 1)"><path d="M 0 2 L 1e-13 1e-13" fill="none" stroke="#ff0000"/></g></g></g></svg>