<?xml version="1.0" encoding="UTF-8"?>
<svg xmlns="http://www.w3.org/2000/svg" viewBox="0 0 64 64"><g id="ks8lhhtv3ng" class="Group.cls" transform="translate(11.5 10.5)"><g class="Prim.cls"><g id="ks8lhhtw3nh" transform="translate(2 2)"><rect fill="white" height="39" stroke-linecap="butt" stroke="#000000" stroke-width="0.5" width="38" x="0" y="0"/></g><g id="ks8lhhtw3ni" transform="translate(6.75 36)"><path d="M 1e-13 1e-13 L 28.5 0" fill="none" stroke-linecap="butt" stroke="#000000" stroke-width="0.5"/></g><g id="ks8lhhtw3nj" transform="translate(21 2)"><path d="M 0 48.4999999999999 L 9.500000000000002e-14 0" fill="none" stroke-linecap="butt" stroke="#000000" stroke-width="0.5"/></g><g id="ks8lhhtw3nk" transform="translate(6.75 2)"><path d="M 0 9.700000000000005 L 14.249999999999996 0" fill="none" stroke-linecap="butt" stroke="#000000" stroke-width="0.5"/></g><g id="ks8lhhtw3nl" transform="translate(6.75 11.7)"><path d="M 0 9.700000000000005 L 14.249999999999996 0" fill="none" stroke-linecap="butt" stroke="#000000" stroke-width="0.5"/></g><g id="ks8lhhtw3nm" transform="translate(21 11.7)"><path d="M 1e-13 1e-13 L 14.249999999999996 9.700000000000005" fill="none" stroke-linecap="butt" stroke="#000000" stroke-width="0.5"/></g><g id="ks8lhhtw3nn" transform="translate(21 2)"><path d="M 1e-13 1e-13 L 14.249999999999996 9.700000000000005" fill="none" stroke-linecap="butt" stroke="#000000" stroke-width="0.5"/></g><g id="ks8lhhtw3no" transform="translate(21 37)"><path d="M 1e-13 1e-13 L 0 15" fill="none" stroke-linecap="butt" stroke="#000000" stroke-width="0.5"/></g><g id="ks8lhhtw3np" transform="translate(19 50)"><path d="M 4 0 L 1e-13 1e-13" fill="none" stroke="#ff0000"/></g><g id="ks8lhhtw3nq" transform="translate(21 50)"><path d="M 0 2 L 1e-13 1e-13" fill="none" stroke="#ff0000"/></g><g id="ks8lhhtw3nr" transform="translate(19 2) rotate(180 2 0)"><path d="M 4 0 L 1e-13 1e-13" fill="none" stroke="#ff0000"/></g><g id="ks8lhhtw3ns" transform="translate(21 0) rotate(180 0 1)"><path d="M 0 2 L 1e-13 1e-13" fill="none" stroke="#ff0000"/></g><g id="ks8lhhtw3nt" transform="translate(0 22) rotate(90 2 0)"><path d="M 4 0 L 1e-13 1e-13" fill="none" stroke="#ff0000"/></g><g id="ks8lhhtw3nu" transform="translate(38 22) rotate(270 2 0)"><path d="M 4 0 L 1e-13 1e-13" fill="none" stroke="#ff0000"/></g><g id="ks8lhhtw3nv" transform="translate(41 21) rotate(270 0 1)"><path d="M 0 2 L 1e-13 1e-13" fill="none" stroke="#ff0000"/></g><g id="ks8lhhtw3nw" transform="translate(1 21) rotate(90 0 1)"><path d="M 0 2 L 1e-13 1e-13" fill="none" stroke="#ff0000"/></g></g></g></svg>