<?xml version="1.0" encoding="UTF-8"?>
<svg xmlns="http://www.w3.org/2000/svg" viewBox="0 0 64 64"><g id="ks8l8a1q28p" class="Group.cls" transform="translate(8.5 7.5)"><g class="Prim.cls"><g id="ks8l8a1r28q" transform="translate(13 2)"><ellipse fill="white" cx="11" cy="9.25" rx="11" ry="9.25" stroke="#000000" stroke-width="0.5"/></g><g id="ks8l8a1r28r" transform="translate(2 11)"><rect fill="white" height="28" stroke="#000000" stroke-width="0.5" width="44" x="0" y="0"/></g><g id="ks8l8a1r28s" transform="translate(47 24) rotate(270 0 1)"><path d="M 0 2 L 1e-13 1e-13" fill="none" stroke="#ff0000"/></g><g id="ks8l8a1r28t" transform="translate(44 25) rotate(270 2 0)"><path d="M 4 0 L 1e-13 1e-13" fill="none" stroke="#ff0000"/></g><g id="ks8l8a1r28u" transform="translate(1 24) rotate(90 0 1)"><path d="M 0 2 L 1e-13 1e-13" fill="none" stroke="#ff0000"/></g><g id="ks8l8a1r28v" transform="translate(0 25) rotate(90 2 0)"><path d="M 4 0 L 1e-13 1e-13" fill="none" stroke="#ff0000"/></g><g id="ks8l8a1r28w" transform="translate(22 39)"><path d="M 4 0 L 1e-13 1e-13" fill="none" stroke="#ff0000"/></g><g id="ks8l8a1r28x" transform="translate(24 39)"><path d="M 0 2 L 1e-13 1e-13" fill="none" stroke="#ff0000"/></g><g id="ks8l8a1r28y" transform="translate(22 2) rotate(180 2 0)"><path d="M 4 0 L 1e-13 1e-13" fill="none" stroke="#ff0000"/></g><g id="ks8l8a1r28z" transform="translate(24 0) rotate(180 0 1)"><path d="M 0 2 L 1e-13 1e-13" fill="none" stroke="#ff0000"/></g></g></g></svg>