<?xml version="1.0" encoding="UTF-8"?>
<svg xmlns="http://www.w3.org/2000/svg" viewBox="0 0 64 64"><g id="ks8lfiui3ah" class="Group.cls" transform="translate(11.5 3.5)"><g class="Prim.cls"><g id="ks8lfiuj3ai" transform="translate(2 2)"><path fill="none" d="M 0 0 L 38 0 L 38 34.375 L 19 55 L 0 34.375 Z" stroke-linecap="butt" stroke="#000000" stroke-width="0.5"/></g><g id="ks8lfiuj3aj" transform="translate(21 11.167)"><path d="M 0 32.08333333333325 L 9.500000000000002e-14 0" fill="none" stroke="#000000" stroke-width="0.5"/></g><g id="ks8lfiuj3ak" transform="translate(0 29) rotate(90 2 0)"><path d="M 4 0 L 1e-13 1e-13" fill="none" stroke="#ff0000"/></g><g id="ks8lfiuj3al" transform="translate(1 28) rotate(90 0 1)"><path d="M 0 2 L 1e-13 1e-13" fill="none" stroke="#ff0000"/></g><g id="ks8lfiuj3am" transform="translate(38 29) rotate(270 2 0)"><path d="M 4 0 L 1e-13 1e-13" fill="none" stroke="#ff0000"/></g><g id="ks8lfiuj3an" transform="translate(41 28) rotate(270 0 1)"><path d="M 0 2 L 1e-13 1e-13" fill="none" stroke="#ff0000"/></g><g id="ks8lfiuj3ao" transform="translate(19 57)"><path d="M 4 0 L 1e-13 1e-13" fill="none" stroke="#ff0000"/></g><g id="ks8lfiuj3ap" transform="translate(21 57)"><path d="M 0 2 L 1e-13 1e-13" fill="none" stroke="#ff0000"/></g><g id="ks8lfiuj3aq" transform="translate(19 2) rotate(180 2 0)"><path d="M 4 0 L 1e-13 1e-13" fill="none" stroke="#ff0000"/></g><g id="ks8lfiuj3ar" transform="translate(21 0) rotate(180 0 1)"><path d="M 0 2 L 1e-13 1e-13" fill="none" stroke="#ff0000"/></g></g></g></svg>