<?xml version="1.0" encoding="UTF-8"?>
<svg xmlns="http://www.w3.org/2000/svg" viewBox="0 0 64 64"><g id="ks8l7t2n1by" class="Group.cls" transform="translate(20.5 13.5)"><g class="Prim.cls"><g id="ks8l7t2o1bz" transform="translate(2 9.034)"><rect fill="white" height="26.965599060058594" stroke="#000000" stroke-width="0.3801" width="19.999960874899838" x="0" y="0"/></g><g id="ks8l7t2o1c0" transform="translate(5.333 2)"><path fill="none" d="M 0 0 L 6.666688699751031 7.1127 L 13.333272823993047 0 Z" stroke="#000000" stroke-width="0.3801"/></g><g id="ks8l7t2o1c1" transform="translate(12 2.391)"><path d="M 1e-13 1e-13 L 0 6.7219" fill="none" stroke="#000000" stroke-width="0.3801"/></g><g id="ks8l7t2o1c2" transform="translate(0 19) rotate(90 2 0)"><path d="M 4 0 L 1e-13 1e-13" fill="none" stroke="#ff0000"/></g><g id="ks8l7t2o1c3" transform="translate(1 18) rotate(90 0 1)"><path d="M 0 2 L 1e-13 1e-13" fill="none" stroke="#ff0000"/></g><g id="ks8l7t2o1c4" transform="translate(20 19) rotate(270 2 0)"><path d="M 4 0 L 1e-13 1e-13" fill="none" stroke="#ff0000"/></g><g id="ks8l7t2o1c5" transform="translate(23 18) rotate(270 0 1)"><path d="M 0 2 L 1e-13 1e-13" fill="none" stroke="#ff0000"/></g><g id="ks8l7t2o1c6" transform="translate(10 36)"><path d="M 4 0 L 1e-13 1e-13" fill="none" stroke="#ff0000"/></g><g id="ks8l7t2o1c7" transform="translate(12 36)"><path d="M 0 2 L 1e-13 1e-13" fill="none" stroke="#ff0000"/></g><g id="ks8l7t2o1c8" transform="translate(10 2) rotate(180 2 0)"><path d="M 4 0 L 1e-13 1e-13" fill="none" stroke="#ff0000"/></g><g id="ks8l7t2o1c9" transform="translate(12 0) rotate(180 0 1)"><path d="M 0 2 L 1e-13 1e-13" fill="none" stroke="#ff0000"/></g></g></g></svg>