<?xml version="1.0" encoding="UTF-8"?>
<svg xmlns="http://www.w3.org/2000/svg" viewBox="0 0 64 64"><g id="ks8l7og711r" class="Group.cls" transform="translate(19.5 8.5)"><g class="Prim.cls"><g id="ks8l7og711s" transform="translate(2 2)"><rect fill="white" height="44" stroke="#000000" stroke-width="0.3675" width="22" x="0" y="0"/></g><g id="ks8l7og711t" transform="translate(2 6.9)"><path d="M 1e-13 1e-13 L 22 0" fill="none" stroke="#000000" stroke-width="0.3675"/></g><g id="ks8l7og711u" transform="translate(2 41.1)"><path d="M 1e-13 1e-13 L 22 0" fill="none" stroke="#000000" stroke-width="0.3675"/></g><g id="ks8l7og711v" transform="translate(11.9 22.9)"><ellipse fill="white" cx="1.1" cy="1.1" rx="1.1" ry="1.1" stroke="#000000" stroke-width="0.3675"/></g><g id="ks8l7og711w" transform="translate(0 24) rotate(90 2 0)"><path d="M 4 0 L 1e-13 1e-13" fill="none" stroke="#ff0000"/></g><g id="ks8l7og711x" transform="translate(1 23) rotate(90 0 1)"><path d="M 0 2 L 1e-13 1e-13" fill="none" stroke="#ff0000"/></g><g id="ks8l7og711y" transform="translate(22 24) rotate(270 2 0)"><path d="M 4 0 L 1e-13 1e-13" fill="none" stroke="#ff0000"/></g><g id="ks8l7og711z" transform="translate(25 23) rotate(270 0 1)"><path d="M 0 2 L 1e-13 1e-13" fill="none" stroke="#ff0000"/></g><g id="ks8l7og7120" transform="translate(11 46)"><path d="M 4 0 L 1e-13 1e-13" fill="none" stroke="#ff0000"/></g><g id="ks8l7og7121" transform="translate(13 46)"><path d="M 0 2 L 1e-13 1e-13" fill="none" stroke="#ff0000"/></g><g id="ks8l7og8122" transform="translate(11 2) rotate(180 2 0)"><path d="M 4 0 L 1e-13 1e-13" fill="none" stroke="#ff0000"/></g><g id="ks8l7og8123" transform="translate(13 0) rotate(180 0 1)"><path d="M 0 2 L 1e-13 1e-13" fill="none" stroke="#ff0000"/></g></g></g></svg>