<?xml version="1.0" encoding="UTF-8"?>
<svg xmlns="http://www.w3.org/2000/svg" viewBox="0 0 64 64"><g id="ks8l85ev203" class="Group.cls" transform="translate(8.5 20.5)"><g class="Prim.cls"><g id="ks8l85ev204" transform="translate(9 2)"><rect fill="white" height="20" stroke="#000000" stroke-width="0.5" width="37" x="0" y="0"/></g><g id="ks8l85ev205" transform="translate(2 2)"><rect fill="white" height="20" stroke="#000000" stroke-width="0.5" width="7" x="0" y="0"/></g><g id="ks8l85ev206" transform="translate(9 7)"><rect fill="none" height="10" stroke="#000000" stroke-width="0.5" width="33" x="0" y="0"/></g><g id="ks8l85ev207" transform="translate(2 12)"><path fill="none" d="M 1e-13 1e-13 L 6.8333333333333295 0" stroke="#000000" stroke-width="0.5"/></g><g id="ks8l85ev208" transform="translate(47 11) rotate(270 0 1)"><path d="M 0 2 L 1e-13 1e-13" fill="none" stroke="#ff0000"/></g><g id="ks8l85ev209" transform="translate(44 12) rotate(270 2 0)"><path d="M 4 0 L 1e-13 1e-13" fill="none" stroke="#ff0000"/></g><g id="ks8l85ev20a" transform="translate(1 11) rotate(90 0 1)"><path d="M 0 2 L 1e-13 1e-13" fill="none" stroke="#ff0000"/></g><g id="ks8l85ev20b" transform="translate(0 12) rotate(90 2 0)"><path d="M 4 0 L 1e-13 1e-13" fill="none" stroke="#ff0000"/></g><g id="ks8l85ev20c" transform="translate(22 22)"><path d="M 4 0 L 1e-13 1e-13" fill="none" stroke="#ff0000"/></g><g id="ks8l85ev20d" transform="translate(24 22)"><path d="M 0 2 L 1e-13 1e-13" fill="none" stroke="#ff0000"/></g><g id="ks8l85ev20e" transform="translate(22 2) rotate(180 2 0)"><path d="M 4 0 L 1e-13 1e-13" fill="none" stroke="#ff0000"/></g><g id="ks8l85ev20f" transform="translate(24 0) rotate(180 0 1)"><path d="M 0 2 L 1e-13 1e-13" fill="none" stroke="#ff0000"/></g></g></g></svg>