<?xml version="1.0" encoding="UTF-8"?>
<svg xmlns="http://www.w3.org/2000/svg" viewBox="0 0 64 64"><g id="ks8l7h6cn3" class="Group.cls" transform="translate(7.5 13.5)"><g class="Prim.cls"><g id="ks8l7h6dn4" transform="translate(0 2)"><path fill="none" d="M 1e-13 1e-13 L 3 0" stroke="#000000" stroke-width="0.5"/></g><g id="ks8l7h6dn5" transform="translate(2.927 2)"><path fill="none" d="M 44.0732 0 L 44.0732 34 L 0 34 L 9.573652882481422e-14 0" stroke="#000000" stroke-width="0.5"/></g><g id="ks8l7h6dn6" transform="translate(47 2)"><path fill="none" d="M 3 0 L 0 1.000310945187266e-13" stroke="#000000" stroke-width="0.5"/></g><g id="ks8l7h6dn7" transform="translate(1 19) rotate(90 2 0)"><path d="M 4 0 L 1e-13 1e-13" fill="none" stroke="#ff0000"/></g><g id="ks8l7h6dn8" transform="translate(2 18) rotate(90 0 1)"><path d="M 0 2 L 1e-13 1e-13" fill="none" stroke="#ff0000"/></g><g id="ks8l7h6dn9" transform="translate(45 19) rotate(270 2 0)"><path d="M 4 0 L 1e-13 1e-13" fill="none" stroke="#ff0000"/></g><g id="ks8l7h6dna" transform="translate(48 18) rotate(270 0 1)"><path d="M 0 2 L 1e-13 1e-13" fill="none" stroke="#ff0000"/></g><g id="ks8l7h6dnb" transform="translate(23 36)"><path d="M 4 0 L 1e-13 1e-13" fill="none" stroke="#ff0000"/></g><g id="ks8l7h6dnc" transform="translate(25 36)"><path d="M 0 2 L 1e-13 1e-13" fill="none" stroke="#ff0000"/></g><g id="ks8l7h6end" transform="translate(23 2) rotate(180 2 0)"><path d="M 4 0 L 1e-13 1e-13" fill="none" stroke="#ff0000"/></g><g id="ks8l7h6ene" transform="translate(25 0) rotate(180 0 1)"><path d="M 0 2 L 1e-13 1e-13" fill="none" stroke="#ff0000"/></g></g></g></svg>