<?xml version="1.0" encoding="UTF-8"?>
<svg xmlns="http://www.w3.org/2000/svg" viewBox="0 0 64 64"><g id="ks8lhk0j3rq" class="Group.cls" transform="translate(11.5 11.5)"><g class="Prim.cls"><g id="ks8lhk0k3rr" transform="translate(2 2)"><path d="M 0 19 L 19 0 L 38 19 L 19 38 Z" fill="#ffffff" fill-opacity="1" stroke="#000000" stroke-width="0.5"/></g><g id="ks8lhk0k3rs" transform="translate(7.063 16)"><path d="M 1e-13 1e-13 L 27.9375 0" fill="#ffffff" fill-opacity="1" stroke="#000000" stroke-width="0.5"/></g><g id="ks8lhk0k3rt" transform="translate(7 26)"><path d="M 1e-13 1e-13 L 28 0" fill="#ffffff" fill-opacity="1" stroke="#000000" stroke-width="0.5"/></g><g id="ks8lhk0k3ru" transform="translate(0 21) rotate(90 2 0)"><path d="M 4 0 L 1e-13 1e-13" fill="none" stroke="#ff0000"/></g><g id="ks8lhk0k3rv" transform="translate(1 20) rotate(90 0 1)"><path d="M 0 2 L 1e-13 1e-13" fill="none" stroke="#ff0000"/></g><g id="ks8lhk0k3rw" transform="translate(38 21) rotate(270 2 0)"><path d="M 4 0 L 1e-13 1e-13" fill="none" stroke="#ff0000"/></g><g id="ks8lhk0k3rx" transform="translate(41 20) rotate(270 0 1)"><path d="M 0 2 L 1e-13 1e-13" fill="none" stroke="#ff0000"/></g><g id="ks8lhk0k3ry" transform="translate(19 40)"><path d="M 4 0 L 1e-13 1e-13" fill="none" stroke="#ff0000"/></g><g id="ks8lhk0k3rz" transform="translate(21 40)"><path d="M 0 2 L 1e-13 1e-13" fill="none" stroke="#ff0000"/></g><g id="ks8lhk0k3s0" transform="translate(19 2) rotate(180 2 0)"><path d="M 4 0 L 1e-13 1e-13" fill="none" stroke="#ff0000"/></g><g id="ks8lhk0k3s1" transform="translate(21 0) rotate(180 0 1)"><path d="M 0 2 L 1e-13 1e-13" fill="none" stroke="#ff0000"/></g></g></g></svg>