<?xml version="1.0" encoding="UTF-8"?>
<svg xmlns="http://www.w3.org/2000/svg" viewBox="0 0 64 64"><g id="ks8l7imgq8" class="Group.cls" transform="translate(21.5 8.5)"><g class="Prim.cls"><g id="ks8l7imgq9" transform="translate(2 1.957)"><rect fill="white" height="42.085106142105595" stroke-dasharray="none" stroke="#000000" stroke-width="0.5" width="20" x="0" y="0"/></g><g id="ks8l7imhqa" transform="translate(2 8)"><path d="M 1e-13 1e-13 L 20 0" fill="none" stroke-dasharray="none" stroke="#000000" stroke-width="0.5"/></g><g id="ks8l7imhqb" transform="translate(2 37)"><path d="M 1e-13 1e-13 L 20 0" fill="none" stroke-dasharray="none" stroke="#000000" stroke-width="0.5"/></g><g id="ks8l7imhqc" transform="translate(0.043 23) rotate(90 1.957 0)"><path d="M 3.9148936170211703 0 L 0 9.999999999999959e-14" fill="none" stroke="#ff0000"/></g><g id="ks8l7imhqd" transform="translate(1 22) rotate(90 0 1)"><path d="M 0 1.9999999999998919 L 9.787234042553172e-14 0" fill="none" stroke="#ff0000"/></g><g id="ks8l7imhqe" transform="translate(20.043 23) rotate(270 1.957 0)"><path d="M 3.9148936170211703 0 L 0 9.999999999999959e-14" fill="none" stroke="#ff0000"/></g><g id="ks8l7imhqf" transform="translate(23 22) rotate(270 0 1)"><path d="M 0 1.9999999999998919 L 9.787234042553172e-14 0" fill="none" stroke="#ff0000"/></g><g id="ks8l7imhqg" transform="translate(10 44.043)"><path d="M 3.9999999999998836 0 L 0 9.787234042553172e-14" fill="none" stroke="#ff0000"/></g><g id="ks8l7imhqh" transform="translate(12 44.043)"><path d="M 0 1.9574468085105365 L 9.999999999999959e-14 0" fill="none" stroke="#ff0000"/></g><g id="ks8l7imhqi" transform="translate(10 1.957) rotate(180 2 0)"><path d="M 3.9999999999998836 0 L 0 9.787234042553172e-14" fill="none" stroke="#ff0000"/></g><g id="ks8l7imhqj" transform="translate(12 0) rotate(180 0 0.979)"><path d="M 0 1.9574468085105365 L 9.999999999999959e-14 0" fill="none" stroke="#ff0000"/></g></g></g></svg>