<?xml version="1.0" encoding="UTF-8"?>
<svg xmlns="http://www.w3.org/2000/svg" viewBox="0 0 64 64"><g id="ks8lhuo94gx" class="Group.cls" transform="translate(5.5 18.5)"><g class="Prim.cls"><g id="ks8lhuoa4gy" transform="translate(12 5)"><rect fill="none" height="5" stroke="none" stroke-width="0.5" width="10" x="0" y="0"/></g><g id="ks8lhuoa4gz" transform="translate(2 10)"><path d="M 5 10 L 40 10 L 50 0 L 40 0 L 1e-13 1e-13 L 0 5 L 5 5 L 5 10" fill="#ffffff" fill-opacity="1" stroke="#000000" stroke-width="0.5"/></g><g id="ks8lhuoa4h0" transform="translate(22 0)"><path d="M 0 10 L 1e-13 1e-13 L 1e-13 1e-13" fill="#ffffff" fill-opacity="1" stroke="#000000" stroke-width="0.5"/></g><g id="ks8lhuoa4h1" transform="translate(12 5)"><path d="M 10 0 L 1e-13 1e-13 L 0 5" fill="#ffffff" fill-opacity="1" stroke="#000000" stroke-width="0.5"/></g><g id="ks8lhuoa4h2" transform="translate(0 15) rotate(90 2 0)"><path d="M 4 0 L 1e-13 1e-13" fill="none" stroke="#ff0000"/></g><g id="ks8lhuoa4h3" transform="translate(1 14) rotate(90 0 1)"><path d="M 0 2 L 1e-13 1e-13" fill="none" stroke="#ff0000"/></g><g id="ks8lhuoa4h4" transform="translate(50 15) rotate(270 2 0)"><path d="M 4 0 L 1e-13 1e-13" fill="none" stroke="#ff0000"/></g><g id="ks8lhuoa4h5" transform="translate(53 14) rotate(270 0 1)"><path d="M 0 2 L 1e-13 1e-13" fill="none" stroke="#ff0000"/></g><g id="ks8lhuoa4h6" transform="translate(25 20)"><path d="M 4 0 L 1e-13 1e-13" fill="none" stroke="#ff0000"/></g><g id="ks8lhuoa4h7" transform="translate(27 20)"><path d="M 0 2 L 1e-13 1e-13" fill="none" stroke="#ff0000"/></g><g id="ks8lhuoa4h8" transform="translate(25 10) rotate(180 2 0)"><path d="M 4 0 L 1e-13 1e-13" fill="none" stroke="#ff0000"/></g><g id="ks8lhuoa4h9" transform="translate(27 8) rotate(180 0 1)"><path d="M 0 2 L 1e-13 1e-13" fill="none" stroke="#ff0000"/></g></g></g></svg>