<?xml version="1.0" encoding="UTF-8"?>
<svg xmlns="http://www.w3.org/2000/svg" viewBox="0 0 64 64"><g id="ks8lhu0e4fc" class="Group.cls" transform="translate(5.5 15.5)"><g class="Prim.cls"><g id="ks8lhu0f4fd" transform="translate(2 2)"><rect fill="none" height="10" stroke="#000000" stroke-width="0.5" width="50" x="0" y="0"/></g><g id="ks8lhu0f4fe" transform="translate(17 12)"><ellipse fill="white" cx="10" cy="10" rx="10" ry="10" stroke="#000000" stroke-width="0.5"/></g><g id="ks8lhu0f4ff" transform="translate(18.75 22)"><path d="M 8.25 0 L 0 5.5" fill="none" stroke="#000000" stroke-width="0.5"/></g><g id="ks8lhu0f4fg" transform="translate(50 7) rotate(270 2 0)"><path d="M 4 0 L 1e-13 1e-13" fill="none" stroke="#ff0000"/></g><g id="ks8lhu0f4fh" transform="translate(53 6) rotate(270 0 1)"><path d="M 0 2 L 1e-13 1e-13" fill="none" stroke="#ff0000"/></g><g id="ks8lhu0f4fi" transform="translate(0 7) rotate(90 2 0)"><path d="M 4 0 L 1e-13 1e-13" fill="none" stroke="#ff0000"/></g><g id="ks8lhu0f4fj" transform="translate(1 6) rotate(90 0 1)"><path d="M 0 2 L 1e-13 1e-13" fill="none" stroke="#ff0000"/></g><g id="ks8lhu0f4fk" transform="translate(25 32)"><path d="M 4 0 L 1e-13 1e-13" fill="none" stroke="#ff0000"/></g><g id="ks8lhu0f4fl" transform="translate(27 32)"><path d="M 0 2 L 1e-13 1e-13" fill="none" stroke="#ff0000"/></g><g id="ks8lhu0f4fm" transform="translate(25 2) rotate(180 2 0)"><path d="M 4 0 L 1e-13 1e-13" fill="none" stroke="#ff0000"/></g><g id="ks8lhu0f4fn" transform="translate(27 0) rotate(180 0 1)"><path d="M 0 2 L 1e-13 1e-13" fill="none" stroke="#ff0000"/></g></g></g></svg>