<?xml version="1.0" encoding="UTF-8"?>
<svg xmlns="http://www.w3.org/2000/svg" viewBox="0 0 64 64"><g id="ks8lhop543p" class="Group.cls" transform="translate(11.5 3.5)"><g class="Prim.cls"><g id="ks8lhop543q" transform="translate(2 2)"><path fill="none" d="M 0 11 L 7.6 0 L 30.4 0 L 38 11 L 38 55 L 0 55 Z" stroke-linecap="butt" stroke="#000000" stroke-width="0.5"/></g><g id="ks8lhop543r" transform="translate(21 2)"><path d="M 1e-13 1e-13 L 0 9.1667" fill="none" stroke="#000000" stroke-width="0.5"/></g><g id="ks8lhop543s" transform="translate(11.5 2)"><path d="M 19 9.1667 L 9.5 0 L 0 9.1667" fill="none" stroke="#000000" stroke-width="0.5"/></g><g id="ks8lhop543t" transform="translate(0 29) rotate(90 2 0)"><path d="M 4 0 L 1e-13 1e-13" fill="none" stroke="#ff0000"/></g><g id="ks8lhop543u" transform="translate(1 28) rotate(90 0 1)"><path d="M 0 2 L 1e-13 1e-13" fill="none" stroke="#ff0000"/></g><g id="ks8lhop543v" transform="translate(38 29) rotate(270 2 0)"><path d="M 4 0 L 1e-13 1e-13" fill="none" stroke="#ff0000"/></g><g id="ks8lhop543w" transform="translate(41 28) rotate(270 0 1)"><path d="M 0 2 L 1e-13 1e-13" fill="none" stroke="#ff0000"/></g><g id="ks8lhop543x" transform="translate(19 57)"><path d="M 4 0 L 1e-13 1e-13" fill="none" stroke="#ff0000"/></g><g id="ks8lhop543y" transform="translate(21 57)"><path d="M 0 2 L 1e-13 1e-13" fill="none" stroke="#ff0000"/></g><g id="ks8lhop543z" transform="translate(19 2) rotate(180 2 0)"><path d="M 4 0 L 1e-13 1e-13" fill="none" stroke="#ff0000"/></g><g id="ks8lhop5440" transform="translate(21 0) rotate(180 0 1)"><path d="M 0 2 L 1e-13 1e-13" fill="none" stroke="#ff0000"/></g></g></g></svg>