<?xml version="1.0" encoding="UTF-8"?>
<svg xmlns="http://www.w3.org/2000/svg" viewBox="0 0 64 64"><g id="ks8li97c5bw" class="Group.cls" transform="translate(6.5 20.5)"><g class="Prim.cls"><g id="ks8li97c5bx" transform="translate(6 2)"><rect fill="white" height="20" stroke="#000000" stroke-width="0.5" width="40" x="0" y="0"/></g><g id="ks8li97c5by" transform="translate(1 12)"><path d="M 1e-13 1e-13 L 10 0" fill="none" stroke="#000000" stroke-width="0.5"/></g><g id="ks8li97c5bz" transform="translate(11 7)"><path d="M 1e-13 1e-13 L 0 10" fill="none" stroke="#000000" stroke-width="0.5"/></g><g id="ks8li97c5c0" transform="translate(41 7)"><path d="M 1e-13 1e-13 L 0 10" fill="none" stroke="#000000" stroke-width="0.5"/></g><g id="ks8li97c5c1" transform="translate(41 12)"><path d="M 1e-13 1e-13 L 10 0" fill="none" stroke="#000000" stroke-width="0.5"/></g><g id="ks8li97c5c2" transform="translate(18.5 12)"><path d="M 1e-13 1e-13 L 5 0" fill="none" stroke="#000000" stroke-width="0.5"/></g><g id="ks8li97c5c3" transform="translate(21 9.5)"><path d="M 1e-13 1e-13 L 0 5" fill="none" stroke="#000000" stroke-width="0.5"/></g><g id="ks8li97c5c4" transform="translate(31 12)"><path d="M 1e-13 1e-13 L 5 0" fill="none" stroke="#000000" stroke-width="0.5"/></g><g id="ks8li97c5c5" transform="translate(48 12) rotate(270 2 0)"><path d="M 4 0 L 1e-13 1e-13" fill="none" stroke="#ff0000"/></g><g id="ks8li97c5c6" transform="translate(51 11) rotate(270 0 1)"><path d="M 0 2 L 1e-13 1e-13" fill="none" stroke="#ff0000"/></g><g id="ks8li97c5c7" transform="translate(0 12) rotate(90 2 0)"><path d="M 4 0 L 1e-13 1e-13" fill="none" stroke="#ff0000"/></g><g id="ks8li97c5c8" transform="translate(1 11) rotate(90 0 1)"><path d="M 0 2 L 1e-13 1e-13" fill="none" stroke="#ff0000"/></g><g id="ks8li97c5c9" transform="translate(24 22)"><path d="M 4 0 L 1e-13 1e-13" fill="none" stroke="#ff0000"/></g><g id="ks8li97c5ca" transform="translate(26 22)"><path d="M 0 2 L 1e-13 1e-13" fill="none" stroke="#ff0000"/></g><g id="ks8li97c5cb" transform="translate(24 2) rotate(180 2 0)"><path d="M 4 0 L 1e-13 1e-13" fill="none" stroke="#ff0000"/></g><g id="ks8li97c5cc" transform="translate(26 0) rotate(180 0 1)"><path d="M 0 2 L 1e-13 1e-13" fill="none" stroke="#ff0000"/></g></g></g></svg>