<?xml version="1.0" encoding="UTF-8"?>
<svg xmlns="http://www.w3.org/2000/svg" viewBox="0 0 64 64"><g id="ks8l8g7v2fk" class="Group.cls" transform="translate(6.5 1.5)"><g class="Prim.cls"><g id="ks8l8g7w2fl" transform="translate(2 40)"><rect fill="white" height="18.99996792953626" stroke="#000000" stroke-width="0.5" width="47.999969482421875" x="0" y="0"/></g><g id="ks8l8g7w2fm" transform="translate(6.8 2)"><path fill="none" d="M 0 38.00003275862069 L 19.19996689655172 0 L 38.40003310344828 38.00003275862069 Z" stroke="#000000" stroke-width="0.5"/></g><g id="ks8l8g7w2fn" transform="translate(16.4 21)"><path d="M 0 18.999967241379313 C 4.799966896551724 18.999967241379313 9.600033103448274 4.749967241379311 9.600033103448274 0" fill="none" stroke="#000000" stroke-width="0.5"/></g><g id="ks8l8g7w2fo" transform="translate(26 21)"><path d="M 9.600033103448178 18.999967241379217 C 4.799966896551625 18.999967241379217 -9.931034482758468e-14 4.7499672413792124 1.5407866797779768e-27 0" fill="none" stroke="#000000" stroke-width="0.5"/></g><g id="ks8l8g7w2fp" transform="translate(51 49) rotate(270 0 1)"><path d="M 0 2 L 1e-13 1e-13" fill="none" stroke="#ff0000"/></g><g id="ks8l8g7w2fq" transform="translate(48 50) rotate(270 2 0)"><path d="M 4 0 L 1e-13 1e-13" fill="none" stroke="#ff0000"/></g><g id="ks8l8g7w2fr" transform="translate(1 49) rotate(90 0 1)"><path d="M 0 2 L 1e-13 1e-13" fill="none" stroke="#ff0000"/></g><g id="ks8l8g7w2fs" transform="translate(0 50) rotate(90 2 0)"><path d="M 4 0 L 1e-13 1e-13" fill="none" stroke="#ff0000"/></g><g id="ks8l8g7w2ft" transform="translate(26 59)"><path d="M 0 2 L 1e-13 1e-13" fill="none" stroke="#ff0000"/></g><g id="ks8l8g7w2fu" transform="translate(24 59)"><path d="M 4 0 L 1e-13 1e-13" fill="none" stroke="#ff0000"/></g><g id="ks8l8g7w2fv" transform="translate(26 0) rotate(180 0 1)"><path d="M 0 2 L 1e-13 1e-13" fill="none" stroke="#ff0000"/></g><g id="ks8l8g7w2fw" transform="translate(24 2) rotate(180 2 0)"><path d="M 4 0 L 1e-13 1e-13" fill="none" stroke="#ff0000"/></g></g></g></svg>