<?xml version="1.0" encoding="UTF-8"?>
<svg xmlns="http://www.w3.org/2000/svg" viewBox="0 0 64 64"><g id="ks8l899n278" class="Group.cls" transform="translate(8.5 18.5)"><g class="Prim.cls"><g id="ks8l899n279" transform="translate(2 20)"><path d="M 1e-13 1e-13 L 0 3.9999999999999987 L 44 3.9999999999999987 L 44 0" fill="none" stroke="#000000" stroke-width="0.5"/></g><g id="ks8l899n27a" transform="translate(2 8)"><path d="M 1e-13 1e-13 L 39.60000000000001 0 L 39.60000000000001 3.9999999999999987 L 0 3.9999999999999987 L 0 7.999999999999997 L 44 7.999999999999997" fill="none" stroke="#000000" stroke-width="0.5"/></g><g id="ks8l899n27b" transform="translate(2 0)"><path d="M 1e-13 1e-13 L 44 0" fill="none" stroke="#000000" stroke-width="0.5"/></g><g id="ks8l899n27c" transform="translate(6.4 0)"><path d="M 0 3.9999999999999987 L 4.400000000000001 0" fill="none" stroke="#000000" stroke-width="0.5"/></g><g id="ks8l899n27d" transform="translate(10.8 0)"><path d="M 0 3.999999999999918 L 8.800000000000002e-14 0" fill="none" stroke="#000000" stroke-width="0.5"/></g><g id="ks8l899n27e" transform="translate(10.8 0)"><path d="M 4.399999999997359 3.999999999997379 L 1e-13 1e-13" fill="none" stroke="#000000" stroke-width="0.5"/></g><g id="ks8l899n27f" transform="translate(32.8 0)"><path d="M 0 3.9999999999999987 L 4.400000000000001 0" fill="none" stroke="#000000" stroke-width="0.5"/></g><g id="ks8l899n27g" transform="translate(37.2 0)"><path d="M 0 3.999999999999918 L 8.800000000000002e-14 0" fill="none" stroke="#000000" stroke-width="0.5"/></g><g id="ks8l899n27h" transform="translate(37.2 0)"><path d="M 4.399999999997359 3.999999999997379 L 1e-13 1e-13" fill="none" stroke="#000000" stroke-width="0.5"/></g><g id="ks8l899n27i" transform="translate(47 15) rotate(270 0 1)"><path d="M 0 2 L 1e-13 1e-13" fill="none" stroke="#ff0000"/></g><g id="ks8l899n27j" transform="translate(44 16) rotate(270 2 0)"><path d="M 4 0 L 1e-13 1e-13" fill="none" stroke="#ff0000"/></g><g id="ks8l899n27k" transform="translate(1 7) rotate(90 0 1)"><path d="M 0 2 L 1e-13 1e-13" fill="none" stroke="#ff0000"/></g><g id="ks8l899n27l" transform="translate(0 8) rotate(90 2 0)"><path d="M 4 0 L 1e-13 1e-13" fill="none" stroke="#ff0000"/></g></g></g></svg>