<?xml version="1.0" encoding="UTF-8"?>
<svg xmlns="http://www.w3.org/2000/svg" viewBox="0 0 64 64"><g id="ks8lfa6p2w4" class="Group.cls" transform="translate(2.5 2.5)"><g class="Prim.cls"><g id="ks8lfa6p2w5" transform="translate(11 2)"><rect fill="white" height="55" stroke-linecap="butt" stroke="#000000" stroke-width="0.5" width="38.0000114440918" x="0" y="0"/></g><g id="ks8lfa6p2w6" transform="translate(6.5 30)"><path d="M 1e-13 1e-13 L 47.5 0" fill="none" stroke-dasharray="1.5 2" stroke-linecap="butt" stroke="#000000" stroke-width="0.5"/></g><g id="ks8lfa6p2w7" transform="translate(6.5 20)"><path d="M 1e-13 1e-13 L 47 0" fill="none" stroke-dasharray="1.5 2" stroke-linecap="butt" stroke="#000000" stroke-width="0.5"/></g><g id="ks8lfa6p2w8" transform="translate(49 20)"><ellipse fill="white" cx="4.5" cy="5" rx="4.5" ry="5" stroke-linecap="butt" stroke="#000000" stroke-width="0.5"/></g><g id="ks8lfa6p2w9" transform="translate(2 20)"><ellipse fill="white" cx="4.5" cy="5" rx="4.5" ry="5" stroke-linecap="butt" stroke="#000000" stroke-width="0.5"/></g><g id="ks8lfa6p2wa" transform="translate(0 25) rotate(90 2 0)"><path d="M 4 0 L 1e-13 1e-13" fill="none" stroke="#ff0000"/></g><g id="ks8lfa6p2wb" transform="translate(1 24) rotate(90 0 1)"><path d="M 0 2 L 1e-13 1e-13" fill="none" stroke="#ff0000"/></g><g id="ks8lfa6p2wc" transform="translate(56 25) rotate(270 2 0)"><path d="M 4 0 L 1e-13 1e-13" fill="none" stroke="#ff0000"/></g><g id="ks8lfa6p2wd" transform="translate(59 24) rotate(270 0 1)"><path d="M 0 2 L 1e-13 1e-13" fill="none" stroke="#ff0000"/></g><g id="ks8lfa6p2we" transform="translate(28 57)"><path d="M 4 0 L 1e-13 1e-13" fill="none" stroke="#ff0000"/></g><g id="ks8lfa6p2wf" transform="translate(30 57)"><path d="M 0 2 L 1e-13 1e-13" fill="none" stroke="#ff0000"/></g><g id="ks8lfa6p2wg" transform="translate(28 2) rotate(180 2 0)"><path d="M 4 0 L 1e-13 1e-13" fill="none" stroke="#ff0000"/></g><g id="ks8lfa6p2wh" transform="translate(30 0) rotate(180 0 1)"><path d="M 0 2 L 1e-13 1e-13" fill="none" stroke="#ff0000"/></g></g></g></svg>