<?xml version="1.0" encoding="UTF-8"?>
<svg xmlns="http://www.w3.org/2000/svg" viewBox="0 0 64 64"><g id="ks8li2m64z7" class="Group.cls" transform="translate(15.5 15.5)"><g class="Prim.cls"><g id="ks8li2m64z8" transform="translate(2 2)"><ellipse fill="white" cx="15" cy="15" rx="15" ry="15" stroke="#000000" stroke-width="0.5"/></g><g id="ks8li2m64z9" transform="translate(8.75 4.563)"><path d="M 1e-13 1e-13 L 16.625 24.875" fill="none" stroke="#000000" stroke-width="0.5"/></g><g id="ks8li2m64za" transform="translate(2 17)"><path d="M 1e-13 1e-13 L 30 0" fill="none" stroke="#000000" stroke-width="0.5"/></g><g id="ks8li2m64zb" transform="translate(8.563 4.75)"><path d="M 0 24.625 L 17.0625 0" fill="none" stroke="#000000" stroke-width="0.5"/></g><g id="ks8li2m64zc" transform="translate(0 17) rotate(90 2 0)"><path d="M 4 0 L 1e-13 1e-13" fill="none" stroke="#ff0000" stroke-width="1"/></g><g id="ks8li2m64zd" transform="translate(1 16) rotate(90 0 1)"><path d="M 0 2 L 1e-13 1e-13" fill="none" stroke="#ff0000" stroke-width="1"/></g><g id="ks8li2m64ze" transform="translate(30 17) rotate(270 2 0)"><path d="M 4 0 L 1e-13 1e-13" fill="none" stroke="#ff0000" stroke-width="1"/></g><g id="ks8li2m64zf" transform="translate(33 16) rotate(270 0 1)"><path d="M 0 2 L 1e-13 1e-13" fill="none" stroke="#ff0000" stroke-width="1"/></g><g id="ks8li2m64zg" transform="translate(15 2) rotate(180 2 0)"><path d="M 4 0 L 1e-13 1e-13" fill="none" stroke="#ff0000" stroke-width="1"/></g><g id="ks8li2m64zh" transform="translate(17 0) rotate(180 0 1)"><path d="M 0 2 L 1e-13 1e-13" fill="none" stroke="#ff0000" stroke-width="1"/></g><g id="ks8li2m64zi" transform="translate(15 32)"><path d="M 4 0 L 1e-13 1e-13" fill="none" stroke="#ff0000" stroke-width="1"/></g><g id="ks8li2m64zj" transform="translate(17 32)"><path d="M 0 2 L 1e-13 1e-13" fill="none" stroke="#ff0000" stroke-width="1"/></g></g></g></svg>