<?xml version="1.0" encoding="UTF-8"?>
<svg xmlns="http://www.w3.org/2000/svg" viewBox="0 0 64 64"><g id="ks8lhmpj3yz" class="Group.cls" transform="translate(11.5 3.5)"><g class="Prim.cls"><g id="ks8lhmpj3z0" transform="translate(2 2)"><path fill="none" d="M 0 11.000000000000002 L 7.600000000000002 0 L 30.40000000000001 0 L 38 11.000000000000002 L 38 55 L 0 55 Z" stroke-linecap="butt" stroke="#000000" stroke-width="0.5"/></g><g id="ks8lhmpj3z1" transform="translate(11.5 28)"><path fill="none" d="M 19 0 L 1e-13 1e-13" stroke="#000000" stroke-width="0.5"/></g><g id="ks8lhmpj3z2" transform="translate(11.5 24)"><path fill="none" d="M 18.9999999999998 0 L 1e-13 1e-13" stroke="#000000" stroke-width="0.5"/></g><g id="ks8lhmpj3z3" transform="translate(11.5 20)"><path fill="none" d="M 18.9999999999999 0 L 0 1e-13" stroke="#000000" stroke-width="0.5"/></g><g id="ks8lhmpj3z4" transform="translate(0 29) rotate(90 2 0)"><path d="M 4 0 L 1e-13 1e-13" fill="none" stroke="#ff0000"/></g><g id="ks8lhmpj3z5" transform="translate(1 28) rotate(90 0 1)"><path d="M 0 2 L 1e-13 1e-13" fill="none" stroke="#ff0000"/></g><g id="ks8lhmpj3z6" transform="translate(38 29) rotate(270 2 0)"><path d="M 4 0 L 1e-13 1e-13" fill="none" stroke="#ff0000"/></g><g id="ks8lhmpj3z7" transform="translate(41 28) rotate(270 0 1)"><path d="M 0 2 L 1e-13 1e-13" fill="none" stroke="#ff0000"/></g><g id="ks8lhmpj3z8" transform="translate(19 57)"><path d="M 4 0 L 1e-13 1e-13" fill="none" stroke="#ff0000"/></g><g id="ks8lhmpj3z9" transform="translate(21 57)"><path d="M 0 2 L 1e-13 1e-13" fill="none" stroke="#ff0000"/></g><g id="ks8lhmpj3za" transform="translate(19 2) rotate(180 2 0)"><path d="M 4 0 L 1e-13 1e-13" fill="none" stroke="#ff0000"/></g><g id="ks8lhmpj3zb" transform="translate(21 0) rotate(180 0 1)"><path d="M 0 2 L 1e-13 1e-13" fill="none" stroke="#ff0000"/></g></g></g></svg>