<?xml version="1.0" encoding="UTF-8"?>
<svg xmlns="http://www.w3.org/2000/svg" viewBox="0 0 64 64"><g id="ks8l92lg2np" class="Group.cls" transform="translate(5.5 15.5)"><g class="Prim.cls"><g id="ks8l92lh2nq" transform="translate(2 2)"><rect fill="white" height="30" stroke-linecap="butt" stroke="#000000" stroke-width="0.5" width="50" x="0" y="0"/></g><g id="ks8l92lh2nr" transform="translate(2 24.5)"><path d="M 1e-13 1e-13 L 50 0" fill="none" stroke-dasharray="2.5 3" stroke-linecap="butt" stroke="#000000" stroke-width="0.5"/></g><g id="ks8l92lh2ns" transform="translate(0 17) rotate(90 2 0)"><path d="M 4 0 L 1e-13 1e-13" fill="none" stroke="#ff0000"/></g><g id="ks8l92lh2nt" transform="translate(1 16) rotate(90 0 1)"><path d="M 0 2 L 1e-13 1e-13" fill="none" stroke="#ff0000"/></g><g id="ks8l92lh2nu" transform="translate(50 17) rotate(270 2 0)"><path d="M 4 0 L 1e-13 1e-13" fill="none" stroke="#ff0000"/></g><g id="ks8l92lh2nv" transform="translate(53 16) rotate(270 0 1)"><path d="M 0 2 L 1e-13 1e-13" fill="none" stroke="#ff0000"/></g><g id="ks8l92lh2nw" transform="translate(25 32)"><path d="M 4 0 L 1e-13 1e-13" fill="none" stroke="#ff0000"/></g><g id="ks8l92lh2nx" transform="translate(27 32)"><path d="M 0 2 L 1e-13 1e-13" fill="none" stroke="#ff0000"/></g><g id="ks8l92lh2ny" transform="translate(25 2) rotate(180 2 0)"><path d="M 4 0 L 1e-13 1e-13" fill="none" stroke="#ff0000"/></g><g id="ks8l92lh2nz" transform="translate(27 0) rotate(180 0 1)"><path d="M 0 2 L 1e-13 1e-13" fill="none" stroke="#ff0000"/></g></g></g></svg>