<?xml version="1.0" encoding="UTF-8"?>
<svg xmlns="http://www.w3.org/2000/svg" viewBox="0 0 64 64"><g id="ks8l7sap1a5" class="Group.cls" transform="translate(8.5 21.5)"><g class="Prim.cls"><g id="ks8l7saq1a6" transform="translate(2 2)"><rect fill="white" height="20" stroke="#000000" stroke-width="0.44" width="43.99999999999999" x="0" y="0"/></g><g id="ks8l7saq1a7" transform="translate(2 2)"><rect fill="none" height="2.5" stroke="#000000" stroke-width="0.44" width="2.7499999999999996" x="0" y="0"/></g><g id="ks8l7saq1a8" transform="translate(43.25 2)"><rect fill="none" height="2.5" stroke="#000000" stroke-width="0.44" width="2.7499999999999996" x="0" y="0"/></g><g id="ks8l7saq1a9" transform="translate(43.25 19.5)"><rect fill="none" height="2.5" stroke="#000000" stroke-width="0.44" width="2.7499999999999996" x="0" y="0"/></g><g id="ks8l7saq1aa" transform="translate(2 19.5)"><rect fill="none" height="2.5" stroke="#000000" stroke-width="0.44" width="2.7499999999999996" x="0" y="0"/></g><g id="ks8l7saq1ab" transform="translate(4.75 4.5)"><path d="M 0 15 L 38.5 0" fill="none" stroke="#000000" stroke-width="0.44"/></g><g id="ks8l7saq1ac" transform="translate(4.75 4.5)"><path d="M 1e-13 1e-13 L 38.5 15" fill="none" stroke="#000000" stroke-width="0.44"/></g><g id="ks8l7saq1ad" transform="translate(0 11) rotate(90 2 0)"><path d="M 4 0 L 1e-13 1e-13" fill="none" stroke="#ff0000"/></g><g id="ks8l7saq1ae" transform="translate(1 10) rotate(90 0 1)"><path d="M 0 2 L 1e-13 1e-13" fill="none" stroke="#ff0000"/></g><g id="ks8l7saq1af" transform="translate(44 11) rotate(270 2 0)"><path d="M 4 0 L 1e-13 1e-13" fill="none" stroke="#ff0000"/></g><g id="ks8l7saq1ag" transform="translate(47 10) rotate(270 0 1)"><path d="M 0 2 L 1e-13 1e-13" fill="none" stroke="#ff0000"/></g><g id="ks8l7saq1ah" transform="translate(22 22)"><path d="M 4 0 L 1e-13 1e-13" fill="none" stroke="#ff0000"/></g><g id="ks8l7saq1ai" transform="translate(24 22)"><path d="M 0 2 L 1e-13 1e-13" fill="none" stroke="#ff0000"/></g><g id="ks8l7saq1aj" transform="translate(22 2) rotate(180 2 0)"><path d="M 4 0 L 1e-13 1e-13" fill="none" stroke="#ff0000"/></g><g id="ks8l7saq1ak" transform="translate(24 0) rotate(180 0 1)"><path d="M 0 2 L 1e-13 1e-13" fill="none" stroke="#ff0000"/></g></g></g></svg>