<?xml version="1.0" encoding="UTF-8"?>
<svg xmlns="http://www.w3.org/2000/svg" viewBox="0 0 64 64"><g id="ks8li9ox5e8" class="Group.cls" transform="translate(5.5 15.5)"><g class="Prim.cls"><g id="ks8li9oy5e9" transform="translate(2 2)"><path d="M 0 30 L 0 15 L 25 0 L 50 15 L 50 30" fill="none" stroke="#000000" stroke-width="0.5"/></g><g id="ks8li9oy5ea" transform="translate(2 22)"><path d="M 1e-13 1e-13 L 50 0" fill="none" stroke="none" stroke-opacity="1" stroke-width="0.5"/></g><g id="ks8li9oy5eb" transform="translate(0 17) rotate(90 2 0)"><path d="M 4 0 L 1e-13 1e-13" fill="none" stroke="#ff0000"/></g><g id="ks8li9oy5ec" transform="translate(1 16) rotate(90 0 1)"><path d="M 0 2 L 1e-13 1e-13" fill="none" stroke="#ff0000"/></g><g id="ks8li9oy5ed" transform="translate(50 17) rotate(270 2 0)"><path d="M 4 0 L 1e-13 1e-13" fill="none" stroke="#ff0000"/></g><g id="ks8li9oy5ee" transform="translate(53 16) rotate(270 0 1)"><path d="M 0 2 L 1e-13 1e-13" fill="none" stroke="#ff0000"/></g><g id="ks8li9oy5ef" transform="translate(25 32)"><path d="M 4 0 L 1e-13 1e-13" fill="none" stroke="#ff0000"/></g><g id="ks8li9oy5eg" transform="translate(27 32)"><path d="M 0 2 L 1e-13 1e-13" fill="none" stroke="#ff0000"/></g><g id="ks8li9oy5eh" transform="translate(25 2) rotate(180 2 0)"><path d="M 4 0 L 1e-13 1e-13" fill="none" stroke="#ff0000"/></g><g id="ks8li9oy5ei" transform="translate(27 0) rotate(180 0 1)"><path d="M 0 2 L 1e-13 1e-13" fill="none" stroke="#ff0000"/></g></g></g></svg>