<?xml version="1.0" encoding="UTF-8"?>
<svg xmlns="http://www.w3.org/2000/svg" viewBox="0 0 64 64"><g id="ks8lhlbs3v5" class="Group.cls" transform="translate(11.5 3.5)"><g class="Prim.cls"><g id="ks8lhlbs3v6" transform="translate(2 2)"><path fill="none" d="M 38 11 L 30.40000000000001 0 L 7.600000000000002 0 L 0 11 L 0 54.99999999999999 L 38 54.99999999999999 Z" stroke-linecap="butt" stroke="#000000" stroke-width="0.5"/></g><g id="ks8lhlbs3v7" transform="translate(2 16)"><path d="M 1e-13 1e-13 L 14.5 0" fill="none" stroke="#000000" stroke-width="0.5"/></g><g id="ks8lhlbs3v8" transform="translate(25.5 16)"><path d="M 14.5 0 L 0 1.000310945187266e-13" fill="none" stroke="#000000" stroke-width="0.5"/></g><g id="ks8lhlbs3v9" transform="translate(11.5 21)"><path d="M 1e-13 1e-13 L 19 0" fill="none" stroke="#000000" stroke-width="0.5"/></g><g id="ks8lhlbs3va" transform="translate(21 2)"><path d="M 0 18.833333333333233 L 9.500000000000004e-14 0" fill="none" stroke="#000000" stroke-width="0.5"/></g><g id="ks8lhlbs3vb" transform="translate(11.5 11)"><path d="M 1e-13 1e-13 L 19 0" fill="none" stroke="#000000" stroke-width="0.5"/></g><g id="ks8lhlbs3vc" transform="translate(0 29) rotate(90 2 0)"><path d="M 4 0 L 1e-13 1e-13" fill="none" stroke="#ff0000"/></g><g id="ks8lhlbs3vd" transform="translate(1 28) rotate(90 0 1)"><path d="M 0 2 L 1e-13 1e-13" fill="none" stroke="#ff0000"/></g><g id="ks8lhlbs3ve" transform="translate(38 29) rotate(270 2 0)"><path d="M 4 0 L 1e-13 1e-13" fill="none" stroke="#ff0000"/></g><g id="ks8lhlbs3vf" transform="translate(41 28) rotate(270 0 1)"><path d="M 0 2 L 1e-13 1e-13" fill="none" stroke="#ff0000"/></g><g id="ks8lhlbs3vg" transform="translate(19 57)"><path d="M 4 0 L 1e-13 1e-13" fill="none" stroke="#ff0000"/></g><g id="ks8lhlbs3vh" transform="translate(21 57)"><path d="M 0 2 L 1e-13 1e-13" fill="none" stroke="#ff0000"/></g><g id="ks8lhlbs3vi" transform="translate(19 2) rotate(180 2 0)"><path d="M 4 0 L 1e-13 1e-13" fill="none" stroke="#ff0000"/></g><g id="ks8lhlbs3vj" transform="translate(21 0) rotate(180 0 1)"><path d="M 0 2 L 1e-13 1e-13" fill="none" stroke="#ff0000"/></g></g></g></svg>