<?xml version="1.0" encoding="UTF-8"?>
<svg xmlns="http://www.w3.org/2000/svg" viewBox="0 0 64 64"><g id="ks8lhs114b3" class="Group.cls" transform="translate(5.5 27.5)"><g class="Prim.cls"><g id="ks8lhs114b4" transform="translate(2 0)"><ellipse fill="white" cx="5" cy="5" rx="5" ry="5" stroke="#000000" stroke-width="0.5"/></g><g id="ks8lhs114b5" transform="translate(42 0)"><ellipse fill="white" cx="5" cy="5" rx="5" ry="5" stroke="#000000" stroke-width="0.5"/></g><g id="ks8lhs114b6" transform="translate(7 0)"><path d="M 1e-13 1e-13 L 40 0" fill="none" stroke="#000000" stroke-width="0.5"/></g><g id="ks8lhs114b7" transform="translate(7 10)"><path d="M 40 0 L 1e-13 1e-13" fill="none" stroke="#000000" stroke-width="0.5"/></g><g id="ks8lhs114b8" transform="translate(50 5) rotate(270 2 0)"><path d="M 4 0 L 1e-13 1e-13" fill="none" stroke="#ff0000"/></g><g id="ks8lhs114b9" transform="translate(53 4) rotate(270 0 1)"><path d="M 0 2 L 1e-13 1e-13" fill="none" stroke="#ff0000"/></g><g id="ks8lhs114ba" transform="translate(0 5) rotate(90 2 0)"><path d="M 4 0 L 1e-13 1e-13" fill="none" stroke="#ff0000"/></g><g id="ks8lhs114bb" transform="translate(1 4) rotate(90 0 1)"><path d="M 0 2 L 1e-13 1e-13" fill="none" stroke="#ff0000"/></g></g></g></svg>