<?xml version="1.0" encoding="UTF-8"?>
<svg xmlns="http://www.w3.org/2000/svg" viewBox="0 0 64 64"><g id="ks8lhpcr45e" class="Group.cls" transform="translate(7.5 14.5)"><g class="Prim.cls"><g id="ks8lhpcr45f" transform="translate(10 2)"><rect fill="white" height="30" stroke-linecap="butt" stroke="#000000" stroke-width="0.5" width="30" x="0" y="0"/></g><g id="ks8lhpcr45g" transform="translate(0 2)"><path fill="none" d="M 0 0 L 10 0 L 10 30 Z" stroke-linecap="butt" stroke="#000000" stroke-width="0.5"/></g><g id="ks8lhpcr45h" transform="translate(40 2)"><path fill="none" d="M 10 0 L 0 0 L 0 30 Z" stroke-linecap="butt" stroke="#000000" stroke-width="0.5"/></g><g id="ks8lhpcr45i" transform="translate(15 7)"><path d="M 20 20 L 1e-13 1e-13" fill="none" stroke-linecap="butt" stroke="#000000" stroke-width="0.5"/></g><g id="ks8lhpcr45j" transform="translate(15 7)"><path d="M 0 20 L 20 0" fill="none" stroke-linecap="butt" stroke="#000000" stroke-width="0.5"/></g><g id="ks8lhpcr45k" transform="translate(3.375 17.375) rotate(90 2 0.625)"><path d="M 4 0 L 0 1.25" fill="none" stroke="#ff0000"/></g><g id="ks8lhpcs45l" transform="translate(3.875 17) rotate(90 0 1)"><path d="M 0 2 L 1e-13 1e-13" fill="none" stroke="#ff0000"/></g><g id="ks8lhpcs45m" transform="translate(42.688 17.313) rotate(270 2 0.687)"><path d="M 3.9999999999999 1.3749999999999 L 1e-13 1e-13" fill="none" stroke="#ff0000"/></g><g id="ks8lhpcs45n" transform="translate(46.25 17) rotate(270 0 1)"><path d="M 0 2 L 1e-13 1e-13" fill="none" stroke="#ff0000"/></g><g id="ks8lhpcs45o" transform="translate(23 32)"><path d="M 4 0 L 1e-13 1e-13" fill="none" stroke="#ff0000"/></g><g id="ks8lhpcs45p" transform="translate(25 32)"><path d="M 0 2 L 1e-13 1e-13" fill="none" stroke="#ff0000"/></g><g id="ks8lhpcs45q" transform="translate(23 2) rotate(180 2 0)"><path d="M 4 0 L 1e-13 1e-13" fill="none" stroke="#ff0000"/></g><g id="ks8lhpcs45r" transform="translate(25 0) rotate(180 0 1)"><path d="M 0 2 L 1e-13 1e-13" fill="none" stroke="#ff0000"/></g></g></g></svg>