<?xml version="1.0" encoding="UTF-8"?>
<svg xmlns="http://www.w3.org/2000/svg" viewBox="0 0 64 64"><g id="ks8l7hvboi" class="Group.cls" transform="translate(6.5 18.5)"><g class="Prim.cls"><g id="ks8l7hvcoj" transform="translate(2 2)"><path fill="none" d="M 1e-13 1e-13 L 0 26 L 48 26 L 48 0" stroke-dasharray="none" stroke="#000000" stroke-width="0.5"/></g><g id="ks8l7hvcok" transform="translate(5 2)"><path d="M 0 2.6 L 9.929078014184397e-14 1.1063829787234042e-13 L 42 0 L 42 2.6" fill="none" stroke-dasharray="none" stroke="#000000" stroke-width="0.5"/></g><g id="ks8l7hvcol" transform="translate(0 14) rotate(90 2 0)"><path d="M 4 0 L 1e-13 1e-13" fill="none" stroke="#ff0000"/></g><g id="ks8l7hvcom" transform="translate(1 13) rotate(90 0 1)"><path d="M 0 2 L 1e-13 1e-13" fill="none" stroke="#ff0000"/></g><g id="ks8l7hvcon" transform="translate(48 14) rotate(270 2 0)"><path d="M 4 0 L 1e-13 1e-13" fill="none" stroke="#ff0000"/></g><g id="ks8l7hvcoo" transform="translate(51 13) rotate(270 0 1)"><path d="M 0 2 L 1e-13 1e-13" fill="none" stroke="#ff0000"/></g><g id="ks8l7hvcop" transform="translate(24 28)"><path d="M 4 0 L 1e-13 1e-13" fill="none" stroke="#ff0000"/></g><g id="ks8l7hvcoq" transform="translate(26 28)"><path d="M 0 2 L 1e-13 1e-13" fill="none" stroke="#ff0000"/></g><g id="ks8l7hvcor" transform="translate(24 2) rotate(180 2 0)"><path d="M 4 0 L 1e-13 1e-13" fill="none" stroke="#ff0000"/></g><g id="ks8l7hvcos" transform="translate(26 0) rotate(180 0 1)"><path d="M 0 2 L 1e-13 1e-13" fill="none" stroke="#ff0000"/></g></g></g></svg>