<?xml version="1.0" encoding="UTF-8"?>
<svg xmlns="http://www.w3.org/2000/svg" viewBox="0 0 64 64"><g id="ks8l7z8g1oq" class="Group.cls" transform="translate(10.5 10.5)"><g class="Prim.cls"><g id="ks8l7z8g1or" transform="translate(2 2)"><ellipse fill="white" cx="20" cy="20" rx="20" ry="20" stroke="#000000" stroke-width="0.5"/></g><g id="ks8l7z8g1os" transform="translate(2 10)"><path d="M 0 12 L 8 12 L 16 0 L 24 24 L 32 12 L 40 12" fill="none" stroke="#000000" stroke-width="0.5"/></g><g id="ks8l7z8g1ot" transform="translate(0 22) rotate(90 2 0)"><path d="M 4 0 L 1e-13 1e-13" fill="none" stroke="#ff0000"/></g><g id="ks8l7z8g1ou" transform="translate(1 21) rotate(90 0 1)"><path d="M 0 2 L 1e-13 1e-13" fill="none" stroke="#ff0000"/></g><g id="ks8l7z8g1ov" transform="translate(40 22) rotate(270 2 0)"><path d="M 4 0 L 1e-13 1e-13" fill="none" stroke="#ff0000"/></g><g id="ks8l7z8g1ow" transform="translate(43 21) rotate(270 0 1)"><path d="M 0 2 L 1e-13 1e-13" fill="none" stroke="#ff0000"/></g><g id="ks8l7z8g1ox" transform="translate(20 42)"><path d="M 4 0 L 1e-13 1e-13" fill="none" stroke="#ff0000"/></g><g id="ks8l7z8g1oy" transform="translate(22 42)"><path d="M 0 2 L 1e-13 1e-13" fill="none" stroke="#ff0000"/></g><g id="ks8l7z8g1oz" transform="translate(20 2) rotate(180 2 0)"><path d="M 4 0 L 1e-13 1e-13" fill="none" stroke="#ff0000"/></g><g id="ks8l7z8g1p0" transform="translate(22 0) rotate(180 0 1)"><path d="M 0 2 L 1e-13 1e-13" fill="none" stroke="#ff0000"/></g></g></g></svg>