<?xml version="1.0" encoding="UTF-8"?>
<svg xmlns="http://www.w3.org/2000/svg" viewBox="0 0 64 64"><g id="ks8pcbix2rx" class="Group.cls" transform="translate(4.5 21.5)"><g class="Prim.cls"><g id="ks8pcbiy2ry" transform="translate(43 7)"><rect fill="white" height="8" stroke-linecap="square" stroke="#000000" stroke-width="0.5" width="11" x="0" y="0"/></g><g id="ks8pcbiy2rz" transform="translate(54 7)"><path fill="white" d="M 0 0 Q 2.2499999999999942 0 2.2499999999999942 1.9999716814159292 L 2.2499999999999942 6.000028318584071 Q 2.2499999999999942 8 0 8 Z" stroke-linecap="square" stroke="#000000" stroke-width="0.5"/></g><g id="ks8pcbiy2s0" transform="translate(41.125 7)"><path fill="white" d="M 1.875 0 Q 0 0 0 2 L 0 6 Q 0 8 1.875 8 Z" stroke-linecap="square" stroke="#000000" stroke-width="0.5"/></g><g id="ks8pcbiy2s1" transform="translate(0 5)"><rect fill="#ffffff" fill-opacity="1" height="12" stroke-linecap="square" stroke="#000000" stroke-width="0.5" width="35" x="0" y="0"/></g><g id="ks8pcbiy2s2" transform="translate(32 2)"><path d="M 0 3 L 1.000310945187266e-13 0" fill="none" stroke-linecap="square" stroke="#000000" stroke-width="0.5"/></g><g id="ks8pcbiy2s3" transform="translate(30.5 2)"><path d="M 3 0 L 0 1e-13" fill="none" stroke-linecap="square" stroke="#000000" stroke-width="0.5"/></g><g id="ks8pcbiy2s4" transform="translate(3 2)"><path d="M 0 2.9999999999998 L 1e-13 1e-13" fill="none" stroke-linecap="square" stroke="#000000" stroke-width="0.5"/></g><g id="ks8pcbiy2s5" transform="translate(1.5 2)"><path d="M 2.9999999999999 0 L 1e-13 1e-13" fill="none" stroke-linecap="square" stroke="#000000" stroke-width="0.5"/></g><g id="ks8pcbiy2s6" transform="translate(35 11)"><path d="M 6 0 L 0 1.000310945187266e-13" fill="none" stroke-linecap="butt" stroke="#000000" stroke-width="0.5"/></g><g id="ks8pcbiy2s7" transform="translate(0 8.5) rotate(180 17.531 2.5)"><path d="M 35.06250000000001 2.499952802582642 L 32.689842139778904 2.499952802582642 L 31.635404955967775 4.749948082840905 L 29.52633150646431 0 L 27.065778995690465 5 L 24.605326025857227 0 L 22.49625257635376 5 L 20.387278667790895 0 L 18.27820521828743 5 L 16.169231309724566 0 L 14.0601578602211 5 L 11.951183951658235 0 L 9.84211050215477 5 L 7.733136593591906 0 L 5.62406314408844 5 L 3.5150892355255765 0 L 2.4605525107738435 2.499952802582642 L 0 2.499952802582642" fill="none" stroke-linecap="square" stroke="#000000" stroke-width="0.5"/></g><g id="ks8pcbiy2s8" transform="translate(30 2) rotate(180 2 0)"><path d="M 9.992007221626409e-14 0 L 4 1e-13" fill="none" stroke="#ff0000"/></g><g id="ks8pcbiy2s9" transform="translate(32 0) rotate(180 0 1)"><path d="M 0 2 L 0 1e-13" fill="none" stroke="#ff0000"/></g><g id="ks8pcbiy2sa" transform="translate(1 2) rotate(180 2 0)"><path d="M 9.992007221626409e-14 0 L 4 1e-13" fill="none" stroke="#ff0000"/></g><g id="ks8pcbiy2sb" transform="translate(3 0) rotate(180 0 1)"><path d="M 0 2 L 0 1e-13" fill="none" stroke="#ff0000"/></g></g></g></svg>