<?xml version="1.0" encoding="UTF-8"?>
<svg xmlns="http://www.w3.org/2000/svg" viewBox="0 0 64 64"><g id="ks8pcd2s2uq" class="Group.cls" transform="translate(3.5 17.5)"><g class="Prim.cls"><g id="ks8pcd2u2ur" transform="translate(15 2)"><path fill="white" d="M 0 5.200000000000003 L 40 0 L 40 26 L 0 20.80000000000001 Z" stroke-linecap="square" stroke="#000000" stroke-width="0.5"/></g><g id="ks8pcd2u2us" transform="translate(22 2)"><path fill="none" d="M 0 4 L 1e-13 1e-13" stroke-linecap="square" stroke="#000000" stroke-width="0.5"/></g><g id="ks8pcd2u2ut" transform="translate(48 27.5)"><path fill="none" d="M 1e-13 1e-13 L 0 7" stroke-linecap="square" stroke="#000000" stroke-width="0.5"/></g><g id="ks8pcd2u2uu" transform="translate(1.5 15)"><path d="M 1e-13 1e-13 L 13.4 0" fill="none" stroke-linecap="butt" stroke="#000000" stroke-width="0.5"/></g><g id="ks8pcd2u2uv" transform="translate(0.5 15) rotate(270 1.5 0)"><path d="M 2.9999999999999 0 L 1e-13 1e-13" fill="none" stroke-linecap="square" stroke="#000000" stroke-width="0.5"/></g><g id="ks8pcd2u2uw" transform="translate(0 15) rotate(90 2 0)"><path d="M 9.992007221626409e-14 0 L 4 1e-13" fill="none" stroke="#ff0000"/></g><g id="ks8pcd2u2ux" transform="translate(1 14) rotate(90 0 1)"><path d="M 0 2 L 0 1e-13" fill="none" stroke="#ff0000"/></g><g id="ks8pcd2u2uy" transform="translate(20.5 2)"><path d="M 3 0 L 1e-13 1e-13" fill="none" stroke-linecap="square" stroke="#000000" stroke-width="0.5"/></g><g id="ks8pcd2u2uz" transform="translate(20 2) rotate(180 2 0)"><path d="M 1e-13 1e-13 L 4 0" fill="none" stroke="#ff0000"/></g><g id="ks8pcd2u2v0" transform="translate(22 0) rotate(180 0 1)"><path d="M 0 2 L 1e-13 1e-13" fill="none" stroke="#ff0000"/></g><g id="ks8pcd2u2v1" transform="translate(46.5 35) rotate(180 1.5 0)"><path d="M 3 0 L 1e-13 1e-13" fill="none" stroke-linecap="square" stroke="#000000" stroke-width="0.5"/></g><g id="ks8pcd2u2v2" transform="translate(46 35)"><path d="M 1e-13 1e-13 L 4 0" fill="none" stroke="#ff0000"/></g><g id="ks8pcd2u2v3" transform="translate(48 35)"><path d="M 0 2 L 1e-13 1e-13" fill="none" stroke="#ff0000"/></g></g></g></svg>