<?xml version="1.0" encoding="UTF-8"?>
<svg xmlns="http://www.w3.org/2000/svg" viewBox="0 0 64 64"><g id="ks8pc5cp2ck" class="Group.cls" transform="translate(11.5 4.5)"><g class="Prim.cls"><g id="ks8pc5cq2cl" transform="translate(13 22)"><path d="M 1e-13 1e-13 L 0 20" fill="none" stroke-linecap="butt" stroke="#000000" stroke-width="0.5"/></g><g id="ks8pc5cq2cm" transform="translate(4.5 5.5) rotate(270 8 5.5)"><rect fill="white" height="10.999900817871094" stroke-linecap="square" stroke="#000000" stroke-width="0.5" width="16" x="0" y="0"/></g><g id="ks8pc5cq2cn" transform="translate(11 15) rotate(270 1.5 5.5)"><path fill="white" d="M 3 0 Q 0 0 0 2.7499510457543592 L 0 8.249950604869431 Q 0 10.999901650623793 3 10.999901650623793 Z" stroke-linecap="square" stroke="#000000" stroke-width="0.5"/></g><g id="ks8pc5cq2co" transform="translate(11 -4) rotate(270 1.5 5.5)"><path fill="white" d="M 0 0 Q 3 0 3 2.7499510457543592 L 3 8.249950604869431 Q 3 10.999901650623793 0 10.999901650623793 Z" stroke-linecap="square" stroke="#000000" stroke-width="0.5"/></g><g id="ks8pc5cq2cp" transform="translate(7.5 36.5) rotate(270 5.5 11)"><path fill="white" d="M 11 19.25002436711944 L 11 2.749975632880548 Q 11 0 8.250024367119453 0 L 2.749975632880548 0 Q 0 0 0 2.749975632880548 L 0 19.25002436711944 Q 0 22 2.749975632880548 22 L 8.250024367119453 22 Q 11 22 11 19.25002436711944 Z" stroke-linecap="square" stroke="#000000" stroke-width="0.5"/></g><g id="ks8pc5cq2cq" transform="translate(4 28)"><rect fill="none" height="3" stroke-linecap="square" stroke="#000000" stroke-width="0.5" width="34" x="0" y="0"/></g><g id="ks8pc5cq2cr" transform="translate(7.071 53)"><path fill="white" d="M 0 2.9999000000000016 L 11.142843037974684 2.9999000000000016 L 8.914313924050631 0 L 2.2285291139240506 0 Z" stroke-linecap="butt" stroke="#000000" stroke-width="0.5"/></g><g id="ks8pc5cq2cs" transform="translate(1.5 31)"><path d="M 1e-13 1e-13 L 38.5 0" fill="none" stroke-linecap="butt" stroke="#000000" stroke-width="0.5"/></g><g id="ks8pc5cq2ct" transform="translate(23.786 31)"><path d="M 0 17 L 9.214278481012656 17 L 9.214278481012656 0" fill="none" stroke-linecap="butt" stroke="#000000" stroke-width="0.5"/></g><g id="ks8pc5cq2cu" transform="translate(33 25)"><path d="M 0 2.9999999999999 L 1.000310945187266e-13 0" fill="none" stroke-linecap="butt" stroke="#000000" stroke-width="0.5"/></g><g id="ks8pc5cq2cv" transform="translate(31 25)"><path d="M 1e-13 1e-13 L 4 0" fill="none" stroke-linecap="butt" stroke="#000000" stroke-width="0.5"/></g><g id="ks8pc5cq2cw" transform="translate(33.267 23.658) rotate(90 0 1.425)"><path d="M 1e-13 1e-13 L 0 2.85" fill="none" stroke-linecap="butt" stroke="#000000" stroke-width="0.5"/></g><g id="ks8pc5cq2cx" transform="translate(30.917 25.083) rotate(180 2.041 0)"><path d="M 1e-13 1e-13 L 4.082 0" fill="none" stroke="#ff0000"/></g><g id="ks8pc5cq2cy" transform="translate(32.958 23.083) rotate(180 0 1)"><path d="M 0 2 L 1e-13 1e-13" fill="none" stroke="#ff0000"/></g><g id="ks8pc5cq2cz" transform="translate(2 46.307)"><path d="M 1e-13 1e-13 L 0 2.85" fill="none" stroke-linecap="butt" stroke="#000000" stroke-width="0.5"/></g><g id="ks8pc5cq2d0" transform="translate(-0.041 48.041) rotate(90 2.041 0)"><path d="M 1e-13 1e-13 L 4.082 0" fill="none" stroke="#ff0000"/></g><g id="ks8pc5cr2d1" transform="translate(1 47.041) rotate(90 0 1)"><path d="M 0 2 L 1e-13 1e-13" fill="none" stroke="#ff0000"/></g></g></g></svg>