<?xml version="1.0" encoding="UTF-8"?>
<svg xmlns="http://www.w3.org/2000/svg" viewBox="0 0 64 64"><g id="ks8pehga314" class="Group.cls" transform="translate(7.5 22)"><g class="Prim.cls"><g id="ks8pehgc315" transform="translate(0 2.5)"><path fill="none" d="M 5 15 L 5 12 M 4.178599999999999 15 L 5.8036 15 M 7 12 L 2.5 12 C 1.115 12 0 9.8268 0 7.5 C 0 5.1732 1.115 3.1359 2.5 3.1359 L 7 3.1359 M 5 0 L 5 3.125 M 4.125 0 L 5.875 0 M 7 1.9 L 7 13.1" stroke-dasharray="none" stroke="#000000" stroke-width="0.5"/></g><g id="ks8pehgc316" transform="translate(9 4.4)"><path fill="none" d="M 0 11.200000000000003 L 0 9.800000000000002 M 1e-13 1e-13 L 0 1.4000000000000004 L 0 10.1 L 31 10.1 L 33.3125 10.1 L 36.375 10.1 L 37.5625 10.1 C 38.909464705882385 10.1 40 7.926800000000008 40 5.600000000000001 C 40 3.273200000000001 38.909464705882385 1.1 37.5625 1.1 L 36.3125 1.1 L 33.3125 1.1 L 1.9375 1.1 L 0 1.1" stroke-dasharray="none" stroke="#000000" stroke-width="0.5"/></g><g id="ks8pehgc317" transform="translate(12 2.5)"><path fill="none" d="M 1e-13 1e-13 L 0.044693877551020396 2.9464285714285716" stroke-dasharray="none" stroke="#000000" stroke-width="0.5"/></g><g id="ks8pehgc318" transform="translate(11.25 2.5)"><path fill="none" d="M 1e-13 1e-13 L 0.7499999999999998 0" stroke-dasharray="none" stroke="#000000" stroke-width="1"/></g><g id="ks8pehgc319" transform="translate(12 2.5)"><path fill="none" d="M 0.7499999999998977 0 L 0 1.1785714285714287e-13" stroke-dasharray="none" stroke="#000000" stroke-width="1"/></g><g id="ks8pehgc31a" transform="translate(42.044 14.676) rotate(180 0 1.412)"><path fill="none" d="M 1e-13 1e-13 L 0 2.8241785714285697" stroke-dasharray="none" stroke="#000000" stroke-width="0.5"/></g><g id="ks8pehgc31b" transform="translate(41.309 17.5) rotate(180 0.367 0)"><path fill="none" d="M 0.7349999999999 0 L 0 1.071428571428571e-13" stroke-dasharray="none" stroke="#000000" stroke-width="1"/></g><g id="ks8pehgc31c" transform="translate(42.044 17.5) rotate(180 0.367 0)"><path fill="none" d="M 1e-13 1e-13 L 0.735 0" stroke-dasharray="none" stroke="#000000" stroke-width="1"/></g><g id="ks8pehgc31d" transform="translate(11.25 2.5)"><path fill="none" d="M 1e-13 1e-13 L 0.75 0" stroke-dasharray="none" stroke="#000000" stroke-width="1"/></g><g id="ks8pehgc31e" transform="translate(12 2.5)"><path fill="none" d="M 0.7499999999998981 0 L 0 1.1785714285714285e-13" stroke-dasharray="none" stroke="#000000" stroke-width="1"/></g><g id="ks8pehgc31f" transform="translate(41.25 17.5) rotate(180 0.375 0)"><path fill="none" d="M 0.75 0 L 1e-13 1e-13" stroke-dasharray="none" stroke="#000000" stroke-width="1"/></g><g id="ks8pehgc31g" transform="translate(42 17.5) rotate(180 0.375 0)"><path fill="none" d="M 1e-13 1e-13 L 0.75 0" stroke-dasharray="none" stroke="#000000" stroke-width="1"/></g><g id="ks8pehgc31h" transform="translate(5 0) rotate(270 0 2.5)"><path d="M 1e-13 1e-13 L 0 5" fill="none" stroke="#ff0000" stroke-dasharray="none" stroke-width="1"/></g><g id="ks8pehgc31i" transform="translate(3.75 1.25) rotate(270 1.25 0)"><path d="M 1e-13 1e-13 L 2.5 0" fill="none" stroke="#ff0000" stroke-dasharray="none" stroke-width="1"/></g><g id="ks8pehgc31j" transform="translate(12 0) rotate(270 0 2.5)"><path d="M 1e-13 1e-13 L 0 5" fill="none" stroke="#ff0000" stroke-dasharray="none" stroke-width="1"/></g><g id="ks8pehgc31k" transform="translate(10.75 1.25) rotate(270 1.25 0)"><path d="M 1e-13 1e-13 L 2.5 0" fill="none" stroke="#ff0000" stroke-dasharray="none" stroke-width="1"/></g><g id="ks8pehgc31l" transform="translate(5 15) rotate(270 0 2.5)"><path d="M 1e-13 1e-13 L 0 5" fill="none" stroke="#ff0000" stroke-dasharray="none" stroke-width="1"/></g><g id="ks8pehgc31m" transform="translate(3.75 18.75) rotate(270 1.25 0)"><path d="M 2.5 0 L 1e-13 1e-13" fill="none" stroke="#ff0000" stroke-dasharray="none" stroke-width="1"/></g><g id="ks8pehgc31n" transform="translate(42 15) rotate(270 0 2.5)"><path d="M 1e-13 1e-13 L 0 5" fill="none" stroke="#ff0000" stroke-dasharray="none" stroke-width="1"/></g><g id="ks8pehgc31o" transform="translate(40.75 18.75) rotate(270 1.25 0)"><path d="M 2.5 0 L 1e-13 1e-13" fill="none" stroke="#ff0000" stroke-dasharray="none" stroke-width="1"/></g></g></g></svg>