<?xml version="1.0" encoding="UTF-8"?>
<svg xmlns="http://www.w3.org/2000/svg" viewBox="0 0 64 64"><g id="krvfwbj8qb" class="Group.cls" transform="translate(7.5 22)"><g class="Prim.cls"><g id="krvfwbj9qc" transform="translate(9 4.4)"><path fill="none" d="M 1e-13 1e-13 L 0 1.4000000000000001 M 31 0 L 31 1.4000000000000001 M 31 11.200000000000001 L 31 9.799999999999994 M 0 10.1 L 29.277777777777775 10.1 L 31 10.1 L 31 1.1 L 1.845238095238095 1.1 L 0 1.1 L 0 9.6625 L 0 11.200000000000001" stroke-dasharray="none" stroke="#000000" stroke-width="0.5"/></g><g id="krvfwbj9qd" transform="translate(0 4.375)"><path fill="none" d="M 2 0 L 2 11.25 M 0 0.025 L 0 11.225000000000001 M 7.0625 0 L 7.0625 1.125 M 7.0625 11.25 L 7.0625 9.8125 M 2 10.125 L 7.0625 10.125 L 7.0625 1.125 L 2 1.125" stroke-dasharray="none" stroke="#000000" stroke-width="0.5"/></g><g id="krvfwbj9qe" transform="translate(42 4.375)"><path fill="none" d="M 5 0 L 5 11.25 M 7 0.025 L 7 11.225000000000001 M 0 0.025 L 0 1.425 M 0 11.25 L 0 9.824999999999994 M 5 10.125 L 0 10.125 L 0 1.125 L 5 1.125" stroke-dasharray="none" stroke="#000000" stroke-width="0.5"/></g><g id="krvfwbj9qf" transform="translate(12.011 2.5)"><path fill="none" d="M 1e-13 1e-13 L 0 3" stroke-dasharray="none" stroke="#000000" stroke-width="0.5"/></g><g id="krvfwbj9qg" transform="translate(11.276 2.5)"><path fill="none" d="M 1e-13 1e-13 L 0.735 0" stroke-dasharray="none" stroke="#000000" stroke-width="0.5"/></g><g id="krvfwbj9qh" transform="translate(12.011 2.5)"><path fill="none" d="M 0.7349999999999 0 L 0 1.0666666666666666e-13" stroke-dasharray="none" stroke="#000000" stroke-width="0.5"/></g><g id="krvfwbj9qi" transform="translate(37 14.5) rotate(180 0 1.5)"><path fill="none" d="M 1e-13 1e-13 L 0 3" stroke-dasharray="none" stroke="#000000" stroke-width="0.5"/></g><g id="krvfwbj9qj" transform="translate(36.25 17.5) rotate(180 0.375 0)"><path fill="none" d="M 0.7499498629586571 0 L 0 1e-13" stroke-dasharray="none" stroke="#000000" stroke-width="0.5"/></g><g id="krvfwbj9qk" transform="translate(37 17.5) rotate(180 0.375 0)"><path fill="none" d="M 1e-13 1e-13 L 0.7499498629587574 0" stroke-dasharray="none" stroke="#000000" stroke-width="0.5"/></g><g id="krvfwbj9ql" transform="translate(4.243 2.5)"><path fill="none" d="M 1.5068999999999992 0 L 0.7534499999999996 0 M 1e-13 1e-13 L 0.7534499999999996 0 L 0.7534499999999996 2.9875" stroke-dasharray="none" stroke="#000000" stroke-width="0.5"/></g><g id="krvfwbj9qm" transform="translate(4.996 14.5)"><path fill="none" d="M 1e-13 1e-13 L 0 3" stroke-dasharray="none" stroke="#000000" stroke-width="0.5"/></g><g id="krvfwbj9qn" transform="translate(4.243 17.5)"><path fill="none" d="M 1e-13 1e-13 L 0.75345 0" stroke-dasharray="none" stroke="#000000" stroke-width="0.5"/></g><g id="krvfwbj9qo" transform="translate(4.997 17.5)"><path fill="none" d="M 0.7534499999998975 0 L 0 1e-13" stroke-dasharray="none" stroke="#000000" stroke-width="0.5"/></g><g id="krvfwbj9qp" transform="translate(11.25 2.5)"><path fill="none" d="M 1e-13 1e-13 L 0.75 0" stroke-dasharray="none" stroke="#000000" stroke-width="0.5"/></g><g id="krvfwbj9qq" transform="translate(12 2.5)"><path fill="none" d="M 0.7499999999998981 0 L 0 1.1785714285714285e-13" stroke-dasharray="none" stroke="#000000" stroke-width="0.5"/></g><g id="krvfwbj9qr" transform="translate(36.25 17.5) rotate(180 0.375 0)"><path fill="none" d="M 0.749999999999898 0 L 0 1.1785714285714287e-13" stroke-dasharray="none" stroke="#000000" stroke-width="0.5"/></g><g id="krvfwbj9qs" transform="translate(37 17.5) rotate(180 0.375 0)"><path fill="none" d="M 1e-13 1e-13 L 0.75 0" stroke-dasharray="none" stroke="#000000" stroke-width="0.5"/></g><g id="krvfwbj9qt" transform="translate(5 0) rotate(270 0 2.5)"><path d="M 1e-13 1e-13 L 0 5" fill="none" stroke="#ff0000" stroke-dasharray="none" stroke-width="1"/></g><g id="krvfwbj9qu" transform="translate(3.75 1.25) rotate(270 1.25 0)"><path d="M 1e-13 1e-13 L 2.5 0" fill="none" stroke="#ff0000" stroke-dasharray="none" stroke-width="1"/></g><g id="krvfwbj9qv" transform="translate(12 0) rotate(270 0 2.5)"><path d="M 1e-13 1e-13 L 0 5" fill="none" stroke="#ff0000" stroke-dasharray="none" stroke-width="1"/></g><g id="krvfwbj9qw" transform="translate(10.75 1.25) rotate(270 1.25 0)"><path d="M 1e-13 1e-13 L 2.5 0" fill="none" stroke="#ff0000" stroke-dasharray="none" stroke-width="1"/></g><g id="krvfwbj9qx" transform="translate(5 15) rotate(270 0 2.5)"><path d="M 1e-13 1e-13 L 0 5" fill="none" stroke="#ff0000" stroke-dasharray="none" stroke-width="1"/></g><g id="krvfwbj9qy" transform="translate(3.75 18.75) rotate(270 1.25 0)"><path d="M 2.5 0 L 1e-13 1e-13" fill="none" stroke="#ff0000" stroke-dasharray="none" stroke-width="1"/></g><g id="krvfwbj9qz" transform="translate(37 15) rotate(270 0 2.5)"><path d="M 1e-13 1e-13 L 0 5" fill="none" stroke="#ff0000" stroke-dasharray="none" stroke-width="1"/></g><g id="krvfwbj9r0" transform="translate(35.75 18.75) rotate(270 1.25 0)"><path d="M 2.5 0 L 1e-13 1e-13" fill="none" stroke="#ff0000" stroke-dasharray="none" stroke-width="1"/></g></g></g></svg>