<?xml version="1.0" encoding="UTF-8"?>
<svg xmlns="http://www.w3.org/2000/svg" viewBox="0 0 64 64"><g id="ks8pelbw394" class="Group.cls" transform="translate(7.5 19)"><g class="Prim.cls"><g id="ks8pelbw395" transform="translate(11.8 2.561)"><path d="M 1e-13 1e-13 L 0 2.910190243902453" fill="#ffffff" fill-opacity="1" stroke="#000000" stroke-width="0.5"/></g><g id="ks8pelbw396" transform="translate(11.065 2.561)"><path d="M 1e-13 1e-13 L 0.735 0" fill="#ffffff" fill-opacity="1" stroke="#000000" stroke-width="0.5"/></g><g id="ks8pelbw397" transform="translate(11.8 2.561)"><path d="M 0.7349999999999 0 L 0 1.0243902439024442e-13" fill="#ffffff" fill-opacity="1" stroke="#000000" stroke-width="0.5"/></g><g id="ks8pelbw398" transform="translate(39.2 15.657) rotate(180 0 1.455)"><path d="M 1e-13 1e-13 L 0 2.910190243902453" fill="#ffffff" fill-opacity="1" stroke="#000000" stroke-width="0.5"/></g><g id="ks8pelbw399" transform="translate(38.465 18.567) rotate(180 0.367 0)"><path d="M 0.7349999999999 0 L 0 1.0243902439024442e-13" fill="#ffffff" fill-opacity="1" stroke="#000000" stroke-width="0.5"/></g><g id="ks8pelbw39a" transform="translate(39.2 18.567) rotate(180 0.367 0)"><path d="M 1e-13 1e-13 L 0.735 0" fill="#ffffff" fill-opacity="1" stroke="#000000" stroke-width="0.5"/></g><g id="ks8pelbw39b" transform="translate(4.165 2.561)"><path d="M 1.47 0 L 0.735 0 M 1e-13 1e-13 L 0.735 0 L 0.735 2.910190243902453" fill="none" fill-opacity="1" stroke="#000000" stroke-width="0.5"/></g><g id="ks8pelbw39c" transform="translate(4.9 15.657)"><path d="M 1e-13 1e-13 L 0 2.910190243902453" fill="#ffffff" fill-opacity="1" stroke="#000000" stroke-width="0.5"/></g><g id="ks8pelbw39d" transform="translate(4.165 18.567)"><path d="M 1e-13 1e-13 L 0.735 0" fill="#ffffff" fill-opacity="1" stroke="#000000" stroke-width="0.5"/></g><g id="ks8pelbw39e" transform="translate(4.9 18.567)"><path d="M 0.7349999999999 0 L 0 1.0243902439024442e-13" fill="#ffffff" fill-opacity="1" stroke="#000000" stroke-width="0.5"/></g><g id="ks8pelbw39f" transform="translate(2 5.471)"><rect fill="#ffffff" fill-opacity="1" height="10.028800010681152" stroke="#000000" stroke-width="0.5" width="45" x="0" y="0"/></g><g id="ks8pelbw39g" transform="translate(1.99 4.016)"><path d="M 0 1.4551463414633194 L 1e-13 0" fill="#ffffff" fill-opacity="1" stroke="#000000" stroke-width="0.5"/></g><g id="ks8pelbw39h" transform="translate(0 4.016)"><path d="M 1e-13 1e-13 L 0 13.095907317073236" fill="#ffffff" fill-opacity="1" stroke="#000000" stroke-width="0.5"/></g><g id="ks8pelbw39i" transform="translate(1.99 15.657)"><path d="M 1e-13 1e-13 L 0 1.4551463414634218" fill="#ffffff" fill-opacity="1" stroke="#000000" stroke-width="0.5"/></g><g id="ks8pelbw39j" transform="translate(47 4)"><path d="M 1e-13 1e-13 L 0 13.095907317073236" fill="#ffffff" fill-opacity="1" stroke="#000000" stroke-width="0.5"/></g><g id="ks8pelbw39k" transform="translate(49 4.016)"><path d="M 1e-13 1e-13 L 0 13.095907317073236" fill="#ffffff" fill-opacity="1" stroke="#000000" stroke-width="0.5"/></g><g id="ks8pelbw39l" transform="translate(7.85 5.471)"><path d="M 1e-13 1e-13 L 0 10.1857" fill="#ffffff" fill-opacity="1" stroke-dasharray="1 1.5" stroke="#000000" stroke-width="0.5"/></g><g id="ks8pelbw39m" transform="translate(41.15 5.471)"><path d="M 1e-13 1e-13 L 0 10.1857" fill="#ffffff" fill-opacity="1" stroke-dasharray="1 1.5" stroke="#000000" stroke-width="0.5"/></g><g id="ks8pelbw39n" transform="translate(5 0.061) rotate(270 0 2.5)"><path d="M 1e-13 1e-13 L 0 5" fill="none" stroke="#ff0000" stroke-width="1"/></g><g id="ks8pelbw39o" transform="translate(3.72 1.28) rotate(270 1.28 0)"><path d="M 1e-13 1e-13 L 2.5609756097561105 0" fill="none" stroke="#ff0000" stroke-width="1"/></g><g id="ks8pelbw39p" transform="translate(12 0.061) rotate(270 0 2.5)"><path d="M 1e-13 1e-13 L 0 5" fill="none" stroke="#ff0000" stroke-width="1"/></g><g id="ks8pelbw39q" transform="translate(10.72 1.28) rotate(270 1.28 0)"><path d="M 1e-13 1e-13 L 2.5609756097561105 0" fill="none" stroke="#ff0000" stroke-width="1"/></g><g id="ks8pelbw39r" transform="translate(4.118 18.439)"><path fill="none" d="M 1e-13 1e-13 L 0.7534 0" stroke="#000000" stroke-width="0.5"/></g><g id="ks8pelbw39s" transform="translate(4.872 18.439)"><path fill="none" d="M 0.7533999999998999 0 L 0 1.0243902439024442e-13" stroke="#000000" stroke-width="0.5"/></g><g id="ks8pelbw39t" transform="translate(4.875 15.939) rotate(270 0 2.5)"><path d="M 1e-13 1e-13 L 0 5" fill="none" stroke="#ff0000" stroke-width="1"/></g><g id="ks8pelbw39u" transform="translate(3.595 19.719) rotate(270 1.28 0)"><path d="M 2.5609756097560075 0 L 0 1e-13" fill="none" stroke="#ff0000" stroke-width="1"/></g><g id="ks8pelbw39v" transform="translate(38.25 18.439) rotate(180 0.375 0)"><path fill="none" d="M 0.7498999999999 0 L 0 1.0243902439024442e-13" stroke="#000000" stroke-width="0.5"/></g><g id="ks8pelbw39w" transform="translate(39 18.439) rotate(180 0.375 0)"><path fill="none" d="M 1e-13 1e-13 L 0.7499 0" stroke="#000000" stroke-width="0.5"/></g><g id="ks8pelbw39x" transform="translate(38.25 18.439) rotate(180 0.375 0)"><path fill="none" d="M 0.7499999999999 0 L 0 1.0243902439024442e-13" stroke="#000000" stroke-width="0.5"/></g><g id="ks8pelbw39y" transform="translate(39 18.439) rotate(180 0.375 0)"><path fill="none" d="M 1e-13 1e-13 L 0.75 0" stroke="#000000" stroke-width="0.5"/></g><g id="ks8pelbw39z" transform="translate(39 15.939) rotate(270 0 2.5)"><path d="M 1e-13 1e-13 L 0 5" fill="none" stroke="#ff0000" stroke-width="1"/></g><g id="ks8pelbw3a0" transform="translate(37.72 19.719) rotate(270 1.28 0)"><path d="M 2.5609756097560075 0 L 0 1e-13" fill="none" stroke="#ff0000" stroke-width="1"/></g></g></g></svg>