<?xml version="1.0" encoding="UTF-8"?>
<svg xmlns="http://www.w3.org/2000/svg" viewBox="0 0 64 64"><g id="ks8pbovt13e" class="Group.cls" transform="translate(5.5 10)"><g class="Prim.cls"><g id="ks8pbovv13f" transform="translate(2 2.488)"><path d="M 49 10.011764706544861 C 49 4.465249777178949 38.073 0 24.5 0 C 10.927 0 0 4.465249777178949 0 10.011764706544861" fill="#ffffff" fill-opacity="1" stroke-dasharray="none" stroke="#000000" stroke-width="0.4596"/></g><g id="ks8pbovv13g" transform="translate(2 12.5)"><rect fill="#ffffff" fill-opacity="1" height="31" stroke="#000000" stroke-width="0.4596" width="49" x="0" y="0"/></g><g id="ks8pbovv13h" transform="translate(0 23) rotate(90 2 0)"><path d="M 4 0 L 1e-13 1e-13" fill="none" stroke="#ff0000"/></g><g id="ks8pbovv13i" transform="translate(1 22) rotate(90 0 1)"><path d="M 0 2 L 1e-13 1e-13" fill="none" stroke="#ff0000"/></g><g id="ks8pbovv13j" transform="translate(49 23) rotate(270 2 0)"><path d="M 4 0 L 1e-13 1e-13" fill="none" stroke="#ff0000"/></g><g id="ks8pbovv13k" transform="translate(52 22) rotate(270 0 1)"><path d="M 0 2 L 1e-13 1e-13" fill="none" stroke="#ff0000"/></g><g id="ks8pbovv13l" transform="translate(25 43.5)"><path d="M 4 0 L 1e-13 1e-13" fill="none" stroke="#ff0000"/></g><g id="ks8pbovv13m" transform="translate(27 43.5)"><path d="M 0 2 L 1e-13 1e-13" fill="none" stroke="#ff0000"/></g><g id="ks8pbovv13n" transform="translate(25 2.5) rotate(180 2 0)"><path d="M 4 0 L 1e-13 1e-13" fill="none" stroke="#ff0000"/></g><g id="ks8pbovv13o" transform="translate(27 0) rotate(180 0 1)"><path d="M 0 2 L 1e-13 1e-13" fill="none" stroke="#ff0000"/></g></g></g></svg>