<?xml version="1.0" encoding="UTF-8"?>
<svg xmlns="http://www.w3.org/2000/svg" viewBox="0 0 64 64"><g id="kr8ln5xopr" class="Group.cls" transform="translate(5.5 9.5)"><g class="Prim.cls"><g id="kr8ln5xpps" transform="translate(2 2)"><path fill="white" d="M 49 9.000000000000005 L 24.5 0 L 0 9.000000000000005 L 0 38.99999999999999 L 49 38.99999999999999 Z" stroke="#000000" stroke-width="0.5"/></g><g id="kr8ln5xppt" transform="translate(45 12)"><rect fill="none" height="2" stroke="#000000" stroke-width="0.5" width="3" x="0" y="0"/></g><g id="kr8ln5xppu" transform="translate(5 12)"><rect fill="none" height="2" stroke="#000000" stroke-width="0.5" width="3" x="0" y="0"/></g><g id="kr8ln5xppv" transform="translate(8 14)"><path d="M 1e-13 1e-13 L 37 0" fill="none" stroke="#000000" stroke-width="0.5"/></g><g id="kr8ln5xppw" transform="translate(0 23) rotate(90 2 0)"><path d="M 4 0 L 1e-13 1e-13" fill="none" stroke="#ff0000"/></g><g id="kr8ln5xppx" transform="translate(1 22) rotate(90 0 1)"><path d="M 0 2 L 1e-13 1e-13" fill="none" stroke="#ff0000"/></g><g id="kr8ln5xppy" transform="translate(49 23) rotate(270 2 0)"><path d="M 4 0 L 1e-13 1e-13" fill="none" stroke="#ff0000"/></g><g id="kr8ln5xppz" transform="translate(52 22) rotate(270 0 1)"><path d="M 0 2 L 1e-13 1e-13" fill="none" stroke="#ff0000"/></g><g id="kr8ln5xpq0" transform="translate(24 41)"><path d="M 4 0 L 1e-13 1e-13" fill="none" stroke="#ff0000"/></g><g id="kr8ln5xpq1" transform="translate(26 41)"><path d="M 0 2 L 1e-13 1e-13" fill="none" stroke="#ff0000"/></g><g id="kr8ln5xpq2" transform="translate(24 2) rotate(180 2 0)"><path d="M 4 0 L 1e-13 1e-13" fill="none" stroke="#ff0000"/></g><g id="kr8ln5xpq3" transform="translate(26 0) rotate(180 0 1)"><path d="M 0 2 L 1e-13 1e-13" fill="none" stroke="#ff0000"/></g></g></g></svg>