<?xml version="1.0" encoding="UTF-8"?>
<svg xmlns="http://www.w3.org/2000/svg" viewBox="0 0 64 64"><g id="ks8pc9842ms" class="Group.cls" transform="translate(5.5 4.5)"><g class="Prim.cls"><g id="ks8pc9852mt" transform="translate(20.5 4.5) rotate(90 6.5 4)"><rect fill="white" height="8" stroke-linecap="square" stroke="#000000" stroke-width="0.5" width="13" x="0" y="0"/></g><g id="ks8pc9852mu" transform="translate(26 -3) rotate(90 1 4)"><path fill="white" d="M 2 0 Q 0 0 0 2 L 0 5.999999999999999 Q 0 8 2 8 Z" stroke-linecap="square" stroke="#000000" stroke-width="0.5"/></g><g id="ks8pc9852mv" transform="translate(26 12) rotate(90 1 4)"><path fill="white" d="M 0 0 Q 2 0 2 2 L 2 5.999999999999999 Q 2 8 0 8 Z" stroke-linecap="square" stroke="#000000" stroke-width="0.5"/></g><g id="ks8pc9852mw" transform="translate(38 34)"><path d="M 1e-13 1e-13 L 5.5 0" fill="none" stroke-linecap="square" stroke="#000000" stroke-width="0.5"/></g><g id="ks8pc9852mx" transform="translate(16.513 31.824)"><path fill="white" d="M 0 20.176229508196712 L 21 20.176229508196712 L 9.66 0 Z" stroke-linecap="square" stroke="#000000" stroke-width="0.5"/></g><g id="ks8pc9852my" transform="translate(16 30)"><path fill="white" d="M 10.35 0 L 9.199999999999998 0 L 9.199999999999998 0.06110325917252147 C 4.01125974025974 0.6162287743950039 0 4.885855093676813 0 10.103688524590163 C 0 15.701131967213115 4.61612987012987 20.207377049180327 10.35 20.207377049180327 C 16.083870129870128 20.207377049180327 20.7 15.701131967213115 20.7 10.103688524590163 C 20.7 9.724078512880562 20.76136363636364 8.808295081967213 20.5 8 L 23 8 L 23 0 Z" stroke-linecap="butt" stroke="#000000" stroke-width="0.5"/></g><g id="ks8pc9852mz" transform="translate(27 17.188)"><path d="M 0 12.5624999999999 L 1e-13 0" fill="none" stroke-linecap="butt" stroke="#000000" stroke-width="0.5"/></g><g id="ks8pc9852n0" transform="translate(24.913 37.952)"><ellipse cx="2.0999999046325684" cy="2.0426228046417227" fill="none" rx="2.0999999046325684" ry="2.0426228046417227" stroke-linecap="butt" stroke="#000000" stroke-width="0.5"/></g><g id="ks8pc9852n1" transform="translate(22.813 38.973)"><rect fill="none" height="2.0426228046417227" stroke="none" stroke-linecap="butt" stroke-width="0.5" width="4.199999809265137" x="0" y="0"/></g><g id="ks8pc9852n2" transform="translate(2.125 39.994)"><path d="M 24.887499999999203 0 L 0 0.005699999999999997" fill="none" stroke-linecap="square" stroke="#000000" stroke-width="0.5"/></g><g id="ks8pc9852n3" transform="translate(2 38.925) rotate(180 0 1.425)"><path d="M 1e-13 1e-13 L 0 2.85" fill="none" stroke-linecap="butt" stroke="#000000" stroke-width="0.5"/></g><g id="ks8pc9862n4" transform="translate(-0.041 40.041) rotate(90 2.041 0)"><path d="M 4.082 0 L 1e-13 1e-13" fill="none" stroke="#ff0000"/></g><g id="ks8pc9862n5" transform="translate(1 39.041) rotate(90 0 1)"><path d="M 0 2 L 0 1e-13" fill="none" stroke="#ff0000"/></g><g id="ks8pc9862n6" transform="translate(44 32.307)"><path d="M 1e-13 1e-13 L 0 2.85" fill="none" stroke-linecap="butt" stroke="#000000" stroke-width="0.5"/></g><g id="ks8pc9862n7" transform="translate(41.959 34.041) rotate(270 2.041 0)"><path d="M 4.082 0 L 1e-13 1e-13" fill="none" stroke="#ff0000"/></g><g id="ks8pc9862n8" transform="translate(45 33.041) rotate(270 0 1)"><path d="M 0 2 L 0 1e-13" fill="none" stroke="#ff0000"/></g></g></g></svg>