<?xml version="1.0" encoding="UTF-8"?>
<svg xmlns="http://www.w3.org/2000/svg" viewBox="0 0 64 64"><g id="ks8pegob2z3" class="Group.cls" transform="translate(7.5 22)"><g class="Prim.cls"><g id="ks8pegoc2z4" transform="translate(0 2.5)"><path fill="none" d="M 4.999999999999998 15 L 4.999999999999998 11.989062499999992 M 4.249999999999998 15 L 5.749999999999996 15 M 7 11.989062499999992 L 2.499999999999999 11.989062499999992 C 1.1149999999999993 11.989062499999992 0 9.8268 0 7.5 C 0 5.173199999999997 1.1149999999999993 3.0109374999999976 2.499999999999999 3.0109374999999976 L 7 3.0109374999999976 M 4.999999999999998 0 L 4.999999999999998 3.0109374999999976 M 4.249999999999998 0 L 5.749999999999996 0 M 7 1.899999999999999 L 7 13.100000000000001" stroke-dasharray="none" stroke="#000000" stroke-width="0.5"/></g><g id="ks8pegoc2z5" transform="translate(42 3)"><path fill="none" d="M 1.9999999999999991 11.199999999999992 M 2.750000000000001 14 M 0 11.5 L 4.5625 11.5 C 5.947500000000003 11.5 7 9.3268 7 7 C 7 4.673199999999997 5.885000000000003 2.5 4.5 2.5 L 0 2.5 M 2.750000000000001 0 M 0 1.399999999999999 L 0 12.600000000000001" stroke-dasharray="none" stroke="#000000" stroke-width="0.5"/></g><g id="ks8pegoc2z6" transform="translate(9 4.4)"><path fill="none" d="M 1e-13 1e-13 L 0 1.4000000000000004 M 0 11.200000000000003 L 0 9.799999999999997 M 31 11.200000000000003 L 31 9.799999999999997 L 31 1.4000000000000004 M 31 0 L 31 1.1109375000000004 L 1.8249035714285715 1.1109375000000004 L 0 1.1109375000000004 L 0 10.1 L 29.1875 10.1 L 31 10.1" stroke-dasharray="none" stroke="#000000" stroke-width="0.5"/></g><g id="ks8pegoc2z7" transform="translate(12 2.5)"><path fill="none" d="M 1e-13 1e-13 L 0 2.8565964285714283" stroke-dasharray="none" stroke="#000000" stroke-width="0.5"/></g><g id="ks8pegoc2z8" transform="translate(11.25 2.5)"><path fill="none" d="M 1e-13 1e-13 L 0.75 0" stroke-dasharray="none" stroke="#000000" stroke-width="0.5"/></g><g id="ks8pegoc2z9" transform="translate(12 2.5)"><path fill="none" d="M 0.7499999999998981 0 L 0 1.1785714285714285e-13" stroke-dasharray="none" stroke="#000000" stroke-width="0.5"/></g><g id="ks8pegoc2za" transform="translate(37 14.5) rotate(180 0 1.5)"><path fill="none" d="M 1e-13 1e-13 L 0 3" stroke-dasharray="none" stroke="#000000" stroke-width="0.5"/></g><g id="ks8pegoc2zb" transform="translate(36.25 17.5) rotate(180 0.375 0)"><path fill="none" d="M 0.749999999999898 0 L 0 1.1785714285714287e-13" stroke-dasharray="none" stroke="#000000" stroke-width="0.5"/></g><g id="ks8pegoc2zc" transform="translate(37 17.5) rotate(180 0.375 0)"><path fill="none" d="M 1e-13 1e-13 L 0.75 0" stroke-dasharray="none" stroke="#000000" stroke-width="0.5"/></g><g id="ks8pegoc2zd" transform="translate(5 0) rotate(270 0 2.5)"><path d="M 1e-13 1e-13 L 0 5" fill="none" stroke="#ff0000" stroke-dasharray="none" stroke-width="1"/></g><g id="ks8pegoc2ze" transform="translate(3.75 1.25) rotate(270 1.25 0)"><path d="M 1e-13 1e-13 L 2.5 0" fill="none" stroke="#ff0000" stroke-dasharray="none" stroke-width="1"/></g><g id="ks8pegoc2zf" transform="translate(12 0) rotate(270 0 2.5)"><path d="M 1e-13 1e-13 L 0 5" fill="none" stroke="#ff0000" stroke-dasharray="none" stroke-width="1"/></g><g id="ks8pegoc2zg" transform="translate(10.75 1.25) rotate(270 1.25 0)"><path d="M 1e-13 1e-13 L 2.5 0" fill="none" stroke="#ff0000" stroke-dasharray="none" stroke-width="1"/></g><g id="ks8pegoc2zh" transform="translate(5 15) rotate(270 0 2.5)"><path d="M 1e-13 1e-13 L 0 5" fill="none" stroke="#ff0000" stroke-dasharray="none" stroke-width="1"/></g><g id="ks8pegoc2zi" transform="translate(3.75 18.75) rotate(270 1.25 0)"><path d="M 2.5 0 L 1e-13 1e-13" fill="none" stroke="#ff0000" stroke-dasharray="none" stroke-width="1"/></g><g id="ks8pegoc2zj" transform="translate(37 15) rotate(270 0 2.5)"><path d="M 1e-13 1e-13 L 0 5" fill="none" stroke="#ff0000" stroke-dasharray="none" stroke-width="1"/></g><g id="ks8pegoc2zk" transform="translate(35.75 18.75) rotate(270 1.25 0)"><path d="M 2.5 0 L 1e-13 1e-13" fill="none" stroke="#ff0000" stroke-dasharray="none" stroke-width="1"/></g></g></g></svg>