<?xml version="1.0" encoding="UTF-8"?>
<svg xmlns="http://www.w3.org/2000/svg" viewBox="0 0 64 64"><g id="ks8pbrn01a2" class="Group.cls" transform="translate(5.5 16.5)"><g class="Prim.cls"><g id="ks8pbrn11a3" transform="translate(2.5 2.5)"><path d="M 0 34 L 48 0" fill="none" stroke-linecap="butt" stroke="#000000" stroke-width="0.5"/></g><g id="ks8pbrn11a4" transform="translate(2.5 2.5)"><path d="M 1e-13 1e-13 L 48 34" fill="none" stroke-linecap="butt" stroke="#000000" stroke-width="0.5"/></g><g id="ks8pbrn21a5" transform="translate(2 2)"><path fill="none" d="M 49 0 L 49 35 L 0 35 L 1.0652173913043481e-13 1.0652187807201485e-13" stroke="#000000" stroke-width="0.5"/></g><g id="ks8pbrn21a6" transform="translate(0 16) rotate(90 2 0)"><path d="M 4 0 L 1e-13 1e-13" fill="none" stroke="#ff0000"/></g><g id="ks8pbrn21a7" transform="translate(1 15) rotate(90 0 1)"><path d="M 0 2 L 1e-13 1e-13" fill="none" stroke="#ff0000"/></g><g id="ks8pbrn21a8" transform="translate(49 16) rotate(270 2 0)"><path d="M 4 0 L 1e-13 1e-13" fill="none" stroke="#ff0000"/></g><g id="ks8pbrn21a9" transform="translate(52 15) rotate(270 0 1)"><path d="M 0 2 L 1e-13 1e-13" fill="none" stroke="#ff0000"/></g><g id="ks8pbrn21aa" transform="translate(25 37)"><path d="M 4 0 L 1e-13 1e-13" fill="none" stroke="#ff0000"/></g><g id="ks8pbrn21ab" transform="translate(27 37)"><path d="M 0 2 L 1e-13 1e-13" fill="none" stroke="#ff0000"/></g><g id="ks8pbrn21ac" transform="translate(25 2) rotate(180 2 0)"><path d="M 4 0 L 1e-13 1e-13" fill="none" stroke="#ff0000"/></g><g id="ks8pbrn21ad" transform="translate(27 0) rotate(180 0 1)"><path d="M 0 2 L 1e-13 1e-13" fill="none" stroke="#ff0000"/></g></g></g></svg>