<?xml version="1.0" encoding="UTF-8"?>
<svg xmlns="http://www.w3.org/2000/svg" viewBox="0 0 64 64"><g id="ks8pbxmn1un" class="Group.cls" transform="translate(21.5 1.5)"><g class="Prim.cls"><g id="ks8pbxmn1uo" transform="translate(2 13.5)"><path d="M 1e-13 1e-13 L 18 40" fill="none" stroke-linecap="butt" stroke="#000000" stroke-width="0.5"/></g><g id="ks8pbxmn1up" transform="translate(2 2)"><path fill="white" d="M 0 53.36002500000004 L 0 4.640025000000004 C 0 -1.5466750000000014 18 -1.5466750000000014 18 4.640025000000004 L 18 53.36002500000004 C 18 59.54662500000004 0 59.54662500000004 0 53.36002500000004 Z" stroke-linecap="butt" stroke="#000000" stroke-width="0.5"/></g><g id="ks8pbxmn1uq" transform="translate(0 31) rotate(90 2 0)"><path d="M 4 0 L 1e-13 1e-13" fill="none" stroke="#ff0000"/></g><g id="ks8pbxmn1ur" transform="translate(1 30) rotate(90 0 1)"><path d="M 0 2 L 1e-13 1e-13" fill="none" stroke="#ff0000"/></g><g id="ks8pbxmn1us" transform="translate(18 31) rotate(270 2 0)"><path d="M 4 0 L 1e-13 1e-13" fill="none" stroke="#ff0000"/></g><g id="ks8pbxmn1ut" transform="translate(21 30) rotate(270 0 1)"><path d="M 0 2 L 1e-13 1e-13" fill="none" stroke="#ff0000"/></g><g id="ks8pbxmn1uu" transform="translate(9 60)"><path d="M 4 0 L 1e-13 1e-13" fill="none" stroke="#ff0000"/></g><g id="ks8pbxmn1uv" transform="translate(11 60)"><path d="M 0 2 L 1e-13 1e-13" fill="none" stroke="#ff0000"/></g><g id="ks8pbxmn1uw" transform="translate(9 2) rotate(180 2 0)"><path d="M 4 0 L 1e-13 1e-13" fill="none" stroke="#ff0000"/></g><g id="ks8pbxmn1ux" transform="translate(11 0) rotate(180 0 1)"><path d="M 0 2 L 1e-13 1e-13" fill="none" stroke="#ff0000"/></g></g></g></svg>