<?xml version="1.0" encoding="UTF-8"?>
<svg xmlns="http://www.w3.org/2000/svg" viewBox="0 0 64 64"><g id="ks8pc31o26m" class="Group.cls" transform="translate(19.5 4.5)"><g class="Prim.cls"><g id="ks8pc31p26n" transform="translate(7 27.792)"><path fill="white" d="M 0 2.36 L 0 25.96 Q 6 30.68 12 25.96 L 12 2.36 Q 6 -2.36 0 2.36 Z" stroke-linecap="square" stroke="#000000" stroke-width="0.5"/></g><g id="ks8pc31p26o" transform="translate(2 42)"><path d="M 4.599999999999899 0 L 0 1.000310945187266e-13" fill="none" stroke-linecap="square" stroke="#000000" stroke-width="0.5"/></g><g id="ks8pc31p26p" transform="translate(2 40.26)"><path d="M 1e-13 1e-13 L 0 3.4399999999999995" fill="none" stroke-linecap="square" stroke="#000000" stroke-width="0.5"/></g><g id="ks8pc31p26q" transform="translate(19 42)"><path d="M 1e-13 1e-13 L 5 0" fill="none" stroke-linecap="square" stroke="#000000" stroke-width="0.5"/></g><g id="ks8pc31p26r" transform="translate(24 40.26)"><path d="M 1e-13 1e-13 L 0 3.4399999999999995" fill="none" stroke-linecap="square" stroke="#000000" stroke-width="0.5"/></g><g id="ks8pc31p26s" transform="translate(8.4 31.332)"><ellipse fill="white" cx="4.6" cy="4.72" rx="4.6" ry="4.72" stroke-linecap="square" stroke="#000000" stroke-width="0.5"/></g><g id="ks8pc31p26t" transform="translate(8.4 43.132)"><ellipse fill="white" cx="4.6" cy="4.72" rx="4.6" ry="4.72" stroke-linecap="square" stroke="#000000" stroke-width="0.5"/></g><g id="ks8pc31p26u" transform="translate(6.033 5.033) rotate(90 6.967 4)"><rect fill="white" height="8" stroke-linecap="square" stroke="#000000" stroke-width="0.5" width="13.934282041827705" x="0" y="0"/></g><g id="ks8pc31p26v" transform="translate(11.967 -2.967) rotate(90 1.033 4)"><path fill="white" d="M 2.0656779661016964 0 Q 0 0 0 2 L 0 6 Q 0 8 2.0656779661016964 8 Z" stroke-linecap="square" stroke="#000000" stroke-width="0.5"/></g><g id="ks8pc31p26w" transform="translate(11.508 13.492) rotate(90 1.492 4)"><path fill="white" d="M 0 0 Q 2.9835360169491474 0 2.9835360169491474 2 L 2.9835360169491474 6 Q 2.9835360169491474 8 0 8 Z" stroke-linecap="square" stroke="#000000" stroke-width="0.5"/></g><g id="ks8pc31p26x" transform="translate(13 19.352)"><path d="M 1e-13 1e-13 L 0 8.44" fill="none" stroke-linecap="square" stroke="#000000" stroke-width="0.5"/></g><g id="ks8pc31p26y" transform="translate(0 42) rotate(90 2 0)"><path d="M 1e-13 1e-13 L 4 0" fill="none" stroke="#ff0000" stroke-width="1"/></g><g id="ks8pc31p26z" transform="translate(1 41) rotate(90 0 1)"><path d="M 0 2 L 1e-13 1e-13" fill="none" stroke="#ff0000" stroke-width="1"/></g><g id="ks8pc31p270" transform="translate(22 42) rotate(270 2 0)"><path d="M 1e-13 1e-13 L 4 0" fill="none" stroke="#ff0000" stroke-width="1"/></g><g id="ks8pc31p271" transform="translate(25 41) rotate(270 0 1)"><path d="M 0 2 L 1e-13 1e-13" fill="none" stroke="#ff0000" stroke-width="1"/></g></g></g></svg>