<?xml version="1.0" encoding="UTF-8"?>
<svg xmlns="http://www.w3.org/2000/svg" viewBox="0 0 64 64"><g id="ks8pc7ns2iw" class="Group.cls" transform="translate(2.5 23.5)"><g class="Prim.cls"><g id="ks8pc7ns2ix" transform="translate(47 5)"><rect fill="white" height="7.999892234802246" stroke-linecap="square" stroke="#000000" stroke-width="0.5" width="10" x="0" y="0"/></g><g id="ks8pc7ns2iy" transform="translate(57 5)"><path fill="white" d="M 0 0 Q 2 0 2 2.000000063273903 L 2 6.000000189821707 Q 2 7.999892991481148 0 7.999892991481148 Z" stroke-linecap="square" stroke="#000000" stroke-width="0.5"/></g><g id="ks8pc7ns2iz" transform="translate(45 5)"><path fill="white" d="M 2 0 Q 0 0 0 2.000000063273903 L 0 6.000000189821707 Q 0 7.999892991481148 2 7.999892991481148 Z" stroke-linecap="square" stroke="#000000" stroke-width="0.5"/></g><g id="ks8pc7ns2j0" transform="translate(0 5)"><rect fill="#ffffff" fill-opacity="1" height="8" stroke-linecap="square" stroke="#000000" stroke-width="0.5" width="37.00004922790527" x="0" y="0"/></g><g id="ks8pc7ns2j1" transform="translate(33 2)"><path d="M 0 3 L 1e-13 1e-13" fill="none" stroke-linecap="square" stroke="#000000" stroke-width="0.5"/></g><g id="ks8pc7ns2j2" transform="translate(31.5 2)"><path d="M 2.9999999999999 0 L 0 1e-13" fill="none" stroke-linecap="square" stroke="#000000" stroke-width="0.5"/></g><g id="ks8pc7ns2j3" transform="translate(4 2)"><path d="M 0 2.9999999999998 L 1e-13 1e-13" fill="none" stroke-linecap="square" stroke="#000000" stroke-width="0.5"/></g><g id="ks8pc7ns2j4" transform="translate(2.5 2)"><path d="M 2.9999999999999 0 L 0 1e-13" fill="none" stroke-linecap="square" stroke="#000000" stroke-width="0.5"/></g><g id="ks8pc7ns2j5" transform="translate(37.292 9.021)"><path d="M 7.4583 0 L 1e-13 1e-13" fill="none" stroke-linecap="butt" stroke="#000000" stroke-width="0.5"/></g><g id="ks8pc7ns2j6" transform="translate(0.093 6.224)"><path d="M 0 2.7969 L 2.5172 2.7969 L 3.6359 5.314 L 5.8734 0 L 8.4839 5.5938 L 11.0943 0 L 13.3318 5.5938 L 15.5693 0 L 17.8068 5.5938 L 20.0443 0 L 22.2818 5.5938 L 24.5193 0 L 26.7568 5.5938 L 28.9943 0 L 31.2318 5.5938 L 33.4693 0 L 34.588 2.7969 L 37.1984 2.7969" fill="none" stroke-linecap="square" stroke="#000000" stroke-width="0.5"/></g><g id="ks8pc7ns2j7" transform="translate(33.268 0.575) rotate(90 0 1.425)"><path d="M 1e-13 1e-13 L 0 2.85" fill="none" stroke-linecap="butt" stroke="#000000" stroke-width="0.5"/></g><g id="ks8pc7ns2j8" transform="translate(30.918 2) rotate(180 2.041 0)"><path d="M 1e-13 1e-13 L 4.082 0" fill="none" stroke="#ff0000"/></g><g id="ks8pc7ns2j9" transform="translate(32.959 0) rotate(180 0 1)"><path d="M 0 2 L 1e-13 1e-13" fill="none" stroke="#ff0000"/></g><g id="ks8pc7ns2ja" transform="translate(4.268 0.575) rotate(90 0 1.425)"><path d="M 1e-13 1e-13 L 0 2.85" fill="none" stroke-linecap="butt" stroke="#000000" stroke-width="0.5"/></g><g id="ks8pc7ns2jb" transform="translate(1.918 2) rotate(180 2.041 0)"><path d="M 1e-13 1e-13 L 4.082 0" fill="none" stroke="#ff0000"/></g><g id="ks8pc7ns2jc" transform="translate(3.959 0) rotate(180 0 1)"><path d="M 0 2 L 1e-13 1e-13" fill="none" stroke="#ff0000"/></g></g></g></svg>