<?xml version="1.0" encoding="UTF-8"?>
<svg xmlns="http://www.w3.org/2000/svg" viewBox="0 0 64 64"><g id="ks8pem2t3bg" class="Group.cls" transform="translate(7.5 19)"><g class="Prim.cls"><g id="ks8pem2u3bh" transform="translate(0 10.375)"><path fill="none" d="M 3.549107142857143 10.500000000000004 M 7 11.125000000000004 L 2.5 11.125000000000004 C 1.1149999999999998 11.125000000000004 0 8.743875000000001 0 6.562500000000001 C 0 4.381125 1.1149999999999998 2.125000000000001 2.5 2.125000000000001 L 7 2.125000000000001 M 2.6874999999999996 0 M 7 1.3125000000000004 L 7 11.812500000000004" stroke="#000000" stroke-width="0.5"/></g><g id="ks8pem2u3bi" transform="translate(7.348 5.5)"><path fill="none" d="M 0 7.5 M 1.6516 6.1875 L 1.6516 7.5 M 1.6516 16.6875 L 1.6516 15.375 L 1.6516 7 L 4.901641500000011 7 L 17.151641500000025 0 L 36.75164149999999 0.001207500000000028 C 39.474155000000074 0.07573124999999992 41.651641500000046 3.1844999999999986 41.651641500000046 7.5006037499999945 C 41.651641500000046 11.816733749999988 39.474155000000074 15.925476250000017 36.75164149999999 16 L 1.6516 16" stroke="#000000" stroke-width="0.5"/></g><g id="ks8pem2u3bj" transform="translate(4.243 9.513)"><path fill="none" d="M 1.5069 0 L 0.7534 0 M 1e-13 1e-13 L 0.7534 0 L 0.7534 2.9875" stroke="#000000" stroke-width="0.5"/></g><g id="ks8pem2u3bk" transform="translate(4.246 21.5) rotate(180 0.753 1.5)"><path fill="none" d="M 1e-13 1e-13 L 0.7535 0 M 1.5069 0 L 0.7535 0 L 0.7535 2.9999999999999996" stroke="#000000" stroke-width="0.5"/></g><g id="ks8pem2u3bl" transform="translate(25.247 2.506)"><path fill="none" d="M 1.5069 0 L 0.7534 0 M 1e-13 1e-13 L 0.7534 0 L 0.7534 2.9936999999999996" stroke="#000000" stroke-width="0.5"/></g><g id="ks8pem2u3bm" transform="translate(42.247 21.5) rotate(180 0.753 1.5)"><path fill="none" d="M 1e-13 1e-13 L 0.7534 0 M 1.5069 0 L 0.7534 0 L 0.7534 3" stroke="#000000" stroke-width="0.5"/></g><g id="ks8pem2u3bn" transform="translate(25.25 2.5)"><path fill="none" d="M 1e-13 1e-13 L 0.75 0" stroke="#000000" stroke-width="0.5"/></g><g id="ks8pem2u3bo" transform="translate(26 2.5)"><path fill="none" d="M 0.75 0 L 1e-13 1e-13" stroke="#000000" stroke-width="0.5"/></g><g id="ks8pem2u3bp" transform="translate(42.25 24.5) rotate(180 0.375 0)"><path fill="none" d="M 0.75 0 L 1e-13 1e-13" stroke="#000000" stroke-width="0.5"/></g><g id="ks8pem2u3bq" transform="translate(43 24.5) rotate(180 0.375 0)"><path fill="none" d="M 1e-13 1e-13 L 0.75 0" stroke="#000000" stroke-width="0.5"/></g><g id="ks8pem2u3br" transform="translate(5 7) rotate(270 0 2.5)"><path d="M 1e-13 1e-13 L 0 5" fill="none" stroke="#ff0000" stroke-width="1"/></g><g id="ks8pem2u3bs" transform="translate(3.75 8.25) rotate(270 1.25 0)"><path d="M 1e-13 1e-13 L 2.5 0" fill="none" stroke="#ff0000" stroke-width="1"/></g><g id="ks8pem2u3bt" transform="translate(26 0) rotate(270 0 2.5)"><path d="M 1e-13 1e-13 L 0 5" fill="none" stroke="#ff0000" stroke-width="1"/></g><g id="ks8pem2u3bu" transform="translate(24.75 1.25) rotate(270 1.25 0)"><path d="M 1e-13 1e-13 L 2.5 0" fill="none" stroke="#ff0000" stroke-width="1"/></g><g id="ks8pem2u3bv" transform="translate(5 22) rotate(270 0 2.5)"><path d="M 1e-13 1e-13 L 0 5" fill="none" stroke="#ff0000" stroke-width="1"/></g><g id="ks8pem2u3bw" transform="translate(3.75 25.75) rotate(270 1.25 0)"><path d="M 2.5 0 L 1e-13 1e-13" fill="none" stroke="#ff0000" stroke-width="1"/></g><g id="ks8pem2u3bx" transform="translate(43 22) rotate(270 0 2.5)"><path d="M 1e-13 1e-13 L 0 5" fill="none" stroke="#ff0000" stroke-width="1"/></g><g id="ks8pem2u3by" transform="translate(41.75 25.75) rotate(270 1.25 0)"><path d="M 2.5 0 L 1e-13 1e-13" fill="none" stroke="#ff0000" stroke-width="1"/></g></g></g></svg>