<?xml version="1.0" encoding="UTF-8"?>
<svg xmlns="http://www.w3.org/2000/svg" viewBox="0 0 64 64"><g id="ks8pbujq1kw" class="Group.cls" transform="translate(12.5 8.5)"><g class="Prim.cls"><g id="ks8pbujr1kx" transform="translate(2 2)"><ellipse fill="white" cx="18" cy="18" rx="18" ry="18" stroke="#000000" stroke-width="0.5"/></g><g id="ks8pbujr1ky" transform="translate(2 19.75)"><path d="M 0 24.849999999999902 L 1.0140845070422536e-13 0" fill="none" stroke="#000000" stroke-width="0.5"/></g><g id="ks8pbujr1kz" transform="translate(38 19.75)"><path d="M 0 24.849999999999902 L 1.0140845070422536e-13 0" fill="none" stroke="#000000" stroke-width="0.5"/></g><g id="ks8pbujr1l0" transform="translate(0 20) rotate(90 2 0)"><path d="M 4 0 L 1e-13 1e-13" fill="none" stroke="#ff0000"/></g><g id="ks8pbujr1l1" transform="translate(1 19) rotate(90 0 1)"><path d="M 0 2 L 1e-13 1e-13" fill="none" stroke="#ff0000"/></g><g id="ks8pbujr1l2" transform="translate(36 20) rotate(270 2 0)"><path d="M 4 0 L 1e-13 1e-13" fill="none" stroke="#ff0000"/></g><g id="ks8pbujr1l3" transform="translate(39 19) rotate(270 0 1)"><path d="M 0 2 L 1e-13 1e-13" fill="none" stroke="#ff0000"/></g><g id="ks8pbujr1l4" transform="translate(18 38)"><path d="M 4 0 L 1e-13 1e-13" fill="none" stroke="#ff0000"/></g><g id="ks8pbujr1l5" transform="translate(20 38)"><path d="M 0 2 L 1e-13 1e-13" fill="none" stroke="#ff0000"/></g><g id="ks8pbujr1l6" transform="translate(18 2) rotate(180 2 0)"><path d="M 4 0 L 1e-13 1e-13" fill="none" stroke="#ff0000"/></g><g id="ks8pbujr1l7" transform="translate(20 0) rotate(180 0 1)"><path d="M 0 2 L 1e-13 1e-13" fill="none" stroke="#ff0000"/></g></g></g></svg>