<?xml version="1.0" encoding="UTF-8"?>
<svg xmlns="http://www.w3.org/2000/svg" viewBox="0 0 64 64"><g id="ks8pefxb2xk" class="Group.cls" transform="translate(8 5.5)"><g class="Prim.cls"><g id="ks8pefxc2xl" transform="translate(24.5 1.5)"><path d="M 1e-13 1e-13 L 0 36.750036655910534" fill="none" stroke-linecap="butt" stroke="#000000" stroke-width="0.5"/></g><g id="ks8pefxc2xm" transform="translate(24.5 34.114)"><path fill="none" d="M 0 4.083299623773304 Q 15.618815990334895 7.758303289364358 18.375018327955267 8.166637029985587 C 21.437521382614477 8.574970770606816 24.50002443727369 6.53320124435484 24.50002443727369 4.083299623773304 M 0 4.135626836460321 Q 15.618815990334895 0.46062317086926746 18.375018327955267 0.05228943024803936 C 21.437521382614477 -0.35604431037318884 24.50002443727369 1.685624392732952 24.50002443727369 4.135626836460321" stroke-linecap="butt" stroke="#000000" stroke-width="0.5"/></g><g id="ks8pefxc2xn" transform="translate(0 34.114)"><path fill="none" d="M 24.50002443727369 4.083299623773304 Q 8.881309270084628 7.758303289364358 6.125006109318423 8.166637029985587 C 3.0625030546592114 8.574970770606816 0 6.53320124435484 0 4.083299623773304 M 24.50002443727369 4.135626836460321 Q 8.881309270084628 0.46062317086926746 6.125006109318423 0.05228943024803936 C 3.0625030546592114 -0.35604431037318884 0 1.685624392732952 0 4.135626836460321" stroke-linecap="butt" stroke="#000000" stroke-width="0.5"/></g><g id="ks8pefxc2xo" transform="translate(22.5 2) rotate(180 2 0)"><path d="M 4 0 L 1e-13 1e-13" fill="none" stroke="#ff0000"/></g><g id="ks8pefxc2xp" transform="translate(24.5 0) rotate(180 0 1)"><path d="M 0 2 L 1e-13 1e-13" fill="none" stroke="#ff0000"/></g></g></g></svg>