<?xml version="1.0" encoding="UTF-8"?>
<svg xmlns="http://www.w3.org/2000/svg" viewBox="0 0 64 64"><g id="ks8pccaf2t9" class="Group.cls" transform="translate(5.5 22.5)"><g class="Prim.cls"><g id="ks8pccaf2ta" transform="translate(17 0)"><rect fill="white" height="20" stroke-linecap="butt" stroke="#000000" stroke-width="0.5" width="30" x="0" y="0"/></g><g id="ks8pccaf2tb" transform="translate(2 10)"><path d="M 1e-13 1e-13 L 10 0" fill="none" stroke-linecap="butt" stroke="#000000" stroke-width="0.5"/></g><g id="ks8pccaf2tc" transform="translate(47 0)"><path fill="white" d="M 0 0 C 6.6667 0 6.6667 20 0 20 Z" stroke-linecap="butt" stroke="#000000" stroke-width="0.5"/></g><g id="ks8pccaf2td" transform="translate(12 0)"><path fill="white" d="M 5 0 C -1.6667 0 -1.6667 20 5 20 Z" stroke-linecap="butt" stroke="#000000" stroke-width="0.5"/></g><g id="ks8pccaf2te" transform="translate(0.5 10) rotate(270 1.5 0)"><path d="M 2.9999999999999 0 L 1e-13 1e-13" fill="none" stroke-linecap="square" stroke="#000000" stroke-width="0.5"/></g><g id="ks8pccaf2tf" transform="translate(0 10) rotate(90 2 0)"><path d="M 9.992007221626409e-14 0 L 4 1e-13" fill="none" stroke="#ff0000" stroke-width="1"/></g><g id="ks8pccaf2tg" transform="translate(1 9) rotate(90 0 1)"><path d="M 0 2 L 0 1e-13" fill="none" stroke="#ff0000" stroke-width="1"/></g></g></g></svg>