<?xml version="1.0" encoding="UTF-8"?>
<svg xmlns="http://www.w3.org/2000/svg" viewBox="0 0 64 64"><g id="ks8pbw7p1se" class="Group.cls" transform="translate(18.5 1.5)"><g class="Prim.cls"><g id="ks8pbw7u1sf" transform="translate(5 52)"><path d="M 1e-13 1e-13 L 0 9 L 18 9 L 18 0" fill="none" fill-opacity="1" stroke-linecap="butt" stroke="#000000" stroke-width="0.5"/></g><g id="ks8pbw7u1sg" transform="translate(5 52) rotate(180 9 2.507)"><path d="M 0 5.013799999999998 C 0 2.236128129648829 4.014 0 9 0 C 13.986 0 18 2.236128129648829 18 5.013799999999998" fill="#ffffff" fill-opacity="1" stroke="#000000" stroke-width="0.5"/></g><g id="ks8pbw7u1sh" transform="translate(5 2)"><path d="M 0 4.0345 C 0 1.7994 4.014 0 9 0 C 13.986 0 18 1.7994 18 4.0345" fill="#ffffff" fill-opacity="1" stroke="#000000" stroke-width="0.5"/></g><g id="ks8pbw7u1si" transform="translate(5 6.034)"><path fill="white" d="M 0 45.9656 L 18 45.9656 L 18 0 L 0 0 Z" stroke="#000000" stroke-width="0.5"/></g><g id="ks8pbw7u1sj" transform="translate(5 9.036)"><rect fill="none" height="4.964379734463162" stroke-dasharray="1 0.5" stroke-linecap="butt" stroke="#000000" stroke-width="0.5" width="18" x="0" y="0"/></g><g id="ks8pbw7u1sk" transform="translate(5.125 9)"><path d="M 1e-13 1e-13 L 4.2916 5" fill="none" stroke-dasharray="1 0.5" stroke-linecap="butt" stroke="#000000" stroke-width="0.5"/></g><g id="ks8pbw7u1sl" transform="translate(9.417 9.036)"><path d="M 1e-13 1e-13 L 4.5833 4.964379627384794" fill="none" stroke-dasharray="1 0.5" stroke-linecap="butt" stroke="#000000" stroke-width="0.5"/></g><g id="ks8pbw7u1sm" transform="translate(14 9.036)"><path d="M 1e-13 1e-13 L 4.5833 4.964379627384794" fill="none" stroke-dasharray="1 0.5" stroke-linecap="butt" stroke="#000000" stroke-width="0.5"/></g><g id="ks8pbw7u1sn" transform="translate(18.583 9.036)"><path d="M 1e-13 1e-13 L 4.5833 4.964379627384794" fill="none" stroke-dasharray="1 0.5" stroke-linecap="butt" stroke="#000000" stroke-width="0.5"/></g><g id="ks8pbw7u1so" transform="translate(5 9.036)"><path d="M 0 4.901997351783816 L 4.4166 0" fill="none" stroke-dasharray="1 0.5" stroke-linecap="butt" stroke="#000000" stroke-width="0.5"/></g><g id="ks8pbw7u1sp" transform="translate(9.417 9.036)"><path d="M 0 4.964379627384794 L 4.5833 0" fill="none" stroke-dasharray="1 0.5" stroke-linecap="butt" stroke="#000000" stroke-width="0.5"/></g><g id="ks8pbw7u1sq" transform="translate(14 9.036)"><path d="M 0 4.964379627384794 L 4.5833 0" fill="none" stroke-dasharray="1 0.5" stroke-linecap="butt" stroke="#000000" stroke-width="0.5"/></g><g id="ks8pbw7u1sr" transform="translate(18.583 9.036)"><path d="M 0 4.964379627384794 L 4.5833 0" fill="none" stroke-dasharray="1 0.5" stroke-linecap="butt" stroke="#000000" stroke-width="0.5"/></g><g id="ks8pbw7u1ss" transform="translate(5 9.036)"><path d="M 0 2.4822364372167627 L 2.2708 4.964379627384794 L 6.8125 0 L 11.3542 4.964379627384794 L 15.8958 0 L 18.1667 2.4822364372167627" fill="none" stroke-dasharray="1 0.5" stroke-linecap="butt" stroke="#000000" stroke-width="0.5"/></g><g id="ks8pbw7u1st" transform="translate(5 9.036)"><path d="M 0 2.068499281997726 L 2.2679 0 L 6.8036 4.964379627384794 L 11.3393 0 L 15.875 4.964379627384794" fill="none" stroke-dasharray="1 0.5" stroke-linecap="butt" stroke="#000000" stroke-width="0.5"/></g><g id="ks8pbw7u1su" transform="translate(2 18)"><path d="M 2.9999999999999 0 L 0 1e-13" fill="none" stroke-linecap="butt" stroke="#000000" stroke-width="0.5"/></g><g id="ks8pbw7u1sv" transform="translate(2 16.625)"><path d="M 1e-13 1e-13 L 0 3.0259" fill="none" stroke-linecap="butt" stroke="#000000" stroke-width="0.5"/></g><g id="ks8pbw7u1sw" transform="translate(7.5 18)"><path d="M 1 0 L 0 4 L 2 4 Z" fill="none" stroke-dasharray="1 0.5" stroke-linecap="butt" stroke="#000000" stroke-width="0.5"/></g><g id="ks8pbw7u1sx" transform="translate(5 25)"><path d="M 1e-13 1e-13 L 18 0" fill="none" stroke-dasharray="1 0.5" stroke-linecap="butt" stroke="#000000" stroke-width="0.5"/></g><g id="ks8pbw7u1sy" transform="translate(4.833 25)"><path d="M 0.16669999999789992 10 L 18.16669999999791 10 L 1e-13 1e-13" fill="none" stroke-dasharray="1 0.5" stroke-linecap="butt" stroke="#000000" stroke-width="0.5"/></g><g id="ks8pbw7u1sz" transform="translate(5 25)"><path d="M 18 0 L 0 10" fill="none" stroke-dasharray="1 0.5" stroke-linecap="butt" stroke="#000000" stroke-width="0.5"/></g><g id="ks8pbw7u1t0" transform="translate(25 43.106)"><path d="M 0 5.5474 L 1e-13 1e-13" fill="none" stroke-linecap="butt" stroke="#000000" stroke-width="0.5"/></g><g id="ks8pbw7u1t1" transform="translate(23 44)"><path fill="white" d="M 2 4 L 2 0 L 0 0 L 0 4 Z" stroke-linecap="butt" stroke="#000000" stroke-width="0.5"/></g><g id="ks8pbw7u1t2" transform="translate(14 57)"><path d="M 1e-13 1e-13 L 0 2 L 10.5 2" fill="none" stroke-linecap="butt" stroke="#000000" stroke-width="0.5"/></g><g id="ks8pbw7u1t3" transform="translate(25.083 57.901)"><path d="M 1e-13 1e-13 L 0 1.7746" fill="none" stroke-linecap="butt" stroke="#000000" stroke-width="0.5"/></g><g id="ks8pbw7u1t4" transform="translate(12 54)"><path d="M 0 2.7655 L 1e-13 1e-13 L 4 0 L 4 2.7655" fill="none" stroke-dasharray="1 0.5" stroke-linecap="butt" stroke="#000000" stroke-width="0.5"/></g><g id="ks8pbw7u1t5" transform="translate(12 54)"><path d="M 1e-13 1e-13 L 4 2.9067" fill="none" stroke-dasharray="1 0.5" stroke-linecap="butt" stroke="#000000" stroke-width="0.5"/></g><g id="ks8pbw7u1t6" transform="translate(11.938 54)"><path d="M 4.0625 0 L 0 2.9067" fill="none" stroke-dasharray="1 0.5" stroke-linecap="butt" stroke="#000000" stroke-width="0.5"/></g><g id="ks8pbw7u1t7" transform="translate(10.5 18)"><path d="M 1 0 L 0 4 L 2 4 Z" fill="none" stroke-dasharray="1 0.5" stroke-linecap="butt" stroke="#000000" stroke-width="0.5"/></g><g id="ks8pbw7u1t8" transform="translate(13.5 18)"><path d="M 1 0 L 0 4 L 2 4 Z" fill="none" stroke-dasharray="1 0.5" stroke-linecap="butt" stroke="#000000" stroke-width="0.5"/></g><g id="ks8pbw7u1t9" transform="translate(16.5 18)"><path d="M 1 0 L 0 4 L 2 4 Z" fill="none" stroke-dasharray="1 0.5" stroke-linecap="butt" stroke="#000000" stroke-width="0.5"/></g><g id="ks8pbw7u1ta" transform="translate(19.5 18)"><path d="M 1 0 L 0 4 L 2 4 Z" fill="none" stroke-dasharray="1 0.5" stroke-linecap="butt" stroke="#000000" stroke-width="0.5"/></g><g id="ks8pbw7u1tb" transform="translate(5 18)"><path d="M 1e-13 1e-13 L 15.5 0" fill="none" stroke-dasharray="1 0.5" stroke-linecap="butt" stroke="#000000" stroke-width="0.5"/></g><g id="ks8pbw7u1tc" transform="translate(0 18) rotate(90 2 0)"><path d="M 4 0 L 1e-13 1e-13" fill="none" stroke="#ff0000"/></g><g id="ks8pbw7u1td" transform="translate(1 17) rotate(90 0 1)"><path d="M 0 2 L 1e-13 1e-13" fill="none" stroke="#ff0000"/></g><g id="ks8pbw7u1te" transform="translate(23.5 46) rotate(270 2.5 0)"><path d="M 5 0 L 1e-13 1e-13" fill="none" stroke="#ff0000"/></g><g id="ks8pbw7u1tf" transform="translate(27 45) rotate(270 0 1)"><path d="M 0 2 L 1e-13 1e-13" fill="none" stroke="#ff0000"/></g><g id="ks8pbw7u1tg" transform="translate(23 59) rotate(270 2 0)"><path d="M 4 0 L 1e-13 1e-13" fill="none" stroke="#ff0000"/></g><g id="ks8pbw7u1th" transform="translate(26 58) rotate(270 0 1)"><path d="M 0 2 L 1e-13 1e-13" fill="none" stroke="#ff0000"/></g><g id="ks8pbw7u1ti" transform="translate(12 2) rotate(180 2 0)"><path d="M 4 0 L 1e-13 1e-13" fill="none" stroke="#ff0000"/></g><g id="ks8pbw7v1tj" transform="translate(14 0) rotate(180 0 1)"><path d="M 0 2 L 1e-13 1e-13" fill="none" stroke="#ff0000"/></g></g></g></svg>