<?xml version="1.0" encoding="UTF-8"?>
<svg xmlns="http://www.w3.org/2000/svg" viewBox="0 0 64 64"><g id="ks8pcf142wd" class="Group.cls" transform="translate(5.5 18.5)"><g class="Prim.cls"><g id="ks8pcf162we" transform="translate(10 2)"><rect fill="white" height="24" stroke-linecap="square" stroke="#000000" stroke-width="0.5" width="24" x="0" y="0"/></g><g id="ks8pcf162wf" transform="translate(37.147 2)"><path d="M 0 2.7692549999999994 L 2.7420905882352935 12.000015 L 5.484181176470587 2.7692549999999994 C 3.6560811764705874 -0.9230849999999997 1.8280999999999994 -0.9230849999999997 0 2.7692549999999994" fill="#ffffff" fill-opacity="1" stroke="#000000" stroke-linecap="square" stroke-opacity="1" stroke-width="0.5"/></g><g id="ks8pcf162wg" transform="translate(37.147 14) rotate(180 2.742 6)"><path d="M 0 2.7692549999999994 L 2.7420905882352935 12.000015 L 5.484181176470587 2.7692549999999994 C 3.6560811764705874 -0.9230849999999997 1.8280999999999994 -0.9230849999999997 0 2.7692549999999994" fill="#ffffff" fill-opacity="1" stroke="#000000" stroke-linecap="square" stroke-opacity="1" stroke-width="0.5"/></g><g id="ks8pcf162wh" transform="translate(46.059 2)"><rect fill="white" height="24" stroke-linecap="square" stroke="#000000" stroke-width="0.5" width="5.9411764705882355" x="0" y="0"/></g><g id="ks8pcf162wi" transform="translate(50 14) rotate(270 2 0)"><path d="M 4 0 L 1e-13 1e-13" fill="none" stroke="#ff0000" stroke-width="1"/></g><g id="ks8pcf162wj" transform="translate(53 13) rotate(270 0 1)"><path d="M 0 2 L 1e-13 1e-13" fill="none" stroke="#ff0000" stroke-width="1"/></g><g id="ks8pcf162wk" transform="translate(20 2) rotate(180 2 0)"><path d="M 4 0 L 1e-13 1e-13" fill="none" stroke="#ff0000" stroke-width="1"/></g><g id="ks8pcf162wl" transform="translate(22 0) rotate(180 0 1)"><path d="M 0 2 L 1e-13 1e-13" fill="none" stroke="#ff0000" stroke-width="1"/></g><g id="ks8pcf162wm" transform="translate(20 26)"><path d="M 4 0 L 1e-13 1e-13" fill="none" stroke="#ff0000" stroke-width="1"/></g><g id="ks8pcf162wn" transform="translate(22 26)"><path d="M 0 2 L 1e-13 1e-13" fill="none" stroke="#ff0000" stroke-width="1"/></g><g id="ks8pcf162wo" transform="translate(2 14)"><path d="M 8 0 L 0 1e-13" fill="none" stroke-linecap="butt" stroke="#000000" stroke-width="0.5"/></g><g id="ks8pcf162wp" transform="translate(0 14) rotate(90 2 0)"><path d="M 4 0 L 1e-13 1e-13" fill="none" stroke="#ff0000" stroke-width="1"/></g><g id="ks8pcf162wq" transform="translate(1 13) rotate(90 0 1)"><path d="M 0 2 L 1e-13 1e-13" fill="none" stroke="#ff0000" stroke-width="1"/></g></g></g></svg>