<?xml version="1.0" encoding="UTF-8"?>
<svg xmlns="http://www.w3.org/2000/svg" viewBox="0 0 64 64"><g id="ks8pbpm314y" class="Group.cls" transform="translate(5.5 14)"><g class="Prim.cls"><g id="ks8pbpm314z" transform="translate(2 8.409)"><rect fill="white" height="28.5909" stroke="none" stroke-linecap="butt" stroke-width="0.5" width="49" x="0" y="0"/></g><g id="ks8pbpm3150" transform="translate(2 8.617)"><path d="M 25 0 L 25 7.962720000000003 L 36 13.832938200651085 L 6.5 24.88350000000001 L 0 24.88350000000001" fill="none" stroke-linecap="butt" stroke="#000000" stroke-width="0.5"/></g><g id="ks8pbpm3151" transform="translate(2 0)"><path d="M 1e-13 1e-13 L 0 36.5 L 49 36.5 L 49 0" fill="none" stroke-linecap="butt" stroke="#000000" stroke-width="0.5"/></g><g id="ks8pbpm3152" transform="translate(3 4.562)"><rect fill="none" height="4.0548" stroke-linecap="butt" stroke="#000000" stroke-width="0.5" width="4" x="0" y="0"/></g><g id="ks8pbpm3153" transform="translate(46 4.562)"><rect fill="none" height="4.0548" stroke-linecap="butt" stroke="#000000" stroke-width="0.5" width="4" x="0" y="0"/></g><g id="ks8pbpm3154" transform="translate(7 8.616)"><path d="M 1e-13 1e-13 L 39 0" fill="none" stroke-linecap="butt" stroke="#000000" stroke-width="0.5"/></g><g id="ks8pbpm3155" transform="translate(0 18.5) rotate(90 2 0)"><path d="M 4 0 L 1e-13 1e-13" fill="none" stroke="#ff0000"/></g><g id="ks8pbpm3156" transform="translate(1 17.5) rotate(90 0 1)"><path d="M 0 2 L 1e-13 1e-13" fill="none" stroke="#ff0000"/></g><g id="ks8pbpm4157" transform="translate(49 18.5) rotate(270 2 0)"><path d="M 4 0 L 1e-13 1e-13" fill="none" stroke="#ff0000"/></g><g id="ks8pbpm4158" transform="translate(52 17.5) rotate(270 0 1)"><path d="M 0 2 L 1e-13 1e-13" fill="none" stroke="#ff0000"/></g><g id="ks8pbpm4159" transform="translate(25 36.5)"><path d="M 4 0 L 1e-13 1e-13" fill="none" stroke="#ff0000"/></g><g id="ks8pbpm415a" transform="translate(27 36.5)"><path d="M 0 2 L 1e-13 1e-13" fill="none" stroke="#ff0000"/></g><g id="ks8pbpm415b" transform="translate(25 8.5) rotate(180 2 0)"><path d="M 4 0 L 1e-13 1e-13" fill="none" stroke="#ff0000"/></g><g id="ks8pbpm415c" transform="translate(27 6.5) rotate(180 0 1)"><path d="M 0 2 L 1e-13 1e-13" fill="none" stroke="#ff0000"/></g></g></g></svg>