<?xml version="1.0" encoding="UTF-8"?>
<svg xmlns="http://www.w3.org/2000/svg" viewBox="0 0 64 64"><g id="ks8pc4lt2ag" class="Group.cls" transform="translate(18.5 3.5)"><g class="Prim.cls"><g id="ks8pc4lt2ah" transform="translate(2 32)"><rect fill="white" height="11.979999542236328" stroke-linecap="square" stroke="#000000" stroke-width="0.5" width="3" x="0" y="0"/></g><g id="ks8pc4lt2ai" transform="translate(20.6 43)"><rect fill="none" height="3" stroke-linecap="square" stroke="#000000" stroke-width="0.5" width="12.399999618530273" x="0" y="0"/></g><g id="ks8pc4lt2aj" transform="translate(2 32.2)"><ellipse fill="white" cx="12.399999766171316" cy="12.399999618530273" rx="12.399999766171316" ry="12.399999618530273" stroke-linecap="square" stroke="#000000" stroke-width="0.5"/></g><g id="ks8pc4lt2ak" transform="translate(14 25.25)"><path d="M 1e-13 1e-13 L 0 6.75" fill="none" stroke-linecap="square" stroke="#000000" stroke-width="0.5"/></g><g id="ks8pc4lt2al" transform="translate(14.4 38.787)"><path d="M 5.812500168103543 0 Q 0 0 0 4.650000065094836" fill="none" stroke="#000000" stroke-width="0.5"/></g><g id="ks8pc4lt2am" transform="translate(8.587 38.788)"><path d="M 1e-13 1e-13 Q 0 5.812500081368545 4.650000058457173 5.812500081368545" fill="none" stroke="#000000" stroke-width="0.5"/></g><g id="ks8pc4lt2an" transform="translate(8.588 45.763)"><path d="M 0 4.4175000618400935 Q 5.812500168103543 4.4175000618400935 5.812500168103543 0" fill="none" stroke="#000000" stroke-width="0.5"/></g><g id="ks8pc4lt2ao" transform="translate(15.562 44.6)"><path d="M 4.650000058457173 5.812500081368481 Q 4.650000058457173 -6.200000086793047e-14 0 6.613329201017185e-28" fill="none" stroke="#000000" stroke-width="0.5"/></g><g id="ks8pc4lt2ap" transform="translate(11.079 37.751) rotate(315 2.91 2.328)"><path d="M 5.819500528246991 0 Q 0 0 0 4.655600422597593" fill="none" stroke="#000000" stroke-width="0.5"/></g><g id="ks8pc4lt2aq" transform="translate(7.551 42.101) rotate(315 2.328 2.91)"><path d="M 1e-13 1e-13 Q 0 5.819500528246991 4.655600422597593 5.819500528246991" fill="none" stroke="#000000" stroke-width="0.5"/></g><g id="ks8pc4lt2ar" transform="translate(11.819 46.827) rotate(315 2.91 2.211)"><path d="M 0 4.422820401467714 Q 5.819500528246991 4.422820401467714 5.819500528246991 0" fill="none" stroke="#000000" stroke-width="0.5"/></g><g id="ks8pc4lt2as" transform="translate(16.593 41.279) rotate(315 2.328 2.91)"><path d="M 4.65560042259753 5.8195005282469285 Q 4.65560042259753 -6.207467230130058e-14 0 6.621294148821626e-28" fill="none" stroke="#000000" stroke-width="0.5"/></g><g id="ks8pc4lt2at" transform="translate(9.75 40.26)"><ellipse fill="white" cx="4.650000275804863" cy="4.649999141693115" rx="4.650000275804863" ry="4.649999141693115" stroke="#000000" stroke-width="0.5"/></g><g id="ks8pc4lt2au" transform="translate(4.5 6.5) rotate(90 9.5 6)"><rect fill="white" height="12" stroke-linecap="square" stroke="#000000" stroke-width="0.5" width="19" x="0" y="0"/></g><g id="ks8pc4lt2av" transform="translate(12.5 -4.5) rotate(90 1.5 6)"><path fill="white" d="M 3 0 Q 0 0 0 3 L 0 8.999999999999998 Q 0 12 3 12 Z" stroke-linecap="square" stroke="#000000" stroke-width="0.5"/></g><g id="ks8pc4lt2aw" transform="translate(12.5 17.5) rotate(90 1.5 6)"><path fill="white" d="M 0 0 Q 3 0 3 3 L 3 8.999999999999998 Q 3 12 0 12 Z" stroke-linecap="square" stroke="#000000" stroke-width="0.5"/></g><g id="ks8pc4lt2ax" transform="translate(33 43.425) rotate(180 0 1.425)"><path d="M 1e-13 1e-13 L 0 2.85" fill="none" stroke-linecap="butt" stroke="#000000" stroke-width="0.5"/></g><g id="ks8pc4lt2ay" transform="translate(30.959 44.541) rotate(270 2.041 0)"><path d="M 1e-13 1e-13 L 4.082 0" fill="none" stroke="#ff0000"/></g><g id="ks8pc4lt2az" transform="translate(34 43.541) rotate(270 0 1)"><path d="M 0 2 L 1e-13 1e-13" fill="none" stroke="#ff0000"/></g><g id="ks8pc4lt2b0" transform="translate(2 43.392)"><path d="M 1e-13 1e-13 L 0 2.85" fill="none" stroke-linecap="butt" stroke="#000000" stroke-width="0.5"/></g><g id="ks8pc4lt2b1" transform="translate(-0.041 45.126) rotate(90 2.041 0)"><path d="M 1e-13 1e-13 L 4.082 0" fill="none" stroke="#ff0000"/></g><g id="ks8pc4lt2b2" transform="translate(1 44.126) rotate(90 0 1)"><path d="M 0 2 L 1e-13 1e-13" fill="none" stroke="#ff0000"/></g></g></g></svg>