<?xml version="1.0" encoding="UTF-8"?>
<svg xmlns="http://www.w3.org/2000/svg" viewBox="0 0 64 64"><g id="ks8pbz6b1xx" class="Group.cls" transform="translate(19.5 1.5)"><g class="Prim.cls"><g id="ks8pbz6b1xy" transform="translate(15 8.551)"><path fill="white" d="M 7.200049846307219 0 L 9 2.1934423786239416 L 9 43.86884757247883 C 9 48.25563078146844 1.7999501536927802 50.44917470835066 1.7999501536927802 50.44917470835066 L 0 48.25563078146844 Z" stroke-linecap="butt" stroke="#000000" stroke-width="0.5"/></g><g id="ks8pbz6b1xz" transform="translate(2 8.551)"><path fill="white" d="M 1.8999473844534902 0 L 0 2.1934423786239416 L 0 43.86884757247883 C 0 48.25563078146844 7.600052615546509 50.44917470835066 7.600052615546509 50.44917470835066 L 9.5 48.25563078146844 Z" stroke-linecap="butt" stroke="#000000" stroke-width="0.5"/></g><g id="ks8pbz6b1y0" transform="translate(4 1.84)"><path fill="white" d="M 0 50.74718760461346 L 0 4.412728972776424 C 0 -1.4709096575921414 18 -1.4709096575921414 18 4.412728972776424 L 18 50.74718760461346 C 18 56.63082623498201 0 56.63082623498201 0 50.74718760461346 Z" stroke-linecap="butt" stroke="#000000" stroke-width="0.5"/></g><g id="ks8pbz6b1y1" transform="translate(0 31) rotate(90 2 0)"><path d="M 4 0 L 1e-13 1e-13" fill="none" stroke="#ff0000"/></g><g id="ks8pbz6b1y2" transform="translate(1 30) rotate(90 0 1)"><path d="M 0 2 L 1e-13 1e-13" fill="none" stroke="#ff0000"/></g><g id="ks8pbz6b1y3" transform="translate(22 31) rotate(270 2 0)"><path d="M 4 0 L 1e-13 1e-13" fill="none" stroke="#ff0000"/></g><g id="ks8pbz6b1y4" transform="translate(25 30) rotate(270 0 1)"><path d="M 0 2 L 1e-13 1e-13" fill="none" stroke="#ff0000"/></g><g id="ks8pbz6b1y5" transform="translate(11 57)"><path d="M 4 0 L 1e-13 1e-13" fill="none" stroke="#ff0000"/></g><g id="ks8pbz6b1y6" transform="translate(13 57)"><path d="M 0 2 L 1e-13 1e-13" fill="none" stroke="#ff0000"/></g><g id="ks8pbz6b1y7" transform="translate(11 2) rotate(180 2 0)"><path d="M 4 0 L 1e-13 1e-13" fill="none" stroke="#ff0000"/></g><g id="ks8pbz6b1y8" transform="translate(13 0) rotate(180 0 1)"><path d="M 0 2 L 1e-13 1e-13" fill="none" stroke="#ff0000"/></g></g></g></svg>