<?xml version="1.0" encoding="UTF-8"?>
<svg xmlns="http://www.w3.org/2000/svg" viewBox="0 0 64 64"><g id="ks8pc64i2ef" class="Group.cls" transform="translate(23.5 3.5)"><g class="Prim.cls"><g id="ks8pc64j2eg" transform="translate(2 22)"><path d="M 1e-13 1e-13 L 14 0" fill="none" stroke-linecap="butt" stroke="#000000" stroke-width="0.5"/></g><g id="ks8pc64j2eh" transform="translate(6 20) rotate(90 3 3)"><rect fill="white" height="6" stroke-linecap="square" stroke="#000000" stroke-width="0.5" width="6.0000878277299705" x="0" y="0"/></g><g id="ks8pc64j2ei" transform="translate(4.029 3.971) rotate(90 4.971 3)"><rect fill="white" height="5.999916198499816" stroke-linecap="square" stroke="#000000" stroke-width="0.5" width="9.941149711608887" x="0" y="0"/></g><g id="ks8pc64j2ej" transform="translate(8 -2) rotate(90 1 3)"><path fill="white" d="M 1.9999499999999986 0 Q 0 0 0 1.5000010321712958 L 0 4.499915166328522 Q 0 5.999916198499816 1.9999499999999986 5.999916198499816 Z" stroke-linecap="square" stroke="#000000" stroke-width="0.5"/></g><g id="ks8pc64j2ek" transform="translate(-7 37) rotate(90 16 5)"><rect fill="#ffffff" fill-opacity="1" height="10" stroke-linecap="square" stroke="#000000" stroke-width="0.5" width="31.999912172270026" x="0" y="0"/></g><g id="ks8pc64j2el" transform="translate(9 13.647)"><path d="M 1e-13 1e-13 L 0 6.3529" fill="none" stroke-linecap="butt" stroke="#000000" stroke-width="0.5"/></g><g id="ks8pc64j2em" transform="translate(16 20)"><path d="M 1e-13 1e-13 L 0 3.8823000000000008" fill="none" stroke-linecap="butt" stroke="#000000" stroke-width="0.5"/></g><g id="ks8pc64j2en" transform="translate(2 20)"><path d="M 1e-13 1e-13 L 0 3.8823000000000008" fill="none" stroke-linecap="butt" stroke="#000000" stroke-width="0.5"/></g><g id="ks8pc64j2eo" transform="translate(7.971 9.971) rotate(90 1.029 3)"><path fill="white" d="M 0 0 Q 2.058750000000003 0 2.058750000000003 1.5000010321712958 L 2.058750000000003 4.499915166328522 Q 2.058750000000003 5.999916198499816 0 5.999916198499816 Z" stroke-linecap="square" stroke="#000000" stroke-width="0.5"/></g><g id="ks8pc64j2ep" transform="translate(16 20.925) rotate(180 0 1.425)"><path d="M 1e-13 1e-13 L 0 2.85" fill="none" stroke-linecap="butt" stroke="#000000" stroke-width="0.5"/></g><g id="ks8pc64j2eq" transform="translate(13.959 22.041) rotate(270 2.041 0)"><path d="M 1e-13 1e-13 L 4.082 0" fill="none" stroke="#ff0000"/></g><g id="ks8pc64j2er" transform="translate(17 21.041) rotate(270 0 1)"><path d="M 0 2 L 1e-13 1e-13" fill="none" stroke="#ff0000"/></g><g id="ks8pc64j2es" transform="translate(-0.041 22.041) rotate(90 2.041 0)"><path d="M 1e-13 1e-13 L 4.082 0" fill="none" stroke="#ff0000"/></g><g id="ks8pc64j2et" transform="translate(1 21.041) rotate(90 0 1)"><path d="M 0 2 L 1e-13 1e-13" fill="none" stroke="#ff0000"/></g></g></g></svg>