<?xml version="1.0" encoding="UTF-8"?>
<svg xmlns="http://www.w3.org/2000/svg" viewBox="0 0 64 64"><g id="ks8pbscb1gb" class="Group.cls" transform="translate(5.5 9.5)"><g class="Prim.cls"><g id="ks8pbscb1gc" transform="translate(2 2)"><path d="M 0 10 L 25 0 L 50 10" fill="#ffffff" fill-opacity="1" stroke="#000000" stroke-width="0.5"/></g><g id="ks8pbscb1gd" transform="translate(2 12)"><rect fill="#ffffff" fill-opacity="1" height="30" stroke="#000000" stroke-width="0.5" width="50" x="0" y="0"/></g><g id="ks8pbscb1ge" transform="translate(0 23) rotate(90 2 0)"><path d="M 4 0 L 1e-13 1e-13" fill="none" stroke="#ff0000"/></g><g id="ks8pbscb1gf" transform="translate(1 22) rotate(90 0 1)"><path d="M 0 2 L 1e-13 1e-13" fill="none" stroke="#ff0000"/></g><g id="ks8pbscb1gg" transform="translate(50 23) rotate(270 2 0)"><path d="M 4 0 L 1e-13 1e-13" fill="none" stroke="#ff0000"/></g><g id="ks8pbscb1gh" transform="translate(53 22) rotate(270 0 1)"><path d="M 0 2 L 1e-13 1e-13" fill="none" stroke="#ff0000"/></g><g id="ks8pbscb1gi" transform="translate(25 42)"><path d="M 4 0 L 1e-13 1e-13" fill="none" stroke="#ff0000"/></g><g id="ks8pbscb1gj" transform="translate(27 42)"><path d="M 0 2 L 1e-13 1e-13" fill="none" stroke="#ff0000"/></g><g id="ks8pbscb1gk" transform="translate(25 2) rotate(180 2 0)"><path d="M 4 0 L 1e-13 1e-13" fill="none" stroke="#ff0000"/></g><g id="ks8pbscb1gl" transform="translate(27 0) rotate(180 0 1)"><path d="M 0 2 L 1e-13 1e-13" fill="none" stroke="#ff0000"/></g></g></g></svg>