<?xml version="1.0" encoding="UTF-8"?>
<svg xmlns="http://www.w3.org/2000/svg" viewBox="0 0 64 64"><g id="ks8pbvcg1nz" class="Group.cls" transform="translate(21.5 1.5)"><g class="Prim.cls"><g id="ks8pbvch1o0" transform="translate(2 52) rotate(180 9 2.242)"><path d="M 0 4.484849999999993 C 0 2.0002641264025085 4.013964151729887 0 9 0 C 13.985827428095039 0 18 2.0002641264025085 18 4.484849999999993" fill="#ffffff" fill-opacity="1" stroke="#000000" stroke-width="0.5"/></g><g id="ks8pbvch1o1" transform="translate(2 2)"><path d="M 0 3.99995 C 0 1.7839964530371657 4.013964151729888 0 9 0 C 13.98582742809504 0 18 1.7839964530371657 18 3.99995" fill="#ffffff" fill-opacity="1" stroke="#000000" stroke-width="0.5"/></g><g id="ks8pbvch1o2" transform="translate(2 6)"><path d="M 0 46.00050000000001 L 18 46.00050000000001 L 18 0 L 0 0 Z" fill="#ffffff" fill-opacity="1" stroke="#000000" stroke-width="0.5"/></g><g id="ks8pbvch1o3" transform="translate(2 52.192)"><path d="M 1e-13 1e-13 L 0 7.8077 L 18 7.8077 L 18 0" fill="none" fill-opacity="1" stroke-linecap="butt" stroke="#000000" stroke-width="0.5"/></g><g id="ks8pbvch1o4" transform="translate(2 13)"><path d="M 1e-13 1e-13 L 14 0" fill="none" stroke-dasharray="1 0.5" stroke-linecap="butt" stroke="#000000" stroke-width="0.5"/></g><g id="ks8pbvch1o5" transform="translate(6 16) rotate(180 7 0)"><path d="M 1e-13 1e-13 L 14 0" fill="none" stroke-dasharray="1 0.5" stroke-linecap="butt" stroke="#000000" stroke-width="0.5"/></g><g id="ks8pbvch1o6" transform="translate(6 10) rotate(180 7 0)"><path d="M 1e-13 1e-13 L 14 0" fill="none" stroke-dasharray="1 0.5" stroke-linecap="butt" stroke="#000000" stroke-width="0.5"/></g><g id="ks8pbvch1o7" transform="translate(2 32)"><path d="M 1e-13 1e-13 L 7 0" fill="none" stroke-dasharray="1 0.5" stroke-linecap="butt" stroke="#000000" stroke-width="0.5"/></g><g id="ks8pbvch1o8" transform="translate(9 31)"><path d="M 1e-13 1e-13 L 0 2" fill="none" stroke-linecap="butt" stroke="#000000" stroke-width="0.5"/></g><g id="ks8pbvch1o9" transform="translate(13 32)"><path d="M 7 0 L 1e-13 1e-13" fill="none" stroke-dasharray="1 0.5" stroke-linecap="butt" stroke="#000000" stroke-width="0.5"/></g><g id="ks8pbvch1oa" transform="translate(13 31)"><path d="M 1e-13 1e-13 L 0 2" fill="none" stroke-linecap="butt" stroke="#000000" stroke-width="0.5"/></g><g id="ks8pbvch1ob" transform="translate(2 40)"><path d="M 1e-13 1e-13 L 11 0 L 11 3 L 18 3" fill="none" stroke-dasharray="1 0.5" stroke-linecap="butt" stroke="#000000" stroke-width="0.5"/></g><g id="ks8pbvci1oc" transform="translate(2 46)"><path d="M 1e-13 1e-13 L 18 0" fill="none" stroke-dasharray="1 0.5" stroke-linecap="butt" stroke="#000000" stroke-width="0.5"/></g><g id="ks8pbvci1od" transform="translate(2 48)"><path d="M 1e-13 1e-13 L 18 0" fill="none" stroke-dasharray="1 0.5" stroke-linecap="butt" stroke="#000000" stroke-width="0.5"/></g><g id="ks8pbvci1oe" transform="translate(2 50)"><path d="M 1e-13 1e-13 L 18 0" fill="none" stroke-dasharray="1 0.5" stroke-linecap="butt" stroke="#000000" stroke-width="0.5"/></g><g id="ks8pbvci1of" transform="translate(20 28.03)"><path d="M 1e-13 1e-13 L 0 1.7576" fill="none" stroke-linecap="butt" stroke="#000000" stroke-width="0.5"/></g><g id="ks8pbvci1og" transform="translate(2 24)"><path d="M 1e-13 1e-13 L 7 0" fill="none" stroke-dasharray="1 0.5" stroke-linecap="butt" stroke="#000000" stroke-width="0.5"/></g><g id="ks8pbvci1oh" transform="translate(9 22)"><path d="M 1e-13 1e-13 L 0 2" fill="none" stroke-linecap="butt" stroke="#000000" stroke-width="0.5"/></g><g id="ks8pbvci1oi" transform="translate(13 24)"><path d="M 7 0 L 1e-13 1e-13" fill="none" stroke-dasharray="1 0.5" stroke-linecap="butt" stroke="#000000" stroke-width="0.5"/></g><g id="ks8pbvci1oj" transform="translate(13 22)"><path d="M 1e-13 1e-13 L 0 2" fill="none" stroke-linecap="butt" stroke="#000000" stroke-width="0.5"/></g><g id="ks8pbvci1ok" transform="translate(2 20)"><path d="M 1e-13 1e-13 L 7 0" fill="none" stroke-dasharray="1 0.5" stroke-linecap="butt" stroke="#000000" stroke-width="0.5"/></g><g id="ks8pbvci1ol" transform="translate(9 18)"><path d="M 1e-13 1e-13 L 0 2" fill="none" stroke-linecap="butt" stroke="#000000" stroke-width="0.5"/></g><g id="ks8pbvci1om" transform="translate(13 20)"><path d="M 7 0 L 1e-13 1e-13" fill="none" stroke-dasharray="1 0.5" stroke-linecap="butt" stroke="#000000" stroke-width="0.5"/></g><g id="ks8pbvci1on" transform="translate(13 18)"><path d="M 1e-13 1e-13 L 0 2" fill="none" stroke-linecap="butt" stroke="#000000" stroke-width="0.5"/></g><g id="ks8pbvci1oo" transform="translate(6 29)"><path d="M 1e-13 1e-13 L 10 0" fill="none" stroke-dasharray="1 0.5" stroke-linecap="butt" stroke="#000000" stroke-width="0.5"/></g><g id="ks8pbvci1op" transform="translate(6 28)"><path d="M 1e-13 1e-13 L 0 2" fill="none" stroke-linecap="butt" stroke="#000000" stroke-width="0.5"/></g><g id="ks8pbvci1oq" transform="translate(16 28)"><path d="M 1e-13 1e-13 L 0 2" fill="none" stroke-dasharray="3 0.5" stroke-linecap="butt" stroke="#000000" stroke-width="0.5"/></g><g id="ks8pbvci1or" transform="translate(6 35)"><path d="M 1e-13 1e-13 L 10 0" fill="none" stroke-dasharray="1 0.5" stroke-linecap="butt" stroke="#000000" stroke-width="0.5"/></g><g id="ks8pbvci1os" transform="translate(6 34)"><path d="M 1e-13 1e-13 L 0 2" fill="none" stroke-linecap="butt" stroke="#000000" stroke-width="0.5"/></g><g id="ks8pbvci1ot" transform="translate(16 34)"><path d="M 1e-13 1e-13 L 0 2" fill="none" stroke-linecap="butt" stroke="#000000" stroke-width="0.5"/></g><g id="ks8pbvci1ou" transform="translate(0 29) rotate(90 2 0)"><path d="M 4 0 L 1e-13 1e-13" fill="none" stroke="#ff0000"/></g><g id="ks8pbvci1ov" transform="translate(1 28) rotate(90 0 1)"><path d="M 0 2 L 1e-13 1e-13" fill="none" stroke="#ff0000"/></g><g id="ks8pbvci1ow" transform="translate(18 29) rotate(270 2 0)"><path d="M 4 0 L 1e-13 1e-13" fill="none" stroke="#ff0000"/></g><g id="ks8pbvci1ox" transform="translate(21 28) rotate(270 0 1)"><path d="M 0 2 L 1e-13 1e-13" fill="none" stroke="#ff0000"/></g><g id="ks8pbvci1oy" transform="translate(9 60)"><path d="M 4 0 L 1e-13 1e-13" fill="none" stroke="#ff0000"/></g><g id="ks8pbvci1oz" transform="translate(11 60)"><path d="M 0 2 L 1e-13 1e-13" fill="none" stroke="#ff0000"/></g><g id="ks8pbvci1p0" transform="translate(9 2) rotate(180 2 0)"><path d="M 4 0 L 1e-13 1e-13" fill="none" stroke="#ff0000"/></g><g id="ks8pbvci1p1" transform="translate(11 0) rotate(180 0 1)"><path d="M 0 2 L 1e-13 1e-13" fill="none" stroke="#ff0000"/></g><g id="ks8pbvci1p2" transform="translate(6 15)"><path d="M 1e-13 1e-13 L 0 2" fill="none" stroke-linecap="butt" stroke="#000000" stroke-width="0.5"/></g><g id="ks8pbvci1p3" transform="translate(16 12)"><path d="M 1e-13 1e-13 L 0 2" fill="none" stroke-linecap="butt" stroke="#000000" stroke-width="0.5"/></g><g id="ks8pbvci1p4" transform="translate(6 9)"><path d="M 1e-13 1e-13 L 0 2" fill="none" stroke-linecap="butt" stroke="#000000" stroke-width="0.5"/></g></g></g></svg>