<?xml version="1.0" encoding="UTF-8"?>
<svg xmlns="http://www.w3.org/2000/svg" viewBox="0 0 64 64"><g id="ks8pbzy11ze" class="Group.cls" transform="translate(20.5 1.5)"><g class="Prim.cls"><g id="ks8pbzy11zf" transform="translate(2 8.692)"><path fill="white" d="M 18.333333333333336 0 L 20 2.2307692307692313 L 20 40.15384615384618 L 18.333333333333336 42.3846153846154 L 1.6666666666666679 42.3846153846154 L 0 40.15384615384618 L 0 2.2307692307692313 L 1.6666666666666679 0 Z" stroke-linecap="butt" stroke="#000000" stroke-width="0.5"/></g><g id="ks8pbzy11zg" transform="translate(2 52.192)"><path fill="white" d="M 18.332630582494346 0 L 1.6666027802267562 0 L 0 0.900698456437878 C 0.16666027802266628 4.683631973476967 6.666411120907028 6.30488919506515 6.666411120907028 6.30488919506515 L 8.416344040145132 4.413422436545603 L 8.832994735201815 3.7829335170390883 L 10.916248210485275 3.8730033626828773 L 11.666219461587302 4.5034922821893915 L 13.332826657626498 6.304889195064837 C 13.332823605506052 6.394959040708648 20.08256486542419 4.233282745258009 19.99923472641283 0.900698456437878 Z" stroke-linecap="butt" stroke="#000000" stroke-width="0.5"/></g><g id="ks8pbzy11zh" transform="translate(4 2)"><path fill="white" d="M 16 50.600002309996995 L 16 4.399997690003014 C 16 -1.4666548966614137 0 -1.466676896663616 0 4.399997690003014 L 0 50.600002309996995 C 0 56.46667689666361 16 56.46665489666141 16 50.600002309996995 Z" stroke-linecap="butt" stroke="#000000" stroke-width="0.5"/></g><g id="ks8pbzy11zi" transform="translate(20 31) rotate(270 2 0)"><path d="M 1e-13 1e-13 L 4 0" fill="none" stroke="#ff0000"/></g><g id="ks8pbzy11zj" transform="translate(23 30) rotate(270 0 1)"><path d="M 0 2 L 1e-13 1e-13" fill="none" stroke="#ff0000"/></g><g id="ks8pbzy11zk" transform="translate(0 31) rotate(90 2 0)"><path d="M 1e-13 1e-13 L 4 0" fill="none" stroke="#ff0000"/></g><g id="ks8pbzy11zl" transform="translate(1 30) rotate(90 0 1)"><path d="M 0 2 L 1e-13 1e-13" fill="none" stroke="#ff0000"/></g><g id="ks8pbzy11zm" transform="translate(10 57)"><path d="M 9.992007221626409e-14 0 L 4 1e-13" fill="none" stroke="#ff0000"/></g><g id="ks8pbzy11zn" transform="translate(12 57)"><path d="M 0 2 L 0 1e-13" fill="none" stroke="#ff0000"/></g><g id="ks8pbzy11zo" transform="translate(10 2) rotate(180 2 0)"><path d="M 9.992007221626409e-14 0 L 4 1e-13" fill="none" stroke="#ff0000"/></g><g id="ks8pbzy11zp" transform="translate(12 0) rotate(180 0 1)"><path d="M 0 2 L 0 1e-13" fill="none" stroke="#ff0000"/></g></g></g></svg>