<?xml version="1.0" encoding="UTF-8"?>
<svg xmlns="http://www.w3.org/2000/svg" viewBox="0 0 64 64"><g id="ks8pep6b3nu" class="Group.cls" transform="translate(4 5)"><g class="Prim.cls"><g id="ks8pep6b3nv" transform="translate(6.214 9.143)"><ellipse fill="white" cx="22.28569984436035" cy="21.428559653124015" rx="22.28569984436035" ry="21.428559653124015" stroke="#000000" stroke-width="0.5"/></g><g id="ks8pep6b3nw" transform="translate(8.071 10.929)"><ellipse fill="white" cx="20.428600311279297" cy="19.64288644455186" rx="20.428600311279297" ry="19.64288644455186" stroke="#000000" stroke-width="0.5"/></g><g id="ks8pep6b3nx" transform="translate(13.643 16.286)"><ellipse fill="white" cx="14.857099533081055" cy="14.285673208572156" rx="14.857099533081055" ry="14.285673208572156" stroke="#000000" stroke-width="0.5"/></g><g id="ks8pep6b3ny" transform="translate(15.5 18.071)"><ellipse fill="white" cx="13" cy="12.499999999999998" rx="13" ry="12.499999999999998" stroke="#000000" stroke-width="0.5"/></g><g id="ks8pep6b3nz" transform="translate(19.214 27)"><ellipse fill="white" cx="3.7142999172210693" cy="3.571442503425943" rx="3.7142999172210693" ry="3.571442503425943" stroke="#000000" stroke-width="0.5"/></g><g id="ks8pep6b3o0" transform="translate(17.5 9)"><path d="M 1e-13 1e-13 L 5.4285 21.571457692307696" fill="none" stroke-dasharray="3.5 3" stroke="#000000" stroke-width="0.5"/></g><g id="ks8pep6b3o1" transform="translate(30.357 27)"><ellipse fill="white" cx="3.7142999172210693" cy="3.571442503425943" rx="3.7142999172210693" ry="3.571442503425943" stroke="#000000" stroke-width="0.5"/></g><g id="ks8pep6b3o2" transform="translate(34.071 9.125)"><path d="M 5.4286 0 L 0 21.446457692307696" fill="none" stroke-dasharray="3.5 3" stroke="#000000" stroke-width="0.5"/></g><g id="ks8pep6b3o3" transform="translate(17.5 1.875)"><path d="M 0 7.1874999999999 L 1e-13 0" fill="none" stroke-linecap="butt" stroke="#000000" stroke-width="0.5"/></g><g id="ks8pep6b3o4" transform="translate(39.5 1.875)"><path d="M 0 7.1874999999999 L 0.0625 0" fill="none" stroke-linecap="butt" stroke="#000000" stroke-width="0.5"/></g><g id="ks8pep6b3o5" transform="translate(18.1 28.786)"><rect fill="none" height="3.928557352804059" stroke="#ffffff" stroke-linecap="butt" stroke-width="0.5" width="3.7142999172210693" x="0" y="0"/></g><g id="ks8pep6b3o6" transform="translate(2.25 30.5)"><path d="M 20.625 0 L 0 1e-13" fill="none" stroke="#000000" stroke-width="0.5"/></g><g id="ks8pep6b3o7" transform="translate(35.186 28.607)"><rect fill="none" height="3.928557352804059" stroke="#ffffff" stroke-linecap="butt" stroke-width="0.5" width="3.7142999172210693" x="0" y="0"/></g><g id="ks8pep6b3o8" transform="translate(34.125 30.5)"><path d="M 1e-13 1e-13 L 20.625 0" fill="none" stroke="#000000" stroke-width="0.5"/></g><g id="ks8pep6b3o9" transform="translate(17.5 0) rotate(90 0 2.5)"><path d="M 1e-13 1e-13 L 0 5" fill="none" stroke="#ff0000"/></g><g id="ks8pep6b3oa" transform="translate(16.25 1.25) rotate(90 1.25 0)"><path d="M 2.5 0 L 1e-13 1e-13" fill="none" stroke="#ff0000"/></g><g id="ks8pep6b3ob" transform="translate(2.5 28)"><path d="M 1e-13 1e-13 L 0 5" fill="none" stroke="#ff0000"/></g><g id="ks8pep6b3oc" transform="translate(0 30.5)"><path d="M 2.5 0 L 1e-13 1e-13" fill="none" stroke="#ff0000"/></g><g id="ks8pep6b3od" transform="translate(54.5 28)"><path d="M 1e-13 1e-13 L 0 5" fill="none" stroke="#ff0000" stroke-width="1"/></g><g id="ks8pep6b3oe" transform="translate(54.5 30.5)"><path d="M 9.992007221626409e-14 0 L 2.5 1e-13" fill="none" stroke="#ff0000" stroke-width="1"/></g><g id="ks8pep6b3of" transform="translate(39.5 0) rotate(90 0 2.5)"><path d="M 1e-13 1e-13 L 0 5" fill="none" stroke="#ff0000"/></g><g id="ks8pep6b3og" transform="translate(38.25 1.25) rotate(90 1.25 0)"><path d="M 2.5 0 L 1e-13 1e-13" fill="none" stroke="#ff0000"/></g></g></g></svg>