<?xml version="1.0" encoding="UTF-8"?>
<svg xmlns="http://www.w3.org/2000/svg" viewBox="0 0 64 64"><g id="ks8pei8833i" class="Group.cls" transform="translate(7.5 22)"><g class="Prim.cls"><g id="ks8pei8933j" transform="translate(42 4.4)"><path fill="none" d="M 1e-13 1e-13 L 0 11.2 M 0 1.1 L 3.1875 1.1 L 4.4375 1.1 C 5.8476750000000015 1.1 7 3.273200000000001 7 5.6 C 7 7.926800000000007 5.8476750000000015 10.1 4.4375 10.1 L 3.125 10.1 L 0 10.1" stroke-dasharray="none" stroke="#000000" stroke-width="0.5"/></g><g id="ks8pei8933k" transform="translate(9 4.4)"><path fill="none" d="M 1e-13 1e-13 L 0 1.4 M 31 0 L 31 1.4 M 31 11.2 L 31 9.799999999999999 M 0 10.1 L 29.3125 10.1 L 31 10.1 L 31 1.1 L 1.8125 1.1 L 0 1.1 L 0 10.1 L 0 11.2" stroke-dasharray="none" stroke="#000000" stroke-width="0.5"/></g><g id="ks8pei8933l" transform="translate(0 4.375)"><path fill="none" d="M 2 0 L 2 11.25 M 0 0.025 L 0 11.225 M 7 0 L 7 1.4375 M 7 11.1875 L 7 10 M 2 10.125 L 7 10.125 L 7 1.125 L 2 1.125" stroke-dasharray="none" stroke="#000000" stroke-width="0.5"/></g><g id="ks8pei8933m" transform="translate(4.996 2.5)"><path fill="none" d="M 1e-13 1e-13 L 0 2.8242" stroke-dasharray="none" stroke="#000000" stroke-width="0.5"/></g><g id="ks8pei8933n" transform="translate(4.243 2.5)"><path fill="none" d="M 1e-13 1e-13 L 0.75345 0" stroke-dasharray="none" stroke="#000000" stroke-width="0.5"/></g><g id="ks8pei8933o" transform="translate(4.997 2.5)"><path fill="none" d="M 0.7534499999998975 0 L 0 1.2000000000000002e-13" stroke-dasharray="none" stroke="#000000" stroke-width="0.5"/></g><g id="ks8pei8933p" transform="translate(12.011 2.5)"><path fill="none" d="M 1e-13 1e-13 L 0 2.76564" stroke-dasharray="none" stroke="#000000" stroke-width="0.5"/></g><g id="ks8pei8933q" transform="translate(11.276 2.5)"><path fill="none" d="M 1e-13 1e-13 L 0.735 0" stroke-dasharray="none" stroke="#000000" stroke-width="0.5"/></g><g id="ks8pei8933r" transform="translate(12.011 2.5)"><path fill="none" d="M 0.7349999999999 0 L 0 1.2000000000000002e-13" stroke-dasharray="none" stroke="#000000" stroke-width="0.5"/></g><g id="ks8pei8933s" transform="translate(37 14.676) rotate(180 0 1.412)"><path fill="none" d="M 1e-13 1e-13 L 0 2.8242" stroke-dasharray="none" stroke="#000000" stroke-width="0.5"/></g><g id="ks8pei8933t" transform="translate(36.25 17.5) rotate(180 0.375 0)"><path fill="none" d="M 0.7499999999998981 0 L 0 1e-13" stroke-dasharray="none" stroke="#000000" stroke-width="0.5"/></g><g id="ks8pei8933u" transform="translate(37 17.5) rotate(180 0.375 0)"><path fill="none" d="M 1e-13 1e-13 L 0.7500000000000001 0" stroke-dasharray="none" stroke="#000000" stroke-width="0.5"/></g><g id="ks8pei8933v" transform="translate(4.243 14.5)"><path fill="none" d="M 1.5068999999999992 3 L 0.7534499999999996 3 M 0 3 L 0.7534499999999996 3 L 0.7758997346938772 0" stroke-dasharray="none" stroke="#000000" stroke-width="0.5"/></g><g id="ks8pei8933w" transform="translate(11.25 2.5)"><path fill="none" d="M 1e-13 1e-13 L 0.75 0" stroke-dasharray="none" stroke="#000000" stroke-width="0.5"/></g><g id="ks8pei8933x" transform="translate(12 2.5)"><path fill="none" d="M 0.7499999999998981 0 L 0 1.1785714285714285e-13" stroke-dasharray="none" stroke="#000000" stroke-width="0.5"/></g><g id="ks8pei8933y" transform="translate(36.25 17.5) rotate(180 0.375 0)"><path fill="none" d="M 0.749999999999898 0 L 0 1.1785714285714287e-13" stroke-dasharray="none" stroke="#000000" stroke-width="0.5"/></g><g id="ks8pei8933z" transform="translate(37 17.5) rotate(180 0.375 0)"><path fill="none" d="M 1e-13 1e-13 L 0.75 0" stroke-dasharray="none" stroke="#000000" stroke-width="0.5"/></g><g id="ks8pei89340" transform="translate(5 0) rotate(270 0 2.5)"><path d="M 1e-13 1e-13 L 0 5" fill="none" stroke="#ff0000" stroke-dasharray="none" stroke-width="1"/></g><g id="ks8pei89341" transform="translate(3.75 1.25) rotate(270 1.25 0)"><path d="M 1e-13 1e-13 L 2.5 0" fill="none" stroke="#ff0000" stroke-dasharray="none" stroke-width="1"/></g><g id="ks8pei89342" transform="translate(12 0) rotate(270 0 2.5)"><path d="M 1e-13 1e-13 L 0 5" fill="none" stroke="#ff0000" stroke-dasharray="none" stroke-width="1"/></g><g id="ks8pei89343" transform="translate(10.75 1.25) rotate(270 1.25 0)"><path d="M 1e-13 1e-13 L 2.5 0" fill="none" stroke="#ff0000" stroke-dasharray="none" stroke-width="1"/></g><g id="ks8pei89344" transform="translate(5 15) rotate(270 0 2.5)"><path d="M 1e-13 1e-13 L 0 5" fill="none" stroke="#ff0000" stroke-dasharray="none" stroke-width="1"/></g><g id="ks8pei89345" transform="translate(3.75 18.75) rotate(270 1.25 0)"><path d="M 2.5 0 L 1e-13 1e-13" fill="none" stroke="#ff0000" stroke-dasharray="none" stroke-width="1"/></g><g id="ks8pei89346" transform="translate(37 15) rotate(270 0 2.5)"><path d="M 1e-13 1e-13 L 0 5" fill="none" stroke="#ff0000" stroke-dasharray="none" stroke-width="1"/></g><g id="ks8pei89347" transform="translate(35.75 18.75) rotate(270 1.25 0)"><path d="M 2.5 0 L 1e-13 1e-13" fill="none" stroke="#ff0000" stroke-dasharray="none" stroke-width="1"/></g></g></g></svg>