<?xml version="1.0" encoding="UTF-8"?>
<svg xmlns="http://www.w3.org/2000/svg" viewBox="0 0 64 64"><g id="ks8pbtrx1jc" class="Group.cls" transform="translate(6.5 11.5)"><g class="Prim.cls"><g id="ks8pbtry1jd" transform="translate(2 11)"><rect fill="#ffffff" fill-opacity="1" height="29" stroke="#000000" stroke-width="0.5" width="48" x="0" y="0"/></g><g id="ks8pbtry1je" transform="translate(2 2)"><path d="M 48 9 C 48 4.014 37.296 0 24 0 C 10.704 0 0 4.014 0 9" fill="#ffffff" fill-opacity="1" stroke-dasharray="none" stroke="#000000" stroke-width="0.5"/></g><g id="ks8pbtry1jf" transform="translate(2 11)"><path d="M 47.9999999999999 0 L 0 1e-13" fill="#ffffff" fill-opacity="1" stroke-dasharray="none" stroke="#000000" stroke-width="0.5"/></g><g id="ks8pbtry1jg" transform="translate(5 11)"><path d="M 42 0 L 42 26 L 0 26 L 9.767441860465117e-14 1e-13" fill="none" stroke="#000000" stroke-width="0.5"/></g><g id="ks8pbtry1jh" transform="translate(0 21) rotate(90 2 0)"><path d="M 4 0 L 1e-13 1e-13" fill="none" stroke="#ff0000"/></g><g id="ks8pbtry1ji" transform="translate(1 20) rotate(90 0 1)"><path d="M 0 2 L 1e-13 1e-13" fill="none" stroke="#ff0000"/></g><g id="ks8pbtry1jj" transform="translate(48 21) rotate(270 2 0)"><path d="M 4 0 L 1e-13 1e-13" fill="none" stroke="#ff0000"/></g><g id="ks8pbtry1jk" transform="translate(51 20) rotate(270 0 1)"><path d="M 0 2 L 1e-13 1e-13" fill="none" stroke="#ff0000"/></g><g id="ks8pbtry1jl" transform="translate(24 40)"><path d="M 4 0 L 1e-13 1e-13" fill="none" stroke="#ff0000"/></g><g id="ks8pbtry1jm" transform="translate(26 40)"><path d="M 0 2 L 1e-13 1e-13" fill="none" stroke="#ff0000"/></g><g id="ks8pbtry1jn" transform="translate(24 2) rotate(180 2 0)"><path d="M 4 0 L 1e-13 1e-13" fill="none" stroke="#ff0000"/></g><g id="ks8pbtry1jo" transform="translate(26 0) rotate(180 0 1)"><path d="M 0 2 L 1e-13 1e-13" fill="none" stroke="#ff0000"/></g></g></g></svg>