<?xml version="1.0" encoding="UTF-8"?>
<svg xmlns="http://www.w3.org/2000/svg" viewBox="0 0 64 64"><g id="ks8pc29t24v" class="Group.cls" transform="translate(1.5 10.5)"><g class="Prim.cls"><g id="ks8pc29u24w" transform="translate(34.063 17)"><rect fill="white" height="14" stroke-linecap="square" stroke="#000000" stroke-width="0.5" width="21.9375" x="0" y="0"/></g><g id="ks8pc29u24x" transform="translate(31 17)"><path fill="white" d="M 3 0 Q 0 0 0 3.5 L 0 10.500000000000004 Q 0 14 3 14 Z" stroke-linecap="square" stroke="#000000" stroke-width="0.5"/></g><g id="ks8pc29u24y" transform="translate(56 17)"><path fill="white" d="M 0 0 Q 3 0 3 3.5 L 3 10.500000000000002 Q 3 14 0 14 Z" stroke-linecap="square" stroke="#000000" stroke-width="0.5"/></g><g id="ks8pc29u24z" transform="translate(2 24)"><path d="M 7 0 L 1e-13 1e-13" fill="none" stroke-linecap="square" stroke="#000000" stroke-width="0.5"/></g><g id="ks8pc29u250" transform="translate(2 22)"><path d="M 1e-13 1e-13 L 0 4.199999999999999" fill="none" stroke-linecap="square" stroke="#000000" stroke-width="0.5"/></g><g id="ks8pc29u251" transform="translate(16 2)"><path d="M 0 7.9999999999999 L 1e-13 0" fill="none" stroke-linecap="square" stroke="#000000" stroke-width="0.5"/></g><g id="ks8pc29u252" transform="translate(14 2)"><path d="M 1e-13 1e-13 L 3.8125 0" fill="none" stroke-linecap="square" stroke="#000000" stroke-width="0.5"/></g><g id="ks8pc29u253" transform="translate(23 24)"><path d="M 1e-13 1e-13 L 8 0" fill="none" stroke-linecap="butt" stroke="#000000" stroke-width="0.5"/></g><g id="ks8pc29u254" transform="translate(9.125 10)"><path fill="white" d="M 13.875 25.375 L 13.875 3.625 Q 13.875 0 10.40625 0 L 3.46875 0 Q 0 0 0 3.625 L 0 25.375 Q 0 29 3.46875 29 L 10.40625 29 Q 13.875 29 13.875 25.375 Z" stroke-linecap="square" stroke="#000000" stroke-width="0.5"/></g><g id="ks8pc29u255" transform="translate(0 24) rotate(90 2 0)"><path d="M 1e-13 1e-13 L 4 0" fill="none" stroke="#ff0000" stroke-width="1"/></g><g id="ks8pc29u256" transform="translate(1 23) rotate(90 0 1)"><path d="M 0 2 L 1e-13 1e-13" fill="none" stroke="#ff0000" stroke-width="1"/></g><g id="ks8pc29u257" transform="translate(14 2) rotate(180 2 0)"><path d="M 1e-13 1e-13 L 4 0" fill="none" stroke="#ff0000" stroke-width="1"/></g><g id="ks8pc29u258" transform="translate(16 0) rotate(180 0 1)"><path d="M 0 2 L 1e-13 1e-13" fill="none" stroke="#ff0000" stroke-width="1"/></g></g></g></svg>