<?xml version="1.0" encoding="UTF-8"?>
<svg xmlns="http://www.w3.org/2000/svg" viewBox="0 0 64 64"><g id="ks8pemvw3fc" class="Group.cls" transform="translate(6 11)"><g class="Prim.cls"><g id="ks8pemvx3fd" transform="translate(6.5 2.5)"><path fill="white" d="M 6.153769390820141 0 L 0 5.787515213168771 L 0 15.714169222643328 L 6.153769390820141 22 L 33.84603102531223 22 L 39.99999999999999 15.714169222643328 L 39.99999999999999 5.787515213168771 L 33.84603102531223 0 Z" stroke-dasharray="none" stroke="#000000" stroke-width="0.5"/></g><g id="ks8pemvx3fe" transform="translate(6.5 8.5)"><path d="M 1e-13 1e-13 L 40 0" fill="none" stroke-dasharray="none" stroke="#000000" stroke-width="0.5"/></g><g id="ks8pemvx3ff" transform="translate(6.5 18.5)"><path d="M 39.7499999999999 0 L 0 1e-13" fill="none" stroke-dasharray="none" stroke="#000000" stroke-width="0.5"/></g><g id="ks8pemvx3fg" transform="translate(14.233 4.042)"><path fill="white" d="M 23 3.0834 C 23.8495 3.0834 24.5333 2.3957 24.5333 1.5416 C 24.5333 0.6876 23.8495 0 23 0 L 12.2667 1.5416 Z M 12.305 1.5416 L 1.5333 3.0834 C 0.6839 3.0834 0 2.3957 0 1.5416 C 0 0.6876 0.6839 0 1.5333 0 L 12.2667 1.5416" stroke-dasharray="none" stroke="#000000" stroke-width="0.5"/></g><g id="ks8pemvx3fh" transform="translate(14.233 19.958)"><path fill="white" d="M 23 3.0834 C 23.849483243243238 3.0834 24.533267027027026 2.3957 24.533267027027026 1.5416 C 24.533267027027026 0.6876 23.849483243243238 0 23 0 L 12.26673297297297 1.5416 Z M 12.305024864864864 1.5416 L 1.5332670270270272 3.0834 C 0.6838832432432432 3.0834 0 2.3957 0 1.5416 C 0 0.6876 0.6838832432432432 0 1.5332670270270272 0 L 12.26673297297297 1.5416" stroke-dasharray="none" stroke="#000000" stroke-width="0.5"/></g><g id="ks8pemvx3fi" transform="translate(6.5 12.5)"><path d="M 1e-13 1e-13 L 40 0" fill="none" stroke-dasharray="none" stroke="#000000" stroke-width="0.5"/></g><g id="ks8pemvx3fj" transform="translate(7.5 10.5)"><path d="M 1e-13 1e-13 L 41 0" fill="none" stroke-dasharray="none" stroke="#000000" stroke-width="0.5"/></g><g id="ks8pemvx3fk" transform="translate(22 30) rotate(90 4.5 4)"><rect fill="white" height="8" stroke-dasharray="none" stroke-linecap="square" stroke="#000000" stroke-width="0.5" width="9" x="0" y="0"/></g><g id="ks8pemvx3fl" transform="translate(25.5 24.5) rotate(90 1 4)"><path fill="white" d="M 1.99995898437529 0 Q 0 0 0 1.9999890625000027 L 0 5.999967187500005 Q 0 7.999956250000011 1.99995898437529 7.999956250000011 Z" stroke-dasharray="none" stroke-linecap="square" stroke="#000000" stroke-width="0.5"/></g><g id="ks8pemvx3fm" transform="translate(25.5 35.5) rotate(90 1 4)"><path fill="white" d="M 0 0 Q 2 0 2 1.9999673911271258 L 2 6.000032608872873 Q 2 8 0 8 Z" stroke-dasharray="none" stroke-linecap="square" stroke="#000000" stroke-width="0.5"/></g><g id="ks8pemvx3fn" transform="translate(26.5 8.542)"><path d="M 0 18.9584 L 9.945945945945947e-14 0" fill="none" stroke-dasharray="none" stroke="#000000" stroke-width="0.5"/></g><g id="ks8pemvx3fo" transform="translate(2.5 12.5)"><rect fill="white" height="6" stroke-dasharray="none" stroke="#000000" stroke-width="0.5" width="4.0667665004730225" x="0" y="0"/></g><g id="ks8pemvx3fp" transform="translate(48.5 9)"><path fill="white" d="M 0 3.25 C 0.8310506750146741 3.25 1.5 2.5251 1.5 1.6249 C 1.5 0.7248 0.8310506750146741 0 0 0 Z" stroke-dasharray="none" stroke="#000000" stroke-width="0.5"/></g><g id="ks8pemvx3fq" transform="translate(3.5 9.5)"><path d="M 0 2.75 L 1e-13 1e-13" fill="none" stroke-dasharray="none" stroke="#000000" stroke-width="0.5"/></g><g id="ks8pemvx3fr" transform="translate(2.625 9.5)"><path d="M 1e-13 1e-13 L 1.75 0" fill="none" stroke-dasharray="none" stroke="#000000" stroke-width="0.5"/></g><g id="ks8pemvx3fs" transform="translate(3.5 18.5) rotate(180 0 1.5)"><path d="M 0 2.9999999999999 L 0 3 L 1e-13 1e-13" fill="none" stroke-dasharray="none" stroke="#000000" stroke-width="0.5"/></g><g id="ks8pemvx3ft" transform="translate(2.767 21.5) rotate(180 0.767 0)"><path d="M 1.5333 0 L 1e-13 1e-13" fill="none" stroke-dasharray="none" stroke="#000000" stroke-width="0.5"/></g><g id="ks8pemvx3fu" transform="translate(43.367 9.687)"><path d="M 1.5333 0 L 0 1.5416" fill="none" stroke-dasharray="none" stroke="#000000" stroke-width="0.5"/></g><g id="ks8pemvx3fv" transform="translate(9.633 9.687)"><path d="M 1.5333 0 L 0 1.5416" fill="none" stroke-dasharray="none" stroke="#000000" stroke-width="0.5"/></g><g id="ks8pemvx3fw" transform="translate(12.7 9.687)"><path d="M 1.5333 0 L 0 1.5416" fill="none" stroke-dasharray="none" stroke="#000000" stroke-width="0.5"/></g><g id="ks8pemvx3fx" transform="translate(15.767 9.687)"><path d="M 1.5333 0 L 0 1.5416" fill="none" stroke-dasharray="none" stroke="#000000" stroke-width="0.5"/></g><g id="ks8pemvx3fy" transform="translate(18.833 9.687)"><path d="M 1.5333 0 L 0 1.5416" fill="none" stroke-dasharray="none" stroke="#000000" stroke-width="0.5"/></g><g id="ks8pemvx3fz" transform="translate(21.9 9.687)"><path d="M 1.5333 0 L 0 1.5416" fill="none" stroke-dasharray="none" stroke="#000000" stroke-width="0.5"/></g><g id="ks8pemvx3g0" transform="translate(24.967 9.687)"><path d="M 1.5333 0 L 0 1.5416" fill="none" stroke-dasharray="none" stroke="#000000" stroke-width="0.5"/></g><g id="ks8pemvx3g1" transform="translate(28.033 9.687)"><path d="M 1.5333 0 L 0 1.5416" fill="none" stroke-dasharray="none" stroke="#000000" stroke-width="0.5"/></g><g id="ks8pemvx3g2" transform="translate(31.1 9.687)"><path d="M 1.5333 0 L 0 1.5416" fill="none" stroke-dasharray="none" stroke="#000000" stroke-width="0.5"/></g><g id="ks8pemvx3g3" transform="translate(34.167 9.687)"><path d="M 1.5333 0 L 0 1.5416" fill="none" stroke-dasharray="none" stroke="#000000" stroke-width="0.5"/></g><g id="ks8pemvx3g4" transform="translate(37.233 9.687)"><path d="M 1.5333 0 L 0 1.5416" fill="none" stroke-dasharray="none" stroke="#000000" stroke-width="0.5"/></g><g id="ks8pemvx3g5" transform="translate(40.3 9.687)"><path d="M 1.5333 0 L 0 1.5416" fill="none" stroke-dasharray="none" stroke="#000000" stroke-width="0.5"/></g><g id="ks8pemvx3g6" transform="translate(41.833 9.687)"><path d="M 1.5333 0 L 0 1.5416" fill="none" stroke-dasharray="none" stroke="#000000" stroke-width="0.5"/></g><g id="ks8pemvx3g7" transform="translate(38.767 9.687)"><path d="M 1.5333 0 L 0 1.5416" fill="none" stroke-dasharray="none" stroke="#000000" stroke-width="0.5"/></g><g id="ks8pemvx3g8" transform="translate(35.7 9.687)"><path d="M 1.5333 0 L 0 1.5416" fill="none" stroke-dasharray="none" stroke="#000000" stroke-width="0.5"/></g><g id="ks8pemvx3g9" transform="translate(32.633 9.687)"><path d="M 1.5333 0 L 0 1.5416" fill="none" stroke-dasharray="none" stroke="#000000" stroke-width="0.5"/></g><g id="ks8pemvx3ga" transform="translate(29.567 9.687)"><path d="M 1.5333 0 L 0 1.5416" fill="none" stroke-dasharray="none" stroke="#000000" stroke-width="0.5"/></g><g id="ks8pemvx3gb" transform="translate(23.433 9.687)"><path d="M 1.5333 0 L 0 1.5416" fill="none" stroke-dasharray="none" stroke="#000000" stroke-width="0.5"/></g><g id="ks8pemvx3gc" transform="translate(26.5 9.687)"><path d="M 1.5333 0 L 0 1.5416" fill="none" stroke-dasharray="none" stroke="#000000" stroke-width="0.5"/></g><g id="ks8pemvx3gd" transform="translate(20.367 9.687)"><path d="M 1.5333 0 L 0 1.5416" fill="none" stroke-dasharray="none" stroke="#000000" stroke-width="0.5"/></g><g id="ks8pemvx3ge" transform="translate(17.3 9.687)"><path d="M 1.5333 0 L 0 1.5416" fill="none" stroke-dasharray="none" stroke="#000000" stroke-width="0.5"/></g><g id="ks8pemvx3gf" transform="translate(14.233 9.687)"><path d="M 1.5333 0 L 0 1.5416" fill="none" stroke-dasharray="none" stroke="#000000" stroke-width="0.5"/></g><g id="ks8pemvx3gg" transform="translate(11.167 9.687)"><path d="M 1.5333 0 L 0 1.5416" fill="none" stroke-dasharray="none" stroke="#000000" stroke-width="0.5"/></g><g id="ks8pemvx3gh" transform="translate(8.1 9.687)"><path d="M 1.5333 0 L 0 1.5416" fill="none" stroke-dasharray="none" stroke="#000000" stroke-width="0.5"/></g><g id="ks8pemvx3gi" transform="translate(2.5 12.667)"><path d="M 1e-13 1e-13 L 0 5.2833" fill="none" stroke-dasharray="none" stroke="#000000" stroke-width="0.4164"/></g><g id="ks8pemvx3gj" transform="translate(2.5 13) rotate(180 0 2.5)"><path d="M 1e-13 1e-13 L 0 5" fill="none" stroke="#ff0000" stroke-dasharray="none" stroke-width="1"/></g><g id="ks8pemvx3gk" transform="translate(0 15.5) rotate(180 1.25 0)"><path d="M 1e-13 1e-13 L 2.5 0" fill="none" stroke="#ff0000" stroke-dasharray="none" stroke-width="1"/></g><g id="ks8pemvx3gl" transform="translate(50.5 8.092) rotate(180 0 2.642)"><path d="M 1e-13 1e-13 L 0 5.2833" fill="none" stroke-dasharray="none" stroke="#000000" stroke-width="0.4164"/></g><g id="ks8pemvx3gm" transform="translate(50.5 8.042)"><path d="M 1e-13 1e-13 L 0 5" fill="none" stroke="#ff0000" stroke-dasharray="none" stroke-width="1"/></g><g id="ks8pemvx3gn" transform="translate(50.625 10.542)"><path d="M 1e-13 1e-13 L 2.5 0" fill="none" stroke="#ff0000" stroke-dasharray="none" stroke-width="1"/></g><g id="ks8pemvx3go" transform="translate(26.5 38) rotate(90 0 2.5)"><path d="M 1e-13 1e-13 L 0 5" fill="none" stroke="#ff0000" stroke-dasharray="none" stroke-width="1"/></g><g id="ks8pemvx3gp" transform="translate(25.25 41.75) rotate(90 1.25 0)"><path d="M 1e-13 1e-13 L 2.5 0" fill="none" stroke="#ff0000" stroke-dasharray="none" stroke-width="1"/></g><g id="ks8pemvx3gq" transform="translate(26.5 0) rotate(90 0 2.5)"><path d="M 1e-13 1e-13 L 0 5" fill="none" stroke="#ff0000" stroke-dasharray="none" stroke-width="1"/></g><g id="ks8pemvx3gr" transform="translate(25.25 1.25) rotate(90 1.25 0)"><path d="M 2.5 0 L 1e-13 1e-13" fill="none" stroke="#ff0000" stroke-dasharray="none" stroke-width="1"/></g></g></g></svg>