<?xml version="1.0" encoding="UTF-8"?>
<svg xmlns="http://www.w3.org/2000/svg" viewBox="0 0 64 64"><g id="ks8pc3t228b" class="Group.cls" transform="translate(5.5 3.5)"><g class="Prim.cls"><g id="ks8pc3t328c" transform="translate(13.536 8.536) rotate(270 12.464 8)"><rect fill="white" height="16" stroke-linecap="square" stroke="#000000" stroke-width="0.5" width="24.9285751775604" x="0" y="0"/></g><g id="ks8pc3t328d" transform="translate(24.5 22.5) rotate(270 1.5 8)"><path fill="white" d="M 3 0 Q 0 0 0 4 L 0 11.999999999999996 Q 0 16 3 16 Z" stroke-linecap="square" stroke="#000000" stroke-width="0.5"/></g><g id="ks8pc3t328e" transform="translate(23.964 -5.964) rotate(270 2.036 8)"><path fill="white" d="M 0 0 Q 4.071428571428572 0 4.071428571428572 4.000000000000001 L 4.071428571428572 12 Q 4.071428571428572 16.000000000000004 0 16.000000000000004 Z" stroke-linecap="square" stroke="#000000" stroke-width="0.5"/></g><g id="ks8pc3t328f" transform="translate(6 45) rotate(270 0 4)"><path d="M 0 7.999999999999799 L 1e-13 1e-13" fill="none" stroke-linecap="square" stroke="#000000" stroke-width="0.5"/></g><g id="ks8pc3t328g" transform="translate(-0.071 48.857) rotate(270 2.071 0)"><path d="M 0 7.347880794884118e-16 L 4.142857142857144 0" fill="none" stroke-linecap="square" stroke="#000000" stroke-width="0.5"/></g><g id="ks8pc3t328h" transform="translate(21.536 36.536) rotate(270 4.464 0)"><path d="M 1e-13 1e-13 L 8.928557142857144 9.184850993605148e-17" fill="none" stroke-linecap="butt" stroke="#000000" stroke-width="0.5"/></g><g id="ks8pc3t328i" transform="translate(18 33) rotate(270 8 16)"><path fill="white" d="M 16 27.99999999999999 L 16 4 Q 16 0 11.999999999999998 0 L 4 0 Q 0 0 0 4 L 0 27.99999999999999 Q 0 32 4 32 L 11.999999999999998 32 Q 16 32 16 27.99999999999999 Z" stroke-linecap="square" stroke="#000000" stroke-width="0.5"/></g><g id="ks8pc3t328j" transform="translate(45.75 45.25) rotate(90 0 3.75)"><path d="M 0 7.499999999999799 L 1e-13 1e-13" fill="none" stroke-linecap="square" stroke="#000000" stroke-width="0.5"/></g><g id="ks8pc3t328k" transform="translate(47.929 48.857) rotate(90 2.071 0)"><path d="M 4.142857142857043 0 L 0 1.0024492935982952e-13" fill="none" stroke-linecap="square" stroke="#000000" stroke-width="0.5"/></g><g id="ks8pc3t328l" transform="translate(0 49) rotate(90 2 0)"><path d="M 1e-13 1e-13 L 4 0" fill="none" stroke="#ff0000" stroke-width="1"/></g><g id="ks8pc3t328m" transform="translate(1 48) rotate(90 0 1)"><path d="M 0 2 L 1e-13 1e-13" fill="none" stroke="#ff0000" stroke-width="1"/></g><g id="ks8pc3t428n" transform="translate(48 49) rotate(270 2 0)"><path d="M 1e-13 1e-13 L 4 0" fill="none" stroke="#ff0000" stroke-width="1"/></g><g id="ks8pc3t428o" transform="translate(51 48) rotate(270 0 1)"><path d="M 0 2 L 1e-13 1e-13" fill="none" stroke="#ff0000" stroke-width="1"/></g></g></g></svg>