<?xml version="1.0" encoding="UTF-8"?>
<svg xmlns="http://www.w3.org/2000/svg" viewBox="0 0 64 64"><g id="ks8pbyeb1w9" class="Group.cls" transform="translate(21.5 1.5)"><g class="Prim.cls"><g id="ks8pbyeb1wa" transform="translate(2 2)"><path d="M 0 4 C 0 1.784 4.0139999999999985 0 9 0 C 13.985999999999994 0 18 1.784 18 4" fill="#ffffff" fill-opacity="1" stroke="#000000" stroke-width="0.5"/></g><g id="ks8pbyeb1wb" transform="translate(2 51)"><path d="M 1e-13 1e-13 C 0 2.4154399999999945 4.0139999999999985 4.3599999999999905 9 4.3599999999999905 C 13.985999999999994 4.3599999999999905 18 2.4154399999999945 18 0" fill="#ffffff" fill-opacity="1" stroke="#000000" stroke-width="0.5"/></g><g id="ks8pbyeb1wc" transform="translate(2 6)"><path fill="white" d="M 0 45.00000000000001 L 18 45.00000000000001 L 18 0 L 0 0 Z" stroke="#000000" stroke-width="0.5"/></g><g id="ks8pbyeb1wd" transform="translate(2 48.136)"><path d="M 1e-13 1e-13 L 0 11.863572173913044 L 18 11.863572173913044 L 18 0.7909182608695652" fill="none" stroke-linecap="butt" stroke="#000000" stroke-width="0.5"/></g><g id="ks8pbyeb1we" transform="translate(0 31) rotate(90 2 0)"><path d="M 4 0 L 1e-13 1e-13" fill="none" stroke="#ff0000"/></g><g id="ks8pbyeb1wf" transform="translate(1 30) rotate(90 0 1)"><path d="M 0 2 L 1e-13 1e-13" fill="none" stroke="#ff0000"/></g><g id="ks8pbyeb1wg" transform="translate(18 31) rotate(270 2 0)"><path d="M 4 0 L 1e-13 1e-13" fill="none" stroke="#ff0000"/></g><g id="ks8pbyeb1wh" transform="translate(21 30) rotate(270 0 1)"><path d="M 0 2 L 1e-13 1e-13" fill="none" stroke="#ff0000"/></g><g id="ks8pbyeb1wi" transform="translate(9 60)"><path d="M 4 0 L 1e-13 1e-13" fill="none" stroke="#ff0000"/></g><g id="ks8pbyeb1wj" transform="translate(11 60)"><path d="M 0 2 L 1e-13 1e-13" fill="none" stroke="#ff0000"/></g><g id="ks8pbyeb1wk" transform="translate(9 2) rotate(180 2 0)"><path d="M 4 0 L 1e-13 1e-13" fill="none" stroke="#ff0000"/></g><g id="ks8pbyeb1wl" transform="translate(11 0) rotate(180 0 1)"><path d="M 0 2 L 1e-13 1e-13" fill="none" stroke="#ff0000"/></g></g></g></svg>