<?xml version="1.0" encoding="UTF-8"?>
<svg xmlns="http://www.w3.org/2000/svg" viewBox="0 0 64 64"><g id="ks8pc1hw232" class="Group.cls" transform="translate(17.5 3.418)"><g class="Prim.cls"><g id="ks8pc1hx233" transform="translate(5 0.082)"><path fill="white" d="M 5 0 L 15 0 L 15 21 L 20 24.0469 L 20 57 L 0 57 L 0 24.0469 L 5 21 Z" stroke-linecap="butt" stroke="#000000" stroke-width="0.5"/></g><g id="ks8pc1hx234" transform="translate(2 26.082)"><path d="M 3.0388 0 L 1e-13 1e-13" fill="none" stroke-linecap="butt" stroke="#000000" stroke-width="0.5"/></g><g id="ks8pc1hx235" transform="translate(2 24.307)"><path d="M 1e-13 1e-13 L 0 2.85" fill="none" stroke-linecap="butt" stroke="#000000" stroke-width="0.5"/></g><g id="ks8pc1hx236" transform="translate(25.026 54.082)"><path d="M 1e-13 1e-13 L 2.9095 0" fill="none" stroke-linecap="butt" stroke="#000000" stroke-width="0.5"/></g><g id="ks8pc1hx237" transform="translate(28 52.807)"><path d="M 1e-13 1e-13 L 0 2.85" fill="none" stroke-linecap="butt" stroke="#000000" stroke-width="0.5"/></g><g id="ks8pc1hx238" transform="translate(6.948 2.082)"><path d="M 3.1681 0 L 1e-13 1e-13" fill="none" stroke-linecap="butt" stroke="#000000" stroke-width="0.5"/></g><g id="ks8pc1hx239" transform="translate(7 0.757)"><path d="M 1e-13 1e-13 L 0 2.85" fill="none" stroke-linecap="butt" stroke="#000000" stroke-width="0.5"/></g><g id="ks8pc1hx23a" transform="translate(6.948 17.082)"><path d="M 3.1034 0 L 1e-13 1e-13" fill="none" stroke-linecap="butt" stroke="#000000" stroke-width="0.5"/></g><g id="ks8pc1hx23b" transform="translate(7 15.757)"><path d="M 1e-13 1e-13 L 0 2.85" fill="none" stroke-linecap="butt" stroke="#000000" stroke-width="0.5"/></g><g id="ks8pc1hx23c" transform="translate(10.5 2.082)"><path d="M 1e-13 1e-13 L 9 0 L 3 7.5 L 9 15 L 0 15" fill="none" stroke-dasharray="1.5 1" stroke-linecap="butt" stroke="#000000" stroke-width="0.5"/></g><g id="ks8pc1hx23d" transform="translate(5 26.082)"><path d="M 1e-13 1e-13 L 20 0 L 0 28 L 20 28" fill="none" stroke-dasharray="1.5 1" stroke-linecap="butt" stroke="#000000" stroke-width="0.5"/></g><g id="ks8pc1hx23e" transform="translate(25.959 54.041) rotate(270 2.041 0)"><path d="M 1e-13 1e-13 L 4.082 0" fill="none" stroke="#ff0000" stroke-width="1"/></g><g id="ks8pc1hx23f" transform="translate(29 53.041) rotate(270 0 1)"><path d="M 0 2 L 1e-13 1e-13" fill="none" stroke="#ff0000" stroke-width="1"/></g><g id="ks8pc1hx23g" transform="translate(-0.041 26.041) rotate(90 2.041 0)"><path d="M 1e-13 1e-13 L 4.082 0" fill="none" stroke="#ff0000" stroke-width="1"/></g><g id="ks8pc1hx23h" transform="translate(1 25.041) rotate(90 0 1)"><path d="M 0 2 L 1e-13 1e-13" fill="none" stroke="#ff0000" stroke-width="1"/></g><g id="ks8pc1hx23i" transform="translate(4.959 17.041) rotate(90 2.041 0)"><path d="M 1e-13 1e-13 L 4.082 0" fill="none" stroke="#ff0000" stroke-width="1"/></g><g id="ks8pc1hx23j" transform="translate(6 16.041) rotate(90 0 1)"><path d="M 0 2 L 1e-13 1e-13" fill="none" stroke="#ff0000" stroke-width="1"/></g><g id="ks8pc1hx23k" transform="translate(4.959 2.041) rotate(90 2.041 0)"><path d="M 1e-13 1e-13 L 4.082 0" fill="none" stroke="#ff0000" stroke-width="1"/></g><g id="ks8pc1hx23l" transform="translate(6 1.041) rotate(90 0 1)"><path d="M 0 2 L 1e-13 1e-13" fill="none" stroke="#ff0000" stroke-width="1"/></g></g></g></svg>