<?xml version="1.0" encoding="UTF-8"?>
<svg xmlns="http://www.w3.org/2000/svg" viewBox="0 0 64 64"><g id="ks8peoeb3l9" class="Group.cls" transform="translate(2.062 14)"><g class="Prim.cls"><g id="ks8peoec3la" transform="translate(13.437 6.5)"><rect fill="none" height="4" stroke="#000000" stroke-width="0.5" width="43.08925072021484" x="0" y="0"/></g><g id="ks8peoec3lb" transform="translate(13.437 26.5)"><rect fill="none" height="4" stroke="#000000" stroke-width="0.5" width="43.08925247192383" x="0" y="0"/></g><g id="ks8peoec3lc" transform="translate(52.438 10.5)"><path d="M 2.7755575615628914e-17 0 L 0 6" fill="none" stroke="#000000" stroke-width="0.5"/></g><g id="ks8peoec3ld" transform="translate(0 8.5)"><path d="M 13.0446 20 C 4.3482 20 0 15.539968078892056 0 9.999954004167224 C 0 4.460031921107949 4.3482 0 13.0446 0" fill="none" stroke="#000000" stroke-width="0.5"/></g><g id="ks8peoec3le" transform="translate(17.437 2.25)"><path d="M 0 4.249999999999799 L 1e-13 0" fill="none" stroke="#000000" stroke-width="0.5"/></g><g id="ks8peoec3lf" transform="translate(12.955 8.5)"><path d="M 1e-13 1e-13 L 43.4821 0" fill="none" stroke-dasharray="1.5 2" stroke="#000000" stroke-width="0.5"/></g><g id="ks8peoec3lg" transform="translate(12.955 28.5)"><path d="M 1e-13 1e-13 L 43.4821 0" fill="none" stroke-dasharray="1.5 2" stroke="#000000" stroke-width="0.5"/></g><g id="ks8peoec3lh" transform="translate(17.438 30.563)"><path d="M 1e-13 1e-13 L 0 4.4375" fill="none" stroke="#000000" stroke-width="0.5"/></g><g id="ks8peoec3li" transform="translate(52.438 20.875)"><path d="M 1e-13 1e-13 L 2.7755575615628914e-17 5.625" fill="none" stroke="#000000" stroke-width="0.5"/></g><g id="ks8peoec3lj" transform="translate(56.438 8.5)"><path d="M 1e-13 1e-13 L 4.5 0" fill="none" stroke-linecap="butt" stroke="#000000" stroke-width="0.5"/></g><g id="ks8peoec3lk" transform="translate(56.527 28.478)"><path d="M 4.3482 0 L 1e-13 1e-13" fill="none" stroke-linecap="butt" stroke="#000000" stroke-width="0.5"/></g><g id="ks8peoec3ll" transform="translate(17.438 0) rotate(90 0 2.5)"><path d="M 1e-13 1e-13 L 0 5" fill="none" stroke="#ff0000"/></g><g id="ks8peoec3lm" transform="translate(16.188 1.25) rotate(90 1.25 0)"><path d="M 2.5 0 L 1e-13 1e-13" fill="none" stroke="#ff0000"/></g><g id="ks8peoec3ln" transform="translate(52.438 21) rotate(90 0 2.5)"><path d="M 1e-13 1e-13 L 0 5" fill="none" stroke="#ff0000"/></g><g id="ks8peoec3lo" transform="translate(51.188 22.25) rotate(90 1.25 0)"><path d="M 2.5 0 L 1e-13 1e-13" fill="none" stroke="#ff0000"/></g><g id="ks8peoec3lp" transform="translate(17.438 32) rotate(90 0 2.5)"><path d="M 1e-13 1e-13 L 0 5" fill="none" stroke="#ff0000"/></g><g id="ks8peoec3lq" transform="translate(16.188 35.75) rotate(90 1.25 0)"><path d="M 9.992007221626409e-14 0 L 2.5 1e-13" fill="none" stroke="#ff0000"/></g><g id="ks8peoec3lr" transform="translate(52.438 11.5) rotate(90 0 2.5)"><path d="M 1e-13 1e-13 L 0 5" fill="none" stroke="#ff0000"/></g><g id="ks8peoec3ls" transform="translate(51.188 15.25) rotate(90 1.25 0)"><path d="M 9.992007221626409e-14 0 L 2.5 1e-13" fill="none" stroke="#ff0000"/></g><g id="ks8peoec3lt" transform="translate(58.438 6)"><path d="M 1e-13 1e-13 L 0 5" fill="none" stroke="#ff0000"/></g><g id="ks8peoec3lu" transform="translate(58.438 8.5)"><path d="M 1e-13 1e-13 L 2.5 0" fill="none" stroke="#ff0000"/></g><g id="ks8peoec3lv" transform="translate(58.438 26)"><path d="M 1e-13 1e-13 L 0 5" fill="none" stroke="#ff0000" stroke-width="1"/></g><g id="ks8peoec3lw" transform="translate(58.438 28.5)"><path d="M 1e-13 1e-13 L 2.5 0" fill="none" stroke="#ff0000" stroke-width="1"/></g></g></g></svg>