<?xml version="1.0" encoding="UTF-8"?>
<svg xmlns="http://www.w3.org/2000/svg" viewBox="0 0 64 64"><g id="ks8pc0ps211" class="Group.cls" transform="translate(19.5 1.5)"><g class="Prim.cls"><g id="ks8pc0pt212" transform="translate(2 8.692)"><path fill="white" d="M 0 2.2307692307692304 L 1.8333333333333344 0 L 20.16666666666667 0 L 22 2.2307692307692304 L 22 17.846153846153843 L 20.16666666666667 20.076923076923062 L 20.16666666666667 21.749999999999996 L 22 23.980769241824696 L 22 39.59615384615382 L 22 40.153846153846125 L 20.16666666666667 42.384615384615365 L 1.8333333333333344 42.384615384615365 L 0 40.153846153846125 L 9.085824566786486e-9 23.980769241824696 L 1.8333333333333344 21.750000011055473 L 1.8333333333333344 20.076923099034026 L 0 17.846153846153843 Z" stroke-linecap="butt" stroke="#000000" stroke-width="0.5"/></g><g id="ks8pc0pt213" transform="translate(2 52.192)"><path fill="white" d="M 1.8341049842523023 0 L 20.166736816750216 0 L 22 0.9720998462851508 C 21.816673681675038 5.0549192006827885 14.666947267000824 6.8046989239960585 14.666947267000824 6.8046989239960585 L 12.742020924588529 4.763289246797238 L 12.283705128776104 4.082819354397636 L 9.992126149713863 4.1800293390261505 L 9.167157717251463 4.860499231425758 L 7.333894534001691 6.8046989239960585 C 7.333894534001691 6.901908908624576 -0.09082135815998123 4.5688692775402115 0.000841801002508467 0.9720998462851508 Z" stroke-linecap="butt" stroke="#000000" stroke-width="0.5"/></g><g id="ks8pc0pt214" transform="translate(4 2)"><path fill="white" d="M 0 50.60003779310507 L 0 4.399987206894929 C 0 -1.4666624022983097 18 -1.4666624022983097 18 4.399987206894929 L 18 50.60003779310507 C 18 56.466687402298305 0 56.466687402298305 0 50.60003779310507 Z" stroke-linecap="butt" stroke="#000000" stroke-width="0.5"/></g><g id="ks8pc0pt215" transform="translate(0 19) rotate(90 2 0)"><path d="M 4 0 L 1e-13 1e-13" fill="none" stroke="#ff0000"/></g><g id="ks8pc0pt216" transform="translate(1 18) rotate(90 0 1)"><path d="M 0 2 L 1e-13 1e-13" fill="none" stroke="#ff0000"/></g><g id="ks8pc0pt217" transform="translate(22 19) rotate(270 2 0)"><path d="M 4 0 L 1e-13 1e-13" fill="none" stroke="#ff0000"/></g><g id="ks8pc0pt218" transform="translate(25 18) rotate(270 0 1)"><path d="M 0 2 L 1e-13 1e-13" fill="none" stroke="#ff0000"/></g><g id="ks8pc0pt219" transform="translate(11 57)"><path d="M 4 0 L 1e-13 1e-13" fill="none" stroke="#ff0000"/></g><g id="ks8pc0pt21a" transform="translate(13 57)"><path d="M 0 2 L 1e-13 1e-13" fill="none" stroke="#ff0000"/></g><g id="ks8pc0pt21b" transform="translate(11 2) rotate(180 2 0)"><path d="M 4 0 L 1e-13 1e-13" fill="none" stroke="#ff0000"/></g><g id="ks8pc0pt21c" transform="translate(13 0) rotate(180 0 1)"><path d="M 0 2 L 1e-13 1e-13" fill="none" stroke="#ff0000"/></g><g id="ks8pc0pt21d" transform="translate(22 41) rotate(270 2 0)"><path d="M 4 0 L 1e-13 1e-13" fill="none" stroke="#ff0000"/></g><g id="ks8pc0pt21e" transform="translate(25 40) rotate(270 0 1)"><path d="M 0 2 L 1e-13 1e-13" fill="none" stroke="#ff0000"/></g><g id="ks8pc0pt21f" transform="translate(0 41) rotate(90 2 0)"><path d="M 1e-13 1e-13 L 4 0" fill="none" stroke="#ff0000"/></g><g id="ks8pc0pt21g" transform="translate(1 40) rotate(90 0 1)"><path d="M 0 2 L 1e-13 1e-13" fill="none" stroke="#ff0000"/></g></g></g></svg>