<?xml version="1.0" encoding="UTF-8"?>
<svg xmlns="http://www.w3.org/2000/svg" viewBox="0 0 64 64"><g id="ks8pc9z12om" class="Group.cls" transform="translate(1.5 18.5)"><g class="Prim.cls"><g id="ks8pc9z22on" transform="translate(25 2)"><path fill="white" d="M 0 0 L 0 23.3334 L 34 19.8333 L 34 4.6667 Z" stroke-linecap="square" stroke="#000000" stroke-width="0.5"/></g><g id="ks8pc9z22oo" transform="translate(4 9)"><rect fill="white" height="9" stroke-linecap="square" stroke="#000000" stroke-width="0.5" width="15" x="0" y="0"/></g><g id="ks8pc9z22op" transform="translate(2 9)"><path fill="white" d="M 2 0 Q 0 0 0 2.25 L 0 6.75 Q 0 9 2 9 Z" stroke-linecap="square" stroke="#000000" stroke-width="0.5"/></g><g id="ks8pc9z22oq" transform="translate(19 9)"><path fill="white" d="M 0 0 Q 2 0 2 2.25 L 2 6.7501 Q 2 9 0 9 Z" stroke-linecap="square" stroke="#000000" stroke-width="0.5"/></g><g id="ks8pc9z22or" transform="translate(54 2)"><path d="M 0 4 L 1e-13 1e-13" fill="none" stroke-linecap="square" stroke="#000000" stroke-width="0.5"/></g><g id="ks8pc9z22os" transform="translate(31 25)"><path d="M 1e-13 1e-13 L 0 5" fill="none" stroke-linecap="square" stroke="#000000" stroke-width="0.5"/></g><g id="ks8pc9z22ot" transform="translate(0 14) rotate(90 2 0)"><path d="M 1e-13 1e-13 L 4 0" fill="none" stroke="#ff0000" stroke-width="1"/></g><g id="ks8pc9z22ou" transform="translate(1 13) rotate(90 0 1)"><path d="M 0 2 L 1e-13 1e-13" fill="none" stroke="#ff0000" stroke-width="1"/></g><g id="ks8pc9z22ov" transform="translate(52 2) rotate(180 2 0)"><path d="M 1e-13 1e-13 L 4 0" fill="none" stroke="#ff0000" stroke-width="1"/></g><g id="ks8pc9z22ow" transform="translate(54 0) rotate(180 0 1)"><path d="M 0 2 L 1e-13 1e-13" fill="none" stroke="#ff0000" stroke-width="1"/></g><g id="ks8pc9z22ox" transform="translate(29 30)"><path d="M 1e-13 1e-13 L 4 0" fill="none" stroke="#ff0000" stroke-width="1"/></g><g id="ks8pc9z22oy" transform="translate(31 30)"><path d="M 0 2 L 1e-13 1e-13" fill="none" stroke="#ff0000" stroke-width="1"/></g><g id="ks8pc9z22oz" transform="translate(57 14) rotate(270 2 0)"><path d="M 1e-13 1e-13 L 4 0" fill="none" stroke="#ff0000" stroke-width="1"/></g><g id="ks8pc9z22p0" transform="translate(60 13) rotate(270 0 1)"><path d="M 0 2 L 1e-13 1e-13" fill="none" stroke="#ff0000" stroke-width="1"/></g><g id="ks8pc9z22p1" transform="translate(21 13)"><path d="M 1e-13 1e-13 L 4 0" fill="none" stroke-linecap="butt" stroke="#000000" stroke-width="0.5"/></g></g></g></svg>