<?xml version="1.0" encoding="UTF-8"?>
<svg xmlns="http://www.w3.org/2000/svg" viewBox="0 0 64 64"><g id="ks8penmj3ij" class="Group.cls" transform="translate(14 12.5)"><g class="Prim.cls"><g id="ks8penmj3ik" transform="translate(30.5 5)"><path d="M 1e-13 1e-13 L 4.000006036056342 0" fill="none" stroke="#000000" stroke-width="0.5"/></g><g id="ks8penmj3il" transform="translate(30.5 32)"><path d="M 1e-13 1e-13 L 4.000006036056342 0" fill="none" stroke="#000000" stroke-width="0.5"/></g><g id="ks8penmj3im" transform="translate(2.5 5)"><path d="M 3.9999452026864812 0 L 0 1e-13" fill="none" stroke="#000000" stroke-width="0.5"/></g><g id="ks8penmj3in" transform="translate(2.5 32)"><path d="M 3.9999452026864812 0 L 0 1e-13" fill="none" stroke="#000000" stroke-width="0.5"/></g><g id="ks8penmj3io" transform="translate(8.5 3.964)"><rect fill="white" height="29.071399688720703" stroke="#000000" stroke-width="0.5" width="20" x="0" y="0"/></g><g id="ks8penmj3ip" transform="translate(12.5 3.964)"><path d="M 1e-13 1e-13 L 0 29.0714" fill="none" stroke="#000000" stroke-width="0.5"/></g><g id="ks8penmj3iq" transform="translate(16.5 3.964)"><path d="M 1e-13 1e-13 L 0 29.0714" fill="none" stroke="#000000" stroke-width="0.5"/></g><g id="ks8penmj3ir" transform="translate(20.5 3.964)"><path d="M 1e-13 1e-13 L 0 29.0714" fill="none" stroke="#000000" stroke-width="0.5"/></g><g id="ks8penmj3is" transform="translate(24.5 3.964)"><path d="M 1e-13 1e-13 L 0 29.0714" fill="none" stroke="#000000" stroke-width="0.5"/></g><g id="ks8penmj3it" transform="translate(14.5 9.415)"><path d="M 1e-13 1e-13 L 0 18.1696" fill="none" stroke="#000000" stroke-width="0.5"/></g><g id="ks8penmj3iu" transform="translate(10.5 9.415)"><path d="M 1e-13 1e-13 L 0 18.1696" fill="none" stroke="#000000" stroke-width="0.5"/></g><g id="ks8penmj3iv" transform="translate(18.5 9.415)"><path d="M 1e-13 1e-13 L 0 18.1696" fill="none" stroke="#000000" stroke-width="0.5"/></g><g id="ks8penmj3iw" transform="translate(22.5 9.415)"><path d="M 1e-13 1e-13 L 0 18.1696" fill="none" stroke="#000000" stroke-width="0.5"/></g><g id="ks8penmj3ix" transform="translate(26.5 9.415)"><path d="M 1e-13 1e-13 L 0 18.1696" fill="none" stroke="#000000" stroke-width="0.5"/></g><g id="ks8penmj3iy" transform="translate(34.5 29.5)"><path d="M 1e-13 1e-13 L 0 5" fill="none" stroke="#ff0000" stroke-width="1"/></g><g id="ks8penmj3iz" transform="translate(34.5 32)"><path d="M 1e-13 1e-13 L 2.5 0" fill="none" stroke="#ff0000" stroke-width="1"/></g><g id="ks8penmj3j0" transform="translate(2.5 29.5)"><path d="M 1e-13 1e-13 L 0 5" fill="none" stroke="#ff0000" stroke-width="1"/></g><g id="ks8penmj3j1" transform="translate(0 32)"><path d="M 2.5 0 L 1e-13 1e-13" fill="none" stroke="#ff0000" stroke-width="1"/></g><g id="ks8penmj3j2" transform="translate(34.5 2.5)"><path d="M 1e-13 1e-13 L 0 5" fill="none" stroke="#ff0000" stroke-width="1"/></g><g id="ks8penmj3j3" transform="translate(34.5 5)"><path d="M 1e-13 1e-13 L 2.5 0" fill="none" stroke="#ff0000" stroke-width="1"/></g><g id="ks8penmj3j4" transform="translate(2.5 2.5)"><path d="M 1e-13 1e-13 L 0 5" fill="none" stroke="#ff0000" stroke-width="1"/></g><g id="ks8penmj3j5" transform="translate(0 5)"><path d="M 2.5 0 L 1e-13 1e-13" fill="none" stroke="#ff0000" stroke-width="1"/></g><g id="ks8penmj3j6" transform="translate(4.5 0)"><rect fill="white" height="37" stroke="#000000" stroke-width="0.5" width="4" x="0" y="0"/></g><g id="ks8penmj3j7" transform="translate(28.5 0)"><rect fill="white" height="37" stroke="#000000" stroke-width="0.5" width="4" x="0" y="0"/></g></g></g></svg>