<?xml version="1.0" encoding="UTF-8"?>
<svg xmlns="http://www.w3.org/2000/svg" viewBox="0 0 64 64"><g id="ks8pcas32q9" class="Group.cls" transform="translate(2.5 13.5)"><g class="Prim.cls"><g id="ks8pcas52qa" transform="translate(53.045 2.313)"><path d="M 0 4.7768 L 1e-13 1e-13" fill="none" stroke-linecap="square" stroke="#000000" stroke-width="0.5"/></g><g id="ks8pcas52qb" transform="translate(3 14)"><rect fill="white" height="10" stroke-linecap="square" stroke="#000000" stroke-width="0.5" width="13" x="0" y="0"/></g><g id="ks8pcas52qc" transform="translate(0 14)"><path fill="white" d="M 3 0 Q 0 0 0 2.5 L 0 7.499999999999998 Q 0 10 3 10 Z" stroke-linecap="square" stroke="#000000" stroke-width="0.5"/></g><g id="ks8pcas52qd" transform="translate(16 14)"><path fill="white" d="M 0 0 Q 3 0 3 2.5 L 3 7.499999999999998 Q 3 10 0 10 Z" stroke-linecap="square" stroke="#000000" stroke-width="0.5"/></g><g id="ks8pcas52qe" transform="translate(29 31)"><path d="M 1e-13 1e-13 L 0 5" fill="none" stroke-linecap="square" stroke="#000000" stroke-width="0.5"/></g><g id="ks8pcas52qf" transform="translate(24 7)"><rect fill="white" height="24" stroke-linecap="butt" stroke="#000000" stroke-width="0.5" width="33" x="0" y="0"/></g><g id="ks8pcas52qg" transform="translate(19.107 19.031)"><path d="M 1e-13 1e-13 L 28.6608 0" fill="none" stroke-linecap="butt" stroke="#000000" stroke-width="0.5"/></g><g id="ks8pcas52qh" transform="translate(48 7)"><path d="M 1e-13 1e-13 L 0 24" fill="none" stroke-linecap="butt" stroke="#000000" stroke-width="0.5"/></g><g id="ks8pcas62qi" transform="translate(27 36)"><path d="M 1e-13 1e-13 L 4 0" fill="none" stroke="#ff0000"/></g><g id="ks8pcas62qj" transform="translate(29 36)"><path d="M 0 2 L 1e-13 1e-13" fill="none" stroke="#ff0000"/></g><g id="ks8pcas62qk" transform="translate(51 2) rotate(180 2 0)"><path d="M 4 0 L 1e-13 1e-13" fill="none" stroke="#ff0000"/></g><g id="ks8pcas62ql" transform="translate(53 0) rotate(180 0 1)"><path d="M 0 2 L 0 1e-13" fill="none" stroke="#ff0000"/></g></g></g></svg>