<?xml version="1.0" encoding="UTF-8"?>
<svg xmlns="http://www.w3.org/2000/svg" viewBox="0 0 64 64"><g id="ks8pc6wi2gr" class="Group.cls" transform="translate(3.5 25.541)"><g class="Prim.cls"><g id="ks8pc6wj2gs" transform="translate(45 3.959)"><rect fill="white" height="6" stroke-linecap="square" stroke="#000000" stroke-width="0.5" width="10" x="0" y="0"/></g><g id="ks8pc6wj2gt" transform="translate(55 3.959)"><path fill="white" d="M 0 0 Q 2.000149999999995 0 2.000149999999995 1.499957894736842 L 2.000149999999995 4.500042105263156 Q 2.000149999999995 6 0 6 Z" stroke-linecap="square" stroke="#000000" stroke-width="0.5"/></g><g id="ks8pc6wj2gu" transform="translate(43 3.959)"><path fill="white" d="M 2 0 Q 0 0 0 1.499957894736842 L 0 4.500042105263156 Q 0 6 2 6 Z" stroke-linecap="square" stroke="#000000" stroke-width="0.5"/></g><g id="ks8pc6wj2gv" transform="translate(0 3.959)"><rect fill="#ffffff" fill-opacity="1" height="6" stroke-linecap="square" stroke="#000000" stroke-width="0.5" width="35" x="0" y="0"/></g><g id="ks8pc6wj2gw" transform="translate(32 1.959)"><path d="M 0 1.9999999999997002 L 1e-13 1e-13" fill="none" stroke-linecap="square" stroke="#000000" stroke-width="0.5"/></g><g id="ks8pc6wj2gx" transform="translate(30.5 1.959)"><path d="M 3 0 L 1e-13 1e-13" fill="none" stroke-linecap="square" stroke="#000000" stroke-width="0.5"/></g><g id="ks8pc6wj2gy" transform="translate(3 1.959)"><path d="M 0 1.9999999999998002 L 1e-13 1e-13" fill="none" stroke-linecap="square" stroke="#000000" stroke-width="0.5"/></g><g id="ks8pc6wj2gz" transform="translate(1.5 1.959)"><path d="M 2.9999999999999 0 L 0 1e-13" fill="none" stroke-linecap="square" stroke="#000000" stroke-width="0.5"/></g><g id="ks8pc6wj2h0" transform="translate(3.094 5.347)"><path d="M 0 1.436150625 C 0 -0.4787287500000006 2.8750000000000013 -0.4786931249999995 2.8750000000000013 1.4361150000000005" fill="#ffffff" fill-opacity="1" stroke-linecap="square" stroke="#000000" stroke-width="0.5"/></g><g id="ks8pc6wj2h1" transform="translate(5.969 6.772) rotate(180 1.438 0.718)"><path d="M 2.8750000000000013 1.436150625 C 2.8750000000000013 -0.4787287500000006 0 -0.4786931249999995 0 1.4361150000000005" fill="#ffffff" fill-opacity="1" stroke-linecap="square" stroke="#000000" stroke-width="0.5"/></g><g id="ks8pc6wj2h2" transform="translate(8.844 5.347)"><path d="M 0 1.436150625 C 0 -0.4787287500000006 2.8750000000000013 -0.4786931249999995 2.8750000000000013 1.4361150000000005" fill="#ffffff" fill-opacity="1" stroke-linecap="square" stroke="#000000" stroke-width="0.5"/></g><g id="ks8pc6wj2h3" transform="translate(11.719 6.772) rotate(180 1.438 0.718)"><path d="M 2.8750000000000013 1.436150625 C 2.8750000000000013 -0.4787287500000006 0 -0.4786931249999995 0 1.4361150000000005" fill="#ffffff" fill-opacity="1" stroke-linecap="square" stroke="#000000" stroke-width="0.5"/></g><g id="ks8pc6wj2h4" transform="translate(14.594 5.352)"><path d="M 0 1.436150625 C 0 -0.4787287500000006 2.8750000000000013 -0.4786931249999995 2.8750000000000013 1.4361150000000005" fill="#ffffff" fill-opacity="1" stroke-linecap="square" stroke="#000000" stroke-width="0.5"/></g><g id="ks8pc6wj2h5" transform="translate(17.469 6.772) rotate(180 1.438 0.718)"><path d="M 2.8750000000000013 1.436150625 C 2.8750000000000013 -0.4787287500000006 0 -0.4786931249999995 0 1.4361150000000005" fill="#ffffff" fill-opacity="1" stroke-linecap="square" stroke="#000000" stroke-width="0.5"/></g><g id="ks8pc6wj2h6" transform="translate(20.344 5.347)"><path d="M 0 1.436150625 C 0 -0.4787287500000006 2.8750000000000013 -0.4786931249999995 2.8750000000000013 1.4361150000000005" fill="#ffffff" fill-opacity="1" stroke-linecap="square" stroke="#000000" stroke-width="0.5"/></g><g id="ks8pc6wj2h7" transform="translate(23.219 6.772) rotate(180 1.438 0.718)"><path d="M 2.8750000000000013 1.436150625 C 2.8750000000000013 -0.4787287500000006 0 -0.4786931249999995 0 1.4361150000000005" fill="#ffffff" fill-opacity="1" stroke-linecap="square" stroke="#000000" stroke-width="0.5"/></g><g id="ks8pc6wj2h8" transform="translate(26.094 5.347)"><path d="M 0 1.436150625 C 0 -0.4787287500000006 2.8750000000000013 -0.4786931249999995 2.8750000000000013 1.4361150000000005" fill="#ffffff" fill-opacity="1" stroke-linecap="square" stroke="#000000" stroke-width="0.5"/></g><g id="ks8pc6wj2h9" transform="translate(28.969 6.766) rotate(180 1.438 0.718)"><path d="M 2.8750000000000013 1.436150625 C 2.8750000000000013 -0.4787287500000006 0 -0.4786931249999995 0 1.4361150000000005" fill="#ffffff" fill-opacity="1" stroke-linecap="square" stroke="#000000" stroke-width="0.5"/></g><g id="ks8pc6wj2ha" transform="translate(35 6.959)"><path d="M 8 0 L 0 1.000310945187266e-13" fill="none" stroke-linecap="butt" stroke="#000000" stroke-width="0.5"/></g><g id="ks8pc6wj2hb" transform="translate(32.268 0.534) rotate(90 0 1.425)"><path d="M 1e-13 1e-13 L 0 2.85" fill="none" stroke-linecap="butt" stroke="#000000" stroke-width="0.5"/></g><g id="ks8pc6wj2hc" transform="translate(29.918 1.959) rotate(180 2.041 0)"><path d="M 1e-13 1e-13 L 4.082 0" fill="none" stroke="#ff0000"/></g><g id="ks8pc6wj2hd" transform="translate(31.959 0) rotate(180 0 0.979)"><path d="M 0 1.9589660308837025 L 1e-13 1e-13" fill="none" stroke="#ff0000"/></g><g id="ks8pc6wj2he" transform="translate(3.268 0.534) rotate(90 0 1.425)"><path d="M 1e-13 1e-13 L 0 2.85" fill="none" stroke-linecap="butt" stroke="#000000" stroke-width="0.5"/></g><g id="ks8pc6wj2hf" transform="translate(0.918 1.959) rotate(180 2.041 0)"><path d="M 1e-13 1e-13 L 4.082 0" fill="none" stroke="#ff0000"/></g><g id="ks8pc6wj2hg" transform="translate(2.959 0) rotate(180 0 0.979)"><path d="M 0 1.9589660308837025 L 1e-13 1e-13" fill="none" stroke="#ff0000"/></g></g></g></svg>