<?xml version="1.0" encoding="UTF-8"?>
<svg xmlns="http://www.w3.org/2000/svg" viewBox="0 0 64 64"><g id="ks8pc8g92ku" class="Group.cls" transform="translate(19.5 4.5)"><g class="Prim.cls"><g id="ks8pc8gb2kv" transform="translate(6.308 52)"><path fill="white" d="M 2.2308 0 L 0 5.000050000000001 L 13.3846 5.000050000000001 L 11.1538 0 Z" stroke-linecap="butt" stroke="#000000" stroke-width="0.5"/></g><g id="ks8pc8gb2kw" transform="translate(2 39)"><path d="M 4.5 0 L 0 1e-13" fill="none" stroke-linecap="square" stroke="#000000" stroke-width="0.5"/></g><g id="ks8pc8gb2kx" transform="translate(19.75 39)"><path d="M 1e-13 1e-13 L 4.2501 0" fill="none" stroke-linecap="square" stroke="#000000" stroke-width="0.5"/></g><g id="ks8pc8gb2ky" transform="translate(6 26)"><rect fill="white" height="26" stroke-linecap="butt" stroke="#000000" stroke-width="0.5" width="14" x="0" y="0"/></g><g id="ks8pc8gb2kz" transform="translate(8.538 29.561)"><ellipse fill="white" cx="4.4615" cy="4.4615" rx="4.4615" ry="4.4615" stroke-linecap="square" stroke="#000000" stroke-width="0.5"/></g><g id="ks8pc8gb2l0" transform="translate(8.538 40.715)"><ellipse fill="white" cx="4.4615" cy="4.4615" rx="4.4615" ry="4.4615" stroke-linecap="square" stroke="#000000" stroke-width="0.5"/></g><g id="ks8pc8gb2l1" transform="translate(6.5 4.5) rotate(90 6.5 4)"><rect fill="white" height="7.999911176403035" stroke-linecap="square" stroke="#000000" stroke-width="0.5" width="13" x="0" y="0"/></g><g id="ks8pc8gb2l2" transform="translate(12 -3) rotate(90 1 4)"><path fill="white" d="M 2 0 Q 0 0 0 1.9999998766116047 L 0 5.999909975904537 Q 0 7.999909852516143 2 7.999909852516143 Z" stroke-linecap="square" stroke="#000000" stroke-width="0.5"/></g><g id="ks8pc8gb2l3" transform="translate(13 16.846)"><path d="M 1e-13 1e-13 L 0 8.9231" fill="none" stroke-linecap="square" stroke="#000000" stroke-width="0.5"/></g><g id="ks8pc8gb2l4" transform="translate(12 12) rotate(90 1 4)"><path fill="white" d="M 0 0 Q 2 0 2 1.9999998766116047 L 2 5.999909975904537 Q 2 7.999909852516143 0 7.999909852516143 Z" stroke-linecap="square" stroke="#000000" stroke-width="0.5"/></g><g id="ks8pc8gb2l5" transform="translate(24 37.925) rotate(180 0 1.425)"><path d="M 1e-13 1e-13 L 0 2.85" fill="none" stroke-linecap="butt" stroke="#000000" stroke-width="0.5"/></g><g id="ks8pc8gb2l6" transform="translate(21.959 39.041) rotate(270 2.041 0)"><path d="M 1e-13 1e-13 L 4.082 0" fill="none" stroke="#ff0000"/></g><g id="ks8pc8gb2l7" transform="translate(25 38.041) rotate(270 0 1)"><path d="M 0 2 L 1e-13 1e-13" fill="none" stroke="#ff0000"/></g><g id="ks8pc8gb2l8" transform="translate(2 37.925) rotate(180 0 1.425)"><path d="M 1e-13 1e-13 L 0 2.85" fill="none" stroke-linecap="butt" stroke="#000000" stroke-width="0.5"/></g><g id="ks8pc8gb2l9" transform="translate(-0.041 39.041) rotate(90 2.041 0)"><path d="M 4.082 0 L 1e-13 1e-13" fill="none" stroke="#ff0000"/></g><g id="ks8pc8gb2la" transform="translate(1 38.041) rotate(90 0 1)"><path d="M 0 2 L 0 1e-13" fill="none" stroke="#ff0000"/></g></g></g></svg>