<?xml version="1.0" encoding="UTF-8"?>
<svg xmlns="http://www.w3.org/2000/svg" viewBox="0 0 64 64"><g id="l1bniv0z53l" class="Group.cls" transform="translate(18 5)"><g class="Prim.cls"><g id="l1bniv1353m" class="CVerti.cls" transform="translate(2.5 0)"><path d="M 1e-13 1e-13 L 0 40.5 L 21 40.5" fill="none" stroke="#000000" stroke-width="0.5"/><g transform="translate(0 11)" class="Text.cls"><rect x="0" y="0" width="21" height="9.5" fill="none" stroke="none"/><text fill="none" fill-opacity="1" font-size="7px" stroke="none"><tspan x="10.5" y="7.06">X</tspan></text></g></g><g id="l1bniv1353n" transform="translate(0 2.5)"><path d="M 1e-13 1e-13 L 5 0" fill="none" stroke="#646464" stroke-opacity="1" stroke-width="1"/></g><g id="l1bniv1353o" transform="translate(21 40.5) rotate(270 2.5 0)"><path d="M 1e-13 1e-13 L 5 0" fill="none" stroke="#646464" stroke-opacity="1" stroke-width="1"/></g><g id="l1bniv1353p" transform="translate(2.5 0)"><path d="M 0 2.375 L 1e-13 1e-13" fill="none" stroke="#646464" stroke-width="1"/></g><g id="l1bniv1353q" transform="translate(24.75 39.25) rotate(270 0 1.25)"><path d="M 0 2.5 L 1e-13 1e-13" fill="none" stroke="#646464" stroke-width="1"/></g><g id="l1bniv1353r" transform="translate(6 45.102)"><path d="M 2.36974490379557 3.8936 L 0.8504915783346951 3.8936 L 0.8504915783346951 6.3984 L 0 6.3984 L 0 0 L 2.3786146903437393 0 Q 3.4372438734735455 0 4.037365567880369 0.5361 Q 4.637588055316148 1.0723 4.637588055316148 1.9556 Q 4.637588055316148 2.8872 4.050670247702623 3.3904 Q 3.4637524400890976 3.8936 2.36974490379557 3.8936 Z M 0.8504915783346951 0.6943 L 0.8504915783346951 3.2036 L 2.3786146903437393 3.2036 Q 3.0606811172921726 3.2036 3.423939193651291 2.885 Q 3.787096476981453 2.5664 3.787096476981453 1.9644 Q 3.787096476981453 1.3931 3.423939193651291 1.0503 Q 3.0606811172921726 0.7075 2.427297723329714 0.6943 L 0.8504915783346951 0.6943 Z" fill="#004c99" fill-opacity="1" stroke="none" stroke-width="0.5"/></g><g id="l1bniv1353s" transform="translate(11.785 45.102)"><path d="M 0.8504915783346951 0 L 0.8504915783346951 6.3984 L 0 6.3984 L 0 0 L 0.8504915783346951 0 Z" fill="#004c99" fill-opacity="1" stroke="none" stroke-width="0.5"/></g><g id="l1bniv1353t" transform="translate(14.19 45.102)"><path d="M 2.36974490379557 3.8936 L 0.8504915783346951 3.8936 L 0.8504915783346951 6.3984 L 0 6.3984 L 0 0 L 2.3786146903437393 0 Q 3.4372438734735455 0 4.037365567880369 0.5361 Q 4.637588055316148 1.0723 4.637588055316148 1.9556 Q 4.637588055316148 2.8872 4.050670247702623 3.3904 Q 3.4637524400890976 3.8936 2.36974490379557 3.8936 Z M 0.8504915783346951 0.6943 L 0.8504915783346951 3.2036 L 2.3786146903437393 3.2036 Q 3.0606811172921726 3.2036 3.423939193651291 2.885 Q 3.787096476981453 2.5664 3.787096476981453 1.9644 Q 3.787096476981453 1.3931 3.423939193651291 1.0503 Q 3.0606811172921726 0.7075 2.427297723329714 0.6943 L 0.8504915783346951 0.6943 Z" fill="#004c99" fill-opacity="1" stroke="none" stroke-width="0.5"/></g><g id="l1bniv1353u" transform="translate(19.913 45.102)"><path d="M 3.645381478268656 2.751 L 3.645381478268656 3.4409 L 0.8504915783346951 3.4409 L 0.8504915783346951 5.7085 L 4.097135834051555 5.7085 L 4.097135834051555 6.3984 L 0 6.3984 L 0 0 L 4.052887694339665 0 L 4.052887694339665 0.6943 L 0.8504915783346951 0.6943 L 0.8504915783346951 2.751 L 3.645381478268656 2.751 Z" fill="#004c99" fill-opacity="1" stroke="none" stroke-width="0.5"/></g></g></g></svg>