<?xml version="1.0" encoding="UTF-8"?>
<svg xmlns="http://www.w3.org/2000/svg" viewBox="0 0 64 64"><g id="l1cullz2fs3" class="Group.cls" transform="translate(19 5)"><g class="Prim.cls"><g id="l1cullz6fs4" height="15" transform="translate(2.5 0.5)"><path d="M 1e-13 1e-13 Q 0 21.386503067484664 0 20.877300613496935 Q 7.5 20.877300613496935 8 20.877300613496935 Q 8.125 16.930981595092025 11 16.803680981595093 Q 13.875 16.930981595092025 14 20.877300613496935 Q 15.125 20.877300613496935 21 20.877300613496935 Q 21 21.25920245398773 21 41.5" fill="none" stroke="#000000" stroke-width="0.5"/></g><g id="l1cullz6fs5" transform="translate(0 2.5)"><path d="M 1e-13 1e-13 L 5 0" fill="none" stroke="#646464" stroke-opacity="1" stroke-width="1"/></g><g id="l1cullz6fs6" transform="translate(21 39.5)"><path d="M 1e-13 1e-13 L 5 0" fill="none" stroke="#646464" stroke-opacity="1" stroke-width="1"/></g><g id="l1cullz6fs7" transform="translate(2.5 0)"><path d="M 0 2.375 L 1e-13 1e-13" fill="none" stroke="#646464" stroke-width="1"/></g><g id="l1cullz6fs8" transform="translate(23.5 39.5)"><path d="M 0 2.5 L 1e-13 1e-13" fill="none" stroke="#646464" stroke-width="1"/></g><g id="l1cullz6fs9" transform="translate(11 8)"><path d="M 5 0 L 5 0.6486 L 2.9218 0.6486 L 2.9218 5.9766 L 2.0737 5.9766 L 2.0737 0.6486 L 0 0.6486 L 0 0 L 5 0 Z" fill="#004c99" stroke="none" stroke-width="0.5"/></g><g id="l1cullz6fsa" transform="translate(4.944 45.102)"><path d="M 2.3511 3.8936 L 0.8438 3.8936 L 0.8438 6.3984 L 0 6.3984 L 0 0 L 2.3599 0 Q 3.4102 0 4.0056 0.5361 Q 4.6011 1.0723 4.6011 1.9556 Q 4.6011 2.8872 4.0188 3.3904 Q 3.4365 3.8936 2.3511 3.8936 Z M 0.8438 0.6943 L 0.8438 3.2036 L 2.3599 3.2036 Q 3.0366 3.2036 3.397 2.885 Q 3.7573 2.5664 3.7573 1.9644 Q 3.7573 1.3931 3.397 1.0503 Q 3.0366 0.7075 2.4082 0.6943 L 0.8438 0.6943 Z" fill="#004c99" fill-opacity="1" stroke="none" stroke-width="0.5"/></g><g id="l1cullz6fsb" transform="translate(10.684 45.102)"><path d="M 0.8438 0 L 0.8438 6.3984 L 0 6.3984 L 0 0 L 0.8438 0 Z" fill="#004c99" fill-opacity="1" stroke="none" stroke-width="0.5"/></g><g id="l1cullz6fsc" transform="translate(13.07 45.102)"><path d="M 2.3511 3.8936 L 0.8438 3.8936 L 0.8438 6.3984 L 0 6.3984 L 0 0 L 2.3599 0 Q 3.4102 0 4.0056 0.5361 Q 4.6011 1.0723 4.6011 1.9556 Q 4.6011 2.8872 4.0188 3.3904 Q 3.4365 3.8936 2.3511 3.8936 Z M 0.8438 0.6943 L 0.8438 3.2036 L 2.3599 3.2036 Q 3.0366 3.2036 3.397 2.885 Q 3.7573 2.5664 3.7573 1.9644 Q 3.7573 1.3931 3.397 1.0503 Q 3.0366 0.7075 2.4082 0.6943 L 0.8438 0.6943 Z" fill="#004c99" fill-opacity="1" stroke="none" stroke-width="0.5"/></g><g id="l1cullz6fsd" transform="translate(18.748 45.102)"><path d="M 3.6167 2.751 L 3.6167 3.4409 L 0.8438 3.4409 L 0.8438 5.7085 L 4.0649 5.7085 L 4.0649 6.3984 L 0 6.3984 L 0 0 L 4.021 0 L 4.021 0.6943 L 0.8438 0.6943 L 0.8438 2.751 L 3.6167 2.751 Z" fill="#004c99" fill-opacity="1" stroke="none" stroke-width="0.5"/></g></g></g></svg>