<?xml version="1.0" encoding="UTF-8"?>
<svg xmlns="http://www.w3.org/2000/svg" viewBox="0 0 64 64"><g id="l1cuz9dlg34" class="Group.cls" transform="translate(17.258 13)"><g class="Prim.cls"><g id="l1cuz9dqg35" transform="translate(14.242 2.5)"><path d="M 1e-13 1e-13 L 0 26" fill="none" stroke="#000000" stroke-width="0.5"/></g><g id="l1cuz9dqg36" transform="translate(9.242 11)"><path d="M 1e-13 1e-13 L 10 5" fill="none" stroke="#000000" stroke-width="0.5"/></g><g id="l1cuz9dqg37" transform="translate(9.242 16)"><path d="M 1e-13 1e-13 L 10 5" fill="none" stroke="#000000" stroke-width="0.5"/></g><g id="l1cuz9dqg38" transform="translate(3.242 2.5)"><path d="M 11 0 L 1e-13 1e-13" fill="none" stroke="#000000" stroke-width="0.5"/></g><g id="l1cuz9dqg39" transform="translate(14.242 28.5)"><path d="M 1e-13 1e-13 L 10 0" fill="none" stroke="#000000" stroke-width="0.5"/></g><g id="l1cuz9dqg3a" transform="translate(0.742 2.5) rotate(270 2.5 0)"><path d="M 1e-13 1e-13 L 5 0" fill="none" stroke="#646464" stroke-opacity="1" stroke-width="1"/></g><g id="l1cuz9dqg3b" transform="translate(1.929 1.313) rotate(270 0 1.187)"><path d="M 0 2.3749999999995004 L 1e-13 1e-13" fill="none" stroke="#646464" stroke-width="1"/></g><g id="l1cuz9dqg3c" transform="translate(21.742 28.5) rotate(270 2.5 0)"><path d="M 1e-13 1e-13 L 5 0" fill="none" stroke="#646464" stroke-opacity="1" stroke-width="1"/></g><g id="l1cuz9dqg3d" transform="translate(25.491 27.25) rotate(270 0 1.25)"><path d="M 0 2.5 L 1e-13 1e-13" fill="none" stroke="#646464" stroke-width="1"/></g><g id="l1cuz9dqg3e" transform="translate(0 37)"><path d="M 2.2715 3.766 Q 1.1883 3.4427 0.695 2.9712 Q 0.2017 2.5 0.2017 1.8079 Q 0.2017 1.0246 0.8047 0.5123 Q 1.4076 0 2.3722 0 Q 3.0301 0 3.5454 0.2642 Q 4.0606 0.5283 4.3434 0.9927 Q 4.6262 1.4573 4.6262 2.0083 L 3.7799 2.0083 Q 3.7799 1.4071 3.4116 1.0632 Q 3.0432 0.7195 2.3722 0.7195 Q 1.7497 0.7195 1.4011 1.0041 Q 1.0524 1.2888 1.0524 1.7942 Q 1.0524 2.1996 1.3836 2.4796 Q 1.7146 2.7596 2.5104 2.9918 Q 3.3064 3.224 3.7558 3.504 Q 4.2053 3.7843 4.4223 4.1576 Q 4.6394 4.531 4.6394 5.0365 Q 4.6394 5.8425 4.0344 6.3275 Q 3.4291 6.8125 2.4162 6.8125 Q 1.7584 6.8125 1.1883 6.5505 Q 0.6183 6.2888 0.3092 5.8334 Q 0 5.3779 0 4.7997 L 0.8463 4.7997 Q 0.8463 5.4008 1.2738 5.7492 Q 1.7015 6.0976 2.4162 6.0976 Q 3.0828 6.0976 3.4379 5.8151 Q 3.7931 5.5328 3.7931 5.0454 Q 3.7931 4.5583 3.4642 4.2918 Q 3.1354 4.0255 2.2715 3.766 Z" fill="#004c99" stroke="none"/></g><g id="l1cuz9dqg3f" transform="translate(5.78 37.091)"><path d="M 0.8419 0 L 0.8419 6.6302 L 0 6.6302 L 0 0 L 0.8419 0 Z" fill="#004c99" stroke="none"/></g><g id="l1cuz9dqg3g" transform="translate(7.955 37)"><path d="M 4.9201 3.4198 L 4.9201 5.8516 Q 4.5956 6.3343 4.0145 6.5734 Q 3.4335 6.8125 2.6618 6.8125 Q 1.8813 6.8125 1.2761 6.4322 Q 0.671 6.0519 0.3399 5.3507 Q 0.0087 4.6494 0 3.7249 L 0 3.1467 Q 0 1.6485 0.6731 0.8241 Q 1.3462 0 2.5653 0 Q 3.5651 0 4.1746 0.5306 Q 4.7841 1.061 4.9201 2.0356 L 4.0781 2.0356 Q 3.8413 0.7195 2.5696 0.7195 Q 1.7234 0.7195 1.2871 1.3365 Q 0.8507 1.9536 0.8463 3.1239 L 0.8463 3.6657 Q 0.8463 4.7815 1.3374 5.4394 Q 1.8286 6.0976 2.6661 6.0976 Q 3.1397 6.0976 3.4949 5.9882 Q 3.8501 5.8789 4.0825 5.6194 L 4.0825 4.1302 L 2.6048 4.1302 L 2.6048 3.4198 L 4.9201 3.4198 Z" fill="#004c99" stroke="none"/></g><g id="l1cuz9dqg3h" transform="translate(13.779 37.091)"><path d="M 4.9069 0 L 4.9069 6.6302 L 4.0606 6.6302 L 0.8463 1.521 L 0.8463 6.6302 L 0 6.6302 L 0 0 L 0.8463 0 L 4.0693 5.1321 L 4.0693 0 L 4.9069 0 Z" fill="#004c99" stroke="none"/></g><g id="l1cuz9dqg3i" transform="translate(19.143 37.091)"><path d="M 4.7534 6.6302 L 4.1439 4.8998 L 1.469 4.8998 L 0.8683 6.6302 L 0 6.6302 L 2.4381 0 L 3.1747 0 L 5.6173 6.6302 L 4.7534 6.6302 Z M 2.8065 1.0792 L 1.7234 4.1804 L 3.8939 4.1804 L 2.8065 1.0792 Z" fill="#004c99" stroke="none"/></g><g id="l1cuz9dqg3j" transform="translate(25.62 37.091)"><path d="M 0.8463 0 L 0.8463 5.9153 L 3.872 5.9153 L 3.872 6.6302 L 0 6.6302 L 0 0 L 0.8463 0 Z" fill="#004c99" stroke="none"/></g></g></g></svg>