<?xml version="1.0" encoding="UTF-8"?>
<svg xmlns="http://www.w3.org/2000/svg" viewBox="0 0 64 64"><g id="l1cumbkxfsp" class="Group.cls" transform="translate(18 7)"><g class="Prim.cls"><g id="l1cumbl1fsq" transform="translate(2.5 3)"><path d="M 1e-13 1e-13 L 0 14 Q 4 14.125 4 17 Q 4 19.875 0 20 Q 0 33 0 34.5 Q 9 34.5 21 34.5" fill="none" stroke="#000000" stroke-width="0.5"/></g><g id="l1cumbl1fsr" transform="translate(0 2.5)"><path d="M 1e-13 1e-13 L 5 0" fill="none" stroke="#646464" stroke-opacity="1" stroke-width="1"/></g><g id="l1cumbl1fss" transform="translate(2.5 0)"><path d="M 0 2.375 L 1e-13 1e-13" fill="none" stroke="#646464" stroke-width="1"/></g><g id="l1cumbl1fst" transform="translate(21 37.5) rotate(270 2.5 0)"><path d="M 1e-13 1e-13 L 5 0" fill="none" stroke="#646464" stroke-opacity="1" stroke-width="1"/></g><g id="l1cumbl1fsu" transform="translate(24.75 36.25) rotate(270 0 1.25)"><path d="M 0 2.5 L 1e-13 1e-13" fill="none" stroke="#646464" stroke-width="1"/></g><g id="l1cumbl1fsv" transform="translate(5.132 43.102)"><path d="M 2.3511 3.8936 L 0.8438 3.8936 L 0.8438 6.3984 L 0 6.3984 L 0 0 L 2.3599 0 Q 3.4102 0 4.0056 0.5361 Q 4.6011 1.0723 4.6011 1.9556 Q 4.6011 2.8872 4.0188 3.3904 Q 3.4365 3.8936 2.3511 3.8936 Z M 0.8438 0.6943 L 0.8438 3.2036 L 2.3599 3.2036 Q 3.0366 3.2036 3.397 2.885 Q 3.7573 2.5664 3.7573 1.9644 Q 3.7573 1.3931 3.397 1.0503 Q 3.0366 0.7075 2.4082 0.6943 L 0.8438 0.6943 Z" fill="#004c99" fill-opacity="1" stroke="none" stroke-width="0.5"/></g><g id="l1cumbl1fsw" transform="translate(10.871 43.102)"><path d="M 0.8438 0 L 0.8438 6.3984 L 0 6.3984 L 0 0 L 0.8438 0 Z" fill="#004c99" fill-opacity="1" stroke="none" stroke-width="0.5"/></g><g id="l1cumbl1fsx" transform="translate(13.257 43.102)"><path d="M 2.3511 3.8936 L 0.8438 3.8936 L 0.8438 6.3984 L 0 6.3984 L 0 0 L 2.3599 0 Q 3.4102 0 4.0056 0.5361 Q 4.6011 1.0723 4.6011 1.9556 Q 4.6011 2.8872 4.0188 3.3904 Q 3.4365 3.8936 2.3511 3.8936 Z M 0.8438 0.6943 L 0.8438 3.2036 L 2.3599 3.2036 Q 3.0366 3.2036 3.397 2.885 Q 3.7573 2.5664 3.7573 1.9644 Q 3.7573 1.3931 3.397 1.0503 Q 3.0366 0.7075 2.4082 0.6943 L 0.8438 0.6943 Z" fill="#004c99" fill-opacity="1" stroke="none" stroke-width="0.5"/></g><g id="l1cumbl1fsy" transform="translate(18.935 43.102)"><path d="M 3.6167 2.751 L 3.6167 3.4409 L 0.8438 3.4409 L 0.8438 5.7085 L 4.0649 5.7085 L 4.0649 6.3984 L 0 6.3984 L 0 0 L 4.021 0 L 4.021 0.6943 L 0.8438 0.6943 L 0.8438 2.751 L 3.6167 2.751 Z" fill="#004c99" fill-opacity="1" stroke="none" stroke-width="0.5"/></g></g></g></svg>