<?xml version="1.0" encoding="UTF-8"?>
<svg xmlns="http://www.w3.org/2000/svg" viewBox="0 0 64 64"><g id="l1bn5ahb4xk" class="Group.cls" transform="translate(23.142 16)"><g class="Prim.cls"><g id="l1bn5ahf4xl" class="CLine.cls" transform="translate(-4.517 13) rotate(90 12.875 0)"><path d="M 1e-13 1e-13 L 25.750000000000114 0" fill="none" stroke="#000000" stroke-width="0.5"/><g transform="translate(0 -9.5) rotate(270 12.875 4.75)" class="Text.cls"><rect x="0" y="0" width="25.749999280245806" height="9.5" fill="none" stroke="none"/><text fill="none" fill-opacity="1" font-size="7px" stroke="none"><tspan x="12.875" y="7.06">1</tspan></text></g></g><g id="l1bn5ahf4xm" transform="translate(8.358 0) rotate(90 0 2.5)"><path d="M 1e-13 1e-13 L 0 5" fill="none" stroke="#646464" stroke-width="1"/></g><g id="l1bn5ahf4xn" transform="translate(8.358 21) rotate(90 0 2.5)"><path d="M 1e-13 1e-13 L 0 5" fill="none" stroke="#646464" stroke-width="1"/></g><g id="l1bn5ahf4xo" transform="translate(7.108 1.25) rotate(90 1.25 0)"><path d="M 2.5 0 L 1e-13 1e-13" fill="none" stroke="#646464" stroke-width="1"/></g><g id="l1bn5ahf4xp" transform="translate(7.108 24.75) rotate(90 1.25 0)"><path d="M 1e-13 1e-13 L 2.5 0" fill="none" stroke="#646464" stroke-width="1"/></g><g id="l1bn5ahf4xq" transform="translate(12.858 10)"><path d="M 5 0 L 5 0.6486 L 2.9218 0.6486 L 2.9218 5.9766 L 2.0737 5.9766 L 2.0737 0.6486 L 0 0.6486 L 0 0 L 5 0 Z" fill="#004c99" stroke="none" stroke-width="0.5"/></g><g id="l1bn5ahf4xr" transform="translate(0 34.102)"><path d="M 2.3511 3.8936 L 0.8438 3.8936 L 0.8438 6.3984 L 0 6.3984 L 0 0 L 2.3599 0 Q 3.4102 0 4.0056 0.5361 Q 4.6011 1.0723 4.6011 1.9556 Q 4.6011 2.8872 4.0188 3.3904 Q 3.4365 3.8936 2.3511 3.8936 Z M 0.8438 0.6943 L 0.8438 3.2036 L 2.3599 3.2036 Q 3.0366 3.2036 3.397 2.885 Q 3.7573 2.5664 3.7573 1.9644 Q 3.7573 1.3931 3.397 1.0503 Q 3.0366 0.7075 2.4082 0.6943 L 0.8438 0.6943 Z" fill="#004c99" fill-opacity="1" stroke="none" stroke-width="0.5"/></g><g id="l1bn5ahf4xs" transform="translate(5.739 34.102)"><path d="M 0.8438 0 L 0.8438 6.3984 L 0 6.3984 L 0 0 L 0.8438 0 Z" fill="#004c99" fill-opacity="1" stroke="none" stroke-width="0.5"/></g><g id="l1bn5ahf4xt" transform="translate(8.126 34.102)"><path d="M 2.3511 3.8936 L 0.8438 3.8936 L 0.8438 6.3984 L 0 6.3984 L 0 0 L 2.3599 0 Q 3.4102 0 4.0056 0.5361 Q 4.6011 1.0723 4.6011 1.9556 Q 4.6011 2.8872 4.0188 3.3904 Q 3.4365 3.8936 2.3511 3.8936 Z M 0.8438 0.6943 L 0.8438 3.2036 L 2.3599 3.2036 Q 3.0366 3.2036 3.397 2.885 Q 3.7573 2.5664 3.7573 1.9644 Q 3.7573 1.3931 3.397 1.0503 Q 3.0366 0.7075 2.4082 0.6943 L 0.8438 0.6943 Z" fill="#004c99" fill-opacity="1" stroke="none" stroke-width="0.5"/></g><g id="l1bn5ahf4xu" transform="translate(13.803 34.102)"><path d="M 3.6167 2.751 L 3.6167 3.4409 L 0.8438 3.4409 L 0.8438 5.7085 L 4.0649 5.7085 L 4.0649 6.3984 L 0 6.3984 L 0 0 L 4.021 0 L 4.021 0.6943 L 0.8438 0.6943 L 0.8438 2.751 L 3.6167 2.751 Z" fill="#004c99" fill-opacity="1" stroke="none" stroke-width="0.5"/></g></g></g></svg>