<?xml version="1.0" encoding="UTF-8"?>
<svg xmlns="http://www.w3.org/2000/svg" viewBox="0 0 64 64"><g id="l1cun48oftk" class="Group.cls" transform="translate(18.257 29)"><g class="Prim.cls"><g id="l1cun48tftl" class="CLine.cls Wires.lay" transform="translate(3.243 2.5)"><path d="M 1e-13 1e-13 L 21 0" fill="none" stroke-dasharray="4 3" stroke="#000000" stroke-width="0.5"/><defs id="khk0m8uf22f"/><g transform="translate(-39.5 -16)" class="Text.cls" display="none"><rect x="0" y="0" width="100" height="20" fill="none" stroke="none"/><text fill="#000000" fill-opacity="1" stroke="none" font-size="8px"><tspan x="50" y="12.64">Signal1</tspan></text></g></g><g id="l1cun48tftm" transform="translate(3.243 0)"><path d="M 1e-13 1e-13 L 0 5" fill="none" stroke="#646464"/></g><g id="l1cun48tftn" transform="translate(0.743 2.5)"><path d="M 2.5 0 L 1e-13 1e-13" fill="none" stroke="#646464"/></g><g id="l1cun48tfto" transform="translate(24.243 0)"><path d="M 1e-13 1e-13 L 0 5" fill="none" stroke="#646464"/></g><g id="l1cun48tftp" transform="translate(24.243 2.5)"><path d="M 1e-13 1e-13 L 2.5 0" fill="none" stroke="#646464"/></g><g id="l1cun48tftq" transform="translate(0 20.938)"><path d="M 2.2764 3.6624 Q 1.1909 3.348 0.6965 2.8895 Q 0.2021 2.4312 0.2021 1.7581 Q 0.2021 0.9964 0.8064 0.4982 Q 1.4106 0 2.3774 0 Q 3.0366 0 3.553 0.2569 Q 4.0693 0.5137 4.3528 0.9654 Q 4.6362 1.4172 4.6362 1.953 L 3.7881 1.953 Q 3.7881 1.3684 3.4189 1.034 Q 3.0498 0.6997 2.3774 0.6997 Q 1.7534 0.6997 1.4041 0.9765 Q 1.0547 1.2533 1.0547 1.7448 Q 1.0547 2.139 1.3865 2.4113 Q 1.7183 2.6837 2.5159 2.9095 Q 3.3135 3.1353 3.7639 3.4077 Q 4.2144 3.6801 4.4319 4.0432 Q 4.6494 4.4064 4.6494 4.8979 Q 4.6494 5.6818 4.043 6.1534 Q 3.4365 6.625 2.4214 6.625 Q 1.7622 6.625 1.1909 6.3703 Q 0.6196 6.1157 0.3098 5.6729 Q 0 5.23 0 4.6676 L 0.8481 4.6676 Q 0.8481 5.2522 1.2766 5.591 Q 1.7051 5.9298 2.4214 5.9298 Q 3.0894 5.9298 3.4453 5.6551 Q 3.8013 5.3806 3.8013 4.9067 Q 3.8013 4.4329 3.4717 4.1738 Q 3.1421 3.9148 2.2764 3.6624 Z" fill="#004c99" stroke="none"/></g><g id="l1cun48tftr" transform="translate(5.792 21.026)"><path d="M 0.8438 0 L 0.8438 6.4478 L 0 6.4478 L 0 0 L 0.8438 0 Z" fill="#004c99" stroke="none"/></g><g id="l1cun48tfts" transform="translate(7.972 20.938)"><path d="M 4.9307 3.3258 L 4.9307 5.6906 Q 4.6055 6.16 4.0232 6.3925 Q 3.4409 6.625 2.6675 6.625 Q 1.8853 6.625 1.2788 6.2552 Q 0.6724 5.8854 0.3406 5.2035 Q 0.0088 4.5215 0 3.6225 L 0 3.0601 Q 0 1.6031 0.6746 0.8015 Q 1.3491 0 2.5708 0 Q 3.5728 0 4.1836 0.516 Q 4.7944 1.0318 4.9307 1.9796 L 4.0869 1.9796 Q 3.8496 0.6997 2.5752 0.6997 Q 1.7271 0.6997 1.2898 1.2998 Q 0.8525 1.8999 0.8481 3.0379 L 0.8481 3.5649 Q 0.8481 4.6499 1.3403 5.2898 Q 1.8325 5.9298 2.6719 5.9298 Q 3.1465 5.9298 3.5024 5.8234 Q 3.8584 5.7171 4.0913 5.4648 L 4.0913 4.0166 L 2.6104 4.0166 L 2.6104 3.3258 L 4.9307 3.3258 Z" fill="#004c99" stroke="none"/></g><g id="l1cun48tftt" transform="translate(13.809 21.026)"><path d="M 4.9175 0 L 4.9175 6.4478 L 4.0693 6.4478 L 0.8481 1.4791 L 0.8481 6.4478 L 0 6.4478 L 0 0 L 0.8481 0 L 4.0781 4.9909 L 4.0781 0 L 4.9175 0 Z" fill="#004c99" stroke="none"/></g><g id="l1cun48tftu" transform="translate(19.184 21.026)"><path d="M 4.7637 6.4478 L 4.1528 4.765 L 1.4722 4.765 L 0.8701 6.4478 L 0 6.4478 L 2.4434 0 L 3.1816 0 L 5.6294 6.4478 L 4.7637 6.4478 Z M 2.8125 1.0495 L 1.7271 4.0654 L 3.9023 4.0654 L 2.8125 1.0495 Z" fill="#004c99" stroke="none"/></g><g id="l1cun48tftv" transform="translate(25.675 21.026)"><path d="M 0.8481 0 L 0.8481 5.7526 L 3.8804 5.7526 L 3.8804 6.4478 L 0 6.4478 L 0 0 L 0.8481 0 Z" fill="#004c99" stroke="none"/></g></g></g></svg>