<?xml version="1.0" encoding="UTF-8"?>
<svg xmlns="http://www.w3.org/2000/svg" viewBox="0 0 64 64"><g id="mcwrxd63u4" class="Group.cls" transform="translate(12.5 5.5)"><g class="Prim.cls"><g id="mcwrxd66u5" transform="translate(6.037 25.114)"><ellipse cx="2.4815" cy="2.4429" fill="#ffffff" fill-opacity="1" rx="2.4815" ry="2.4429" stroke="#000000" stroke-linejoin="miter" stroke-opacity="1" stroke-width="0.5"/></g><g id="mcwrxd66u6" transform="translate(14.5 25.5)"><path d="M 1e-13 1e-13 L 24 0" fill="none" stroke="#464646" stroke-width="2"/></g><g id="mcwrxd66u7" transform="translate(14.5 29.5)"><path d="M 1e-13 1e-13 L 24 0" fill="none" stroke="#464646" stroke-width="2"/></g><g id="mcwrxd66u8" transform="translate(7 5.5)"><rect fill="none" height="10" stroke="none" stroke-width="0" width="35.5" x="0" y="0"/><g transform="translate(0 0)" class="Text.cls"><rect x="0" y="0" width="35.5" height="10" fill="none" stroke="none"/><text fill="#004c99" fill-opacity="1" font-family="Roboto Condensed" font-size="10px"><tspan x="17.75" y="8.3">SIGNAL</tspan></text></g></g><g id="mcwrxd66u9" transform="translate(3 20)"><path d="M 39 2 Q 39 0 37 0 L 7 0 Q 5 0 4 1 L 0 5 L 0 10 L 4 14 Q 5 15 7 15 L 37 15 Q 39 15 39 13 Z" fill="none" stroke="#000000" stroke-width="0.5"/></g><g id="mcwrxd66ua" transform="translate(0 0)"><path d="M 1e-13 1e-13 L 0 54" fill="none" stroke="#000000" stroke-width="0.5"/></g></g></g></svg>