<?xml version="1.0" encoding="UTF-8"?>
<svg xmlns="http://www.w3.org/2000/svg" viewBox="0 0 64 64"><g id="kzqs95t2tq" class="Group.cls" transform="translate(7.5 6)"><g class="Prim.cls"><g id="kzqs95t4tr" transform="translate(14.625 0.625) rotate(90 10 11.87499999999995)"><path d="M 20 23.75 L 0 14.5 L 1e-13 1e-13" fill="none" stroke="#000000" stroke-width="0.5"/></g><g id="kzqs95t4ts" transform="translate(24.625 10.625) rotate(90 4.973799150320701e-14 11.87499999999995)"><path d="M 0 23.75 L 1e-13 1e-13" fill="none" stroke="#000000" stroke-width="0.5"/></g><g id="kzqs95t4tt" transform="translate(7.4061 27.906) rotate(90 9.96875 4.625)"><path d="M 0 9.25 L 19.9375 0" fill="none" stroke="#000000" stroke-width="0.5"/></g><g id="kzqs95t4tu" transform="translate(29.25 35.25) rotate(90 4.973799150320701e-14 7.24999999999995)"><path d="M 0 14.5 L 1e-13 1e-13" fill="none" stroke="#000000" stroke-width="0.5"/></g><g id="kzqs95t4tv" transform="translate(12.4381 22.9371) rotate(90 4.96875 4.59375)"><path d="M 0 9.1875 L 9.9375 0" fill="none" stroke="#000000" stroke-width="0.5"/></g><g id="kzqs95t4tw" transform="translate(29.25 25.25) rotate(90 4.973799150320701e-14 7.24999999999995)"><path d="M 0 14.5 L 1e-13 1e-13" fill="none" stroke="#000000" stroke-width="0.5"/></g><g id="kzqs95t4tx" transform="translate(37 42.5) rotate(180 1.25 0)"><path d="M 1e-13 1e-13 L 2.5 0" fill="none" stroke="#ff0000" stroke-width="1"/></g><g id="kzqs95t4ty" transform="translate(37 40) rotate(180 0 2.5)"><path d="M 1e-13 1e-13 L 0 5" fill="none" stroke="#ff0000" stroke-width="1"/></g><g id="kzqs95t4tz" transform="translate(37 32.5) rotate(180 1.25 0)"><path d="M 1e-13 1e-13 L 2.5 0" fill="none" stroke="#ff0000" stroke-width="1"/></g><g id="kzqs95t4u0" transform="translate(37 30) rotate(180 0 2.5)"><path d="M 1e-13 1e-13 L 0 5" fill="none" stroke="#ff0000" stroke-width="1"/></g><g id="kzqs95t4u1" transform="translate(19.5941 5.656) rotate(90 5.03125 11.87499999999995)"><path d="M 10.0625 23.75 L 0 14.5 L 1e-13 1e-13" fill="none" stroke="#000000" stroke-width="0.5"/></g><g id="kzqs95t4u2" transform="translate(37 22.5) rotate(180 1.25 0)"><path d="M 1e-13 1e-13 L 2.5 0" fill="none" stroke="#ff0000" stroke-width="1"/></g><g id="kzqs95t4u3" transform="translate(37 20) rotate(180 0 2.5)"><path d="M 1e-13 1e-13 L 0 5" fill="none" stroke="#ff0000" stroke-width="1"/></g><g id="kzqs95t4u4" transform="translate(37 12.5) rotate(180 1.25 0)"><path d="M 1e-13 1e-13 L 2.5 0" fill="none" stroke="#ff0000" stroke-width="1"/></g><g id="kzqs95t4u5" transform="translate(37 10) rotate(180 0 2.5)"><path d="M 1e-13 1e-13 L 0 5" fill="none" stroke="#ff0000" stroke-width="1"/></g><g id="kzqs95t4u6" transform="translate(37 2.5) rotate(180 1.25 0)"><path d="M 1e-13 1e-13 L 2.5 0" fill="none" stroke="#ff0000" stroke-width="1"/></g><g id="kzqs95t4u7" transform="translate(37 0) rotate(180 0 2.5)"><path d="M 1e-13 1e-13 L 0 5" fill="none" stroke="#ff0000" stroke-width="1"/></g><g id="kzqs95t4u8" transform="translate(4.7 22.5)"><path d="M 7.8 0 L 1e-13 1e-13" fill="#000000" stroke="#000000" stroke-width="0.5"/></g><g id="kzqs95t4u9" transform="translate(0 19.3771)"><path d="M 5 3.0702 L 0 0 L 0 3.0702 M 0 3.0702 L 5 3.0702 L 0 6.1403 Z" fill="#000000" stroke="#000000" stroke-width="0.5"/></g></g></g></svg>