<?xml version="1.0" encoding="UTF-8"?>
<svg xmlns="http://www.w3.org/2000/svg" viewBox="0 0 64 64"><g id="l1cuhqjyfpu" class="Group.cls" transform="translate(16.688 14)"><g class="Prim.cls"><g id="l1cuhqk2fpv" transform="translate(3.283 11)"><path d="M 0 4.4615 Q 5.1381 4.4615 8.7063 4.4615 Q 8.7063 0 11.989 0 Q 15.5572 0 15.5572 4.4615 Q 16.8418 4.4615 23.9782 4.4615" fill="none" stroke="#000000" stroke-width="0.5"/></g><g id="l1cuhqk2fpw" transform="translate(2.854 12.673)"><path d="M 1e-13 1e-13 L 0 5.5769" fill="none" stroke="#646464" stroke-width="1"/></g><g id="l1cuhqk2fpx" transform="translate(26.833 12.673)"><path d="M 1e-13 1e-13 L 0 5.5769" fill="none" stroke="#646464" stroke-width="1"/></g><g id="l1cuhqk2fpy" transform="translate(0 15.461)"><path d="M 2.8546 0 L 1e-13 1e-13" fill="none" stroke="#646464" stroke-width="1"/></g><g id="l1cuhqk2fpz" transform="translate(26.833 15.461)"><path d="M 1e-13 1e-13 L 2.8546 0" fill="none" stroke="#646464" stroke-width="1"/></g><g id="l1cuhqk2fq0" transform="translate(12.958 0)"><path d="M 5.7091 0 L 5.7091 0.7234 L 3.3361 0.7234 L 3.3361 6.6662 L 2.3678 6.6662 L 2.3678 0.7234 L 0 0.7234 L 0 0 L 5.7091 0 Z" fill="#004c99" stroke="none" stroke-width="0.5"/></g><g id="l1cuhqk2fq1" transform="translate(6.813 36.102)"><path d="M 2.3511 3.8936 L 0.8438 3.8936 L 0.8438 6.3984 L 0 6.3984 L 0 0 L 2.3599 0 Q 3.4102 0 4.0056 0.5361 Q 4.6011 1.0723 4.6011 1.9556 Q 4.6011 2.8872 4.0188 3.3904 Q 3.4365 3.8936 2.3511 3.8936 Z M 0.8438 0.6943 L 0.8438 3.2036 L 2.3599 3.2036 Q 3.0366 3.2036 3.397 2.885 Q 3.7573 2.5664 3.7573 1.9644 Q 3.7573 1.3931 3.397 1.0503 Q 3.0366 0.7075 2.4082 0.6943 L 0.8438 0.6943 Z" fill="#004c99" fill-opacity="1" stroke="none" stroke-width="0.5"/></g><g id="l1cuhqk2fq2" transform="translate(12.552 36.102)"><path d="M 0.8438 0 L 0.8438 6.3984 L 0 6.3984 L 0 0 L 0.8438 0 Z" fill="#004c99" fill-opacity="1" stroke="none" stroke-width="0.5"/></g><g id="l1cuhqk2fq3" transform="translate(14.938 36.102)"><path d="M 2.3511 3.8936 L 0.8438 3.8936 L 0.8438 6.3984 L 0 6.3984 L 0 0 L 2.3599 0 Q 3.4102 0 4.0056 0.5361 Q 4.6011 1.0723 4.6011 1.9556 Q 4.6011 2.8872 4.0188 3.3904 Q 3.4365 3.8936 2.3511 3.8936 Z M 0.8438 0.6943 L 0.8438 3.2036 L 2.3599 3.2036 Q 3.0366 3.2036 3.397 2.885 Q 3.7573 2.5664 3.7573 1.9644 Q 3.7573 1.3931 3.397 1.0503 Q 3.0366 0.7075 2.4082 0.6943 L 0.8438 0.6943 Z" fill="#004c99" fill-opacity="1" stroke="none" stroke-width="0.5"/></g><g id="l1cuhqk2fq4" transform="translate(20.616 36.102)"><path d="M 3.6167 2.751 L 3.6167 3.4409 L 0.8438 3.4409 L 0.8438 5.7085 L 4.0649 5.7085 L 4.0649 6.3984 L 0 6.3984 L 0 0 L 4.021 0 L 4.021 0.6943 L 0.8438 0.6943 L 0.8438 2.751 L 3.6167 2.751 Z" fill="#004c99" fill-opacity="1" stroke="none" stroke-width="0.5"/></g></g></g></svg>