<?xml version="1.0" encoding="UTF-8"?>
<svg xmlns="http://www.w3.org/2000/svg" viewBox="0 0 64 64"><g id="kmncbsdyy9" class="Group.cls" transform="translate(17.259 12)"><g class="Prim.cls"><g id="kmncbsdzya" transform="translate(15.241 8)"><path d="M 0 30.5 L 1e-13 1e-13" fill="none" stroke-linecap="butt" stroke="#000000" stroke-width="0.5"/></g><g id="kmncbsdzyb" transform="translate(23.241 33.5)"><path d="M 1e-13 1e-13 L 0 10" fill="none" stroke="#000000" stroke-width="0.5"/></g><g id="kmncbsdzyc" transform="translate(28.241 33.5)"><path d="M 1e-13 1e-13 L 0 10" fill="none" stroke="#000000" stroke-width="0.5"/></g><g id="kmncbsdzyd" transform="translate(15.241 38.5)"><path d="M 7.9999999999999005 0 L 0 1e-13" fill="none" stroke-linecap="butt" stroke="#000000" stroke-width="0.5"/></g><g id="kmncbsdzye" transform="translate(7.241 33.5)"><path d="M 1e-13 1e-13 L 0 10" fill="none" stroke="#000000" stroke-width="0.5"/></g><g id="kmncbsdzyf" transform="translate(2.241 33.5)"><path d="M 1e-13 1e-13 L 0 10" fill="none" stroke="#000000" stroke-width="0.5"/></g><g id="kmncbsdzyg" transform="translate(7.241 38.5)"><path d="M 1e-13 1e-13 L 7.9999999999999005 1e-13" fill="none" stroke-linecap="butt" stroke="#000000" stroke-width="0.5"/></g><g id="kmncbsdzyh" transform="translate(0.09 38.526) rotate(270 2.151 0)"><path d="M 1e-13 1e-13 L 4.3024 0" fill="none" stroke="#ff0000" stroke-width="1"/></g><g id="kmncbsdzyi" transform="translate(1.121 37.406) rotate(270 0 1.121)"><path d="M 1e-13 1e-13 L 0 2.2413" fill="none" stroke="#ff0000" stroke-width="1"/></g><g id="kmncbsdzyj" transform="translate(26.099 38.526) rotate(90 2.151 0)"><path d="M 4.3024 0 L 1e-13 1e-13" fill="none" stroke="#ff0000" stroke-width="1"/></g><g id="kmncbsdzyk" transform="translate(29.37 37.406) rotate(90 0 1.121)"><path d="M 1e-13 1e-13 L 0 2.2413" fill="none" stroke="#ff0000" stroke-width="1"/></g><g id="kmncbsdzyl" transform="translate(10.616 0)"><ellipse cx="4.625" cy="4.819" fill="#ffffff" fill-opacity="1" rx="4.625" ry="4.819" stroke="#000000" stroke-width="0.5"/></g></g></g></svg>