<?xml version="1.0" encoding="UTF-8"?>
<svg xmlns="http://www.w3.org/2000/svg" viewBox="0 0 64 64"><g id="kmncbxt216a" class="Group.cls" transform="translate(8 22.5)"><g class="Prim.cls"><g id="kmncbxt316b" transform="translate(3 10)"><path d="M 1e-13 1e-13 L 40 0" fill="none" stroke-linecap="butt" stroke="#000000" stroke-width="0.5"/></g><g id="kmncbxt316c" transform="translate(13 0)"><ellipse fill="white" cx="10" cy="10" rx="10" ry="10" stroke-linecap="butt" stroke="#000000" stroke-width="0.5"/></g><g id="kmncbxt316d" transform="translate(13 2)"><path d="M 16 16 L 0 8 L 16 0" fill="none" stroke-linecap="butt" stroke="#000000" stroke-width="0.5"/></g><g id="kmncbxt316e" transform="translate(41 10) rotate(90 2.5 0)"><path d="M 1e-13 1e-13 L 5 0" fill="none" stroke="#ff0000" stroke-width="1"/></g><g id="kmncbxt316f" transform="translate(44.75 8.75) rotate(90 0 1.25)"><path d="M 1e-13 1e-13 L 0 2.5" fill="none" stroke="#ff0000" stroke-width="1"/></g><g id="kmncbxt316g" transform="translate(0 10) rotate(270 2.5 0)"><path d="M 5 0 L 1e-13 1e-13" fill="none" stroke="#ff0000" stroke-width="1"/></g><g id="kmncbxt316h" transform="translate(1.25 8.75) rotate(270 0 1.25)"><path d="M 1e-13 1e-13 L 0 2.5" fill="none" stroke="#ff0000" stroke-width="1"/></g></g></g></svg>