<?xml version="1.0" encoding="UTF-8"?>
<svg xmlns="http://www.w3.org/2000/svg" viewBox="0 0 64 64"><g id="kmncc9ct1mp" class="Group.cls" transform="translate(20 10)"><g class="Prim.cls"><g id="kmncc9cu1mq" transform="translate(12.5 2.5)"><path d="M 1e-13 1e-13 L 0 40" fill="none" stroke-linecap="butt" stroke="#000000" stroke-width="0.5"/></g><g id="kmncc9cu1mr" transform="translate(2.5 22.5)"><path d="M 1e-13 1e-13 L 20 0" fill="none" stroke-linecap="butt" stroke="#000000" stroke-width="0.5"/></g><g id="kmncc9cu1ms" transform="translate(7.5 14.5)"><rect fill="#ffffff" fill-opacity="1" height="21" stroke="#000000" stroke-width="0.5" width="10" x="0" y="0"/><g transform="translate(0 0)" class="Text.cls"><rect x="0" y="0" width="10" height="21" fill="none" stroke="none"/><text font-size="9px" fill="#000000" fill-opacity="1"><tspan x="5" y="13.47">S</tspan></text></g></g><g id="kmncc9cu1mt" transform="translate(8.5 7.5)"><path d="M 0 7 L 1e-13 1e-13 L 8 2.3333 L 8 7" fill="#ffffff" fill-opacity="1" stroke="#000000" stroke-width="0.5"/></g><g id="kmncc9cu1mu" transform="translate(8.5 35.5)"><path d="M 1e-13 1e-13 L 0 2 L 8 2 L 8 0" fill="#ffffff" fill-opacity="1" stroke="#000000" stroke-width="0.5"/></g><g id="kmncc9cu1mv" transform="translate(10 42.5) rotate(180 2.5 0)"><path d="M 1e-13 1e-13 L 5 0" fill="#ffffff" fill-opacity="1" stroke="#ff0000"/></g><g id="kmncc9cu1mw" transform="translate(12.5 42.5) rotate(180 0 1.25)"><path d="M 1e-13 1e-13 L 0 2.5" fill="#ffffff" fill-opacity="1" stroke="#ff0000"/></g><g id="kmncc9cu1mx" transform="translate(0 22.5) rotate(270 2.5 0)"><path d="M 5 0 L 1e-13 1e-13" fill="#ffffff" fill-opacity="1" stroke="#ff0000"/></g><g id="kmncc9cu1my" transform="translate(1.25 21.25) rotate(270 0 1.25)"><path d="M 1e-13 1e-13 L 0 2.5" fill="#ffffff" fill-opacity="1" stroke="#ff0000"/></g><g id="kmncc9cu1mz" transform="translate(20 22.5) rotate(90 2.5 0)"><path d="M 1.0036416142611415e-13 0 L 5 1e-13" fill="#ffffff" fill-opacity="1" stroke="#ff0000"/></g><g id="kmncc9cu1n0" transform="translate(23.75 21.25) rotate(90 0 1.25)"><path d="M 1e-13 1e-13 L 0 2.5" fill="#ffffff" fill-opacity="1" stroke="#ff0000"/></g><g id="kmncc9cu1n1" transform="translate(10 2.5)"><path d="M 5 0 L 1e-13 1e-13" fill="#ffffff" fill-opacity="1" stroke="#ff0000"/></g><g id="kmncc9cu1n2" transform="translate(12.5 0)"><path d="M 1e-13 1e-13 L 0 2.5" fill="#ffffff" fill-opacity="1" stroke="#ff0000"/></g></g></g></svg>