<?xml version="1.0" encoding="UTF-8"?>
<svg xmlns="http://www.w3.org/2000/svg" viewBox="0 0 64 64"><g id="kmncca4m1o0" class="Group.cls" transform="translate(10 27.5)"><g class="Prim.cls"><g id="kmncca4m1o1" transform="translate(2.5 0)"><path d="M 1e-13 1e-13 L 0 10" fill="none" stroke-dasharray="none" stroke="#000000" stroke-width="0.5"/></g><g id="kmncca4m1o2" transform="translate(42.5 0)"><path d="M 1e-13 1e-13 L 0 10" fill="none" stroke-dasharray="none" stroke="#000000" stroke-width="0.5"/></g><g id="kmncca4m1o3" transform="translate(2.5 5)"><path d="M 1e-13 1e-13 L 40 0" fill="none" stroke-dasharray="none" stroke="#000000" stroke-width="0.5"/></g><g id="kmncca4m1o4" transform="translate(40 5) rotate(90 2.5 0)"><path d="M 1e-13 1e-13 L 5 0" fill="none" stroke="#ff0000"/></g><g id="kmncca4m1o5" transform="translate(43.75 3.75) rotate(90 0 1.25)"><path d="M 1e-13 1e-13 L 0 2.5" fill="none" stroke="#ff0000"/></g><g id="kmncca4m1o6" transform="translate(0 5) rotate(270 2.5 0)"><path d="M 5 0 L 1e-13 1e-13" fill="none" stroke="#ff0000"/></g><g id="kmncca4m1o7" transform="translate(1.25 3.75) rotate(270 0 1.25)"><path d="M 1e-13 1e-13 L 0 2.5" fill="none" stroke="#ff0000"/></g></g></g></svg>