<?xml version="1.0" encoding="UTF-8"?>
<svg xmlns="http://www.w3.org/2000/svg" viewBox="0 0 64 64"><g id="kmncbknxp9" class="Group.cls" transform="translate(13 25)"><g class="Prim.cls"><g id="kmncbknxpa" transform="translate(12 0)"><ellipse cx="7.5" cy="7.5" fill="#000000" rx="7.5" ry="7.5" stroke="#000000" stroke-width="0.5"/></g><g id="kmncbknxpb" transform="translate(2.5 7.5)"><path d="M 1e-13 1e-13 L 34 0" fill="none" stroke="#000000" stroke-width="0.5"/></g><g id="kmncbknxpc" transform="translate(34 7.5) rotate(90 2.5 0)"><path d="M 1e-13 1e-13 L 5 0" fill="none" stroke="#ff0000"/></g><g id="kmncbknxpd" transform="translate(37.75 6.25) rotate(90 0 1.25)"><path d="M 1e-13 1e-13 L 0 2.5" fill="none" stroke="#ff0000"/></g><g id="kmncbknxpe" transform="translate(0 7.5) rotate(270 2.5 0)"><path d="M 5 0 L 1e-13 1e-13" fill="none" stroke="#ff0000"/></g><g id="kmncbknxpf" transform="translate(1.25 6.25) rotate(270 0 1.25)"><path d="M 1e-13 1e-13 L 0 2.5" fill="none" stroke="#ff0000"/></g></g></g></svg>