<?xml version="1.0" encoding="UTF-8"?>
<svg xmlns="http://www.w3.org/2000/svg" viewBox="0 0 64 64"><g id="kmncbnrjsp" class="Group.cls" transform="translate(22.259 13)"><g class="Prim.cls"><g id="kmncbnrjsq" transform="translate(10.241 0)"><path d="M 1e-13 1e-13 L 0 38.5518" fill="none" stroke="#000000" stroke-width="0.5"/></g><g id="kmncbnrjsr" transform="translate(2.741 38.5)"><path d="M 1e-13 1e-13 L 15 0" fill="none" stroke-linecap="butt" stroke="#000000" stroke-width="0.5"/></g><g id="kmncbnrjss" transform="translate(0.09 38.526) rotate(270 2.151 0)"><path d="M 1e-13 1e-13 L 4.3024 0" fill="none" stroke="#ff0000" stroke-width="1"/></g><g id="kmncbnrjst" transform="translate(1.121 37.406) rotate(270 0 1.121)"><path d="M 1e-13 1e-13 L 0 2.2413" fill="none" stroke="#ff0000" stroke-width="1"/></g><g id="kmncbnrjsu" transform="translate(16.099 38.526) rotate(90 2.151 0)"><path d="M 4.3024 0 L 1e-13 1e-13" fill="none" stroke="#ff0000" stroke-width="1"/></g><g id="kmncbnrjsv" transform="translate(19.371 37.406) rotate(90 0 1.121)"><path d="M 1e-13 1e-13 L 0 2.2413" fill="none" stroke="#ff0000" stroke-width="1"/></g><g id="kmncbnrjsw" transform="translate(5.616 0)"><ellipse cx="4.625" cy="4.819" fill="#ffffff" fill-opacity="1" rx="4.625" ry="4.819" stroke="#000000" stroke-width="0.5"/></g></g></g></svg>