<?xml version="1.0" encoding="UTF-8"?>
<svg xmlns="http://www.w3.org/2000/svg" viewBox="0 0 64 64"><g id="kmncc093195" class="Group.cls" transform="translate(10 12.5)"><g class="Prim.cls"><g id="kmncc093196" transform="translate(2.5 15)"><path d="M 1e-13 1e-13 L 0 10" fill="#ffffff" fill-opacity="1" stroke="#000000" stroke-width="0.5"/></g><g id="kmncc093197" transform="translate(42.5 15)"><path d="M 1e-13 1e-13 L 0 10" fill="#ffffff" fill-opacity="1" stroke="#000000" stroke-width="0.5"/></g><g id="kmncc093198" transform="translate(2.5 20)"><path d="M 1e-13 1e-13 L 40 0" fill="#ffffff" fill-opacity="1" stroke="#000000" stroke-width="0.5"/></g><g id="kmncc093199" transform="translate(12.5 0)"><ellipse cx="10" cy="10" fill="#ffffff" fill-opacity="1" rx="10" ry="10" stroke="#000000" stroke-width="0.5"/></g><g id="kmncc09319a" transform="translate(12.5 20)"><ellipse cx="10" cy="10" fill="#ffffff" fill-opacity="1" rx="10" ry="10" stroke="#000000" stroke-width="0.5"/></g><g id="kmncc09319b" transform="translate(0 20) rotate(270 2.5 0)"><path d="M 1e-13 1e-13 L 5 0" fill="none" stroke="#ff0000" stroke-width="1"/></g><g id="kmncc09319c" transform="translate(1.25 18.75) rotate(270 0 1.25)"><path d="M 1e-13 1e-13 L 0 2.5" fill="none" stroke="#ff0000" stroke-width="1"/></g><g id="kmncc09319d" transform="translate(40 20) rotate(90 2.5 0)"><path d="M 5 0 L 1e-13 1e-13" fill="none" stroke="#ff0000"/></g><g id="kmncc09319e" transform="translate(43.75 18.75) rotate(90 0 1.25)"><path d="M 1e-13 1e-13 L 0 2.5" fill="none" stroke="#ff0000"/></g></g></g></svg>