<?xml version="1.0" encoding="UTF-8"?>
<svg xmlns="http://www.w3.org/2000/svg" viewBox="0 0 64 64"><g id="kmncbll9qb" class="Group.cls" transform="translate(15 27.5)"><g class="Prim.cls"><g id="kmncbllaqc" transform="translate(2.5 5)"><path d="M 1e-13 1e-13 L 30 0" fill="none" stroke-linecap="butt" stroke="#000000" stroke-width="0.5"/></g><g id="kmncbllaqd" transform="translate(12.5 0)"><path fill="white" d="M 0 0 L 0 10 L 10 7.5 L 10 2.5 Z" stroke="#000000" stroke-width="0.5"/></g><g id="kmncbllaqe" transform="translate(30 5) rotate(90 2.5 0)"><path d="M 1e-13 1e-13 L 5 0" fill="none" stroke="#ff0000" stroke-width="1"/></g><g id="kmncbllaqf" transform="translate(33.75 3.75) rotate(90 0 1.25)"><path d="M 1e-13 1e-13 L 0 2.5" fill="none" stroke="#ff0000" stroke-width="1"/></g><g id="kmncbllaqg" transform="translate(0 5) rotate(270 2.5 0)"><path d="M 5 0 L 1e-13 1e-13" fill="none" stroke="#ff0000" stroke-width="1"/></g><g id="kmncbllaqh" transform="translate(1.25 3.75) rotate(270 0 1.25)"><path d="M 1e-13 1e-13 L 0 2.5" fill="none" stroke="#ff0000" stroke-width="1"/></g></g></g></svg>