<?xml version="1.0" encoding="UTF-8"?>
<svg xmlns="http://www.w3.org/2000/svg" viewBox="0 0 64 64"><g id="kmncbzbo17r" class="Group.cls" transform="translate(19 6)"><g class="Prim.cls"><g id="kmncbzbp17s" transform="translate(13.5 12.875)"><path d="M 1e-13 1e-13 L 0 20.75" fill="none" stroke-linecap="butt" stroke="#000000" stroke-width="0.5"/></g><g id="kmncbzbp17t" transform="translate(2.5 2.5)"><ellipse fill="white" cx="11" cy="10.5" rx="11" ry="10.5" stroke-linecap="butt" stroke="#000000" stroke-width="0.5"/></g><g id="kmncbzbp17u" transform="translate(3.125 33.625)"><path d="M 1e-13 1e-13 L 20.75 0" fill="none" stroke-linecap="butt" stroke="#000000" stroke-width="0.5"/></g><g id="kmncbzbp17v" transform="translate(3.125 43.5)"><path d="M 20.75 0 L 1e-13 1e-13" fill="none" stroke-linecap="butt" stroke="#000000" stroke-width="0.5"/></g><g id="kmncbzbp17w" transform="translate(11 2.5)"><path d="M 5 0 L 1e-13 1e-13" fill="none" stroke="#ff0000" stroke-width="1"/></g><g id="kmncbzbp17x" transform="translate(13.5 0)"><path d="M 1e-13 1e-13 L 0 2.5" fill="none" stroke="#ff0000" stroke-width="1"/></g><g id="kmncbzbp17y" transform="translate(11 43.5) rotate(180 2.5 0)"><path d="M 5 0 L 1e-13 1e-13" fill="none" stroke="#ff0000"/></g><g id="kmncbzbp17z" transform="translate(13.5 43.5) rotate(180 0 1.25)"><path d="M 1e-13 1e-13 L 0 2.5" fill="none" stroke="#ff0000"/></g><g id="kmncbzbp180" transform="translate(0 13) rotate(270 2.5 0)"><path d="M 5 0 L 1e-13 1e-13" fill="none" stroke="#ff0000"/></g><g id="kmncbzbp181" transform="translate(1.25 11.75) rotate(270 0 1.25)"><path d="M 1e-13 1e-13 L 0 2.5" fill="none" stroke="#ff0000"/></g><g id="kmncbzbp182" transform="translate(22 13) rotate(90 2.5 0)"><path d="M 5 0 L 1e-13 1e-13" fill="none" stroke="#ff0000"/></g><g id="kmncbzbp183" transform="translate(25.75 11.75) rotate(90 0 1.25)"><path d="M 1e-13 1e-13 L 0 2.5" fill="none" stroke="#ff0000"/></g></g></g></svg>