<?xml version="1.0" encoding="UTF-8"?>
<svg xmlns="http://www.w3.org/2000/svg" viewBox="0 0 64 64"><g id="kmnccer51wk" class="Group.cls" transform="translate(7.25 14)"><g class="Prim.cls"><g id="kmnccer61wl" transform="translate(2.25 3.333)"><rect fill="none" height="15.3333" stroke="none" stroke-linecap="butt" stroke-width="0.5" width="46" x="0" y="0"/></g><g id="kmnccer61wm" transform="translate(2.25 3.333)"><path d="M 0 15.3333 L 23 0 L 46 15.3333" fill="none" stroke-linecap="butt" stroke="#000000" stroke-width="0.5"/></g><g id="kmnccer61wn" transform="translate(22.75 2.5)"><path d="M 1e-13 1e-13 L 5 0" fill="none" stroke="#ff0000"/></g><g id="kmnccer61wo" transform="translate(25.25 0)"><path d="M 1e-13 1e-13 L 0 2.5" fill="none" stroke="#ff0000"/></g><g id="kmnccer61wp" transform="translate(22.75 18.5) rotate(180 2.5 0)"><path d="M 5 0 L 1e-13 1e-13" fill="none" stroke="#ff0000"/></g><g id="kmnccer61wq" transform="translate(25.25 18.5) rotate(180 0 1.25)"><path d="M 1e-13 1e-13 L 0 2.5" fill="none" stroke="#ff0000"/></g><g id="kmnccer61wr" transform="translate(0 18.5) rotate(270 2.5 0)"><path d="M 5 0 L 1e-13 1e-13" fill="none" stroke="#ff0000"/></g><g id="kmnccer61ws" transform="translate(1.25 17.25) rotate(270 0 1.25)"><path d="M 1e-13 1e-13 L 0 2.5" fill="none" stroke="#ff0000"/></g><g id="kmnccer61wt" transform="translate(45.75 18.5) rotate(90 2.5 0)"><path d="M 5 0 L 1e-13 1e-13" fill="none" stroke="#ff0000"/></g><g id="kmnccer61wu" transform="translate(49.5 17.25) rotate(90 0 1.25)"><path d="M 1e-13 1e-13 L 0 2.5" fill="none" stroke="#ff0000"/></g></g></g></svg>