<?xml version="1.0" encoding="UTF-8"?>
<svg xmlns="http://www.w3.org/2000/svg" viewBox="0 0 64 64"><g id="kmnccawx1pb" class="Group.cls" transform="translate(21.5 24)"><g class="Prim.cls"><g id="kmnccawy1pc" transform="translate(1.25 7.25) rotate(270 0 1.25)"><path d="M 1e-13 1e-13 L 0 2.5" fill="none" stroke="#ff0000"/></g><g id="kmnccawy1pd" transform="translate(3 2.5)"><rect fill="white" height="12" stroke="#000000" stroke-width="0.5" width="16" x="0" y="0"/><g transform="translate(0 0)" class="Text.cls"><rect x="0" y="0" width="15.999973678632308" height="12" fill="none" stroke="none"/><text font-size="8px" fill="#000000" fill-opacity="1"><tspan x="7.99998664855957" y="8.64">DS</tspan></text></g></g><g id="kmnccawy1pe" transform="translate(20.25 7.25) rotate(90 0 1.25)"><path d="M 1e-13 1e-13 L 0 2.5" fill="none" stroke="#ff0000"/></g><g id="kmnccawy1pf" transform="translate(16.5 8.5) rotate(90 2.5 0)"><path d="M 1e-13 1e-13 L 5 0" fill="none" stroke="#ff0000"/></g><g id="kmnccawy1pg" transform="translate(1.75 7.25) rotate(270 0 1.25)"><path d="M 1e-13 1e-13 L 0 2.5" fill="none" stroke="#ff0000"/></g><g id="kmnccawy1ph" transform="translate(0.5 8.5) rotate(270 2.5 0)"><path d="M 5 0 L 1e-13 1e-13" fill="none" stroke="#ff0000"/></g><g id="kmnccawy1pi" transform="translate(8.5 2.5)"><path d="M 5 0 L 1e-13 1e-13" fill="none" stroke="#ff0000"/></g><g id="kmnccawy1pj" transform="translate(11 0)"><path d="M 1e-13 1e-13 L 0 2.5" fill="none" stroke="#ff0000"/></g><g id="kmnccawy1pk" transform="translate(8.5 14.5) rotate(180 2.5 0)"><path d="M 5 0 L 1e-13 1e-13" fill="none" stroke="#ff0000"/></g><g id="kmnccawy1pl" transform="translate(11 14.5) rotate(180 0 1.25)"><path d="M 1e-13 1e-13 L 0 2.5" fill="none" stroke="#ff0000"/></g></g></g></svg>