<?xml version="1.0" encoding="UTF-8"?>
<svg xmlns="http://www.w3.org/2000/svg" viewBox="0 0 64 64"><g id="kmncbmzhrh" class="Group.cls" transform="translate(15 28.5)"><g class="Prim.cls"><g id="kmncbmzjri" transform="translate(2.5 4)"><path d="M 1e-13 1e-13 L 30 0" fill="none" stroke-linecap="butt" stroke="#000000" stroke-width="0.5"/></g><g id="kmncbmzjrj" transform="translate(12.5 0)"><path fill="white" d="M 0 0 L 0 10 L 10 7 L 10 0 Z" stroke="#000000" stroke-width="0.5"/></g><g id="kmncbmzjrk" transform="translate(30 4) rotate(90 2.5 0)"><path d="M 1e-13 1e-13 L 5 0" fill="none" stroke="#ff0000" stroke-width="1"/></g><g id="kmncbmzjrl" transform="translate(33.75 2.75) rotate(90 0 1.25)"><path d="M 1e-13 1e-13 L 0 2.5" fill="none" stroke="#ff0000" stroke-width="1"/></g><g id="kmncbmzjrm" transform="translate(0 4) rotate(270 2.5 0)"><path d="M 5 0 L 1e-13 1e-13" fill="none" stroke="#ff0000" stroke-width="1"/></g><g id="kmncbmzjrn" transform="translate(1.25 2.75) rotate(270 0 1.25)"><path d="M 1e-13 1e-13 L 0 2.5" fill="none" stroke="#ff0000" stroke-width="1"/></g></g></g></svg>