<?xml version="1.0" encoding="UTF-8"?>
<svg xmlns="http://www.w3.org/2000/svg" viewBox="0 0 64 64"><g id="kmncc6ai1hb" class="Group.cls" transform="translate(9 9)"><g class="Prim.cls"><g id="kmncc6ai1hc" transform="translate(2.426 2.5)"><rect fill="white" height="41" stroke-linecap="butt" stroke="#000000" stroke-width="0.5" width="42.07442439497254" x="0" y="0"/></g><g id="kmncc6ai1hd" transform="translate(2.425 2.5)"><rect fill="none" height="41.5" stroke="#000000" stroke-width="0" width="41.626525530226445" x="0" y="0"/><g transform="translate(0 0)" class="Text.cls"><rect x="0" y="0" width="41.626529351756254" height="41.5" fill="none" stroke="none"/><text fill="#000000" fill-opacity="1" font-size="30px"><tspan x="20.813264846801758" y="30.65">T</tspan></text></g></g><g id="kmncc6ai1he" transform="translate(42.052 23.5) rotate(90 2.5 0)"><path d="M 1e-13 1e-13 L 5 0" fill="none" stroke="#ff0000"/></g><g id="kmncc6ai1hf" transform="translate(45.776 22.276) rotate(90 0 1.224)"><path d="M 1e-13 1e-13 L 0 2.4479" fill="none" stroke="#ff0000"/></g><g id="kmncc6aj1hg" transform="translate(-0.052 23.5) rotate(270 2.5 0)"><path d="M 5 0 L 1e-13 1e-13" fill="none" stroke="#ff0000"/></g><g id="kmncc6aj1hh" transform="translate(1.224 22.276) rotate(270 0 1.224)"><path d="M 1e-13 1e-13 L 0 2.4479" fill="none" stroke="#ff0000"/></g><g id="kmncc6aj1hi" transform="translate(21 43.552) rotate(180 2.5 0)"><path d="M 1e-13 1e-13 L 5 0" fill="none" stroke="#ff0000"/></g><g id="kmncc6aj1hj" transform="translate(23.5 43.552) rotate(180 0 1.224)"><path d="M 1e-13 1e-13 L 0 2.4479" fill="none" stroke="#ff0000"/></g><g id="kmncc6aj1hk" transform="translate(21 2.448)"><path d="M 5 0 L 1e-13 1e-13" fill="none" stroke="#ff0000"/></g><g id="kmncc6aj1hl" transform="translate(23.5 0)"><path d="M 1e-13 1e-13 L 0 2.4479" fill="none" stroke="#ff0000"/></g></g></g></svg>