<?xml version="1.0" encoding="UTF-8"?>
<svg xmlns="http://www.w3.org/2000/svg" viewBox="0 0 64 64"><g id="kmncbx0t14r" class="Group.cls" transform="translate(5 27.5)"><g class="Prim.cls"><g id="kmncbx0t14s" transform="translate(21.389 5)"><path d="M 1e-13 1e-13 L 18.88888888888889 20" fill="none" stroke="#000000" stroke-width="0.5"/></g><g id="kmncbx0t14t" transform="translate(37.444 22)"><path d="M 5.666666666666666 0 L 0 6" fill="none" stroke="#000000" stroke-width="0.5"/></g><g id="kmncbx0t14u" transform="translate(2.5 0)"><path d="M 1e-13 1e-13 L 0 10" fill="none" stroke="#000000" stroke-width="0.5"/></g><g id="kmncbx0t14v" transform="translate(52.5 0)"><path d="M 1e-13 1e-13 L 0 10" fill="none" stroke="#000000" stroke-width="0.5"/></g><g id="kmncbx0t14w" transform="translate(2.5 5)"><path d="M 1e-13 1e-13 L 50 0" fill="none" stroke="#000000" stroke-width="0.5"/></g><g id="kmncbx0t14x" transform="translate(50 5) rotate(90 2.5 0)"><path d="M 1e-13 1e-13 L 5 0" fill="none" stroke="#ff0000"/></g><g id="kmncbx0t14y" transform="translate(53.75 3.75) rotate(90 0 1.25)"><path d="M 1e-13 1e-13 L 0 2.5" fill="none" stroke="#ff0000"/></g><g id="kmncbx0t14z" transform="translate(0 5) rotate(270 2.5 0)"><path d="M 5 0 L 1e-13 1e-13" fill="none" stroke="#ff0000"/></g><g id="kmncbx0t150" transform="translate(1.25 3.75) rotate(270 0 1.25)"><path d="M 1e-13 1e-13 L 0 2.5" fill="none" stroke="#ff0000"/></g></g></g></svg>