<?xml version="1.0" encoding="UTF-8"?>
<svg xmlns="http://www.w3.org/2000/svg" viewBox="0 0 64 64"><g id="kmncc5ho1fz" class="Group.cls" transform="translate(5 27.5)"><g class="Prim.cls"><g id="kmncc5hp1g0" transform="translate(2.5 5)"><path d="M 1e-13 1e-13 L 50 0" fill="none" stroke-linecap="butt" stroke="#000000" stroke-width="0.5"/></g><g id="kmncc5hp1g1" transform="translate(17.5 2)"><rect fill="white" height="6" stroke-linecap="butt" stroke="#000000" stroke-width="0.5" width="20" x="0" y="0"/></g><g id="kmncc5hp1g2" transform="translate(19.5 0)"><rect fill="white" height="10" stroke-linecap="butt" stroke="#000000" stroke-width="0.5" width="16" x="0" y="0"/></g><g id="kmncc5hp1g3" transform="translate(25.949 1.953)"><path d="M 3.1367 2.5625 L 3.1367 3.1758 L 0.75 3.1758 L 0.75 5.6875 L 0 5.6875 L 0 0 L 3.5234 0 L 3.5234 0.6172 L 0.75 0.6172 L 0.75 2.5625 L 3.1367 2.5625 Z" fill="#000000" stroke="none" stroke-linecap="butt" stroke-opacity="0.62" stroke-width="0.5"/></g><g id="kmncc5hp1g4" transform="translate(0 5) rotate(270 2.5 0)"><path d="M 5 0 L 1e-13 1e-13" fill="none" stroke="#ff0000" stroke-width="1"/></g><g id="kmncc5hp1g5" transform="translate(1.25 3.75) rotate(270 0 1.25)"><path d="M 1e-13 1e-13 L 0 2.5" fill="none" stroke="#ff0000" stroke-width="1"/></g><g id="kmncc5hp1g6" transform="translate(50 5) rotate(90 2.5 0)"><path d="M 1e-13 1e-13 L 5 0" fill="none" stroke="#ff0000" stroke-width="1"/></g><g id="kmncc5hp1g7" transform="translate(53.75 3.75) rotate(90 0 1.25)"><path d="M 1e-13 1e-13 L 0 2.5" fill="none" stroke="#ff0000" stroke-width="1"/></g></g></g></svg>