<?xml version="1.0" encoding="UTF-8"?>
<svg xmlns="http://www.w3.org/2000/svg" viewBox="0 0 64 64"><g id="kmnccd7z1tn" class="Group.cls" transform="translate(5 19.974)"><g class="Prim.cls"><g id="kmnccd7z1to" transform="translate(2.5 12.526)"><path d="M 1e-13 1e-13 L 50 0" fill="none" fill-opacity="0.39" stroke-linecap="butt" stroke="#000000" stroke-width="0.5"/></g><g id="kmnccd7z1tp" transform="translate(5.5 6.526)"><rect fill="#ffffff" fill-opacity="1" height="12" stroke="#000000" stroke-width="0.5" width="44" x="0" y="0"/></g><g id="kmnccd7z1tq" transform="translate(49.5 0)"><path d="M 1e-13 1e-13 L 0 25.0526" fill="#ffffff" fill-opacity="1" stroke="#000000" stroke-width="0.5"/></g><g id="kmnccd7z1tr" transform="translate(5.5 0)"><path d="M 1e-13 1e-13 L 0 25.0526" fill="#ffffff" fill-opacity="1" stroke="#000000" stroke-width="0.5"/></g><g id="kmnccd7z1ts" transform="translate(24.145 9.171)"><ellipse cx="3.3553" cy="3.3553" fill="#000000" fill-opacity="1" rx="3.3553" ry="3.3553" stroke="#000000" stroke-width="0.5"/></g><g id="kmnccd7z1tt" transform="translate(21.79 6.816)"><path d="M 11.4211 0 L 0 11.4211" fill="#ffffff" fill-opacity="1" stroke="#000000" stroke-width="0.5"/></g><g id="kmnccd7z1tu" transform="translate(50 12.526) rotate(90 2.5 0)"><path d="M 1e-13 1e-13 L 5 0" fill="#ffffff" fill-opacity="1" stroke="#ff0000"/></g><g id="kmnccd7z1tv" transform="translate(53.75 11.276) rotate(90 0 1.25)"><path d="M 1e-13 1e-13 L 0 2.5" fill="#ffffff" fill-opacity="1" stroke="#ff0000"/></g><g id="kmnccd7z1tw" transform="translate(0 12.526) rotate(270 2.5 0)"><path d="M 5 0 L 1e-13 1e-13" fill="#ffffff" fill-opacity="1" stroke="#ff0000"/></g><g id="kmnccd7z1tx" transform="translate(1.25 11.276) rotate(270 0 1.25)"><path d="M 1e-13 1e-13 L 0 2.5" fill="#ffffff" fill-opacity="1" stroke="#ff0000"/></g></g></g></svg>