<?xml version="1.0" encoding="UTF-8"?>
<svg xmlns="http://www.w3.org/2000/svg" viewBox="0 0 64 64"><g id="kmncc3bd1d8" class="Group.cls" transform="translate(4 17)"><g class="Prim.cls"><g id="kmncc3be1d9" transform="translate(2.5 15.5)"><path d="M 1e-13 1e-13 L 52 0" fill="none" stroke-linecap="butt" stroke="#000000" stroke-width="0.5"/></g><g id="kmncc3be1da" transform="translate(15.5 2.5)"><rect fill="white" height="26" stroke-linecap="butt" stroke="#000000" stroke-width="0.5" width="26" x="0" y="0"/></g><g id="kmncc3be1db" transform="translate(15.5 2.5)"><path d="M 1e-13 1e-13 L 26 26" fill="none" stroke-dasharray="2.5 3" stroke-linecap="butt" stroke="#000000" stroke-width="0.5"/></g><g id="kmncc3be1dc" transform="translate(0 15.5) rotate(270 2.5 0)"><path d="M 5 0 L 1e-13 1e-13" fill="none" stroke="#ff0000"/></g><g id="kmncc3be1dd" transform="translate(1.25 14.25) rotate(270 0 1.25)"><path d="M 1e-13 1e-13 L 0 2.5" fill="none" stroke="#ff0000"/></g><g id="kmncc3be1de" transform="translate(52 15.5) rotate(90 2.5 0)"><path d="M 1e-13 1e-13 L 5 0" fill="none" stroke="#ff0000"/></g><g id="kmncc3be1df" transform="translate(55.75 14.25) rotate(90 0 1.25)"><path d="M 1e-13 1e-13 L 0 2.5" fill="none" stroke="#ff0000"/></g><g id="kmncc3be1dg" transform="translate(26 2.5)"><path d="M 5 0 L 1e-13 1e-13" fill="none" stroke="#ff0000"/></g><g id="kmncc3be1dh" transform="translate(28.5 0)"><path d="M 1e-13 1e-13 L 0 2.5" fill="none" stroke="#ff0000"/></g><g id="kmncc3be1di" transform="translate(26 28.5) rotate(180 2.5 0)"><path d="M 5 0 L 1e-13 1e-13" fill="none" stroke="#ff0000"/></g><g id="kmncc3be1dj" transform="translate(28.5 28.5) rotate(180 0 1.25)"><path d="M 1e-13 1e-13 L 0 2.5" fill="none" stroke="#ff0000"/></g></g></g></svg>