<?xml version="1.0" encoding="UTF-8"?>
<svg xmlns="http://www.w3.org/2000/svg" viewBox="0 0 64 64"><g id="kmncbgrfii" class="Group.cls" transform="translate(17 24.5)"><g class="Prim.cls"><g id="kmncbgrhij" transform="translate(12.5 0) rotate(180 0 8)"><path d="M 1e-13 1e-13 L 0 16" fill="none" stroke="#000000" stroke-width="0.5"/></g><g id="kmncbgrhik" transform="translate(20.5 0) rotate(180 0 8)"><path d="M 1e-13 1e-13 L 0 16" fill="none" stroke="#000000" stroke-width="0.5"/></g><g id="kmncbgrhil" transform="translate(2.5 8) rotate(180 5 0)"><path d="M 1e-13 1e-13 L 10 0" fill="none" stroke-linecap="butt" stroke="#000000" stroke-width="0.5"/></g><g id="kmncbgrhim" transform="translate(0 8) rotate(270 2.5 0)"><path d="M 1e-13 1e-13 L 5 0" fill="none" stroke="#ff0000" stroke-width="1"/></g><g id="kmncbgrhin" transform="translate(1.25 6.75) rotate(270 0 1.25)"><path d="M 1e-13 1e-13 L 0 2.5" fill="none" stroke="#ff0000" stroke-width="1"/></g><g id="kmncbgrhio" transform="translate(18 8) rotate(90 2.5 0)"><path d="M 5 0 L 1e-13 1e-13" fill="none" stroke="#ff0000" stroke-width="1"/></g><g id="kmncbgrhip" transform="translate(21.75 6.75) rotate(90 0 1.25)"><path d="M 1e-13 1e-13 L 0 2.5" fill="none" stroke="#ff0000" stroke-width="1"/></g></g></g></svg>