<?xml version="1.0" encoding="UTF-8"?>
<svg xmlns="http://www.w3.org/2000/svg" viewBox="0 0 64 64"><g id="kmncbi5hln" class="Group.cls" transform="translate(21 23.5)"><g class="Prim.cls"><g id="kmncbi5ilo" transform="translate(11.5 0)"><path d="M 1e-13 1e-13 L 0 18" fill="none" stroke="#000000" stroke-width="0.5"/></g><g id="kmncbi5ilp" transform="translate(11.5 0)"><path d="M 1e-13 1e-13 L 9 0" fill="none" stroke="#000000" stroke-width="0.5"/></g><g id="kmncbi5ilq" transform="translate(2.5 9)"><path d="M 8.999999999999899 0 L 0 1e-13" fill="none" stroke-linecap="butt" stroke="#000000" stroke-width="0.5"/></g><g id="kmncbi5ilr" transform="translate(11.5 18)"><path d="M 1e-13 1e-13 L 9 0" fill="none" stroke="#000000" stroke-width="0.5"/></g><g id="kmncbi5ils" transform="translate(0 9) rotate(270 2.5 0)"><path d="M 5 0 L 1e-13 1e-13" fill="none" stroke="#ff0000" stroke-width="1"/></g><g id="kmncbi5ilt" transform="translate(1.25 7.75) rotate(270 0 1.25)"><path d="M 1e-13 1e-13 L 0 2.5" fill="none" stroke="#ff0000" stroke-width="1"/></g><g id="kmncbi5ilu" transform="translate(18 9) rotate(90 2.5 0)"><path d="M 5 0 L 1e-13 1e-13" fill="none" stroke="#ff0000" stroke-width="1"/></g><g id="kmncbi5ilv" transform="translate(21.75 7.75) rotate(90 0 1.25)"><path d="M 1e-13 1e-13 L 0 2.5" fill="none" stroke="#ff0000" stroke-width="1"/></g></g></g></svg>