<?xml version="1.0" encoding="UTF-8"?>
<svg xmlns="http://www.w3.org/2000/svg" viewBox="0 0 64 64"><g id="kmnccbol1qx" class="Group.cls" transform="translate(8 20)"><g class="Prim.cls"><g id="kmnccbol1qy" transform="translate(0 12.5) rotate(270 2.5 0)"><path d="M 5 0 L 1e-13 1e-13" fill="none" stroke="#ff0000" stroke-width="1"/></g><g id="kmnccbol1qz" transform="translate(1.25 11.25) rotate(270 0 1.25)"><path d="M 1e-13 1e-13 L 0 2.5" fill="none" stroke="#ff0000" stroke-width="1"/></g><g id="kmnccbol1r0" transform="translate(44 12.5) rotate(90 2.5 0)"><path d="M 1e-13 1e-13 L 5 0" fill="none" stroke="#ff0000"/></g><g id="kmnccbol1r1" transform="translate(47.813 11.188) rotate(90 0 1.312)"><path d="M 1e-13 1e-13 L 0 2.6249999999999694" fill="none" stroke="#ff0000"/></g><g id="kmnccbol1r2" transform="translate(4.5 2.5)"><path d="M 40 10 C 40 15.54 35.54 20 30 20 C 24.46 20 20 15.54 20 10 C 20 4.46 15.54 0 10 0 C 4.46 0 0 4.46 0 10" fill="none" stroke="#000000" stroke-width="0.5"/></g><g id="kmnccbol1r3" transform="translate(44.5 2.5)"><path d="M 1e-13 1e-13 L 0 20" fill="none" stroke="#000000" stroke-width="0.5"/></g><g id="kmnccbol1r4" transform="translate(4.5 2.5)"><path d="M 1e-13 1e-13 L 0 20" fill="none" stroke="#000000" stroke-width="0.5"/></g><g id="kmnccbol1r5" transform="translate(34.5 20)"><path d="M 1e-13 1e-13 L 0 5" fill="none" stroke="#000000" stroke-width="0.5"/></g><g id="kmnccbol1r6" transform="translate(14.5 0)"><path d="M 1e-13 1e-13 L 0 5" fill="none" stroke="#000000" stroke-width="0.5"/></g><g id="kmnccbom1r7" transform="translate(19.5 3.5)"><path d="M 4 0 L 0 4" fill="none" stroke="#000000" stroke-width="0.5"/></g><g id="kmnccbom1r8" transform="translate(25.5 18)"><path d="M 3.5 0 L 0 3.5" fill="none" stroke="#000000" stroke-width="0.5"/></g><g id="kmnccbom1r9" transform="translate(5.5 3.5)"><path d="M 1e-13 1e-13 L 4 4" fill="none" stroke="#000000" stroke-width="0.5"/></g><g id="kmnccbom1ra" transform="translate(39.5 17.5)"><path d="M 1e-13 1e-13 L 4 4" fill="none" stroke="#000000" stroke-width="0.5"/></g><g id="kmnccbom1rb" transform="translate(22 12.5)"><path d="M 1e-13 1e-13 L 5 0" fill="none" stroke="#000000" stroke-width="0.5"/></g></g></g></svg>