<?xml version="1.0" encoding="UTF-8"?>
<svg xmlns="http://www.w3.org/2000/svg" viewBox="0 0 64 64"><g id="kmncc8lk1l7" class="Group.cls" transform="translate(5 27.5)"><g class="Prim.cls"><g id="kmncc8lk1l8" transform="translate(2.5 5)"><path d="M 1e-13 1e-13 L 50 0" fill="none" stroke-linecap="butt" stroke="#000000" stroke-width="0.5"/></g><g id="kmncc8lk1l9" transform="translate(17.5 2)"><rect fill="white" height="6" stroke-linecap="butt" stroke="#000000" stroke-width="0.5" width="20" x="0" y="0"/></g><g id="kmncc8lk1la" transform="translate(19.5 0)"><rect fill="white" height="10" stroke-linecap="butt" stroke="#000000" stroke-width="0.5" width="16" x="0" y="0"/></g><g id="kmncc8lk1lb" transform="translate(25.439 1.874)"><path d="M 2.0234 3.2305 Q 1.0586 2.9531 0.6191 2.5488 Q 0.1797 2.1445 0.1797 1.5508 Q 0.1797 0.8789 0.7168 0.4395 Q 1.2539 0 2.1133 0 Q 2.6992 0 3.1582 0.2266 Q 3.6172 0.4531 3.8691 0.8516 Q 4.1211 1.25 4.1211 1.7227 L 3.3672 1.7227 Q 3.3672 1.207 3.0391 0.9121 Q 2.7109 0.6172 2.1133 0.6172 Q 1.5586 0.6172 1.248 0.8613 Q 0.9375 1.1055 0.9375 1.5391 Q 0.9375 1.8867 1.2324 2.127 Q 1.5273 2.3672 2.2363 2.5664 Q 2.9453 2.7656 3.3457 3.0059 Q 3.7461 3.2461 3.9395 3.5664 Q 4.1328 3.8867 4.1328 4.3203 Q 4.1328 5.0117 3.5938 5.4277 Q 3.0547 5.8438 2.1523 5.8438 Q 1.5664 5.8438 1.0586 5.6191 Q 0.5508 5.3945 0.2754 5.0039 Q 0 4.6133 0 4.1172 L 0.7539 4.1172 Q 0.7539 4.6328 1.1348 4.9316 Q 1.5156 5.2305 2.1523 5.2305 Q 2.7461 5.2305 3.0625 4.9883 Q 3.3789 4.7461 3.3789 4.3281 Q 3.3789 3.9102 3.0859 3.6816 Q 2.793 3.4531 2.0234 3.2305 Z" fill="#000000" stroke="none" stroke-linecap="butt" stroke-opacity="0.62" stroke-width="0.5"/></g><g id="kmncc8lk1lc" transform="translate(50 5) rotate(90 2.5 0)"><path d="M 1e-13 1e-13 L 5 0" fill="none" stroke="#ff0000"/></g><g id="kmncc8lk1ld" transform="translate(53.75 3.75) rotate(90 0 1.25)"><path d="M 1e-13 1e-13 L 0 2.5" fill="none" stroke="#ff0000"/></g><g id="kmncc8lk1le" transform="translate(0 5) rotate(270 2.5 0)"><path d="M 5 0 L 1e-13 1e-13" fill="none" stroke="#ff0000"/></g><g id="kmncc8ll1lf" transform="translate(1.25 3.75) rotate(270 0 1.25)"><path d="M 1e-13 1e-13 L 0 2.5" fill="none" stroke="#ff0000"/></g></g></g></svg>