<?xml version="1.0" encoding="UTF-8"?>
<svg xmlns="http://www.w3.org/2000/svg" viewBox="0 0 64 64"><g id="kmncccfv1sd" class="Group.cls" transform="translate(5 25.5)"><g class="Prim.cls"><g id="kmncccfw1se" transform="translate(2.5 7)"><path d="M 1e-13 1e-13 L 50 0" fill="none" fill-opacity="0.39" stroke-linecap="butt" stroke="#000000" stroke-width="0.5"/></g><g id="kmncccfw1sf" transform="translate(10.5 0)"><path fill="white" d="M 34 12.250000000000005 C 34 13.219499999999995 32.736333333333285 14 31.166666666666647 14 C 29.597000000000033 14 28.333333333333286 13.219499999999995 28.333333333333286 12.250000000000005 C 28.333333333333286 13.219499999999995 27.069666666666663 14 25.49999999999994 14 C 23.93033333333332 14 22.666666666666647 13.219499999999995 22.666666666666647 12.250000000000005 C 22.666666666666647 13.219499999999995 21.403000000000002 14 19.833333333333325 14 C 18.263666666666655 14 17 13.219499999999995 17 12.250000000000005 C 17 13.219499999999995 15.736333333333329 14 14.166666666666643 14 C 12.596999999999989 14 11.333333333333323 13.219499999999995 11.333333333333323 12.250000000000005 C 11.333333333333323 13.219499999999995 10.069666666666668 14 8.5 14 C 6.930333333333326 14 5.666666666666662 13.219499999999995 5.666666666666662 12.250000000000005 C 5.666666666666662 13.219499999999995 4.4029999999999925 14 2.833333333333331 14 C 1.263666666666666 14 0 13.219499999999995 0 12.250000000000005 L 0 1.75 C 0 0.7805000000000001 1.263666666666666 0 2.833333333333331 0 C 4.4029999999999925 0 5.666666666666662 0.7805000000000001 5.666666666666662 1.75 C 5.666666666666662 0.7805000000000001 6.930333333333326 0 8.5 0 C 10.069666666666668 0 11.333333333333323 0.7805000000000001 11.333333333333323 1.75 C 11.333333333333323 0.7805000000000001 12.596999999999989 0 14.166666666666643 0 C 15.736333333333329 0 17 0.7805000000000001 17 1.75 C 17 0.7805000000000001 18.263666666666655 0 19.833333333333325 0 C 21.403000000000002 0 22.666666666666647 0.7805000000000001 22.666666666666647 1.75 C 22.666666666666647 0.7805000000000001 23.93033333333332 0 25.49999999999994 0 C 27.069666666666663 0 28.333333333333286 0.7805000000000001 28.333333333333286 1.75 C 28.333333333333286 0.7805000000000001 29.597000000000033 0 31.166666666666647 0 C 32.736333333333285 0 34 0.7805000000000001 34 1.75 Z" stroke="#000000" stroke-width="0.5"/></g><g id="kmncccfw1sg" transform="translate(50 7) rotate(270 2.5 0)"><path d="M 1e-13 1e-13 L 5 0" fill="none" stroke="#ff0000"/></g><g id="kmncccfw1sh" transform="translate(53.75 5.75) rotate(270 0 1.25)"><path d="M 1e-13 1e-13 L 0 2.5" fill="none" stroke="#ff0000"/></g><g id="kmncccfw1si" transform="translate(0 7) rotate(90 2.5 0)"><path d="M 5 0 L 1e-13 1e-13" fill="none" stroke="#ff0000"/></g><g id="kmncccfw1sj" transform="translate(1.25 5.75) rotate(90 0 1.25)"><path d="M 1e-13 1e-13 L 0 2.5" fill="none" stroke="#ff0000"/></g></g></g></svg>