<?xml version="1.0" encoding="UTF-8"?>
<svg xmlns="http://www.w3.org/2000/svg" viewBox="0 0 64 64"><g id="kmnccfjk1xy" class="Group.cls" transform="translate(5 23)"><g class="Prim.cls"><g id="kmnccfjk1xz" transform="translate(2.5 2.5)"><rect fill="white" height="13" stroke-linecap="butt" stroke="#000000" stroke-width="0.5" width="50" x="0" y="0"/></g><g id="kmnccfjl1y0" transform="translate(2.5 2.5)"><path d="M 0 12.999999999999998 L 6.25 0 L 12.5 12.999999999999998 L 18.75 0 L 25 12.999999999999998 L 31.25 0 L 37.5 12.999999999999998 L 43.75 0 L 50 12.999999999999998" fill="none" stroke-linecap="butt" stroke="#000000" stroke-width="0.5"/></g><g id="kmnccfjl1y1" transform="translate(0 9.5) rotate(270 2.5 0)"><path d="M 5 0 L 1e-13 1e-13" fill="none" stroke="#ff0000"/></g><g id="kmnccfjl1y2" transform="translate(1.25 8.25) rotate(270 0 1.25)"><path d="M 1e-13 1e-13 L 0 2.5" fill="none" stroke="#ff0000"/></g><g id="kmnccfjl1y3" transform="translate(50 9.5) rotate(90 2.5 0)"><path d="M 1.0036416142611415e-13 0 L 5 1e-13" fill="none" stroke="#ff0000"/></g><g id="kmnccfjl1y4" transform="translate(53.75 8.25) rotate(90 0 1.25)"><path d="M 1e-13 1e-13 L 0 2.5" fill="none" stroke="#ff0000"/></g><g id="kmnccfjl1y5" transform="translate(25 2.5)"><path d="M 1e-13 1e-13 L 5 0" fill="none" stroke="#ff0000"/></g><g id="kmnccfjl1y6" transform="translate(27.5 0)"><path d="M 1e-13 1e-13 L 0 2.5" fill="none" stroke="#ff0000"/></g><g id="kmnccfjl1y7" transform="translate(25 15.5) rotate(180 2.5 0)"><path d="M 5 0 L 1e-13 1e-13" fill="none" stroke="#ff0000"/></g><g id="kmnccfjl1y8" transform="translate(27.5 15.5) rotate(180 0 1.25)"><path d="M 1e-13 1e-13 L 0 2.5" fill="none" stroke="#ff0000"/></g></g></g></svg>