<?xml version="1.0" encoding="UTF-8"?>
<svg xmlns="http://www.w3.org/2000/svg" viewBox="0 0 64 64"><g id="kmncc1mv1am" class="Group.cls" transform="translate(16 9)"><g class="Prim.cls"><g id="kmncc1mw1an" transform="translate(7.5 2.5)"><path fill="white" d="M 17 33.6 C 17 38.2536 13.209 42 8.5 42 C 3.791 42 0 38.2536 0 33.6 L 0 0 L 17 0 Z" stroke="#000000" stroke-width="0.5"/></g><g id="kmncc1mw1ao" transform="translate(24.5 13.5)"><path d="M 1e-13 1e-13 L 8 0" fill="none" stroke="#000000" stroke-width="0.5"/></g><g id="kmncc1mw1ap" transform="translate(0 13.5)"><path d="M 7.3749999999999 0 L 0 1e-13" fill="none" stroke="#000000" stroke-width="0.5"/></g><g id="kmncc1mw1aq" transform="translate(28.029 13.496) rotate(90 2.471 0)"><path d="M 1e-13 1e-13 L 4.9412 0" fill="none" stroke="#ff0000"/></g><g id="kmncc1mw1ar" transform="translate(31.75 12.246) rotate(90 0 1.25)"><path d="M 1e-13 1e-13 L 0 2.5" fill="none" stroke="#ff0000"/></g><g id="kmncc1mw1as" transform="translate(0.029 13.496) rotate(270 2.471 0)"><path d="M 4.9412 0 L 1e-13 1e-13" fill="none" stroke="#ff0000"/></g><g id="kmncc1mw1at" transform="translate(1.25 12.246) rotate(270 0 1.25)"><path d="M 1e-13 1e-13 L 0 2.5" fill="none" stroke="#ff0000"/></g><g id="kmncc1mw1au" transform="translate(14 2.5)"><path d="M 5 0 L 1e-13 1e-13" fill="none" stroke="#ff0000"/></g><g id="kmncc1mw1av" transform="translate(16.5 0)"><path d="M 1e-13 1e-13 L 0 2.5" fill="none" stroke="#ff0000"/></g><g id="kmncc1mw1aw" transform="translate(14 44.5) rotate(180 2.5 0)"><path d="M 5 0 L 1e-13 1e-13" fill="none" stroke="#ff0000"/></g><g id="kmncc1mw1ax" transform="translate(16.5 44.5) rotate(180 0 1.25)"><path d="M 1e-13 1e-13 L 0 2.5" fill="none" stroke="#ff0000"/></g></g></g></svg>