<?xml version="1.0" encoding="UTF-8"?>
<svg xmlns="http://www.w3.org/2000/svg" viewBox="0 0 64 64"><g id="kmncc71r1it" class="Group.cls" transform="translate(5 23.5)"><g class="Prim.cls"><g id="kmncc71s1iu" transform="translate(2.5 9)"><path d="M 1e-13 1e-13 L 50 0" fill="none" fill-opacity="0.39" stroke-linecap="butt" stroke="#000000" stroke-width="0.5"/></g><g id="kmncc71s1iv" transform="translate(10.5 0)"><rect fill="white" height="17.97369956970215" stroke="#000000" stroke-width="0.5" width="17" x="0" y="0"/></g><g id="kmncc71s1iw" transform="translate(27.5 0)"><path fill="white" d="M 17 0 L 17 17.973799999999997 L 0 8.986899999999999 Z" stroke="#000000" stroke-width="0.5"/></g><g id="kmncc71s1ix" transform="translate(0 9) rotate(270 2.5 0)"><path d="M 5 0 L 1e-13 1e-13" fill="none" stroke="#ff0000" stroke-width="1"/></g><g id="kmncc71s1iy" transform="translate(1.25 7.75) rotate(270 0 1.25)"><path d="M 1e-13 1e-13 L 0 2.5" fill="none" stroke="#ff0000" stroke-width="1"/></g><g id="kmncc71s1iz" transform="translate(50 9) rotate(90 2.5 0)"><path d="M 1e-13 1e-13 L 5 0" fill="none" stroke="#ff0000" stroke-width="1"/></g><g id="kmncc71s1j0" transform="translate(53.75 7.75) rotate(90 0 1.25)"><path d="M 1e-13 1e-13 L 0 2.5" fill="none" stroke="#ff0000" stroke-width="1"/></g></g></g></svg>