<?xml version="1.0" encoding="UTF-8"?>
<svg xmlns="http://www.w3.org/2000/svg" viewBox="0 0 64 64"><g id="kmncce411v5" class="Group.cls" transform="translate(12.5 11.5)"><g class="Prim.cls"><g id="kmncce421v6" transform="translate(0 0)"><rect fill="white" height="21" stroke="#000000" stroke-width="0.5" width="41" x="0" y="0"/></g><g id="kmncce421v7" transform="translate(20.012 21)"><path d="M 1e-13 1e-13 L 0 20" fill="none" stroke="#000000" stroke-width="0.5"/></g><g id="kmncce421v8" transform="translate(0 0)"><path d="M 1e-13 1e-13 L 20.0116 21" fill="none" stroke="#000000" stroke-width="0.5"/></g><g id="kmncce421v9" transform="translate(0 0)"><path d="M 20.0116 0 L 0 21" fill="none" stroke="#000000" stroke-width="0.5"/></g><g id="kmncce421va" transform="translate(20.012 0)"><path d="M 1e-13 1e-13 L 20.9884 21" fill="none" stroke="#000000" stroke-width="0.5"/></g><g id="kmncce421vb" transform="translate(20.012 0)"><path d="M 20.9884 0 L 0 21" fill="none" stroke="#000000" stroke-width="0.5"/></g><g id="kmncce421vc" transform="translate(11.5 41) rotate(90 2.5 0)"><path d="M 1e-13 1e-13 L 5 0" fill="none" stroke="#ff0000"/></g><g id="kmncce421vd" transform="translate(12.75 39.75) rotate(90 0 1.25)"><path d="M 1e-13 1e-13 L 0 2.5" fill="none" stroke="#ff0000"/></g><g id="kmncce421ve" transform="translate(14.5 41)"><path d="M 1e-13 1e-13 L 11 0" fill="none" fill-opacity="0.39" stroke-linecap="butt" stroke="#000000" stroke-width="0.5"/></g><g id="kmncce421vf" transform="translate(23.5 41) rotate(270 2.5 0)"><path d="M 5 0 L 1e-13 1e-13" fill="none" stroke="#ff0000"/></g><g id="kmncce421vg" transform="translate(27.25 39.75) rotate(270 0 1.25)"><path d="M 1e-13 1e-13 L 0 2.5" fill="none" stroke="#ff0000"/></g></g></g></svg>