<?xml version="1.0" encoding="UTF-8"?>
<svg xmlns="http://www.w3.org/2000/svg" viewBox="0 0 64 64"><g id="kmncbis2mv" class="Group.cls" transform="translate(16 25.5)"><g class="Prim.cls"><g id="kmncbis3mw" transform="translate(16.5 0)"><path d="M 1e-13 1e-13 L 0 14" fill="none" stroke="#000000" stroke-width="0.5"/></g><g id="kmncbis3mx" transform="translate(9.5 0)"><rect fill="none" height="14" stroke="none" stroke-linecap="butt" stroke-width="0.5" width="14" x="0" y="0"/></g><g id="kmncbis3my" transform="translate(20 7)"><path d="M 1e-13 1e-13 L 10.5 0" fill="none" stroke="#000000" stroke-width="0.5"/></g><g id="kmncbis3mz" transform="translate(2.5 7)"><path d="M 10.5 0 L 1e-13 1e-13" fill="none" stroke="#000000" stroke-width="0.5"/></g><g id="kmncbis3n0" transform="translate(0 7) rotate(270 2.5 0)"><path d="M 5 0 L 1e-13 1e-13" fill="none" stroke="#ff0000" stroke-width="1"/></g><g id="kmncbis3n1" transform="translate(1.25 5.75) rotate(270 0 1.25)"><path d="M 1e-13 1e-13 L 0 2.5" fill="none" stroke="#ff0000" stroke-width="1"/></g><g id="kmncbis4n2" transform="translate(28 7) rotate(90 2.5 0)"><path d="M 1e-13 1e-13 L 5 0" fill="none" stroke="#ff0000" stroke-width="1"/></g><g id="kmncbis4n3" transform="translate(31.75 5.75) rotate(90 0 1.25)"><path d="M 1e-13 1e-13 L 0 2.5" fill="none" stroke="#ff0000" stroke-width="1"/></g></g></g></svg>