<?xml version="1.0" encoding="UTF-8"?>
<svg xmlns="http://www.w3.org/2000/svg" viewBox="0 0 64 64"><g id="kmncc7tv1k0" class="Group.cls" transform="translate(26 11.5)"><g class="Prim.cls"><g id="kmncc7tw1k1" transform="translate(0.5 0)"><path fill="white" d="M 12 22.9333 C 12 26.1096 9.324 28.6667 6 28.6667 C 2.676 28.6667 0 26.1096 0 22.9333 L 0 5.7333 C 0 2.5571 2.676 0 6 0 C 9.324 0 12 2.5571 12 5.7333 Z" stroke="#000000" stroke-width="0.5"/></g><g id="kmncc7tw1k2" transform="translate(6.5 28.687)"><path d="M 1e-13 1e-13 L 0 14.25" fill="none" stroke="#000000" stroke-width="0.5"/></g><g id="kmncc7tw1k3" transform="translate(9 43) rotate(90 2.5 0)"><path d="M 1e-13 1e-13 L 5 0" fill="none" stroke="#ff0000"/></g><g id="kmncc7tw1k4" transform="translate(12.75 41.75) rotate(90 0 1.25)"><path d="M 1e-13 1e-13 L 0 2.5" fill="none" stroke="#ff0000"/></g><g id="kmncc7tw1k5" transform="translate(2.5 43)"><path d="M 1e-13 1e-13 L 8.5 0" fill="none" stroke-linecap="butt" stroke="#000000" stroke-width="0.5"/></g><g id="kmncc7tw1k6" transform="translate(0 43) rotate(270 2.5 0)"><path d="M 5 0 L 1e-13 1e-13" fill="none" stroke="#ff0000"/></g><g id="kmncc7tw1k7" transform="translate(1.25 41.75) rotate(270 0 1.25)"><path d="M 1e-13 1e-13 L 0 2.5" fill="none" stroke="#ff0000"/></g></g></g></svg>