<?xml version="1.0" encoding="UTF-8"?>
<svg xmlns="http://www.w3.org/2000/svg" viewBox="0 0 64 64"><g id="kmncc4py1ej" class="Group.cls" transform="translate(5 27.5)"><g class="Prim.cls"><g id="kmncc4py1ek" transform="translate(2.5 5)"><path d="M 1e-13 1e-13 L 50 0" fill="none" stroke-linecap="butt" stroke="#000000" stroke-width="0.5"/></g><g id="kmncc4py1el" transform="translate(17.5 2)"><rect fill="white" height="6" stroke-linecap="butt" stroke="#000000" stroke-width="0.5" width="20" x="0" y="0"/></g><g id="kmncc4py1em" transform="translate(19.5 0)"><rect fill="white" height="10" stroke-linecap="butt" stroke="#000000" stroke-width="0.5" width="16" x="0" y="0"/></g><g id="kmncc4py1en" transform="translate(25.438 1.875)"><path d="M 2 5.625 C 5.375 4.875 4.375 0 2 0 L 0 0 L 0 5.625 Z M 2.0408 5.0625 C 4.1136 4.4625 3.4995 0.5625 2.0408 0.5625 L 0.8125 0.5625 L 0.8125 5.0625 Z" fill="#000000" stroke="none" stroke-linecap="butt" stroke-opacity="1" stroke-width="0.5"/></g><g id="kmncc4py1eo" transform="translate(0 5) rotate(270 2.5 0)"><path d="M 5 0 L 1e-13 1e-13" fill="none" stroke="#ff0000"/></g><g id="kmncc4py1ep" transform="translate(1.25 3.75) rotate(270 0 1.25)"><path d="M 1e-13 1e-13 L 0 2.5" fill="none" stroke="#ff0000"/></g><g id="kmncc4py1eq" transform="translate(50 5) rotate(90 2.5 0)"><path d="M 1e-13 1e-13 L 5 0" fill="none" stroke="#ff0000"/></g><g id="kmncc4py1er" transform="translate(53.75 3.75) rotate(90 0 1.25)"><path d="M 1e-13 1e-13 L 0 2.5" fill="none" stroke="#ff0000"/></g></g></g></svg>