<?xml version="1.0" encoding="UTF-8"?>
<svg xmlns="http://www.w3.org/2000/svg" viewBox="0 0 64 64"><g id="ks8lhgxev6" class="Group.cls" transform="translate(10 19)"><g class="Prim.cls"><g id="ks8lhgxev7" transform="translate(2.5 2.5)"><rect fill="white" height="20" stroke="#000000" stroke-width="0.5" width="40" x="0" y="0"/></g><g id="ks8lhgxev8" transform="translate(12.5 5.5)"><path fill="white" d="M 5 0 L 15 0 L 20 7 L 15 14 L 5 14 L 0 7 Z" stroke="#000000" stroke-width="0.5"/></g><g id="ks8lhgxev9" transform="translate(0 12.5) rotate(270 2.5 0)"><path d="M 5 0 L 1e-13 1e-13" fill="none" stroke="#ff0000"/></g><g id="ks8lhgxeva" transform="translate(1.25 11.25) rotate(270 0 1.25)"><path d="M 1e-13 1e-13 L 0 2.5" fill="none" stroke="#ff0000"/></g><g id="ks8lhgxevb" transform="translate(40 12.5) rotate(90 2.5 0)"><path d="M 1e-13 1e-13 L 5 0" fill="none" stroke="#ff0000"/></g><g id="ks8lhgxevc" transform="translate(43.75 11.25) rotate(90 0 1.25)"><path d="M 1e-13 1e-13 L 0 2.5" fill="none" stroke="#ff0000"/></g><g id="ks8lhgxevd" transform="translate(20 2.5)"><path d="M 5 0 L 1e-13 1e-13" fill="none" stroke="#ff0000"/></g><g id="ks8lhgxeve" transform="translate(22.5 0)"><path d="M 1e-13 1e-13 L 0 2.5" fill="none" stroke="#ff0000"/></g><g id="ks8lhgxevf" transform="translate(20 22.5) rotate(180 2.5 0)"><path d="M 1e-13 1e-13 L 5 0" fill="none" stroke="#ff0000"/></g><g id="ks8lhgxevg" transform="translate(22.5 22.5) rotate(180 0 1.25)"><path d="M 1e-13 1e-13 L 0 2.5" fill="none" stroke="#ff0000"/></g></g></g></svg>