<?xml version="1.0" encoding="UTF-8"?>
<svg xmlns="http://www.w3.org/2000/svg" viewBox="0 0 64 64"><g id="ks8lhn8h16m" class="Group.cls" transform="translate(10 20)"><g class="Prim.cls"><g id="ks8lhn8i16n" transform="translate(2.5 2.5)"><rect fill="#ffffff" fill-opacity="1" height="22.000049591064453" stroke="#000000" stroke-width="0.5488" width="40.00029795532227" x="0" y="0"/></g><g id="ks8lhn8i16o" transform="translate(22.43 2.361)"><path d="M 1e-13 1e-13 L 0 11.069397238374863" fill="#ffffff" fill-opacity="1" stroke="#000000" stroke-width="0.5488"/></g><g id="ks8lhn8i16p" transform="translate(12.396 13.431)"><path d="M 0 11.06939723837476 L 1.0388209605807353e-13 0" fill="#ffffff" fill-opacity="1" stroke="#000000" stroke-width="0.5488"/></g><g id="ks8lhn8i16q" transform="translate(32.465 13.431)"><path d="M 0 11.06939723837476 L 1.0388209605807353e-13 0" fill="#ffffff" fill-opacity="1" stroke="#000000" stroke-width="0.5488"/></g><g id="ks8lhn8i16r" transform="translate(0 13.5) rotate(270 2.5 0)"><path d="M 5 0 L 1e-13 1e-13" fill="none" stroke="#ff0000" stroke-width="0.9445"/></g><g id="ks8lhn8i16s" transform="translate(1.25 12.25) rotate(270 0 1.25)"><path d="M 1e-13 1e-13 L 0 2.499949999999998" fill="none" stroke="#ff0000" stroke-width="0.9445"/></g><g id="ks8lhn8i16t" transform="translate(20.139 24.5) rotate(180 2.361 0)"><path d="M 1e-13 1e-13 L 4.7222 0" fill="none" stroke="#ff0000" stroke-width="0.9445"/></g><g id="ks8lhn8i16u" transform="translate(22.5 24.5) rotate(180 0 1.181)"><path d="M 1e-13 1e-13 L 0 2.3611" fill="none" stroke="#ff0000" stroke-width="0.9445"/></g><g id="ks8lhn8i16v" transform="translate(40.278 13.493) rotate(90 2.361 0)"><path d="M 1e-13 1e-13 L 4.7222 0" fill="none" stroke="#ff0000" stroke-width="0.9445"/></g><g id="ks8lhn8i16w" transform="translate(43.819 12.313) rotate(90 0 1.181)"><path d="M 1e-13 1e-13 L 0 2.3611" fill="none" stroke="#ff0000" stroke-width="0.9445"/></g><g id="ks8lhn8i16x" transform="translate(20.139 2.5)"><path d="M 4.7221999999995985 0 L 1e-13 1e-13" fill="none" stroke="#ff0000" stroke-width="0.9445"/></g><g id="ks8lhn8i16y" transform="translate(22.5 0)"><path d="M 1e-13 1e-13 L 0 2.499950000000001" fill="none" stroke="#ff0000" stroke-width="0.9445"/></g></g></g></svg>