<?xml version="1.0" encoding="UTF-8"?>
<svg xmlns="http://www.w3.org/2000/svg" viewBox="0 0 64 64"><g id="ks8lhkxb125" class="Group.cls" transform="translate(18 22.5)"><g class="Prim.cls"><g id="ks8lhkxc126" transform="translate(12.5 0) rotate(90 0 10)"><path d="M 1e-13 1e-13 L 0 20" fill="none" stroke-dasharray="none" stroke="#000000" stroke-width="0.5"/></g><g id="ks8lhkxc127" transform="translate(12.5 5) rotate(90 10 5)"><path d="M 0 10 L 10 0 L 20 10" fill="none" stroke-dasharray="none" stroke="#000000" stroke-width="0.5"/></g><g id="ks8lhkxc128" transform="translate(25 10) rotate(90 2.5 0)"><path d="M 5 0 L 1e-13 1e-13" fill="none" stroke="#ff0000" stroke-dasharray="none" stroke-width="1"/></g><g id="ks8lhkxc129" transform="translate(28.75 8.75) rotate(90 0 1.25)"><path d="M 1e-13 1e-13 L 0 2.5" fill="none" stroke="#ff0000" stroke-dasharray="none" stroke-width="1"/></g><g id="ks8lhkxc12a" transform="translate(0 10) rotate(270 2.5 0)"><path d="M 1e-13 1e-13 L 5 0" fill="none" stroke="#ff0000" stroke-dasharray="none" stroke-width="1"/></g><g id="ks8lhkxc12b" transform="translate(1.25 8.75) rotate(270 0 1.25)"><path d="M 1e-13 1e-13 L 0 2.5" fill="none" stroke="#ff0000" stroke-dasharray="none" stroke-width="1"/></g></g></g></svg>