<?xml version="1.0" encoding="UTF-8"?>
<svg xmlns="http://www.w3.org/2000/svg" viewBox="0 0 64 64"><g id="ks8lhjlg10v" class="Group.cls" transform="translate(22 21.991)"><g class="Prim.cls"><g id="ks8lhjlh10w" transform="translate(2.507 2.511) rotate(120 7.995 7.995)"><path fill="white" d="M 15.990460683870968 7.995178714838709 C 15.990460683870968 3.565883574193548 12.424577109677418 0 7.995178714838709 0 C 3.565883574193548 0 0 3.565883574193548 0 7.995178714838709 C 0 12.424577109677418 3.565883574193548 15.990460683870968 7.995178714838709 15.990460683870968 C 12.424577109677418 15.990460683870968 15.990460683870968 12.424577109677418 15.990460683870968 7.995178714838709 Z" stroke="#000000" stroke-width="0.1355"/></g><g id="ks8lhjlh10x" transform="translate(5.969 8.508) rotate(120 7.995 3.998)"><path d="M 15.990460683870968 7.995178714838709 L 0 7.995178714838709 C 0 3.565883574193548 3.565883574193548 0 7.995178714838709 0 C 12.424577109677418 0 15.990460683870968 3.565883574193548 15.990460683870968 7.995178714838709 Z" fill="#000000" stroke="#000000" stroke-width="0.1355"/></g><g id="ks8lhjlh10y" transform="translate(0 10.509) rotate(270 2.5 0)"><path d="M 5 0 L 1e-13 1e-13" fill="none" stroke="#ff0000"/></g><g id="ks8lhjlh10z" transform="translate(1.25 9.259) rotate(270 0 1.25)"><path d="M 1e-13 1e-13 L 0 2.5" fill="none" stroke="#ff0000"/></g><g id="ks8lhjlh110" transform="translate(16 10.509) rotate(90 2.5 0)"><path d="M 1e-13 1e-13 L 5 0" fill="none" stroke="#ff0000"/></g><g id="ks8lhjlh111" transform="translate(19.75 9.259) rotate(90 0 1.25)"><path d="M 1e-13 1e-13 L 0 2.5" fill="none" stroke="#ff0000"/></g><g id="ks8lhjlh112" transform="translate(8.004 2.5)"><path d="M 5 0 L 1e-13 1e-13" fill="none" stroke="#ff0000"/></g><g id="ks8lhjlh113" transform="translate(10.504 0)"><path d="M 1e-13 1e-13 L 0 2.5" fill="none" stroke="#ff0000"/></g><g id="ks8lhjlh114" transform="translate(8 18.509) rotate(180 2.5 0)"><path d="M 1e-13 1e-13 L 5 0" fill="none" stroke="#ff0000"/></g><g id="ks8lhjlh115" transform="translate(10.5 18.509) rotate(180 0 1.25)"><path d="M 1e-13 1e-13 L 0 2.5" fill="none" stroke="#ff0000"/></g></g></g></svg>