<?xml version="1.0" encoding="UTF-8"?>
<svg xmlns="http://www.w3.org/2000/svg" viewBox="0 0 64 64"><g id="ks8lho0918a" class="Group.cls" transform="translate(10 27)"><g class="Prim.cls"><g id="ks8lho0918b" transform="translate(2.5 2.5)"><rect fill="#ffffff" fill-opacity="1" height="16" stroke="#000000" stroke-width="0.5" width="40" x="0" y="0"/></g><g id="ks8lho0918c" transform="translate(12.5 2.5)"><path d="M 1e-13 1e-13 L 0 16" fill="#ffffff" fill-opacity="1" stroke="#000000" stroke-width="0.5"/></g><g id="ks8lho0918d" transform="translate(22.5 2.5)"><path d="M 1e-13 1e-13 L 0 16" fill="#ffffff" fill-opacity="1" stroke="#000000" stroke-width="0.5"/></g><g id="ks8lho0918e" transform="translate(32.5 2.5)"><path d="M 1e-13 1e-13 L 0 16" fill="#ffffff" fill-opacity="1" stroke="#000000" stroke-width="0.5"/></g><g id="ks8lho0918f" transform="translate(2.5 10.5)"><path d="M 1e-13 1e-13 L 40 0" fill="#ffffff" fill-opacity="1" stroke="#000000" stroke-width="0.5"/></g><g id="ks8lho0918g" transform="translate(0 10.5) rotate(270 2.5 0)"><path d="M 5 0 L 1e-13 1e-13" fill="#ffffff" fill-opacity="1" stroke="#ff0000"/></g><g id="ks8lho0918h" transform="translate(1.25 9.25) rotate(270 0 1.25)"><path d="M 1e-13 1e-13 L 0 2.5" fill="#ffffff" fill-opacity="1" stroke="#ff0000"/></g><g id="ks8lho0918i" transform="translate(40 10.5) rotate(90 2.5 0)"><path d="M 1e-13 1e-13 L 5 0" fill="#ffffff" fill-opacity="1" stroke="#ff0000"/></g><g id="ks8lho0a18j" transform="translate(43.75 9.25) rotate(90 0 1.25)"><path d="M 1e-13 1e-13 L 0 2.5" fill="#ffffff" fill-opacity="1" stroke="#ff0000"/></g><g id="ks8lho0a18k" transform="translate(20 2.5)"><path d="M 5 0 L 1e-13 1e-13" fill="#ffffff" fill-opacity="1" stroke="#ff0000"/></g><g id="ks8lho0a18l" transform="translate(22.5 0)"><path d="M 1e-13 1e-13 L 0 2.5" fill="#ffffff" fill-opacity="1" stroke="#ff0000"/></g><g id="ks8lho0a18m" transform="translate(20 18.5) rotate(180 2.5 0)"><path d="M 1e-13 1e-13 L 5 0" fill="#ffffff" fill-opacity="1" stroke="#ff0000"/></g><g id="ks8lho0a18n" transform="translate(22.5 18.5) rotate(180 0 1.25)"><path d="M 1e-13 1e-13 L 0 2.5" fill="#ffffff" fill-opacity="1" stroke="#ff0000"/></g></g></g></svg>