<?xml version="1.0" encoding="UTF-8"?>
<svg xmlns="http://www.w3.org/2000/svg" viewBox="0 0 64 64"><g id="ks8lhr361fx" class="Group.cls" transform="translate(13 9)"><g class="Prim.cls"><g id="ks8lhr371fy" transform="translate(2.5 20.5)"><rect fill="#ffffff" fill-opacity="1" height="16" stroke="#000000" stroke-width="0.4254" width="34" x="0" y="0"/></g><g id="ks8lhr371fz" transform="translate(28.5 20.5)"><path d="M 1e-13 1e-13 L 0 16" fill="#ffffff" fill-opacity="1" stroke="#000000" stroke-width="0.4254"/></g><g id="ks8lhr371g0" transform="translate(19.5 19.5)"><path d="M 1e-13 1e-13 L 0 17" fill="#ffffff" fill-opacity="1" stroke="#000000" stroke-width="0.4254"/></g><g id="ks8lhr371g1" transform="translate(10.5 20.5)"><path d="M 1e-13 1e-13 L 0 16" fill="#ffffff" fill-opacity="1" stroke="#000000" stroke-width="0.4254"/></g><g id="ks8lhr371g2" transform="translate(2.5 28.5)"><path d="M 34 0 L 1e-13 1e-13" fill="#ffffff" fill-opacity="1" stroke="#000000" stroke-width="0.4254"/></g><g id="ks8lhr371g3" transform="translate(2.5 2.5)"><path d="M 0 18 L 34 18 C 34 8.028 26.418 0 17 0 C 7.582000000000001 0 0 8.028 0 18 Z" fill="#ffffff" fill-opacity="1" stroke="#000000" stroke-width="0.4254"/></g><g id="ks8lhr371g4" transform="translate(34 28.5) rotate(90 2.5 0)"><path d="M 1.0036416142611415e-13 0 L 5 1e-13" fill="none" stroke="#ff0000" stroke-width="1"/></g><g id="ks8lhr371g5" transform="translate(37.75 27.25) rotate(90 0 1.25)"><path d="M 1e-13 1e-13 L 0 2.5" fill="none" stroke="#ff0000" stroke-width="1"/></g><g id="ks8lhr371g6" transform="translate(0 28.5) rotate(270 2.5 0)"><path d="M 5 0 L 1e-13 1e-13" fill="none" stroke="#ff0000" stroke-width="1"/></g><g id="ks8lhr371g7" transform="translate(1.25 27.25) rotate(270 0 1.25)"><path d="M 1e-13 1e-13 L 0 2.5" fill="none" stroke="#ff0000" stroke-width="1"/></g><g id="ks8lhr371g8" transform="translate(17 36.5) rotate(180 2.5 0)"><path d="M 5 0 L 1e-13 1e-13" fill="none" stroke="#ff0000" stroke-width="1"/></g><g id="ks8lhr371g9" transform="translate(19.5 36.5) rotate(180 0 1.25)"><path d="M 1e-13 1e-13 L 0 2.5" fill="none" stroke="#ff0000" stroke-width="1"/></g><g id="ks8lhr371ga" transform="translate(2.5 2.5)"><path d="M 0 18 L 17 0 L 34 18" fill="none" stroke="#000000" stroke-width="0.5"/></g><g id="ks8lhr371gb" transform="translate(17 2.5)"><path d="M 1.0036416142611415e-13 0 L 5 1e-13" fill="none" stroke="#ff0000" stroke-width="1"/></g><g id="ks8lhr371gc" transform="translate(19.5 0)"><path d="M 1e-13 1e-13 L 0 2.5" fill="none" stroke="#ff0000" stroke-width="1"/></g></g></g></svg>