<?xml version="1.0" encoding="UTF-8"?>
<svg xmlns="http://www.w3.org/2000/svg" viewBox="0 0 64 64"><g id="ks8lhpjr1c5" class="Group.cls" transform="translate(13 13)"><g class="Prim.cls"><g id="ks8lhpjs1c6" transform="translate(2.5 16.5)"><rect fill="#ffffff" fill-opacity="1" height="16.000198773193357" stroke="#000000" stroke-width="0.4222" width="34" x="0" y="0"/></g><g id="ks8lhpjs1c7" transform="translate(28.5 15.5)"><path d="M 1e-13 1e-13 L 0 17" fill="#ffffff" fill-opacity="1" stroke="#000000" stroke-width="0.4222"/></g><g id="ks8lhpjs1c8" transform="translate(19.5 15.5)"><path d="M 1e-13 1e-13 L 0 17" fill="#ffffff" fill-opacity="1" stroke="#000000" stroke-width="0.4222"/></g><g id="ks8lhpjs1c9" transform="translate(10.5 15.5)"><path d="M 1e-13 1e-13 L 0 17" fill="#ffffff" fill-opacity="1" stroke="#000000" stroke-width="0.4222"/></g><g id="ks8lhpjs1ca" transform="translate(2.5 24.5)"><path d="M 34 0 L 1e-13 1e-13" fill="#ffffff" fill-opacity="1" stroke="#000000" stroke-width="0.4222"/></g><g id="ks8lhpjs1cb" transform="translate(2.5 2.5)"><rect fill="white" height="13.999949999999998" stroke="#000000" stroke-width="0.4222" width="34" x="0" y="0"/></g><g id="ks8lhpjs1cc" transform="translate(0 24.5) rotate(270 2.5 0)"><path d="M 5 0 L 1e-13 1e-13" fill="#ffffff" fill-opacity="1" stroke="#ff0000"/></g><g id="ks8lhpjs1cd" transform="translate(1.25 23.25) rotate(270 0 1.25)"><path d="M 1e-13 1e-13 L 0 2.5" fill="#ffffff" fill-opacity="1" stroke="#ff0000"/></g><g id="ks8lhpjs1ce" transform="translate(34 24.5) rotate(90 2.5 0)"><path d="M 5 0 L 1e-13 1e-13" fill="#ffffff" fill-opacity="1" stroke="#ff0000"/></g><g id="ks8lhpjs1cf" transform="translate(37.75 23.25) rotate(90 0 1.25)"><path d="M 1e-13 1e-13 L 0 2.5" fill="#ffffff" fill-opacity="1" stroke="#ff0000"/></g><g id="ks8lhpjs1cg" transform="translate(17 32.5) rotate(180 2.5 0)"><path d="M 5 0 L 1e-13 1e-13" fill="#ffffff" fill-opacity="1" stroke="#ff0000"/></g><g id="ks8lhpjs1ch" transform="translate(19.5 32.5) rotate(180 0 1.25)"><path d="M 1e-13 1e-13 L 0 2.5" fill="#ffffff" fill-opacity="1" stroke="#ff0000"/></g><g id="ks8lhpjs1ci" transform="translate(17 2.5)"><path d="M 5 0 L 1e-13 1e-13" fill="#ffffff" fill-opacity="1" stroke="#ff0000"/></g><g id="ks8lhpjs1cj" transform="translate(19.5 0)"><path d="M 1e-13 1e-13 L 0 2.5" fill="#ffffff" fill-opacity="1" stroke="#ff0000"/></g></g></g></svg>