<?xml version="1.0" encoding="UTF-8"?>
<svg xmlns="http://www.w3.org/2000/svg" viewBox="0 0 64 64"><g id="ks8lhlou13r" class="Group.cls" transform="translate(11.692 8.25)"><g class="Prim.cls"><g id="ks8lhlov13s" transform="translate(8.42 5.281)"><path fill="white" d="M 11.4442 0 L 0 19.98425 L 11.4442 39.9685 L 22.8883 19.98425 L 11.4442 0 Z" stroke="#000000" stroke-width="0.5"/></g><g id="ks8lhlov13t" transform="translate(19.808 0.25)"><path d="M 1e-13 1e-13 L 0 5.3068" fill="none" stroke="#000000" stroke-width="0.5"/></g><g id="ks8lhlov13u" transform="translate(31.384 25.248)"><path d="M 1e-13 1e-13 L 5.6161 0" fill="none" stroke="#000000" stroke-width="0.5"/></g><g id="ks8lhlov13v" transform="translate(2.804 25.248)"><path d="M 1e-13 1e-13 L 5.5459 0" fill="none" stroke="#000000" stroke-width="0.5"/></g><g id="ks8lhlov13w" transform="translate(19.808 45.207)"><path d="M 0 4.0432 L 1e-13 1e-13" fill="none" stroke="#000000" stroke-width="0.5"/></g><g id="ks8lhlov13x" transform="translate(0.281 25.277) rotate(270 2.527 0)"><path d="M 5.0541 0 L 1e-13 1e-13" fill="none" stroke="#ff0000"/></g><g id="ks8lhlov13y" transform="translate(1.404 23.873) rotate(270 0 1.404)"><path d="M 1e-13 1e-13 L 0 2.808" fill="none" stroke="#ff0000"/></g><g id="ks8lhlov13z" transform="translate(34.281 25.277) rotate(90 2.527 0)"><path d="M 1e-13 1e-13 L 5.0541 0" fill="none" stroke="#ff0000"/></g><g id="ks8lhlov140" transform="translate(38.212 23.873) rotate(90 0 1.404)"><path d="M 1e-13 1e-13 L 0 2.808" fill="none" stroke="#ff0000"/></g><g id="ks8lhlov141" transform="translate(16.969 1.277)"><path d="M 5.6161 0 L 1e-13 1e-13" fill="none" stroke="#ff0000"/></g><g id="ks8lhlov142" transform="translate(19.808 -1.25)"><path d="M 1e-13 1e-13 L 0 2.527" fill="none" stroke="#ff0000"/></g><g id="ks8lhlov143" transform="translate(17.005 49.25) rotate(180 2.808 0)"><path d="M 1e-13 1e-13 L 5.6161 0" fill="none" stroke="#ff0000"/></g><g id="ks8lhlov144" transform="translate(19.812 49.5) rotate(180 1.25 0)"><path d="M 1e-13 1e-13 L 0 2.527" fill="none" stroke="#ff0000"/></g></g></g></svg>