<?xml version="1.0" encoding="UTF-8"?>
<svg xmlns="http://www.w3.org/2000/svg" viewBox="0 0 64 64"><g id="ks8lhgabtg" class="Group.cls" transform="translate(3 23.5)"><g class="Prim.cls"><g id="ks8lhgacth" transform="translate(28.5 0.5)"><path d="M 0 4.25 L 17 0 L 17 17 L 0 12.75" fill="#ffffff" fill-opacity="1" stroke-dasharray="none" stroke="#000000" stroke-width="0.5"/></g><g id="ks8lhgacti" transform="translate(10.5 0)"><rect fill="#ffffff" fill-opacity="1" height="18" stroke-dasharray="none" stroke="#000000" stroke-width="0.5" width="18" x="0" y="0"/></g><g id="ks8lhgactj" transform="translate(2 9)"><path d="M 8.5 0 L 0 1e-13" fill="#ffffff" fill-opacity="1" stroke-dasharray="none" stroke="#000000" stroke-width="0.5"/></g><g id="ks8lhgactk" transform="translate(45.5 9)"><path d="M 1e-13 1e-13 L 11.5 0" fill="#ffffff" fill-opacity="1" stroke-dasharray="none" stroke="#000000" stroke-width="0.5"/></g><g id="ks8lhgactl" transform="translate(0 9) rotate(270 2.5 0)"><path d="M 5 0 L 1e-13 1e-13" fill="none" stroke="#ff0000" stroke-dasharray="none" stroke-width="1"/></g><g id="ks8lhgactm" transform="translate(1.25 7.75) rotate(270 0 1.25)"><path d="M 1e-13 1e-13 L 0 2.5" fill="none" stroke="#ff0000" stroke-dasharray="none" stroke-width="1"/></g><g id="ks8lhgactn" transform="translate(53 9) rotate(90 2.5 0)"><path d="M 1e-13 1e-13 L 5 0" fill="none" stroke="#ff0000" stroke-dasharray="none" stroke-width="1"/></g><g id="ks8lhgacto" transform="translate(56.75 7.75) rotate(90 0 1.25)"><path d="M 1e-13 1e-13 L 0 2.5" fill="none" stroke="#ff0000" stroke-dasharray="none" stroke-width="1"/></g></g></g></svg>