<?xml version="1.0" encoding="UTF-8"?>
<svg xmlns="http://www.w3.org/2000/svg" viewBox="0 0 64 64"><g id="ks8lhots1a1" class="Group.cls" transform="translate(14 11)"><g class="Prim.cls"><g id="ks8lhotv1a2" transform="translate(2.5 2.5)"><path d="M 0 16 L 16 0 L 32 16" fill="#ffffff" fill-opacity="1" stroke="#000000" stroke-width="0.4001"/></g><g id="ks8lhotv1a3" transform="translate(2.5 18.5)"><rect fill="#ffffff" fill-opacity="1" height="16" stroke="#000000" stroke-width="0.4001" width="32" x="0" y="0"/></g><g id="ks8lhotv1a4" transform="translate(10.5 18.5)"><path d="M 1e-13 1e-13 L 0 16" fill="#ffffff" fill-opacity="1" stroke="#000000" stroke-width="0.4001"/></g><g id="ks8lhotv1a5" transform="translate(18.5 18.5)"><path d="M 1e-13 1e-13 L 0 16" fill="#ffffff" fill-opacity="1" stroke="#000000" stroke-width="0.4001"/></g><g id="ks8lhotv1a6" transform="translate(26.5 18.5)"><path d="M 1e-13 1e-13 L 0 16" fill="#ffffff" fill-opacity="1" stroke="#000000" stroke-width="0.4001"/></g><g id="ks8lhotv1a7" transform="translate(2.5 26.5)"><path d="M 1e-13 1e-13 L 32 0" fill="#ffffff" fill-opacity="1" stroke="#000000" stroke-width="0.4001"/></g><g id="ks8lhotv1a8" transform="translate(0 26.5) rotate(270 2.5 0)"><path d="M 5 0 L 1e-13 1e-13" fill="#ffffff" fill-opacity="1" stroke="#ff0000"/></g><g id="ks8lhou31a9" transform="translate(1.25 25.25) rotate(270 0 1.25)"><path d="M 1e-13 1e-13 L 0 2.5" fill="#ffffff" fill-opacity="1" stroke="#ff0000"/></g><g id="ks8lhou31aa" transform="translate(32 26.5) rotate(90 2.5 0)"><path d="M 1e-13 1e-13 L 5 0" fill="#ffffff" fill-opacity="1" stroke="#ff0000"/></g><g id="ks8lhou31ab" transform="translate(35.75 25.25) rotate(90 0 1.25)"><path d="M 1e-13 1e-13 L 0 2.5" fill="#ffffff" fill-opacity="1" stroke="#ff0000"/></g><g id="ks8lhou41ac" transform="translate(16 2.5)"><path d="M 5 0 L 1e-13 1e-13" fill="#ffffff" fill-opacity="1" stroke="#ff0000"/></g><g id="ks8lhou41ad" transform="translate(18.5 0)"><path d="M 1e-13 1e-13 L 0 2.5" fill="#ffffff" fill-opacity="1" stroke="#ff0000"/></g><g id="ks8lhou41ae" transform="translate(16 34.5) rotate(180 2.5 0)"><path d="M 1e-13 1e-13 L 5 0" fill="#ffffff" fill-opacity="1" stroke="#ff0000"/></g><g id="ks8lhou41af" transform="translate(18.5 34.5) rotate(180 0 1.25)"><path d="M 1e-13 1e-13 L 0 2.5" fill="#ffffff" fill-opacity="1" stroke="#ff0000"/></g></g></g></svg>