<?xml version="1.0" encoding="UTF-8"?>
<svg xmlns="http://www.w3.org/2000/svg" viewBox="0 0 64 64"><g id="ks8lhhn1wi" class="Group.cls" transform="translate(20 12.625)"><g class="Prim.cls"><g id="ks8lhhn2wj" transform="translate(12.5 9.25)"><path d="M 0 30.5 L 1e-13 1e-13" fill="none" stroke-linecap="butt" stroke="#000000" stroke-width="0.5"/></g><g id="ks8lhhn2wk" transform="translate(7.5 0)"><ellipse fill="white" cx="5" cy="5" fill-opacity="1" rx="5" ry="5" stroke-linecap="butt" stroke="#000000" stroke-width="0.5"/></g><g id="ks8lhhn2wl" transform="translate(2.5 39.75)"><path d="M 1e-13 1e-13 L 20 0" fill="none" stroke-linecap="butt" stroke="#000000" stroke-width="0.5"/></g><g id="ks8lhhn2wm" transform="translate(7.5 10)"><ellipse cx="5" cy="5" fill="#000000" fill-opacity="1" rx="5" ry="5" stroke-linecap="butt" stroke="#000000" stroke-width="0.5"/></g><g id="ks8lhhn2wn" transform="translate(0 39.75) rotate(270 2.5 0)"><path d="M 5 0 L 1e-13 1e-13" fill="none" stroke="#ff0000"/></g><g id="ks8lhhn2wo" transform="translate(1.25 38.5) rotate(270 0 1.25)"><path d="M 1e-13 1e-13 L 0 2.5" fill="none" stroke="#ff0000"/></g><g id="ks8lhhn2wp" transform="translate(20 39.875) rotate(90 2.5 0)"><path d="M 1e-13 1e-13 L 5 0" fill="none" stroke="#ff0000"/></g><g id="ks8lhhn2wq" transform="translate(23.75 38.625) rotate(90 0 1.25)"><path d="M 1e-13 1e-13 L 0 2.5" fill="none" stroke="#ff0000"/></g></g></g></svg>