<?xml version="1.0" encoding="UTF-8"?>
<svg xmlns="http://www.w3.org/2000/svg" viewBox="0 0 64 64"><g id="ks8lhcdcn8" class="Group.cls" transform="translate(21.254 13)"><g class="Prim.cls"><g id="ks8lhcddn9" transform="translate(11.246 8.726)"><path d="M 0 28.7736 L 1e-13 1e-13" fill="none" stroke-linecap="butt" stroke="#000000" stroke-width="0.4717"/></g><g id="ks8lhcddna" transform="translate(6.496 0)"><ellipse fill="white" cx="4.75" cy="4.717" rx="4.75" ry="4.717" stroke-linecap="butt" stroke="#000000" stroke-width="0.4717"/></g><g id="ks8lhcddnb" transform="translate(1.746 37.5)"><path d="M 1e-13 1e-13 L 19 0" fill="none" stroke-linecap="butt" stroke="#000000" stroke-width="0.4717"/></g><g id="ks8lhcddnc" transform="translate(0.09 37.5) rotate(270 2.151 0)"><path d="M 1e-13 1e-13 L 4.3024 0" fill="none" stroke="#ff0000"/></g><g id="ks8lhcddnd" transform="translate(1.121 36.38) rotate(270 0 1.121)"><path d="M 1e-13 1e-13 L 0 2.2413" fill="none" stroke="#ff0000"/></g><g id="ks8lhcddne" transform="translate(17.099 37.5) rotate(90 2.151 0)"><path d="M 4.3024 0 L 1e-13 1e-13" fill="none" stroke="#ff0000"/></g><g id="ks8lhcddnf" transform="translate(20.371 36.38) rotate(90 0 1.121)"><path d="M 1e-13 1e-13 L 0 2.2413" fill="none" stroke="#ff0000"/></g></g></g></svg>