<?xml version="1.0" encoding="UTF-8"?>
<svg xmlns="http://www.w3.org/2000/svg" viewBox="0 0 64 64"><g id="ks8lhqbf1e3" class="Group.cls" transform="translate(13 9)"><g class="Prim.cls"><g id="ks8lhqbg1e4" transform="translate(2.5 20.5)"><rect fill="#ffffff" fill-opacity="1" height="16" stroke="#000000" stroke-width="0.4254" width="34" x="0" y="0"/></g><g id="ks8lhqbg1e5" transform="translate(10.5 20.5)"><path d="M 1e-13 1e-13 L 0 16" fill="#ffffff" fill-opacity="1" stroke="#000000" stroke-width="0.4254"/></g><g id="ks8lhqbg1e6" transform="translate(19.5 19.5)"><path d="M 1e-13 1e-13 L 0 17" fill="#ffffff" fill-opacity="1" stroke="#000000" stroke-width="0.4254"/></g><g id="ks8lhqbg1e7" transform="translate(28.5 20.5)"><path d="M 1e-13 1e-13 L 0 16" fill="#ffffff" fill-opacity="1" stroke="#000000" stroke-width="0.4254"/></g><g id="ks8lhqbg1e8" transform="translate(2.5 28.5)"><path d="M 1e-13 1e-13 L 34 0" fill="#ffffff" fill-opacity="1" stroke="#000000" stroke-width="0.4254"/></g><g id="ks8lhqbg1e9" transform="translate(2.5 2.5)"><path d="M 34 18 L 0 18 C 0 8.027999999999999 7.582 0 17 0 C 26.418 0 34 8.027999999999999 34 18 Z" fill="#ffffff" fill-opacity="1" stroke="#000000" stroke-width="0.4254"/></g><g id="ks8lhqbg1ea" transform="translate(0 28.5) rotate(270 2.5 0)"><path d="M 5 0 L 1e-13 1e-13" fill="none" stroke="#ff0000"/></g><g id="ks8lhqbg1eb" transform="translate(1.25 27.25) rotate(270 0 1.25)"><path d="M 1e-13 1e-13 L 0 2.5" fill="none" stroke="#ff0000"/></g><g id="ks8lhqbg1ec" transform="translate(34 28.5) rotate(90 2.5 0)"><path d="M 1e-13 1e-13 L 5 0" fill="none" stroke="#ff0000"/></g><g id="ks8lhqbg1ed" transform="translate(37.75 27.25) rotate(90 0 1.25)"><path d="M 1e-13 1e-13 L 0 2.5" fill="none" stroke="#ff0000"/></g><g id="ks8lhqbg1ee" transform="translate(17 2.5)"><path d="M 5 0 L 1e-13 1e-13" fill="none" stroke="#ff0000"/></g><g id="ks8lhqbg1ef" transform="translate(19.5 0)"><path d="M 1e-13 1e-13 L 0 2.5" fill="none" stroke="#ff0000"/></g><g id="ks8lhqbg1eg" transform="translate(17 36.5) rotate(180 2.5 0)"><path d="M 1e-13 1e-13 L 5 0" fill="none" stroke="#ff0000"/></g><g id="ks8lhqbg1eh" transform="translate(19.5 36.5) rotate(180 0 1.25)"><path d="M 1e-13 1e-13 L 0 2.5" fill="none" stroke="#ff0000"/></g></g></g></svg>