<?xml version="1.0" encoding="UTF-8"?>
<svg xmlns="http://www.w3.org/2000/svg" viewBox="0 0 64 64"><g id="ks8lhdo9pm" class="Group.cls" transform="translate(14.5 21.5)"><g class="Prim.cls"><g id="ks8lhdoapn" transform="translate(12 0)"><path d="M 1e-13 1e-13 L 0 22" fill="none" stroke="#000000" stroke-width="0.5"/></g><g id="ks8lhdoapo" transform="translate(24 0)"><path d="M 1e-13 1e-13 L 0 22" fill="none" stroke="#000000" stroke-width="0.5"/></g><g id="ks8lhdoapp" transform="translate(3 11)"><path d="M 9 0 L 1e-13 1e-13" fill="none" stroke="#000000" stroke-width="0.5"/></g><g id="ks8lhdoapq" transform="translate(1.5 9.5) rotate(270 0 1.5)"><path d="M 1e-13 1e-13 L 1.8369701987210297e-16 3" fill="none" stroke="#ff0000"/></g><g id="ks8lhdoapr" transform="translate(0 11) rotate(270 3 0)"><path d="M 5.999999999999799 0 L 1e-13 1e-13" fill="none" stroke="#ff0000"/></g><g id="ks8lhdoaps" transform="translate(21.5 11) rotate(90 2.5 0)"><path d="M 5 0 L 1e-13 1e-13" fill="none" stroke="#ff0000"/></g><g id="ks8lhdoapt" transform="translate(25.25 9.75) rotate(90 0 1.25)"><path d="M 1e-13 1e-13 L 0 2.5" fill="none" stroke="#ff0000"/></g></g></g></svg>