<?xml version="1.0" encoding="UTF-8"?>
<svg xmlns="http://www.w3.org/2000/svg" viewBox="0 0 64 64"><g id="ks8lhixkzj" class="Group.cls" transform="translate(21 12.625)"><g class="Prim.cls"><g id="ks8lhixkzk" transform="translate(11.5 9.25)"><path d="M 0 30.5 L 1e-13 1e-13" fill="none" stroke-linecap="butt" stroke="#000000" stroke-width="0.5"/></g><g id="ks8lhixkzl" transform="translate(6.5 0)"><ellipse fill="white" cx="5" cy="5" rx="5" ry="5" stroke-linecap="butt" stroke="#000000" stroke-width="0.5"/></g><g id="ks8lhixkzm" transform="translate(1.5 39.75)"><path d="M 1e-13 1e-13 L 20 0" fill="none" stroke-linecap="butt" stroke="#000000" stroke-width="0.5"/></g><g id="ks8lhixkzn" transform="translate(10.5 4)"><ellipse cx="1" cy="1" fill="#000000" rx="1" ry="1" stroke="#ffffff" stroke-width="0.3333"/></g><g id="ks8lhixkzo" transform="translate(0 39.875) rotate(270 2.5 0)"><path d="M 5 0 L 1e-13 1e-13" fill="none" stroke="#ff0000"/></g><g id="ks8lhixkzp" transform="translate(1.25 38.625) rotate(270 0 1.25)"><path d="M 1e-13 1e-13 L 0 2.5" fill="none" stroke="#ff0000"/></g><g id="ks8lhixkzq" transform="translate(17 39.875) rotate(90 2.5 0)"><path d="M 1e-13 1e-13 L 5 0" fill="none" stroke="#ff0000"/></g><g id="ks8lhixkzr" transform="translate(20.75 38.625) rotate(90 0 1.25)"><path d="M 1e-13 1e-13 L 0 2.5" fill="none" stroke="#ff0000"/></g></g></g></svg>