<?xml version="1.0" encoding="UTF-8"?>
<svg xmlns="http://www.w3.org/2000/svg" viewBox="0 0 64 64"><g id="ks8lhrv41hg" class="Group.cls" transform="translate(10 19.5)"><g class="Prim.cls"><g id="ks8lhrv41hh" transform="translate(2.5 4)"><rect fill="#ffffff" fill-opacity="1" height="18" stroke="#000000" stroke-width="0.5004" width="40" x="0" y="0"/></g><g id="ks8lhrv41hi" transform="translate(22.5 4)"><path d="M 1e-13 1e-13 L 0 18" fill="#ffffff" fill-opacity="1" stroke="#000000" stroke-width="0.5004"/></g><g id="ks8lhrv41hj" transform="translate(30.5 0)"><rect fill="#ffffff" fill-opacity="1" height="26" stroke-linecap="square" stroke="#000000" stroke-width="0.5004" width="4" x="0" y="0"/></g><g id="ks8lhrv41hk" transform="translate(0 13) rotate(270 2.5 0)"><path d="M 5 0 L 1e-13 1e-13" fill="#ffffff" fill-opacity="1" stroke="#ff0000"/></g><g id="ks8lhrv41hl" transform="translate(1.25 11.75) rotate(270 0 1.25)"><path d="M 1e-13 1e-13 L 0 2.5" fill="#ffffff" fill-opacity="1" stroke="#ff0000"/></g><g id="ks8lhrv41hm" transform="translate(40 13) rotate(90 2.5 0)"><path d="M 1e-13 1e-13 L 5 0" fill="#ffffff" fill-opacity="1" stroke="#ff0000"/></g><g id="ks8lhrv41hn" transform="translate(43.813 11.688) rotate(90 0 1.313)"><path d="M 1e-13 1e-13 L 0 2.6249999999999996" fill="#ffffff" fill-opacity="1" stroke="#ff0000"/></g></g></g></svg>