<?xml version="1.0" encoding="UTF-8"?>
<svg xmlns="http://www.w3.org/2000/svg" viewBox="0 0 64 64"><g id="ks8lhbpilv" class="Group.cls" transform="translate(14.871 27.5)"><g class="Prim.cls"><g id="ks8lhbpjlw" transform="translate(12.629 0)"><path fill="white" d="M 10 5 L 0 0 L 0 10 Z" stroke-dasharray="none" stroke="#000000" stroke-width="0.5"/></g><g id="ks8lhbpjlx" transform="translate(2.629 5)"><path d="M 10 0 L 1e-13 1e-13" fill="none" stroke-dasharray="none" stroke="#000000" stroke-width="0.5"/></g><g id="ks8lhbpjly" transform="translate(22.629 5)"><path d="M 1e-13 1e-13 L 10 0" fill="none" stroke-dasharray="none" stroke="#000000" stroke-width="0.5"/></g><g id="ks8lhbpjlz" transform="translate(0.129 5) rotate(270 2.5 0)"><path d="M 5 0 L 1e-13 1e-13" fill="none" stroke="#ff0000" stroke-dasharray="none"/></g><g id="ks8lhbpjm0" transform="translate(1.315 3.686) rotate(270 0 1.315)"><path d="M 1e-13 1e-13 L 0 2.6293" fill="none" stroke="#ff0000" stroke-dasharray="none"/></g><g id="ks8lhbpjm1" transform="translate(30.125 5) rotate(90 2.5 0)"><path d="M 1e-13 1e-13 L 5 0" fill="none" stroke="#ff0000" stroke-dasharray="none"/></g><g id="ks8lhbpjm2" transform="translate(33.939 3.686) rotate(90 0 1.315)"><path d="M 1e-13 1e-13 L 0 2.6293" fill="none" stroke="#ff0000" stroke-dasharray="none"/></g></g></g></svg>