<?xml version="1.0" encoding="UTF-8"?>
<svg xmlns:xlink="http://www.w3.org/1999/xlink" xmlns="http://www.w3.org/2000/svg" viewBox="0 0 64 64"><g id="ks8lhebhqm" class="Group.cls" transform="translate(7 26.438)"><g class="Prim.cls"><g id="ks8lhebiqn" transform="translate(5.313 0)"><path d="M 0 6.2565 L 3.1282 0 L 9.3848 12.513 L 15.6413 0 L 21.8978 12.2002 L 28.1543 0 L 34.4108 12.2002 L 37.5 6.2565" fill="none" stroke-dasharray="none" stroke="#000000" stroke-width="0.3117"/><g class="ConnPts.cls"><use id="kl7b262pixo" x="0" y="6.256517205422321" xlink:href="#connection.sym"/><use id="kl7b262pixp" x="37.53910323253392" y="6.256517205422321" xlink:href="#connection.sym"/></g></g><g id="ks8lhebiqo" transform="translate(0 6.062) rotate(270 2.5 0)"><path d="M 5 0 L 1e-13 1e-13" fill="none" stroke="#ff0000" stroke-dasharray="none" stroke-width="1"/></g><g id="ks8lhebiqp" transform="translate(1.25 4.812) rotate(270 0 1.25)"><path d="M 1e-13 1e-13 L 0 2.5" fill="none" stroke="#ff0000" stroke-dasharray="none" stroke-width="1"/></g><g id="ks8lhebiqq" transform="translate(43 6.062) rotate(90 2.5 0)"><path d="M 1e-13 1e-13 L 5 0" fill="none" stroke="#ff0000" stroke-dasharray="none" stroke-width="1"/></g><g id="ks8lhebiqr" transform="translate(46.75 4.812) rotate(90 0 1.25)"><path d="M 1e-13 1e-13 L 0 2.5" fill="none" stroke="#ff0000" stroke-dasharray="none" stroke-width="1"/></g></g></g></svg>