<?xml version="1.0" encoding="UTF-8"?>
<svg xmlns="http://www.w3.org/2000/svg" viewBox="0 0 64 64"><g id="ks8lhb0rkg" class="Group.cls" transform="translate(12 27.5)"><g class="Prim.cls"><g id="ks8lhb0tkh" transform="translate(2.5 5)"><path d="M 10 0 L 1e-13 1e-13" fill="#ffffff" fill-opacity="1" stroke-dasharray="none" stroke="#000000" stroke-width="0.5"/></g><g id="ks8lhb0tki" transform="translate(22.5 5)"><path d="M 1e-13 1e-13 L 10 0" fill="#ffffff" fill-opacity="1" stroke-dasharray="none" stroke="#000000" stroke-width="0.5"/></g><g id="ks8lhb0tkj" transform="translate(12.5 0)"><path d="M 0 5 L 0 0 L 10 5 Z" fill="#ffffff" fill-opacity="1" stroke="#262626" stroke-width="0.5"/></g><g id="ks8lhb0tkk" transform="translate(0 5) rotate(270 2.5 0)"><path d="M 5 0 L 1e-13 1e-13" fill="none" stroke="#ff0000"/></g><g id="ks8lhb0tkl" transform="translate(1.25 3.75) rotate(270 0 1.25)"><path d="M 1e-13 1e-13 L 0 2.5" fill="none" stroke="#ff0000"/></g><g id="ks8lhb0tkm" transform="translate(30 5) rotate(90 2.5 0)"><path d="M 1e-13 1e-13 L 5 0" fill="none" stroke="#ff0000"/></g><g id="ks8lhb0tkn" transform="translate(33.75 3.75) rotate(90 0 1.25)"><path d="M 1e-13 1e-13 L 0 2.5" fill="none" stroke="#ff0000"/></g></g></g></svg>