<?xml version="1.0" encoding="UTF-8"?>
<svg xmlns="http://www.w3.org/2000/svg" viewBox="0 0 64 64"><g id="ks8lhiaoy4" class="Group.cls" transform="translate(21 15)"><g class="Prim.cls"><g id="ks8lhiapy5" transform="translate(2.95 2.5)"><rect fill="white" height="30" stroke="#ffffff" stroke-width="0.5" width="17.549997329711914" x="0" y="0"/></g><g id="ks8lhiapy6" transform="translate(2.5 2.5)"><rect fill="none" fill-opacity="1" height="30" stroke="none" stroke-width="0.5" width="18" x="0" y="0"/></g><g id="ks8lhiapy7" transform="translate(2.5 2.5)"><path d="M 0 29.906250000220464 L 1.8e-13 1.5000000000110574e-13 L 18 0" fill="none" fill-opacity="1" stroke="#000000" stroke-width="0.5"/></g><g id="ks8lhiapy8" transform="translate(2.5 2.5)"><path d="M 18 0 L 18 30 L 0 30" fill="none" fill-opacity="1" stroke="#000000" stroke-width="0.5"/></g><g id="ks8lhiapy9" transform="translate(2.95 2.875)"><path d="M 1e-13 1e-13 L 4.5 7.5" fill="none" stroke="#000000" stroke-width="0.5"/></g><g id="ks8lhiapya" transform="translate(9.7 14.125)"><path d="M 1e-13 1e-13 L 3.6000000000000005 6.375000000046994" fill="none" stroke="#000000" stroke-width="0.5"/></g><g id="ks8lhiapyb" transform="translate(15.1 23.875)"><path d="M 1e-13 1e-13 L 4.949999361316236 8.34375000006151" fill="none" stroke="#000000" stroke-width="0.5"/></g><g id="ks8lhiapyc" transform="translate(0 17.5) rotate(270 2.5 0)"><path d="M 5 0 L 1e-13 1e-13" fill="none" stroke="#ff0000"/></g><g id="ks8lhiapyd" transform="translate(1.25 16.25) rotate(270 0 1.25)"><path d="M 1e-13 1e-13 L 0 2.5" fill="none" stroke="#ff0000"/></g><g id="ks8lhiapye" transform="translate(18 17.5) rotate(90 2.5 0)"><path d="M 1e-13 1e-13 L 5 0" fill="none" stroke="#ff0000"/></g><g id="ks8lhiapyf" transform="translate(21.75 16.25) rotate(90 0 1.25)"><path d="M 1e-13 1e-13 L 0 2.5" fill="none" stroke="#ff0000"/></g><g id="ks8lhiapyg" transform="translate(9 2.5)"><path d="M 5 0 L 1e-13 1e-13" fill="none" stroke="#ff0000"/></g><g id="ks8lhiapyh" transform="translate(11.5 0)"><path d="M 1e-13 1e-13 L 0 2.5" fill="none" stroke="#ff0000"/></g><g id="ks8lhiapyi" transform="translate(9 32.5) rotate(180 2.5 0)"><path d="M 1e-13 1e-13 L 5 0" fill="none" stroke="#ff0000"/></g><g id="ks8lhiapyj" transform="translate(11.5 32.5) rotate(180 0 1.25)"><path d="M 1e-13 1e-13 L 0 2.5" fill="none" stroke="#ff0000"/></g></g></g></svg>