<?xml version="1.0" encoding="UTF-8"?>
<svg xmlns="http://www.w3.org/2000/svg" viewBox="0 0 64 64"><g id="ks8lhez5rx" class="Group.cls" transform="translate(15 9)"><g class="Prim.cls"><g id="ks8lhez6ry" transform="translate(2.396 2.5)"><rect fill="white" height="42" stroke="none" stroke-width="0.5" width="29.749967575073242" x="0" y="0"/></g><g id="ks8lhez6rz" transform="translate(2.5 2.5)"><path d="M 0 40.5 L 9.477115924081983e-14 1e-13 L 30.000000000000004 0" fill="none" stroke="#000000" stroke-width="0.5"/></g><g id="ks8lhez6s0" transform="translate(2.5 4.3)"><path d="M 30 0 L 30 40.19999999999998 L 0 40.19999999999998" fill="none" stroke="#000000" stroke-width="0.5"/></g><g id="ks8lhez6s1" transform="translate(0 23.5) rotate(270 2.5 0)"><path d="M 5 0 L 1e-13 1e-13" fill="none" stroke="#ff0000"/></g><g id="ks8lhez6s2" transform="translate(1.25 22.25) rotate(270 0 1.25)"><path d="M 1e-13 1e-13 L 0 2.5" fill="none" stroke="#ff0000"/></g><g id="ks8lhez6s3" transform="translate(30 23.5) rotate(90 2.5 0)"><path d="M 1e-13 1e-13 L 5 0" fill="none" stroke="#ff0000"/></g><g id="ks8lhez6s4" transform="translate(33.75 22.25) rotate(90 0 1.25)"><path d="M 1e-13 1e-13 L 0 2.5" fill="none" stroke="#ff0000"/></g><g id="ks8lhez6s5" transform="translate(15 2.5)"><path d="M 5 0 L 1e-13 1e-13" fill="none" stroke="#ff0000"/></g><g id="ks8lhez6s6" transform="translate(17.5 0)"><path d="M 1e-13 1e-13 L 0 2.5" fill="none" stroke="#ff0000"/></g><g id="ks8lhez6s7" transform="translate(15 44.5) rotate(180 2.5 0)"><path d="M 1e-13 1e-13 L 5 0" fill="none" stroke="#ff0000"/></g><g id="ks8lhez6s8" transform="translate(17.5 44.5) rotate(180 0 1.25)"><path d="M 1e-13 1e-13 L 0 2.5" fill="none" stroke="#ff0000"/></g></g></g></svg>