<?xml version="1.0" encoding="UTF-8"?>
<svg xmlns="http://www.w3.org/2000/svg" viewBox="0 0 64 64"><g id="ks8lhd0xoh" class="Group.cls" transform="translate(21.254 12.625)"><g class="Prim.cls"><g id="ks8lhd0xoi" transform="translate(11.246 9.25)"><path d="M 0 30.5 L 1e-13 1e-13" fill="none" stroke-linecap="butt" stroke="#000000" stroke-width="0.5"/></g><g id="ks8lhd0xoj" transform="translate(6.246 0)"><ellipse cx="5" cy="5" fill="#000000" fill-opacity="1" rx="5" ry="5" stroke-linecap="butt" stroke="#000000" stroke-width="0.5"/></g><g id="ks8lhd0xok" transform="translate(1.246 39.75)"><path d="M 1e-13 1e-13 L 20 0" fill="none" stroke-linecap="butt" stroke="#000000" stroke-width="0.5"/></g><g id="ks8lhd0xol" transform="translate(0.09 39.875) rotate(270 2.151 0)"><path d="M 1e-13 1e-13 L 4.3024 0" fill="none" stroke="#ff0000"/></g><g id="ks8lhd0xom" transform="translate(1.121 38.755) rotate(270 0 1.121)"><path d="M 1e-13 1e-13 L 0 2.2413" fill="none" stroke="#ff0000"/></g><g id="ks8lhd0xon" transform="translate(17.099 39.875) rotate(90 2.151 0)"><path d="M 4.3024 0 L 1e-13 1e-13" fill="none" stroke="#ff0000"/></g><g id="ks8lhd0xoo" transform="translate(20.371 38.755) rotate(90 0 1.121)"><path d="M 1e-13 1e-13 L 0 2.2413" fill="none" stroke="#ff0000"/></g></g></g></svg>