<?xml version="1.0" encoding="UTF-8"?>
<svg xmlns="http://www.w3.org/2000/svg" viewBox="0 0 64 64"><g id="ks8qu1xjwl" class="Group.cls" transform="translate(5 27.5)"><g class="Prim.cls"><g id="ks8qu1xjwm" transform="translate(2.5 5)"><path d="M 1e-13 1e-13 L 50 0" fill="none" stroke="#000000" stroke-width="0.5"/></g><g id="ks8qu1xjwn" transform="translate(17.5 0)"><path d="M 20 10 L 20 0 L 0 10 L 0 0 Z" fill="#000000" fill-opacity="1" stroke="#000000" stroke-width="0.5"/></g><g id="ks8qu1xjwo" transform="translate(27.5 0)"><path d="M 1e-13 1e-13 L 0 10" fill="none" stroke-linecap="butt" stroke="#000000" stroke-width="0.5"/></g><g id="ks8qu1xjwp" transform="translate(2.5 2.5) rotate(180 0 2.5)"><path d="M 1e-13 1e-13 L 0 5" fill="none" stroke="#ff0000"/></g><g id="ks8qu1xjwq" transform="translate(0 5) rotate(180 1.25 0)"><path d="M 1e-13 1e-13 L 2.5 0" fill="none" stroke="#ff0000"/></g><g id="ks8qu1xjwr" transform="translate(52.5 2.5)"><path d="M 1e-13 1e-13 L 0 5" fill="none" stroke="#ff0000"/></g><g id="ks8qu1xjws" transform="translate(52.5 5)"><path d="M 1e-13 1e-13 L 2.5 0" fill="none" stroke="#ff0000"/></g><g id="ks8qu1xjwt" transform="translate(27.5 2.5)"><path d="M 1e-13 1e-13 L 0 5" fill="none" stroke="#ff0000"/></g><g id="ks8qu1xjwu" transform="translate(27.5 5)"><path d="M 1e-13 1e-13 L 2.5 0" fill="none" stroke="#ff0000"/></g><g id="ks8qu1xjwv" transform="translate(25 5)"><path d="M 2.5 0 L 1e-13 1e-13" fill="none" stroke="#ff0000"/></g></g></g></svg>