<?xml version="1.0" encoding="UTF-8"?>
<svg xmlns="http://www.w3.org/2000/svg" viewBox="0 0 64 64"><g id="ks8qtzhqs9" class="Group.cls" transform="translate(5 27.5)"><g class="Prim.cls"><g id="ks8qtzhrsa" transform="translate(2.5 5)"><path d="M 1e-13 1e-13 L 50 0" fill="none" stroke="#000000" stroke-width="0.5"/></g><g id="ks8qtzhrsb" transform="translate(17.5 0)"><path d="M 20 10 L 20 0 L 0 10 L 0 0 Z" fill="#000000" fill-opacity="1" stroke="#000000" stroke-width="0.5"/></g><g id="ks8qtzhrsc" transform="translate(22.5 0)"><ellipse cx="5" cy="5" fill="#000000" fill-opacity="1" rx="5" ry="5" stroke="#000000" stroke-width="0.5"/></g><g id="ks8qtzhrsd" transform="translate(2.5 2.5) rotate(180 0 2.5)"><path d="M 1e-13 1e-13 L 0 5" fill="none" stroke="#ff0000"/></g><g id="ks8qtzhrse" transform="translate(0 5) rotate(180 1.25 0)"><path d="M 1e-13 1e-13 L 2.5 0" fill="none" stroke="#ff0000"/></g><g id="ks8qtzhrsf" transform="translate(52.5 2.5)"><path d="M 1e-13 1e-13 L 0 5" fill="none" stroke="#ff0000"/></g><g id="ks8qtzhrsg" transform="translate(52.5 5)"><path d="M 1e-13 1e-13 L 2.5 0" fill="none" stroke="#ff0000"/></g><g id="ks8qtzhrsh" transform="translate(27.5 2.5)"><path d="M 1e-13 1e-13 L 0 5" fill="none" stroke="#ff0000"/></g><g id="ks8qtzhrsi" transform="translate(27.5 5)"><path d="M 1e-13 1e-13 L 2.5 0" fill="none" stroke="#ff0000"/></g><g id="ks8qtzhrsj" transform="translate(25 5)"><path d="M 2.5 0 L 1e-13 1e-13" fill="none" stroke="#ff0000"/></g></g></g></svg>