<?xml version="1.0" encoding="UTF-8"?>
<svg xmlns="http://www.w3.org/2000/svg" viewBox="0 0 64 64"><g id="ks8qufvi1ls" class="Group.cls" transform="translate(-75 10)"><g class="Prim.cls"><g id="ks8qufvk1lt" transform="translate(102.5 7.5)"><path d="M 1e-13 1e-13 L 10 0" fill="none" stroke-linecap="square" stroke="#000000" stroke-width="0.5"/></g><g id="ks8qufvk1lu" transform="translate(107.5 7.5)"><path d="M 1e-13 1e-13 L 0 25" fill="none" stroke="#000000" stroke-width="0.5"/></g><g id="ks8qufvk1lv" transform="translate(101.5 2.5)"><path fill="white" d="M 12 5 L 0 5 C 0.5 2 3.4284 0 6 0 C 8.5716 0 11.5 2 12 5 Z" stroke="#000000" stroke-width="0.5"/></g><g id="ks8qufvk1lw" transform="translate(82.5 32.5)"><path d="M 1e-13 1e-13 L 50 0" fill="none" stroke="#000000" stroke-width="0.5"/></g><g id="ks8qufvk1lx" transform="translate(97.5 27.5)"><path fill="white" d="M 20 10 L 20 0 L 0 10 L 0 0 Z" stroke="#000000" stroke-width="0.5"/></g><g id="ks8qufvk1ly" transform="translate(20 31)"><path d="M 1e-13 1e-13 L 10 0" fill="none" stroke-linecap="square" stroke="#000000" stroke-width="0.5"/></g><g id="ks8qufvk1lz" transform="translate(25 31)"><path d="M 1e-13 1e-13 L 0 25" fill="none" stroke="#000000" stroke-width="0.5"/></g><g id="ks8qufvk1m0" transform="translate(19 26)"><path fill="white" d="M 12 5 L 0 5 C 0.5 2 3.4284 0 6 0 C 8.5716 0 11.5 2 12 5 Z" stroke="#000000" stroke-width="0.5"/></g><g id="ks8qufvk1m1" transform="translate(0 56)"><path d="M 1e-13 1e-13 L 50 0" fill="none" stroke="#000000" stroke-width="0.5"/></g><g id="ks8qufvk1m2" transform="translate(15 51)"><path fill="white" d="M 20 10 L 20 0 L 0 10 L 0 0 Z" stroke="#000000" stroke-width="0.5"/></g><g id="ks8qufvk1m3" class="Desc.lay" transform="translate(35 76)"><rect fill="none" height="20" stroke="none" stroke-width="0" width="50" x="0" y="0"/><g transform="translate(0 0)" class="Text.cls"><rect x="0" y="0" width="50.00004959106445" height="20" fill="none" stroke="none"/><text fill="#000000" fill-opacity="1" font-size="8px" stroke="none"><tspan x="25.000024795532227" y="10">Control </tspan><tspan x="25.000024795532227" y="19.6">Valve</tspan></text></g></g><g id="ks8qufvk1m4" transform="translate(107.5 0) rotate(270 0 2.5)"><path d="M 1e-13 1e-13 L 0 5" fill="none" stroke="#ff0000"/></g><g id="ks8qufvk1m5" transform="translate(106.25 1.25) rotate(270 1.25 0)"><path d="M 1e-13 1e-13 L 2.5 0" fill="none" stroke="#ff0000"/></g><g id="ks8qufvk1m6" transform="translate(82.5 30) rotate(180 0 2.5)"><path d="M 1e-13 1e-13 L 0 5" fill="none" stroke="#ff0000"/></g><g id="ks8qufvk1m7" transform="translate(80 32.5) rotate(180 1.25 0)"><path d="M 1e-13 1e-13 L 2.5 0" fill="none" stroke="#ff0000"/></g><g id="ks8qufvk1m8" transform="translate(132.5 30)"><path d="M 1e-13 1e-13 L 0 5" fill="none" stroke="#ff0000"/></g><g id="ks8qufvk1m9" transform="translate(132.5 32.5)"><path d="M 1e-13 1e-13 L 2.5 0" fill="none" stroke="#ff0000"/></g><g id="ks8qufvk1ma" transform="translate(107.5 11)"><path d="M 1e-13 1e-13 L 0 5" fill="none" stroke="#ff0000"/></g><g id="ks8qufvk1mb" transform="translate(107.5 13.5)"><path d="M 1e-13 1e-13 L 2.5 0" fill="none" stroke="#ff0000"/></g><g id="ks8qufvk1mc" transform="translate(105 13.5)"><path d="M 2.5 0 L 1e-13 1e-13" fill="none" stroke="#ff0000"/></g><g id="ks8qufvk1md" transform="translate(107.5 20)"><path d="M 1e-13 1e-13 L 0 5" fill="none" stroke="#ff0000"/></g><g id="ks8qufvk1me" transform="translate(107.5 22.5)"><path d="M 1e-13 1e-13 L 2.5 0" fill="none" stroke="#ff0000"/></g><g id="ks8qufvk1mf" transform="translate(105 22.5)"><path d="M 2.5 0 L 1e-13 1e-13" fill="none" stroke="#ff0000"/></g><g id="ks8qufvk1mg" transform="translate(107.5 30)"><path d="M 1e-13 1e-13 L 0 5" fill="none" stroke="#ff0000"/></g><g id="ks8qufvl1mh" transform="translate(107.5 32.5)"><path d="M 1e-13 1e-13 L 2.5 0" fill="none" stroke="#ff0000"/></g><g id="ks8qufvl1mi" transform="translate(105 32.5)"><path d="M 2.5 0 L 1e-13 1e-13" fill="none" stroke="#ff0000"/></g><g id="ks8qufvl1mj" transform="translate(35 66)"><rect fill="none" height="10" stroke="none" stroke-width="0" width="50" x="0" y="0"/><g transform="translate(0 0)" class="Text.cls"><rect x="0" y="0" width="50" height="10" fill="none" stroke="none"/><text font-size="8px" fill="#000000" fill-opacity="1"><tspan x="25" y="10">V1</tspan></text></g></g></g></g></svg>