<?xml version="1.0" encoding="UTF-8"?>
<svg xmlns="http://www.w3.org/2000/svg" viewBox="0 0 64 64"><g id="ks8qu8w81b7" class="Group.cls" transform="translate(5 25)"><g class="Prim.cls"><g id="ks8qu8w81b8" transform="translate(2.5 7.5)"><path d="M 1e-13 1e-13 L 50 0" fill="none" stroke="#000000" stroke-width="0.5"/></g><g id="ks8qu8w81b9" transform="translate(17.5 2.5)"><path fill="white" d="M 20 10 L 20 0 L 0 10 L 0 0 Z" stroke="#000000" stroke-width="0.5"/></g><g id="ks8qu8w81ba" transform="translate(25 5)"><ellipse cx="2.5" cy="2.5" fill="#000000" rx="2.5" ry="2.5" stroke="#000000" stroke-width="0.5"/></g><g id="ks8qu8w81bb" transform="translate(15 0)"><ellipse cx="2.5" cy="2.5" fill="#000000" rx="2.5" ry="2.5" stroke="#000000" stroke-width="0.5"/></g><g id="ks8qu8w81bc" transform="translate(2.5 5) rotate(180 0 2.5)"><path d="M 1e-13 1e-13 L 0 5" fill="none" stroke="#ff0000"/></g><g id="ks8qu8w81bd" transform="translate(0 7.5) rotate(180 1.25 0)"><path d="M 1e-13 1e-13 L 2.5 0" fill="none" stroke="#ff0000"/></g><g id="ks8qu8w81be" transform="translate(52.5 5)"><path d="M 1e-13 1e-13 L 0 5" fill="none" stroke="#ff0000"/></g><g id="ks8qu8w81bf" transform="translate(52.5 7.5)"><path d="M 1e-13 1e-13 L 2.5 0" fill="none" stroke="#ff0000"/></g><g id="ks8qu8w81bg" transform="translate(27.5 2) rotate(270 0 2.5)"><path d="M 1e-13 1e-13 L 0 5" fill="none" stroke="#ff0000"/></g><g id="ks8qu8w91bh" transform="translate(26.25 3.25) rotate(270 1.25 0)"><path d="M 1e-13 1e-13 L 2.5 0" fill="none" stroke="#ff0000"/></g><g id="ks8qu8w91bi" transform="translate(27.5 8) rotate(90 0 2.5)"><path d="M 1e-13 1e-13 L 0 5" fill="none" stroke="#ff0000"/></g><g id="ks8qu8w91bj" transform="translate(26.25 11.75) rotate(90 1.25 0)"><path d="M 1e-13 1e-13 L 2.5 0" fill="none" stroke="#ff0000"/></g></g></g></svg>