<?xml version="1.0" encoding="UTF-8"?>
<svg xmlns="http://www.w3.org/2000/svg" viewBox="0 0 64 64"><g id="ks8qu7c817w" class="Group.cls" transform="translate(5 27.5)"><g class="Prim.cls"><g id="ks8qu7c817x" transform="translate(17.5 0) rotate(180 5 5)"><path fill="white" d="M 10 0 L 10 10 L 0 5 Z" stroke-linecap="square" stroke="#000000" stroke-width="0.5"/></g><g id="ks8qu7c817y" transform="translate(22.5 20) rotate(90 5 0)"><path d="M 10 0 L 1e-13 1e-13" fill="none" stroke="#000000" stroke-width="0.5"/></g><g id="ks8qu7c817z" transform="translate(22.5 5) rotate(90 5 5)"><path fill="white" d="M 10 0 L 10 10 L 0 5 Z" stroke-linecap="square" stroke="#000000" stroke-width="0.5"/></g><g id="ks8qu7c8180" transform="translate(10 -2.5) rotate(90 0 7.5)"><path d="M 0 15 L 1e-13 1e-13" fill="none" stroke-linecap="square" stroke="#000000" stroke-width="0.5"/></g><g id="ks8qu7c8181" transform="translate(27.5 0) rotate(180 5 5)"><path fill="white" d="M 0 0 L 0 10 L 10 5 Z" stroke-linecap="square" stroke="#000000" stroke-width="0.5"/></g><g id="ks8qu7c8182" transform="translate(45 -2.5) rotate(90 0 7.5)"><path d="M 0 15 L 1e-13 1e-13" fill="none" stroke-linecap="square" stroke="#000000" stroke-width="0.5"/></g><g id="ks8qu7c8183" transform="translate(25 2.5)"><ellipse cx="2.5" cy="2.5" fill="#000000" rx="2.5" ry="2.5" stroke="#000000" stroke-width="0.5"/></g><g id="ks8qu7c8184" transform="translate(2.5 2.5) rotate(180 0 2.5)"><path d="M 1e-13 1e-13 L 0 5" fill="none" stroke="#ff0000"/></g><g id="ks8qu7c8185" transform="translate(0 5) rotate(180 1.25 0)"><path d="M 1e-13 1e-13 L 2.5 0" fill="none" stroke="#ff0000"/></g><g id="ks8qu7c8186" transform="translate(52.5 2.5)"><path d="M 1e-13 1e-13 L 0 5" fill="none" stroke="#ff0000"/></g><g id="ks8qu7c8187" transform="translate(52.5 5)"><path d="M 1e-13 1e-13 L 2.5 0" fill="none" stroke="#ff0000"/></g><g id="ks8qu7c8188" transform="translate(27.5 22.5) rotate(90 0 2.5)"><path d="M 1e-13 1e-13 L 0 5" fill="none" stroke="#ff0000"/></g><g id="ks8qu7c8189" transform="translate(26.25 26.25) rotate(90 1.25 0)"><path d="M 1e-13 1e-13 L 2.5 0" fill="none" stroke="#ff0000"/></g><g id="ks8qu7c818a" transform="translate(27.5 2.5)"><path d="M 1e-13 1e-13 L 0 5" fill="none" stroke="#ff0000"/></g><g id="ks8qu7c818b" transform="translate(27.5 5)"><path d="M 1e-13 1e-13 L 2.5 0" fill="none" stroke="#ff0000"/></g><g id="ks8qu7c818c" transform="translate(25 5)"><path d="M 2.5 0 L 1e-13 1e-13" fill="none" stroke="#ff0000"/></g></g></g></svg>