<?xml version="1.0" encoding="UTF-8"?>
<svg xmlns="http://www.w3.org/2000/svg" viewBox="0 0 64 64"><g id="ks8qucqn1hi" class="Group.cls" transform="translate(27.5 27.5)"><g class="Prim.cls"><g id="ks8qucqo1hj" transform="translate(0 5) rotate(90 5 5)"><path fill="white" d="M 10 0 L 10 10 L 0 5 Z" stroke-linecap="square" stroke="#000000" stroke-width="0.5"/></g><g id="ks8qucqo1hk" transform="translate(15 5)"><path d="M 10 0 L 1e-13 1e-13" fill="none" stroke="#000000" stroke-width="0.5"/></g><g id="ks8qucqo1hl" transform="translate(5 0)"><path fill="white" d="M 10 0 L 10 10 L 0 5 Z" stroke-linecap="square" stroke="#000000" stroke-width="0.5"/></g><g id="ks8qucqo1hm" transform="translate(5 15)"><path d="M 0 10 L 1e-13 1e-13" fill="none" stroke-linecap="square" stroke="#000000" stroke-width="0.5"/></g><g id="ks8qucqo1hn" transform="translate(10 0)"><path d="M 1e-13 1e-13 L 0 10" fill="none" stroke-linecap="butt" stroke="#000000" stroke-width="0.5"/></g><g id="ks8qucqo1ho" transform="translate(25 2.5)"><path d="M 1e-13 1e-13 L 0 5" fill="none" stroke="#ff0000"/></g><g id="ks8qucqo1hp" transform="translate(25 5)"><path d="M 1e-13 1e-13 L 2.5 0" fill="none" stroke="#ff0000"/></g><g id="ks8qucqo1hq" transform="translate(5 22.5) rotate(90 0 2.5)"><path d="M 1e-13 1e-13 L 0 5" fill="none" stroke="#ff0000"/></g><g id="ks8qucqo1hr" transform="translate(3.75 26.25) rotate(90 1.25 0)"><path d="M 1e-13 1e-13 L 2.5 0" fill="none" stroke="#ff0000"/></g><g id="ks8qucqo1hs" transform="translate(5 2.5)"><path d="M 1e-13 1e-13 L 0 5" fill="none" stroke="#ff0000"/></g><g id="ks8qucqo1ht" transform="translate(5 5)"><path d="M 1e-13 1e-13 L 2.5 0" fill="none" stroke="#ff0000"/></g><g id="ks8qucqo1hu" transform="translate(2.5 5)"><path d="M 2.5 0 L 1e-13 1e-13" fill="none" stroke="#ff0000"/></g></g></g></svg>