<?xml version="1.0" encoding="UTF-8"?>
<svg xmlns="http://www.w3.org/2000/svg" viewBox="0 0 64 64"><g id="ks8qu83y19m" class="Group.cls" transform="translate(5 26.5)"><g class="Prim.cls"><g id="ks8qu83z19n" transform="translate(17.5 1)"><path d="M 20 10 L 0 0 Z" fill="none" stroke="#000000" stroke-width="0.5"/></g><g id="ks8qu83z19o" transform="translate(37.5 1)"><path d="M 0 10 L 1e-13 1e-13" fill="none" stroke="#000000" stroke-width="0.5"/></g><g id="ks8qu83z19p" transform="translate(17.5 1)"><path d="M 1e-13 1e-13 L 0 10" fill="none" stroke="#000000" stroke-width="0.5"/></g><g id="ks8qu83z19q" transform="translate(37.5 6)"><path d="M 1e-13 1e-13 L 15 0" fill="none" stroke="#000000" stroke-width="0.5"/></g><g id="ks8qu83z19r" transform="translate(2.5 6)"><path d="M 15 0 L 1e-13 1e-13" fill="none" stroke="#000000" stroke-width="0.5"/></g><g id="ks8qu83z19s" transform="translate(16.5 0)"><ellipse cx="1" cy="1" fill="#000000" rx="1" ry="1" stroke="#000000" stroke-width="0.5"/></g><g id="ks8qu83z19t" transform="translate(2.5 3.5) rotate(180 0 2.5)"><path d="M 1e-13 1e-13 L 0 5" fill="none" stroke="#ff0000"/></g><g id="ks8qu83z19u" transform="translate(0 6) rotate(180 1.25 0)"><path d="M 1e-13 1e-13 L 2.5 0" fill="none" stroke="#ff0000"/></g><g id="ks8qu83z19v" transform="translate(52.5 3.5)"><path d="M 1e-13 1e-13 L 0 5" fill="none" stroke="#ff0000"/></g><g id="ks8qu83z19w" transform="translate(52.5 6)"><path d="M 1e-13 1e-13 L 2.5 0" fill="none" stroke="#ff0000"/></g><g id="ks8qu83z19x" transform="translate(27.5 3.5)"><path d="M 1e-13 1e-13 L 0 5" fill="none" stroke="#ff0000"/></g><g id="ks8qu83z19y" transform="translate(27.5 6)"><path d="M 1e-13 1e-13 L 2.5 0" fill="none" stroke="#ff0000"/></g><g id="ks8qu83z19z" transform="translate(25 6)"><path d="M 2.5 0 L 1e-13 1e-13" fill="none" stroke="#ff0000"/></g></g></g></svg>