<?xml version="1.0" encoding="UTF-8"?>
<svg xmlns="http://www.w3.org/2000/svg" viewBox="0 0 64 64"><g id="ks8qu6ke160" class="Group.cls" transform="translate(5 27.5)"><g class="Prim.cls"><g id="ks8qu6kf161" transform="translate(17.5 0) rotate(180 5 5)"><path fill="white" d="M 10 0 L 10 10 L 0 5 Z" stroke-linecap="square" stroke="#000000" stroke-width="0.5"/></g><g id="ks8qu6kf162" transform="translate(22.5 20) rotate(90 5 0)"><path d="M 10 0 L 1e-13 1e-13" fill="none" stroke="#000000" stroke-width="0.5"/></g><g id="ks8qu6kf163" transform="translate(22.5 5) rotate(90 5 5)"><path fill="white" d="M 10 0 L 10 10 L 0 5 Z" stroke-linecap="square" stroke="#000000" stroke-width="0.5"/></g><g id="ks8qu6kf164" transform="translate(10 -2.5) rotate(90 0 7.5)"><path d="M 0 15 L 1e-13 1e-13" fill="none" stroke-linecap="square" stroke="#000000" stroke-width="0.5"/></g><g id="ks8qu6kf165" transform="translate(27.5 0) rotate(180 5 5)"><path fill="white" d="M 0 0 L 0 10 L 10 5 Z" stroke-linecap="square" stroke="#000000" stroke-width="0.5"/></g><g id="ks8qu6kf166" transform="translate(45 -2.5) rotate(90 0 7.5)"><path d="M 0 15 L 1e-13 1e-13" fill="none" stroke-linecap="square" stroke="#000000" stroke-width="0.5"/></g><g id="ks8qu6kf167" transform="translate(22.5 0)"><ellipse cx="5" cy="5" fill="#000000" rx="5" ry="5" stroke="#000000" stroke-width="0.5"/></g><g id="ks8qu6kf168" transform="translate(2.5 2.5) rotate(180 0 2.5)"><path d="M 1e-13 1e-13 L 0 5" fill="none" stroke="#ff0000"/></g><g id="ks8qu6kf169" transform="translate(0 5) rotate(180 1.25 0)"><path d="M 1e-13 1e-13 L 2.5 0" fill="none" stroke="#ff0000"/></g><g id="ks8qu6kf16a" transform="translate(52.5 2.5)"><path d="M 1e-13 1e-13 L 0 5" fill="none" stroke="#ff0000"/></g><g id="ks8qu6kf16b" transform="translate(52.5 5)"><path d="M 1e-13 1e-13 L 2.5 0" fill="none" stroke="#ff0000"/></g><g id="ks8qu6kf16c" transform="translate(27.5 22.5) rotate(90 0 2.5)"><path d="M 1e-13 1e-13 L 0 5" fill="none" stroke="#ff0000"/></g><g id="ks8qu6kf16d" transform="translate(26.25 26.25) rotate(90 1.25 0)"><path d="M 1e-13 1e-13 L 2.5 0" fill="none" stroke="#ff0000"/></g><g id="ks8qu6kf16e" transform="translate(27.5 2.5)"><path d="M 1e-13 1e-13 L 0 5" fill="none" stroke="#ff0000"/></g><g id="ks8qu6kf16f" transform="translate(27.5 5)"><path d="M 1e-13 1e-13 L 2.5 0" fill="none" stroke="#ff0000"/></g><g id="ks8qu6kf16g" transform="translate(25 5)"><path d="M 2.5 0 L 1e-13 1e-13" fill="none" stroke="#ff0000"/></g></g></g></svg>