<?xml version="1.0" encoding="UTF-8"?>
<svg xmlns="http://www.w3.org/2000/svg" viewBox="0 0 64 64"><g id="ks8quglg1mx" class="Group.cls" transform="translate(5 27.5)"><g class="Prim.cls"><g id="ks8quglh1my" transform="translate(2.5 5)"><path d="M 1e-13 1e-13 L 50 0" fill="none" stroke="#000000" stroke-width="0.5"/></g><g id="ks8quglh1mz" transform="translate(17.5 0)"><path fill="white" d="M 20 10 L 20 0 L 0 10 L 0 0 Z" stroke="#000000" stroke-width="0.5"/></g><g id="ks8quglh1n0" transform="translate(21.5 5)"><path fill="white" d="M 0 3 L 6 9 L 12 3 L 6 0 Z" stroke-linecap="butt" stroke="#000000" stroke-width="0.5"/></g><g id="ks8quglh1n1" transform="translate(2.5 2.5) rotate(180 0 2.5)"><path d="M 1e-13 1e-13 L 0 5" fill="none" stroke="#ff0000"/></g><g id="ks8quglh1n2" transform="translate(0 5) rotate(180 1.25 0)"><path d="M 1e-13 1e-13 L 2.5 0" fill="none" stroke="#ff0000"/></g><g id="ks8quglh1n3" transform="translate(52.5 2.5)"><path d="M 1e-13 1e-13 L 0 5" fill="none" stroke="#ff0000"/></g><g id="ks8quglh1n4" transform="translate(52.5 5)"><path d="M 1e-13 1e-13 L 2.5 0" fill="none" stroke="#ff0000"/></g><g id="ks8quglh1n5" transform="translate(27.5 2.5)"><path d="M 1e-13 1e-13 L 0 5" fill="none" stroke="#ff0000"/></g><g id="ks8quglh1n6" transform="translate(27.5 5)"><path d="M 1e-13 1e-13 L 2.5 0" fill="none" stroke="#ff0000"/></g><g id="ks8quglh1n7" transform="translate(25 5)"><path d="M 2.5 0 L 1e-13 1e-13" fill="none" stroke="#ff0000"/></g><g id="ks8quglh1n8" transform="translate(27.5 11.5) rotate(90 0 2.5)"><path d="M 1e-13 1e-13 L 0 5" fill="none" stroke="#ff0000"/></g><g id="ks8quglh1n9" transform="translate(26.25 15.25) rotate(90 1.25 0)"><path d="M 1e-13 1e-13 L 2.5 0" fill="none" stroke="#ff0000"/></g></g></g></svg>