<?xml version="1.0" encoding="UTF-8"?>
<svg xmlns="http://www.w3.org/2000/svg" viewBox="0 0 64 64"><g id="ks8qudi91ja" class="Group.cls" transform="translate(27.5 10)"><g class="Prim.cls"><g id="ks8qudia1jb" transform="translate(0 22.5) rotate(90 5 5)"><path fill="white" d="M 10 0 L 10 10 L 0 5 Z" stroke-linecap="square" stroke="#000000" stroke-width="0.5"/></g><g id="ks8qudia1jc" transform="translate(15 22.5)"><path d="M 10 0 L 1e-13 1e-13" fill="none" stroke="#000000" stroke-width="0.5"/></g><g id="ks8qudia1jd" transform="translate(5 17.5)"><path fill="white" d="M 10 0 L 10 10 L 0 5 Z" stroke-linecap="square" stroke="#000000" stroke-width="0.5"/></g><g id="ks8qudia1je" transform="translate(5 32.5)"><path d="M 0 10 L 1e-13 1e-13" fill="none" stroke-linecap="square" stroke="#000000" stroke-width="0.5"/></g><g id="ks8qudia1jf" transform="translate(10 17.5)"><path d="M 1e-13 1e-13 L 0 10" fill="none" stroke="#000000" stroke-linecap="butt" stroke-opacity="1" stroke-width="0.5"/></g><g id="ks8qudia1jg" transform="translate(5 15)"><path d="M 0 7.5 L 1e-13 1e-13" fill="none" stroke-linecap="butt" stroke="#000000" stroke-width="0.5"/></g><g id="ks8qudia1jh" transform="translate(0 2.5)"><path d="M 5 0 L 0 2.5 L 10 5 L 0 7.5 L 10 10 L 5 12.5" fill="none" stroke-linecap="butt" stroke="#000000" stroke-width="0.5"/></g><g id="ks8qudia1ji" transform="translate(25 20)"><path d="M 1e-13 1e-13 L 0 5" fill="none" stroke="#ff0000"/></g><g id="ks8qudia1jj" transform="translate(25 22.5)"><path d="M 1e-13 1e-13 L 2.5 0" fill="none" stroke="#ff0000"/></g><g id="ks8qudia1jk" transform="translate(5 40) rotate(90 0 2.5)"><path d="M 1e-13 1e-13 L 0 5" fill="none" stroke="#ff0000"/></g><g id="ks8qudia1jl" transform="translate(3.75 43.75) rotate(90 1.25 0)"><path d="M 1e-13 1e-13 L 2.5 0" fill="none" stroke="#ff0000"/></g><g id="ks8qudia1jm" transform="translate(5 0) rotate(270 0 2.5)"><path d="M 1e-13 1e-13 L 0 5" fill="none" stroke="#ff0000"/></g><g id="ks8qudia1jn" transform="translate(3.75 1.25) rotate(270 1.25 0)"><path d="M 1e-13 1e-13 L 2.5 0" fill="none" stroke="#ff0000"/></g><g id="ks8qudia1jo" transform="translate(5 20)"><path d="M 1e-13 1e-13 L 0 5" fill="none" stroke="#ff0000"/></g><g id="ks8qudia1jp" transform="translate(5 22.5)"><path d="M 1e-13 1e-13 L 2.5 0" fill="none" stroke="#ff0000"/></g><g id="ks8qudia1jq" transform="translate(2.5 22.5)"><path d="M 2.5 0 L 1e-13 1e-13" fill="none" stroke="#ff0000"/></g></g></g></svg>