<?xml version="1.0" encoding="UTF-8"?>
<svg xmlns="http://www.w3.org/2000/svg" viewBox="0 0 64 64"><g id="ks8qu3hizd" class="Group.cls" transform="translate(5 27.5)"><g class="Prim.cls"><g id="ks8qu3hize" transform="translate(2.5 5)"><path d="M 1e-13 1e-13 L 50 0" fill="none" stroke="#000000" stroke-width="0.5"/></g><g id="ks8qu3hizf" transform="translate(17.5 0)"><path fill="white" d="M 20 10 L 20 0 L 0 10 L 0 0 Z" stroke="#000000" stroke-width="0.5"/></g><g id="ks8qu3hizg" transform="translate(25 2.5)"><ellipse cx="2.5" cy="2.5" fill="#000000" rx="2.5" ry="2.5" stroke="#000000" stroke-width="0.5"/></g><g id="ks8qu3hizh" transform="translate(2.5 2.5) rotate(180 0 2.5)"><path d="M 1e-13 1e-13 L 0 5" fill="none" stroke="#ff0000" stroke-width="1"/></g><g id="ks8qu3hizi" transform="translate(0 5) rotate(180 1.25 0)"><path d="M 1e-13 1e-13 L 2.5 0" fill="none" stroke="#ff0000" stroke-width="1"/></g><g id="ks8qu3hizj" transform="translate(52.5 2.5)"><path d="M 1e-13 1e-13 L 0 5" fill="none" stroke="#ff0000" stroke-width="1"/></g><g id="ks8qu3hizk" transform="translate(52.5 5)"><path d="M 1e-13 1e-13 L 2.5 0" fill="none" stroke="#ff0000" stroke-width="1"/></g><g id="ks8qu3hizl" transform="translate(27.5 2.5)"><path d="M 1e-13 1e-13 L 0 5" fill="none" stroke="#ff0000"/></g><g id="ks8qu3hizm" transform="translate(27.5 5)"><path d="M 1e-13 1e-13 L 2.5 0" fill="none" stroke="#ff0000"/></g><g id="ks8qu3hizn" transform="translate(25 5)"><path d="M 2.5 0 L 1e-13 1e-13" fill="none" stroke="#ff0000"/></g></g></g></svg>