<?xml version="1.0" encoding="UTF-8"?>
<svg xmlns="http://www.w3.org/2000/svg" viewBox="0 0 64 64"><g id="ks8quaff1ei" class="Group.cls" transform="translate(5 25)"><g class="Prim.cls"><g id="ks8quaff1ej" transform="translate(17.5 2.5)"><path fill="white" d="M 20 0 L 20 10 L 0 10 L 0 0 Z" stroke="#000000" stroke-width="0.5"/></g><g id="ks8quaff1ek" transform="translate(2.5 7.5)"><path d="M 15 0 L 1e-13 1e-13" fill="none" stroke="#000000" stroke-width="0.5"/></g><g id="ks8quaff1el" transform="translate(37.5 7.5)"><path d="M 1e-13 1e-13 L 15 0" fill="none" stroke="#000000" stroke-width="0.5"/></g><g id="ks8quaff1em" transform="translate(16.25 1.25)"><ellipse cx="1.25" cy="1.25" fill="#000000" rx="1.25" ry="1.25" stroke="#000000" stroke-width="0.5"/></g><g id="ks8quaff1en" transform="translate(17.75 2.5)"><path d="M 19.5 10 L 1e-13 1e-13" fill="none" stroke="#000000" stroke-width="0.5"/></g><g id="ks8quaff1eo" transform="translate(36 11)"><ellipse cx="1.25" cy="1.25" fill="#000000" rx="1.25" ry="1.25" stroke="#000000" stroke-width="0.5"/></g><g id="ks8quaff1ep" transform="translate(2.5 5) rotate(180 0 2.5)"><path d="M 1e-13 1e-13 L 0 5" fill="none" stroke="#ff0000"/></g><g id="ks8quaff1eq" transform="translate(0 7.5) rotate(180 1.25 0)"><path d="M 1e-13 1e-13 L 2.5 0" fill="none" stroke="#ff0000"/></g><g id="ks8quaff1er" transform="translate(52.5 5)"><path d="M 1e-13 1e-13 L 0 5" fill="none" stroke="#ff0000"/></g><g id="ks8quaff1es" transform="translate(52.5 7.5)"><path d="M 1e-13 1e-13 L 2.5 0" fill="none" stroke="#ff0000"/></g><g id="ks8quaff1et" transform="translate(27.5 0) rotate(270 0 2.5)"><path d="M 1e-13 1e-13 L 0 5" fill="none" stroke="#ff0000"/></g><g id="ks8quaff1eu" transform="translate(26.25 1.25) rotate(270 1.25 0)"><path d="M 1e-13 1e-13 L 2.5 0" fill="none" stroke="#ff0000"/></g><g id="ks8quaff1ev" transform="translate(27.5 10) rotate(90 0 2.5)"><path d="M 1e-13 1e-13 L 0 5" fill="none" stroke="#ff0000"/></g><g id="ks8quaff1ew" transform="translate(26.25 13.75) rotate(90 1.25 0)"><path d="M 1e-13 1e-13 L 2.5 0" fill="none" stroke="#ff0000"/></g></g></g></svg>