<?xml version="1.0" encoding="UTF-8"?>
<svg xmlns="http://www.w3.org/2000/svg" viewBox="0 0 64 64"><g id="kmem28cw1wh" class="Group.cls" transform="translate(7 20)"><g class="Prim.cls"><g id="kmem28cx1wi" transform="translate(5.5 2.5)"><rect fill="#ffffff" fill-opacity="1" height="20" stroke-linecap="butt" stroke="#000000" stroke-width="0.5" width="40" x="0" y="0"/></g><g id="kmem28cx1wj" transform="translate(3 12.5)"><path d="M 1e-13 1e-13 L 2.25 0" fill="#ffffff" fill-opacity="1" stroke="#000000" stroke-width="0.5"/></g><g id="kmem28cx1wk" transform="translate(45.5 12.5)"><path d="M 1e-13 1e-13 L 2.5 0" fill="#ffffff" fill-opacity="1" stroke="#000000" stroke-width="0.5"/></g><g id="kmem28cx1wl" transform="translate(33 16)"><rect fill="#000000" height="6.5" stroke="none" stroke-width="0.5" width="10" x="0" y="0"/></g><g id="kmem28cx1wm" transform="translate(35 16.75)"><path fill="white" d="M 1.6364 5.5 L 0 5.4999 L 0 2.3157 L 1.6364 2.3157 L 1.6364 0 L 3 0 L 3 5.5 Z" stroke="none" stroke-width="0.5"/></g><g id="kmem28cx1wn" transform="translate(0 12.5) rotate(270 2.5 0)"><path d="M 1e-13 1e-13 L 5 0" fill="none" stroke="#ff0000"/></g><g id="kmem28cx1wo" transform="translate(1.25 11.25) rotate(270 0 1.25)"><path d="M 1e-13 1e-13 L 0 2.5" fill="none" stroke="#ff0000"/></g><g id="kmem28cx1wp" transform="translate(46 12.5) rotate(90 2.5 0)"><path d="M 5 0 L 1e-13 1e-13" fill="none" stroke="#ff0000"/></g><g id="kmem28cx1wq" transform="translate(49.75 11.25) rotate(90 0 1.25)"><path d="M 1e-13 1e-13 L 0 2.5" fill="none" stroke="#ff0000"/></g><g id="kmem28cx1wr" transform="translate(23 2.5)"><path d="M 5 0 L 1e-13 1e-13" fill="none" stroke="#ff0000"/></g><g id="kmem28cx1ws" transform="translate(25.5 0)"><path d="M 1e-13 1e-13 L 0 2.5" fill="none" stroke="#ff0000"/></g><g id="kmem28cx1wt" transform="translate(23 22.5) rotate(180 2.5 0)"><path d="M 1e-13 1e-13 L 5 0" fill="none" stroke="#ff0000"/></g><g id="kmem28cx1wu" transform="translate(25.5 22.5) rotate(180 0 1.25)"><path d="M 1e-13 1e-13 L 0 2.5" fill="none" stroke="#ff0000"/></g></g></g></svg>