<?xml version="1.0" encoding="UTF-8"?>
<svg xmlns="http://www.w3.org/2000/svg" viewBox="0 0 64 64"><g id="kmem271k1sf" class="Group.cls" transform="translate(7 20)"><g class="Prim.cls"><g id="kmem271k1sg" transform="translate(5.5 2.5)"><rect fill="#ffffff" fill-opacity="1" height="20" stroke-linecap="butt" stroke="#000000" stroke-width="0.5" width="40" x="0" y="0"/></g><g id="kmem271k1sh" transform="translate(3 12.5)"><path d="M 1e-13 1e-13 L 2.25 0" fill="#ffffff" fill-opacity="1" stroke="#000000" stroke-width="0.5"/></g><g id="kmem271k1si" transform="translate(45.5 12.5)"><path d="M 1e-13 1e-13 L 2.5 0" fill="#ffffff" fill-opacity="1" stroke="#000000" stroke-width="0.5"/></g><g id="kmem271k1sj" transform="translate(15.5 2.5)"><path d="M 1e-13 1e-13 L 0 7" fill="#ffffff" fill-opacity="1" stroke="#000000" stroke-width="0.5"/></g><g id="kmem271k1sk" transform="translate(15.5 15.5)"><path d="M 0 7 L 1e-13 1e-13" fill="#ffffff" fill-opacity="1" stroke="#000000" stroke-width="0.5"/></g><g id="kmem271k1sl" transform="translate(15.5 9.5)"><path d="M 1e-13 1e-13 L 5 0" fill="#ffffff" fill-opacity="1" stroke="#000000" stroke-width="0.5"/></g><g id="kmem271k1sm" transform="translate(15.5 15.5)"><path d="M 1e-13 1e-13 L 5 0" fill="#ffffff" fill-opacity="1" stroke="#000000" stroke-width="0.5"/></g><g id="kmem271k1sn" transform="translate(0 12.5) rotate(270 2.5 0)"><path d="M 1e-13 1e-13 L 5 0" fill="none" stroke="#ff0000"/></g><g id="kmem271k1so" transform="translate(1.25 11.25) rotate(270 0 1.25)"><path d="M 1e-13 1e-13 L 0 2.5" fill="none" stroke="#ff0000"/></g><g id="kmem271k1sp" transform="translate(46 12.5) rotate(90 2.5 0)"><path d="M 5 0 L 1e-13 1e-13" fill="none" stroke="#ff0000"/></g><g id="kmem271k1sq" transform="translate(49.75 11.25) rotate(90 0 1.25)"><path d="M 1e-13 1e-13 L 0 2.5" fill="none" stroke="#ff0000"/></g><g id="kmem271k1sr" transform="translate(23 2.5)"><path d="M 5 0 L 1e-13 1e-13" fill="none" stroke="#ff0000"/></g><g id="kmem271k1ss" transform="translate(25.5 0)"><path d="M 1e-13 1e-13 L 0 2.5" fill="none" stroke="#ff0000"/></g><g id="kmem271k1st" transform="translate(23 22.5) rotate(180 2.5 0)"><path d="M 1e-13 1e-13 L 5 0" fill="none" stroke="#ff0000"/></g><g id="kmem271l1su" transform="translate(25.5 22.5) rotate(180 0 1.25)"><path d="M 1e-13 1e-13 L 0 2.5" fill="none" stroke="#ff0000"/></g></g></g></svg>