<?xml version="1.0" encoding="UTF-8"?>
<svg xmlns="http://www.w3.org/2000/svg" viewBox="0 0 64 64"><g id="kmem27hp1u4" class="Group.cls" transform="translate(9 20)"><g class="Prim.cls"><g id="kmem27hq1u5" transform="translate(5.5 2.5)"><rect fill="#ffffff" fill-opacity="1" height="20.00000320919178" stroke-linecap="butt" stroke="#000000" stroke-width="0.4622" width="36.99995040893555" x="0" y="0"/></g><g id="kmem27hq1u6" transform="translate(2.973 12.5)"><path d="M 1e-13 1e-13 L 2.5187499999999994 0" fill="#ffffff" fill-opacity="1" stroke="#000000" stroke-width="0.4622"/></g><g id="kmem27hq1u7" transform="translate(42.786 12.5)"><path d="M 1e-13 1e-13 L 2.312566071428571 0" fill="#ffffff" fill-opacity="1" stroke="#000000" stroke-width="0.4622"/></g><g id="kmem27hq1u8" transform="translate(5.5 2.5)"><path d="M 1e-13 1e-13 L 9.19662456642009 9.162611978578427 L 36.78620000000001 0" fill="none" fill-opacity="1" stroke="#000000" stroke-width="0.4622"/></g><g id="kmem27hq1u9" transform="translate(5.5 13.4)"><path d="M 0 9.100067575073242 L 9.196632526250912 0 L 36.7863330357143 9.100067575073242" fill="none" fill-opacity="1" stroke="#000000" stroke-width="0.4622"/></g><g id="kmem27hq1ua" transform="translate(0.067 12.661) rotate(270 2.411 0)"><path d="M 1e-13 1e-13 L 4.821478955624915 0" fill="none" stroke="#ff0000" stroke-width="0.9911"/></g><g id="kmem27hq1ub" transform="translate(1.239 11.422) rotate(270 0 1.239)"><path d="M 1e-13 1e-13 L 0 2.4777" fill="none" stroke="#ff0000" stroke-width="0.9911"/></g><g id="kmem27hq1uc" transform="translate(43.112 12.589) rotate(90 2.411 0)"><path d="M 4.8215086854081 0 L 0 1e-13" fill="none" stroke="#ff0000" stroke-width="0.9911"/></g><g id="kmem27hq1ud" transform="translate(46.761 11.35) rotate(90 0 1.239)"><path d="M 1e-13 1e-13 L 0 2.4777" fill="none" stroke="#ff0000" stroke-width="0.9911"/></g><g id="kmem27hq1ue" transform="translate(21 2.5)"><path d="M 5 0 L 1e-13 1e-13" fill="none" stroke="#ff0000"/></g><g id="kmem27hq1uf" transform="translate(23.5 0)"><path d="M 1e-13 1e-13 L 0 2.5" fill="none" stroke="#ff0000"/></g><g id="kmem27hq1ug" transform="translate(21 22.5) rotate(180 2.5 0)"><path d="M 1e-13 1e-13 L 5 0" fill="none" stroke="#ff0000"/></g><g id="kmem27hq1uh" transform="translate(23.5 22.5) rotate(180 0 1.25)"><path d="M 1e-13 1e-13 L 0 2.5" fill="none" stroke="#ff0000"/></g></g></g></svg>