<?xml version="1.0" encoding="UTF-8"?>
<svg xmlns="http://www.w3.org/2000/svg" viewBox="0 0 64 64"><g id="kmem25pw1og" class="Group.cls" transform="translate(10 10)"><g class="Prim.cls"><g id="kmem25px1oh" transform="translate(2.5 2.5)"><path d="M 8 0 L 0 20 L 8 40 L 32 40 L 40 20 L 32 0 Z" fill="#ffffff" fill-opacity="1" stroke="#000000" stroke-width="0.4"/></g><g id="kmem25px1oi" transform="translate(2.5 22.5)"><path d="M 1e-13 1e-13 L 40 0" fill="#ffffff" fill-opacity="1" stroke="#000000" stroke-width="0.4"/></g><g id="kmem25px1oj" transform="translate(20 2.5)"><path d="M 1e-13 1e-13 L 5 0" fill="none" stroke="#ff0000"/></g><g id="kmem25px1ok" transform="translate(22.5 0)"><path d="M 1e-13 1e-13 L 0 2.5" fill="none" stroke="#ff0000"/></g><g id="kmem25px1ol" transform="translate(20 42.5) rotate(180 2.5 0)"><path d="M 5 0 L 1e-13 1e-13" fill="none" stroke="#ff0000"/></g><g id="kmem25px1om" transform="translate(22.5 42.5) rotate(180 0 1.25)"><path d="M 1e-13 1e-13 L 0 2.5" fill="none" stroke="#ff0000"/></g><g id="kmem25px1on" transform="translate(0 22.5) rotate(270 2.5 0)"><path d="M 1e-13 1e-13 L 5 0" fill="none" stroke="#ff0000"/></g><g id="kmem25px1oo" transform="translate(1.25 21.25) rotate(270 0 1.25)"><path d="M 1e-13 1e-13 L 0 2.5" fill="none" stroke="#ff0000"/></g><g id="kmem25px1op" transform="translate(40 22.5) rotate(90 2.5 0)"><path d="M 5.000000000000001 0 L 1e-13 1e-13" fill="none" stroke="#ff0000"/></g><g id="kmem25px1oq" transform="translate(43.75 21.25) rotate(90 0 1.25)"><path d="M 1e-13 1e-13 L 0 2.5" fill="none" stroke="#ff0000"/></g></g></g></svg>