<?xml version="1.0" encoding="UTF-8"?>
<svg xmlns="http://www.w3.org/2000/svg" viewBox="0 0 64 64"><g id="kmem21jp1f3" class="Group.cls" transform="translate(10 10)"><g class="Prim.cls"><g id="kmem21jr1f4" transform="translate(2.5 2.5)"><path d="M 8.000000000000002 0 L 0 19.99998269334776 L 8.000000000000002 39.99996538669552 L 32.00000000000001 39.99996538669552 L 40 19.99998269334776 L 32.00000000000001 0 Z" fill="#ffffff" fill-opacity="1" stroke="#000000" stroke-width="0.4002"/></g><g id="kmem21jr1f5" transform="translate(4.1 18.5)"><path d="M 1e-13 1e-13 L 36.800000000000004 0" fill="#ffffff" fill-opacity="1" stroke="#000000" stroke-width="0.4002"/></g><g id="kmem21jr1f6" transform="translate(4.2 26.5)"><path d="M 1e-13 1e-13 L 36.69994805194806 0" fill="#ffffff" fill-opacity="1" stroke="#000000" stroke-width="0.4002"/></g><g id="kmem21jr1f7" transform="translate(20 2.5)"><path d="M 1e-13 1e-13 L 5 0" fill="none" stroke="#ff0000"/></g><g id="kmem21jr1f8" transform="translate(22.5 0)"><path d="M 1e-13 1e-13 L 0 2.5" fill="none" stroke="#ff0000"/></g><g id="kmem21jr1f9" transform="translate(20 42.5) rotate(180 2.5 0)"><path d="M 5 0 L 1e-13 1e-13" fill="none" stroke="#ff0000"/></g><g id="kmem21jr1fa" transform="translate(22.5 42.5) rotate(180 0 1.25)"><path d="M 1e-13 1e-13 L 0 2.5" fill="none" stroke="#ff0000"/></g><g id="kmem21jr1fb" transform="translate(0 22.5) rotate(270 2.5 0)"><path d="M 1e-13 1e-13 L 5 0" fill="none" stroke="#ff0000"/></g><g id="kmem21js1fc" transform="translate(1.25 21.25) rotate(270 0 1.25)"><path d="M 1e-13 1e-13 L 0 2.5" fill="none" stroke="#ff0000"/></g><g id="kmem21js1fd" transform="translate(40 22.5) rotate(90 2.5 0)"><path d="M 5 0 L 1e-13 1e-13" fill="none" stroke="#ff0000"/></g><g id="kmem21js1fe" transform="translate(43.75 21.25) rotate(90 0 1.25)"><path d="M 1e-13 1e-13 L 0 2.5" fill="none" stroke="#ff0000"/></g></g></g></svg>