<?xml version="1.0" encoding="UTF-8"?>
<svg xmlns="http://www.w3.org/2000/svg" viewBox="0 0 64 64"><g id="kmem24di1m0" class="Group.cls" transform="translate(10 10)"><g class="Prim.cls"><g id="kmem24dj1m1" class="ke0sp8fen9u.lay" transform="translate(2.5 2.494)"><rect fill="none" height="40.00617217183113" stroke="#ff0000" stroke-opacity="0.3" stroke-width="0.4" width="40" x="0" y="0"/></g><g id="kmem24dj1m2" transform="translate(2.5 2.494)"><rect fill="white" height="40.00617217183113" stroke="#000000" stroke-opacity="1" stroke-width="0.4" width="40" x="0" y="0"/></g><g id="kmem24dj1m3" transform="translate(2.5 2.494)"><ellipse cx="20" cy="20.003086085915566" fill="none" rx="20" ry="20.003086085915566" stroke="#000000" stroke-opacity="1" stroke-width="0.4"/></g><g id="kmem24dj1m4" transform="translate(2.5 22.497)"><path d="M 1e-13 1e-13 L 40 0" fill="none" stroke="#000000" stroke-width="0.4"/></g><g id="kmem24dk1m5" transform="translate(20 2.5)"><path d="M 1e-13 1e-13 L 5 0" fill="none" stroke="#ff0000"/></g><g id="kmem24dk1m6" transform="translate(22.5 0)"><path d="M 1e-13 1e-13 L 0 2.5" fill="none" stroke="#ff0000"/></g><g id="kmem24dk1m7" transform="translate(20 42.5) rotate(180 2.5 0)"><path d="M 5 0 L 1e-13 1e-13" fill="none" stroke="#ff0000"/></g><g id="kmem24dk1m8" transform="translate(22.5 42.5) rotate(180 0 1.25)"><path d="M 1e-13 1e-13 L 0 2.5" fill="none" stroke="#ff0000"/></g><g id="kmem24dk1m9" transform="translate(0 22.5) rotate(270 2.5 0)"><path d="M 1e-13 1e-13 L 5 0" fill="none" stroke="#ff0000"/></g><g id="kmem24dk1ma" transform="translate(1.25 21.25) rotate(270 0 1.25)"><path d="M 1e-13 1e-13 L 0 2.5" fill="none" stroke="#ff0000"/></g><g id="kmem24dk1mb" transform="translate(40 22.5) rotate(90 2.5 0)"><path d="M 5 0 L 1e-13 1e-13" fill="none" stroke="#ff0000"/></g><g id="kmem24dk1mc" transform="translate(43.75 21.25) rotate(90 0 1.25)"><path d="M 1e-13 1e-13 L 0 2.5" fill="none" stroke="#ff0000"/></g></g></g></svg>