<?xml version="1.0" encoding="UTF-8"?>
<svg xmlns="http://www.w3.org/2000/svg" viewBox="0 0 64 64"><g id="kmem26m81rn" class="Group.cls" transform="translate(7 20)"><g class="Prim.cls"><g id="kmem26m81ro" transform="translate(5.5 2.5)"><rect fill="white" height="20" stroke-linecap="butt" stroke="#000000" stroke-width="0.5" width="40" x="0" y="0"/></g><g id="kmem26m81rp" transform="translate(15.5 5.5)"><path d="M 1e-13 1e-13 L 0 14.5625" fill="none" stroke-linecap="square" stroke="#000000" stroke-width="0.5"/></g><g id="kmem26m81rq" transform="translate(13 12.5)"><path d="M 1e-13 1e-13 L 5 0" fill="none" stroke="#000000" stroke-width="0.5"/></g><g id="kmem26m81rr" transform="translate(15.5 20.5)"><path d="M 1e-13 1e-13 L 0 2" fill="none" stroke-linecap="square" stroke="#000000" stroke-width="0.5"/></g><g id="kmem26m81rs" transform="translate(3 12.5)"><path d="M 1e-13 1e-13 L 2.25 0" fill="none" stroke="#000000" stroke-width="0.5"/></g><g id="kmem26m81rt" transform="translate(45.5 12.5)"><path d="M 1e-13 1e-13 L 2.5 0" fill="none" stroke="#000000" stroke-width="0.5"/></g><g id="kmem26m81ru" transform="translate(-0.049 12.5) rotate(270 2.5 0)"><path d="M 1e-13 1e-13 L 5 0" fill="none" stroke="#ff0000"/></g><g id="kmem26m81rv" transform="translate(1.226 11.275) rotate(270 0 1.225)"><path d="M 1e-13 1e-13 L 0 2.451" fill="none" stroke="#ff0000"/></g><g id="kmem26m81rw" transform="translate(46.049 12.5) rotate(90 2.5 0)"><path d="M 5 0 L 1e-13 1e-13" fill="none" stroke="#ff0000"/></g><g id="kmem26m81rx" transform="translate(49.775 11.275) rotate(90 0 1.225)"><path d="M 1e-13 1e-13 L 0 2.451" fill="none" stroke="#ff0000"/></g><g id="kmem26m81ry" transform="translate(23 2.5)"><path d="M 5 0 L 1e-13 1e-13" fill="none" stroke="#ff0000"/></g><g id="kmem26m81rz" transform="translate(25.5 0)"><path d="M 1e-13 1e-13 L 0 2.5" fill="none" stroke="#ff0000"/></g><g id="kmem26m81s0" transform="translate(23 22.5) rotate(180 2.5 0)"><path d="M 1e-13 1e-13 L 5 0" fill="none" stroke="#ff0000"/></g><g id="kmem26m81s1" transform="translate(25.5 22.5) rotate(180 0 1.25)"><path d="M 1e-13 1e-13 L 0 2.5" fill="none" stroke="#ff0000"/></g></g></g></svg>