<?xml version="1.0" encoding="UTF-8"?>
<svg xmlns="http://www.w3.org/2000/svg" viewBox="0 0 64 64"><g id="kmem200q1ag" class="Group.cls" transform="translate(10 10)"><g class="Prim.cls"><g id="kmem200r1ah" transform="translate(2.5 2.5)"><rect fill="white" height="40" stroke="#000000" stroke-opacity="1" stroke-width="0.4" width="40" x="0" y="0"/></g><g id="kmem200r1ai" transform="translate(2.5 2.5)"><ellipse cx="20" cy="20" fill="none" rx="20" ry="20" stroke="#000000" stroke-opacity="1" stroke-width="0.4"/></g><g id="kmem200r1aj" transform="translate(2.5 18.5)"><path d="M 1e-13 1e-13 L 40 0" fill="none" stroke="#000000" stroke-width="0.4"/></g><g id="kmem200r1ak" transform="translate(2.5 26.5)"><path d="M 1e-13 1e-13 L 40 0" fill="none" stroke="#000000" stroke-width="0.4"/></g><g id="kmem200r1al" transform="translate(20 2.5)"><path d="M 1e-13 1e-13 L 5 0" fill="none" stroke="#ff0000"/></g><g id="kmem200r1am" transform="translate(22.5 0)"><path d="M 1e-13 1e-13 L 0 2.5" fill="none" stroke="#ff0000"/></g><g id="kmem200r1an" transform="translate(20 42.5) rotate(180 2.5 0)"><path d="M 5 0 L 1e-13 1e-13" fill="none" stroke="#ff0000"/></g><g id="kmem200r1ao" transform="translate(22.5 42.5) rotate(180 0 1.25)"><path d="M 1e-13 1e-13 L 0 2.5" fill="none" stroke="#ff0000"/></g><g id="kmem200r1ap" transform="translate(0 22.5) rotate(270 2.5 0)"><path d="M 1e-13 1e-13 L 5 0" fill="none" stroke="#ff0000"/></g><g id="kmem200r1aq" transform="translate(1.25 21.25) rotate(270 0 1.25)"><path d="M 1e-13 1e-13 L 0 2.5" fill="none" stroke="#ff0000"/></g><g id="kmem200r1ar" transform="translate(40 22.5) rotate(90 2.5 0)"><path d="M 5 0 L 1e-13 1e-13" fill="none" stroke="#ff0000"/></g><g id="kmem200r1as" transform="translate(43.75 21.25) rotate(90 0 1.25)"><path d="M 1e-13 1e-13 L 0 2.5" fill="none" stroke="#ff0000"/></g></g></g></svg>