<?xml version="1.0" encoding="UTF-8"?>
<svg xmlns="http://www.w3.org/2000/svg" viewBox="0 0 64 64"><g id="kmem27xg1vr" class="Group.cls" transform="translate(7 20)"><g class="Prim.cls"><g id="kmem27xh1vs" transform="translate(5.5 2.5)"><rect fill="#ffffff" fill-opacity="1" height="20" stroke-linecap="butt" stroke="#000000" stroke-width="0.5" width="40" x="0" y="0"/></g><g id="kmem27xh1vt" transform="translate(3 12.5)"><path d="M 1e-13 1e-13 L 2.25 0" fill="#ffffff" fill-opacity="1" stroke="#000000" stroke-width="0.5"/></g><g id="kmem27xi1vu" transform="translate(45.5 12.5)"><path d="M 1e-13 1e-13 L 2.5 0" fill="#ffffff" fill-opacity="1" stroke="#000000" stroke-width="0.5"/></g><g id="kmem27xi1vv" transform="translate(18.5 7.5)"><path d="M 13 0 L 0 2.5 L 0 7.5 L 13 10 Z" fill="#ffffff" fill-opacity="1" stroke="#000000" stroke-width="0.5"/></g><g id="kmem27xi1vw" transform="translate(0 12.5) rotate(270 2.5 0)"><path d="M 1e-13 1e-13 L 5 0" fill="none" stroke="#ff0000"/></g><g id="kmem27xi1vx" transform="translate(1.25 11.25) rotate(270 0 1.25)"><path d="M 1e-13 1e-13 L 0 2.5" fill="none" stroke="#ff0000"/></g><g id="kmem27xi1vy" transform="translate(46 12.5) rotate(90 2.5 0)"><path d="M 5 0 L 1e-13 1e-13" fill="none" stroke="#ff0000"/></g><g id="kmem27xi1vz" transform="translate(49.75 11.25) rotate(90 0 1.25)"><path d="M 1e-13 1e-13 L 0 2.5" fill="none" stroke="#ff0000"/></g><g id="kmem27xi1w0" transform="translate(23 2.5)"><path d="M 5 0 L 1e-13 1e-13" fill="none" stroke="#ff0000"/></g><g id="kmem27xi1w1" transform="translate(25.5 0)"><path d="M 1e-13 1e-13 L 0 2.5" fill="none" stroke="#ff0000"/></g><g id="kmem27xi1w2" transform="translate(23 22.5) rotate(180 2.5 0)"><path d="M 1e-13 1e-13 L 5 0" fill="none" stroke="#ff0000"/></g><g id="kmem27xi1w3" transform="translate(25.5 22.5) rotate(180 0 1.25)"><path d="M 1e-13 1e-13 L 0 2.5" fill="none" stroke="#ff0000"/></g></g></g></svg>