<?xml version="1.0" encoding="UTF-8"?>
<svg xmlns="http://www.w3.org/2000/svg" viewBox="0 0 64 64"><g id="kmem22z11ii" class="Group.cls" transform="translate(10 10)"><g class="Prim.cls"><g id="kmem22z21ij" transform="translate(2.5 2.5)"><ellipse fill="white" cx="20" cy="20" rx="20" ry="20" stroke="#000000" stroke-opacity="1" stroke-width="0.4025"/></g><g id="kmem22z21ik" transform="translate(20 2.5)"><path d="M 1e-13 1e-13 L 5 0" fill="none" stroke="#ff0000"/></g><g id="kmem22z21il" transform="translate(22.5 0)"><path d="M 1e-13 1e-13 L 0 2.5" fill="none" stroke="#ff0000"/></g><g id="kmem22z21im" transform="translate(20 42.5) rotate(180 2.5 0)"><path d="M 5 0 L 1e-13 1e-13" fill="none" stroke="#ff0000"/></g><g id="kmem22z21in" transform="translate(22.5 42.5) rotate(180 0 1.25)"><path d="M 1e-13 1e-13 L 0 2.5" fill="none" stroke="#ff0000"/></g><g id="kmem22z21io" transform="translate(0 22.5) rotate(270 2.5 0)"><path d="M 1e-13 1e-13 L 5 0" fill="none" stroke="#ff0000"/></g><g id="kmem22z31ip" transform="translate(1.25 21.25) rotate(270 0 1.25)"><path d="M 1e-13 1e-13 L 0 2.5" fill="none" stroke="#ff0000"/></g><g id="kmem22z31iq" transform="translate(40 22.5) rotate(90 2.5 0)"><path d="M 5 0 L 1e-13 1e-13" fill="none" stroke="#ff0000"/></g><g id="kmem22z31ir" transform="translate(43.75 21.25) rotate(90 0 1.25)"><path d="M 1e-13 1e-13 L 0 2.5" fill="none" stroke="#ff0000"/></g></g></g></svg>