<?xml version="1.0" encoding="UTF-8"?>
<svg xmlns="http://www.w3.org/2000/svg" viewBox="0 0 64 64"><g id="kmem265m1q0" class="Group.cls" transform="translate(7 20)"><g class="Prim.cls"><g id="kmem265o1q1" transform="translate(5.5 2.5)"><rect fill="#ffffff" fill-opacity="1" height="20" stroke-linecap="butt" stroke="#000000" stroke-width="0.5" width="40.00000128225118" x="0" y="0"/></g><g id="kmem265o1q2" transform="translate(15.5 2.5)"><path d="M 1e-13 1e-13 L 0 7.5" fill="#ffffff" fill-opacity="1" stroke="#000000" stroke-width="0.5"/></g><g id="kmem265o1q3" transform="translate(15.5 15)"><path d="M 1e-13 1e-13 L 0 7.5" fill="#ffffff" fill-opacity="1" stroke="#000000" stroke-width="0.5"/></g><g id="kmem265o1q4" transform="translate(45.5 12.5)"><path d="M 1e-13 1e-13 L 2.5 0" fill="#ffffff" fill-opacity="1" stroke="#000000" stroke-width="0.5"/></g><g id="kmem265o1q5" transform="translate(3 12.5)"><path d="M 2.4999999999998006 0 L 1e-13 1e-13" fill="#ffffff" fill-opacity="1" stroke="#000000" stroke-width="0.5"/></g><g id="kmem265o1q6" transform="translate(0 12.5) rotate(270 2.5 0)"><path d="M 1e-13 1e-13 L 5 0" fill="none" stroke="#ff0000"/></g><g id="kmem265o1q7" transform="translate(1.25 11.25) rotate(270 0 1.25)"><path d="M 1e-13 1e-13 L 0 2.5" fill="none" stroke="#ff0000"/></g><g id="kmem265o1q8" transform="translate(46 12.5) rotate(90 2.5 0)"><path d="M 5 0 L 1e-13 1e-13" fill="none" stroke="#ff0000"/></g><g id="kmem265o1q9" transform="translate(49.75 11.25) rotate(90 0 1.25)"><path d="M 1e-13 1e-13 L 0 2.5" fill="none" stroke="#ff0000"/></g><g id="kmem265o1qa" transform="translate(23 2.5)"><path d="M 5 0 L 1e-13 1e-13" fill="none" stroke="#ff0000"/></g><g id="kmem265o1qb" transform="translate(25.5 0)"><path d="M 1e-13 1e-13 L 0 2.5" fill="none" stroke="#ff0000"/></g><g id="kmem265o1qc" transform="translate(23 22.5) rotate(180 2.5 0)"><path d="M 1e-13 1e-13 L 5 0" fill="none" stroke="#ff0000"/></g><g id="kmem265o1qd" transform="translate(25.5 22.5) rotate(180 0 1.25)"><path d="M 1e-13 1e-13 L 0 2.5" fill="none" stroke="#ff0000"/></g></g></g></svg>