<?xml version="1.0" encoding="UTF-8"?>
<svg xmlns="http://www.w3.org/2000/svg" viewBox="0 0 64 64"><g id="kmem20ts1da" class="Group.cls" transform="translate(10.5 10.5)"><g class="Prim.cls"><g id="kmem20ts1db" transform="translate(1.833 1.833)"><ellipse cx="20.167223076321463" cy="20.167223076321463" fill="#ffffff" fill-opacity="1" rx="20.167223076321463" ry="20.167223076321463" stroke="#000000" stroke-opacity="1" stroke-width="0.4032"/></g><g id="kmem20ts1dc" transform="translate(2.237 17.967)"><path d="M 1e-13 1e-13 L 39.52775722959007 0" fill="#ffffff" fill-opacity="1" stroke="#000000" stroke-width="0.4032"/></g><g id="kmem20ts1dd" transform="translate(2.237 26.034)"><path d="M 1e-13 1e-13 L 39.52775722959007 0" fill="#ffffff" fill-opacity="1" stroke="#000000" stroke-width="0.4032"/></g><g id="kmem20ts1de" transform="translate(-0.021 21.771) rotate(90 2.021 0)"><path d="M 4.041739096980848 0 L 1e-13 1e-13" fill="none" stroke="#ff0000" stroke-width="0.9954"/></g><g id="kmem20ts1df" transform="translate(1 20.771) rotate(90 0 1)"><path d="M 0 2.0000827680907043 L 1e-13 1e-13" fill="none" stroke="#ff0000" stroke-width="0.9954"/></g><g id="kmem20ts1dg" transform="translate(39.98 21.771) rotate(270 2.021 0)"><path d="M 4.041739096980848 0 L 1e-13 1e-13" fill="none" stroke="#ff0000" stroke-width="0.9954"/></g><g id="kmem20ts1dh" transform="translate(43.001 20.771) rotate(270 0 1)"><path d="M 0 2.0000827680907043 L 1e-13 1e-13" fill="none" stroke="#ff0000" stroke-width="0.9954"/></g><g id="kmem20ts1di" transform="translate(20.001 41.979)"><path d="M 4.00016553618151 0 L 1e-13 1e-13" fill="none" stroke="#ff0000" stroke-width="0.9954"/></g><g id="kmem20ts1dj" transform="translate(22.001 41.979)"><path d="M 0 2.020818972382345 L 1e-13 1e-13" fill="none" stroke="#ff0000" stroke-width="0.9954"/></g><g id="kmem20ts1dk" transform="translate(20.001 2.021) rotate(180 2 0)"><path d="M 4.000064383965452 0 L 1e-13 1e-13" fill="none" stroke="#ff0000" stroke-width="0.9954"/></g><g id="kmem20ts1dl" transform="translate(22.001 0) rotate(180 0 1.01)"><path d="M 0 2.020818972382345 L 1e-13 1e-13" fill="none" stroke="#ff0000" stroke-width="0.9954"/></g></g></g></svg>