<?xml version="1.0" encoding="UTF-8"?>
<svg xmlns:xlink="http://www.w3.org/1999/xlink" xmlns="http://www.w3.org/2000/svg" viewBox="0 0 64 64"><g id="kmem28s91y4" class="Group.cls" transform="translate(7 20)"><g class="Prim.cls"><g id="kmem28s91y5" transform="translate(5.485 2.5)"><rect fill="#ffffff" fill-opacity="1" height="20" stroke-linecap="butt" stroke="#000000" stroke-width="0.5" width="40.01528931274414" x="0" y="0"/><g class="ConnPts.cls"><use id="kl65bxsg13xo" x="-10.003822114993001" y="10" xlink:href="#connection.sym"/><use id="kl65bxsg13xp" x="50.01911057496497" y="10" xlink:href="#connection.sym"/><use id="kl65bxsg13xq" x="20.007644229986003" y="20" xlink:href="#connection.sym"/><use id="kl65bxsg13xr" x="20.007644229986003" y="0" xlink:href="#connection.sym"/></g></g><g id="kmem28sa1y6" transform="translate(3 12.5)"><path d="M 1e-13 1e-13 L 2.236111111111111 0" fill="#ffffff" fill-opacity="1" stroke="#000000" stroke-width="0.5"/></g><g id="kmem28sa1y7" transform="translate(45.5 12.5)"><path d="M 1e-13 1e-13 L 2.5 0" fill="#ffffff" fill-opacity="1" stroke="#000000" stroke-width="0.5"/></g><g id="kmem28sa1y8" transform="translate(38.799 16)"><rect fill="#000000" height="6.5" stroke="none" stroke-width="0.5" width="6.701317647058828" x="0" y="0"/></g><g id="kmem28sa1y9" transform="translate(41.5 17.5)"><path fill="white" d="M 1.63644962611765 4 L 0 3.9999 L 0 1.6841 L 1.63644962611765 1.6841 L 1.63644962611765 0 L 3.0000176470588285 0 L 3.0000176470588285 4 Z" stroke="none" stroke-width="0.5"/></g><g id="kmem28sa1ya" transform="translate(0 12.5) rotate(270 2.5 0)"><path d="M 1e-13 1e-13 L 5 0" fill="none" stroke="#ff0000"/></g><g id="kmem28sa1yb" transform="translate(1.25 11.25) rotate(270 0 1.25)"><path d="M 1e-13 1e-13 L 0 2.5" fill="none" stroke="#ff0000"/></g><g id="kmem28sa1yc" transform="translate(46 12.5) rotate(90 2.5 0)"><path d="M 5 0 L 1e-13 1e-13" fill="none" stroke="#ff0000"/></g><g id="kmem28sa1yd" transform="translate(49.75 11.25) rotate(90 0 1.25)"><path d="M 1e-13 1e-13 L 0 2.5" fill="none" stroke="#ff0000"/></g><g id="kmem28sa1ye" transform="translate(23 2.5)"><path d="M 5 0 L 1e-13 1e-13" fill="none" stroke="#ff0000"/></g><g id="kmem28sa1yf" transform="translate(25.5 0)"><path d="M 1e-13 1e-13 L 0 2.5" fill="none" stroke="#ff0000"/></g><g id="kmem28sa1yg" transform="translate(23 22.5) rotate(180 2.5 0)"><path d="M 1e-13 1e-13 L 5 0" fill="none" stroke="#ff0000"/></g><g id="kmem28sa1yh" transform="translate(25.5 22.5) rotate(180 0 1.25)"><path d="M 1e-13 1e-13 L 0 2.5" fill="none" stroke="#ff0000"/></g></g></g></svg>