<?xml version="1.0" encoding="UTF-8"?>
<svg xmlns:xlink="http://www.w3.org/1999/xlink" xmlns="http://www.w3.org/2000/svg" viewBox="0 0 64 64"><g id="kzqs2020sx" class="Group.cls" transform="translate(10.000013636628 6)"><g class="Prim.cls"><g id="kzqs2021sy" transform="translate(4.830986363372 20.659979547966046) rotate(270 10.000000000000002 11.839720452033951)"><path d="M 20 23.6794409040679 L 0 14.4569218151151 L 1e-13 0" fill="none" stroke="#000000" stroke-width="0.5"/></g><g id="kzqs2021sz" transform="translate(14.5319863633721 10.9600368206405) rotate(270 0.04999999999989946 11.590463179359501)"><path d="M 0.0999999999999 23.1809263587191 L 1e-13 1e-13" fill="none" stroke="#000000" stroke-width="0.5"/></g><g id="kzqs2021t0" transform="translate(12.091036363372003 7.858040455523602) rotate(270 9.96875 4.6112595444764)"><path d="M 0 9.222519088952799 L 19.9375 0" fill="none" stroke="#000000" stroke-width="0.5"/></g><g id="kzqs2021t1" transform="translate(10.218986363371952 -4.7279609075575495) rotate(270 4.973799150320701e-14 7.228460907557549)"><path d="M 0 14.4569218151151 L 1e-13 0" fill="none" stroke="#000000" stroke-width="0.5"/></g><g id="kzqs2021t2" transform="translate(17.060036363372 12.888997614607902) rotate(270 4.96875 4.580102385392099)"><path d="M 0 9.1602047707842 L 9.9375 0" fill="none" stroke="#000000" stroke-width="0.5"/></g><g id="kzqs2021t3" transform="translate(10.218986363371952 5.272039092442448) rotate(270 4.973799150320701e-14 7.228460907557551)"><path d="M 0 14.4569218151151 L 1e-13 0" fill="none" stroke="#000000" stroke-width="0.5" stroke-dasharray="none"/></g><g id="kzqs2021t4" transform="translate(0 2.5)"><path d="M 1e-13 1e-13 L 2.4925727267439997 0" fill="none" stroke="#ff0000" stroke-width="1"/></g><g id="kzqs2021t5" transform="translate(2.492986363372001 0)"><path d="M 1e-13 1e-13 L 0 5" fill="none" stroke="#ff0000" stroke-width="1"/></g><g id="kzqs2021t6" transform="translate(0 12.5)"><path d="M 1e-13 1e-13 L 2.4925727267439997 0" fill="none" stroke="#ff0000" stroke-width="1"/></g><g id="kzqs2021t7" transform="translate(2.492986363372001 10)"><path d="M 1e-13 1e-13 L 0 5" fill="none" stroke="#ff0000" stroke-width="1"/></g><g id="kzqs2021t8" transform="translate(9.800036363372 15.628979547966047) rotate(270 5.03125 11.839720452033948)"><path d="M 10.0625 23.6794409040679 L 0 14.4569218151151 L 1e-13 0" fill="none" stroke="#000000" stroke-width="0.5"/></g><g id="kzqs2021t9" transform="translate(0 22.5)"><path d="M 1e-13 1e-13 L 2.4925727267439997 0" fill="none" stroke="#ff0000" stroke-width="1"/></g><g id="kzqs2021ta" transform="translate(2.492986363372001 20)"><path d="M 1e-13 1e-13 L 0 5" fill="none" stroke="#ff0000" stroke-width="1"/></g><g id="kzqs2021tb" transform="translate(0 32.5)"><path d="M 1e-13 1e-13 L 2.4925727267439997 0" fill="none" stroke="#ff0000" stroke-width="1"/></g><g id="kzqs2021tc" transform="translate(2.492986363372001 30)"><path d="M 1e-13 1e-13 L 0 5" fill="none" stroke="#ff0000" stroke-width="1"/></g><g id="kzqs2021td" transform="translate(0 42.5)"><path d="M 1e-13 1e-13 L 2.4925727267439997 0" fill="none" stroke="#ff0000" stroke-width="1"/></g><g id="kzqs2021te" transform="translate(2.492986363372001 40)"><path d="M 1e-13 1e-13 L 0 5" fill="none" stroke="#ff0000" stroke-width="1"/></g><g id="kzqs2021tf" transform="translate(26.98201102405571 22.5)"><path d="M 1e-13 1e-13 L 10.517800331115723 0" fill="none" stroke="#000000" stroke-linejoin="miter" stroke-dasharray="none" fill-opacity="1" stroke-opacity="1" stroke-width="1"/><use class="EndArrow.cls" fill="#000000" stroke-linejoin="miter" transform="scale(1) rotate(90 15.01775074005127 0)" x="15.01775074005127" xlink:href="#icon_lOHXd_5nzudTyU5XJUsybe_thick.end" y="0"/></g></g></g></svg>