<?xml version="1.0" encoding="UTF-8"?>
<svg xmlns="http://www.w3.org/2000/svg" viewBox="0 0 64 64"><g id="kzqs79h6uo" class="Group.cls" transform="translate(7.5 6)"><g class="Prim.cls"><g id="kzqs79h7up" transform="translate(14.625 0.6250000000000497) rotate(90 10 11.87499999999995)"><path d="M 20 23.75 L 0 14.5 L 1e-13 1e-13" fill="none" stroke="#000000" stroke-width="0.5"/></g><g id="kzqs79h7uq" transform="translate(24.62499999999995 10.62500000000005) rotate(90 4.973799150320701e-14 11.87499999999995)"><path d="M 0 23.7499999999999 L 1e-13 0" fill="none" stroke="#000000" stroke-width="0.5"/></g><g id="kzqs79h7ur" transform="translate(7.4060500000000005 27.906) rotate(90 9.96875 4.625)"><path d="M 0 9.25 L 19.9375 0" fill="none" stroke="#000000" stroke-width="0.5"/></g><g id="kzqs79h7us" transform="translate(29.24999999999995 35.25000000000005) rotate(90 4.973799150320701e-14 7.24999999999995)"><path d="M 0 14.5 L 1e-13 1e-13" fill="none" stroke="#000000" stroke-width="0.5"/></g><g id="kzqs79h7ut" transform="translate(12.43805 22.93705) rotate(90 4.96875 4.59375)"><path d="M 0 9.1875 L 9.9375 0" fill="none" stroke="#000000" stroke-width="0.5"/></g><g id="kzqs79h7uu" transform="translate(29.24999999999995 25.25000000000005) rotate(90 4.973799150320701e-14 7.24999999999995)"><path d="M 0 14.5 L 1e-13 1e-13" fill="none" stroke="#000000" stroke-width="0.5"/></g><g id="kzqs79h7uv" transform="translate(37 42.5) rotate(180 1.25 0)"><path d="M 1e-13 1e-13 L 2.5 0" fill="none" stroke="#ff0000" stroke-width="1"/></g><g id="kzqs79h7uw" transform="translate(37 40) rotate(180 0 2.5)"><path d="M 1e-13 1e-13 L 0 5" fill="none" stroke="#ff0000" stroke-width="1"/></g><g id="kzqs79h7ux" transform="translate(37 32.5) rotate(180 1.25 0)"><path d="M 1e-13 1e-13 L 2.5 0" fill="none" stroke="#ff0000" stroke-width="1"/></g><g id="kzqs79h7uy" transform="translate(37 30) rotate(180 0 2.5)"><path d="M 1e-13 1e-13 L 0 5" fill="none" stroke="#ff0000" stroke-width="1"/></g><g id="kzqs79h7uz" transform="translate(19.594050000000003 5.6560000000000485) rotate(90 5.03125 11.87499999999995)"><path d="M 10.0625 23.75 L 0 14.5 L 1e-13 1e-13" fill="none" stroke="#000000" stroke-width="0.5"/></g><g id="kzqs79h7v0" transform="translate(37 22.5) rotate(180 1.25 0)"><path d="M 1e-13 1e-13 L 2.5 0" fill="none" stroke="#ff0000" stroke-width="1"/></g><g id="kzqs79h8v1" transform="translate(37 20) rotate(180 0 2.5)"><path d="M 1e-13 1e-13 L 0 5" fill="none" stroke="#ff0000" stroke-width="1"/></g><g id="kzqs79h8v2" transform="translate(37 12.5) rotate(180 1.25 0)"><path d="M 1e-13 1e-13 L 2.5 0" fill="none" stroke="#ff0000" stroke-width="1"/></g><g id="kzqs79h8v3" transform="translate(37 10) rotate(180 0 2.5)"><path d="M 1e-13 1e-13 L 0 5" fill="none" stroke="#ff0000" stroke-width="1"/></g><g id="kzqs79h8v4" transform="translate(37 2.5) rotate(180 1.25 0)"><path d="M 1e-13 1e-13 L 2.5 0" fill="none" stroke="#ff0000" stroke-width="1"/></g><g id="kzqs79h8v5" transform="translate(37 0) rotate(180 0 2.5)"><path d="M 1e-13 1e-13 L 0 5" fill="none" stroke="#ff0000" stroke-width="1"/></g><g id="kzqs79h8v6" transform="translate(4.700000000000053 22.49999999999995)"><path fill="#000000" d="M 7.799999999999999 0 L 1e-13 1e-13" stroke="#000000" stroke-width="0.5"/></g><g id="kzqs79h8v7" transform="translate(0 19.3771)"><path fill="#000000" d="M 5 3.0702 L 0 0 L 0 3.0702 M 0 3.0702 L 5 3.0702 L 0 6.1403 Z" stroke="#000000" stroke-width="0.5"/></g></g></g></svg>