<?xml version="1.0" encoding="UTF-8"?>
<svg xmlns="http://www.w3.org/2000/svg" viewBox="0 0 64 64"><g id="l1bvn8u58uz" class="Group.cls" transform="translate(19 6)"><g class="Prim.cls"><g id="l1bvn8ua8v0" class="CVerti.cls" transform="translate(2.5 0)"><path d="M 1e-13 1e-13 L 0 20.594032379518072 L 21 20.594032379518072 L 21 40.56588855421687" fill="none" stroke="#000000" stroke-width="0.5"/><g transform="translate(0 10.95)" class="Text.cls"><rect x="0" y="0" width="21" height="9.457078313253012" fill="none" stroke="none"/><text fill="none" fill-opacity="1" font-size="7px" stroke="none"><tspan x="10.5" y="7.038538990020752">W</tspan></text></g></g><g id="l1bvn8ua8v1" transform="translate(0 2.489)"><path d="M 1e-13 1e-13 L 5 0" fill="none" stroke="#646464" stroke-opacity="1" stroke-width="1"/></g><g id="l1bvn8ua8v2" transform="translate(21 38.513)"><path d="M 1e-13 1e-13 L 5 0" fill="none" stroke="#646464" stroke-opacity="1" stroke-width="1"/></g><g id="l1bvn8ua8v3" transform="translate(2.5 0)"><path d="M 0 2.3642695783131535 L 1e-13 1e-13" fill="none" stroke="#646464" stroke-width="1"/></g><g id="l1bvn8ua8v4" transform="translate(23.5 38.824)"><path d="M 0 2.488704819277009 L 1e-13 1e-13" fill="none" stroke="#646464" stroke-width="1"/></g><g id="l1bvn8ua8v5" transform="translate(12 10.141)"><path d="M 5 0 L 5 0.6997242469879518 L 2.9218 0.6997242469879518 L 2.9218 6.447338253012049 L 2.0737 6.447338253012049 L 2.0737 0.6997242469879518 L 0 0.6997242469879518 L 0 0 L 5 0 Z" fill="#004c99" stroke="none" stroke-width="0.5"/></g><g id="l1bvn8ua8v6" transform="translate(6.142 44.102)"><path d="M 2.3511 3.8936 L 0.8438 3.8936 L 0.8438 6.3984 L 0 6.3984 L 0 0 L 2.3599 0 Q 3.4102 0 4.0056 0.5361 Q 4.6011 1.0723 4.6011 1.9556 Q 4.6011 2.8872 4.0188 3.3904 Q 3.4365 3.8936 2.3511 3.8936 Z M 0.8438 0.6943 L 0.8438 3.2036 L 2.3599 3.2036 Q 3.0366 3.2036 3.397 2.885 Q 3.7573 2.5664 3.7573 1.9644 Q 3.7573 1.3931 3.397 1.0503 Q 3.0366 0.7075 2.4082 0.6943 L 0.8438 0.6943 Z" fill="#004c99" fill-opacity="1" stroke="none" stroke-width="0.5"/></g><g id="l1bvn8ua8v7" transform="translate(11.881 44.102)"><path d="M 0.8438 0 L 0.8438 6.3984 L 0 6.3984 L 0 0 L 0.8438 0 Z" fill="#004c99" fill-opacity="1" stroke="none" stroke-width="0.5"/></g><g id="l1bvn8ua8v8" transform="translate(14.267 44.102)"><path d="M 2.3511 3.8936 L 0.8438 3.8936 L 0.8438 6.3984 L 0 6.3984 L 0 0 L 2.3599 0 Q 3.4102 0 4.0056 0.5361 Q 4.6011 1.0723 4.6011 1.9556 Q 4.6011 2.8872 4.0188 3.3904 Q 3.4365 3.8936 2.3511 3.8936 Z M 0.8438 0.6943 L 0.8438 3.2036 L 2.3599 3.2036 Q 3.0366 3.2036 3.397 2.885 Q 3.7573 2.5664 3.7573 1.9644 Q 3.7573 1.3931 3.397 1.0503 Q 3.0366 0.7075 2.4082 0.6943 L 0.8438 0.6943 Z" fill="#004c99" fill-opacity="1" stroke="none" stroke-width="0.5"/></g><g id="l1bvn8ua8v9" transform="translate(19.945 44.102)"><path d="M 3.6167 2.751 L 3.6167 3.4409 L 0.8438 3.4409 L 0.8438 5.7085 L 4.0649 5.7085 L 4.0649 6.3984 L 0 6.3984 L 0 0 L 4.021 0 L 4.021 0.6943 L 0.8438 0.6943 L 0.8438 2.751 L 3.6167 2.751 Z" fill="#004c99" fill-opacity="1" stroke="none" stroke-width="0.5"/></g></g></g></svg>