<?xml version="1.0" encoding="UTF-8"?>
<svg xmlns="http://www.w3.org/2000/svg" viewBox="0 0 64 64"><g id="ks8ptxs31jk" class="Group.cls" transform="translate(8 25)"><g class="Prim.cls"><g id="ks8ptxs41jl" transform="translate(0.25 7.5)"><path d="M 1e-13 1e-13 L 48.5 0" fill="none" stroke-linecap="butt" stroke="#000000" stroke-width="0.5"/></g><g id="ks8ptxs41jm" transform="translate(9.5 0)"><path fill="white" d="M 30 15 L 30 0 Q 15 7.5 0 0 L 0 15 Q 15 7.5 30 15 Z" stroke="#000000" stroke-width="0.5"/></g><g id="ks8ptxs41jn" transform="translate(0 7.5) rotate(270 2.5 0)"><path d="M 1e-13 1e-13 L 5 0" fill="none" stroke="#ff0000"/></g><g id="ks8ptxs41jo" transform="translate(1.25 6.25) rotate(270 0 1.25)"><path d="M 1e-13 1e-13 L 0 2.5" fill="none" stroke="#ff0000"/></g><g id="ks8ptxs41jp" transform="translate(44 7.5) rotate(90 2.5 0)"><path d="M 5 0 L 1e-13 1e-13" fill="none" stroke="#ff0000"/></g><g id="ks8ptxs41jq" transform="translate(47.75 6.25) rotate(90 0 1.25)"><path d="M 1e-13 1e-13 L 0 2.5" fill="none" stroke="#ff0000"/></g></g></g></svg>