<?xml version="1.0" encoding="UTF-8"?>
<svg xmlns="http://www.w3.org/2000/svg" viewBox="0 0 64 64"><g id="ks8ptt7f1bm" class="Group.cls" transform="translate(8 19.75)"><g class="Prim.cls"><g id="ks8ptt7g1bn" transform="translate(0 12.75)"><path d="M 1e-13 1e-13 L 49 0" fill="none" stroke-linecap="butt" stroke="#000000" stroke-width="0.5"/></g><g id="ks8ptt7g1bo" transform="translate(14.5 2.75)"><rect fill="white" height="20" stroke="#000000" stroke-width="0.5" width="20" x="0" y="0"/></g><g id="ks8ptt7g1bp" transform="translate(22.5 3.25)"><path d="M 4 14.5 L 0 4.5 C 0 -1.5 4 -1.5 4 4.5 L 0 14.5 C 0 20.5 4 20.5 4 14.5 Z" fill="none" stroke-linecap="butt" stroke="#000000" stroke-width="0.5"/></g><g id="ks8ptt7g1bq" transform="translate(0 12.75) rotate(270 2.5 0)"><path d="M 1e-13 1e-13 L 5 0" fill="none" stroke="#ff0000"/></g><g id="ks8ptt7g1br" transform="translate(1.25 11.5) rotate(270 0 1.25)"><path d="M 1e-13 1e-13 L 0 2.5" fill="none" stroke="#ff0000"/></g><g id="ks8ptt7g1bs" transform="translate(44 12.75) rotate(90 2.5 0)"><path d="M 5 0 L 1e-13 1e-13" fill="none" stroke="#ff0000"/></g><g id="ks8ptt7g1bt" transform="translate(47.75 11.5) rotate(90 0 1.25)"><path d="M 1e-13 1e-13 L 0 2.5" fill="none" stroke="#ff0000"/></g><g id="ks8ptt7g1bu" transform="translate(22 2.5)"><path d="M 1e-13 1e-13 L 5 0" fill="none" stroke="#ff0000"/></g><g id="ks8ptt7h1bv" transform="translate(24.5 0)"><path d="M 1e-13 1e-13 L 0 2.5" fill="none" stroke="#ff0000"/></g><g id="ks8ptt7h1bw" transform="translate(22 22.75) rotate(180 2.5 0)"><path d="M 1e-13 1e-13 L 5 0" fill="none" stroke="#ff0000"/></g><g id="ks8ptt7h1bx" transform="translate(24.5 22.75) rotate(180 0 1.25)"><path d="M 1e-13 1e-13 L 0 2.5" fill="none" stroke="#ff0000"/></g></g></g></svg>