<?xml version="1.0" encoding="UTF-8"?>
<svg xmlns:xlink="http://www.w3.org/1999/xlink" xmlns="http://www.w3.org/2000/svg" viewBox="0 0 64 64"><g id="ks8puhuc29j" class="Group.cls" transform="translate(18 18)"><g class="Prim.cls"><g id="ks8puhuc29k" transform="translate(2.5 2.5)"><rect fill="white" height="23.999999999999996" stroke="#000000" stroke-width="0.6" width="23.999999999999996" x="0" y="0"/><g class="ConnPts.cls"><use id="kkz3l2wk2b4" x="12" y="0" xlink:href="#connection.sym"/><use id="kkz3l2wk2b5" x="0" y="12" xlink:href="#connection.sym"/><use id="kkz3l2wk2b6" x="12" y="24" xlink:href="#connection.sym"/><use id="kkz3l2wk2b7" x="24" y="12" xlink:href="#connection.sym"/></g></g><g id="ks8puhuc29l" transform="translate(14.5 14.5)"><rect fill="none" height="9" stroke="none" stroke-width="0.6" width="9" x="0" y="0"/><g transform="translate(0 0)" class="Text.cls"><rect x="0" y="0" width="9" height="9" fill="none" stroke="none"/><text font-size="9.6px" fill="#000000" fill-opacity="1"><tspan x="4.5" y="7.668000000000001">Y</tspan></text></g></g><g id="ks8puhuc29m" transform="translate(8.8 8.5)"><path d="M 11.699999999999996 0 L 0 11.699999999999996" fill="none" stroke="#000000" stroke-width="0.6"/></g><g id="ks8puhuc29n" transform="translate(5.5 5.5)"><rect fill="none" height="9" stroke="none" stroke-width="0.6" width="9" x="0" y="0"/><g transform="translate(0 0)" class="Text.cls"><rect x="0" y="0" width="9" height="9" fill="none" stroke="none"/><text font-size="9.6px" fill="#000000" fill-opacity="1"><tspan x="4.5" y="7.668000000000001">X</tspan></text></g></g><g id="ks8puhuc29o" transform="translate(0 14.5) rotate(270 2.5 0)"><path d="M 1e-13 1e-13 L 5 0" fill="none" stroke="#ff0000"/></g><g id="ks8puhuc29p" transform="translate(1.25 13.25) rotate(270 0 1.25)"><path d="M 1e-13 1e-13 L 0 2.5" fill="none" stroke="#ff0000"/></g><g id="ks8puhuc29q" transform="translate(24 14.5) rotate(90 2.5 0)"><path d="M 5 0 L 1e-13 1e-13" fill="none" stroke="#ff0000"/></g><g id="ks8puhuc29r" transform="translate(27.75 13.25) rotate(90 0 1.25)"><path d="M 1e-13 1e-13 L 0 2.5" fill="none" stroke="#ff0000"/></g><g id="ks8puhuc29s" transform="translate(12 26.5) rotate(180 2.5 0)"><path d="M 1e-13 1e-13 L 5 0" fill="none" stroke="#ff0000"/></g><g id="ks8puhuc29t" transform="translate(14.5 26.5) rotate(180 0 1.25)"><path d="M 1e-13 1e-13 L 0 2.5" fill="none" stroke="#ff0000"/></g><g id="ks8puhuc29u" transform="translate(12 2.5)"><path d="M 5 0 L 1e-13 1e-13" fill="none" stroke="#ff0000"/></g><g id="ks8puhuc29v" transform="translate(14.5 0)"><path d="M 1e-13 1e-13 L 0 2.5" fill="none" stroke="#ff0000"/></g></g></g></svg>