<?xml version="1.0" encoding="UTF-8"?>
<svg xmlns:xlink="http://www.w3.org/1999/xlink" xmlns="http://www.w3.org/2000/svg" viewBox="0 0 64 64"><g id="ks8puin92b8" class="Group.cls" transform="translate(18 18)"><g class="Prim.cls"><g id="ks8puinb2b9" transform="translate(2.5 2.5)"><rect fill="#ffffff" fill-opacity="1" height="23.999999999999996" stroke="#000000" stroke-width="0.6" width="23.999999999999996" x="0" y="0"/><g class="ConnPts.cls"><use id="kkz3mk8j2wf" x="12" y="0" xlink:href="#connection.sym"/><use id="kkz3mk8j2wg" x="0" y="12" xlink:href="#connection.sym"/><use id="kkz3mk8j2wh" x="12" y="24" xlink:href="#connection.sym"/><use id="kkz3mk8j2wi" x="24" y="12" xlink:href="#connection.sym"/></g></g><g id="ks8puinb2ba" transform="translate(8.5 8.5)"><path d="M 1e-13 1e-13 L 12 6 L 0 12" fill="#ffffff" fill-opacity="1" stroke="#000000" stroke-width="0.6"/></g><g id="ks8puinb2bb" transform="translate(0 14.5) rotate(270 2.5 0)"><path d="M 1e-13 1e-13 L 5 0" fill="none" stroke="#ff0000"/></g><g id="ks8puinb2bc" transform="translate(1.25 13.25) rotate(270 0 1.25)"><path d="M 1e-13 1e-13 L 0 2.5" fill="none" stroke="#ff0000"/></g><g id="ks8puinb2bd" transform="translate(24 14.5) rotate(90 2.5 0)"><path d="M 5 0 L 1e-13 1e-13" fill="none" stroke="#ff0000"/></g><g id="ks8puinb2be" transform="translate(27.75 13.25) rotate(90 0 1.25)"><path d="M 1e-13 1e-13 L 0 2.5" fill="none" stroke="#ff0000"/></g><g id="ks8puinb2bf" transform="translate(12 26.5) rotate(180 2.5 0)"><path d="M 1e-13 1e-13 L 5 0" fill="none" stroke="#ff0000"/></g><g id="ks8puinb2bg" transform="translate(14.5 26.5) rotate(180 0 1.25)"><path d="M 1e-13 1e-13 L 0 2.5" fill="none" stroke="#ff0000"/></g><g id="ks8puinb2bh" transform="translate(12 2.5)"><path d="M 5 0 L 1e-13 1e-13" fill="none" stroke="#ff0000"/></g><g id="ks8puinb2bi" transform="translate(14.5 0)"><path d="M 1e-13 1e-13 L 0 2.5" fill="none" stroke="#ff0000"/></g></g></g></svg>