<?xml version="1.0" encoding="UTF-8"?>
<svg xmlns:xlink="http://www.w3.org/1999/xlink" xmlns="http://www.w3.org/2000/svg" viewBox="0 0 64 64"><g id="ks8puky82ek" class="Group.cls" transform="translate(18 18)"><g class="Prim.cls"><g id="ks8pukya2el" transform="translate(2.5 2.5)"><rect fill="white" fill-opacity="1" height="24.000000000000007" stroke="#000000" stroke-width="0.6" width="24.000000000000007" x="0" y="0"/><g class="ConnPts.cls"><use id="kkz3q1tr41x" x="12" y="0" xlink:href="#connection.sym"/><use id="kkz3q1tr41y" x="0" y="12" xlink:href="#connection.sym"/><use id="kkz3q1tr41z" x="12" y="24" xlink:href="#connection.sym"/><use id="kkz3q1tr420" x="24" y="12" xlink:href="#connection.sym"/></g></g><g id="ks8pukya2em" transform="translate(10 8.5)"><path d="M 1e-13 1e-13 L 12 6 L 0 12" fill="none" fill-opacity="1" stroke="#000000" stroke-width="0.6"/></g><g id="ks8pukya2en" transform="translate(14.5 2.5)"><path d="M 1e-13 1e-13 L 0 24" fill="none" stroke="#000000" stroke-width="0.6"/></g><g id="ks8pukya2eo" transform="translate(0 14.5) rotate(270 2.5 0)"><path d="M 1e-13 1e-13 L 5 0" fill="none" stroke="#ff0000"/></g><g id="ks8pukya2ep" transform="translate(1.25 13.25) rotate(270 0 1.25)"><path d="M 1e-13 1e-13 L 0 2.5" fill="none" stroke="#ff0000"/></g><g id="ks8pukya2eq" transform="translate(24 14.5) rotate(90 2.5 0)"><path d="M 5 0 L 1e-13 1e-13" fill="none" stroke="#ff0000"/></g><g id="ks8pukya2er" transform="translate(27.75 13.25) rotate(90 0 1.25)"><path d="M 1e-13 1e-13 L 0 2.5" fill="none" stroke="#ff0000"/></g><g id="ks8pukya2es" transform="translate(12 26.5) rotate(180 2.5 0)"><path d="M 1e-13 1e-13 L 5 0" fill="none" stroke="#ff0000"/></g><g id="ks8pukya2et" transform="translate(14.5 26.5) rotate(180 0 1.25)"><path d="M 1e-13 1e-13 L 0 2.5" fill="none" stroke="#ff0000"/></g><g id="ks8pukya2eu" transform="translate(12 2.5)"><path d="M 5 0 L 1e-13 1e-13" fill="none" stroke="#ff0000"/></g><g id="ks8pukya2ev" transform="translate(14.5 0)"><path d="M 1e-13 1e-13 L 0 2.5" fill="none" stroke="#ff0000"/></g></g></g></svg>