<?xml version="1.0" encoding="UTF-8"?>
<svg xmlns:xlink="http://www.w3.org/1999/xlink" xmlns="http://www.w3.org/2000/svg" viewBox="0 0 64 64"><g id="ks8pun982jt" class="Group.cls" transform="translate(18 18)"><g class="Prim.cls"><g id="ks8pun9c2ju" transform="translate(2.5 2.5)"><rect fill="white" fill-opacity="1" height="23.999999999999996" stroke="#000000" stroke-width="0.6" width="23.999999999999996" x="0" y="0"/><g class="ConnPts.cls"><use id="kkz3usjo5lj" x="12" y="0" xlink:href="#connection.sym"/><use id="kkz3usjp5lk" x="0" y="12" xlink:href="#connection.sym"/><use id="kkz3usjp5ll" x="12" y="24" xlink:href="#connection.sym"/><use id="kkz3usjp5lm" x="24" y="12" xlink:href="#connection.sym"/></g></g><g id="ks8pun9c2jv" transform="translate(3.7 8.5)"><rect fill="none" height="10.800002727102726" stroke="none" stroke-width="0.6" width="22.800002727102726" x="0" y="0"/><g transform="translate(0 0)" class="Text.cls"><rect x="0" y="0" width="22.800002727102726" height="10.800002727102726" fill="none" stroke="none"/><text font-size="10.8px" fill="#000000" fill-opacity="1"><tspan x="11.400001525878906" y="8.964001525878906">f(x)</tspan></text></g></g><g id="ks8pun9c2jw" transform="translate(0 14.5) rotate(270 2.5 0)"><path d="M 1e-13 1e-13 L 5 0" fill="none" stroke="#ff0000"/></g><g id="ks8pun9d2jx" transform="translate(1.25 13.25) rotate(270 0 1.25)"><path d="M 1e-13 1e-13 L 0 2.5" fill="none" stroke="#ff0000"/></g><g id="ks8pun9d2jy" transform="translate(24 14.5) rotate(90 2.5 0)"><path d="M 5 0 L 1e-13 1e-13" fill="none" stroke="#ff0000"/></g><g id="ks8pun9d2jz" transform="translate(27.75 13.25) rotate(90 0 1.25)"><path d="M 1e-13 1e-13 L 0 2.5" fill="none" stroke="#ff0000"/></g><g id="ks8pun9d2k0" transform="translate(12 26.5) rotate(180 2.5 0)"><path d="M 1e-13 1e-13 L 5 0" fill="none" stroke="#ff0000"/></g><g id="ks8pun9d2k1" transform="translate(14.5 26.5) rotate(180 0 1.25)"><path d="M 1e-13 1e-13 L 0 2.5" fill="none" stroke="#ff0000"/></g><g id="ks8pun9d2k2" transform="translate(12 2.5)"><path d="M 5 0 L 1e-13 1e-13" fill="none" stroke="#ff0000"/></g><g id="ks8pun9d2k3" transform="translate(14.5 0)"><path d="M 1e-13 1e-13 L 0 2.5" fill="none" stroke="#ff0000"/></g></g></g></svg>