<?xml version="1.0" encoding="UTF-8"?>
<svg xmlns="http://www.w3.org/2000/svg" viewBox="0 0 64 64"><g id="ks8pu69t1rv" class="Group.cls" transform="translate(8 15)"><g class="Prim.cls"><g id="ks8pu69t1rw" transform="translate(0 17.5)"><path d="M 48.9999999999999 0 L 0 1.000310945187266e-13" fill="none" stroke-linecap="butt" stroke="#000000" stroke-width="0.5"/></g><g id="ks8pu69t1rx" transform="translate(29.333 6.5)"><path fill="none" d="M 1e-13 1e-13 L 15.1667 11 L 0 22" stroke="#000000" stroke-width="0.5"/></g><g id="ks8pu69t1ry" transform="translate(4.5 2.5)"><ellipse fill="white" cx="15" cy="15" rx="15" ry="15" stroke="#000000" stroke-width="0.5"/></g><g id="ks8pu69t1rz" transform="translate(0 17.5) rotate(270 2.5 0)"><path d="M 1e-13 1e-13 L 5 0" fill="none" stroke="#ff0000"/></g><g id="ks8pu69t1s0" transform="translate(1.25 16.25) rotate(270 0 1.25)"><path d="M 1e-13 1e-13 L 0 2.5" fill="none" stroke="#ff0000"/></g><g id="ks8pu69t1s1" transform="translate(44 17.5) rotate(90 2.5 0)"><path d="M 5 0 L 1e-13 1e-13" fill="none" stroke="#ff0000"/></g><g id="ks8pu69t1s2" transform="translate(47.75 16.25) rotate(90 0 1.25)"><path d="M 1e-13 1e-13 L 0 2.5" fill="none" stroke="#ff0000"/></g><g id="ks8pu69t1s3" transform="translate(17 2.5)"><path d="M 1e-13 1e-13 L 5 0" fill="none" stroke="#ff0000"/></g><g id="ks8pu69t1s4" transform="translate(19.5 0)"><path d="M 1e-13 1e-13 L 0 2.5" fill="none" stroke="#ff0000"/></g><g id="ks8pu69t1s5" transform="translate(17 32.5) rotate(180 2.5 0)"><path d="M 1e-13 1e-13 L 5 0" fill="none" stroke="#ff0000"/></g><g id="ks8pu69t1s6" transform="translate(19.5 32.5) rotate(180 0 1.25)"><path d="M 1e-13 1e-13 L 0 2.5" fill="none" stroke="#ff0000"/></g></g></g></svg>