<?xml version="1.0" encoding="UTF-8"?>
<svg xmlns="http://www.w3.org/2000/svg" viewBox="0 0 64 64"><g id="ks8ptpyx15s" class="Group.cls" transform="translate(10 10)"><g class="Prim.cls"><g id="ks8ptpyy15t" transform="translate(2.5 2.5)"><rect fill="white" height="40" stroke="#000000" stroke-width="0.5" width="40" x="0" y="0"/></g><g id="ks8ptpyy15u" transform="translate(8.203 8.203) rotate(45 14.297 14.297)"><rect fill="none" height="28.5932" stroke="#000000" stroke-width="0.5" width="28.5932" x="0" y="0"/></g><g id="ks8ptpyy15v" transform="translate(6.7 18.5)"><path fill="none" d="M 1e-13 1e-13 L 31.8001 0" stroke-dasharray="5 2.5" stroke="#000000" stroke-width="0.5"/></g><g id="ks8ptpyy15w" transform="translate(6.5 26.5)"><path fill="none" d="M 1e-13 1e-13 L 32 0" stroke-dasharray="5 2.5" stroke="#000000" stroke-width="0.5"/></g><g id="ks8ptpyy15x" transform="translate(20 2.5)"><path d="M 1e-13 1e-13 L 5 0" fill="none" stroke="#ff0000" stroke-width="1"/></g><g id="ks8ptpyy15y" transform="translate(22.5 0)"><path d="M 1e-13 1e-13 L 0 2.5" fill="none" stroke="#ff0000" stroke-width="1"/></g><g id="ks8ptpyy15z" transform="translate(20 42.5) rotate(180 2.5 0)"><path d="M 5 0 L 1e-13 1e-13" fill="none" stroke="#ff0000" stroke-width="1"/></g><g id="ks8ptpyy160" transform="translate(22.5 42.5) rotate(180 0 1.25)"><path d="M 1e-13 1e-13 L 0 2.5" fill="none" stroke="#ff0000" stroke-width="1"/></g><g id="ks8ptpyy161" transform="translate(0 22.5) rotate(270 2.5 0)"><path d="M 1e-13 1e-13 L 5 0" fill="none" stroke="#ff0000" stroke-width="1"/></g><g id="ks8ptpyy162" transform="translate(1.25 21.25) rotate(270 0 1.25)"><path d="M 1e-13 1e-13 L 0 2.5" fill="none" stroke="#ff0000" stroke-width="1"/></g><g id="ks8ptpyy163" transform="translate(40 22.5) rotate(90 2.5 0)"><path d="M 5 0 L 1e-13 1e-13" fill="none" stroke="#ff0000" stroke-width="1"/></g><g id="ks8ptpyy164" transform="translate(43.75 21.25) rotate(90 0 1.25)"><path d="M 1e-13 1e-13 L 0 2.5" fill="none" stroke="#ff0000" stroke-width="1"/></g></g></g></svg>