<?xml version="1.0" encoding="UTF-8"?>
<svg xmlns:xlink="http://www.w3.org/1999/xlink" xmlns="http://www.w3.org/2000/svg" viewBox="0 0 64 64"><g id="ks8ptickqp" class="Group.cls" transform="translate(10 10)"><g class="Prim.cls"><g id="ks8pticlqq" transform="translate(2.5 2.5)"><rect fill="white" height="40" stroke="#000000" stroke-width="0.5" width="40" x="0" y="0"/></g><g id="ks8pticlqr" transform="translate(2.5 22.5)"><path d="M 1e-13 1e-13 L 40 0" fill="none" stroke="#000000" stroke-width="0.5"/></g><g id="ks8pticlqs" transform="translate(2.5 2.5)"><ellipse cx="20" cy="20" fill="none" rx="20" ry="20" stroke="#000000" stroke-width="0.5"/><g class="ConnPts.cls"><use id="khaewsjs2ce" x="0" y="20" xlink:href="#connection.sym"/><use id="khaewsjs2cf" x="20" y="40" xlink:href="#connection.sym"/><use id="khaewsjs2cg" x="40" y="20" xlink:href="#connection.sym"/><use id="khaewsjs2ch" x="20" y="0" xlink:href="#connection.sym"/></g></g><g id="ks8pticlqt" transform="translate(22.5 0)"><path d="M 1e-13 1e-13 L 0 2.5" fill="none" stroke="#ff0000" stroke-width="1"/></g><g id="ks8pticlqu" transform="translate(20 2.5)"><path d="M 1e-13 1e-13 L 5 0" fill="none" stroke="#ff0000" stroke-width="1"/></g><g id="ks8pticlqv" transform="translate(43.75 21.25) rotate(90 0 1.25)"><path d="M 1e-13 1e-13 L 0 2.5" fill="none" stroke="#ff0000" stroke-width="1"/></g><g id="ks8pticlqw" transform="translate(40 22.5) rotate(90 2.5 0)"><path d="M 5 0 L 1e-13 1e-13" fill="none" stroke="#ff0000" stroke-width="1"/></g><g id="ks8pticlqx" transform="translate(22.5 42.5) rotate(180 0 1.25)"><path d="M 1e-13 1e-13 L 0 2.5" fill="none" stroke="#ff0000" stroke-width="1"/></g><g id="ks8pticlqy" transform="translate(20 42.5) rotate(180 2.5 0)"><path d="M 5 0 L 1e-13 1e-13" fill="none" stroke="#ff0000" stroke-width="1"/></g><g id="ks8pticlqz" transform="translate(1.25 21.25) rotate(270 0 1.25)"><path d="M 1e-13 1e-13 L 0 2.5" fill="none" stroke="#ff0000" stroke-width="1"/></g><g id="ks8pticlr0" transform="translate(0 22.5) rotate(270 2.5 0)"><path d="M 1e-13 1e-13 L 5 0" fill="none" stroke="#ff0000" stroke-width="1"/></g></g></g></svg>