<?xml version="1.0" encoding="UTF-8"?>
<svg xmlns:xlink="http://www.w3.org/1999/xlink" xmlns="http://www.w3.org/2000/svg" viewBox="0 0 64 64"><g id="ks8pugao27r" class="Group.cls" transform="translate(18 18)"><g class="Prim.cls"><g id="ks8pugao27s" transform="translate(2.5 2.5)"><rect fill="white" height="24" stroke="#000000" stroke-width="0.6" width="24" x="0" y="0"/><g class="ConnPts.cls"><use id="kkz3jeqj1qc" x="12" y="0" xlink:href="#connection.sym"/><use id="kkz3jeqk1qd" x="0" y="12" xlink:href="#connection.sym"/><use id="kkz3jeqk1qe" x="12" y="24" xlink:href="#connection.sym"/><use id="kkz3jeqk1qf" x="24" y="12" xlink:href="#connection.sym"/></g></g><g id="ks8pugao27t" transform="translate(11.8 1.3)"><rect fill="none" height="9.599998474121094" stroke="none" stroke-width="0.6" width="16.800003051757812" x="0" y="0"/><g transform="translate(0 0)" class="Text.cls"><rect x="0" y="0" width="16.800003051757812" height="9.599998474121094" fill="none" stroke="none"/><text font-size="7.5129px" fill="#000000" fill-opacity="1" font-weight="bold"><tspan x="8.400001525878906" y="9.5129">n</tspan></text></g></g><g id="ks8pugao27u" transform="translate(4.9 12.4)"><rect fill="none" height="13.199996948242188" stroke="none" stroke-width="0.6" width="16.199996948242188" x="0" y="0"/><g transform="translate(0 0)" class="Text.cls"><rect x="0" y="0" width="16.199996948242188" height="13.199996948242188" fill="none" stroke="none"/><text fill="#000000" fill-opacity="1" font-size="19.2px"><tspan x="8.099998474121094" y="7.935996948242191">x</tspan></text></g></g><g id="ks8pugao27v" transform="translate(0 14.5) rotate(270 2.5 0)"><path d="M 1e-13 1e-13 L 5 0" fill="none" stroke="#ff0000"/></g><g id="ks8pugao27w" transform="translate(1.25 13.25) rotate(270 0 1.25)"><path d="M 1e-13 1e-13 L 0 2.5" fill="none" stroke="#ff0000"/></g><g id="ks8pugao27x" transform="translate(24 14.5) rotate(90 2.5 0)"><path d="M 5 0 L 1e-13 1e-13" fill="none" stroke="#ff0000"/></g><g id="ks8pugao27y" transform="translate(27.75 13.25) rotate(90 0 1.25)"><path d="M 1e-13 1e-13 L 0 2.5" fill="none" stroke="#ff0000"/></g><g id="ks8pugao27z" transform="translate(12 26.5) rotate(180 2.5 0)"><path d="M 1e-13 1e-13 L 5 0" fill="none" stroke="#ff0000"/></g><g id="ks8pugao280" transform="translate(14.5 26.5) rotate(180 0 1.25)"><path d="M 1e-13 1e-13 L 0 2.5" fill="none" stroke="#ff0000"/></g><g id="ks8pugao281" transform="translate(12 2.5)"><path d="M 5 0 L 1e-13 1e-13" fill="none" stroke="#ff0000"/></g><g id="ks8pugao282" transform="translate(14.5 0)"><path d="M 1e-13 1e-13 L 0 2.5" fill="none" stroke="#ff0000"/></g></g></g></svg>