<?xml version="1.0" encoding="UTF-8"?>
<svg xmlns="http://www.w3.org/2000/svg" viewBox="0 0 64 64"><g id="ks8ptm7fy4" class="Group.cls" transform="translate(10 10)"><g class="Prim.cls"><g id="ks8ptm7gy5" transform="translate(2.5 2.5)"><ellipse fill="white" cx="20" cy="20" rx="20" ry="20" stroke="#000000" stroke-width="0.5"/></g><g id="ks8ptm7gy6" transform="translate(3.1 18.5)"><path fill="none" d="M 1e-13 1e-13 L 39.000080000000004 0" stroke="#000000" stroke-width="0.5"/></g><g id="ks8ptm7gy7" transform="translate(2.9 26.5)"><path fill="none" d="M 1e-13 1e-13 L 39.2 0" stroke="#000000" stroke-width="0.5"/></g><g id="ks8ptm7gy8" transform="translate(20 2.5)"><path d="M 1e-13 1e-13 L 5 0" fill="none" stroke="#ff0000" stroke-width="1"/></g><g id="ks8ptm7gy9" transform="translate(22.5 0)"><path d="M 1e-13 1e-13 L 0 2.5" fill="none" stroke="#ff0000" stroke-width="1"/></g><g id="ks8ptm7gya" transform="translate(20 42.5) rotate(180 2.5 0)"><path d="M 5 0 L 1e-13 1e-13" fill="none" stroke="#ff0000" stroke-width="1"/></g><g id="ks8ptm7gyb" transform="translate(22.5 42.5) rotate(180 0 1.25)"><path d="M 1e-13 1e-13 L 0 2.5" fill="none" stroke="#ff0000" stroke-width="1"/></g><g id="ks8ptm7gyc" transform="translate(0 22.5) rotate(270 2.5 0)"><path d="M 1e-13 1e-13 L 5 0" fill="none" stroke="#ff0000" stroke-width="1"/></g><g id="ks8ptm7gyd" transform="translate(1.25 21.25) rotate(270 0 1.25)"><path d="M 1e-13 1e-13 L 0 2.5" fill="none" stroke="#ff0000" stroke-width="1"/></g><g id="ks8ptm7gye" transform="translate(40 22.5) rotate(90 2.5 0)"><path d="M 5 0 L 1e-13 1e-13" fill="none" stroke="#ff0000" stroke-width="1"/></g><g id="ks8ptm7gyf" transform="translate(43.75 21.25) rotate(90 0 1.25)"><path d="M 1e-13 1e-13 L 0 2.5" fill="none" stroke="#ff0000" stroke-width="1"/></g></g></g></svg>