<?xml version="1.0" encoding="UTF-8"?>
<svg xmlns="http://www.w3.org/2000/svg" viewBox="0 0 64 64"><g id="ks8pucgb1zr" class="Group.cls" transform="translate(18 18)"><g class="Prim.cls"><g id="ks8pucgc1zs" transform="translate(2.5 2.5)"><rect fill="#ffffff" fill-opacity="1" height="24.00000047160423" stroke="#000000" stroke-width="0.6002" width="24" x="0" y="0"/></g><g id="ks8pucgc1zt" transform="translate(8.5 8.5)"><path d="M 4.8 0.72 L 4.8 0 L 1.032258064516129e-13 1.0212765957446809e-13 L 2.4 2.4 L 0 4.8 L 4.8 4.8 L 4.8 4.199999999999999" fill="#ffffff" fill-opacity="1" stroke="#000000" stroke-width="0.6002"/></g><g id="ks8pucgc1zu" transform="translate(8.5 8.5)"><path d="M 12 0 L 0 12" fill="#ffffff" fill-opacity="1" stroke="#000000" stroke-width="0.6002"/></g><g id="ks8pucgc1zv" transform="translate(12.175 10.225)"><rect fill="none" height="13.200000164036254" stroke="none" stroke-width="0.6002" width="13.200000000000001" x="0" y="0"/><g transform="translate(0 0)" class="Text.cls"><rect x="0" y="0" width="13.19999710886102" height="13.199997303654072" fill="none" stroke="none"/><text font-size="11.8828px" fill="#000000" fill-opacity="1"><tspan x="6.599998474121094" y="10.521322474121094">n</tspan></text></g></g><g id="ks8pucgc1zw" transform="translate(0 14.5) rotate(270 2.5 0)"><path d="M 1e-13 1e-13 L 5 0" fill="none" stroke="#ff0000"/></g><g id="ks8pucgc1zx" transform="translate(1.25 13.25) rotate(270 0 1.25)"><path d="M 1e-13 1e-13 L 0 2.5" fill="none" stroke="#ff0000"/></g><g id="ks8pucgc1zy" transform="translate(24 14.5) rotate(90 2.5 0)"><path d="M 5 0 L 1e-13 1e-13" fill="none" stroke="#ff0000"/></g><g id="ks8pucgc1zz" transform="translate(27.75 13.25) rotate(90 0 1.25)"><path d="M 1e-13 1e-13 L 0 2.5" fill="none" stroke="#ff0000"/></g><g id="ks8pucgc200" transform="translate(12 26.5) rotate(180 2.5 0)"><path d="M 1e-13 1e-13 L 5 0" fill="none" stroke="#ff0000"/></g><g id="ks8pucgc201" transform="translate(14.5 26.5) rotate(180 0 1.25)"><path d="M 1e-13 1e-13 L 0 2.5" fill="none" stroke="#ff0000"/></g><g id="ks8pucgc202" transform="translate(12 2.5)"><path d="M 5 0 L 1e-13 1e-13" fill="none" stroke="#ff0000"/></g><g id="ks8pucgc203" transform="translate(14.5 0)"><path d="M 1e-13 1e-13 L 0 2.5" fill="none" stroke="#ff0000"/></g></g></g></svg>