<?xml version="1.0" encoding="UTF-8"?>
<svg xmlns:xlink="http://www.w3.org/1999/xlink" xmlns="http://www.w3.org/2000/svg" viewBox="0 0 64 64"><g id="ks8puk5w2cv" class="Group.cls" transform="translate(18 18)"><g class="Prim.cls"><g id="ks8puk5y2cw" transform="translate(2.5 2.5)"><rect fill="#ffffff" fill-opacity="1" height="23.999999999999996" stroke="#000000" stroke-width="0.6" width="23.999999999999996" x="0" y="0"/><g class="ConnPts.cls"><use id="kkz3o65l3ex" x="11.999999999999998" y="0" xlink:href="#connection.sym"/><use id="kkz3o65l3ey" x="0" y="11.999999999999998" xlink:href="#connection.sym"/><use id="kkz3o65l3ez" x="11.999999999999998" y="23.999999999999996" xlink:href="#connection.sym"/><use id="kkz3o65l3f0" x="23.999999999999996" y="11.999999999999998" xlink:href="#connection.sym"/></g></g><g id="ks8puk5y2cx" transform="translate(8.5 8.5)"><path d="M 11.999999999999998 0 L 0 5.999999999999999 L 11.999999999999998 11.999999999999998" fill="#ffffff" fill-opacity="1" stroke="#000000" stroke-width="0.6"/></g><g id="ks8puk5y2cy" transform="translate(0 14.5) rotate(270 2.5 0)"><path d="M 1e-13 1e-13 L 5 0" fill="none" stroke="#ff0000"/></g><g id="ks8puk5y2cz" transform="translate(1.25 13.25) rotate(270 0 1.25)"><path d="M 1e-13 1e-13 L 0 2.5" fill="none" stroke="#ff0000"/></g><g id="ks8puk5y2d0" transform="translate(24 14.5) rotate(90 2.5 0)"><path d="M 5 0 L 1e-13 1e-13" fill="none" stroke="#ff0000"/></g><g id="ks8puk5y2d1" transform="translate(27.75 13.25) rotate(90 0 1.25)"><path d="M 1e-13 1e-13 L 0 2.5" fill="none" stroke="#ff0000"/></g><g id="ks8puk5y2d2" transform="translate(12 26.5) rotate(180 2.5 0)"><path d="M 1e-13 1e-13 L 5 0" fill="none" stroke="#ff0000"/></g><g id="ks8puk5y2d3" transform="translate(14.5 26.5) rotate(180 0 1.25)"><path d="M 1e-13 1e-13 L 0 2.5" fill="none" stroke="#ff0000"/></g><g id="ks8puk5y2d4" transform="translate(12 2.5)"><path d="M 5 0 L 1e-13 1e-13" fill="none" stroke="#ff0000"/></g><g id="ks8puk5y2d5" transform="translate(14.5 0)"><path d="M 1e-13 1e-13 L 0 2.5" fill="none" stroke="#ff0000"/></g></g></g></svg>