<?xml version="1.0" encoding="UTF-8"?>
<svg xmlns:xlink="http://www.w3.org/1999/xlink" xmlns="http://www.w3.org/2000/svg" viewBox="0 0 64 64"><g id="ks8pthezp4" class="Group.cls" transform="translate(10 10)"><g class="Prim.cls"><g id="ks8pthezp5" transform="translate(2.5 2.5)"><ellipse fill="white" cx="20" cy="20" rx="20" ry="20" stroke="#000000" stroke-width="0.5"/><g class="ConnPts.cls"><use id="khaew3hw26m" x="0" y="20" xlink:href="#connection.sym"/><use id="khaew3hw26n" x="20" y="40" xlink:href="#connection.sym"/><use id="khaew3hw26o" x="40" y="20" xlink:href="#connection.sym"/><use id="khaew3hw26p" x="20" y="0" xlink:href="#connection.sym"/></g></g><g id="ks8pthezp6" transform="translate(2.5 22.5)"><path fill="none" d="M 1e-13 1e-13 L 40 0" stroke="#000000" stroke-width="0.5"/></g><g id="ks8pthezp7" transform="translate(20 2.5)"><path d="M 1e-13 1e-13 L 5 0" fill="none" stroke="#ff0000" stroke-width="1"/></g><g id="ks8pthezp8" transform="translate(22.5 0)"><path d="M 1e-13 1e-13 L 0 2.5" fill="none" stroke="#ff0000" stroke-width="1"/></g><g id="ks8pthezp9" transform="translate(20 42.5) rotate(180 2.5 0)"><path d="M 5 0 L 1e-13 1e-13" fill="none" stroke="#ff0000" stroke-width="1"/></g><g id="ks8pthf0pa" transform="translate(22.5 42.5) rotate(180 0 1.25)"><path d="M 1e-13 1e-13 L 0 2.5" fill="none" stroke="#ff0000" stroke-width="1"/></g><g id="ks8pthf0pb" transform="translate(0 22.5) rotate(270 2.5 0)"><path d="M 1e-13 1e-13 L 5 0" fill="none" stroke="#ff0000" stroke-width="1"/></g><g id="ks8pthf0pc" transform="translate(1.25 21.25) rotate(270 0 1.25)"><path d="M 1e-13 1e-13 L 0 2.5" fill="none" stroke="#ff0000" stroke-width="1"/></g><g id="ks8pthf0pd" transform="translate(40 22.5) rotate(90 2.5 0)"><path d="M 5 0 L 1e-13 1e-13" fill="none" stroke="#ff0000" stroke-width="1"/></g><g id="ks8pthf0pe" transform="translate(43.75 21.25) rotate(90 0 1.25)"><path d="M 1e-13 1e-13 L 0 2.5" fill="none" stroke="#ff0000" stroke-width="1"/></g></g></g></svg>