<?xml version="1.0" encoding="UTF-8"?>
<svg xmlns="http://www.w3.org/2000/svg" viewBox="0 0 64 64"><g id="ks8pu1ql1nm" class="Group.cls" transform="translate(8 22.5)"><g class="Prim.cls"><g id="ks8pu1qm1nn" transform="translate(0.5 10)"><path d="M 1e-13 1e-13 L 47 0" fill="none" stroke-linecap="butt" stroke="#000000" stroke-width="0.5"/></g><g id="ks8pu1qm1no" transform="translate(9.5 0)"><path fill="white" d="M 30 0 L 15 10 L 0 0 L 0 20 L 30 20 Z" stroke-linecap="butt" stroke="#000000" stroke-width="0.5"/></g><g id="ks8pu1qm1np" transform="translate(0 10) rotate(270 2.5 0)"><path d="M 1e-13 1e-13 L 5 0" fill="none" stroke="#ff0000"/></g><g id="ks8pu1qm1nq" transform="translate(1.25 8.75) rotate(270 0 1.25)"><path d="M 1e-13 1e-13 L 0 2.5" fill="none" stroke="#ff0000"/></g><g id="ks8pu1qm1nr" transform="translate(44 10) rotate(90 2.5 0)"><path d="M 5 0 L 1e-13 1e-13" fill="none" stroke="#ff0000"/></g><g id="ks8pu1qm1ns" transform="translate(47.75 8.75) rotate(90 0 1.25)"><path d="M 1e-13 1e-13 L 0 2.5" fill="none" stroke="#ff0000"/></g><g id="ks8pu1qm1nt" transform="translate(22 4)"><path d="M 1e-13 1e-13 L 5 0" fill="none" stroke="#ff0000"/></g><g id="ks8pu1qm1nu" transform="translate(24.5 1.5)"><path d="M 1e-13 1e-13 L 0 2.5" fill="none" stroke="#ff0000"/></g><g id="ks8pu1qn1nv" transform="translate(22 20) rotate(180 2.5 0)"><path d="M 1e-13 1e-13 L 5 0" fill="none" stroke="#ff0000"/></g><g id="ks8pu1qn1nw" transform="translate(24.5 20) rotate(180 0 1.25)"><path d="M 1e-13 1e-13 L 0 2.5" fill="none" stroke="#ff0000"/></g></g></g></svg>