<?xml version="1.0" encoding="UTF-8"?>
<svg xmlns="http://www.w3.org/2000/svg" viewBox="0 0 64 64"><g id="ks8pud7v21b" class="Group.cls" transform="translate(18 18)"><g class="Prim.cls"><g id="ks8pud7v21c" transform="translate(2.5 2.5)"><rect fill="white" height="23.999999999999996" stroke="#000000" stroke-width="0.6" width="23.999999999999996" x="0" y="0"/></g><g id="ks8pud7v21d" transform="translate(8.5 8.5)"><path d="M 5.999999999999999 0 L 0 11.999999999999998 L 11.999999999999998 11.999999999999998 Z" fill="none" stroke="#000000" stroke-width="0.6"/></g><g id="ks8pud7v21e" transform="translate(0 14.5) rotate(270 2.5 0)"><path d="M 1e-13 1e-13 L 5 0" fill="none" stroke="#ff0000"/></g><g id="ks8pud7v21f" transform="translate(1.25 13.25) rotate(270 0 1.25)"><path d="M 1e-13 1e-13 L 0 2.5" fill="none" stroke="#ff0000"/></g><g id="ks8pud7v21g" transform="translate(24 14.5) rotate(90 2.5 0)"><path d="M 5 0 L 1e-13 1e-13" fill="none" stroke="#ff0000"/></g><g id="ks8pud7v21h" transform="translate(27.75 13.25) rotate(90 0 1.25)"><path d="M 1e-13 1e-13 L 0 2.5" fill="none" stroke="#ff0000"/></g><g id="ks8pud7v21i" transform="translate(12 26.5) rotate(180 2.5 0)"><path d="M 1e-13 1e-13 L 5 0" fill="none" stroke="#ff0000"/></g><g id="ks8pud7v21j" transform="translate(14.5 26.5) rotate(180 0 1.25)"><path d="M 1e-13 1e-13 L 0 2.5" fill="none" stroke="#ff0000"/></g><g id="ks8pud7v21k" transform="translate(12 2.5)"><path d="M 5 0 L 1e-13 1e-13" fill="none" stroke="#ff0000"/></g><g id="ks8pud7w21l" transform="translate(14.5 0)"><path d="M 1e-13 1e-13 L 0 2.5" fill="none" stroke="#ff0000"/></g></g></g></svg>