<?xml version="1.0" encoding="UTF-8"?>
<svg xmlns="http://www.w3.org/2000/svg" viewBox="0 0 64 64"><g id="ks8ptx061im" class="Group.cls" transform="translate(8 22.5)"><g class="Prim.cls"><g id="ks8ptx071in" transform="translate(0 10)"><path d="M 1e-13 1e-13 L 49 0" fill="none" stroke-linecap="butt" stroke="#000000" stroke-width="0.5"/></g><g id="ks8ptx071io" transform="translate(14.5 0)"><path fill="white" d="M 20 15 L 20 5 Q 4 5 0 0 L 0 20 Q 4 15 20 15 Z" stroke="#000000" stroke-width="0.5"/></g><g id="ks8ptx071ip" transform="translate(0 10) rotate(270 2.5 0)"><path d="M 1e-13 1e-13 L 5 0" fill="none" stroke="#ff0000"/></g><g id="ks8ptx071iq" transform="translate(1.25 8.75) rotate(270 0 1.25)"><path d="M 1e-13 1e-13 L 0 2.5" fill="none" stroke="#ff0000"/></g><g id="ks8ptx071ir" transform="translate(44 10) rotate(90 2.5 0)"><path d="M 5 0 L 1e-13 1e-13" fill="none" stroke="#ff0000"/></g><g id="ks8ptx071is" transform="translate(47.75 8.75) rotate(90 0 1.25)"><path d="M 1e-13 1e-13 L 0 2.5" fill="none" stroke="#ff0000"/></g></g></g></svg>