<?xml version="1.0" encoding="UTF-8"?>
<svg xmlns="http://www.w3.org/2000/svg" viewBox="0 0 64 64"><g id="ks8pu4t11qg" class="Group.cls" transform="translate(8 15)"><g class="Prim.cls"><g id="ks8pu4t31qh" transform="translate(1 17.5)"><path d="M 47.4999999999999 0 L 0 1e-13" fill="none" stroke-linecap="butt" stroke="#000000" stroke-width="0.5"/></g><g id="ks8pu4t31qi" transform="translate(19.5 2.5)"><path fill="white" d="M 0 5 L 0 25 L 10 25 L 10 5 L 5 0 Z" stroke-linecap="butt" stroke="#000000" stroke-width="0.5"/></g><g id="ks8pu4t31qj" transform="translate(24.5 2.5)"><path d="M 0 25 L 1e-13 1e-13" fill="none" stroke-dasharray="1.5 2" stroke-linecap="butt" stroke="#000000" stroke-width="0.5"/></g><g id="ks8pu4t31qk" transform="translate(0 17.5) rotate(270 2.5 0)"><path d="M 1e-13 1e-13 L 5 0" fill="none" stroke="#ff0000"/></g><g id="ks8pu4t31ql" transform="translate(1.25 16.25) rotate(270 0 1.25)"><path d="M 1e-13 1e-13 L 0 2.5" fill="none" stroke="#ff0000"/></g><g id="ks8pu4t31qm" transform="translate(44 17.5) rotate(90 2.5 0)"><path d="M 5 0 L 1e-13 1e-13" fill="none" stroke="#ff0000"/></g><g id="ks8pu4t31qn" transform="translate(47.75 16.25) rotate(90 0 1.25)"><path d="M 1e-13 1e-13 L 0 2.5" fill="none" stroke="#ff0000"/></g><g id="ks8pu4t31qo" transform="translate(22 2.5)"><path d="M 1e-13 1e-13 L 5 0" fill="none" stroke="#ff0000"/></g><g id="ks8pu4t41qp" transform="translate(24.5 0)"><path d="M 1e-13 1e-13 L 0 2.5" fill="none" stroke="#ff0000"/></g><g id="ks8pu4t41qq" transform="translate(22 27.5) rotate(180 2.5 0)"><path d="M 1e-13 1e-13 L 5 0" fill="none" stroke="#ff0000"/></g><g id="ks8pu4t41qr" transform="translate(24.5 27.5) rotate(180 0 1.25)"><path d="M 1e-13 1e-13 L 0 2.5" fill="none" stroke="#ff0000"/></g></g></g></svg>