<?xml version="1.0" encoding="UTF-8"?>
<svg xmlns="http://www.w3.org/2000/svg" viewBox="0 0 64 64"><g id="ks8puerz24i" class="Group.cls" transform="translate(18 18)"><g class="Prim.cls"><g id="ks8pues024j" transform="translate(2.5 2.5)"><rect fill="white" height="23.999999999999996" stroke="#000000" stroke-width="0.6" width="23.999999999999996" x="0" y="0"/></g><g id="ks8pues024k" transform="translate(8.5 14.5)"><path d="M 1e-13 1e-13 L 11.999999999999998 0" fill="none" stroke="#000000" stroke-width="0.6"/></g><g id="ks8pues024l" transform="translate(13.45 9.4)"><ellipse cx="1.0500001704439204" cy="1.0500001704439204" fill="#000000" rx="1.0500001704439204" ry="1.0500001704439204" stroke="#000000" stroke-width="0.6"/></g><g id="ks8pues024m" transform="translate(13.45 17.5)"><ellipse cx="1.0500001704439204" cy="1.0500001704439204" fill="#000000" rx="1.0500001704439204" ry="1.0500001704439204" stroke="#000000" stroke-width="0.6"/></g><g id="ks8pues024n" transform="translate(0 14.5) rotate(270 2.5 0)"><path d="M 1e-13 1e-13 L 5 0" fill="none" stroke="#ff0000"/></g><g id="ks8pues024o" transform="translate(1.25 13.25) rotate(270 0 1.25)"><path d="M 1e-13 1e-13 L 0 2.5" fill="none" stroke="#ff0000"/></g><g id="ks8pues024p" transform="translate(24 14.5) rotate(90 2.5 0)"><path d="M 5 0 L 1e-13 1e-13" fill="none" stroke="#ff0000"/></g><g id="ks8pues024q" transform="translate(27.75 13.25) rotate(90 0 1.25)"><path d="M 1e-13 1e-13 L 0 2.5" fill="none" stroke="#ff0000"/></g><g id="ks8pues024r" transform="translate(12 26.5) rotate(180 2.5 0)"><path d="M 1e-13 1e-13 L 5 0" fill="none" stroke="#ff0000"/></g><g id="ks8pues024s" transform="translate(14.5 26.5) rotate(180 0 1.25)"><path d="M 1e-13 1e-13 L 0 2.5" fill="none" stroke="#ff0000"/></g><g id="ks8pues024t" transform="translate(12 2.5)"><path d="M 5 0 L 1e-13 1e-13" fill="none" stroke="#ff0000"/></g><g id="ks8pues024u" transform="translate(14.5 0)"><path d="M 1e-13 1e-13 L 0 2.5" fill="none" stroke="#ff0000"/></g></g></g></svg>