<?xml version="1.0" encoding="UTF-8"?>
<svg xmlns="http://www.w3.org/2000/svg" viewBox="0 0 64 64"><g id="ks8pttxj1d5" class="Group.cls" transform="translate(7.75 20)"><g class="Prim.cls"><g id="ks8pttxk1d6" transform="translate(0 12.5)"><path d="M 1e-13 1e-13 L 49.5 0" fill="none" stroke-linecap="butt" stroke="#000000" stroke-width="0.5"/></g><g id="ks8pttxk1d7" transform="translate(14.75 2.5)"><rect fill="white" height="20" stroke="#000000" stroke-width="0.5" width="20" x="0" y="0"/></g><g id="ks8pttxk1d8" transform="translate(17.25 7.5) rotate(180 3.75 2.813)"><path d="M 7.5 0 C 7.5 7.5 0 7.5 1e-13 1e-13" fill="none" stroke-linecap="butt" stroke="#000000" stroke-width="0.5"/></g><g id="ks8pttxk1d9" transform="translate(24.75 12.5)"><path d="M 1e-13 1e-13 C 0 7.5 7.5 7.5 7.5 0" fill="none" stroke-linecap="butt" stroke="#000000" stroke-width="0.5"/></g><g id="ks8pttxk1da" transform="translate(0.25 12.5) rotate(270 2.5 0)"><path d="M 1e-13 1e-13 L 5 0" fill="none" stroke="#ff0000"/></g><g id="ks8pttxk1db" transform="translate(1.5 11.25) rotate(270 0 1.25)"><path d="M 1e-13 1e-13 L 0 2.5" fill="none" stroke="#ff0000"/></g><g id="ks8pttxk1dc" transform="translate(44.25 12.5) rotate(90 2.5 0)"><path d="M 5 0 L 1e-13 1e-13" fill="none" stroke="#ff0000"/></g><g id="ks8pttxk1dd" transform="translate(48 11.25) rotate(90 0 1.25)"><path d="M 1e-13 1e-13 L 0 2.5" fill="none" stroke="#ff0000"/></g><g id="ks8pttxk1de" transform="translate(22.25 2.5)"><path d="M 1e-13 1e-13 L 5 0" fill="none" stroke="#ff0000"/></g><g id="ks8pttxk1df" transform="translate(24.75 0)"><path d="M 1e-13 1e-13 L 0 2.5" fill="none" stroke="#ff0000"/></g><g id="ks8pttxk1dg" transform="translate(22.25 22.5) rotate(180 2.5 0)"><path d="M 1e-13 1e-13 L 5 0" fill="none" stroke="#ff0000"/></g><g id="ks8pttxk1dh" transform="translate(24.75 22.5) rotate(180 0 1.25)"><path d="M 1e-13 1e-13 L 0 2.5" fill="none" stroke="#ff0000"/></g></g></g></svg>