<?xml version="1.0" encoding="UTF-8"?>
<svg xmlns:xlink="http://www.w3.org/1999/xlink" xmlns="http://www.w3.org/2000/svg" viewBox="0 0 64 64"><g id="ks8pumhb2i4" class="Group.cls" transform="translate(18 18)"><g class="Prim.cls"><g id="ks8pumhc2i5" transform="translate(2.5 2.5)"><rect fill="white" fill-opacity="1" height="24.000000000000007" stroke="#000000" stroke-width="0.6" width="24.000000000000007" x="0" y="0"/><g class="ConnPts.cls"><use id="kkz3t4vw50a" x="12" y="0" xlink:href="#connection.sym"/><use id="kkz3t4vw50b" x="0" y="12" xlink:href="#connection.sym"/><use id="kkz3t4vw50c" x="12" y="24" xlink:href="#connection.sym"/><use id="kkz3t4vw50d" x="24" y="12" xlink:href="#connection.sym"/></g></g><g id="ks8pumhc2i6" transform="translate(10.75 12.4)"><path d="M 1e-13 1e-13 L 7.499999999999998 0" fill="none" stroke="#000000" stroke-width="0.6"/></g><g id="ks8pumhc2i7" transform="translate(14.5 8.95)"><path d="M 1e-13 1e-13 L 0 6.9" fill="none" stroke="#000000" stroke-width="0.6"/></g><g id="ks8pumhc2i8" transform="translate(10.75 19.5)"><path d="M 1e-13 1e-13 L 7.5625 0" fill="none" stroke="#000000" stroke-width="0.6"/></g><g id="ks8pumhc2i9" transform="translate(0 14.5) rotate(270 2.5 0)"><path d="M 1e-13 1e-13 L 5 0" fill="none" stroke="#ff0000"/></g><g id="ks8pumhc2ia" transform="translate(1.25 13.25) rotate(270 0 1.25)"><path d="M 1e-13 1e-13 L 0 2.5" fill="none" stroke="#ff0000"/></g><g id="ks8pumhc2ib" transform="translate(24 14.5) rotate(90 2.5 0)"><path d="M 5 0 L 1e-13 1e-13" fill="none" stroke="#ff0000"/></g><g id="ks8pumhc2ic" transform="translate(27.75 13.25) rotate(90 0 1.25)"><path d="M 1e-13 1e-13 L 0 2.5" fill="none" stroke="#ff0000"/></g><g id="ks8pumhc2id" transform="translate(12 26.5) rotate(180 2.5 0)"><path d="M 1e-13 1e-13 L 5 0" fill="none" stroke="#ff0000"/></g><g id="ks8pumhc2ie" transform="translate(14.5 26.5) rotate(180 0 1.25)"><path d="M 1e-13 1e-13 L 0 2.5" fill="none" stroke="#ff0000"/></g><g id="ks8pumhc2if" transform="translate(12 2.5)"><path d="M 5 0 L 1e-13 1e-13" fill="none" stroke="#ff0000"/></g><g id="ks8pumhc2ig" transform="translate(14.5 0)"><path d="M 1e-13 1e-13 L 0 2.5" fill="none" stroke="#ff0000"/></g></g></g></svg>