<?xml version="1.0" encoding="UTF-8"?>
<svg xmlns="http://www.w3.org/2000/svg" viewBox="0 0 64 64"><g id="ks8pu9dc1v6" class="Group.cls" transform="translate(20 20)"><g class="Prim.cls"><g id="ks8pu9dd1v7" transform="translate(2.5 2.5)"><path d="M 0 20 L 20 0" fill="none" stroke-linecap="round" stroke-linejoin="round" stroke="#000000" stroke-width="0.5"/></g><g id="ks8pu9dd1v8" transform="translate(2.5 2.5)"><path d="M 20 20 L 1e-13 1e-13" fill="none" stroke-linecap="round" stroke-linejoin="round" stroke="#000000" stroke-width="0.5"/></g><g id="ks8pu9dd1v9" transform="translate(2.5 2.5)"><ellipse cx="10" cy="10" fill="#ffffff" fill-opacity="1" rx="10" ry="10" stroke-linecap="round" stroke-linejoin="round" stroke="#000000" stroke-width="0.5"/></g><g id="ks8pu9dd1va" transform="translate(0 12.5) rotate(270 2.5 0)"><path d="M 1e-13 1e-13 L 5 0" fill="none" stroke="#ff0000"/></g><g id="ks8pu9dd1vb" transform="translate(1.25 11.25) rotate(270 0 1.25)"><path d="M 1e-13 1e-13 L 0 2.5" fill="none" stroke="#ff0000"/></g><g id="ks8pu9dd1vc" transform="translate(20 12.5) rotate(90 2.5 0)"><path d="M 5 0 L 1e-13 1e-13" fill="none" stroke="#ff0000"/></g><g id="ks8pu9dd1vd" transform="translate(23.75 11.25) rotate(90 0 1.25)"><path d="M 1e-13 1e-13 L 0 2.5" fill="none" stroke="#ff0000"/></g><g id="ks8pu9dd1ve" transform="translate(10 2.5)"><path d="M 1e-13 1e-13 L 5 0" fill="none" stroke="#ff0000"/></g><g id="ks8pu9dd1vf" transform="translate(12.5 0)"><path d="M 1e-13 1e-13 L 0 2.5" fill="none" stroke="#ff0000"/></g><g id="ks8pu9dd1vg" transform="translate(10 22.5) rotate(180 2.5 0)"><path d="M 5 0 L 1e-13 1e-13" fill="none" stroke="#ff0000"/></g><g id="ks8pu9dd1vh" transform="translate(12.5 22.5) rotate(180 0 1.25)"><path d="M 1e-13 1e-13 L 0 2.5" fill="none" stroke="#ff0000"/></g></g></g></svg>