<?xml version="1.0" encoding="UTF-8"?>
<svg xmlns="http://www.w3.org/2000/svg" viewBox="0 0 64 64"><g id="ks8pua5a1wh" class="Group.cls" transform="translate(7 22.5)"><g class="Prim.cls"><g id="ks8pua5b1wi" transform="translate(0.5 10)"><path d="M 50 0 L 1e-13 1e-13" fill="none" stroke-linecap="butt" stroke="#000000" stroke-width="0.5"/></g><g id="ks8pua5b1wj" transform="translate(5.5 0)"><rect fill="white" height="20" stroke-linecap="butt" stroke="#000000" stroke-width="0.5" width="40" x="0" y="0"/></g><g id="ks8pua5b1wk" transform="translate(15.5 5)"><path d="M 0 10 C 5 10 5 0 10 0" fill="none" stroke-linecap="butt" stroke="#000000" stroke-width="0.5"/></g><g id="ks8pua5b1wl" transform="translate(25.5 5) rotate(180 5 5)"><path d="M 10 10 C 4.999999999999949 10 4.999999999999949 -1.0000000000000024e-13 0 7.496563636166271e-28" fill="none" stroke-linecap="butt" stroke="#000000" stroke-width="0.5"/></g><g id="ks8pua5b1wm" transform="translate(35.5 5)"><path d="M 0 10 C 5.000000000000051 10 5.000000000000051 -1.0000000000000024e-13 10 7.496563636166271e-28" fill="none" stroke-linecap="butt" stroke="#000000" stroke-width="0.5"/></g><g id="ks8pua5b1wn" transform="translate(5.5 5)"><path d="M 10 10 C 4.999999999999949 10 4.999999999999949 -1.0000000000000024e-13 0 7.496563636166271e-28" fill="none" stroke-linecap="butt" stroke="#000000" stroke-width="0.5"/></g><g id="ks8pua5b1wo" transform="translate(0 10) rotate(270 2.5 0)"><path d="M 1e-13 1e-13 L 5 0" fill="none" stroke="#ff0000"/></g><g id="ks8pua5b1wp" transform="translate(1.25 8.75) rotate(270 0 1.25)"><path d="M 1e-13 1e-13 L 0 2.5" fill="none" stroke="#ff0000"/></g><g id="ks8pua5b1wq" transform="translate(46 10) rotate(90 2.5 0)"><path d="M 5 0 L 1e-13 1e-13" fill="none" stroke="#ff0000"/></g><g id="ks8pua5b1wr" transform="translate(49.75 8.75) rotate(90 0 1.25)"><path d="M 1e-13 1e-13 L 0 2.5" fill="none" stroke="#ff0000"/></g></g></g></svg>