<?xml version="1.0" encoding="UTF-8"?>
<svg xmlns="http://www.w3.org/2000/svg" viewBox="0 0 64 64"><g id="ks8ptj42s6" class="Group.cls" transform="translate(10 10)"><g class="Prim.cls"><g id="ks8ptj43s7" transform="translate(2.5 2.5)"><rect fill="white" height="40" stroke="#000000" stroke-width="0.5" width="40" x="0" y="0"/></g><g id="ks8ptj43s8" transform="translate(8.203 8.203) rotate(45 14.297 14.297)"><rect fill="none" height="28.5932" stroke="#000000" stroke-width="0.5" width="28.5932" x="0" y="0"/></g><g id="ks8ptj43s9" transform="translate(2.5 22.5)"><path d="M 1e-13 1e-13 L 40 0" fill="none" stroke="#000000" stroke-width="0.5"/></g><g id="ks8ptj43sa" transform="translate(20 2.5)"><path d="M 1e-13 1e-13 L 5 0" fill="none" stroke="#ff0000" stroke-width="1"/></g><g id="ks8ptj43sb" transform="translate(22.5 0)"><path d="M 1e-13 1e-13 L 0 2.5" fill="none" stroke="#ff0000" stroke-width="1"/></g><g id="ks8ptj43sc" transform="translate(20 42.5) rotate(180 2.5 0)"><path d="M 5 0 L 1e-13 1e-13" fill="none" stroke="#ff0000" stroke-width="1"/></g><g id="ks8ptj43sd" transform="translate(22.5 42.5) rotate(180 0 1.25)"><path d="M 1e-13 1e-13 L 0 2.5" fill="none" stroke="#ff0000" stroke-width="1"/></g><g id="ks8ptj43se" transform="translate(0 22.5) rotate(270 2.5 0)"><path d="M 1e-13 1e-13 L 5 0" fill="none" stroke="#ff0000" stroke-width="1"/></g><g id="ks8ptj43sf" transform="translate(1.25 21.25) rotate(270 0 1.25)"><path d="M 1e-13 1e-13 L 0 2.5" fill="none" stroke="#ff0000" stroke-width="1"/></g><g id="ks8ptj43sg" transform="translate(40 22.5) rotate(90 2.5 0)"><path d="M 5 0 L 1e-13 1e-13" fill="none" stroke="#ff0000" stroke-width="1"/></g><g id="ks8ptj43sh" transform="translate(43.75 21.25) rotate(90 0 1.25)"><path d="M 1e-13 1e-13 L 0 2.5" fill="none" stroke="#ff0000" stroke-width="1"/></g></g></g></svg>