<?xml version="1.0" encoding="UTF-8"?>
<svg xmlns="http://www.w3.org/2000/svg" viewBox="0 0 64 64"><g id="ks8pu37g1p2" class="Group.cls" transform="translate(8 20)"><g class="Prim.cls"><g id="ks8pu37h1p3" transform="translate(0 12.5)"><path d="M 1e-13 1e-13 L 49 0" fill="none" stroke-linecap="butt" stroke="#000000" stroke-width="0.5"/></g><g id="ks8pu37h1p4" transform="translate(14.5 2.5)"><rect fill="white" height="20" stroke-linecap="butt" stroke="#000000" stroke-width="0.5" width="20" x="0" y="0"/></g><g id="ks8pu37h1p5" transform="translate(14.5 7.5)"><ellipse fill="white" cx="5" cy="5" rx="5" ry="5" stroke-linecap="butt" stroke="#000000" stroke-width="0.5"/></g><g id="ks8pu37h1p6" transform="translate(24.5 7.5)"><ellipse fill="white" cx="5" cy="5" rx="5" ry="5" stroke-linecap="butt" stroke="#000000" stroke-width="0.5"/></g><g id="ks8pu37h1p7" transform="translate(0 12.5) rotate(270 2.5 0)"><path d="M 1e-13 1e-13 L 5 0" fill="none" stroke="#ff0000"/></g><g id="ks8pu37h1p8" transform="translate(1.25 11.25) rotate(270 0 1.25)"><path d="M 1e-13 1e-13 L 0 2.5" fill="none" stroke="#ff0000"/></g><g id="ks8pu37h1p9" transform="translate(44 12.5) rotate(90 2.5 0)"><path d="M 5 0 L 1e-13 1e-13" fill="none" stroke="#ff0000"/></g><g id="ks8pu37h1pa" transform="translate(47.75 11.25) rotate(90 0 1.25)"><path d="M 1e-13 1e-13 L 0 2.5" fill="none" stroke="#ff0000"/></g><g id="ks8pu37h1pb" transform="translate(22 2.5)"><path d="M 1e-13 1e-13 L 5 0" fill="none" stroke="#ff0000"/></g><g id="ks8pu37h1pc" transform="translate(24.5 0)"><path d="M 1e-13 1e-13 L 0 2.5" fill="none" stroke="#ff0000"/></g><g id="ks8pu37h1pd" transform="translate(22 22.5) rotate(180 2.5 0)"><path d="M 1e-13 1e-13 L 5 0" fill="none" stroke="#ff0000"/></g><g id="ks8pu37h1pe" transform="translate(24.5 22.5) rotate(180 0 1.25)"><path d="M 1e-13 1e-13 L 0 2.5" fill="none" stroke="#ff0000"/></g></g></g></svg>