<?xml version="1.0" encoding="UTF-8"?>
<svg xmlns="http://www.w3.org/2000/svg" viewBox="0 0 64 64"><g id="ks8ptsdm1a7" class="Group.cls" transform="translate(8 20)"><g class="Prim.cls"><g id="ks8ptsdn1a8" transform="translate(0 12.5)"><path d="M 1e-13 1e-13 L 49 0" fill="none" stroke-linecap="butt" stroke="#000000" stroke-width="0.5"/></g><g id="ks8ptsdn1a9" transform="translate(14.5 2.5)"><rect fill="white" height="20" stroke="#000000" stroke-width="0.5" width="20" x="0" y="0"/></g><g id="ks8ptsdn1aa" transform="translate(21.125 8.875)"><path d="M 0 0 L 1.1553302003462775 0 L 3.372614925267658 5.1118809775824205 L 5.590018903925654 0 L 6.75 0 L 6.75 6.265100000000003 L 5.855596975371895 6.265100000000003 L 5.855596975371895 3.8253736738461566 L 5.939432352213702 1.1918836395604406 L 3.7127265820995725 6.265100000000003 L 3.0279716264442946 6.265100000000003 L 0.805916752058231 1.204882000879122 L 0.8944030246281048 3.8253736738461566 L 0.8944030246281048 6.265100000000003 L 0 6.265100000000003 L 0 0 Z" fill="#000000" stroke="none" stroke-linecap="butt" stroke-width="0.5"/></g><g id="ks8ptsdn1ab" transform="translate(0 12.5) rotate(270 2.5 0)"><path d="M 1e-13 1e-13 L 5 0" fill="none" stroke="#ff0000"/></g><g id="ks8ptsdn1ac" transform="translate(1.25 11.25) rotate(270 0 1.25)"><path d="M 1e-13 1e-13 L 0 2.5" fill="none" stroke="#ff0000"/></g><g id="ks8ptsdn1ad" transform="translate(44 12.5) rotate(90 2.5 0)"><path d="M 5 0 L 1e-13 1e-13" fill="none" stroke="#ff0000"/></g><g id="ks8ptsdn1ae" transform="translate(47.75 11.25) rotate(90 0 1.25)"><path d="M 1e-13 1e-13 L 0 2.5" fill="none" stroke="#ff0000"/></g><g id="ks8ptsdn1af" transform="translate(22 2.5)"><path d="M 1e-13 1e-13 L 5 0" fill="none" stroke="#ff0000"/></g><g id="ks8ptsdn1ag" transform="translate(24.5 0)"><path d="M 1e-13 1e-13 L 0 2.5" fill="none" stroke="#ff0000"/></g><g id="ks8ptsdn1ah" transform="translate(22 22.5) rotate(180 2.5 0)"><path d="M 1e-13 1e-13 L 5 0" fill="none" stroke="#ff0000"/></g><g id="ks8ptsdn1ai" transform="translate(24.5 22.5) rotate(180 0 1.25)"><path d="M 1e-13 1e-13 L 0 2.5" fill="none" stroke="#ff0000"/></g></g></g></svg>