<?xml version="1.0" encoding="UTF-8"?>
<svg xmlns="http://www.w3.org/2000/svg" viewBox="0 0 64 64"><g id="ks8ptup11el" class="Group.cls" transform="translate(8 19.875)"><g class="Prim.cls"><g id="ks8ptup21em" transform="translate(0 12.625)"><path d="M 1e-13 1e-13 L 49 0" fill="none" stroke-linecap="butt" stroke="#000000" stroke-width="0.5"/></g><g id="ks8ptup21en" transform="translate(14.5 2.625)"><rect fill="white" height="20" stroke="#000000" stroke-width="0.5" width="20" x="0" y="0"/></g><g id="ks8ptup21eo" transform="translate(19.5 7.625)"><path fill="white" d="M 0 0 L 0 10 L 10 5 Z" stroke-linecap="butt" stroke="#000000" stroke-width="0.5"/></g><g id="ks8ptup21ep" transform="translate(0 12.625) rotate(270 2.5 0)"><path d="M 1e-13 1e-13 L 5 0" fill="none" stroke="#ff0000"/></g><g id="ks8ptup21eq" transform="translate(1.25 11.375) rotate(270 0 1.25)"><path d="M 1e-13 1e-13 L 0 2.5" fill="none" stroke="#ff0000"/></g><g id="ks8ptup21er" transform="translate(44 12.625) rotate(90 2.5 0)"><path d="M 5 0 L 1e-13 1e-13" fill="none" stroke="#ff0000"/></g><g id="ks8ptup21es" transform="translate(47.75 11.375) rotate(90 0 1.25)"><path d="M 1e-13 1e-13 L 0 2.5" fill="none" stroke="#ff0000"/></g><g id="ks8ptup21et" transform="translate(22 2.5)"><path d="M 1e-13 1e-13 L 5 0" fill="none" stroke="#ff0000"/></g><g id="ks8ptup21eu" transform="translate(24.5 0)"><path d="M 1e-13 1e-13 L 0 2.5" fill="none" stroke="#ff0000"/></g><g id="ks8ptup21ev" transform="translate(22 22.625) rotate(180 2.5 0)"><path d="M 1e-13 1e-13 L 5 0" fill="none" stroke="#ff0000"/></g><g id="ks8ptup21ew" transform="translate(24.5 22.625) rotate(180 0 1.25)"><path d="M 1e-13 1e-13 L 0 2.5" fill="none" stroke="#ff0000"/></g></g></g></svg>