<?xml version="1.0" encoding="UTF-8"?>
<svg xmlns="http://www.w3.org/2000/svg" viewBox="0 0 64 64"><g id="ks8ptrab18p" class="Group.cls" transform="translate(8 23)"><g class="Prim.cls"><g id="ks8ptrab18q" transform="translate(24.5 2.5)"><path d="M 1e-13 1e-13 L 0 5" fill="none" stroke="#000000" stroke-width="0.5"/></g><g id="ks8ptrab18r" transform="translate(24.5 11.5)"><path d="M 1e-13 1e-13 L 0 5" fill="none" stroke="#000000" stroke-width="0.5"/></g><g id="ks8ptrab18s" transform="translate(29.833 9.5)"><path d="M 19.1666 0 L 0 1e-13" fill="none" stroke="#000000" stroke-width="0.5"/></g><g id="ks8ptrab18t" transform="translate(0.25 9.5)"><path d="M 1e-13 1e-13 L 18.9168 0" fill="none" stroke="#000000" stroke-width="0.5"/></g><g id="ks8ptrab18u" transform="translate(29.5 2.5)"><path d="M 1e-13 1e-13 L 0 14" fill="none" stroke-linecap="butt" stroke="#000000" stroke-width="0.5"/></g><g id="ks8ptrab18v" transform="translate(19.5 2.5)"><path d="M 1e-13 1e-13 L 0 14" fill="none" stroke-linecap="butt" stroke="#000000" stroke-width="0.5"/></g><g id="ks8ptrab18w" transform="translate(0 9.5) rotate(270 2.5 0)"><path d="M 1e-13 1e-13 L 5 0" fill="none" stroke="#ff0000" stroke-width="1"/></g><g id="ks8ptrab18x" transform="translate(1.25 8.25) rotate(270 0 1.25)"><path d="M 1e-13 1e-13 L 0 2.5" fill="none" stroke="#ff0000" stroke-width="1"/></g><g id="ks8ptrab18y" transform="translate(44 9.5) rotate(90 2.5 0)"><path d="M 5 0 L 1e-13 1e-13" fill="none" stroke="#ff0000" stroke-width="1"/></g><g id="ks8ptrab18z" transform="translate(47.75 8.25) rotate(90 0 1.25)"><path d="M 1e-13 1e-13 L 0 2.5" fill="none" stroke="#ff0000" stroke-width="1"/></g><g id="ks8ptrab190" transform="translate(22 2.5)"><path d="M 1e-13 1e-13 L 5 0" fill="none" stroke="#ff0000" stroke-width="1"/></g><g id="ks8ptrab191" transform="translate(24.5 0)"><path d="M 1e-13 1e-13 L 0 2.5" fill="none" stroke="#ff0000" stroke-width="1"/></g><g id="ks8ptrab192" transform="translate(22 16.75) rotate(180 2.5 0)"><path d="M 1e-13 1e-13 L 5 0" fill="none" stroke="#ff0000" stroke-width="1"/></g><g id="ks8ptrab193" transform="translate(24.5 16.75) rotate(180 0 1.25)"><path d="M 1e-13 1e-13 L 0 2.5" fill="none" stroke="#ff0000" stroke-width="1"/></g></g></g></svg>