<?xml version="1.0" encoding="UTF-8"?>
<svg xmlns="http://www.w3.org/2000/svg" viewBox="0 0 64 64"><g id="kmbq04rjh5m" class="Group.cls" transform="translate(10 27.5)"><g class="Prim.cls"><g id="kmbq04rkh5n" transform="translate(12.5 0) rotate(180 5 5)"><path fill="white" d="M 10 0 L 10 10 L 0 5 Z" stroke-linecap="square" stroke="#000000" stroke-width="0.5"/></g><g id="kmbq04rkh5o" transform="translate(17.5 20) rotate(90 5 0)"><path d="M 10 0 L 1e-13 1e-13" fill="none" stroke="#000000" stroke-width="0.5"/></g><g id="kmbq04rkh5p" transform="translate(17.5 5) rotate(90 5 5)"><path fill="white" d="M 10 0 L 10 10 L 0 5 Z" stroke-linecap="square" stroke="#000000" stroke-width="0.5"/></g><g id="kmbq04rkh5q" transform="translate(7.5 0) rotate(90 0 5)"><path d="M 0 10 L 1e-13 1e-13" fill="none" stroke-linecap="square" stroke="#000000" stroke-width="0.5"/></g><g id="kmbq04rkh5r" transform="translate(22.5 0) rotate(180 5 5)"><path fill="white" d="M 0 0 L 0 10 L 10 5 Z" stroke-linecap="square" stroke="#000000" stroke-width="0.5"/></g><g id="kmbq04rkh5s" transform="translate(37.5 0) rotate(90 0 5)"><path d="M 0 10 L 1e-13 1e-13" fill="none" stroke-linecap="square" stroke="#000000" stroke-width="0.5"/></g><g id="kmbq04rkh5t" transform="translate(2.5 2.5) rotate(180 0 2.5)"><path d="M 1e-13 1e-13 L 0 5" fill="none" stroke="#ff0000" stroke-width="1"/></g><g id="kmbq04rkh5u" transform="translate(0 5) rotate(180 1.25 0)"><path d="M 1e-13 1e-13 L 2.5 0" fill="none" stroke="#ff0000" stroke-width="1"/></g><g id="kmbq04rkh5v" transform="translate(42.5 2.5)"><path d="M 1e-13 1e-13 L 0 5" fill="none" stroke="#ff0000" stroke-width="1"/></g><g id="kmbq04rkh5w" transform="translate(42.5 5)"><path d="M 1e-13 1e-13 L 2.5 0" fill="none" stroke="#ff0000" stroke-width="1"/></g><g id="kmbq04rkh5x" transform="translate(22.5 22.5) rotate(90 0 2.5)"><path d="M 1e-13 1e-13 L 0 5" fill="none" stroke="#ff0000" stroke-width="1"/></g><g id="kmbq04rkh5y" transform="translate(21.25 26.25) rotate(90 1.25 0)"><path d="M 1e-13 1e-13 L 2.5 0" fill="none" stroke="#ff0000" stroke-width="1"/></g><g id="kmbq04rkh5z" transform="translate(22.5 2.5) rotate(180 0 2.5)"><path d="M 1e-13 1e-13 L 0 5" fill="none" stroke="#ff0000"/></g><g id="kmbq04rkh60" transform="translate(20 5) rotate(180 2.5 0)"><path d="M 1e-13 1e-13 L 5 0" fill="none" stroke="#ff0000"/></g></g></g></svg>