<?xml version="1.0" encoding="UTF-8"?>
<svg xmlns="http://www.w3.org/2000/svg" viewBox="0 0 64 64"><g id="kmbq09qyhtg" class="Group.cls" transform="translate(5 4)"><g class="Prim.cls"><g id="kmbq09qzhth" transform="translate(2.5 28.5)"><path d="M 1e-13 1e-13 L 50 0" fill="none" stroke="#000000" stroke-width="0.5"/></g><g id="kmbq09qzhti" transform="translate(17.5 23.5)"><path fill="white" d="M 20 10 L 20 0 L 0 10 L 0 0 Z" stroke="#000000" stroke-width="0.5"/></g><g id="kmbq09qzhtj" transform="translate(27.5 3.5)"><path d="M 0 25 L 1e-13 1e-13" fill="none" stroke-linecap="square" stroke="#000000" stroke-width="0.5"/></g><g id="kmbq09qzhtk" transform="translate(20.5 2.5)"><ellipse fill="white" cx="7" cy="7" rx="7" ry="7" stroke-linecap="square" stroke="#000000" stroke-width="0.5"/></g><g id="kmbq09qzhtl" transform="translate(23.96 5.691)"><path d="M 0 0 L 1.2109 0 L 3.5352 5.8008 L 5.8594 0 L 7.0752 0 L 7.0752 7.1094 L 6.1377 7.1094 L 6.1377 4.3408 L 6.2256 1.3525 L 3.8916 7.1094 L 3.1738 7.1094 L 0.8447 1.3672 L 0.9375 4.3408 L 0.9375 7.1094 L 0 7.1094 L 0 0 Z" fill="#000000" stroke="none" stroke-linecap="butt" stroke-width="0.5"/></g><g id="kmbq09qzhtm" transform="translate(2.5 26) rotate(180 0 2.5)"><path d="M 1e-13 1e-13 L 0 5" fill="none" stroke="#ff0000"/></g><g id="kmbq09qzhtn" transform="translate(0 28.5) rotate(180 1.25 0)"><path d="M 1e-13 1e-13 L 2.5 0" fill="none" stroke="#ff0000"/></g><g id="kmbq09qzhto" transform="translate(52.5 26) rotate(180 0 2.5)"><path d="M 1e-13 1e-13 L 0 5" fill="none" stroke="#ff0000"/></g><g id="kmbq09qzhtp" transform="translate(52.5 28.5) rotate(180 1.25 0)"><path d="M 2.5 0 L 1e-13 1e-13" fill="none" stroke="#ff0000"/></g><g id="kmbq09r0htq" transform="translate(2.5 26) rotate(180 0 2.5)"><path d="M 1e-13 1e-13 L 0 5" fill="none" stroke="#ff0000"/></g><g id="kmbq09r0htr" transform="translate(0 28.5) rotate(180 1.25 0)"><path d="M 1e-13 1e-13 L 2.5 0" fill="none" stroke="#ff0000"/></g><g id="kmbq09r0hts" transform="translate(52.5 26) rotate(180 0 2.5)"><path d="M 1e-13 1e-13 L 0 5" fill="none" stroke="#ff0000"/></g><g id="kmbq09r0htt" transform="translate(52.5 28.5) rotate(180 1.25 0)"><path d="M 2.5 0 L 1e-13 1e-13" fill="none" stroke="#ff0000"/></g><g id="kmbq09r0htu" transform="translate(27.5 26) rotate(180 0 2.5)"><path d="M 1e-13 1e-13 L 0 5" fill="none" stroke="#ff0000"/></g><g id="kmbq09r0htv" transform="translate(25 28.5) rotate(180 2.5 0)"><path d="M 1e-13 1e-13 L 5 0" fill="none" stroke="#ff0000"/></g><g id="kmbq09r0htw" transform="translate(27.5 0) rotate(180 0 1.25)"><path d="M 1e-13 1e-13 L 0 2.5" fill="none" stroke="#ff0000"/></g><g id="kmbq09r0htx" transform="translate(25 2.5) rotate(180 2.5 0)"><path d="M 1e-13 1e-13 L 5 0" fill="none" stroke="#ff0000"/></g><g id="kmbq09r0hty" transform="translate(52.5 26)"><path d="M 1e-13 1e-13 L 0 5" fill="none" stroke="#ff0000"/></g><g id="kmbq09r0htz" transform="translate(52.5 28.5)"><path d="M 1e-13 1e-13 L 2.5 0" fill="none" stroke="#ff0000"/></g><g id="kmbq09r0hu0" transform="translate(2.5 26) rotate(180 0 2.5)"><path d="M 1e-13 1e-13 L 0 5" fill="none" stroke="#ff0000"/></g><g id="kmbq09r0hu1" transform="translate(0 28.5) rotate(180 1.25 0)"><path d="M 1e-13 1e-13 L 2.5 0" fill="none" stroke="#ff0000"/></g><g id="kmbq09r0hu2" transform="translate(34.5 7)"><path d="M 1e-13 1e-13 L 0 5" fill="none" stroke="#ff0000"/></g><g id="kmbq09r0hu3" transform="translate(34.5 9.5)"><path d="M 1e-13 1e-13 L 2.5 0" fill="none" stroke="#ff0000"/></g><g id="kmbq09r0hu4" transform="translate(20.5 7)"><path d="M 1e-13 1e-13 L 0 5" fill="none" stroke="#ff0000"/></g><g id="kmbq09r0hu5" transform="translate(18 9.5)"><path d="M 2.5 0 L 1e-13 1e-13" fill="none" stroke="#ff0000"/></g><g id="kmbq09r0hu6" transform="translate(27.5 18) rotate(180 0 2.5)"><path d="M 1e-13 1e-13 L 0 5" fill="none" stroke="#ff0000"/></g><g id="kmbq09r0hu7" transform="translate(25 20.5) rotate(180 2.5 0)"><path d="M 1e-13 1e-13 L 5 0" fill="none" stroke="#ff0000"/></g></g></g></svg>