<?xml version="1.0" encoding="UTF-8"?>
<svg xmlns:xlink="http://www.w3.org/1999/xlink" xmlns="http://www.w3.org/2000/svg" viewBox="0 0 64 64"><g id="kmbq0a6mhvr" class="Group.cls" transform="translate(5 10)"><g class="Prim.cls"><g id="kmbq0a6nhvs" transform="translate(2.5 22.5)"><path d="M 1e-13 1e-13 L 50 0" fill="none" stroke-linecap="butt" stroke="#000000" stroke-width="0.5"/></g><g id="kmbq0a6nhvt" transform="translate(17.5 17.5)"><rect fill="white" height="10" stroke-linecap="butt" stroke="#000000" stroke-width="0.5" width="20" x="0" y="0"/></g><g id="kmbq0a6nhvu" transform="translate(17.5 17.5)"><path d="M 0 10 L 10 0 L 20 10" fill="none" stroke-linecap="butt" stroke="#000000" stroke-width="0.5"/></g><g id="kmbq0a6nhvv" transform="translate(27.5 2.5)"><path d="M 0 15 L 0 8.3125" fill="none" stroke-linecap="butt" stroke="#000000" stroke-width="0.5"/><use class="EndArrow.cls" fill="#000000" stroke-linecap="butt" stroke-width="0.5714285714285714" transform="scale(0.875) rotate(360 0 0)" x="0" xlink:href="#icon_VQlqJcXljuZixNLQOgLHqe_thin.end" y="0"/></g><g id="kmbq0a6nhvw" transform="translate(2.5 20) rotate(180 0 2.5)"><path d="M 1e-13 1e-13 L 0 5" fill="none" stroke="#ff0000" stroke-width="1"/></g><g id="kmbq0a6nhvx" transform="translate(0 22.5) rotate(180 1.25 0)"><path d="M 1e-13 1e-13 L 2.5 0" fill="none" stroke="#ff0000" stroke-width="1"/></g><g id="kmbq0a6nhvy" transform="translate(52.5 20) rotate(180 0 2.5)"><path d="M 1e-13 1e-13 L 0 5" fill="none" stroke="#ff0000" stroke-width="1"/></g><g id="kmbq0a6nhvz" transform="translate(52.5 22.5) rotate(180 1.25 0)"><path d="M 2.5 0 L 1e-13 1e-13" fill="none" stroke="#ff0000" stroke-width="1"/></g><g id="kmbq0a6nhw0" transform="translate(27.5 25) rotate(90 0 2.5)"><path d="M 1e-13 1e-13 L 0 5" fill="none" stroke="#ff0000" stroke-width="1"/></g><g id="kmbq0a6nhw1" transform="translate(26.25 28.75) rotate(90 1.25 0)"><path d="M 1e-13 1e-13 L 2.5 0" fill="none" stroke="#ff0000" stroke-width="1"/></g><g id="kmbq0a6nhw2" transform="translate(27.5 0) rotate(90 0 2.5)"><path d="M 1e-13 1e-13 L 0 5" fill="none" stroke="#ff0000" stroke-width="1"/></g><g id="kmbq0a6nhw3" transform="translate(26.25 1.25) rotate(90 1.25 0)"><path d="M 2.5 0 L 1e-13 1e-13" fill="none" stroke="#ff0000" stroke-width="1"/></g></g></g></svg>