<?xml version="1.0" encoding="UTF-8"?>
<svg xmlns="http://www.w3.org/2000/svg" viewBox="0 0 64 64"><g id="kmbpzyo4gsl" class="Group.cls" transform="translate(5 27.5)"><g class="Prim.cls"><g id="kmbpzyo5gsm" transform="translate(37.5 0)"><path d="M 0 10 L 1e-13 1e-13" fill="none" stroke="#000000" stroke-width="0.5"/></g><g id="kmbpzyo5gsn" transform="translate(17.5 0)"><path d="M 1e-13 1e-13 L 0 10" fill="none" stroke="#000000" stroke-width="0.5"/></g><g id="kmbpzyo5gso" transform="translate(37.5 5)"><path d="M 1e-13 1e-13 L 15 0" fill="none" stroke="#000000" stroke-width="0.5"/></g><g id="kmbpzyo5gsp" transform="translate(2.5 5)"><path d="M 15 0 L 1e-13 1e-13" fill="none" stroke="#000000" stroke-width="0.5"/></g><g id="kmbpzyo5gsq" transform="translate(25 2.5)"><ellipse cx="2.5" cy="2.5" fill="#000000" rx="2.5" ry="2.5" stroke="#000000" stroke-width="0.5"/></g><g id="kmbpzyo5gsr" transform="translate(21.5 2)"><path d="M 1e-13 1e-13 L 12 6" fill="none" stroke="#000000" stroke-width="0.5"/></g><g id="kmbpzyo5gss" transform="translate(2.5 2.5) rotate(180 0 2.5)"><path d="M 1e-13 1e-13 L 0 5" fill="#000000" fill-opacity="1" stroke="#ff0000"/></g><g id="kmbpzyo5gst" transform="translate(0 5) rotate(180 1.25 0)"><path d="M 1e-13 1e-13 L 2.5 0" fill="#000000" fill-opacity="1" stroke="#ff0000"/></g><g id="kmbpzyo5gsu" transform="translate(52.5 2.5) rotate(180 0 2.5)"><path d="M 1e-13 1e-13 L 0 5" fill="#000000" fill-opacity="1" stroke="#ff0000"/></g><g id="kmbpzyo5gsv" transform="translate(52.5 5) rotate(180 1.25 0)"><path d="M 2.5 0 L 1e-13 1e-13" fill="#000000" fill-opacity="1" stroke="#ff0000"/></g><g id="kmbpzyo5gsw" transform="translate(27.5 2.5)"><path d="M 1e-13 1e-13 L 0 5" fill="none" stroke="#ff0000"/></g><g id="kmbpzyo5gsx" transform="translate(25 5)"><path d="M 1e-13 1e-13 L 5 0" fill="none" stroke="#ff0000"/></g></g></g></svg>