<?xml version="1.0" encoding="UTF-8"?>
<svg xmlns="http://www.w3.org/2000/svg" viewBox="0 0 64 64"><g id="kmbq063mhb7" class="Group.cls" transform="translate(5 0)"><g class="Prim.cls"><g id="kmbq063nhb8" transform="translate(22.5 7.5)"><path d="M 1e-13 1e-13 L 10 0" fill="none" stroke-linecap="square" stroke="#000000" stroke-width="0.5"/></g><g id="kmbq063nhb9" transform="translate(27.5 7.5)"><path d="M 1e-13 1e-13 L 0 25" fill="none" stroke="#000000" stroke-width="0.5"/></g><g id="kmbq063nhba" transform="translate(21.5 2.5)"><path fill="white" d="M 12 5 L 0 5 C 0.5 2 3.4284 0 6 0 C 8.5716 0 11.5 2 12 5 Z" stroke="#000000" stroke-width="0.5"/></g><g id="kmbq063nhbb" transform="translate(2.5 32.5)"><path d="M 1e-13 1e-13 L 50 0" fill="none" stroke="#000000" stroke-width="0.5"/></g><g id="kmbq063nhbc" transform="translate(17.5 27.5)"><path fill="white" d="M 20 10 L 20 0 L 0 10 L 0 0 Z" stroke="#000000" stroke-width="0.5"/></g><g id="kmbq063nhbd" transform="translate(27.5 30) rotate(180 0 2.5)"><path d="M 1e-13 1e-13 L 0 5" fill="none" stroke="#ff0000" stroke-width="1"/></g><g id="kmbq063nhbe" transform="translate(25 32.5) rotate(180 2.5 0)"><path d="M 1e-13 1e-13 L 5 0" fill="none" stroke="#ff0000" stroke-width="1"/></g><g id="kmbq063nhbf" transform="translate(27.5 0) rotate(180 0 1.25)"><path d="M 1e-13 1e-13 L 3.061616997868383e-16 2.5" fill="none" stroke="#ff0000" stroke-width="1"/></g><g id="kmbq063nhbg" transform="translate(25 2.5) rotate(180 2.5 0)"><path d="M 1e-13 1e-13 L 5 0" fill="none" stroke="#ff0000" stroke-width="1"/></g><g id="kmbq063nhbh" transform="translate(27.5 10) rotate(180 0 2.5)"><path d="M 1e-13 1e-13 L 0 5" fill="none" stroke="#ff0000" stroke-width="1"/></g><g id="kmbq063nhbi" transform="translate(25 12.5) rotate(180 2.5 0)"><path d="M 1e-13 1e-13 L 5 0" fill="none" stroke="#ff0000" stroke-width="1"/></g><g id="kmbq063nhbj" transform="translate(27.5 20) rotate(180 0 2.5)"><path d="M 1e-13 1e-13 L 0 5" fill="none" stroke="#ff0000" stroke-width="1"/></g><g id="kmbq063nhbk" transform="translate(25 22.5) rotate(180 2.5 0)"><path d="M 1e-13 1e-13 L 5 0" fill="none" stroke="#ff0000" stroke-width="1"/></g><g id="kmbq063nhbl" transform="translate(2.5 30) rotate(180 0 2.5)"><path d="M 1e-13 1e-13 L 0 5" fill="none" stroke="#ff0000" stroke-width="1"/></g><g id="kmbq063nhbm" transform="translate(0 32.5) rotate(180 1.25 0)"><path d="M 1e-13 1e-13 L 2.5 0" fill="none" stroke="#ff0000" stroke-width="1"/></g><g id="kmbq063nhbn" transform="translate(52.5 30)"><path d="M 1e-13 1e-13 L 0 5" fill="none" stroke="#ff0000" stroke-width="1"/></g><g id="kmbq063nhbo" transform="translate(52.5 32.5)"><path d="M 1e-13 1e-13 L 2.5 0" fill="none" stroke="#ff0000" stroke-width="1"/></g></g></g></svg>