<?xml version="1.0" encoding="UTF-8"?>
<svg xmlns="http://www.w3.org/2000/svg" viewBox="0 0 64 64"><g id="kmbq0f2yifu" class="Group.cls" transform="translate(5 2.5)"><g class="Prim.cls"><g id="kmbq0f2zifv" transform="translate(12.5 0)"><path d="M 15 35 L 15 0 L 0 0 L 0 15 Z" fill="none" stroke-linecap="square" stroke="#000000" stroke-width="0.5"/></g><g id="kmbq0f2zifw" transform="translate(2.5 35)"><path d="M 1e-13 1e-13 L 50 0" fill="none" stroke="#000000" stroke-width="0.5"/></g><g id="kmbq0f2zifx" transform="translate(17.5 30)"><path fill="white" d="M 20 10 L 20 0 L 0 10 L 0 0 Z" stroke="#000000" stroke-width="0.5"/></g><g id="kmbq0f2zify" transform="translate(20 10)"><ellipse fill="white" cx="7.5" cy="5" rx="7.5" ry="5" stroke-linecap="square" stroke="#000000" stroke-width="0.5"/></g><g id="kmbq0f2zifz" transform="translate(20 15)"><path d="M 1e-13 1e-13 L 15 0" fill="none" stroke-linecap="square" stroke="#000000" stroke-width="0.5"/></g><g id="kmbq0f2zig0" transform="translate(27.5 15)"><path d="M 1e-13 1e-13 L 20 0 L 20 20" fill="none" stroke-linecap="butt" stroke="#000000" stroke-width="0.5"/></g><g id="kmbq0f2zig1" transform="translate(52.5 32.5) rotate(180 0 2.5)"><path d="M 1e-13 1e-13 L 0 5" fill="none" stroke="#ff0000"/></g><g id="kmbq0f2zig2" transform="translate(52.5 35) rotate(180 1.25 0)"><path d="M 2.5 0 L 1e-13 1e-13" fill="none" stroke="#ff0000"/></g><g id="kmbq0f2zig3" transform="translate(2.5 32.5) rotate(180 0 2.5)"><path d="M 1e-13 1e-13 L 0 5" fill="none" stroke="#ff0000"/></g><g id="kmbq0f2zig4" transform="translate(0 35) rotate(180 1.25 0)"><path d="M 1e-13 1e-13 L 2.5 0" fill="none" stroke="#ff0000"/></g><g id="kmbq0f2zig5" transform="translate(27.5 32.5) rotate(180 0 2.5)"><path d="M 1e-13 1e-13 L 0 5" fill="none" stroke="#ff0000"/></g><g id="kmbq0f2zig6" transform="translate(25 35) rotate(180 2.5 0)"><path d="M 1e-13 1e-13 L 5 0" fill="none" stroke="#ff0000"/></g></g></g></svg>