<?xml version="1.0" encoding="UTF-8"?>
<svg xmlns="http://www.w3.org/2000/svg" viewBox="0 0 64 64"><g id="kmbq0fijihf" class="Group.cls" transform="translate(5 0)"><g class="Prim.cls"><g id="kmbq0fikihg" transform="translate(52.5 35) rotate(180 0 2.5)"><path d="M 1e-13 1e-13 L 0 5" fill="none" stroke="#ff0000" stroke-width="1"/></g><g id="kmbq0fikihh" transform="translate(52.5 37.5) rotate(180 1.25 0)"><path d="M 2.5 0 L 1e-13 1e-13" fill="none" stroke="#ff0000" stroke-width="1"/></g><g id="kmbq0fikihi" transform="translate(2.5 35) rotate(180 0 2.5)"><path d="M 1e-13 1e-13 L 0 5" fill="none" stroke="#ff0000" stroke-width="1"/></g><g id="kmbq0fikihj" transform="translate(0 37.5) rotate(180 1.25 0)"><path d="M 1e-13 1e-13 L 2.5 0" fill="none" stroke="#ff0000" stroke-width="1"/></g><g id="kmbq0fikihk" transform="translate(2.5 37.5)"><path d="M 1e-13 1e-13 L 50 0" fill="none" stroke="#000000" stroke-width="0.5"/></g><g id="kmbq0fikihl" transform="translate(17.5 32.5)"><path fill="white" d="M 20 10 L 20 0 L 0 10 L 0 0 Z" stroke="#000000" stroke-width="0.5"/></g><g id="kmbq0fikihm" transform="translate(27.5 17.5)"><path d="M 1e-13 1e-13 L 0 20" fill="none" stroke="#000000" stroke-width="0.5"/></g><g id="kmbq0fikihn" transform="translate(21.5 17.5)"><path fill="white" d="M 12 5 L 0 5 C 1.1931 2.0067 3.4284 0 6 0 C 8.5716 0 10.8069 2.0067 12 5 Z" stroke="#000000" stroke-width="0.5"/></g><g id="kmbq0fikiho" transform="translate(27.5 2.5)"><path d="M 0 15 L 1e-13 1e-13 L 20 0 L 20 35" fill="none" stroke-linecap="butt" stroke="#000000" stroke-width="0.5"/></g><g id="kmbq0fikihp" transform="translate(35 0)"><path d="M 0 5 L 5 0" fill="none" stroke-linecap="butt" stroke="#000000" stroke-width="0.5"/></g><g id="kmbq0fikihq" transform="translate(35 0)"><path d="M 1e-13 1e-13 L 5 5" fill="none" stroke-linecap="butt" stroke="#000000" stroke-width="0.5"/></g><g id="kmbq0fikihr" transform="translate(45 20)"><path d="M 0 5 L 5 0" fill="none" stroke-linecap="butt" stroke="#000000" stroke-width="0.5"/></g><g id="kmbq0fikihs" transform="translate(45 20)"><path d="M 1e-13 1e-13 L 5 5" fill="none" stroke-linecap="butt" stroke="#000000" stroke-width="0.5"/></g><g id="kmbq0fikiht" transform="translate(27.5 35) rotate(180 0 2.5)"><path d="M 1e-13 1e-13 L 0 5" fill="none" stroke="#ff0000"/></g><g id="kmbq0fikihu" transform="translate(25 37.5) rotate(180 2.5 0)"><path d="M 1e-13 1e-13 L 5 0" fill="none" stroke="#ff0000"/></g></g></g></svg>