<?xml version="1.0" encoding="UTF-8"?>
<svg xmlns:xlink="http://www.w3.org/1999/xlink" xmlns="http://www.w3.org/2000/svg" viewBox="0 0 64 64"><g id="kmbq0amahxn" class="Group.cls" transform="translate(5 10)"><g class="Prim.cls"><g id="kmbq0amchxo" transform="translate(2.5 22.5)"><path d="M 1e-13 1e-13 L 50 0" fill="none" stroke-linecap="butt" stroke="#000000" stroke-width="0.5"/></g><g id="kmbq0amchxp" transform="translate(17.5 17.5)"><rect fill="white" height="10" stroke-linecap="butt" stroke="#000000" stroke-width="0.5" width="20" x="0" y="0"/></g><g id="kmbq0amchxq" transform="translate(17.5 17.5)"><path d="M 0 10 L 10 0 L 20 10" fill="none" stroke-linecap="butt" stroke="#000000" stroke-width="0.5"/></g><g id="kmbq0amchxr" transform="translate(27.5 2.5)"><path d="M 0 6.6875 L 1e-13 1e-13" fill="none" stroke-dasharray="none" stroke-linecap="butt" stroke="#000000" stroke-width="0.5"/><use class="BeginArrow.cls" fill="#000000" stroke-linecap="butt" stroke-width="0.5714285714285714" transform="scale(0.875) rotate(180 0 17.143)" x="0" xlink:href="#icon_gjbwL-rZGQgBhygrFeqspt_thin.end" y="17.142857142857142"/></g><g id="kmbq0amchxs" transform="translate(2.5 20) rotate(180 0 2.5)"><path d="M 1e-13 1e-13 L 0 5" fill="none" stroke="#ff0000"/></g><g id="kmbq0amchxt" transform="translate(0 22.5) rotate(180 1.25 0)"><path d="M 1e-13 1e-13 L 2.5 0" fill="none" stroke="#ff0000"/></g><g id="kmbq0amchxu" transform="translate(52.5 20) rotate(180 0 2.5)"><path d="M 1e-13 1e-13 L 0 5" fill="none" stroke="#ff0000"/></g><g id="kmbq0amchxv" transform="translate(52.5 22.5) rotate(180 1.25 0)"><path d="M 2.5 0 L 1e-13 1e-13" fill="none" stroke="#ff0000"/></g><g id="kmbq0amchxw" transform="translate(2.5 20) rotate(180 0 2.5)"><path d="M 1e-13 1e-13 L 0 5" fill="none" stroke="#ff0000"/></g><g id="kmbq0amchxx" transform="translate(0 22.5) rotate(180 1.25 0)"><path d="M 1e-13 1e-13 L 2.5 0" fill="none" stroke="#ff0000"/></g><g id="kmbq0amchxy" transform="translate(52.5 20) rotate(180 0 2.5)"><path d="M 1e-13 1e-13 L 0 5" fill="none" stroke="#ff0000"/></g><g id="kmbq0amchxz" transform="translate(52.5 22.5) rotate(180 1.25 0)"><path d="M 2.5 0 L 1e-13 1e-13" fill="none" stroke="#ff0000"/></g><g id="kmbq0amchy0" transform="translate(27.5 25) rotate(90 0 2.5)"><path d="M 1e-13 1e-13 L 0 5" fill="none" stroke="#ff0000"/></g><g id="kmbq0amchy1" transform="translate(26.25 28.75) rotate(90 1.25 0)"><path d="M 1e-13 1e-13 L 2.5 0" fill="none" stroke="#ff0000"/></g><g id="kmbq0amchy2" transform="translate(27.5 0) rotate(90 0 2.5)"><path d="M 1e-13 1e-13 L 0 5" fill="none" stroke="#ff0000"/></g><g id="kmbq0amchy3" transform="translate(26.25 1.25) rotate(90 1.25 0)"><path d="M 2.5 0 L 1e-13 1e-13" fill="none" stroke="#ff0000"/></g></g></g></svg>