<?xml version="1.0" encoding="UTF-8"?>
<svg xmlns="http://www.w3.org/2000/svg" viewBox="0 0 64 64"><g id="kmbq07x8hkd" class="Group.cls" transform="translate(5 0)"><g class="Prim.cls"><g id="kmbq07x8hke" transform="translate(27.5 12.5)"><path d="M 1e-13 1e-13 L 10 0" fill="none" stroke-linecap="butt" stroke="#000000" stroke-width="0.5"/></g><g id="kmbq07x8hkf" transform="translate(37.5 12.5)"><path d="M 1e-13 1e-13 L 1e-13 1e-13" fill="none" stroke-linecap="butt" stroke="#000000" stroke-width="0.5"/></g><g id="kmbq07x8hkg" transform="translate(37.5 7.5)"><path d="M 1e-13 1e-13 L 0 10" fill="none" stroke-linecap="butt" stroke="#000000" stroke-width="0.5"/></g><g id="kmbq07x8hkh" transform="translate(22.5 7.5)"><path d="M 1e-13 1e-13 L 10 0" fill="none" stroke-linecap="square" stroke="#000000" stroke-width="0.5"/></g><g id="kmbq07x8hki" transform="translate(27.5 7.5)"><path d="M 1e-13 1e-13 L 0 25" fill="none" stroke="#000000" stroke-width="0.5"/></g><g id="kmbq07x8hkj" transform="translate(21.5 2.5)"><path fill="white" d="M 12 5 L 0 5 C 0.5 2 3.4284 0 6 0 C 8.5716 0 11.5 2 12 5 Z" stroke="#000000" stroke-width="0.5"/></g><g id="kmbq07x8hkk" transform="translate(2.5 32.5)"><path d="M 1e-13 1e-13 L 50 0" fill="none" stroke="#000000" stroke-width="0.5"/></g><g id="kmbq07x8hkl" transform="translate(17.5 27.5)"><path fill="white" d="M 20 10 L 20 0 L 0 10 L 0 0 Z" stroke="#000000" stroke-width="0.5"/></g><g id="kmbq07x8hkm" transform="translate(2.5 30) rotate(180 0 2.5)"><path d="M 1e-13 1e-13 L 0 5" fill="none" stroke="#ff0000"/></g><g id="kmbq07x8hkn" transform="translate(0 32.5) rotate(180 1.25 0)"><path d="M 1e-13 1e-13 L 2.5 0" fill="none" stroke="#ff0000"/></g><g id="kmbq07x8hko" transform="translate(52.5 30) rotate(180 0 2.5)"><path d="M 1e-13 1e-13 L 0 5" fill="none" stroke="#ff0000"/></g><g id="kmbq07x8hkp" transform="translate(52.5 32.5) rotate(180 1.25 0)"><path d="M 2.5 0 L 1e-13 1e-13" fill="none" stroke="#ff0000"/></g><g id="kmbq07x8hkq" transform="translate(22.5 7.5)"><path d="M 1e-13 1e-13 L 10 0" fill="none" stroke-linecap="square" stroke="#000000" stroke-width="0.5"/></g><g id="kmbq07x8hkr" transform="translate(27.5 30) rotate(180 0 2.5)"><path d="M 1e-13 1e-13 L 0 5" fill="none" stroke="#ff0000"/></g><g id="kmbq07x8hks" transform="translate(25 32.5) rotate(180 2.5 0)"><path d="M 1e-13 1e-13 L 5 0" fill="none" stroke="#ff0000"/></g><g id="kmbq07x8hkt" transform="translate(27.5 0) rotate(180 0 1.25)"><path d="M 1e-13 1e-13 L 3.061616997868383e-16 2.5" fill="none" stroke="#ff0000"/></g><g id="kmbq07x8hku" transform="translate(25 2.5) rotate(180 2.5 0)"><path d="M 1e-13 1e-13 L 5 0" fill="none" stroke="#ff0000"/></g><g id="kmbq07x8hkv" transform="translate(27.5 20) rotate(180 0 2.5)"><path d="M 1e-13 1e-13 L 0 5" fill="none" stroke="#ff0000"/></g><g id="kmbq07x8hkw" transform="translate(25 22.5) rotate(180 2.5 0)"><path d="M 1e-13 1e-13 L 5 0" fill="none" stroke="#ff0000"/></g><g id="kmbq07x8hkx" transform="translate(52.5 30)"><path d="M 1e-13 1e-13 L 0 5" fill="none" stroke="#ff0000"/></g><g id="kmbq07x8hky" transform="translate(52.5 32.5)"><path d="M 1e-13 1e-13 L 2.5 0" fill="none" stroke="#ff0000"/></g><g id="kmbq07x8hkz" transform="translate(2.5 30) rotate(180 0 2.5)"><path d="M 1e-13 1e-13 L 0 5" fill="none" stroke="#ff0000"/></g><g id="kmbq07x8hl0" transform="translate(0 32.5) rotate(180 1.25 0)"><path d="M 1e-13 1e-13 L 2.5 0" fill="none" stroke="#ff0000"/></g><g id="kmbq07x8hl1" transform="translate(37.5 10)"><path d="M 1e-13 1e-13 L 0 5" fill="none" stroke="#ff0000"/></g><g id="kmbq07x8hl2" transform="translate(37.5 12.5)"><path d="M 1e-13 1e-13 L 2.5 0" fill="none" stroke="#ff0000"/></g></g></g></svg>