<?xml version="1.0" encoding="UTF-8"?>
<svg xmlns:xlink="http://www.w3.org/1999/xlink" xmlns="http://www.w3.org/2000/svg" viewBox="0 0 64 64"><g id="kmbpzww0gpr" class="Group.cls" transform="translate(5 26.5)"><g class="Prim.cls"><g id="kmbpzww1gps" transform="translate(37.5 1)"><path d="M 0 10 L 1e-13 1e-13" fill="none" stroke="#000000" stroke-width="0.5"/></g><g id="kmbpzww1gpt" transform="translate(17.5 1)"><path d="M 1e-13 1e-13 L 0 10" fill="none" stroke="#000000" stroke-width="0.5"/></g><g id="kmbpzww1gpu" transform="translate(37.5 6)"><path d="M 1e-13 1e-13 L 15 0" fill="none" stroke="#000000" stroke-width="0.5"/></g><g id="kmbpzww1gpv" transform="translate(2.5 6)"><path d="M 15 0 L 1e-13 1e-13" fill="none" stroke="#000000" stroke-width="0.5"/></g><g id="kmbpzww1gpw" transform="translate(16.5 0)"><ellipse cx="1" cy="1" fill="#000000" rx="1" ry="1" stroke="#000000" stroke-width="0.5"/></g><g id="kmbpzww1gpx" transform="translate(17.5 1)"><path d="M 1e-13 1e-13 L 14.26449966430664 7.132199764251709" fill="none" stroke="#000000" stroke-width="0.5"/><use class="EndArrow.cls" fill="#000000" stroke-width="0.7407407276587887" transform="scale(0.675000011920929) rotate(116.565 29.63 14.815)" x="29.62962910635155" xlink:href="#icon_fh1S77NTELB3lTxdKed3iC_thin.end" y="14.814814553175776"/></g><g id="kmbpzww1gpy" transform="translate(52.5 3.5)"><path d="M 1e-13 1e-13 L 0 5" fill="none" stroke="#ff0000" stroke-width="1"/></g><g id="kmbpzww1gpz" transform="translate(52.5 6)"><path d="M 1e-13 1e-13 L 2.5 0" fill="none" stroke="#ff0000" stroke-width="1"/></g><g id="kmbpzww1gq0" transform="translate(2.5 3.5) rotate(180 0 2.5)"><path d="M 1e-13 1e-13 L 0 5" fill="none" stroke="#ff0000" stroke-width="1"/></g><g id="kmbpzww1gq1" transform="translate(0 6) rotate(180 1.25 0)"><path d="M 1e-13 1e-13 L 2.5 0" fill="none" stroke="#ff0000" stroke-width="1"/></g><g id="kmbpzww1gq2" transform="translate(27.5 3.5)"><path d="M 1e-13 1e-13 L 0 5" fill="none" stroke="#ff0000"/></g><g id="kmbpzww1gq3" transform="translate(25 6)"><path d="M 1e-13 1e-13 L 5 0" fill="none" stroke="#ff0000"/></g></g></g></svg>