<?xml version="1.0" encoding="UTF-8"?>
<svg xmlns="http://www.w3.org/2000/svg" viewBox="0 0 64 64"><g id="kmbq08ubhov" class="Group.cls" transform="translate(5 1)"><g class="Prim.cls"><g id="kmbq08uchow" transform="translate(27.5 1.5)"><path d="M 0 30 L 1e-13 1e-13" fill="none" stroke-linecap="square" stroke="#000000" stroke-width="0.5"/></g><g id="kmbq08uchox" transform="translate(2.5 31.5)"><path d="M 1e-13 1e-13 L 50 0" fill="none" stroke="#000000" stroke-width="0.5"/></g><g id="kmbq08uchoy" transform="translate(17.5 26.5)"><path fill="white" d="M 20 10 L 20 0 L 0 10 L 0 0 Z" stroke="#000000" stroke-width="0.5"/></g><g id="kmbq08uchoz" transform="translate(22.5 2.5)"><rect fill="white" height="10" stroke-linecap="square" stroke="#000000" stroke-width="0.5" width="10" x="0" y="0"/></g><g id="kmbq08uchp0" transform="translate(25.439 3.874)"><path d="M 2.0234 3.2305 Q 1.0586 2.9531 0.6191 2.5488 Q 0.1797 2.1445 0.1797 1.5508 Q 0.1797 0.8789 0.7168 0.4395 Q 1.2539 0 2.1133 0 Q 2.6992 0 3.1582 0.2266 Q 3.6172 0.4531 3.8691 0.8516 Q 4.1211 1.25 4.1211 1.7227 L 3.3672 1.7227 Q 3.3672 1.207 3.0391 0.9121 Q 2.7109 0.6172 2.1133 0.6172 Q 1.5586 0.6172 1.248 0.8613 Q 0.9375 1.1055 0.9375 1.5391 Q 0.9375 1.8867 1.2324 2.127 Q 1.5273 2.3672 2.2363 2.5664 Q 2.9453 2.7656 3.3457 3.0059 Q 3.7461 3.2461 3.9395 3.5664 Q 4.1328 3.8867 4.1328 4.3203 Q 4.1328 5.0117 3.5938 5.4277 Q 3.0547 5.8438 2.1523 5.8438 Q 1.5664 5.8438 1.0586 5.6191 Q 0.5508 5.3945 0.2754 5.0039 Q 0 4.6133 0 4.1172 L 0.7539 4.1172 Q 0.7539 4.6328 1.1348 4.9316 Q 1.5156 5.2305 2.1523 5.2305 Q 2.7461 5.2305 3.0625 4.9883 Q 3.3789 4.7461 3.3789 4.3281 Q 3.3789 3.9102 3.0859 3.6816 Q 2.793 3.4531 2.0234 3.2305 Z" fill="#000000" stroke="none" stroke-linecap="butt" stroke-width="0.5"/></g><g id="kmbq08uchp1" transform="translate(27.5 16.5)"><path d="M 1e-13 1e-13 L 6 0" fill="none" stroke-linecap="butt" stroke="#000000" stroke-width="0.5"/></g><g id="kmbq08uchp2" transform="translate(33.5 9)"><path fill="white" d="M 0 7.5 L 7 0 L 14 7.5 L 7 15 Z" stroke-linecap="butt" stroke="#000000" stroke-width="0.5"/></g><g id="kmbq08uchp3" transform="translate(38.194 13.453)"><path d="M 3.3242 5.6875 L 2.0898 3.3867 L 0.7539 3.3867 L 0.7539 5.6875 L 0 5.6875 L 0 0 L 1.8828 0 Q 2.8438 0 3.3613 0.4375 Q 3.8789 0.875 3.8789 1.7109 Q 3.8789 2.2422 3.5918 2.6367 Q 3.3047 3.0313 2.793 3.2266 L 4.1289 5.6406 L 4.1289 5.6875 L 3.3242 5.6875 Z M 0.7539 0.6172 L 0.7539 2.7734 L 1.9063 2.7734 Q 2.4648 2.7734 2.7949 2.4844 Q 3.125 2.1953 3.125 1.7109 Q 3.125 1.1836 2.8105 0.9023 Q 2.4961 0.6211 1.9023 0.6172 L 0.7539 0.6172 Z" fill="#000000" stroke="none" stroke-linecap="butt" stroke-width="0.5"/></g><g id="kmbq08uchp4" transform="translate(2.5 29) rotate(180 0 2.5)"><path d="M 1e-13 1e-13 L 0 5" fill="none" stroke="#ff0000"/></g><g id="kmbq08uchp5" transform="translate(0 31.5) rotate(180 1.25 0)"><path d="M 1e-13 1e-13 L 2.5 0" fill="none" stroke="#ff0000"/></g><g id="kmbq08uchp6" transform="translate(52.5 29) rotate(180 0 2.5)"><path d="M 1e-13 1e-13 L 0 5" fill="none" stroke="#ff0000"/></g><g id="kmbq08uchp7" transform="translate(52.5 31.5) rotate(180 1.25 0)"><path d="M 2.5 0 L 1e-13 1e-13" fill="none" stroke="#ff0000"/></g><g id="kmbq08uchp8" transform="translate(27.5 29) rotate(180 0 2.5)"><path d="M 1e-13 1e-13 L 0 5" fill="none" stroke="#ff0000"/></g><g id="kmbq08uchp9" transform="translate(25 31.5) rotate(180 2.5 0)"><path d="M 1e-13 1e-13 L 5 0" fill="none" stroke="#ff0000"/></g><g id="kmbq08uchpa" transform="translate(27.5 0) rotate(180 0 1.25)"><path d="M 1e-13 1e-13 L 0 2.5" fill="none" stroke="#ff0000"/></g><g id="kmbq08uchpb" transform="translate(25 2.5) rotate(180 2.5 0)"><path d="M 1e-13 1e-13 L 5 0" fill="none" stroke="#ff0000"/></g><g id="kmbq08uchpc" transform="translate(52.5 29)"><path d="M 1e-13 1e-13 L 0 5" fill="none" stroke="#ff0000"/></g><g id="kmbq08uchpd" transform="translate(52.5 31.5)"><path d="M 1e-13 1e-13 L 2.5 0" fill="none" stroke="#ff0000"/></g><g id="kmbq08uchpe" transform="translate(2.5 29) rotate(180 0 2.5)"><path d="M 1e-13 1e-13 L 0 5" fill="none" stroke="#ff0000"/></g><g id="kmbq08uchpf" transform="translate(0 31.5) rotate(180 1.25 0)"><path d="M 1e-13 1e-13 L 2.5 0" fill="none" stroke="#ff0000"/></g><g id="kmbq08uchpg" transform="translate(47.5 13.5)"><path d="M 1e-13 1e-13 L 0 5" fill="none" stroke="#ff0000"/></g><g id="kmbq08uchph" transform="translate(47.5 16)"><path d="M 1e-13 1e-13 L 2.5 0" fill="none" stroke="#ff0000"/></g><g id="kmbq08uchpi" transform="translate(40.5 6.5) rotate(90 0 2.5)"><path d="M 1e-13 1e-13 L 0 5" fill="none" stroke="#ff0000"/></g><g id="kmbq08uchpj" transform="translate(39.25 7.75) rotate(90 1.25 0)"><path d="M 2.5 0 L 1e-13 1e-13" fill="none" stroke="#ff0000"/></g><g id="kmbq08uchpk" transform="translate(40.5 20.5) rotate(90 0 2.5)"><path d="M 1e-13 1e-13 L 0 5" fill="none" stroke="#ff0000"/></g><g id="kmbq08uchpl" transform="translate(39.25 24.25) rotate(90 1.25 0)"><path d="M 1e-13 1e-13 L 2.5 0" fill="none" stroke="#ff0000"/></g><g id="kmbq08uchpm" transform="translate(32.5 5)"><path d="M 1e-13 1e-13 L 0 5" fill="none" stroke="#ff0000"/></g><g id="kmbq08uchpn" transform="translate(32.5 7.5)"><path d="M 1e-13 1e-13 L 2.5 0" fill="none" stroke="#ff0000"/></g><g id="kmbq08uchpo" transform="translate(22.5 5)"><path d="M 1e-13 1e-13 L 0 5" fill="none" stroke="#ff0000"/></g><g id="kmbq08udhpp" transform="translate(20 7.5)"><path d="M 2.5 0 L 1e-13 1e-13" fill="none" stroke="#ff0000"/></g></g></g></svg>