<?xml version="1.0" encoding="UTF-8"?>
<svg xmlns:xlink="http://www.w3.org/1999/xlink" xmlns="http://www.w3.org/2000/svg" viewBox="0 0 64 64"><g id="kmbq0bjji1n" class="Group.cls" transform="translate(10 20)"><g class="Prim.cls"><g id="kmbq0bjki1o" transform="translate(17.5 17.5) rotate(90 5 5)"><path fill="white" d="M 10 0 L 10 10 L 0 5 Z" stroke-linecap="square" stroke="#000000" stroke-width="0.5"/></g><g id="kmbq0bjki1p" transform="translate(2.5 17.5)"><path d="M 3.5625 0 L 10 0" fill="none" stroke="#000000" stroke-width="0.5"/><use class="BeginArrow.cls" fill="#000000" stroke-width="1.3333333333333333" transform="scale(0.375) rotate(270 0 0)" x="0" xlink:href="#icon_qMOy3kbetCUlRsZEnV2dOl_thin.end" y="0"/></g><g id="kmbq0bjki1q" transform="translate(12.5 12.5)"><path fill="white" d="M 0 0 L 0 10 L 10 5 Z" stroke-linecap="square" stroke="#000000" stroke-width="0.5"/></g><g id="kmbq0bjki1r" transform="translate(22.5 2.5)"><path d="M 0 15 L 1e-13 1e-13" fill="none" stroke-linecap="square" stroke="#000000" stroke-width="0.5"/></g><g id="kmbq0bjki1s" transform="translate(22.5 27.5)"><path d="M 0 10 L 1e-13 1e-13" fill="none" stroke-linecap="square" stroke="#000000" stroke-width="0.5"/></g><g id="kmbq0bjki1t" transform="translate(19.633 8.317)"><path d="M 5.3666 2.6833 L 1e-13 1e-13" fill="none" stroke-linecap="square" stroke="#000000" stroke-width="0.5"/></g><g id="kmbq0bjki1u" transform="translate(20.528 6.264)"><path d="M 4.4721 2.2361 L 1e-13 1e-13" fill="none" stroke-linecap="square" stroke="#000000" stroke-width="0.5"/></g><g id="kmbq0bjki1v" transform="translate(20.922 3.711)"><path d="M 3.5777 1.7889 L 1e-13 1e-13" fill="none" stroke-linecap="square" stroke="#000000" stroke-width="0.5"/></g><g id="kmbq0bjki1w" transform="translate(22.5 35) rotate(90 0 2.5)"><path d="M 1e-13 1e-13 L 0 5" fill="none" stroke="#ff0000"/></g><g id="kmbq0bjki1x" transform="translate(21.25 38.75) rotate(90 1.25 0)"><path d="M 1e-13 1e-13 L 2.5 0" fill="none" stroke="#ff0000"/></g><g id="kmbq0bjki1y" transform="translate(2.5 15)"><path d="M 1e-13 1e-13 L 0 5" fill="none" stroke="#ff0000"/></g><g id="kmbq0bjki1z" transform="translate(0 17.5)"><path d="M 2.5 0 L 1e-13 1e-13" fill="none" stroke="#ff0000"/></g><g id="kmbq0bjki20" transform="translate(22.5 0) rotate(90 0 2.5)"><path d="M 1e-13 1e-13 L 0 5" fill="none" stroke="#ff0000"/></g><g id="kmbq0bjki21" transform="translate(21.25 1.25) rotate(90 1.25 0)"><path d="M 2.5 0 L 1e-13 1e-13" fill="none" stroke="#ff0000"/></g></g></g></svg>