<?xml version="1.0" encoding="UTF-8"?>
<svg xmlns="http://www.w3.org/2000/svg" viewBox="0 0 64 64"><g id="kmbq00eqgva" class="Group.cls" transform="translate(5 22.5)"><g class="Prim.cls"><g id="kmbq00eqgvb" transform="translate(2.5 10)"><path d="M 1e-13 1e-13 L 50 0" fill="none" stroke="#000000" stroke-width="0.5"/></g><g id="kmbq00eqgvc" transform="translate(17.5 0)"><ellipse fill="white" cx="10" cy="10" rx="10" ry="10" stroke="#000000" stroke-width="0.5"/></g><g id="kmbq00eqgvd" transform="translate(17.5 0)"><path d="M 0 20 L 1e-13 1e-13" fill="none" stroke="#000000" stroke-width="0.5"/></g><g id="kmbq00eqgve" transform="translate(37.5 0)"><path d="M 0 20 L 1e-13 1e-13" fill="none" stroke="#000000" stroke-width="0.5"/></g><g id="kmbq00eqgvf" transform="translate(52.5 7.5)"><path d="M 1e-13 1e-13 L 0 5" fill="none" stroke="#ff0000" stroke-width="1"/></g><g id="kmbq00eqgvg" transform="translate(52.5 10)"><path d="M 1e-13 1e-13 L 2.5 0" fill="none" stroke="#ff0000" stroke-width="1"/></g><g id="kmbq00eqgvh" transform="translate(2.5 7.5) rotate(180 0 2.5)"><path d="M 1e-13 1e-13 L 0 5" fill="none" stroke="#ff0000" stroke-width="1"/></g><g id="kmbq00eqgvi" transform="translate(0 10) rotate(180 1.25 0)"><path d="M 1e-13 1e-13 L 2.5 0" fill="none" stroke="#ff0000" stroke-width="1"/></g><g id="kmbq00ergvj" transform="translate(27.5 7.5)"><path d="M 1e-13 1e-13 L 0 5" fill="none" stroke="#ff0000"/></g><g id="kmbq00ergvk" transform="translate(25 10)"><path d="M 1e-13 1e-13 L 5 0" fill="none" stroke="#ff0000"/></g></g></g></svg>