<?xml version="1.0" encoding="UTF-8"?>
<svg xmlns="http://www.w3.org/2000/svg" viewBox="0 0 64 64"><g id="kmbq0707hfv" class="Group.cls" transform="translate(5 0)"><g class="Prim.cls"><g id="kmbq0708hfw" transform="translate(2.5 32.5)"><path d="M 1e-13 1e-13 L 50 0" fill="none" stroke="#000000" stroke-width="0.5"/></g><g id="kmbq0708hfx" transform="translate(17.5 27.5)"><path fill="white" d="M 20 10 L 20 0 L 0 10 L 0 0 Z" stroke="#000000" stroke-width="0.5"/></g><g id="kmbq0708hfy" transform="translate(27.5 12.5)"><path d="M 0 20 L 1e-13 1e-13" fill="none" stroke-linecap="square" stroke="#000000" stroke-width="0.5"/></g><g id="kmbq0708hfz" transform="translate(22.5 7.5)"><path d="M 1e-13 1e-13 L 10 0" fill="none" stroke-linecap="square" stroke="#000000" stroke-width="0.5"/></g><g id="kmbq0708hg0" transform="translate(21.5 2.5)"><path fill="white" d="M 12 5 L 0 5 C 0.5 2 3.4284 0 6 0 C 8.5716 0 11.5 2 12 5 Z" stroke="#000000" stroke-width="0.5"/></g><g id="kmbq0708hg1" transform="translate(22.5 7.5) rotate(180 5 0)"><path d="M 10 0 L 1e-13 1e-13" fill="none" stroke-linecap="square" stroke="#000000" stroke-width="0.5"/></g><g id="kmbq0708hg2" transform="translate(21.5 7.5) rotate(180 6 2.5)"><path fill="white" d="M 0 5 L 12 5 C 11.5 2 8.5716 0 6 0 C 3.4284 0 0.5 2 0 5 Z" stroke="#000000" stroke-width="0.5"/></g><g id="kmbq0708hg3" transform="translate(52.5 30)"><path d="M 1e-13 1e-13 L 0 5" fill="none" stroke="#ff0000"/></g><g id="kmbq0708hg4" transform="translate(52.5 32.5)"><path d="M 1e-13 1e-13 L 2.5 0" fill="none" stroke="#ff0000"/></g><g id="kmbq0708hg5" transform="translate(2.5 30) rotate(180 0 2.5)"><path d="M 1e-13 1e-13 L 0 5" fill="none" stroke="#ff0000"/></g><g id="kmbq0708hg6" transform="translate(0 32.5) rotate(180 1.25 0)"><path d="M 1e-13 1e-13 L 2.5 0" fill="none" stroke="#ff0000"/></g><g id="kmbq0708hg7" transform="translate(27.5 30) rotate(180 0 2.5)"><path d="M 1e-13 1e-13 L 0 5" fill="none" stroke="#ff0000"/></g><g id="kmbq0708hg8" transform="translate(25 32.5) rotate(180 2.5 0)"><path d="M 1e-13 1e-13 L 5 0" fill="none" stroke="#ff0000"/></g><g id="kmbq0708hg9" transform="translate(27.5 0) rotate(180 0 1.25)"><path d="M 1e-13 1e-13 L 3.061616997868383e-16 2.5" fill="none" stroke="#ff0000"/></g><g id="kmbq0708hga" transform="translate(25 2.5) rotate(180 2.5 0)"><path d="M 1e-13 1e-13 L 5 0" fill="none" stroke="#ff0000"/></g><g id="kmbq0708hgb" transform="translate(27.5 12.5)"><path d="M 3.061616997868383e-16 0 L 0 2.5" fill="none" stroke="#ff0000"/></g><g id="kmbq0708hgc" transform="translate(25 12.5)"><path d="M 5 0 L 1e-13 1e-13" fill="none" stroke="#ff0000"/></g><g id="kmbq0708hgd" transform="translate(34.75 6.25) rotate(270 0 1.25)"><path d="M 1e-13 1e-13 L 0 2.5" fill="none" stroke="#ff0000"/></g><g id="kmbq0708hge" transform="translate(31 7.5) rotate(270 2.5 0)"><path d="M 5 0 L 1e-13 1e-13" fill="none" stroke="#ff0000"/></g><g id="kmbq0708hgf" transform="translate(20.25 6.25) rotate(90 0 1.25)"><path d="M 1e-13 1e-13 L 0 2.5" fill="none" stroke="#ff0000"/></g><g id="kmbq0708hgg" transform="translate(19 7.5) rotate(90 2.5 0)"><path d="M 1.0036416142611415e-13 0 L 5 1e-13" fill="none" stroke="#ff0000"/></g><g id="kmbq0708hgh" transform="translate(27.5 20) rotate(180 0 2.5)"><path d="M 1e-13 1e-13 L 0 5" fill="none" stroke="#ff0000"/></g><g id="kmbq0708hgi" transform="translate(25 22.5) rotate(180 2.5 0)"><path d="M 1e-13 1e-13 L 5 0" fill="none" stroke="#ff0000"/></g></g></g></svg>