<?xml version="1.0" encoding="UTF-8"?>
<svg xmlns="http://www.w3.org/2000/svg" viewBox="0 0 64 64"><g id="kmbq05nwh8y" class="Group.cls" transform="translate(5 20)"><g class="Prim.cls"><g id="kmbq05nxh8z" transform="translate(40.5 12.5)"><path d="M 13.0001 0 L 1e-13 1e-13" fill="none" stroke="#000000" stroke-opacity="1" stroke-width="0.5"/></g><g id="kmbq05nxh90" transform="translate(2.5 12.5)"><path d="M 1e-13 1e-13 L 50 0" fill="none" stroke="#000000" stroke-width="0.5"/></g><g id="kmbq05nxh91" transform="translate(17.5 7.5)"><path fill="white" d="M 20 10 L 20 0 L 0 10 L 0 0 Z" stroke="#000000" stroke-width="0.5"/></g><g id="kmbq05nxh92" transform="translate(27.5 2.5)"><path d="M 0 10 L 1e-13 1e-13" fill="none" stroke="#000000" stroke-width="0.5"/></g><g id="kmbq05nxh93" transform="translate(22.5 2.5)"><path d="M 1e-13 1e-13 L 10 0" fill="none" stroke="#000000" stroke-width="0.5"/></g><g id="kmbq05nxh94" transform="translate(52.5 10)"><path d="M 1e-13 1e-13 L 0 5" fill="none" stroke="#ff0000" stroke-width="1"/></g><g id="kmbq05nxh95" transform="translate(52.5 12.5)"><path d="M 1e-13 1e-13 L 2.5 0" fill="none" stroke="#ff0000" stroke-width="1"/></g><g id="kmbq05nxh96" transform="translate(2.5 10) rotate(180 0 2.5)"><path d="M 1e-13 1e-13 L 0 5" fill="none" stroke="#ff0000" stroke-width="1"/></g><g id="kmbq05nxh97" transform="translate(0 12.5) rotate(180 1.25 0)"><path d="M 1e-13 1e-13 L 2.5 0" fill="none" stroke="#ff0000" stroke-width="1"/></g><g id="kmbq05nxh98" transform="translate(27.5 10) rotate(180 0 2.5)"><path d="M 1e-13 1e-13 L 0 5" fill="none" stroke="#ff0000"/></g><g id="kmbq05nxh99" transform="translate(25 12.5) rotate(180 2.5 0)"><path d="M 1e-13 1e-13 L 5 0" fill="none" stroke="#ff0000"/></g><g id="kmbq05nxh9a" transform="translate(27.5 0) rotate(180 0 1.25)"><path d="M 1e-13 1e-13 L 3.061616997868383e-16 2.5" fill="none" stroke="#ff0000"/></g><g id="kmbq05nxh9b" transform="translate(25 2.5) rotate(180 2.5 0)"><path d="M 1e-13 1e-13 L 5 0" fill="none" stroke="#ff0000"/></g></g></g></svg>