<?xml version="1.0" encoding="UTF-8"?>
<svg xmlns="http://www.w3.org/2000/svg" viewBox="0 0 64 64"><g id="kmbq07gwhi2" class="Group.cls" transform="translate(5 0)"><g class="Prim.cls"><g id="kmbq07gxhi3" transform="translate(2.5 30) rotate(180 0 2.5)"><path d="M 1e-13 1e-13 L 0 5" fill="none" stroke="#ff0000"/></g><g id="kmbq07gxhi4" transform="translate(0 32.5) rotate(180 1.25 0)"><path d="M 1e-13 1e-13 L 2.5 0" fill="none" stroke="#ff0000"/></g><g id="kmbq07gxhi5" transform="translate(52.5 30) rotate(180 0 2.5)"><path d="M 1e-13 1e-13 L 0 5" fill="none" stroke="#ff0000"/></g><g id="kmbq07gxhi6" transform="translate(52.5 32.5) rotate(180 1.25 0)"><path d="M 2.5 0 L 1e-13 1e-13" fill="none" stroke="#ff0000"/></g><g id="kmbq07gxhi7" transform="translate(22.5 2.5)"><rect fill="white" height="10" stroke-linecap="square" stroke="#000000" stroke-width="0.5" width="10" x="0" y="0"/></g><g id="kmbq07gxhi8" transform="translate(27.5 7.5)"><path d="M 0 25 L 1e-13 1e-13" fill="none" stroke-linecap="square" stroke="#000000" stroke-width="0.5"/></g><g id="kmbq07gxhi9" transform="translate(22.5 7.5)"><path d="M 10 0 L 1e-13 1e-13" fill="none" stroke-linecap="square" stroke="#000000" stroke-width="0.5"/></g><g id="kmbq07gxhia" transform="translate(2.5 32.5)"><path d="M 1e-13 1e-13 L 50 0" fill="none" stroke="#000000" stroke-width="0.5"/></g><g id="kmbq07gxhib" transform="translate(17.5 27.5)"><path fill="white" d="M 20 10 L 20 0 L 0 10 L 0 0 Z" stroke="#000000" stroke-width="0.5"/></g><g id="kmbq07gxhic" transform="translate(22.5 7.5)"><path d="M 1e-13 1e-13 L 10 0" fill="none" stroke-linecap="square" stroke="#000000" stroke-width="0.5"/></g><g id="kmbq07gxhid" transform="translate(22.5 7.5) rotate(180 5 0)"><path d="M 10 0 L 1e-13 1e-13" fill="none" stroke-linecap="square" stroke="#000000" stroke-width="0.5"/></g><g id="kmbq07gxhie" transform="translate(52.5 30)"><path d="M 1e-13 1e-13 L 0 5" fill="none" stroke="#ff0000" stroke-width="1"/></g><g id="kmbq07gxhif" transform="translate(52.5 32.5)"><path d="M 1e-13 1e-13 L 2.5 0" fill="none" stroke="#ff0000" stroke-width="1"/></g><g id="kmbq07gxhig" transform="translate(2.5 30) rotate(180 0 2.5)"><path d="M 1e-13 1e-13 L 0 5" fill="none" stroke="#ff0000" stroke-width="1"/></g><g id="kmbq07gxhih" transform="translate(0 32.5) rotate(180 1.25 0)"><path d="M 1e-13 1e-13 L 2.5 0" fill="none" stroke="#ff0000" stroke-width="1"/></g><g id="kmbq07gxhii" transform="translate(27.5 30) rotate(180 0 2.5)"><path d="M 1e-13 1e-13 L 0 5" fill="none" stroke="#ff0000" stroke-width="1"/></g><g id="kmbq07gxhij" transform="translate(25 32.5) rotate(180 2.5 0)"><path d="M 1e-13 1e-13 L 5 0" fill="none" stroke="#ff0000" stroke-width="1"/></g><g id="kmbq07gxhik" transform="translate(27.5 0) rotate(180 0 1.25)"><path d="M 1e-13 1e-13 L 3.061616997868383e-16 2.5" fill="none" stroke="#ff0000" stroke-width="1"/></g><g id="kmbq07gxhil" transform="translate(25 2.5) rotate(180 2.5 0)"><path d="M 1e-13 1e-13 L 5 0" fill="none" stroke="#ff0000" stroke-width="1"/></g><g id="kmbq07gxhim" transform="translate(27.5 12.5)"><path d="M 3.061616997868383e-16 0 L 0 2.5" fill="none" stroke="#ff0000" stroke-width="1"/></g><g id="kmbq07gxhin" transform="translate(25 12.5)"><path d="M 5 0 L 1e-13 1e-13" fill="none" stroke="#ff0000" stroke-width="1"/></g><g id="kmbq07gxhio" transform="translate(33.75 6.25) rotate(270 0 1.25)"><path d="M 1e-13 1e-13 L 0 2.5" fill="none" stroke="#ff0000" stroke-width="1"/></g><g id="kmbq07gxhip" transform="translate(30 7.5) rotate(270 2.5 0)"><path d="M 5 0 L 1e-13 1e-13" fill="none" stroke="#ff0000" stroke-width="1"/></g><g id="kmbq07gyhiq" transform="translate(21.25 6.25) rotate(90 0 1.25)"><path d="M 1e-13 1e-13 L 0 2.5" fill="none" stroke="#ff0000" stroke-width="1"/></g><g id="kmbq07gyhir" transform="translate(20 7.5) rotate(90 2.5 0)"><path d="M 1e-13 1e-13 L 5 0" fill="none" stroke="#ff0000" stroke-width="1"/></g><g id="kmbq07gyhis" transform="translate(27.5 20) rotate(180 0 2.5)"><path d="M 1e-13 1e-13 L 0 5" fill="none" stroke="#ff0000" stroke-width="1"/></g><g id="kmbq07gyhit" transform="translate(25 22.5) rotate(180 2.5 0)"><path d="M 1e-13 1e-13 L 5 0" fill="none" stroke="#ff0000" stroke-width="1"/></g></g></g></svg>