<?xml version="1.0" encoding="UTF-8"?>
<svg xmlns="http://www.w3.org/2000/svg" viewBox="0 0 64 64"><g id="kmbq01obgx8" class="Group.cls" transform="translate(5 25.01)"><g class="Prim.cls"><g id="kmbq01ocgx9" transform="translate(12.5 2.49)"><path d="M 1e-13 1e-13 L 0 10 L 15 0 L 30 10 L 30 0" fill="#ffffff" fill-opacity="1" stroke-linecap="square" stroke="#000000" stroke-width="0.5"/></g><g id="kmbq01ocgxa" transform="translate(12.5 2.49)"><path d="M 1e-13 1e-13 L 30 0" fill="#ffffff" fill-opacity="1" stroke-linecap="square" stroke="#000000" stroke-width="0.5"/></g><g id="kmbq01ocgxb" transform="translate(42.5 7.49)"><path d="M 1e-13 1e-13 L 10 0" fill="#ffffff" fill-opacity="1" stroke-linecap="square" stroke="#000000" stroke-width="0.5"/></g><g id="kmbq01ocgxc" transform="translate(2.5 7.49)"><path d="M 10 0 L 1e-13 1e-13" fill="#ffffff" fill-opacity="1" stroke-linecap="square" stroke="#000000" stroke-width="0.5"/></g><g id="kmbq01ocgxd" transform="translate(52.5 4.99)"><path d="M 1e-13 1e-13 L 0 5" fill="#000000" fill-opacity="1" stroke="#ff0000" stroke-width="1"/></g><g id="kmbq01ocgxe" transform="translate(52.5 7.49)"><path d="M 1e-13 1e-13 L 2.5 0" fill="#000000" fill-opacity="1" stroke="#ff0000" stroke-width="1"/></g><g id="kmbq01ocgxf" transform="translate(2.5 4.99) rotate(180 0 2.5)"><path d="M 1e-13 1e-13 L 0 5" fill="#000000" fill-opacity="1" stroke="#ff0000" stroke-width="1"/></g><g id="kmbq01ocgxg" transform="translate(0 7.49) rotate(180 1.25 0)"><path d="M 1e-13 1e-13 L 2.5 0" fill="#000000" fill-opacity="1" stroke="#ff0000" stroke-width="1"/></g><g id="kmbq01ocgxh" transform="translate(27.5 -0.01) rotate(270 0 2.5)"><path d="M 1e-13 1e-13 L 0 5" fill="#000000" fill-opacity="1" stroke="#ff0000" stroke-width="1"/></g><g id="kmbq01ocgxi" transform="translate(26.255 1.245) rotate(270 1.245 0)"><path d="M 1e-13 1e-13 L 2.4896 0.0001" fill="#000000" fill-opacity="1" stroke="#ff0000" stroke-width="1"/></g></g></g></svg>