<?xml version="1.0" encoding="UTF-8"?>
<svg xmlns="http://www.w3.org/2000/svg" viewBox="0 0 64 64"><g id="kmbq04b3h4y" class="Group.cls" transform="translate(27.5 27.5)"><g class="Prim.cls"><g id="kmbq04b4h4z" transform="translate(0.068 4.977) rotate(90 4.977 5.045)"><path fill="white" d="M 9.9546 0 L 9.9546 10.0909 L 0 5.0455 Z" stroke-linecap="square" stroke="#000000" stroke-width="0.5"/></g><g id="kmbq04b4h50" transform="translate(15.136 5.045)"><path d="M 10.0909 0 L 1e-13 1e-13" fill="none" stroke="#000000" stroke-width="0.5"/></g><g id="kmbq04b4h51" transform="translate(5.045 0)"><path fill="white" d="M 9.9546 0 L 9.9546 10.0909 L 0 5.0455 Z" stroke-linecap="square" stroke="#000000" stroke-width="0.5"/></g><g id="kmbq04b5h52" transform="translate(5.045 15.136)"><path d="M 0 10.0909 L 1e-13 1e-13" fill="none" stroke-linecap="square" stroke="#000000" stroke-width="0.5"/></g><g id="kmbq04b5h53" transform="translate(25 2.5)"><path d="M 1e-13 1e-13 L 0 5.0455" fill="none" stroke="#ff0000" stroke-width="1"/></g><g id="kmbq04b5h54" transform="translate(25 5.023)"><path d="M 1e-13 1e-13 L 2.5227 0" fill="none" stroke="#ff0000" stroke-width="1"/></g><g id="kmbq04b5h55" transform="translate(5.023 22.977) rotate(90 0 2.523)"><path d="M 1e-13 1e-13 L 0 5.0455" fill="none" stroke="#ff0000" stroke-width="1"/></g><g id="kmbq04b5h56" transform="translate(3.761 26.761) rotate(90 1.261 0)"><path d="M 1e-13 1e-13 L 2.5227 0" fill="none" stroke="#ff0000" stroke-width="1"/></g><g id="kmbq04b5h57" transform="translate(5 2.5) rotate(180 0 2.5)"><path d="M 1e-13 1e-13 L 0 5" fill="none" stroke="#ff0000"/></g><g id="kmbq04b5h58" transform="translate(2.5 5) rotate(180 2.5 0)"><path d="M 1e-13 1e-13 L 5 0" fill="none" stroke="#ff0000"/></g></g></g></svg>