<?xml version="1.0" encoding="UTF-8"?>
<svg xmlns="http://www.w3.org/2000/svg" viewBox="0 0 64 64"><g id="kmbq02zogzb" class="Group.cls" transform="translate(10 22.5)"><g class="Prim.cls"><g id="kmbq02zpgzc" transform="translate(22.5 10)"><path d="M 1e-13 1e-13 L 20 20" fill="none" stroke-dasharray="none" stroke="#000000" stroke-width="0.5"/></g><g id="kmbq02zpgzd" transform="translate(39.5 27)"><path d="M 6 0 L 0 6" fill="none" stroke-dasharray="none" stroke="#000000" stroke-width="0.5"/></g><g id="kmbq02zpgze" transform="translate(12.5 0)"><ellipse fill="white" cx="10" cy="10" rx="10" ry="10" stroke-dasharray="none" stroke="#000000" stroke-width="0.5"/></g><g id="kmbq02zpgzf" transform="translate(2.5 5)"><path d="M 1e-13 1e-13 L 0 10" fill="none" stroke-dasharray="none" stroke="#000000" stroke-width="0.5"/></g><g id="kmbq02zpgzg" transform="translate(42.5 5)"><path d="M 1e-13 1e-13 L 0 10" fill="none" stroke-dasharray="none" stroke="#000000" stroke-width="0.5"/></g><g id="kmbq02zpgzh" transform="translate(2.5 10)"><path d="M 1e-13 1e-13 L 40 0" fill="none" stroke-dasharray="none" stroke="#000000" stroke-width="0.5"/></g><g id="kmbq02zpgzi" transform="translate(0 10) rotate(270 2.5 0)"><path d="M 5 0 L 1e-13 1e-13" fill="none" stroke="#ff0000" stroke-dasharray="none" stroke-width="1"/></g><g id="kmbq02zpgzj" transform="translate(1.25 8.75) rotate(270 0 1.25)"><path d="M 1e-13 1e-13 L 0 2.5" fill="none" stroke="#ff0000" stroke-dasharray="none" stroke-width="1"/></g><g id="kmbq02zpgzk" transform="translate(40 10) rotate(90 2.5 0)"><path d="M 1.0036416142611415e-13 0 L 5 1e-13" fill="none" stroke="#ff0000" stroke-dasharray="none" stroke-width="1"/></g><g id="kmbq02zpgzl" transform="translate(43.75 8.75) rotate(90 0 1.25)"><path d="M 1e-13 1e-13 L 0 2.5" fill="none" stroke="#ff0000" stroke-dasharray="none" stroke-width="1"/></g></g></g></svg>