<?xml version="1.0" encoding="UTF-8"?>
<svg xmlns:xlink="http://www.w3.org/1999/xlink" xmlns="http://www.w3.org/2000/svg" viewBox="0 0 64 64"><g id="kmbq0cfei5o" class="Group.cls" transform="translate(25 17.5)"><g class="Prim.cls"><g id="kmbq0cffi5p" transform="translate(7.5 37.5) rotate(90 0 2.5)"><path d="M 1e-13 1e-13 L 0 5" fill="none" stroke="#ff0000"/></g><g id="kmbq0cffi5q" transform="translate(6.25 41.25) rotate(90 1.25 0)"><path d="M 1e-13 1e-13 L 2.5 0" fill="none" stroke="#ff0000"/></g><g id="kmbq0cffi5r" transform="translate(27.5 17.5) rotate(180 0 2.5)"><path d="M 1e-13 1e-13 L 0 5" fill="none" stroke="#ff0000"/></g><g id="kmbq0cffi5s" transform="translate(27.5 20) rotate(180 1.25 0)"><path d="M 2.5 0 L 1e-13 1e-13" fill="none" stroke="#ff0000"/></g><g id="kmbq0cffi5t" transform="translate(2.5 0)"><rect fill="white" height="15" stroke-linecap="butt" stroke="#000000" stroke-width="0.5" width="10" x="0" y="0"/></g><g id="kmbq0cffi5u" transform="translate(2.5 20) rotate(270 5 5)"><path fill="white" d="M 0 0 L 0 10 L 10 5 Z" stroke-linecap="square" stroke="#000000" stroke-width="0.5"/></g><g id="kmbq0cffi5v" transform="translate(17.5 20)"><path d="M 6.4375 0 L 1e-13 1e-13" fill="none" stroke="#000000" stroke-width="0.5"/><use class="BeginArrow.cls" fill="#000000" stroke-width="1.3333333333333333" transform="scale(0.375) rotate(90 26.667 0)" x="26.666666666666668" xlink:href="#icon_p_q6kDxCQgQbb82NTvf3Xq_thin.end" y="0"/></g><g id="kmbq0cffi5w" transform="translate(7.5 15)"><path fill="white" d="M 10 0 L 10 10 L 0 5 Z" stroke-linecap="square" stroke="#000000" stroke-width="0.5"/></g><g id="kmbq0cffi5x" transform="translate(7.5 0)"><path d="M 0 20 L 1e-13 1e-13" fill="none" stroke-linecap="square" stroke="#000000" stroke-width="0.5"/></g><g id="kmbq0cffi5y" transform="translate(7.5 30)"><path d="M 0 10 L 1e-13 1e-13" fill="none" stroke-linecap="square" stroke="#000000" stroke-width="0.5"/></g><g id="kmbq0cffi5z" transform="translate(12.5 4.5) rotate(180 0 2.5)"><path d="M 1e-13 1e-13 L 0 5" fill="none" stroke="#ff0000"/></g><g id="kmbq0cffi60" transform="translate(12.5 7) rotate(180 1.25 0)"><path d="M 2.5 0 L 1e-13 1e-13" fill="none" stroke="#ff0000"/></g><g id="kmbq0cffi61" transform="translate(2.5 4.5) rotate(180 0 2.5)"><path d="M 1e-13 1e-13 L 0 5" fill="none" stroke="#ff0000"/></g><g id="kmbq0cffi62" transform="translate(0 7) rotate(180 1.25 0)"><path d="M 1e-13 1e-13 L 2.5 0" fill="none" stroke="#ff0000"/></g></g></g></svg>