<?xml version="1.0" encoding="UTF-8"?>
<svg xmlns="http://www.w3.org/2000/svg" viewBox="0 0 64 64"><g id="kmbq0dchiae" class="Group.cls" transform="translate(5 7.5)"><g class="Prim.cls"><g id="kmbq0dchiaf" transform="translate(2.5 30)"><path d="M 1e-13 1e-13 L 50 0" fill="none" stroke="#000000" stroke-width="0.5"/></g><g id="kmbq0dchiag" transform="translate(17.5 25)"><path fill="white" d="M 20 10 L 20 0 L 0 10 L 0 0 Z" stroke="#000000" stroke-width="0.5"/></g><g id="kmbq0dchiah" transform="translate(27.5 10)"><path d="M 1e-13 1e-13 L 0 20" fill="none" stroke="#000000" stroke-width="0.5"/></g><g id="kmbq0dchiai" transform="translate(27.5 0)"><path d="M 0 10 L 1e-13 1e-13 L 10 0 L 10 10 L 0 30" fill="none" stroke-linecap="butt" stroke="#000000" stroke-width="0.5"/></g><g id="kmbq0dchiaj" transform="translate(21.5 10)"><path fill="white" d="M 12 5 L 0 5 C 1.1931 2.0067 3.4284 0 6 0 C 8.5716 0 10.8069 2.0067 12 5 Z" stroke="#000000" stroke-width="0.5"/></g><g id="kmbq0dchiak" transform="translate(52.5 27.5) rotate(180 0 2.5)"><path d="M 1e-13 1e-13 L 0 5" fill="none" stroke="#ff0000"/></g><g id="kmbq0dchial" transform="translate(52.5 30) rotate(180 1.25 0)"><path d="M 2.5 0 L 1e-13 1e-13" fill="none" stroke="#ff0000"/></g><g id="kmbq0dchiam" transform="translate(2.5 27.5) rotate(180 0 2.5)"><path d="M 1e-13 1e-13 L 0 5" fill="none" stroke="#ff0000"/></g><g id="kmbq0dchian" transform="translate(0 30) rotate(180 1.25 0)"><path d="M 1e-13 1e-13 L 2.5 0" fill="none" stroke="#ff0000"/></g><g id="kmbq0dchiao" transform="translate(27.5 27.5) rotate(180 0 2.5)"><path d="M 1e-13 1e-13 L 0 5" fill="none" stroke="#ff0000"/></g><g id="kmbq0dchiap" transform="translate(25 30) rotate(180 2.5 0)"><path d="M 1e-13 1e-13 L 5 0" fill="none" stroke="#ff0000"/></g></g></g></svg>