<?xml version="1.0" encoding="UTF-8"?>
<svg xmlns="http://www.w3.org/2000/svg" viewBox="0 0 64 64"><g id="kmbq03f2gzz" class="Group.cls" transform="translate(7 20)"><g class="Prim.cls"><g id="kmbq03f2h00" transform="translate(44.5 7.5)"><path d="M 1e-13 1e-13 L 0 10" fill="none" stroke="#000000" stroke-width="0.5"/></g><g id="kmbq03f2h01" transform="translate(6.5 7.5)"><path d="M 1e-13 1e-13 L 0 10" fill="none" stroke="#000000" stroke-width="0.5"/></g><g id="kmbq03f2h02" transform="translate(15.5 2.5)"><ellipse fill="white" cx="10" cy="10" rx="10" ry="10" stroke="#000000" stroke-width="0.5"/></g><g id="kmbq03f2h03" transform="translate(25.5 2.5)"><path d="M 1e-13 1e-13 L 0 20" fill="none" stroke="#000000" stroke-width="0.5"/></g><g id="kmbq03f2h04" transform="translate(15.5 12.5)"><path d="M 1e-13 1e-13 L 20 0" fill="none" stroke="#000000" stroke-width="0.5"/></g><g id="kmbq03f2h05" transform="translate(25.512 2.657) rotate(45 0 9.856)"><path d="M 1e-13 1e-13 L 0 19.7117" fill="none" stroke="#000000" stroke-width="0.5"/></g><g id="kmbq03f2h06" transform="translate(15.657 12.512) rotate(45 9.856 0)"><path d="M 1e-13 1e-13 L 19.7117 0" fill="none" stroke="#000000" stroke-width="0.5"/></g><g id="kmbq03f2h07" transform="translate(46 12.5) rotate(270 2.5 0)"><path d="M 1e-13 1e-13 L 5 0" fill="none" stroke="#ff0000" stroke-width="1"/></g><g id="kmbq03f2h08" transform="translate(49.75 11.25) rotate(270 0 1.25)"><path d="M 1e-13 1e-13 L 0 2.5" fill="none" stroke="#ff0000" stroke-width="1"/></g><g id="kmbq03f2h09" transform="translate(0 12.5) rotate(90 2.5 0)"><path d="M 5 0 L 1e-13 1e-13" fill="none" stroke="#ff0000" stroke-width="1"/></g><g id="kmbq03f2h0a" transform="translate(1.25 11.25) rotate(90 0 1.25)"><path d="M 1e-13 1e-13 L 0 2.5" fill="none" stroke="#ff0000" stroke-width="1"/></g><g id="kmbq03f2h0b" transform="translate(3 12.5)"><path d="M 3.5 0 L 1e-13 1e-13" fill="none" fill-opacity="0.4" stroke-linecap="butt" stroke="#000000" stroke-width="0.5"/></g><g id="kmbq03f2h0c" transform="translate(44.5 12.5)"><path d="M 3.5 0 L 1e-13 1e-13" fill="none" fill-opacity="0.4" stroke-linecap="butt" stroke="#000000" stroke-width="0.5"/></g><g id="kmbq03f2h0d" transform="translate(23 2.5) rotate(180 2.5 0)"><path d="M 5 0 L 1e-13 1e-13" fill="none" stroke="#ff0000" stroke-width="1"/></g><g id="kmbq03f2h0e" transform="translate(25.5 0) rotate(180 0 1.25)"><path d="M 1e-13 1e-13 L 0 2.5" fill="none" stroke="#ff0000" stroke-width="1"/></g><g id="kmbq03f2h0f" transform="translate(23 22.5)"><path d="M 5 0 L 1e-13 1e-13" fill="none" stroke="#ff0000" stroke-width="1"/></g><g id="kmbq03f2h0g" transform="translate(25.5 22.5)"><path d="M 1e-13 1e-13 L 0 2.5" fill="none" stroke="#ff0000" stroke-width="1"/></g></g></g></svg>