<?xml version="1.0" encoding="UTF-8"?>
<svg xmlns="http://www.w3.org/2000/svg" viewBox="0 0 64 64"><g id="kmbq08e8hmm" class="Group.cls" transform="translate(5 1)"><g class="Prim.cls"><g id="kmbq08e8hmn" transform="translate(2.563 31.563)"><path d="M 1e-13 1e-13 L 50 0" fill="none" stroke="#000000" stroke-width="0.5"/></g><g id="kmbq08e8hmo" transform="translate(17.563 26.563)"><path fill="white" d="M 20 10 L 20 0 L 0 10 L 0 0 Z" stroke="#000000" stroke-width="0.5"/></g><g id="kmbq08e8hmp" transform="translate(27.562 6.563)"><path d="M 0 25 L 1e-13 1e-13" fill="none" stroke-linecap="square" stroke="#000000" stroke-width="0.5"/></g><g id="kmbq08e8hmq" transform="translate(19.5 2.5)"><ellipse fill="white" cx="8" cy="8" rx="8" ry="8" stroke-linecap="square" stroke="#000000" stroke-width="0.5"/></g><g id="kmbq08e8hmr" transform="translate(22 8)"><path d="M 2.7613 2.1533 L 2.7613 2.6934 L 0.6442 2.6934 L 0.6442 4.4682 L 3.1034 4.4682 L 3.1034 5.0084 L 0 5.0084 L 0 0 L 3.0698 0 L 3.0698 0.5434 L 0.6442 0.5434 L 0.6442 2.1533 L 2.7613 2.1533 Z" fill="#000000" stroke="none" stroke-linecap="butt" stroke-width="0.5"/></g><g id="kmbq08e8hms" transform="translate(25.722 7.827)"><path d="M 2.536505057839127 0 L 0.5265220582983179 5.235304556943501 L 0 5.235304556943501 L 2.0132737624051735 0 L 2.536505057839127 0 Z" fill="#000000" stroke="none" stroke-linecap="butt" stroke-width="0.5"/></g><g id="kmbq08e8hmt" transform="translate(29.105 8.14)"><path d="M 3.9912 0 L 3.9912 5.0084 L 3.3027 5.0084 L 3.3027 2.6934 L 0.6849 2.6934 L 0.6849 5.0084 L 0 5.0084 L 0 0 L 0.6849 0 L 0.6849 2.1533 L 3.3027 2.1533 L 3.3027 0 L 3.9912 0 Z" fill="#000000" stroke="none" stroke-linecap="butt" stroke-width="0.5"/></g><g id="kmbq08e8hmu" transform="translate(2.563 29.063) rotate(180 0 2.5)"><path d="M 1e-13 1e-13 L 0 5" fill="none" stroke="#ff0000"/></g><g id="kmbq08e8hmv" transform="translate(0.063 31.563) rotate(180 1.25 0)"><path d="M 1e-13 1e-13 L 2.5 0" fill="none" stroke="#ff0000"/></g><g id="kmbq08e8hmw" transform="translate(52.563 29.063) rotate(180 0 2.5)"><path d="M 1e-13 1e-13 L 0 5" fill="none" stroke="#ff0000"/></g><g id="kmbq08e8hmx" transform="translate(52.563 31.562) rotate(180 1.25 0)"><path d="M 2.5 0 L 1e-13 1e-13" fill="none" stroke="#ff0000"/></g><g id="kmbq08e8hmy" transform="translate(27.5 29) rotate(180 0 2.5)"><path d="M 1e-13 1e-13 L 0 5" fill="none" stroke="#ff0000"/></g><g id="kmbq08e8hmz" transform="translate(25 31.5) rotate(180 2.5 0)"><path d="M 1e-13 1e-13 L 5 0" fill="none" stroke="#ff0000"/></g><g id="kmbq08e8hn0" transform="translate(27.5 0) rotate(180 0 1.25)"><path d="M 1e-13 1e-13 L 0 2.5" fill="none" stroke="#ff0000"/></g><g id="kmbq08e8hn1" transform="translate(25 2.5) rotate(180 2.5 0)"><path d="M 1e-13 1e-13 L 5 0" fill="none" stroke="#ff0000"/></g><g id="kmbq08e8hn2" transform="translate(52.5 29)"><path d="M 1e-13 1e-13 L 0 5" fill="none" stroke="#ff0000"/></g><g id="kmbq08e8hn3" transform="translate(52.5 31.5)"><path d="M 1e-13 1e-13 L 2.5 0" fill="none" stroke="#ff0000"/></g><g id="kmbq08e8hn4" transform="translate(2.5 29) rotate(180 0 2.5)"><path d="M 1e-13 1e-13 L 0 5" fill="none" stroke="#ff0000"/></g><g id="kmbq08e8hn5" transform="translate(0 31.5) rotate(180 1.25 0)"><path d="M 1e-13 1e-13 L 2.5 0" fill="none" stroke="#ff0000"/></g><g id="kmbq08e8hn6" transform="translate(35.5 8)"><path d="M 1e-13 1e-13 L 0 5" fill="none" stroke="#ff0000"/></g><g id="kmbq08e8hn7" transform="translate(35.5 10.5)"><path d="M 1e-13 1e-13 L 2.5 0" fill="none" stroke="#ff0000"/></g><g id="kmbq08e9hn8" transform="translate(19.5 8)"><path d="M 1e-13 1e-13 L 0 5" fill="none" stroke="#ff0000"/></g><g id="kmbq08e9hn9" transform="translate(17 10.5)"><path d="M 2.5 0 L 1e-13 1e-13" fill="none" stroke="#ff0000"/></g><g id="kmbq08e9hna" transform="translate(27.5 21) rotate(180 0 2.5)"><path d="M 1e-13 1e-13 L 0 5" fill="none" stroke="#ff0000"/></g><g id="kmbq08e9hnb" transform="translate(25 23.5) rotate(180 2.5 0)"><path d="M 1e-13 1e-13 L 5 0" fill="none" stroke="#ff0000"/></g></g></g></svg>