<?xml version="1.0" encoding="UTF-8"?>
<svg xmlns="http://www.w3.org/2000/svg" viewBox="0 0 64 64"><g id="kmbq09aqhr9" class="Group.cls" transform="translate(5 3)"><g class="Prim.cls"><g id="kmbq09arhra" transform="translate(27.5 9.5)"><path d="M 0 20 L 1e-13 1e-13" fill="none" stroke-linecap="square" stroke="#000000" stroke-width="0.5"/></g><g id="kmbq09arhrb" transform="translate(2.5 29.5)"><path d="M 1e-13 1e-13 L 50 0" fill="none" stroke="#000000" stroke-width="0.5"/></g><g id="kmbq09arhrc" transform="translate(17.5 24.5)"><path fill="white" d="M 20 10 L 20 0 L 0 10 L 0 0 Z" stroke="#000000" stroke-width="0.5"/></g><g id="kmbq09arhrd" transform="translate(21.5 2.5)"><rect fill="white" height="13" stroke-linecap="square" stroke="#000000" stroke-width="0.5" width="12" x="0" y="0"/></g><g id="kmbq09arhre" transform="translate(24.5 4.5)"><path d="M 2.9375623017671053 4.698830380833463 Q 1.5368373357498866 4.295355665678161 0.8987766198459446 3.707307437178086 Q 0.2608971454463072 3.1192592086780073 0.2608971454463072 2.2556773841111273 Q 0.2608971454463072 1.2784161854221945 1.040688717716357 0.6392910098329951 Q 1.8203896692342545 0 3.068056184866334 0 Q 3.9187131853194384 0 4.58504757589488 0.32959555954424846 Q 5.251472587222473 0.6590252848447008 5.617127322156773 1.2386988840330881 Q 5.98305391934753 1.8182066489776803 5.98305391934753 2.505755423755266 L 4.888536474852742 2.505755423755266 Q 4.888536474852742 1.7556042219447476 4.412143180788401 1.3266739503667855 Q 3.935659265971907 0.8977436787888242 3.068056184866334 0.8977436787888242 Q 2.262800181241504 0.8977436787888242 1.811871318531944 1.2527947947557356 Q 1.3610330765745353 1.6080117449664422 1.3610330765745353 2.238679374122053 Q 1.3610330765745353 2.7443079834555943 1.789216130493883 3.093803652255344 Q 2.2173085636610783 3.4431334868112993 3.2466696873584047 3.7329288278445434 Q 4.276030811055732 4.022641251755891 4.857272315360217 4.372219837677537 Q 5.438604440416855 4.721549672233493 5.719347530584503 5.187460980177927 Q 6 5.653372288122366 6 6.284039917277975 Q 6 7.289658771655998 5.217489805165382 7.894787927267049 Q 4.43479836882646 8.5 3.124694154961486 8.5 Q 2.2741277752605344 8.5 1.5368373357498866 8.173140705478374 Q 0.7996375169913911 7.846447245200561 0.39981875849569554 7.278299125955984 Q 0 6.710233923833306 0 5.988606211955672 L 1.0945174444947892 5.988606211955672 Q 1.0945174444947892 6.738591579522395 1.6474852741277752 7.173160215389415 Q 2.200362483008609 7.6078946855002325 3.124694154961486 7.6078946855002325 Q 3.986769370185772 7.6078946855002325 4.446125962845491 7.255662751677849 Q 4.90548255550521 6.9033479007335705 4.90548255550521 6.295399562977992 Q 4.90548255550521 5.687534142344307 4.480108744902583 5.355036483533634 Q 4.054916175804258 5.022621741844855 2.9375623017671053 4.698830380833463 Z" fill="#000000" stroke="none" stroke-linecap="butt" stroke-width="0.5"/></g><g id="kmbq09arhrf" transform="translate(2.5 27) rotate(180 0 2.5)"><path d="M 1e-13 1e-13 L 0 5" fill="none" stroke="#ff0000"/></g><g id="kmbq09arhrg" transform="translate(0 29.5) rotate(180 1.25 0)"><path d="M 1e-13 1e-13 L 2.5 0" fill="none" stroke="#ff0000"/></g><g id="kmbq09arhrh" transform="translate(52.5 27) rotate(180 0 2.5)"><path d="M 1e-13 1e-13 L 0 5" fill="none" stroke="#ff0000"/></g><g id="kmbq09arhri" transform="translate(52.5 29.5) rotate(180 1.25 0)"><path d="M 2.5 0 L 1e-13 1e-13" fill="none" stroke="#ff0000"/></g><g id="kmbq09arhrj" transform="translate(27.5 27) rotate(180 0 2.5)"><path d="M 1e-13 1e-13 L 0 5" fill="none" stroke="#ff0000"/></g><g id="kmbq09arhrk" transform="translate(25 29.5) rotate(180 2.5 0)"><path d="M 1e-13 1e-13 L 5 0" fill="none" stroke="#ff0000"/></g><g id="kmbq09arhrl" transform="translate(27.5 0) rotate(180 0 1.25)"><path d="M 1e-13 1e-13 L 0 2.5" fill="none" stroke="#ff0000"/></g><g id="kmbq09arhrm" transform="translate(25 2.5) rotate(180 2.5 0)"><path d="M 1e-13 1e-13 L 5 0" fill="none" stroke="#ff0000"/></g><g id="kmbq09arhrn" transform="translate(52.5 27)"><path d="M 1e-13 1e-13 L 0 5" fill="none" stroke="#ff0000"/></g><g id="kmbq09arhro" transform="translate(52.5 29.5)"><path d="M 1e-13 1e-13 L 2.5 0" fill="none" stroke="#ff0000"/></g><g id="kmbq09arhrp" transform="translate(2.5 27) rotate(180 0 2.5)"><path d="M 1e-13 1e-13 L 0 5" fill="none" stroke="#ff0000"/></g><g id="kmbq09arhrq" transform="translate(0 29.5) rotate(180 1.25 0)"><path d="M 1e-13 1e-13 L 2.5 0" fill="none" stroke="#ff0000"/></g><g id="kmbq09arhrr" transform="translate(33.5 7)"><path d="M 1e-13 1e-13 L 0 5" fill="none" stroke="#ff0000"/></g><g id="kmbq09arhrs" transform="translate(33.5 9.5)"><path d="M 1e-13 1e-13 L 2.5 0" fill="none" stroke="#ff0000"/></g><g id="kmbq09arhrt" transform="translate(21.5 7)"><path d="M 1e-13 1e-13 L 0 5" fill="none" stroke="#ff0000"/></g><g id="kmbq09arhru" transform="translate(19 9.5)"><path d="M 2.5 0 L 1e-13 1e-13" fill="none" stroke="#ff0000"/></g><g id="kmbq09arhrv" transform="translate(27.5 19) rotate(180 0 2.5)"><path d="M 1e-13 1e-13 L 0 5" fill="none" stroke="#ff0000"/></g><g id="kmbq09arhrw" transform="translate(25 21.5) rotate(180 2.5 0)"><path d="M 1e-13 1e-13 L 5 0" fill="none" stroke="#ff0000"/></g></g></g></svg>