<?xml version="1.0" encoding="UTF-8"?>
<svg xmlns:xlink="http://www.w3.org/1999/xlink" xmlns="http://www.w3.org/2000/svg" viewBox="0 0 64 64"><g id="kmbq02k5gyk" class="Group.cls" transform="translate(15 5)"><g class="Prim.cls"><g id="kmbq02k6gyl" transform="translate(12.5 12.5)"><path d="M 1e-13 1e-13 L 0 25 L 10 25 L 10 0" fill="none" stroke-linecap="square" stroke="#000000" stroke-width="0.5"/></g><g id="kmbq02k6gym" transform="translate(2.5 27.5)"><path d="M 10 0 L 1e-13 1e-13" fill="none" stroke-linecap="square" stroke="#000000" stroke-width="0.5"/></g><g id="kmbq02k6gyn" transform="translate(22.5 27.5)"><path d="M 1e-13 1e-13 L 10 0" fill="none" stroke-linecap="square" stroke="#000000" stroke-width="0.5"/></g><g id="kmbq02k6gyo" transform="translate(17.5 2.5)"><path d="M 1e-13 1e-13 L 0 21.6875" fill="none" stroke-linecap="square" stroke="#000000" stroke-width="0.5"/><use class="EndArrow.cls" fill="#000000" stroke-linecap="square" stroke-width="0.5714285714285714" transform="scale(0.875) rotate(180 0 34.286)" x="0" xlink:href="#icon_lIi7kjl0bb-uEdpRm5znbi_thin.end" y="34.285714285714285"/></g><g id="kmbq02k6gyp" transform="translate(12.5 2.5)"><path d="M 1e-13 1e-13 L 10 0" fill="none" stroke-linecap="square" stroke="#000000" stroke-width="0.5"/></g><g id="kmbq02k6gyq" transform="translate(32.5 25)"><path d="M 1e-13 1e-13 L 0 5" fill="none" stroke="#ff0000" stroke-width="1"/></g><g id="kmbq02k6gyr" transform="translate(32.5 27.5)"><path d="M 1e-13 1e-13 L 2.5 0" fill="none" stroke="#ff0000" stroke-width="1"/></g><g id="kmbq02k6gys" transform="translate(2.5 25) rotate(180 0 2.5)"><path d="M 1e-13 1e-13 L 0 5" fill="none" stroke="#ff0000" stroke-width="1"/></g><g id="kmbq02k6gyt" transform="translate(0 27.5) rotate(180 1.25 0)"><path d="M 1e-13 1e-13 L 2.5 0" fill="none" stroke="#ff0000" stroke-width="1"/></g><g id="kmbq02k6gyu" transform="translate(17.5 0) rotate(270 0 2.5)"><path d="M 1e-13 1e-13 L 0 5" fill="none" stroke="#ff0000" stroke-width="1"/></g><g id="kmbq02k6gyv" transform="translate(16.25 1.25) rotate(270 1.25 0)"><path d="M 1e-13 1e-13 L 2.5 0" fill="none" stroke="#ff0000" stroke-width="1"/></g><g id="kmbq02k6gyw" transform="translate(17.5 35) rotate(90 0 2.5)"><path d="M 1e-13 1e-13 L 0 5" fill="none" stroke="#ff0000" stroke-width="1"/></g><g id="kmbq02k6gyx" transform="translate(16.25 38.75) rotate(90 1.25 0)"><path d="M 1e-13 1e-13 L 2.5 0" fill="none" stroke="#ff0000" stroke-width="1"/></g></g></g></svg>