<?xml version="1.0" encoding="UTF-8"?>
<svg xmlns="http://www.w3.org/2000/svg" viewBox="0 0 64 64"><g id="kmbq0195gwl" class="Group.cls" transform="translate(5 27.5)"><g class="Prim.cls"><g id="kmbq0196gwm" transform="translate(2.5 5)"><path d="M 1e-13 1e-13 L 50 0" fill="#000000" fill-opacity="1" stroke="#000000" stroke-width="0.5"/></g><g id="kmbq0196gwn" transform="translate(17.5 0)"><path d="M 20 10 L 20 0 L 0 10 L 0 0 Z" fill="#000000" fill-opacity="1" stroke="#000000" stroke-width="0.5"/></g><g id="kmbq0196gwo" transform="translate(24.5 1)"><path d="M 3 0 L 0 4 L 3 8 L 6 4 Z" fill="#000000" fill-opacity="1" stroke-linecap="square" stroke="#000000" stroke-width="0.5"/></g><g id="kmbq0196gwp" transform="translate(52.5 2.5)"><path d="M 1e-13 1e-13 L 0 5" fill="#000000" fill-opacity="1" stroke="#ff0000" stroke-width="1"/></g><g id="kmbq0196gwq" transform="translate(52.5 5)"><path d="M 1e-13 1e-13 L 2.5 0" fill="#000000" fill-opacity="1" stroke="#ff0000" stroke-width="1"/></g><g id="kmbq0196gwr" transform="translate(2.5 2.5) rotate(180 0 2.5)"><path d="M 1e-13 1e-13 L 0 5" fill="#000000" fill-opacity="1" stroke="#ff0000" stroke-width="1"/></g><g id="kmbq0196gws" transform="translate(0 5) rotate(180 1.25 0)"><path d="M 1e-13 1e-13 L 2.5 0" fill="#000000" fill-opacity="1" stroke="#ff0000" stroke-width="1"/></g><g id="kmbq0196gwt" transform="translate(27.5 2.5)"><path d="M 1e-13 1e-13 L 0 5" fill="none" stroke="#ff0000"/></g><g id="kmbq0196gwu" transform="translate(25 5)"><path d="M 1e-13 1e-13 L 5 0" fill="none" stroke="#ff0000"/></g></g></g></svg>