<?xml version="1.0" encoding="UTF-8"?>
<svg xmlns="http://www.w3.org/2000/svg" viewBox="0 0 64 64"><g id="krvg6mjdny" class="Group.cls" transform="translate(5 2.5)"><g class="Prim.cls"><g id="krvg6mjenz" transform="translate(2.5 35)"><path d="M 50 0 L 1e-13 1e-13" fill="none" stroke="#000000" stroke-width="0.5"/></g><g id="krvg6mjeo0" transform="translate(17.5 30)"><path fill="white" d="M 0 10 L 0 0 L 20 10 L 20 0 Z" stroke="#000000" stroke-width="0.5"/></g><g id="krvg6mjeo1" transform="translate(27.5 15)"><path d="M 1e-13 1e-13 L 0 20" fill="none" stroke="#000000" stroke-width="0.5"/></g><g id="krvg6mjeo2" transform="translate(21.5 15)"><path fill="white" d="M 0 5 L 12 5 C 10.8069 2.0067 8.5716 0 6 0 C 3.4284 0 1.1931 2.0067 0 5 Z" stroke="#000000" stroke-width="0.5"/></g><g id="krvg6mjeo3" transform="translate(7.5 0)"><path d="M 20 15 L 20 0 L 1e-13 1e-13 L 0 35" fill="none" stroke-linecap="butt" stroke="#000000" stroke-width="0.5"/></g><g id="krvg6mjeo4" transform="translate(52.5 32.5) rotate(180 0 2.5)"><path d="M 1e-13 1e-13 L 0 5" fill="none" stroke="#ff0000" stroke-width="1"/></g><g id="krvg6mjeo5" transform="translate(52.5 35) rotate(180 1.25 0)"><path d="M 2.5 0 L 1e-13 1e-13" fill="none" stroke="#ff0000" stroke-width="1"/></g><g id="krvg6mjeo6" transform="translate(2.5 32.5) rotate(180 0 2.5)"><path d="M 1e-13 1e-13 L 0 5" fill="none" stroke="#ff0000" stroke-width="1"/></g><g id="krvg6mjeo7" transform="translate(0 35) rotate(180 1.25 0)"><path d="M 1e-13 1e-13 L 2.5 0" fill="none" stroke="#ff0000" stroke-width="1"/></g><g id="krvg6mjeo8" transform="translate(27.5 32.5) rotate(180 0 2.5)"><path d="M 1e-13 1e-13 L 0 5" fill="none" stroke="#ff0000" stroke-width="1"/></g><g id="krvg6mjeo9" transform="translate(25 35) rotate(180 2.5 0)"><path d="M 1e-13 1e-13 L 5 0" fill="none" stroke="#ff0000" stroke-width="1"/></g></g></g></svg>