<?xml version="1.0" encoding="UTF-8"?>
<svg xmlns:xlink="http://www.w3.org/1999/xlink" xmlns="http://www.w3.org/2000/svg" viewBox="0 0 64 64"><g id="kmbq0b2lhzn" class="Group.cls" transform="translate(27.5 20)"><g class="Prim.cls"><g id="kmbq0b2nhzo" transform="translate(0 17.5) rotate(270 5 5)"><path fill="white" d="M 0 0 L 0 10 L 10 5 Z" stroke-linecap="square" stroke="#000000" stroke-width="0.5"/></g><g id="kmbq0b2nhzp" transform="translate(15 17.5)"><path d="M 6.4375 0 L 1e-13 1e-13" fill="none" stroke="#000000" stroke-width="0.5"/><use class="BeginArrow.cls" fill="#000000" stroke-width="1.3333333333333333" transform="scale(0.375) rotate(90 26.667 0)" x="26.666666666666668" xlink:href="#icon_aDpXdwGoXi9aeC56NnXkxb_thin.end" y="0"/></g><g id="kmbq0b2nhzq" transform="translate(5 12.5)"><path fill="white" d="M 10 0 L 10 10 L 0 5 Z" stroke-linecap="square" stroke="#000000" stroke-width="0.5"/></g><g id="kmbq0b2nhzr" transform="translate(5 2.5)"><path d="M 0 15 L 1e-13 1e-13" fill="none" stroke-linecap="square" stroke="#000000" stroke-width="0.5"/></g><g id="kmbq0b2nhzs" transform="translate(5 27.5)"><path d="M 0 10 L 1e-13 1e-13" fill="none" stroke-linecap="square" stroke="#000000" stroke-width="0.5"/></g><g id="kmbq0b2nhzt" transform="translate(2.5 8.317)"><path d="M 0 2.6833 L 5.3666 0" fill="none" stroke-linecap="square" stroke="#000000" stroke-width="0.5"/></g><g id="kmbq0b2nhzu" transform="translate(2.5 6.264)"><path d="M 0 2.2361 L 4.4721 0" fill="none" stroke-linecap="square" stroke="#000000" stroke-width="0.5"/></g><g id="kmbq0b2nhzv" transform="translate(3 3.711)"><path d="M 0 1.7889 L 3.5777 0" fill="none" stroke-linecap="square" stroke="#000000" stroke-width="0.5"/></g><g id="kmbq0b2phzw" transform="translate(5 35) rotate(90 0 2.5)"><path d="M 1e-13 1e-13 L 0 5" fill="none" stroke="#ff0000"/></g><g id="kmbq0b2phzx" transform="translate(3.75 38.75) rotate(90 1.25 0)"><path d="M 1e-13 1e-13 L 2.5 0" fill="none" stroke="#ff0000"/></g><g id="kmbq0b2phzy" transform="translate(25 15) rotate(180 0 2.5)"><path d="M 1e-13 1e-13 L 0 5" fill="none" stroke="#ff0000"/></g><g id="kmbq0b2phzz" transform="translate(25 17.5) rotate(180 1.25 0)"><path d="M 2.5 0 L 1e-13 1e-13" fill="none" stroke="#ff0000"/></g><g id="kmbq0b2pi00" transform="translate(5 0) rotate(180 0 1.25)"><path d="M 1e-13 1e-13 L 0 2.5" fill="none" stroke="#ff0000"/></g><g id="kmbq0b2pi01" transform="translate(2.5 2.5) rotate(180 2.5 0)"><path d="M 1e-13 1e-13 L 5 0" fill="none" stroke="#ff0000"/></g><g id="kmbq0b2pi02" transform="translate(5 15) rotate(180 0 2.5)"><path d="M 1e-13 1e-13 L 0 5" fill="none" stroke="#ff0000"/></g><g id="kmbq0b2pi03" transform="translate(2.5 17.5) rotate(180 2.5 0)"><path d="M 1e-13 1e-13 L 5 0" fill="none" stroke="#ff0000"/></g></g></g></svg>