<?xml version="1.0" encoding="UTF-8"?>
<svg xmlns:xlink="http://www.w3.org/1999/xlink" xmlns="http://www.w3.org/2000/svg" viewBox="0 0 64 64"><g id="kmbpzxc4gqh" class="Group.cls" transform="translate(5 20)"><g class="Prim.cls"><g id="kmbpzxc5gqi" transform="translate(37.5 7.5)"><path d="M 0 10 L 1e-13 1e-13" fill="none" stroke="#000000" stroke-width="0.5"/></g><g id="kmbpzxc5gqj" transform="translate(17.5 7.5)"><path d="M 1e-13 1e-13 L 0 10" fill="none" stroke="#000000" stroke-width="0.5"/></g><g id="kmbpzxc5gqk" transform="translate(37.5 12.5)"><path d="M 1e-13 1e-13 L 15 0" fill="none" stroke="#000000" stroke-width="0.5"/></g><g id="kmbpzxc5gql" transform="translate(2.5 12.5)"><path d="M 15 0 L 1e-13 1e-13" fill="none" stroke="#000000" stroke-width="0.5"/></g><g id="kmbpzxc5gqm" transform="translate(16.5 6.5)"><ellipse cx="1" cy="1" fill="#000000" rx="1" ry="1" stroke="#000000" stroke-width="0.5"/></g><g id="kmbpzxc5gqn" transform="translate(17.5 7.5)"><path d="M 1e-13 1e-13 L 14.26449966430664 7.132199764251709" fill="none" stroke="#000000" stroke-width="0.5"/><use class="EndArrow.cls" fill="#000000" stroke-width="0.7407407276587887" transform="scale(0.675000011920929) rotate(116.565 29.63 14.815)" x="29.62962910635155" xlink:href="#icon_wVsyvWbZMQQWbBKB3fV7R3_thin.end" y="14.814814553175776"/></g><g id="kmbpzxc5gqo" transform="translate(27.5 2.5)"><path d="M 0 10 L 1e-13 1e-13" fill="none" stroke="#000000" stroke-width="0.5"/></g><g id="kmbpzxc5gqp" transform="translate(22.5 2.5)"><path d="M 1e-13 1e-13 L 10 0" fill="none" stroke="#000000" stroke-width="0.5"/></g><g id="kmbpzxc5gqq" transform="translate(2.5 10) rotate(180 0 2.5)"><path d="M 1e-13 1e-13 L 0 5" fill="none" stroke="#ff0000"/></g><g id="kmbpzxc6gqr" transform="translate(0 12.5) rotate(180 1.25 0)"><path d="M 1e-13 1e-13 L 2.5 0" fill="none" stroke="#ff0000"/></g><g id="kmbpzxc6gqs" transform="translate(52.5 10)"><path d="M 1e-13 1e-13 L 0 5" fill="none" stroke="#ff0000"/></g><g id="kmbpzxc6gqt" transform="translate(52.5 12.5)"><path d="M 1e-13 1e-13 L 2.5 0" fill="none" stroke="#ff0000"/></g><g id="kmbpzxc6gqu" transform="translate(27.5 0) rotate(270 0 2.5)"><path d="M 1e-13 1e-13 L 0 5" fill="none" stroke="#ff0000"/></g><g id="kmbpzxc6gqv" transform="translate(26.25 1.25) rotate(270 1.25 0)"><path d="M 1e-13 1e-13 L 2.5 0" fill="none" stroke="#ff0000"/></g><g id="kmbpzxc6gqw" transform="translate(27.5 18) rotate(90 0 2.5)"><path d="M 1e-13 1e-13 L 0 5" fill="none" stroke="#ff0000"/></g><g id="kmbpzxc6gqx" transform="translate(26.25 21.75) rotate(90 1.25 0)"><path d="M 1e-13 1e-13 L 2.5 0" fill="none" stroke="#ff0000"/></g></g></g></svg>