<?xml version="1.0" encoding="UTF-8"?>
<svg xmlns:xlink="http://www.w3.org/1999/xlink" xmlns="http://www.w3.org/2000/svg" viewBox="0 0 64 64"><g id="kmbq03unh2m" class="Group.cls" transform="translate(5 20)"><g class="Prim.cls"><g id="kmbq03uoh2n" transform="translate(52.5 10)"><path d="M 1e-13 1e-13 L 0 5" fill="none" stroke="#ff0000" stroke-width="1"/></g><g id="kmbq03uoh2o" transform="translate(52.5 12.5)"><path d="M 1e-13 1e-13 L 2.5 0" fill="none" stroke="#ff0000" stroke-width="1"/></g><g id="kmbq03uoh2p" transform="translate(2.5 10) rotate(180 0 2.5)"><path d="M 1e-13 1e-13 L 0 5" fill="none" stroke="#ff0000" stroke-width="1"/></g><g id="kmbq03uoh2q" transform="translate(0 12.5) rotate(180 1.25 0)"><path d="M 1e-13 1e-13 L 2.5 0" fill="none" stroke="#ff0000" stroke-width="1"/></g><g id="kmbq03uoh2r" transform="translate(2.5 12.5)"><path d="M 1e-13 1e-13 L 50 0" fill="none" stroke-linecap="butt" stroke="#000000" stroke-width="0.5"/></g><g id="kmbq03uoh2s" transform="translate(2.5 12.5)"><path d="M 1e-13 1e-13 L 50 0" fill="none" fill-opacity="0.25" stroke="#000000" stroke-linecap="butt" stroke-opacity="1" stroke-width="0.5"/></g><g id="kmbq03uoh2t" transform="translate(12.5 2.5)"><path d="M 1e-13 1e-13 L 25 0 L 21.6875 0" fill="none" stroke-linecap="square" stroke="#000000" stroke-width="0.5"/><use class="EndArrow.cls" fill="#000000" stroke-linecap="square" stroke-width="0.5714285714285714" transform="scale(0.875) rotate(90 34.286 0)" x="34.285714285714285" xlink:href="#icon_aTRZpZkqSshdRr0nSeLaKT_thin.end" y="0"/></g><g id="kmbq03uoh2u" transform="translate(12.5 7.5)"><rect fill="white" height="10" stroke-linecap="square" stroke="#000000" stroke-width="0.5" width="30" x="0" y="0"/></g><g id="kmbq03uoh2v" transform="translate(20 7.5)"><path d="M 1e-13 1e-13 L 22.5 10" fill="none" stroke-linecap="butt" stroke="#000000" stroke-width="0.5"/></g><g id="kmbq03uoh2w" transform="translate(20 7.5)"><path d="M 22.5 0 L 0 10" fill="none" stroke-linecap="butt" stroke="#000000" stroke-width="0.5"/></g><g id="kmbq03uoh2x" transform="translate(19.5 7.5)"><path d="M 1e-13 1e-13 L 0 10" fill="none" stroke-linecap="square" stroke="#000000" stroke-width="0.5"/></g><g id="kmbq03uoh2y" transform="translate(12.5 7.5)"><rect fill="#000000" height="10" stroke-linecap="butt" stroke="#000000" stroke-width="0.5" width="7" x="0" y="0"/></g><g id="kmbq03uoh2z" transform="translate(27.5 15) rotate(90 0 2.5)"><path d="M 1e-13 1e-13 L 0 5" fill="none" stroke="#ff0000" stroke-width="1"/></g><g id="kmbq03uoh30" transform="translate(26.25 18.75) rotate(90 1.25 0)"><path d="M 1e-13 1e-13 L 2.5 0" fill="none" stroke="#ff0000" stroke-width="1"/></g><g id="kmbq03uoh31" transform="translate(27.5 0) rotate(90 0 2.5)"><path d="M 1e-13 1e-13 L 0 5" fill="none" stroke="#ff0000" stroke-width="1"/></g><g id="kmbq03uoh32" transform="translate(26.25 1.25) rotate(90 1.25 0)"><path d="M 2.5 0 L 1e-13 1e-13" fill="none" stroke="#ff0000" stroke-width="1"/></g></g></g></svg>