<?xml version="1.0" encoding="UTF-8"?>
<svg xmlns="http://www.w3.org/2000/svg" viewBox="0 0 64 64"><g id="kmbq0drmib3" class="Group.cls" transform="translate(5 7.5)"><g class="Prim.cls"><g id="kmbq0drnib4" transform="translate(2.5 30)"><path d="M 50 0 L 1e-13 1e-13" fill="none" stroke="#000000" stroke-width="0.5"/></g><g id="kmbq0drnib5" transform="translate(17.5 25)"><path fill="white" d="M 0 10 L 0 0 L 20 10 L 20 0 Z" stroke="#000000" stroke-width="0.5"/></g><g id="kmbq0drnib6" transform="translate(27.5 10)"><path d="M 1e-13 1e-13 L 0 20" fill="none" stroke="#000000" stroke-width="0.5"/></g><g id="kmbq0drnib7" transform="translate(17.5 0)"><path d="M 10 10 L 9.9999999999999 1e-13 L 1e-13 1e-13 L 0 10 L 10 30" fill="none" stroke-linecap="butt" stroke="#000000" stroke-width="0.5"/></g><g id="kmbq0drnib8" transform="translate(21.5 10)"><path fill="white" d="M 0 5 L 12 5 C 10.8069 2.0067 8.5716 0 6 0 C 3.4284 0 1.1930999999999994 2.0067 0 5 Z" stroke="#000000" stroke-width="0.5"/></g><g id="kmbq0drnib9" transform="translate(52.5 27.5) rotate(180 0 2.5)"><path d="M 1e-13 1e-13 L 0 5" fill="none" stroke="#ff0000"/></g><g id="kmbq0drniba" transform="translate(52.5 30) rotate(180 1.25 0)"><path d="M 2.5 0 L 1e-13 1e-13" fill="none" stroke="#ff0000"/></g><g id="kmbq0drnibb" transform="translate(2.5 27.5) rotate(180 0 2.5)"><path d="M 1e-13 1e-13 L 0 5" fill="none" stroke="#ff0000"/></g><g id="kmbq0drnibc" transform="translate(0 30) rotate(180 1.25 0)"><path d="M 1e-13 1e-13 L 2.5 0" fill="none" stroke="#ff0000"/></g><g id="kmbq0drnibd" transform="translate(27.5 27.5) rotate(180 0 2.5)"><path d="M 1e-13 1e-13 L 0 5" fill="none" stroke="#ff0000"/></g><g id="kmbq0drnibe" transform="translate(25 30) rotate(180 2.5 0)"><path d="M 1e-13 1e-13 L 5 0" fill="none" stroke="#ff0000"/></g></g></g></svg>