<?xml version="1.0" encoding="UTF-8"?>
<svg xmlns:xlink="http://www.w3.org/1999/xlink" xmlns="http://www.w3.org/2000/svg" viewBox="0 0 64 64"><g id="kmbq0byti3l" class="Group.cls" transform="translate(10 19)"><g class="Prim.cls"><g id="kmbq0byui3m" transform="translate(17.5 18.5) rotate(270 5 5)"><path fill="white" d="M 0 0 L 0 10 L 10 5 Z" stroke-linecap="square" stroke="#000000" stroke-width="0.5"/></g><g id="kmbq0byui3n" transform="translate(2.5 18.5)"><path d="M 1e-13 1e-13 L 6.4375 0" fill="none" stroke="#000000" stroke-width="0.5"/><use class="EndArrow.cls" fill="#000000" stroke-width="1.3333333333333333" transform="scale(0.375) rotate(90 26.667 0)" x="26.666666666666668" xlink:href="#icon_naBm1fdqVuk1X3UhkCwsyB_thin.end" y="0"/></g><g id="kmbq0byui3o" transform="translate(22.5 13.5)"><path fill="white" d="M 10 0 L 10 10 L 0 5 Z" stroke-linecap="square" stroke="#000000" stroke-width="0.5"/></g><g id="kmbq0byui3p" transform="translate(22.5 2.5)"><path d="M 0 15.9999999999999 L 1e-13 0" fill="none" stroke-linecap="square" stroke="#000000" stroke-width="0.5"/></g><g id="kmbq0byui3q" transform="translate(22.5 28.5)"><path d="M 0 10 L 1e-13 1e-13" fill="none" stroke-linecap="square" stroke="#000000" stroke-width="0.5"/></g><g id="kmbq0byui3r" transform="translate(20 9.317)"><path d="M 0 2.6833 L 5.3666 0" fill="none" stroke-linecap="square" stroke="#000000" stroke-width="0.5"/></g><g id="kmbq0byui3s" transform="translate(20 7.264)"><path d="M 0 2.2361 L 4.4721 0" fill="none" stroke-linecap="square" stroke="#000000" stroke-width="0.5"/></g><g id="kmbq0byui3t" transform="translate(20.5 4.711)"><path d="M 0 1.7889 L 3.5777 0" fill="none" stroke-linecap="square" stroke="#000000" stroke-width="0.5"/></g><g id="kmbq0byui3u" transform="translate(32.5 18.5)"><path d="M 6.4375 0 L 1e-13 1e-13" fill="none" stroke="#000000" stroke-width="0.5"/><use class="BeginArrow.cls" fill="#000000" stroke-width="1.3333333333333333" transform="scale(0.375) rotate(90 26.667 0)" x="26.666666666666668" xlink:href="#icon_naBm1fdqVuk1X3UhkCwsyB_thin.end" y="0"/></g><g id="kmbq0byui3v" transform="translate(12.5 13.5)"><path fill="white" d="M 0 0 L 0 10 L 10 5 Z" stroke-linecap="square" stroke="#000000" stroke-width="0.5"/></g><g id="kmbq0byui3w" transform="translate(22.5 36) rotate(90 0 2.5)"><path d="M 1e-13 1e-13 L 0 5" fill="none" stroke="#ff0000"/></g><g id="kmbq0byui3x" transform="translate(21.25 39.75) rotate(90 1.25 0)"><path d="M 1e-13 1e-13 L 2.5 0" fill="none" stroke="#ff0000"/></g><g id="kmbq0byui3y" transform="translate(2.5 16)"><path d="M 1e-13 1e-13 L 0 5" fill="none" stroke="#ff0000"/></g><g id="kmbq0byui3z" transform="translate(0 18.5)"><path d="M 2.5 0 L 1e-13 1e-13" fill="none" stroke="#ff0000"/></g><g id="kmbq0byui40" transform="translate(42.5 16) rotate(180 0 2.5)"><path d="M 1e-13 1e-13 L 0 5" fill="none" stroke="#ff0000"/></g><g id="kmbq0byui41" transform="translate(42.5 18.5) rotate(180 1.25 0)"><path d="M 2.5 0 L 1e-13 1e-13" fill="none" stroke="#ff0000"/></g><g id="kmbq0byui42" transform="translate(22.5 0) rotate(90 0 2.5)"><path d="M 1e-13 1e-13 L 0 5" fill="none" stroke="#ff0000"/></g><g id="kmbq0byui43" transform="translate(21.25 1.25) rotate(90 1.25 0)"><path d="M 2.5 0 L 1e-13 1e-13" fill="none" stroke="#ff0000"/></g></g></g></svg>