<?xml version="1.0" encoding="UTF-8"?>
<svg xmlns:xlink="http://www.w3.org/1999/xlink" xmlns="http://www.w3.org/2000/svg" viewBox="0 0 64 64"><g id="kmbpzz3pgtb" class="Group.cls" transform="translate(5 25)"><g class="Prim.cls"><g id="kmbpzz3qgtc" transform="translate(2.5 7.5)"><path d="M 1e-13 1e-13 L 50 0" fill="none" stroke="#000000" stroke-width="0.5"/></g><g id="kmbpzz3qgtd" transform="translate(17.5 2.5)"><path fill="white" d="M 20 10 L 20 0 L 0 10 L 0 0 Z" stroke="#000000" stroke-width="0.5"/></g><g id="kmbpzz3qgte" transform="translate(27.5 2.5)"><path d="M 1e-13 1e-13 L 0 8.3125" fill="none" stroke="#000000" stroke-width="0.5"/><use class="EndArrow.cls" fill="#000000" xlink:href="#icon_CHRBooWsUnVW28ohEgh5pr_thick.end" stroke-width="1.3333333333333333" transform="scale(0.375) rotate(180 0 26.667)" x="0" y="26.666666666666668"/></g><g id="kmbpzz3qgtf" transform="translate(52.5 5)"><path d="M 1e-13 1e-13 L 0 5" fill="none" stroke="#ff0000" stroke-width="1"/></g><g id="kmbpzz3qgtg" transform="translate(52.5 7.5)"><path d="M 1e-13 1e-13 L 2.5 0" fill="none" stroke="#ff0000" stroke-width="1"/></g><g id="kmbpzz3qgth" transform="translate(2.5 5) rotate(180 0 2.5)"><path d="M 1e-13 1e-13 L 0 5" fill="none" stroke="#ff0000" stroke-width="1"/></g><g id="kmbpzz3qgti" transform="translate(0 7.5) rotate(180 1.25 0)"><path d="M 1e-13 1e-13 L 2.5 0" fill="none" stroke="#ff0000" stroke-width="1"/></g><g id="kmbpzz3qgtj" transform="translate(27.5 0) rotate(270 0 2.5)"><path d="M 1e-13 1e-13 L 0 5" fill="none" stroke="#ff0000" stroke-width="1"/></g><g id="kmbpzz3qgtk" transform="translate(26.25 1.25) rotate(270 1.25 0)"><path d="M 1e-13 1e-13 L 2.5 0" fill="none" stroke="#ff0000" stroke-width="1"/></g><g id="kmbpzz3qgtl" transform="translate(27.5 10) rotate(90 0 2.5)"><path d="M 1e-13 1e-13 L 0 5" fill="none" stroke="#ff0000" stroke-width="1"/></g><g id="kmbpzz3qgtm" transform="translate(26.25 13.75) rotate(90 1.25 0)"><path d="M 1e-13 1e-13 L 2.5 0" fill="none" stroke="#ff0000" stroke-width="1"/></g></g></g></svg>