<?xml version="1.0" encoding="UTF-8"?>
<svg xmlns:xlink="http://www.w3.org/1999/xlink" xmlns="http://www.w3.org/2000/svg" viewBox="0 0 64 64"><g id="kmcv0z5kpa" class="Group.cls" transform="translate(25 10)"><g class="Prim.cls"><g id="kmcv0z5lpb" transform="translate(2.5 27.5) rotate(270 5 5)"><path fill="white" d="M 0 0 L 0 10 L 10 5 Z" stroke-linecap="square" stroke="#000000" stroke-width="0.5"/></g><g id="kmcv0z5lpc" transform="translate(17.5 27.5)"><path d="M 6.4375 0 L 1e-13 1e-13" fill="none" stroke="#000000" stroke-width="0.5"/><use x="26.666666666666668" xlink:href="#icon_GtfvLYSDJA1SDqZhcdePM7_thin.end" y="0" class="BeginArrow.cls" fill="#000000" stroke-width="1.3333333333333333" transform="scale(0.375) rotate(90 26.667 0)"/></g><g id="kmcv0z5lpd" transform="translate(7.5 22.5)"><path fill="white" d="M 10 0 L 10 10 L 0 5 Z" stroke-linecap="square" stroke="#000000" stroke-width="0.5"/></g><g id="kmcv0z5lpe" transform="translate(7.5 12.5)"><path d="M 0 15 L 1e-13 1e-13" fill="none" stroke-linecap="square" stroke="#000000" stroke-width="0.5"/></g><g id="kmcv0z5lpf" transform="translate(7.5 37.5)"><path d="M 0 10 L 1e-13 1e-13" fill="none" stroke-linecap="square" stroke="#000000" stroke-width="0.5"/></g><g id="kmcv0z5lpg" transform="translate(5 18.317)"><path d="M 0 2.6833 L 5.3666 0" fill="none" stroke-linecap="square" stroke="#000000" stroke-width="0.5"/></g><g id="kmcv0z5lph" transform="translate(5 16.264)"><path d="M 0 2.2361 L 4.4721 0" fill="none" stroke-linecap="square" stroke="#000000" stroke-width="0.5"/></g><g id="kmcv0z5lpi" transform="translate(5.5 13.711)"><path d="M 0 1.7889 L 3.5777 0" fill="none" stroke-linecap="square" stroke="#000000" stroke-width="0.5"/></g><g id="kmcv0z5lpj" transform="translate(2.5 2.5)"><rect fill="white" x="0" y="0" height="10" stroke-linecap="square" stroke="#000000" stroke-width="0.5" width="10"/></g><g id="kmcv0z5lpk" transform="translate(5.637 4.453)"><path d="M 2.0898 3.4609 L 0.75 3.4609 L 0.75 5.6875 L 0 5.6875 L 0 0 L 2.0977 0 Q 3.0313 0 3.5605 0.4766 Q 4.0898 0.9531 4.0898 1.7383 Q 4.0898 2.5664 3.5723 3.0137 Q 3.0547 3.4609 2.0898 3.4609 Z M 0.75 0.6172 L 0.75 2.8477 L 2.0977 2.8477 Q 2.6992 2.8477 3.0195 2.5645 Q 3.3398 2.2813 3.3398 1.7461 Q 3.3398 1.2383 3.0195 0.9336 Q 2.6992 0.6289 2.1406 0.6172 L 0.75 0.6172 Z" fill="#000000" stroke="none" stroke-linecap="butt" stroke-width="0.5"/></g><g id="kmcv0z5lpl" transform="translate(7.5 45) rotate(90 0 2.5)"><path d="M 1e-13 1e-13 L 0 5" fill="none" stroke="#ff0000"/></g><g id="kmcv0z5lpm" transform="translate(6.25 48.75) rotate(90 1.25 0)"><path d="M 1e-13 1e-13 L 2.5 0" fill="none" stroke="#ff0000"/></g><g id="kmcv0z5lpn" transform="translate(27.5 25) rotate(180 0 2.5)"><path d="M 1e-13 1e-13 L 0 5" fill="none" stroke="#ff0000"/></g><g id="kmcv0z5lpo" transform="translate(27.5 27.5) rotate(180 1.25 0)"><path d="M 2.5 0 L 1e-13 1e-13" fill="none" stroke="#ff0000"/></g><g id="kmcv0z5lpp" transform="translate(7.5 0) rotate(90 0 2.5)"><path d="M 1e-13 1e-13 L 0 5" fill="none" stroke="#ff0000"/></g><g id="kmcv0z5lpq" transform="translate(6.25 1.25) rotate(90 1.25 0)"><path d="M 2.5 0 L 1e-13 1e-13" fill="none" stroke="#ff0000"/></g><g id="kmcv0z5lpr" transform="translate(12.5 5) rotate(180 0 2.5)"><path d="M 1e-13 1e-13 L 0 5" fill="none" stroke="#ff0000"/></g><g id="kmcv0z5lps" transform="translate(12.5 7.5) rotate(180 1.25 0)"><path d="M 2.5 0 L 1e-13 1e-13" fill="none" stroke="#ff0000"/></g><g id="kmcv0z5lpt" transform="translate(2.5 5) rotate(180 0 2.5)"><path d="M 1e-13 1e-13 L 0 5" fill="none" stroke="#ff0000"/></g><g id="kmcv0z5lpu" transform="translate(0 7.5) rotate(180 1.25 0)"><path d="M 9.992007221626409e-14 0 L 2.5 1e-13" fill="none" stroke="#ff0000"/></g></g></g></svg>